<?xml version="1.0" encoding="UTF-8" standalone="no"?>
<svg
   version="1.2"
   width="173.2435mm"
   height="41.787498mm"
   viewBox="0 0 98.585121 23.779394"
   id="svg460"
   xmlns="http://www.w3.org/2000/svg"
   xmlns:svg="http://www.w3.org/2000/svg">
  <defs
     id="defs464" />
  <!-- Page: 1/1 -->
  <text
     font-family="'Century Schoolbook L'"
     font-size="2.2001px"
     text-anchor="start"
     fill="currentColor"
     id="text4"
     x="7.9915171"
     y="-0.95000494"><tspan
       id="tspan2" /></text>
  <rect
     x="47.774517"
     y="5.1797953"
     width="0.19"
     height="4"
     ry="0.0000"
     fill="currentColor"
     id="rect6" />
  <line
     stroke-linejoin="round"
     stroke-linecap="round"
     stroke-width="0.1"
     stroke="currentColor"
     x1="8.0415173"
     y1="9.1797953"
     x2="98.535118"
     y2="9.1797953"
     id="line8" />
  <line
     stroke-linejoin="round"
     stroke-linecap="round"
     stroke-width="0.1"
     stroke="currentColor"
     x1="8.0415173"
     y1="8.1797953"
     x2="98.535118"
     y2="8.1797953"
     id="line10" />
  <line
     stroke-linejoin="round"
     stroke-linecap="round"
     stroke-width="0.1"
     stroke="currentColor"
     x1="8.0415173"
     y1="7.1797953"
     x2="98.535118"
     y2="7.1797953"
     id="line12" />
  <line
     stroke-linejoin="round"
     stroke-linecap="round"
     stroke-width="0.1"
     stroke="currentColor"
     x1="8.0415173"
     y1="6.1797953"
     x2="98.535118"
     y2="6.1797953"
     id="line14" />
  <line
     stroke-linejoin="round"
     stroke-linecap="round"
     stroke-width="0.1"
     stroke="currentColor"
     x1="8.0415173"
     y1="5.1797953"
     x2="98.535118"
     y2="5.1797953"
     id="line16" />
  <rect
     x="98.395119"
     y="5.1797953"
     width="0.19"
     height="4"
     ry="0.0000"
     fill="currentColor"
     id="rect18" />
  <rect
     x="76.210518"
     y="5.1797953"
     width="0.19"
     height="4"
     ry="0.0000"
     fill="currentColor"
     id="rect20" />
  <rect
     x="67.171318"
     y="4.3697953"
     width="0.13"
     height="4.1222"
     ry="0.039999999"
     fill="currentColor"
     id="rect22" />
  <path
     d="m 66.865117,8.1277951 c 0.224,0 0.436,0.116 0.436,0.364 0,0.288 -0.224,0.484 -0.412,0.596 -0.144,0.084 -0.304,0.144 -0.468,0.144 -0.224,0 -0.436,-0.116 -0.436,-0.364 0,-0.288 0.224,-0.484 0.412,-0.596 0.144,-0.084 0.304,-0.144 0.468,-0.144 z"
     fill="currentColor"
     id="path24"
     style="stroke-width:0.004" />
  <rect
     x="64.967117"
     y="4.3697953"
     width="0.13"
     height="3.1222"
     ry="0.039999999"
     fill="currentColor"
     id="rect26" />
  <path
     d="m 64.660917,7.1277951 c 0.224,0 0.436,0.116 0.436,0.364 0,0.288 -0.224,0.484 -0.412,0.596 -0.144,0.084 -0.304,0.144 -0.468,0.144 -0.224,0 -0.436,-0.116 -0.436,-0.364 0,-0.288 0.224,-0.484 0.412,-0.596 0.144,-0.084 0.304,-0.144 0.468,-0.144 z"
     fill="currentColor"
     id="path28"
     style="stroke-width:0.004" />
  <path
     d="m 70.195117,9.1277951 c 0.224,0 0.436,0.116 0.436,0.364 0,0.288 -0.224,0.484 -0.412,0.5959999 -0.144,0.084 -0.304,0.144 -0.468,0.144 -0.224,0 -0.436,-0.116 -0.436,-0.3639999 0,-0.288 0.224,-0.484 0.412,-0.596 0.144,-0.084 0.304,-0.144 0.468,-0.144 z"
     fill="currentColor"
     id="path30"
     style="stroke-width:0.004" />
  <rect
     x="70.501221"
     y="6.1797953"
     width="0.13"
     height="3.3122001"
     ry="0.039999999"
     fill="currentColor"
     id="rect32" />
  <path
     d="m 70.631217,6.2197951 c 0,0.792 0.836,1.34 0.836,2.132 0,0.284 -0.064,0.564 -0.168,0.828 -0.02,0.032 -0.048,0.048 -0.076,0.048 -0.052,0 -0.104,-0.044 -0.092,-0.108 0.104,-0.244 0.168,-0.504 0.168,-0.768 0,-0.416 -0.38,-0.832 -0.668,-1.132 h -0.064 v -1 z"
     fill="currentColor"
     id="path34"
     style="stroke-width:0.004" />
  <path
     d="m 73.234817,8.1797951 0.468,-1.304 c -0.136,0.048 -0.276,0.088 -0.42,0.088 -0.184,0 -0.348,-0.132 -0.348,-0.316 0,-0.16 0.132,-0.288 0.292,-0.288 0.1,0 0.192,0.06 0.224,0.156 0.04,0.112 0.024,0.236 0.14,0.236 0.064,0 0.216,-0.192 0.244,-0.252 0.024,-0.048 0.092,-0.048 0.112,0 l -0.492,1.68 c -0.032,0.028 -0.068,0.04 -0.108,0.04 -0.04,0 -0.08,-0.012 -0.112,-0.04 z"
     fill="currentColor"
     id="path36"
     style="stroke-width:0.004" />
  <path
     d="m 53.442417,8.1797951 0.468,-1.304 c -0.136,0.048 -0.276,0.088 -0.42,0.088 -0.184,0 -0.348,-0.132 -0.348,-0.316 0,-0.16 0.132,-0.288 0.292,-0.288 0.1,0 0.192,0.06 0.224,0.156 0.04,0.112 0.024,0.236 0.14,0.236 0.064,0 0.216,-0.192 0.244,-0.252 0.024,-0.048 0.092,-0.048 0.112,0 l -0.492,1.68 c -0.032,0.028 -0.068,0.04 -0.108,0.04 -0.04,0 -0.08,-0.012 -0.112,-0.04 z"
     fill="currentColor"
     id="path38"
     style="stroke-width:0.004" />
  <path
     d="m 57.298217,7.6277951 c 0.224,0 0.436,0.116 0.436,0.364 0,0.288 -0.224,0.484 -0.412,0.596 -0.144,0.084 -0.304,0.144 -0.468,0.144 -0.224,0 -0.436,-0.116 -0.436,-0.364 0,-0.288 0.224,-0.484 0.412,-0.596 0.144,-0.084 0.304,-0.144 0.468,-0.144 z"
     fill="currentColor"
     id="path40"
     style="stroke-width:0.004" />
  <rect
     x="57.604317"
     y="5.1845951"
     width="0.13"
     height="2.8074"
     ry="0.039999999"
     fill="currentColor"
     id="rect42" />
  <path
     d="m 59.752417,8.1277951 c 0.224,0 0.436,0.116 0.436,0.364 0,0.288 -0.224,0.484 -0.412,0.596 -0.144,0.084 -0.304,0.144 -0.468,0.144 -0.224,0 -0.436,-0.116 -0.436,-0.364 0,-0.288 0.224,-0.484 0.412,-0.596 0.144,-0.084 0.304,-0.144 0.468,-0.144 z"
     fill="currentColor"
     id="path44"
     style="stroke-width:0.004" />
  <rect
     x="60.058617"
     y="5.364995"
     width="0.13"
     height="3.1270001"
     ry="0.039999999"
     fill="currentColor"
     id="rect46" />
  <path
     d="m 62.206617,7.6277951 c 0.224,0 0.436,0.116 0.436,0.364 0,0.288 -0.224,0.484 -0.412,0.596 -0.144,0.084 -0.304,0.144 -0.468,0.144 -0.224,0 -0.436,-0.116 -0.436,-0.364 0,-0.288 0.224,-0.484 0.412,-0.596 0.144,-0.084 0.304,-0.144 0.468,-0.144 z"
     fill="currentColor"
     id="path48"
     style="stroke-width:0.004" />
  <rect
     x="62.512817"
     y="4.3697953"
     width="0.13"
     height="3.6222"
     ry="0.039999999"
     fill="currentColor"
     id="rect50" />
  <path
     d="m 90.256117,5.6277951 c 0.224,0 0.436,0.116 0.436,0.364 0,0.288 -0.224,0.484 -0.412,0.596 -0.144,0.084 -0.304,0.144 -0.468,0.144 -0.224,0 -0.436,-0.116 -0.436,-0.364 0,-0.288 0.224,-0.484 0.412,-0.596 0.144,-0.084 0.304,-0.144 0.468,-0.144 z"
     fill="currentColor"
     id="path52"
     style="stroke-width:0.004" />
  <rect
     x="89.376114"
     y="6.3675952"
     width="0.13"
     height="2.8102"
     ry="0.039999999"
     fill="currentColor"
     id="rect54" />
  <path
     d="m 92.094417,9.1797951 0.404,-1.308 c -0.136,0.048 -0.28,0.092 -0.424,0.092 -0.184,0 -0.348,-0.132 -0.348,-0.316 0,-0.16 0.128,-0.288 0.288,-0.288 0.1,0 0.196,0.06 0.228,0.156 0.04,0.112 0.02,0.236 0.136,0.236 0.064,0 0.22,-0.204 0.24,-0.272 l 0.184,-0.604 c -0.136,0.048 -0.272,0.088 -0.416,0.088 -0.184,0 -0.348,-0.132 -0.348,-0.316 0,-0.16 0.132,-0.288 0.292,-0.288 0.1,0 0.192,0.06 0.224,0.156 0.04,0.112 0.02,0.236 0.136,0.236 0.06,0 0.2,-0.196 0.228,-0.252 0.024,-0.048 0.092,-0.048 0.112,0 l -0.716,2.68 c -0.032,0.028 -0.068,0.04 -0.108,0.04 -0.04,0 -0.08,-0.012 -0.112,-0.04 z"
     fill="currentColor"
     id="path56"
     style="stroke-width:0.004" />
  <path
     d="m 95.048417,6.1277951 c 0.224,0 0.436,0.116 0.436,0.364 0,0.288 -0.224,0.484 -0.412,0.596 -0.144,0.084 -0.304,0.144 -0.468,0.144 -0.224,0 -0.436,-0.116 -0.436,-0.364 0,-0.288 0.224,-0.484 0.412,-0.596 0.144,-0.084 0.304,-0.144 0.468,-0.144 z"
     fill="currentColor"
     id="path58"
     style="stroke-width:0.004" />
  <path
     d="m 95.934617,6.6797951 c 0,-0.124 0.1,-0.224 0.224,-0.224 0.124,0 0.224,0.1 0.224,0.224 0,0.124 -0.1,0.224 -0.224,0.224 -0.124,0 -0.224,-0.1 -0.224,-0.224 z"
     fill="currentColor"
     id="path60"
     style="stroke-width:0.004" />
  <rect
     x="94.168419"
     y="6.8675952"
     width="0.13"
     height="3.3122001"
     ry="0.039999999"
     fill="currentColor"
     id="rect62" />
  <path
     d="m 94.298417,10.139795 h -0.064 V 9.1397951 h 0.064 c 0.392,-0.232 0.908,-0.592 0.908,-1.036 0,-0.228 -0.064,-0.448 -0.164,-0.652 -0.012,-0.064 0.04,-0.108 0.092,-0.108 0.028,0 0.06,0.012 0.08,0.044 0.1,0.224 0.16,0.468 0.16,0.716 0,0.816 -1.076,1.22 -1.076,2.0359999 z"
     fill="currentColor"
     id="path64"
     style="stroke-width:0.004" />
  <polygon
     transform="translate(88.341117,8.3337951)"
     stroke-linejoin="round"
     stroke-linecap="round"
     stroke-width="0.08"
     fill="currentColor"
     stroke="currentColor"
     points="0.04,0.2 0.04,-0.2 1.125,-0.1641 1.125,0.2359 "
     id="polygon66" />
  <polygon
     transform="translate(83.341917,8.1797951)"
     stroke-linejoin="round"
     stroke-linecap="round"
     stroke-width="0.08"
     fill="currentColor"
     stroke="currentColor"
     points="0.04,0.2 0.04,-0.2 1.125,-0.1641 1.125,0.2359 "
     id="polygon68" />
  <polygon
     transform="translate(83.341917,8.9897951)"
     stroke-linejoin="round"
     stroke-linecap="round"
     stroke-width="0.08"
     fill="currentColor"
     stroke="currentColor"
     points="0.04,0.2 0.04,-0.2 6.1242,-0.01 6.1242,0.39 "
     id="polygon70" />
  <polygon
     transform="translate(62.512817,4.3697951)"
     stroke-linejoin="round"
     stroke-linecap="round"
     stroke-width="0.08"
     fill="currentColor"
     stroke="currentColor"
     points="0.04,0.2 0.04,-0.2 4.7485,-0.2 4.7485,0.2 "
     id="polygon72" />
  <polygon
     transform="translate(62.512817,5.1797951)"
     stroke-linejoin="round"
     stroke-linecap="round"
     stroke-width="0.08"
     fill="currentColor"
     stroke="currentColor"
     points="0.04,0.2 0.04,-0.2 2.5442,-0.2 2.5442,0.2 "
     id="polygon74" />
  <polygon
     transform="translate(57.604317,5.1797951)"
     stroke-linejoin="round"
     stroke-linecap="round"
     stroke-width="0.08"
     fill="currentColor"
     stroke="currentColor"
     points="0.04,0.2 0.04,-0.2 2.5442,-0.01 2.5442,0.39 "
     id="polygon76" />
  <polygon
     transform="translate(57.604317,5.9897951)"
     stroke-linejoin="round"
     stroke-linecap="round"
     stroke-width="0.08"
     fill="currentColor"
     stroke="currentColor"
     points="0.04,0.2 0.04,-0.2 2.5442,-0.01 2.5442,0.39 "
     id="polygon78" />
  <polygon
     transform="translate(41.600017,5.3697951)"
     stroke-linejoin="round"
     stroke-linecap="round"
     stroke-width="0.08"
     fill="currentColor"
     stroke="currentColor"
     points="0.04,0.2 0.04,-0.2 3.6699,-0.39 3.6699,0.01 "
     id="polygon80" />
  <polygon
     transform="translate(28.858917,4.3697951)"
     stroke-linejoin="round"
     stroke-linecap="round"
     stroke-width="0.08"
     fill="currentColor"
     stroke="currentColor"
     points="0.04,0.2 0.04,-0.2 3.7486,-0.2 3.7486,0.2 "
     id="polygon82" />
  <polygon
     transform="translate(31.482517,5.1797951)"
     stroke-linejoin="round"
     stroke-linecap="round"
     stroke-width="0.08"
     fill="currentColor"
     stroke="currentColor"
     points="0.04,0.2 0.04,-0.2 1.125,-0.2 1.125,0.2 "
     id="polygon84" />
  <polygon
     transform="translate(20.426217,9.4577951)"
     stroke-linejoin="round"
     stroke-linecap="round"
     stroke-width="0.08"
     fill="currentColor"
     stroke="currentColor"
     points="0.04,0.2 0.04,-0.2 2.5442,-0.478 2.5442,-0.078 "
     id="polygon86" />
  <polygon
     transform="translate(16.596217,10.679795)"
     stroke-linejoin="round"
     stroke-linecap="round"
     stroke-width="0.08"
     fill="currentColor"
     stroke="currentColor"
     points="0.04,0.2 0.04,-0.2 6.3742,-0.89 6.3742,-0.49 "
     id="polygon88" />
  <text
     font-family="sans-serif"
     font-size="2.6163px"
     text-anchor="start"
     fill="currentColor"
     id="text92"
     x="77.251015"
     y="3.2855949"><tspan
       id="tspan90">C</tspan></text>
  <text
     font-family="sans-serif"
     font-size="2.6163px"
     text-anchor="start"
     fill="currentColor"
     id="text96"
     x="79.060616"
     y="3.2855949"><tspan
       id="tspan94" /></text>
  <text
     font-family="sans-serif"
     font-size="2.6163px"
     text-anchor="start"
     fill="currentColor"
     id="text100"
     x="79.060616"
     y="3.2855949"><tspan
       id="tspan98" /></text>
  <polygon
     transform="translate(79.060617,1.7855951)"
     stroke-linejoin="round"
     stroke-linecap="round"
     stroke-width="0.1"
     fill="none"
     stroke="currentColor"
     points="1.0091,-1.7356 0,0 2.0182,0 "
     id="polygon102" />
  <text
     font-family="sans-serif"
     font-size="1.85px"
     text-anchor="start"
     fill="currentColor"
     id="text106"
     x="81.57872"
     y="1.7855951"><tspan
       id="tspan104">9</tspan></text>
  <path
     d="m 78.711017,7.1797951 h -1.42 c -0.024,0 -0.04,-0.016 -0.04,-0.04 v -0.544 c 0,-0.024 0.016,-0.04 0.04,-0.04 h 1.42 c 0.024,0 0.04,0.016 0.04,0.04 v 0.544 c 0,0.024 -0.016,0.04 -0.04,0.04 z"
     fill="currentColor"
     id="path108"
     style="stroke-width:0.004" />
  <path
     d="m 84.221917,5.1277951 c 0.224,0 0.436,0.116 0.436,0.364 0,0.288 -0.224,0.484 -0.412,0.596 -0.144,0.084 -0.304,0.144 -0.468,0.144 -0.224,0 -0.436,-0.116 -0.436,-0.364 0,-0.288 0.224,-0.484 0.412,-0.596 0.144,-0.084 0.304,-0.144 0.468,-0.144 z"
     fill="currentColor"
     id="path110"
     style="stroke-width:0.004" />
  <rect
     x="83.341919"
     y="5.8675952"
     width="0.13"
     height="3.1242001"
     ry="0.039999999"
     fill="currentColor"
     id="rect112" />
  <path
     d="m 82.299917,5.5157951 -0.004,0.264 v 0.044 c 0,0.088 0.004,0.176 0.016,0.264 0.18,-0.152 0.372,-0.32 0.372,-0.556 0,-0.132 -0.056,-0.268 -0.172,-0.268 -0.124,0 -0.208,0.12 -0.212,0.252 z m -0.168,0.716 -0.048,-2.38 c 0.032,-0.02 0.072,-0.032 0.108,-0.032 0.036,0 0.076,0.012 0.108,0.032 l -0.028,1.38 c 0.1,-0.084 0.232,-0.136 0.364,-0.136 0.208,0 0.356,0.192 0.356,0.408 0,0.32 -0.344,0.468 -0.588,0.676 -0.06,0.052 -0.096,0.152 -0.18,0.152 -0.052,0 -0.092,-0.044 -0.092,-0.1 z"
     fill="currentColor"
     id="path114"
     style="stroke-width:0.004" />
  <path
     d="m 86.676217,5.6277951 c 0.224,0 0.436,0.116 0.436,0.364 0,0.288 -0.224,0.484 -0.412,0.596 -0.144,0.084 -0.304,0.144 -0.468,0.144 -0.224,0 -0.436,-0.116 -0.436,-0.364 0,-0.288 0.224,-0.484 0.412,-0.596 0.144,-0.084 0.304,-0.144 0.468,-0.144 z"
     fill="currentColor"
     id="path116"
     style="stroke-width:0.004" />
  <rect
     x="85.796219"
     y="6.3675952"
     width="0.13"
     height="2.6998"
     ry="0.039999999"
     fill="currentColor"
     id="rect118" />
  <path
     d="m 23.760417,6.1277951 c 0.224,0 0.436,0.116 0.436,0.364 0,0.288 -0.224,0.484 -0.412,0.596 -0.144,0.084 -0.304,0.144 -0.468,0.144 -0.224,0 -0.436,-0.116 -0.436,-0.364 0,-0.288 0.224,-0.484 0.412,-0.596 0.144,-0.084 0.304,-0.144 0.468,-0.144 z"
     fill="currentColor"
     id="path120"
     style="stroke-width:0.004" />
  <rect
     x="22.880417"
     y="6.8675952"
     width="0.13"
     height="3.1292"
     ry="0.039999999"
     fill="currentColor"
     id="rect122" />
  <path
     d="m 25.598717,9.1797951 0.404,-1.308 c -0.136,0.048 -0.28,0.092 -0.424,0.092 -0.184,0 -0.348,-0.132 -0.348,-0.316 0,-0.16 0.128,-0.288 0.288,-0.288 0.1,0 0.196,0.06 0.228,0.156 0.04,0.112 0.02,0.236 0.136,0.236 0.064,0 0.22,-0.204 0.24,-0.272 l 0.184,-0.604 c -0.136,0.048 -0.272,0.088 -0.416,0.088 -0.184,0 -0.348,-0.132 -0.348,-0.316 0,-0.16 0.132,-0.288 0.292,-0.288 0.1,0 0.192,0.06 0.224,0.156 0.04,0.112 0.02,0.236 0.136,0.236 0.06,0 0.2,-0.196 0.228,-0.252 0.024,-0.048 0.092,-0.048 0.112,0 l -0.716,2.68 c -0.032,0.028 -0.068,0.04 -0.108,0.04 -0.04,0 -0.08,-0.012 -0.112,-0.04 z"
     fill="currentColor"
     id="path124"
     style="stroke-width:0.004" />
  <path
     d="m 28.552717,7.1277951 c 0.224,0 0.436,0.116 0.436,0.364 0,0.288 -0.224,0.484 -0.412,0.596 -0.144,0.084 -0.304,0.144 -0.468,0.144 -0.224,0 -0.436,-0.116 -0.436,-0.364 0,-0.288 0.224,-0.484 0.412,-0.596 0.144,-0.084 0.304,-0.144 0.468,-0.144 z"
     fill="currentColor"
     id="path126"
     style="stroke-width:0.004" />
  <rect
     x="28.858917"
     y="4.3697953"
     width="0.13"
     height="3.1222"
     ry="0.039999999"
     fill="currentColor"
     id="rect128" />
  <path
     d="m 32.211317,7.1277951 c 0.224,0 0.436,0.116 0.436,0.364 0,0.288 -0.224,0.484 -0.412,0.596 -0.144,0.084 -0.304,0.144 -0.468,0.144 -0.224,0 -0.436,-0.116 -0.436,-0.364 0,-0.288 0.224,-0.484 0.412,-0.596 0.144,-0.084 0.304,-0.144 0.468,-0.144 z"
     fill="currentColor"
     id="path130"
     style="stroke-width:0.004" />
  <rect
     x="32.517517"
     y="4.3697953"
     width="0.13"
     height="3.1222"
     ry="0.039999999"
     fill="currentColor"
     id="rect132" />
  <text
     font-family="'Roboto Slab Light'"
     font-size="1.96px"
     text-anchor="start"
     fill="currentColor"
     id="text136"
     x="-0.024882814"
     y="7.913795"><tspan
       id="tspan134">Alto Sax</tspan></text>
  <text
     font-family="sans-serif"
     font-size="2.6163px"
     text-anchor="start"
     fill="currentColor"
     id="text140"
     x="16.596218"
     y="3.2855949"><tspan
       id="tspan138">D</tspan></text>
  <text
     font-family="sans-serif"
     font-size="2.6163px"
     text-anchor="start"
     fill="currentColor"
     id="text144"
     x="18.644817"
     y="3.2855949"><tspan
       id="tspan142" /></text>
  <text
     font-family="sans-serif"
     font-size="2.6163px"
     text-anchor="start"
     fill="currentColor"
     id="text148"
     x="18.644817"
     y="3.2855949"><tspan
       id="tspan146">m</tspan></text>
  <text
     font-family="sans-serif"
     font-size="1.85px"
     text-anchor="start"
     fill="currentColor"
     id="text152"
     x="21.205618"
     y="1.7855951"><tspan
       id="tspan150">9</tspan></text>
  <path
     d="m 17.476217,7.1277951 c 0.224,0 0.436,0.116 0.436,0.364 0,0.288 -0.224,0.484 -0.412,0.596 -0.144,0.084 -0.304,0.144 -0.468,0.144 -0.224,0 -0.436,-0.116 -0.436,-0.364 0,-0.288 0.224,-0.484 0.412,-0.596 0.144,-0.084 0.304,-0.144 0.468,-0.144 z"
     fill="currentColor"
     id="path154"
     style="stroke-width:0.004" />
  <path
     d="m 10.295517,7.1317951 c 0.016,0 0.036,-0.004 0.052,-0.004 0.62,0 1.024,0.512 1.024,1.044 0,0.304 -0.132,0.616 -0.428,0.84 -0.088,0.068 -0.188,0.112 -0.292,0.144 0.012,0.14 0.02,0.28 0.02,0.42 0,0.076 -0.004,0.156 -0.008,0.232 -0.028,0.4799999 -0.36,0.9119999 -0.8319998,0.9119999 -0.432,0 -0.78,-0.352 -0.78,-0.7879999 0,-0.232 0.212,-0.412 0.448,-0.412 0.216,0 0.38,0.188 0.38,0.412 0,0.2079999 -0.172,0.3799999 -0.38,0.3799999 -0.044,0 -0.084,-0.008 -0.124,-0.024 0.104,0.156 0.272,0.26 0.468,0.26 0.3839998,0 0.6279998,-0.368 0.6519998,-0.7639999 0.004,-0.072 0.008,-0.148 0.008,-0.22 0,-0.124 -0.004,-0.244 -0.016,-0.368 -0.116,0.02 -0.232,0.032 -0.356,0.032 -0.7519998,0 -1.3319998,-0.688 -1.3319998,-1.496 0,-0.708 0.524,-1.224 0.992,-1.764 -0.076,-0.248 -0.148,-0.5 -0.18,-0.76 -0.024,-0.208 -0.028,-0.416 -0.028,-0.624 0,-0.46 0.22,-0.896 0.5959998,-1.168 0.012,-0.008 0.028,-0.012 0.04,-0.012 0.016,0 0.028,0 0.04,0.012 0.284,0.336 0.532,0.98 0.532,1.432 0,0.572 -0.344,1.02 -0.72,1.456 0.084,0.272 0.156,0.552 0.224,0.828 z m 0.34,1.86 c 0.272,-0.096 0.452,-0.38 0.452,-0.656 0,-0.36 -0.264,-0.716 -0.692,-0.76 0.096,0.464 0.184,0.924 0.24,1.416 z m -1.5479998,-0.924 c 0,0.54 0.516,0.988 1.0559998,0.988 0.112,0 0.22,-0.008 0.328,-0.024 -0.056,-0.508 -0.148,-0.98 -0.252,-1.456 -0.3159998,0.032 -0.4959998,0.244 -0.4959998,0.476 0,0.176 0.1,0.364 0.3239998,0.492 0.02,0.02 0.028,0.04 0.028,0.06 0,0.044 -0.04,0.088 -0.088,0.088 -0.012,0 -0.024,-0.004 -0.036,-0.008 -0.32,-0.172 -0.468,-0.46 -0.468,-0.74 0,-0.352 0.232,-0.696 0.64,-0.788 -0.056,-0.232 -0.116,-0.468 -0.184,-0.7 -0.428,0.484 -0.852,0.972 -0.8519998,1.612 z m 1.3359998,-4.068 c -0.396,0.192 -0.6479998,0.596 -0.6479998,1.036 0,0.296 0.072,0.532 0.144,0.776 0.3199998,-0.388 0.5839998,-0.792 0.5839998,-1.296 0,-0.22 -0.016,-0.316 -0.08,-0.516 z"
     fill="currentColor"
     id="path156"
     style="stroke-width:0.004" />
  <path
     d="m 13.807517,7.9661951 c 0.088,-0.056 0.176,-0.116 0.24,-0.2 0.044,-0.06 0.076,-0.132 0.108,-0.2 0.008,-0.016 0.02,-0.024 0.036,-0.024 0.024,0 0.052,0.02 0.052,0.056 v 0.98 h 0.288 c 0.04,0 0.06,0.028 0.06,0.056 0,0.028 -0.02,0.06 -0.06,0.06 h -0.288 v 0.032 c 0,0.192 0.108,0.376 0.288,0.376 0.032,0 0.048,0.02 0.048,0.044 0,0.024 -0.016,0.048 -0.048,0.048 -0.176,0 -0.348,-0.052 -0.524,-0.052 -0.176,0 -0.348,0.052 -0.524,0.052 -0.032,0 -0.048,-0.024 -0.048,-0.048 0,-0.024 0.016,-0.044 0.048,-0.044 0.18,0 0.292,-0.184 0.292,-0.376 v -0.032 h -0.668 c -0.092,0 -0.124,-0.056 -0.124,-0.092 0,-0.012 0.004,-0.02 0.008,-0.024 0.32,-0.372 0.552,-0.828 0.552,-1.32 0,-0.036 0.024,-0.064 0.052,-0.064 h 0.012 c 0.092,0.028 0.188,0.052 0.284,0.052 0.096,0 0.192,-0.024 0.284,-0.052 0.008,-0.004 0.012,-0.004 0.02,-0.004 0.044,0 0.072,0.04 0.048,0.068 l -1.136,1.32 h 0.668 v -0.524 c 0,-0.032 0.004,-0.068 0.032,-0.088 z"
     fill="currentColor"
     id="path158"
     style="stroke-width:0.004" />
  <path
     d="m 13.807517,5.9517951 c 0.088,-0.056 0.176,-0.116 0.24,-0.2 0.044,-0.06 0.076,-0.132 0.108,-0.2 0.008,-0.016 0.02,-0.024 0.036,-0.024 0.024,0 0.052,0.02 0.052,0.056 v 0.98 h 0.288 c 0.04,0 0.06,0.028 0.06,0.056 0,0.028 -0.02,0.06 -0.06,0.06 h -0.288 v 0.032 c 0,0.192 0.108,0.376 0.288,0.376 0.032,0 0.048,0.02 0.048,0.044 0,0.024 -0.016,0.048 -0.048,0.048 -0.176,0 -0.348,-0.052 -0.524,-0.052 -0.176,0 -0.348,0.052 -0.524,0.052 -0.032,0 -0.048,-0.024 -0.048,-0.048 0,-0.024 0.016,-0.044 0.048,-0.044 0.18,0 0.292,-0.184 0.292,-0.376 v -0.032 h -0.668 c -0.092,0 -0.124,-0.056 -0.124,-0.092 0,-0.012 0.004,-0.02 0.008,-0.024 0.32,-0.372 0.552,-0.828 0.552,-1.32 0,-0.036 0.024,-0.064 0.052,-0.064 h 0.012 c 0.092,0.028 0.188,0.052 0.284,0.052 0.096,0 0.192,-0.024 0.284,-0.052 0.008,-0.004 0.012,-0.004 0.02,-0.004 0.044,0 0.072,0.04 0.048,0.068 l -1.136,1.32 h 0.668 v -0.524 c 0,-0.032 0.004,-0.068 0.032,-0.088 z"
     fill="currentColor"
     id="path160"
     style="stroke-width:0.004" />
  <rect
     x="16.596218"
     y="7.8675952"
     width="0.13"
     height="2.8052001"
     ry="0.039999999"
     fill="currentColor"
     id="rect162" />
  <path
     d="m 21.306217,5.6277951 c 0.224,0 0.436,0.116 0.436,0.364 0,0.288 -0.224,0.484 -0.412,0.596 -0.144,0.084 -0.304,0.144 -0.468,0.144 -0.224,0 -0.436,-0.116 -0.436,-0.364 0,-0.288 0.224,-0.484 0.412,-0.596 0.144,-0.084 0.304,-0.144 0.468,-0.144 z"
     fill="currentColor"
     id="path164"
     style="stroke-width:0.004" />
  <rect
     x="20.426218"
     y="6.3675952"
     width="0.13"
     height="3.8931999"
     ry="0.039999999"
     fill="currentColor"
     id="rect166" />
  <path
     d="m 37.439817,4.7197951 c 0,0.792 0.836,1.34 0.836,2.132 0,0.284 -0.064,0.564 -0.168,0.828 -0.02,0.032 -0.048,0.048 -0.076,0.048 -0.052,0 -0.104,-0.044 -0.092,-0.108 0.104,-0.244 0.168,-0.504 0.168,-0.768 0,-0.416 -0.38,-0.832 -0.668,-1.132 h -0.064 v -1 z"
     fill="currentColor"
     id="path168"
     style="stroke-width:0.004" />
  <path
     d="m 41.293817,8.1277951 c 0.224,0 0.436,0.116 0.436,0.364 0,0.288 -0.224,0.484 -0.412,0.596 -0.144,0.084 -0.304,0.144 -0.468,0.144 -0.224,0 -0.436,-0.116 -0.436,-0.364 0,-0.288 0.224,-0.484 0.412,-0.596 0.144,-0.084 0.304,-0.144 0.468,-0.144 z"
     fill="currentColor"
     id="path170"
     style="stroke-width:0.004" />
  <rect
     x="41.600018"
     y="5.3664951"
     width="0.13"
     height="3.1255"
     ry="0.039999999"
     fill="currentColor"
     id="rect172" />
  <path
     d="m 44.873717,7.6277951 c 0.224,0 0.436,0.116 0.436,0.364 0,0.288 -0.224,0.484 -0.412,0.596 -0.144,0.084 -0.304,0.144 -0.468,0.144 -0.224,0 -0.436,-0.116 -0.436,-0.364 0,-0.288 0.224,-0.484 0.412,-0.596 0.144,-0.084 0.304,-0.144 0.468,-0.144 z"
     fill="currentColor"
     id="path174"
     style="stroke-width:0.004" />
  <rect
     x="45.179916"
     y="5.183095"
     width="0.13"
     height="2.8089001"
     ry="0.039999999"
     fill="currentColor"
     id="rect176" />
  <text
     font-family="sans-serif"
     font-size="2.6163px"
     text-anchor="start"
     fill="currentColor"
     id="text180"
     x="48.815018"
     y="3.2855949"><tspan
       id="tspan178">G</tspan></text>
  <text
     font-family="sans-serif"
     font-size="2.6163px"
     text-anchor="start"
     fill="currentColor"
     id="text184"
     x="50.829418"
     y="3.2855949"><tspan
       id="tspan182" /></text>
  <text
     font-family="sans-serif"
     font-size="2.6163px"
     text-anchor="start"
     fill="currentColor"
     id="text188"
     x="50.829418"
     y="3.2855949"><tspan
       id="tspan186" /></text>
  <text
     font-family="sans-serif"
     font-size="1.85px"
     text-anchor="start"
     fill="currentColor"
     id="text192"
     x="50.829418"
     y="1.7855951"><tspan
       id="tspan190">9</tspan></text>
  <text
     font-family="sans-serif"
     font-size="1.85px"
     text-anchor="start"
     fill="currentColor"
     id="text196"
     x="52.490318"
     y="1.7855951"><tspan
       id="tspan194">add</tspan></text>
  <text
     font-family="sans-serif"
     font-size="1.85px"
     text-anchor="start"
     fill="currentColor"
     id="text200"
     x="56.007118"
     y="1.7855951"><tspan
       id="tspan198">13</tspan></text>
  <path
     d="m 48.723017,7.6437951 c 0,-0.112 0.044,-0.168 0.16,-0.168 0.132,0 0.312,0.052 0.476,0.124 l -0.528,-0.632 c -0.028,-0.036 -0.04,-0.068 -0.04,-0.1 0,-0.136 0.2,-0.264 0.348,-0.396 0.1,-0.088 0.148,-0.208 0.148,-0.332 0,-0.096 -0.032,-0.196 -0.1,-0.276 l -0.14,-0.168 c -0.012,-0.012 -0.016,-0.028 -0.016,-0.04 0,-0.036 0.036,-0.06 0.068,-0.06 0.016,0 0.032,0.004 0.044,0.02 l 0.604,0.72 c 0.028,0.036 0.04,0.068 0.04,0.1 0,0.136 -0.2,0.264 -0.348,0.396 -0.1,0.088 -0.148,0.208 -0.148,0.332 0,0.096 0.028,0.196 0.096,0.276 l 0.336,0.396 c 0.012,0.012 0.016,0.028 0.016,0.04 0,0.036 -0.032,0.064 -0.064,0.064 -0.016,0 -0.036,-0.008 -0.048,-0.024 -0.072,-0.084 -0.252,-0.152 -0.388,-0.152 -0.164,0 -0.212,0.104 -0.212,0.268 0,0.14 0.044,0.296 0.112,0.376 0.02,0.024 0,0.052 -0.024,0.052 -0.008,0 -0.016,0 -0.024,-0.008 -0.18,-0.216 -0.368,-0.592 -0.368,-0.808 z"
     fill="currentColor"
     id="path202"
     style="stroke-width:0.004" />
  <path
     d="m 30.289317,7.5157951 -0.004,0.264 v 0.044 c 0,0.088 0.004,0.176 0.016,0.264 0.18,-0.152 0.372,-0.32 0.372,-0.556 0,-0.132 -0.056,-0.268 -0.172,-0.268 -0.124,0 -0.208,0.12 -0.212,0.252 z m -0.168,0.716 -0.048,-2.38 c 0.032,-0.02 0.072,-0.032 0.108,-0.032 0.036,0 0.076,0.012 0.108,0.032 l -0.028,1.38 c 0.1,-0.084 0.232,-0.136 0.364,-0.136 0.208,0 0.356,0.192 0.356,0.408 0,0.32 -0.344,0.468 -0.588,0.676 -0.06,0.052 -0.096,0.152 -0.18,0.152 -0.052,0 -0.092,-0.044 -0.092,-0.1 z"
     fill="currentColor"
     id="path204"
     style="stroke-width:0.004" />
  <path
     d="m 34.049517,9.1797951 0.404,-1.308 c -0.136,0.048 -0.28,0.092 -0.424,0.092 -0.184,0 -0.348,-0.132 -0.348,-0.316 0,-0.16 0.128,-0.288 0.288,-0.288 0.1,0 0.196,0.06 0.228,0.156 0.04,0.112 0.02,0.236 0.136,0.236 0.064,0 0.22,-0.204 0.24,-0.272 l 0.184,-0.604 c -0.136,0.048 -0.272,0.088 -0.416,0.088 -0.184,0 -0.348,-0.132 -0.348,-0.316 0,-0.16 0.132,-0.288 0.292,-0.288 0.1,0 0.192,0.06 0.224,0.156 0.04,0.112 0.02,0.236 0.136,0.236 0.06,0 0.2,-0.196 0.228,-0.252 0.024,-0.048 0.092,-0.048 0.112,0 l -0.716,2.68 c -0.032,0.028 -0.068,0.04 -0.108,0.04 -0.04,0 -0.08,-0.012 -0.112,-0.04 z"
     fill="currentColor"
     id="path206"
     style="stroke-width:0.004" />
  <path
     d="m 37.003617,7.6277951 c 0.224,0 0.436,0.116 0.436,0.364 0,0.288 -0.224,0.484 -0.412,0.596 -0.144,0.084 -0.304,0.144 -0.468,0.144 -0.224,0 -0.436,-0.116 -0.436,-0.364 0,-0.288 0.224,-0.484 0.412,-0.596 0.144,-0.084 0.304,-0.144 0.468,-0.144 z"
     fill="currentColor"
     id="path208"
     style="stroke-width:0.004" />
  <path
     d="m 38.725817,7.6797951 c 0,-0.124 0.1,-0.224 0.224,-0.224 0.124,0 0.224,0.1 0.224,0.224 0,0.124 -0.1,0.224 -0.224,0.224 -0.124,0 -0.224,-0.1 -0.224,-0.224 z"
     fill="currentColor"
     id="path210"
     style="stroke-width:0.004" />
  <rect
     x="37.309818"
     y="4.6797953"
     width="0.13"
     height="3.3122001"
     ry="0.039999999"
     fill="currentColor"
     id="rect212" />
  <rect
     x="69.039917"
     y="16.627396"
     width="1.9743"
     height="0.2"
     ry="0.1"
     fill="currentColor"
     id="rect214" />
  <rect
     x="84.254715"
     y="22.627396"
     width="1.9743"
     height="0.2"
     ry="0.1"
     fill="currentColor"
     id="rect216" />
  <rect
     x="89.671913"
     y="22.627396"
     width="2.97"
     height="0.2"
     ry="0.1"
     fill="currentColor"
     id="rect218" />
  <line
     stroke-linejoin="round"
     stroke-linecap="round"
     stroke-width="0.1"
     stroke="currentColor"
     x1="8.0415173"
     y1="21.727394"
     x2="98.535118"
     y2="21.727394"
     id="line220" />
  <line
     stroke-linejoin="round"
     stroke-linecap="round"
     stroke-width="0.1"
     stroke="currentColor"
     x1="8.0415173"
     y1="20.727394"
     x2="98.535118"
     y2="20.727394"
     id="line222" />
  <line
     stroke-linejoin="round"
     stroke-linecap="round"
     stroke-width="0.1"
     stroke="currentColor"
     x1="8.0415173"
     y1="19.727394"
     x2="98.535118"
     y2="19.727394"
     id="line224" />
  <line
     stroke-linejoin="round"
     stroke-linecap="round"
     stroke-width="0.1"
     stroke="currentColor"
     x1="8.0415173"
     y1="18.727394"
     x2="98.535118"
     y2="18.727394"
     id="line226" />
  <line
     stroke-linejoin="round"
     stroke-linecap="round"
     stroke-width="0.1"
     stroke="currentColor"
     x1="8.0415173"
     y1="17.727394"
     x2="98.535118"
     y2="17.727394"
     id="line228" />
  <rect
     x="88.34182"
     y="17.727394"
     width="0.19"
     height="4"
     ry="0.0000"
     fill="currentColor"
     id="rect230" />
  <rect
     x="34.863419"
     y="17.727394"
     width="0.19"
     height="4"
     ry="0.0000"
     fill="currentColor"
     id="rect232" />
  <rect
     x="62.489819"
     y="17.727394"
     width="0.19"
     height="4"
     ry="0.0000"
     fill="currentColor"
     id="rect234" />
  <rect
     x="97.985115"
     y="17.727394"
     width="0.60000002"
     height="4"
     ry="0.0000"
     fill="currentColor"
     id="rect236" />
  <rect
     x="97.495117"
     y="17.727394"
     width="0.19"
     height="4"
     ry="0.0000"
     fill="currentColor"
     id="rect238" />
  <rect
     x="69.368919"
     y="16.415195"
     width="0.13"
     height="4.3274002"
     ry="0.039999999"
     fill="currentColor"
     id="rect240" />
  <path
     d="m 73.515117,16.675395 c 0.224,0 0.436,0.116 0.436,0.364 0,0.288 -0.224,0.484 -0.412,0.596 -0.144,0.084 -0.304,0.144 -0.468,0.144 -0.224,0 -0.436,-0.116 -0.436,-0.364 0,-0.288 0.224,-0.484 0.412,-0.596 0.144,-0.084 0.304,-0.144 0.468,-0.144 z"
     fill="currentColor"
     id="path242"
     style="stroke-width:0.004" />
  <rect
     x="72.635117"
     y="17.415195"
     width="0.13"
     height="4.0914001"
     ry="0.039999999"
     fill="currentColor"
     id="rect244" />
  <path
     d="m 72.049117,18.475395 c 0,0.04 -0.032,0.076 -0.072,0.076 -0.04,0 -0.076,-0.036 -0.076,-0.076 v -0.58 l -0.332,0.124 v 0.632 c 0,0.04 -0.036,0.076 -0.076,0.076 -0.04,0 -0.072,-0.036 -0.072,-0.076 v -0.58 l -0.128,0.048 c -0.008,0.004 -0.02,0.004 -0.028,0.004 -0.044,0 -0.08,-0.036 -0.08,-0.08 v -0.24 c 0,-0.032 0.02,-0.064 0.052,-0.076 l 0.184,-0.064 v -0.64 l -0.128,0.044 c -0.008,0.004 -0.02,0.004 -0.028,0.004 -0.044,0 -0.08,-0.036 -0.08,-0.08 v -0.24 c 0,-0.032 0.02,-0.06 0.052,-0.072 l 0.184,-0.068 v -0.632 c 0,-0.04 0.032,-0.076 0.072,-0.076 0.04,0 0.076,0.036 0.076,0.076 v 0.58 l 0.332,-0.124 v -0.632 c 0,-0.04 0.036,-0.076 0.076,-0.076 0.04,0 0.072,0.036 0.072,0.076 v 0.58 l 0.128,-0.048 c 0.008,-0.004 0.02,-0.004 0.028,-0.004 0.044,0 0.08,0.036 0.08,0.08 v 0.24 c 0,0.032 -0.02,0.064 -0.052,0.076 l -0.184,0.064 v 0.64 l 0.128,-0.044 c 0.008,-0.004 0.02,-0.004 0.028,-0.004 0.044,0 0.08,0.036 0.08,0.08 v 0.24 c 0,0.032 -0.02,0.06 -0.052,0.072 l -0.184,0.068 z m -0.48,-1.508 v 0.64 l 0.332,-0.12 v -0.64 z"
     fill="currentColor"
     id="path246"
     style="stroke-width:0.004" />
  <path
     d="m 75.686717,17.675395 c 0.224,0 0.436,0.116 0.436,0.364 0,0.288 -0.224,0.484 -0.412,0.596 -0.144,0.084 -0.304,0.144 -0.468,0.144 -0.224,0 -0.436,-0.116 -0.436,-0.364 0,-0.288 0.224,-0.484 0.412,-0.596 0.144,-0.084 0.304,-0.144 0.468,-0.144 z"
     fill="currentColor"
     id="path248"
     style="stroke-width:0.004" />
  <rect
     x="74.806717"
     y="18.415195"
     width="0.13"
     height="3.5994"
     ry="0.039999999"
     fill="currentColor"
     id="rect250" />
  <path
     d="m 77.856417,19.175395 c 0.224,0 0.436,0.116 0.436,0.364 0,0.288 -0.224,0.484 -0.412,0.596 -0.144,0.084 -0.304,0.144 -0.468,0.144 -0.224,0 -0.436,-0.116 -0.436,-0.364 0,-0.288 0.224,-0.484 0.412,-0.596 0.144,-0.084 0.304,-0.144 0.468,-0.144 z"
     fill="currentColor"
     id="path252"
     style="stroke-width:0.004" />
  <rect
     x="76.976418"
     y="19.915195"
     width="0.13"
     height="2.6070001"
     ry="0.039999999"
     fill="currentColor"
     id="rect254" />
  <rect
     x="55.308617"
     y="20.415195"
     width="0.13"
     height="2.8045001"
     ry="0.039999999"
     fill="currentColor"
     id="rect256" />
  <path
     d="m 58.610217,19.675395 c 0.224,0 0.436,0.116 0.436,0.364 0,0.288 -0.224,0.484 -0.412,0.596 -0.144,0.084 -0.304,0.144 -0.468,0.144 -0.224,0 -0.436,-0.116 -0.436,-0.364 0,-0.288 0.224,-0.484 0.412,-0.596 0.144,-0.084 0.304,-0.144 0.468,-0.144 z"
     fill="currentColor"
     id="path258"
     style="stroke-width:0.004" />
  <rect
     x="58.916317"
     y="16.727394"
     width="0.13"
     height="3.3122001"
     ry="0.039999999"
     fill="currentColor"
     id="rect260" />
  <text
     font-family="sans-serif"
     font-size="2.6163px"
     text-anchor="start"
     fill="currentColor"
     id="text264"
     x="63.504116"
     y="15.143195"><tspan
       id="tspan262">G</tspan></text>
  <text
     font-family="sans-serif"
     font-size="2.6163px"
     text-anchor="start"
     fill="currentColor"
     id="text268"
     x="65.518616"
     y="15.143195"><tspan
       id="tspan266" /></text>
  <text
     font-family="sans-serif"
     font-size="2.6163px"
     text-anchor="start"
     fill="currentColor"
     id="text272"
     x="65.518616"
     y="15.143195"><tspan
       id="tspan270" /></text>
  <text
     font-family="sans-serif"
     font-size="1.85px"
     text-anchor="start"
     fill="currentColor"
     id="text276"
     x="65.518616"
     y="13.643195"><tspan
       id="tspan274">9</tspan></text>
  <text
     font-family="sans-serif"
     font-size="1.85px"
     text-anchor="start"
     fill="currentColor"
     id="text280"
     x="67.17952"
     y="13.643195"><tspan
       id="tspan278">add</tspan></text>
  <text
     font-family="sans-serif"
     font-size="1.85px"
     text-anchor="start"
     fill="currentColor"
     id="text284"
     x="70.69622"
     y="13.643195"><tspan
       id="tspan282">13</tspan></text>
  <path
     d="m 64.964117,19.727395 h -1.42 c -0.024,0 -0.04,-0.016 -0.04,-0.04 v -0.544 c 0,-0.024 0.016,-0.04 0.04,-0.04 h 1.42 c 0.024,0 0.04,0.016 0.04,0.04 v 0.544 c 0,0.024 -0.016,0.04 -0.04,0.04 z"
     fill="currentColor"
     id="path286"
     style="stroke-width:0.004" />
  <path
     d="m 70.248917,15.675395 c 0.224,0 0.436,0.116 0.436,0.364 0,0.288 -0.224,0.484 -0.412,0.596 -0.144,0.084 -0.304,0.144 -0.468,0.144 -0.224,0 -0.436,-0.116 -0.436,-0.364 0,-0.288 0.224,-0.484 0.412,-0.596 0.144,-0.084 0.304,-0.144 0.468,-0.144 z"
     fill="currentColor"
     id="path288"
     style="stroke-width:0.004" />
  <polygon
     transform="translate(81.428717,17.727395)"
     stroke-linejoin="round"
     stroke-linecap="round"
     stroke-width="0.08"
     fill="currentColor"
     stroke="currentColor"
     points="0.04,0.2 0.04,-0.2 4.4312,0.99 4.4312,1.39 "
     id="polygon290" />
  <polygon
     transform="translate(81.428717,18.537395)"
     stroke-linejoin="round"
     stroke-linecap="round"
     stroke-width="0.08"
     fill="currentColor"
     stroke="currentColor"
     points="0.04,0.2 0.04,-0.2 2.2616,0.4126 2.2616,0.8126 "
     id="polygon292" />
  <polygon
     transform="translate(69.368917,19.917395)"
     stroke-linejoin="round"
     stroke-linecap="round"
     stroke-width="0.08"
     fill="currentColor"
     stroke="currentColor"
     points="0.04,0.2 0.04,-0.2 7.6974,1.61 7.6974,2.01 "
     id="polygon294" />
  <polygon
     transform="translate(69.368917,20.727395)"
     stroke-linejoin="round"
     stroke-linecap="round"
     stroke-width="0.08"
     fill="currentColor"
     stroke="currentColor"
     points="0.04,0.2 0.04,-0.2 7.6974,1.61 7.6974,2.01 "
     id="polygon296" />
  <polygon
     transform="translate(54.273617,22.278995)"
     stroke-linejoin="round"
     stroke-linecap="round"
     stroke-width="0.08"
     fill="currentColor"
     stroke="currentColor"
     points="0.04,0.2 0.04,-0.2 1.125,-0.0616 1.125,0.3384 "
     id="polygon298" />
  <polygon
     transform="translate(49.629017,21.727395)"
     stroke-linejoin="round"
     stroke-linecap="round"
     stroke-width="0.08"
     fill="currentColor"
     stroke="currentColor"
     points="0.04,0.2 0.04,-0.2 1.125,-0.0616 1.125,0.3384 "
     id="polygon300" />
  <polygon
     transform="translate(49.629017,22.537395)"
     stroke-linejoin="round"
     stroke-linecap="round"
     stroke-width="0.08"
     fill="currentColor"
     stroke="currentColor"
     points="0.04,0.2 0.04,-0.2 5.7696,0.49 5.7696,0.89 "
     id="polygon302" />
  <path
     stroke-width="0.08"
     stroke-linejoin="round"
     stroke-linecap="round"
     stroke="currentColor"
     fill="currentColor"
     d="m 56.166706,20.952395 c 0.491772,0.577767 1.529797,0.577767 2.021569,0 -0.491772,0.457767 -1.529797,0.457767 -2.021569,0 z"
     id="path304" />
  <polygon
     transform="translate(36.096817,20.917395)"
     stroke-linejoin="round"
     stroke-linecap="round"
     stroke-width="0.08"
     fill="currentColor"
     stroke="currentColor"
     points="0.04,0.2 0.04,-0.2 10.3641,0.42 10.3641,0.82 "
     id="polygon306" />
  <polygon
     transform="translate(28.761217,17.537395)"
     stroke-linejoin="round"
     stroke-linecap="round"
     stroke-width="0.08"
     fill="currentColor"
     stroke="currentColor"
     points="0.04,0.2 0.04,-0.2 3.848,-1.82 3.848,-1.42 "
     id="polygon308" />
  <path
     d="m 81.122517,20.175395 c 0.224,0 0.436,0.116 0.436,0.364 0,0.288 -0.224,0.484 -0.412,0.596 -0.144,0.084 -0.304,0.144 -0.468,0.144 -0.224,0 -0.436,-0.116 -0.436,-0.364 0,-0.288 0.224,-0.484 0.412,-0.596 0.144,-0.084 0.304,-0.144 0.468,-0.144 z"
     fill="currentColor"
     id="path310"
     style="stroke-width:0.004" />
  <rect
     x="81.428719"
     y="17.744696"
     width="0.13"
     height="2.7948999"
     ry="0.039999999"
     fill="currentColor"
     id="rect312" />
  <path
     d="m 79.656517,21.975395 c 0,0.04 -0.032,0.076 -0.072,0.076 -0.04,0 -0.076,-0.036 -0.076,-0.076 v -0.58 l -0.332,0.124 v 0.632 c 0,0.04 -0.036,0.076 -0.076,0.076 -0.04,0 -0.072,-0.036 -0.072,-0.076 v -0.58 l -0.128,0.048 c -0.008,0.004 -0.02,0.004 -0.028,0.004 -0.044,0 -0.08,-0.036 -0.08,-0.08 v -0.24 c 0,-0.032 0.02,-0.064 0.052,-0.076 l 0.184,-0.064 v -0.64 l -0.128,0.044 c -0.008,0.004 -0.02,0.004 -0.028,0.004 -0.044,0 -0.08,-0.036 -0.08,-0.08 v -0.24 c 0,-0.032 0.02,-0.06 0.052,-0.072 l 0.184,-0.068 v -0.632 c 0,-0.04 0.032,-0.076 0.072,-0.076 0.04,0 0.076,0.036 0.076,0.076 v 0.58 l 0.332,-0.124 v -0.632 c 0,-0.04 0.036,-0.076 0.076,-0.076 0.04,0 0.072,0.036 0.072,0.076 v 0.58 l 0.128,-0.048 c 0.008,-0.004 0.02,-0.004 0.028,-0.004 0.044,0 0.08,0.036 0.08,0.08 v 0.24 c 0,0.032 -0.02,0.064 -0.052,0.076 l -0.184,0.064 v 0.64 l 0.128,-0.044 c 0.008,-0.004 0.02,-0.004 0.028,-0.004 0.044,0 0.08,0.036 0.08,0.08 v 0.24 c 0,0.032 -0.02,0.06 -0.052,0.072 l -0.184,0.068 z m -0.48,-1.508 v 0.64 l 0.332,-0.12 v -0.64 z"
     fill="currentColor"
     id="path314"
     style="stroke-width:0.004" />
  <path
     d="m 83.294117,21.175395 c 0.224,0 0.436,0.116 0.436,0.364 0,0.288 -0.224,0.484 -0.412,0.596 -0.144,0.084 -0.304,0.144 -0.468,0.144 -0.224,0 -0.436,-0.116 -0.436,-0.364 0,-0.288 0.224,-0.484 0.412,-0.596 0.144,-0.084 0.304,-0.144 0.468,-0.144 z"
     fill="currentColor"
     id="path316"
     style="stroke-width:0.004" />
  <rect
     x="83.600319"
     y="18.322695"
     width="0.13"
     height="3.2169001"
     ry="0.039999999"
     fill="currentColor"
     id="rect318" />
  <path
     d="m 85.463817,22.675395 c 0.224,0 0.436,0.116 0.436,0.364 0,0.288 -0.224,0.484 -0.412,0.596 -0.144,0.084 -0.304,0.144 -0.468,0.144 -0.224,0 -0.436,-0.116 -0.436,-0.364 0,-0.288 0.224,-0.484 0.412,-0.596 0.144,-0.084 0.304,-0.144 0.468,-0.144 z"
     fill="currentColor"
     id="path320"
     style="stroke-width:0.004" />
  <rect
     x="85.77002"
     y="18.900095"
     width="0.13"
     height="4.1395001"
     ry="0.039999999"
     fill="currentColor"
     id="rect322" />
  <text
     font-family="sans-serif"
     font-size="2.6163px"
     text-anchor="start"
     fill="currentColor"
     id="text326"
     x="90.166916"
     y="15.143195"><tspan
       id="tspan324">C</tspan></text>
  <text
     font-family="sans-serif"
     font-size="2.6163px"
     text-anchor="start"
     fill="currentColor"
     id="text330"
     x="91.976517"
     y="15.143195"><tspan
       id="tspan328" /></text>
  <text
     font-family="sans-serif"
     font-size="2.6163px"
     text-anchor="start"
     fill="currentColor"
     id="text334"
     x="91.976517"
     y="15.143195"><tspan
       id="tspan332" /></text>
  <polygon
     transform="translate(91.976517,13.643195)"
     stroke-linejoin="round"
     stroke-linecap="round"
     stroke-width="0.1"
     fill="none"
     stroke="currentColor"
     points="1.0091,-1.7356 0,0 2.0182,0 "
     id="polygon336" />
  <path
     d="m 91.026917,22.279395 c -0.2,0 -0.276,0.172 -0.276,0.352 0,0.308 0.228,0.544 0.536,0.544 0.2,0 0.276,-0.172 0.276,-0.352 0,-0.308 -0.228,-0.544 -0.536,-0.544 z m 1.12,0.448 c 0,0.172 -0.14,0.304 -0.292,0.388 -0.212,0.12 -0.452,0.164 -0.696,0.164 -0.244,0 -0.488,-0.044 -0.7,-0.164 -0.152,-0.084 -0.292,-0.216 -0.292,-0.388 0,-0.172 0.14,-0.304 0.292,-0.388 0.212,-0.12 0.456,-0.164 0.7,-0.164 0.244,0 0.484,0.044 0.696,0.164 0.152,0.084 0.292,0.216 0.292,0.388 z"
     fill="currentColor"
     id="path338"
     style="stroke-width:0.004" />
  <text
     font-family="sans-serif"
     font-size="2.6163px"
     text-anchor="start"
     fill="currentColor"
     id="text342"
     x="22.980516"
     y="15.143195"><tspan
       id="tspan340">A</tspan></text>
  <text
     font-family="sans-serif"
     font-size="2.6163px"
     text-anchor="start"
     fill="currentColor"
     id="text346"
     x="24.756018"
     y="15.143195"><tspan
       id="tspan344" /></text>
  <text
     font-family="sans-serif"
     font-size="2.6163px"
     text-anchor="start"
     fill="currentColor"
     id="text350"
     x="24.756018"
     y="15.143195"><tspan
       id="tspan348" /></text>
  <text
     font-family="sans-serif"
     font-size="1.85px"
     text-anchor="start"
     fill="currentColor"
     id="text354"
     x="24.756018"
     y="13.643195"><tspan
       id="tspan352" /></text>
  <text
     font-family="sans-serif"
     font-size="1.85px"
     text-anchor="start"
     fill="currentColor"
     id="text358"
     x="24.756018"
     y="13.643195"><tspan
       id="tspan356">7</tspan></text>
  <path
     d="m 26.709817,13.232195 -0.006,0.186 v 0.033 c 0,0.066 0.006,0.129 0.015,0.192 0.129,-0.114 0.267,-0.24 0.267,-0.411 0,-0.096 -0.042,-0.195 -0.126,-0.195 -0.093,0 -0.147,0.096 -0.15,0.195 z m -0.141,0.531 -0.042,-1.77 c 0.027,-0.015 0.06,-0.024 0.09,-0.024 0.03,0 0.063,0.009 0.09,0.024 l -0.024,1.02 c 0.075,-0.072 0.177,-0.114 0.282,-0.114 0.15,0 0.252,0.15 0.252,0.312 0,0.234 -0.249,0.351 -0.423,0.507 -0.051,0.045 -0.075,0.132 -0.147,0.132 -0.045,0 -0.078,-0.039 -0.078,-0.087 z"
     fill="currentColor"
     id="path360"
     style="stroke-width:0.003" />
  <text
     font-family="sans-serif"
     font-size="1.85px"
     text-anchor="start"
     fill="currentColor"
     id="text364"
     x="27.216217"
     y="13.643195"><tspan
       id="tspan362">9</tspan></text>
  <path
     d="m 23.860517,20.675395 c 0.224,0 0.436,0.116 0.436,0.364 0,0.288 -0.224,0.484 -0.412,0.596 -0.144,0.084 -0.304,0.144 -0.468,0.144 -0.224,0 -0.436,-0.116 -0.436,-0.364 0,-0.288 0.224,-0.484 0.412,-0.596 0.144,-0.084 0.304,-0.144 0.468,-0.144 z"
     fill="currentColor"
     id="path366"
     style="stroke-width:0.004" />
  <rect
     x="24.166718"
     y="17.727394"
     width="0.13"
     height="3.3122001"
     ry="0.039999999"
     fill="currentColor"
     id="rect368" />
  <path
     d="m 28.455017,21.175395 c 0.224,0 0.436,0.116 0.436,0.364 0,0.288 -0.224,0.484 -0.412,0.596 -0.144,0.084 -0.304,0.144 -0.468,0.144 -0.224,0 -0.436,-0.116 -0.436,-0.364 0,-0.288 0.224,-0.484 0.412,-0.596 0.144,-0.084 0.304,-0.144 0.468,-0.144 z"
     fill="currentColor"
     id="path370"
     style="stroke-width:0.004" />
  <rect
     x="28.761217"
     y="17.510296"
     width="0.13"
     height="4.0293002"
     ry="0.039999999"
     fill="currentColor"
     id="rect372" />
  <path
     d="m 32.213117,17.675395 c 0.224,0 0.436,0.116 0.436,0.364 0,0.288 -0.224,0.484 -0.412,0.596 -0.144,0.084 -0.304,0.144 -0.468,0.144 -0.224,0 -0.436,-0.116 -0.436,-0.364 0,-0.288 0.224,-0.484 0.412,-0.596 0.144,-0.084 0.304,-0.144 0.468,-0.144 z"
     fill="currentColor"
     id="path374"
     style="stroke-width:0.004" />
  <rect
     x="32.519218"
     y="15.944495"
     width="0.13"
     height="2.0950999"
     ry="0.039999999"
     fill="currentColor"
     id="rect376" />
  <text
     font-family="sans-serif"
     font-size="2.6163px"
     text-anchor="start"
     fill="currentColor"
     id="text380"
     x="36.096817"
     y="15.143195"><tspan
       id="tspan378">D</tspan></text>
  <text
     font-family="sans-serif"
     font-size="2.6163px"
     text-anchor="start"
     fill="currentColor"
     id="text384"
     x="38.145416"
     y="15.143195"><tspan
       id="tspan382" /></text>
  <text
     font-family="sans-serif"
     font-size="2.6163px"
     text-anchor="start"
     fill="currentColor"
     id="text388"
     x="38.145416"
     y="15.143195"><tspan
       id="tspan386">m</tspan></text>
  <text
     font-family="sans-serif"
     font-size="1.85px"
     text-anchor="start"
     fill="currentColor"
     id="text392"
     x="40.706219"
     y="13.643195"><tspan
       id="tspan390">9</tspan></text>
  <path
     d="m 36.976817,16.675395 c 0.224,0 0.436,0.116 0.436,0.364 0,0.288 -0.224,0.484 -0.412,0.596 -0.144,0.084 -0.304,0.144 -0.468,0.144 -0.224,0 -0.436,-0.116 -0.436,-0.364 0,-0.288 0.224,-0.484 0.412,-0.596 0.144,-0.084 0.304,-0.144 0.468,-0.144 z"
     fill="currentColor"
     id="path394"
     style="stroke-width:0.004" />
  <rect
     x="36.096817"
     y="17.415195"
     width="0.13"
     height="3.5060999"
     ry="0.039999999"
     fill="currentColor"
     id="rect396" />
  <text
     font-family="'Century Schoolbook L'"
     font-size="1.7461px"
     text-anchor="start"
     fill="currentColor"
     id="text400"
     x="7.0355172"
     y="16.677395"><tspan
       id="tspan398">4</tspan></text>
  <path
     d="m 10.295517,19.679395 c 0.016,0 0.036,-0.004 0.052,-0.004 0.62,0 1.024,0.512 1.024,1.044 0,0.304 -0.132,0.616 -0.428,0.84 -0.088,0.068 -0.188,0.112 -0.292,0.144 0.012,0.14 0.02,0.28 0.02,0.42 0,0.076 -0.004,0.156 -0.008,0.232 -0.028,0.48 -0.36,0.912 -0.8319998,0.912 -0.432,0 -0.78,-0.352 -0.78,-0.788 0,-0.232 0.212,-0.412 0.448,-0.412 0.216,0 0.38,0.188 0.38,0.412 0,0.208 -0.172,0.38 -0.38,0.38 -0.044,0 -0.084,-0.008 -0.124,-0.024 0.104,0.156 0.272,0.26 0.468,0.26 0.3839998,0 0.6279998,-0.368 0.6519998,-0.764 0.004,-0.072 0.008,-0.148 0.008,-0.22 0,-0.124 -0.004,-0.244 -0.016,-0.368 -0.116,0.02 -0.232,0.032 -0.356,0.032 -0.7519998,0 -1.3319998,-0.688 -1.3319998,-1.496 0,-0.708 0.524,-1.224 0.992,-1.764 -0.076,-0.248 -0.148,-0.5 -0.18,-0.76 -0.024,-0.208 -0.028,-0.416 -0.028,-0.624 0,-0.46 0.22,-0.896 0.5959998,-1.168 0.012,-0.008 0.028,-0.012 0.04,-0.012 0.016,0 0.028,0 0.04,0.012 0.284,0.336 0.532,0.98 0.532,1.432 0,0.572 -0.344,1.02 -0.72,1.456 0.084,0.272 0.156,0.552 0.224,0.828 z m 0.34,1.86 c 0.272,-0.096 0.452,-0.38 0.452,-0.656 0,-0.36 -0.264,-0.716 -0.692,-0.76 0.096,0.464 0.184,0.924 0.24,1.416 z m -1.5479998,-0.924 c 0,0.54 0.516,0.988 1.0559998,0.988 0.112,0 0.22,-0.008 0.328,-0.024 -0.056,-0.508 -0.148,-0.98 -0.252,-1.456 -0.3159998,0.032 -0.4959998,0.244 -0.4959998,0.476 0,0.176 0.1,0.364 0.3239998,0.492 0.02,0.02 0.028,0.04 0.028,0.06 0,0.044 -0.04,0.088 -0.088,0.088 -0.012,0 -0.024,-0.004 -0.036,-0.008 -0.32,-0.172 -0.468,-0.46 -0.468,-0.74 0,-0.352 0.232,-0.696 0.64,-0.788 -0.056,-0.232 -0.116,-0.468 -0.184,-0.7 -0.428,0.484 -0.852,0.972 -0.8519998,1.612 z m 1.3359998,-4.068 c -0.396,0.192 -0.6479998,0.596 -0.6479998,1.036 0,0.296 0.072,0.532 0.144,0.776 0.3199998,-0.388 0.5839998,-0.792 0.5839998,-1.296 0,-0.22 -0.016,-0.316 -0.08,-0.516 z"
     fill="currentColor"
     id="path402"
     style="stroke-width:0.004" />
  <rect
     x="14.977717"
     y="16.727394"
     width="0.13"
     height="3.3122001"
     ry="0.039999999"
     fill="currentColor"
     id="rect404" />
  <path
     d="m 14.671517,19.675395 c 0.224,0 0.436,0.116 0.436,0.364 0,0.288 -0.224,0.484 -0.412,0.596 -0.144,0.084 -0.304,0.144 -0.468,0.144 -0.224,0 -0.436,-0.116 -0.436,-0.364 0,-0.288 0.224,-0.484 0.412,-0.596 0.144,-0.084 0.304,-0.144 0.468,-0.144 z"
     fill="currentColor"
     id="path406"
     style="stroke-width:0.004" />
  <text
     font-family="sans-serif"
     font-size="2.6163px"
     text-anchor="start"
     fill="currentColor"
     id="text410"
     x="13.791517"
     y="15.143195"><tspan
       id="tspan408">A</tspan></text>
  <text
     font-family="sans-serif"
     font-size="2.6163px"
     text-anchor="start"
     fill="currentColor"
     id="text414"
     x="15.567018"
     y="15.143195"><tspan
       id="tspan412" /></text>
  <text
     font-family="sans-serif"
     font-size="2.6163px"
     text-anchor="start"
     fill="currentColor"
     id="text418"
     x="15.567018"
     y="15.143195"><tspan
       id="tspan416" /></text>
  <text
     font-family="sans-serif"
     font-size="1.85px"
     text-anchor="start"
     fill="currentColor"
     id="text422"
     x="15.567018"
     y="13.643195"><tspan
       id="tspan420" /></text>
  <text
     font-family="sans-serif"
     font-size="1.85px"
     text-anchor="start"
     fill="currentColor"
     id="text426"
     x="15.567018"
     y="13.643195"><tspan
       id="tspan424">7</tspan></text>
  <path
     d="m 17.821817,14.030195 c -0.036,0 -0.063,-0.027 -0.063,-0.063 v -0.414 l -0.237,0.09 v 0.462 c 0,0.036 -0.027,0.063 -0.063,0.063 -0.036,0 -0.063,-0.027 -0.063,-0.063 v -0.414 l -0.066,0.024 c -0.009,0.003 -0.018,0.006 -0.027,0.006 -0.039,0 -0.075,-0.033 -0.075,-0.075 v -0.162 c 0,-0.03 0.018,-0.06 0.048,-0.072 l 0.12,-0.045 v -0.465 l -0.066,0.027 c -0.009,0.003 -0.018,0.003 -0.027,0.003 -0.039,0 -0.075,-0.033 -0.075,-0.075 v -0.162 c 0,-0.03 0.018,-0.057 0.048,-0.069 l 0.12,-0.045 v -0.462 c 0,-0.036 0.027,-0.063 0.063,-0.063 0.036,0 0.063,0.027 0.063,0.063 v 0.414 l 0.237,-0.09 v -0.462 c 0,-0.036 0.027,-0.063 0.063,-0.063 0.036,0 0.063,0.027 0.063,0.063 v 0.414 l 0.066,-0.024 c 0.009,-0.003 0.018,-0.006 0.027,-0.006 0.039,0 0.075,0.033 0.075,0.075 v 0.162 c 0,0.03 -0.018,0.06 -0.048,0.072 l -0.12,0.045 v 0.465 l 0.066,-0.027 c 0.009,-0.003 0.018,-0.003 0.027,-0.003 0.039,0 0.075,0.033 0.075,0.075 v 0.162 c 0,0.03 -0.018,0.057 -0.048,0.069 l -0.12,0.045 v 0.462 c 0,0.036 -0.027,0.063 -0.063,0.063 z m -0.3,-1.173 v 0.462 l 0.237,-0.09 v -0.462 z"
     fill="currentColor"
     id="path428"
     style="stroke-width:0.003" />
  <text
     font-family="sans-serif"
     font-size="1.85px"
     text-anchor="start"
     fill="currentColor"
     id="text432"
     x="18.051918"
     y="13.643195"><tspan
       id="tspan430">9</tspan></text>
  <path
     d="m 19.266017,20.175395 c 0.224,0 0.436,0.116 0.436,0.364 0,0.288 -0.224,0.484 -0.412,0.596 -0.144,0.084 -0.304,0.144 -0.468,0.144 -0.224,0 -0.436,-0.116 -0.436,-0.364 0,-0.288 0.224,-0.484 0.412,-0.596 0.144,-0.084 0.304,-0.144 0.468,-0.144 z"
     fill="currentColor"
     id="path434"
     style="stroke-width:0.004" />
  <rect
     x="19.572218"
     y="17.227394"
     width="0.13"
     height="3.3122001"
     ry="0.039999999"
     fill="currentColor"
     id="rect436" />
  <path
     d="m 43.742917,17.675395 c 0.224,0 0.436,0.116 0.436,0.364 0,0.288 -0.224,0.484 -0.412,0.596 -0.144,0.084 -0.304,0.144 -0.468,0.144 -0.224,0 -0.436,-0.116 -0.436,-0.364 0,-0.288 0.224,-0.484 0.412,-0.596 0.144,-0.084 0.304,-0.144 0.468,-0.144 z"
     fill="currentColor"
     id="path438"
     style="stroke-width:0.004" />
  <rect
     x="42.862919"
     y="18.415195"
     width="0.13"
     height="2.9093001"
     ry="0.039999999"
     fill="currentColor"
     id="rect440" />
  <path
     d="m 47.250917,17.675395 c 0.224,0 0.436,0.116 0.436,0.364 0,0.288 -0.224,0.484 -0.412,0.596 -0.144,0.084 -0.304,0.144 -0.468,0.144 -0.224,0 -0.436,-0.116 -0.436,-0.364 0,-0.288 0.224,-0.484 0.412,-0.596 0.144,-0.084 0.304,-0.144 0.468,-0.144 z"
     fill="currentColor"
     id="path442"
     style="stroke-width:0.004" />
  <rect
     x="46.370918"
     y="18.415195"
     width="0.13"
     height="3.1183"
     ry="0.039999999"
     fill="currentColor"
     id="rect444" />
  <path
     d="m 50.509017,18.675395 c 0.224,0 0.436,0.116 0.436,0.364 0,0.288 -0.224,0.484 -0.412,0.596 -0.144,0.084 -0.304,0.144 -0.468,0.144 -0.224,0 -0.436,-0.116 -0.436,-0.364 0,-0.288 0.224,-0.484 0.412,-0.596 0.144,-0.084 0.304,-0.144 0.468,-0.144 z"
     fill="currentColor"
     id="path446"
     style="stroke-width:0.004" />
  <rect
     x="49.629017"
     y="19.415195"
     width="0.13"
     height="3.1299"
     ry="0.039999999"
     fill="currentColor"
     id="rect448" />
  <path
     d="m 52.930517,18.675395 c 0.224,0 0.436,0.116 0.436,0.364 0,0.288 -0.224,0.484 -0.412,0.596 -0.144,0.084 -0.304,0.144 -0.468,0.144 -0.224,0 -0.436,-0.116 -0.436,-0.364 0,-0.288 0.224,-0.484 0.412,-0.596 0.144,-0.084 0.304,-0.144 0.468,-0.144 z"
     fill="currentColor"
     id="path450"
     style="stroke-width:0.004" />
  <rect
     x="52.050518"
     y="19.415195"
     width="0.13"
     height="3.4175"
     ry="0.039999999"
     fill="currentColor"
     id="rect452" />
  <path
     d="m 56.188617,19.675395 c 0.224,0 0.436,0.116 0.436,0.364 0,0.288 -0.224,0.484 -0.412,0.596 -0.144,0.084 -0.304,0.144 -0.468,0.144 -0.224,0 -0.436,-0.116 -0.436,-0.364 0,-0.288 0.224,-0.484 0.412,-0.596 0.144,-0.084 0.304,-0.144 0.468,-0.144 z"
     fill="currentColor"
     id="path454"
     style="stroke-width:0.004" />
  <path
     d="m 40.484917,16.675395 c 0.224,0 0.436,0.116 0.436,0.364 0,0.288 -0.224,0.484 -0.412,0.596 -0.144,0.084 -0.304,0.144 -0.468,0.144 -0.224,0 -0.436,-0.116 -0.436,-0.364 0,-0.288 0.224,-0.484 0.412,-0.596 0.144,-0.084 0.304,-0.144 0.468,-0.144 z"
     fill="currentColor"
     id="path456"
     style="stroke-width:0.004" />
  <rect
     x="39.604916"
     y="17.415195"
     width="0.13"
     height="3.7151"
     ry="0.039999999"
     fill="currentColor"
     id="rect458" />
</svg>
