<?xml version="1.0" encoding="UTF-8" standalone="no"?>
<svg
   version="1.2"
   width="159.20001mm"
   height="15.397451mm"
   viewBox="0 0 90.593601 8.7620001"
   id="svg136"
   xmlns="http://www.w3.org/2000/svg"
   xmlns:svg="http://www.w3.org/2000/svg">
  <defs
     id="defs140" />
  <!-- Page: 1/1 -->
  <text
     font-family="'Century Schoolbook L'"
     font-size="2.2001px"
     text-anchor="start"
     fill="currentColor"
     id="text4"
     y="-1"><tspan
       id="tspan2" /></text>
  <rect
     x="89.993599"
     y="3.21"
     width="0.60000002"
     height="4"
     ry="0.0000"
     fill="currentColor"
     id="rect6" />
  <rect
     x="89.503601"
     y="3.21"
     width="0.19"
     height="4"
     ry="0.0000"
     fill="currentColor"
     id="rect8" />
  <path
     d="m 24.0232,4.71 c 0,-0.124 0.1,-0.224 0.224,-0.224 0.124,0 0.224,0.1 0.224,0.224 0,0.124 -0.1,0.224 -0.224,0.224 -0.124,0 -0.224,-0.1 -0.224,-0.224 z"
     fill="currentColor"
     id="path10"
     style="stroke-width:0.004" />
  <path
     d="m 24.0232,5.71 c 0,-0.124 0.1,-0.224 0.224,-0.224 0.124,0 0.224,0.1 0.224,0.224 0,0.124 -0.1,0.224 -0.224,0.224 -0.124,0 -0.224,-0.1 -0.224,-0.224 z"
     fill="currentColor"
     id="path12"
     style="stroke-width:0.004" />
  <rect
     x="23.533199"
     y="3.21"
     width="0.19"
     height="4"
     ry="0.0000"
     fill="currentColor"
     id="rect14" />
  <rect
     x="22.6332"
     y="3.21"
     width="0.60000002"
     height="4"
     ry="0.0000"
     fill="currentColor"
     id="rect16" />
  <rect
     x="56.1978"
     y="3.21"
     width="0.19"
     height="4"
     ry="0.0000"
     fill="currentColor"
     id="rect18" />
  <path
     d="m 71.9364,4.71 c 0,-0.124 0.1,-0.224 0.224,-0.224 0.124,0 0.224,0.1 0.224,0.224 0,0.124 -0.1,0.224 -0.224,0.224 -0.124,0 -0.224,-0.1 -0.224,-0.224 z"
     fill="currentColor"
     id="path20"
     style="stroke-width:0.004" />
  <path
     d="m 71.9364,5.71 c 0,-0.124 0.1,-0.224 0.224,-0.224 0.124,0 0.224,0.1 0.224,0.224 0,0.124 -0.1,0.224 -0.224,0.224 -0.124,0 -0.224,-0.1 -0.224,-0.224 z"
     fill="currentColor"
     id="path22"
     style="stroke-width:0.004" />
  <rect
     x="73.176399"
     y="3.21"
     width="0.60000002"
     height="4"
     ry="0.0000"
     fill="currentColor"
     id="rect24" />
  <rect
     x="72.686401"
     y="3.21"
     width="0.19"
     height="4"
     ry="0.0000"
     fill="currentColor"
     id="rect26" />
  <rect
     x="40.222599"
     y="3.21"
     width="0.19"
     height="4"
     ry="0.0000"
     fill="currentColor"
     id="rect28" />
  <line
     stroke-linejoin="round"
     stroke-linecap="round"
     stroke-width="0.1"
     stroke="currentColor"
     x1="0.050000001"
     y1="7.21"
     x2="90.543602"
     y2="7.21"
     id="line30" />
  <line
     stroke-linejoin="round"
     stroke-linecap="round"
     stroke-width="0.1"
     stroke="currentColor"
     x1="0.050000001"
     y1="6.21"
     x2="90.543602"
     y2="6.21"
     id="line32" />
  <line
     stroke-linejoin="round"
     stroke-linecap="round"
     stroke-width="0.1"
     stroke="currentColor"
     x1="0.050000001"
     y1="5.21"
     x2="90.543602"
     y2="5.21"
     id="line34" />
  <line
     stroke-linejoin="round"
     stroke-linecap="round"
     stroke-width="0.1"
     stroke="currentColor"
     x1="0.050000001"
     y1="4.21"
     x2="90.543602"
     y2="4.21"
     id="line36" />
  <line
     stroke-linejoin="round"
     stroke-linecap="round"
     stroke-width="0.1"
     stroke="currentColor"
     x1="0.050000001"
     y1="3.21"
     x2="90.543602"
     y2="3.21"
     id="line38" />
  <rect
     x="74.802399"
     y="8.1099997"
     width="1.9743"
     height="0.2"
     ry="0.1"
     fill="currentColor"
     id="rect40" />
  <rect
     x="79.5336"
     y="8.1099997"
     width="1.9743"
     height="0.2"
     ry="0.1"
     fill="currentColor"
     id="rect42" />
  <rect
     x="84.264801"
     y="8.1099997"
     width="1.9743"
     height="0.2"
     ry="0.1"
     fill="currentColor"
     id="rect44" />
  <rect
     x="58.929001"
     y="4.21"
     width="0.13"
     height="3.3122001"
     ry="0.039999999"
     fill="currentColor"
     id="rect46" />
  <path
     d="m 58.6228,7.158 c 0.224,0 0.436,0.116 0.436,0.364 0,0.288 -0.224,0.484 -0.412,0.596 -0.144,0.084 -0.304,0.144 -0.468,0.144 -0.224,0 -0.436,-0.116 -0.436,-0.364 0,-0.288 0.224,-0.484 0.412,-0.596 0.144,-0.084 0.304,-0.144 0.468,-0.144 z"
     fill="currentColor"
     id="path48"
     style="stroke-width:0.004" />
  <path
     d="m 47.3788,6.658 c 0.224,0 0.436,0.116 0.436,0.364 0,0.288 -0.224,0.484 -0.412,0.596 -0.144,0.084 -0.304,0.144 -0.468,0.144 -0.224,0 -0.436,-0.116 -0.436,-0.364 0,-0.288 0.224,-0.484 0.412,-0.596 0.144,-0.084 0.304,-0.144 0.468,-0.144 z"
     fill="currentColor"
     id="path50"
     style="stroke-width:0.004" />
  <rect
     x="47.685001"
     y="3.71"
     width="0.13"
     height="3.3122001"
     ry="0.039999999"
     fill="currentColor"
     id="rect52" />
  <path
     d="m 52.11,6.658 c 0.224,0 0.436,0.116 0.436,0.364 0,0.288 -0.224,0.484 -0.412,0.596 -0.144,0.084 -0.304,0.144 -0.468,0.144 -0.224,0 -0.436,-0.116 -0.436,-0.364 0,-0.288 0.224,-0.484 0.412,-0.596 0.144,-0.084 0.304,-0.144 0.468,-0.144 z"
     fill="currentColor"
     id="path54"
     style="stroke-width:0.004" />
  <rect
     x="52.416199"
     y="3.71"
     width="0.13"
     height="3.3122001"
     ry="0.039999999"
     fill="currentColor"
     id="rect56" />
  <path
     d="m 80.7426,7.658 c 0.224,0 0.436,0.116 0.436,0.364 0,0.288 -0.224,0.484 -0.412,0.596 -0.144,0.084 -0.304,0.144 -0.468,0.144 -0.224,0 -0.436,-0.116 -0.436,-0.364 0,-0.288 0.224,-0.484 0.412,-0.596 0.144,-0.084 0.304,-0.144 0.468,-0.144 z"
     fill="currentColor"
     id="path58"
     style="stroke-width:0.004" />
  <rect
     x="81.048798"
     y="4.71"
     width="0.13"
     height="3.3122001"
     ry="0.039999999"
     fill="currentColor"
     id="rect60" />
  <path
     d="m 85.4738,7.658 c 0.224,0 0.436,0.116 0.436,0.364 0,0.288 -0.224,0.484 -0.412,0.596 -0.144,0.084 -0.304,0.144 -0.468,0.144 -0.224,0 -0.436,-0.116 -0.436,-0.364 0,-0.288 0.224,-0.484 0.412,-0.596 0.144,-0.084 0.304,-0.144 0.468,-0.144 z"
     fill="currentColor"
     id="path62"
     style="stroke-width:0.004" />
  <rect
     x="85.779999"
     y="4.71"
     width="0.13"
     height="3.3122001"
     ry="0.039999999"
     fill="currentColor"
     id="rect64" />
  <g
     transform="translate(41.2526,1.8433)"
     id="g70">
    <path
       transform="scale(0.0025,-0.0025)"
       d="m 134,504 c 19,0 37,-17 57,-17 16,0 30,7 44,13 1,1 4,1 5,1 8,0 15,-10 15,-21 V 127 c 0,-52 32,-99 80,-99 9,0 13,-7 13,-14 C 348,7 344,0 335,0 287,0 239,13 191,13 143,13 96,0 48,0 39,0 34,7 34,14 c 0,7 5,14 14,14 48,0 79,47 79,99 v 220 c 0,15 -10,22 -19,22 -5,0 -10,-1 -12,-6 L 31,234 c -3,-7 -9,-9 -15,-9 -9,0 -18,7 -18,17 0,3 1,5 2,8 l 127,250 c 1,3 4,4 7,4 z"
       fill="currentColor"
       id="path66" />
    <path
       transform="matrix(0.0025,0,0,-0.0025,0.8877,0)"
       d="m 0,53 c 0,29 24,53 53,53 29,0 53,-24 53,-53 C 106,24 82,0 53,0 24,0 0,24 0,53 Z"
       fill="currentColor"
       id="path68" />
  </g>
  <line
     stroke-linejoin="round"
     stroke-linecap="round"
     stroke-width="0.16"
     stroke="currentColor"
     x1="40.3326"
     y1="0.079999998"
     x2="72.766403"
     y2="0.079999998"
     id="line72" />
  <line
     stroke-linejoin="round"
     stroke-linecap="round"
     stroke-width="0.16"
     stroke="currentColor"
     x1="72.766403"
     y1="0.079999998"
     x2="72.766403"
     y2="2.0799999"
     id="line74" />
  <line
     stroke-linejoin="round"
     stroke-linecap="round"
     stroke-width="0.16"
     stroke="currentColor"
     x1="40.3326"
     y1="0.079999998"
     x2="40.3326"
     y2="2.0799999"
     id="line76" />
  <path
     d="m 63.354,7.158 c 0.224,0 0.436,0.116 0.436,0.364 0,0.288 -0.224,0.484 -0.412,0.596 -0.144,0.084 -0.304,0.144 -0.468,0.144 -0.224,0 -0.436,-0.116 -0.436,-0.364 0,-0.288 0.224,-0.484 0.412,-0.596 0.144,-0.084 0.304,-0.144 0.468,-0.144 z"
     fill="currentColor"
     id="path78"
     style="stroke-width:0.004" />
  <rect
     x="63.660198"
     y="4.21"
     width="0.13"
     height="3.3122001"
     ry="0.039999999"
     fill="currentColor"
     id="rect80" />
  <path
     d="m 68.0852,7.158 c 0.224,0 0.436,0.116 0.436,0.364 0,0.288 -0.224,0.484 -0.412,0.596 -0.144,0.084 -0.304,0.144 -0.468,0.144 -0.224,0 -0.436,-0.116 -0.436,-0.364 0,-0.288 0.224,-0.484 0.412,-0.596 0.144,-0.084 0.304,-0.144 0.468,-0.144 z"
     fill="currentColor"
     id="path82"
     style="stroke-width:0.004" />
  <rect
     x="68.391403"
     y="4.21"
     width="0.13"
     height="3.3122001"
     ry="0.039999999"
     fill="currentColor"
     id="rect84" />
  <path
     d="m 76.0114,7.658 c 0.224,0 0.436,0.116 0.436,0.364 0,0.288 -0.224,0.484 -0.412,0.596 -0.144,0.084 -0.304,0.144 -0.468,0.144 -0.224,0 -0.436,-0.116 -0.436,-0.364 0,-0.288 0.224,-0.484 0.412,-0.596 0.144,-0.084 0.304,-0.144 0.468,-0.144 z"
     fill="currentColor"
     id="path86"
     style="stroke-width:0.004" />
  <rect
     x="76.317596"
     y="4.71"
     width="0.13"
     height="3.3122001"
     ry="0.039999999"
     fill="currentColor"
     id="rect88" />
  <path
     d="m 14.2159,4.158 c 0.224,0 0.436,0.116 0.436,0.364 0,0.288 -0.224,0.484 -0.412,0.596 -0.144,0.084 -0.304,0.144 -0.468,0.144 -0.224,0 -0.436,-0.116 -0.436,-0.364 0,-0.288 0.224,-0.484 0.412,-0.596 0.144,-0.084 0.304,-0.144 0.468,-0.144 z"
     fill="currentColor"
     id="path90"
     style="stroke-width:0.004" />
  <rect
     x="13.3359"
     y="4.8978"
     width="0.13"
     height="3.3122001"
     ry="0.039999999"
     fill="currentColor"
     id="rect92" />
  <path
     d="m 18.9471,4.158 c 0.224,0 0.436,0.116 0.436,0.364 0,0.288 -0.224,0.484 -0.412,0.596 -0.144,0.084 -0.304,0.144 -0.468,0.144 -0.224,0 -0.436,-0.116 -0.436,-0.364 0,-0.288 0.224,-0.484 0.412,-0.596 0.144,-0.084 0.304,-0.144 0.468,-0.144 z"
     fill="currentColor"
     id="path94"
     style="stroke-width:0.004" />
  <rect
     x="18.067101"
     y="4.8978"
     width="0.13"
     height="3.3122001"
     ry="0.039999999"
     fill="currentColor"
     id="rect96" />
  <path
     d="m 26.7082,5.658 c 0.224,0 0.436,0.116 0.436,0.364 0,0.288 -0.224,0.484 -0.412,0.596 -0.144,0.084 -0.304,0.144 -0.468,0.144 -0.224,0 -0.436,-0.116 -0.436,-0.364 0,-0.288 0.224,-0.484 0.412,-0.596 0.144,-0.084 0.304,-0.144 0.468,-0.144 z"
     fill="currentColor"
     id="path98"
     style="stroke-width:0.004" />
  <g
     transform="translate(74.6164,1.8433)"
     id="g104">
    <path
       transform="scale(0.0025,-0.0025)"
       d="M 28,13 C 27,4 21,0 14,0 7,0 0,5 0,14 c 0,174 233,163 233,341 0,57 -14,117 -63,117 -31,0 -61,-14 -61,-41 0,-25 32,-39 32,-64 0,-35 -28,-64 -63,-64 -35,0 -64,29 -64,64 0,78 74,133 156,133 98,0 191,-55 191,-145 C 361,210 223,198 125,147 h 10 c 35,0 73,-12 110,-39 19,-14 41,-22 60,-22 22,0 40,10 46,31 2,7 7,11 13,11 7,0 14,-6 14,-14 0,-1 -1,-3 -1,-4 C 358,40 295,0 233,0 195,0 159,15 133,47 121,62 104,69 88,69 59,69 31,48 28,13 Z"
       fill="currentColor"
       id="path100" />
    <path
       transform="matrix(0.0025,0,0,-0.0025,0.956,0)"
       d="m 0,53 c 0,29 24,53 53,53 29,0 53,-24 53,-53 C 106,24 82,0 53,0 24,0 0,24 0,53 Z"
       fill="currentColor"
       id="path102" />
  </g>
  <line
     stroke-linejoin="round"
     stroke-linecap="round"
     stroke-width="0.16"
     stroke="currentColor"
     x1="73.696404"
     y1="0.079999998"
     x2="90.513603"
     y2="0.079999998"
     id="line106" />
  <line
     stroke-linejoin="round"
     stroke-linecap="round"
     stroke-width="0.16"
     stroke="currentColor"
     x1="90.513603"
     y1="0.079999998"
     x2="90.513603"
     y2="2.0799999"
     id="line108" />
  <line
     stroke-linejoin="round"
     stroke-linecap="round"
     stroke-width="0.16"
     stroke="currentColor"
     x1="73.696404"
     y1="0.079999998"
     x2="73.696404"
     y2="2.0799999"
     id="line110" />
  <path
     d="m 9.4847,4.158 c 0.224,0 0.436,0.116 0.436,0.364 0,0.288 -0.224,0.484 -0.412,0.596 -0.144,0.084 -0.304,0.144 -0.468,0.144 -0.224,0 -0.436,-0.116 -0.436,-0.364 0,-0.288 0.224,-0.484 0.412,-0.596 0.144,-0.084 0.304,-0.144 0.468,-0.144 z"
     fill="currentColor"
     id="path112"
     style="stroke-width:0.004" />
  <path
     d="m 2.304,5.162 c 0.016,0 0.036,-0.004 0.052,-0.004 0.62,0 1.024,0.512 1.024,1.044 0,0.304 -0.132,0.616 -0.428,0.84 C 2.864,7.11 2.764,7.154 2.66,7.186 2.672,7.326 2.68,7.466 2.68,7.606 2.68,7.682 2.676,7.762 2.672,7.838 2.644,8.318 2.312,8.75 1.84,8.75 1.408,8.75 1.06,8.398 1.06,7.962 1.06,7.73 1.272,7.55 1.508,7.55 c 0.216,0 0.38,0.188 0.38,0.412 0,0.208 -0.172,0.38 -0.38,0.38 -0.044,0 -0.084,-0.008 -0.124,-0.024 0.104,0.156 0.272,0.26 0.468,0.26 C 2.236,8.578 2.48,8.21 2.504,7.814 2.508,7.742 2.512,7.666 2.512,7.594 2.512,7.47 2.508,7.35 2.496,7.226 2.38,7.246 2.264,7.258 2.14,7.258 1.388,7.258 0.808,6.57 0.808,5.762 0.808,5.054 1.332,4.538 1.8,3.998 1.724,3.75 1.652,3.498 1.62,3.238 1.596,3.03 1.592,2.822 1.592,2.614 1.592,2.154 1.812,1.718 2.188,1.446 2.2,1.438 2.216,1.434 2.228,1.434 c 0.016,0 0.028,0 0.04,0.012 C 2.552,1.782 2.8,2.426 2.8,2.878 2.8,3.45 2.456,3.898 2.08,4.334 2.164,4.606 2.236,4.886 2.304,5.162 Z m 0.34,1.86 C 2.916,6.926 3.096,6.642 3.096,6.366 3.096,6.006 2.832,5.65 2.404,5.606 2.5,6.07 2.588,6.53 2.644,7.022 Z M 1.096,6.098 c 0,0.54 0.516,0.988 1.056,0.988 0.112,0 0.22,-0.008 0.328,-0.024 C 2.424,6.554 2.332,6.082 2.228,5.606 1.912,5.638 1.732,5.85 1.732,6.082 c 0,0.176 0.1,0.364 0.324,0.492 0.02,0.02 0.028,0.04 0.028,0.06 0,0.044 -0.04,0.088 -0.088,0.088 C 1.984,6.722 1.972,6.718 1.96,6.714 1.64,6.542 1.492,6.254 1.492,5.974 1.492,5.622 1.724,5.278 2.132,5.186 2.076,4.954 2.016,4.718 1.948,4.486 1.52,4.97 1.096,5.458 1.096,6.098 Z M 2.432,2.03 C 2.036,2.222 1.784,2.626 1.784,3.066 1.784,3.362 1.856,3.598 1.928,3.842 2.248,3.454 2.512,3.05 2.512,2.546 2.512,2.326 2.496,2.23 2.432,2.03 Z"
     fill="currentColor"
     id="path114"
     style="stroke-width:0.004" />
  <path
     d="m 5.816,5.9965 c 0.088,-0.056 0.176,-0.116 0.24,-0.2 0.044,-0.06 0.076,-0.132 0.108,-0.2 0.008,-0.016 0.02,-0.024 0.036,-0.024 0.024,0 0.052,0.02 0.052,0.056 v 0.98 H 6.54 c 0.04,0 0.06,0.028 0.06,0.056 0,0.028 -0.02,0.06 -0.06,0.06 H 6.252 v 0.032 c 0,0.192 0.108,0.376 0.288,0.376 0.032,0 0.048,0.02 0.048,0.044 0,0.024 -0.016,0.048 -0.048,0.048 -0.176,0 -0.348,-0.052 -0.524,-0.052 -0.176,0 -0.348,0.052 -0.524,0.052 -0.032,0 -0.048,-0.024 -0.048,-0.048 0,-0.024 0.016,-0.044 0.048,-0.044 0.18,0 0.292,-0.184 0.292,-0.376 V 6.7245 H 5.116 c -0.092,0 -0.124,-0.056 -0.124,-0.092 0,-0.012 0.004,-0.02 0.008,-0.024 0.32,-0.372 0.552,-0.828 0.552,-1.32 0,-0.036 0.024,-0.064 0.052,-0.064 h 0.012 c 0.092,0.028 0.188,0.052 0.284,0.052 0.096,0 0.192,-0.024 0.284,-0.052 0.008,-0.004 0.012,-0.004 0.02,-0.004 0.044,0 0.072,0.04 0.048,0.068 l -1.136,1.32 h 0.668 v -0.524 c 0,-0.032 0.004,-0.068 0.032,-0.088 z"
     fill="currentColor"
     id="path116"
     style="stroke-width:0.004" />
  <path
     d="m 5.7366,3.302 c -0.116,0 -0.236,0.032 -0.236,0.132 0,0.088 0.144,0.1 0.144,0.188 0,0.128 -0.104,0.232 -0.232,0.232 -0.128,0 -0.228,-0.104 -0.228,-0.232 0,-0.26 0.268,-0.412 0.552,-0.412 0.364,0 0.676,0.132 0.676,0.456 0,0.172 -0.016,0.328 -0.168,0.4 -0.036,0.016 -0.056,0.048 -0.056,0.084 0,0.036 0.02,0.072 0.056,0.088 0.164,0.076 0.224,0.228 0.224,0.412 0,0.368 -0.316,0.56 -0.716,0.56 -0.316,0 -0.616,-0.168 -0.616,-0.452 0,-0.144 0.12,-0.264 0.264,-0.264 0.144,0 0.26,0.12 0.26,0.264 0,0.1 -0.16,0.112 -0.16,0.212 0,0.108 0.128,0.148 0.252,0.148 0.196,0 0.252,-0.244 0.252,-0.468 V 4.586 c 0,-0.216 -0.008,-0.376 -0.2,-0.376 h -0.32 c -0.04,0 -0.056,-0.032 -0.056,-0.06 0,-0.028 0.016,-0.056 0.056,-0.056 h 0.32 c 0.196,0 0.2,-0.172 0.2,-0.396 V 3.666 c 0,-0.216 -0.072,-0.364 -0.268,-0.364 z"
     fill="currentColor"
     id="path118"
     style="stroke-width:0.004" />
  <rect
     x="8.6047001"
     y="4.8978"
     width="0.13"
     height="3.3122001"
     ry="0.039999999"
     fill="currentColor"
     id="rect120" />
  <path
     d="m 31.4394,5.658 c 0.224,0 0.436,0.116 0.436,0.364 0,0.288 -0.224,0.484 -0.412,0.596 -0.144,0.084 -0.304,0.144 -0.468,0.144 -0.224,0 -0.436,-0.116 -0.436,-0.364 0,-0.288 0.224,-0.484 0.412,-0.596 0.144,-0.084 0.304,-0.144 0.468,-0.144 z"
     fill="currentColor"
     id="path122"
     style="stroke-width:0.004" />
  <rect
     x="31.745501"
     y="2.71"
     width="0.13"
     height="3.3122001"
     ry="0.039999999"
     fill="currentColor"
     id="rect124" />
  <path
     d="m 36.1706,5.658 c 0.224,0 0.436,0.116 0.436,0.364 0,0.288 -0.224,0.484 -0.412,0.596 -0.144,0.084 -0.304,0.144 -0.468,0.144 -0.224,0 -0.436,-0.116 -0.436,-0.364 0,-0.288 0.224,-0.484 0.412,-0.596 0.144,-0.084 0.304,-0.144 0.468,-0.144 z"
     fill="currentColor"
     id="path126"
     style="stroke-width:0.004" />
  <rect
     x="36.4767"
     y="2.71"
     width="0.13"
     height="3.3122001"
     ry="0.039999999"
     fill="currentColor"
     id="rect128" />
  <path
     d="m 42.6476,6.658 c 0.224,0 0.436,0.116 0.436,0.364 0,0.288 -0.224,0.484 -0.412,0.596 -0.144,0.084 -0.304,0.144 -0.468,0.144 -0.224,0 -0.436,-0.116 -0.436,-0.364 0,-0.288 0.224,-0.484 0.412,-0.596 0.144,-0.084 0.304,-0.144 0.468,-0.144 z"
     fill="currentColor"
     id="path130"
     style="stroke-width:0.004" />
  <rect
     x="42.9538"
     y="3.71"
     width="0.13"
     height="3.3122001"
     ry="0.039999999"
     fill="currentColor"
     id="rect132" />
  <rect
     x="27.0144"
     y="2.71"
     width="0.13"
     height="3.3122001"
     ry="0.039999999"
     fill="currentColor"
     id="rect134" />
</svg>
