<?xml version="1.0" encoding="UTF-8" standalone="no"?>
<svg
   version="1.2"
   width="159.20001mm"
   height="17.530457mm"
   viewBox="0 0 90.593601 9.9757978"
   id="svg72"
   xmlns="http://www.w3.org/2000/svg"
   xmlns:svg="http://www.w3.org/2000/svg">
  <defs
     id="defs76" />
  <!-- Page: 1/1 -->
  <text
     font-family="'Century Schoolbook L'"
     font-size="2.2001px"
     text-anchor="start"
     fill="currentColor"
     id="text4"
     y="-1"><tspan
       id="tspan2" /></text>
  <rect
     x="60.799301"
     y="1.776"
     width="0.19"
     height="4"
     ry="0.0000"
     fill="currentColor"
     id="rect6" />
  <rect
     x="60.309299"
     y="1.776"
     width="0.19"
     height="4"
     ry="0.0000"
     fill="currentColor"
     id="rect8" />
  <rect
     x="89.993599"
     y="1.776"
     width="0.60000002"
     height="4"
     ry="0.0000"
     fill="currentColor"
     id="rect10" />
  <rect
     x="89.503601"
     y="1.776"
     width="0.19"
     height="4"
     ry="0.0000"
     fill="currentColor"
     id="rect12" />
  <rect
     x="35.1875"
     y="1.776"
     width="0.19"
     height="4"
     ry="0.0000"
     fill="currentColor"
     id="rect14" />
  <rect
     x="73.221497"
     y="6.6760001"
     width="2.085"
     height="0.2"
     ry="0.1"
     fill="currentColor"
     id="rect16" />
  <line
     stroke-linejoin="round"
     stroke-linecap="round"
     stroke-width="0.1"
     stroke="currentColor"
     x1="0.050000001"
     y1="5.776"
     x2="90.543602"
     y2="5.776"
     id="line18" />
  <line
     stroke-linejoin="round"
     stroke-linecap="round"
     stroke-width="0.1"
     stroke="currentColor"
     x1="0.050000001"
     y1="4.776"
     x2="90.543602"
     y2="4.776"
     id="line20" />
  <line
     stroke-linejoin="round"
     stroke-linecap="round"
     stroke-width="0.1"
     stroke="currentColor"
     x1="0.050000001"
     y1="3.776"
     x2="90.543602"
     y2="3.776"
     id="line22" />
  <line
     stroke-linejoin="round"
     stroke-linecap="round"
     stroke-width="0.1"
     stroke="currentColor"
     x1="0.050000001"
     y1="2.776"
     x2="90.543602"
     y2="2.776"
     id="line24" />
  <line
     stroke-linejoin="round"
     stroke-linecap="round"
     stroke-width="0.1"
     stroke="currentColor"
     x1="0.050000001"
     y1="1.776"
     x2="90.543602"
     y2="1.776"
     id="line26" />
  <rect
     x="64.142799"
     y="2.776"
     width="0.13"
     height="3.2386"
     ry="0.039999999"
     fill="currentColor"
     id="rect28" />
  <path
     d="m 64.1428,6.016 c 0,-0.096 -0.084,-0.164 -0.168,-0.164 -0.016,0 -0.032,0 -0.048,0.004 -0.124,0.036 -0.308,0.16 -0.456,0.256 -0.148,0.096 -0.336,0.212 -0.416,0.312 -0.028,0.032 -0.044,0.072 -0.044,0.112 0,0.096 0.084,0.164 0.168,0.164 0.016,0 0.032,0 0.048,-0.004 0.124,-0.036 0.312,-0.16 0.46,-0.256 0.148,-0.096 0.336,-0.212 0.416,-0.312 0.028,-0.032 0.04,-0.072 0.04,-0.112 z m -0.204,-0.288 c 0.188,0 0.332,0.084 0.332,0.288 0,0.076 -0.016,0.148 -0.04,0.224 -0.048,0.152 -0.128,0.296 -0.26,0.384 -0.216,0.144 -0.452,0.204 -0.752,0.204 -0.188,0 -0.336,-0.088 -0.336,-0.292 0,-0.076 0.02,-0.148 0.044,-0.224 0.048,-0.152 0.124,-0.296 0.256,-0.384 0.216,-0.144 0.456,-0.2 0.756,-0.2 z"
     fill="currentColor"
     id="path30"
     style="stroke-width:0.004" />
  <rect
     x="50.651901"
     y="2.276"
     width="0.13"
     height="3.2386"
     ry="0.039999999"
     fill="currentColor"
     id="rect32" />
  <text
     font-family="'Roboto Light'"
     font-size="2.2001px"
     text-anchor="start"
     fill="currentColor"
     id="text36"
     x="49.391899"
     y="9.5332003"><tspan
       id="tspan34">2. Barra dupla</tspan></text>
  <path
     d="m 50.6519,5.516 c 0,-0.096 -0.084,-0.164 -0.168,-0.164 -0.016,0 -0.032,0 -0.048,0.004 -0.124,0.036 -0.308,0.16 -0.456,0.256 -0.148,0.096 -0.336,0.212 -0.416,0.312 -0.028,0.032 -0.044,0.072 -0.044,0.112 0,0.096 0.084,0.164 0.168,0.164 0.016,0 0.032,0 0.048,-0.004 0.124,-0.036 0.312,-0.16 0.46,-0.256 0.148,-0.096 0.336,-0.212 0.416,-0.312 0.028,-0.032 0.04,-0.072 0.04,-0.112 z m -0.204,-0.288 c 0.188,0 0.332,0.084 0.332,0.288 0,0.076 -0.016,0.148 -0.04,0.224 -0.048,0.152 -0.128,0.296 -0.26,0.384 -0.216,0.144 -0.452,0.204 -0.752,0.204 -0.188,0 -0.336,-0.088 -0.336,-0.292 0,-0.076 0.02,-0.148 0.044,-0.224 0.048,-0.152 0.124,-0.296 0.256,-0.384 0.216,-0.144 0.456,-0.2 0.756,-0.2 z"
     fill="currentColor"
     id="path38"
     style="stroke-width:0.004" />
  <rect
     x="74.828903"
     y="3.276"
     width="0.13"
     height="3.2386"
     ry="0.039999999"
     fill="currentColor"
     id="rect40" />
  <text
     font-family="'Roboto Light'"
     font-size="2.2001px"
     text-anchor="start"
     fill="currentColor"
     id="text44"
     x="73.568901"
     y="9.5332003"><tspan
       id="tspan42">3. Barra final</tspan></text>
  <path
     d="m 74.8289,6.516 c 0,-0.096 -0.084,-0.164 -0.168,-0.164 -0.016,0 -0.032,0 -0.048,0.004 -0.124,0.036 -0.308,0.16 -0.456,0.256 -0.148,0.096 -0.336,0.212 -0.416,0.312 -0.028,0.032 -0.044,0.072 -0.044,0.112 0,0.096 0.084,0.164 0.168,0.164 0.016,0 0.032,0 0.048,-0.004 0.124,-0.036 0.312,-0.16 0.46,-0.256 0.148,-0.096 0.336,-0.212 0.416,-0.312 0.028,-0.032 0.04,-0.072 0.04,-0.112 z m -0.204,-0.288 c 0.188,0 0.332,0.084 0.332,0.288 0,0.076 -0.016,0.148 -0.04,0.224 -0.048,0.152 -0.128,0.296 -0.26,0.384 -0.216,0.144 -0.452,0.204 -0.752,0.204 -0.188,0 -0.336,-0.088 -0.336,-0.292 0,-0.076 0.02,-0.148 0.044,-0.224 0.048,-0.152 0.124,-0.296 0.256,-0.384 0.216,-0.144 0.456,-0.2 0.756,-0.2 z"
     fill="currentColor"
     id="path46"
     style="stroke-width:0.004" />
  <rect
     x="15.2686"
     y="0.77600002"
     width="0.13"
     height="3.2386"
     ry="0.039999999"
     fill="currentColor"
     id="rect48" />
  <text
     font-family="'Roboto Slab Light'"
     font-size="2.2001px"
     text-anchor="start"
     fill="currentColor"
     id="text52"
     y="9.5332003"><tspan
       id="tspan50">Exemplo n.ยบ:</tspan></text>
  <path
     d="m 6.436,3.668 c -0.196,0 -0.3,-0.168 -0.3,-0.3 0,-0.152 0.108,-0.308 0.288,-0.308 0.016,0 0.036,0 0.056,0.004 C 6.368,2.916 6.192,2.828 6,2.828 5.576,2.828 5.548,3.12 5.548,3.572 V 3.776 3.98 c 0,0.452 0.028,0.748 0.452,0.748 0.32,0 0.556,-0.28 0.632,-0.604 C 6.64,4.096 6.66,4.084 6.68,4.084 6.704,4.084 6.732,4.1 6.732,4.132 6.732,4.508 6.312,4.828 6,4.828 5.728,4.828 5.452,4.744 5.264,4.548 5.068,4.344 5,4.06 5,3.776 5,3.492 5.068,3.208 5.264,3.004 5.452,2.808 5.728,2.728 6,2.728 c 0.348,0 0.64,0.256 0.7,0.6 0.004,0.02 0.004,0.036 0.004,0.052 0,0.16 -0.12,0.288 -0.268,0.288 z"
     fill="currentColor"
     id="path54"
     style="stroke-width:0.004" />
  <path
     d="m 2.304,3.728 c 0.016,0 0.036,-0.004 0.052,-0.004 0.62,0 1.024,0.512 1.024,1.044 0,0.304 -0.132,0.616 -0.428,0.84 C 2.864,5.676 2.764,5.72 2.66,5.752 c 0.012,0.14 0.02,0.28 0.02,0.42 0,0.076 -0.004,0.156 -0.008,0.232 -0.028,0.48 -0.36,0.912 -0.832,0.912 -0.432,0 -0.78,-0.352 -0.78,-0.788 0,-0.232 0.212,-0.412 0.448,-0.412 0.216,0 0.38,0.188 0.38,0.412 0,0.208 -0.172,0.38 -0.38,0.38 C 1.464,6.908 1.424,6.9 1.384,6.884 1.488,7.04 1.656,7.144 1.852,7.144 2.236,7.144 2.48,6.776 2.504,6.38 2.508,6.308 2.512,6.232 2.512,6.16 2.512,6.036 2.508,5.916 2.496,5.792 2.38,5.812 2.264,5.824 2.14,5.824 1.388,5.824 0.808,5.136 0.808,4.328 0.808,3.62 1.332,3.104 1.8,2.564 1.724,2.316 1.652,2.064 1.62,1.804 1.596,1.596 1.592,1.388 1.592,1.18 1.592,0.72 1.812,0.284 2.188,0.012 2.2,0.004 2.216,0 2.228,0 2.244,0 2.256,0 2.268,0.012 2.552,0.348 2.8,0.992 2.8,1.444 2.8,2.016 2.456,2.464 2.08,2.9 2.164,3.172 2.236,3.452 2.304,3.728 Z m 0.34,1.86 C 2.916,5.492 3.096,5.208 3.096,4.932 3.096,4.572 2.832,4.216 2.404,4.172 2.5,4.636 2.588,5.096 2.644,5.588 Z M 1.096,4.664 c 0,0.54 0.516,0.988 1.056,0.988 0.112,0 0.22,-0.008 0.328,-0.024 C 2.424,5.12 2.332,4.648 2.228,4.172 1.912,4.204 1.732,4.416 1.732,4.648 c 0,0.176 0.1,0.364 0.324,0.492 0.02,0.02 0.028,0.04 0.028,0.06 0,0.044 -0.04,0.088 -0.088,0.088 C 1.984,5.288 1.972,5.284 1.96,5.28 1.64,5.108 1.492,4.82 1.492,4.54 1.492,4.188 1.724,3.844 2.132,3.752 2.076,3.52 2.016,3.284 1.948,3.052 1.52,3.536 1.096,4.024 1.096,4.664 Z M 2.432,0.596 C 2.036,0.788 1.784,1.192 1.784,1.632 c 0,0.296 0.072,0.532 0.144,0.776 0.32,-0.388 0.584,-0.792 0.584,-1.296 0,-0.22 -0.016,-0.316 -0.08,-0.516 z"
     fill="currentColor"
     id="path56"
     style="stroke-width:0.004" />
  <path
     d="m 15.2686,4.016 c 0,-0.096 -0.084,-0.164 -0.168,-0.164 -0.016,0 -0.032,0 -0.048,0.004 -0.124,0.036 -0.308,0.16 -0.456,0.256 -0.148,0.096 -0.336,0.212 -0.416,0.312 -0.028,0.032 -0.044,0.072 -0.044,0.112 0,0.096 0.084,0.164 0.168,0.164 0.016,0 0.032,0 0.048,-0.004 0.124,-0.036 0.312,-0.16 0.46,-0.256 0.148,-0.096 0.336,-0.212 0.416,-0.312 0.028,-0.032 0.04,-0.072 0.04,-0.112 z m -0.204,-0.288 c 0.188,0 0.332,0.084 0.332,0.288 0,0.076 -0.016,0.148 -0.04,0.224 -0.048,0.152 -0.128,0.296 -0.26,0.384 -0.216,0.144 -0.452,0.204 -0.752,0.204 -0.188,0 -0.336,-0.088 -0.336,-0.292 0,-0.076 0.02,-0.148 0.044,-0.224 0.048,-0.152 0.124,-0.296 0.256,-0.384 0.216,-0.144 0.456,-0.2 0.756,-0.2 z"
     fill="currentColor"
     id="path58"
     style="stroke-width:0.004" />
  <rect
     x="38.723801"
     y="1.776"
     width="0.13"
     height="3.2386"
     ry="0.039999999"
     fill="currentColor"
     id="rect60" />
  <path
     d="m 38.7238,5.016 c 0,-0.096 -0.084,-0.164 -0.168,-0.164 -0.016,0 -0.032,0 -0.048,0.004 -0.124,0.036 -0.308,0.16 -0.456,0.256 -0.148,0.096 -0.336,0.212 -0.416,0.312 -0.028,0.032 -0.044,0.072 -0.044,0.112 0,0.096 0.084,0.164 0.168,0.164 0.016,0 0.032,0 0.048,-0.004 0.124,-0.036 0.312,-0.16 0.46,-0.256 0.148,-0.096 0.336,-0.212 0.416,-0.312 0.028,-0.032 0.04,-0.072 0.04,-0.112 z m -0.204,-0.288 c 0.188,0 0.332,0.084 0.332,0.288 0,0.076 -0.016,0.148 -0.04,0.224 -0.048,0.152 -0.128,0.296 -0.26,0.384 -0.216,0.144 -0.452,0.204 -0.752,0.204 -0.188,0 -0.336,-0.088 -0.336,-0.292 0,-0.076 0.02,-0.148 0.044,-0.224 0.048,-0.152 0.124,-0.296 0.256,-0.384 0.216,-0.144 0.456,-0.2 0.756,-0.2 z"
     fill="currentColor"
     id="path62"
     style="stroke-width:0.004" />
  <rect
     x="24.323799"
     y="1.276"
     width="0.13"
     height="3.2386"
     ry="0.039999999"
     fill="currentColor"
     id="rect64" />
  <text
     font-family="'Roboto Light'"
     font-size="2.2001px"
     text-anchor="start"
     fill="currentColor"
     id="text68"
     x="23.063801"
     y="9.5332003"><tspan
       id="tspan66">1. Barra simples</tspan></text>
  <path
     d="m 24.3238,4.516 c 0,-0.096 -0.084,-0.164 -0.168,-0.164 -0.016,0 -0.032,0 -0.048,0.004 -0.124,0.036 -0.308,0.16 -0.456,0.256 -0.148,0.096 -0.336,0.212 -0.416,0.312 -0.028,0.032 -0.044,0.072 -0.044,0.112 0,0.096 0.084,0.164 0.168,0.164 0.016,0 0.032,0 0.048,-0.004 0.124,-0.036 0.312,-0.16 0.46,-0.256 0.148,-0.096 0.336,-0.212 0.416,-0.312 0.028,-0.032 0.04,-0.072 0.04,-0.112 z m -0.204,-0.288 c 0.188,0 0.332,0.084 0.332,0.288 0,0.076 -0.016,0.148 -0.04,0.224 -0.048,0.152 -0.128,0.296 -0.26,0.384 -0.216,0.144 -0.452,0.204 -0.752,0.204 -0.188,0 -0.336,-0.088 -0.336,-0.292 0,-0.076 0.02,-0.148 0.044,-0.224 0.048,-0.152 0.124,-0.296 0.256,-0.384 0.216,-0.144 0.456,-0.2 0.756,-0.2 z"
     fill="currentColor"
     id="path70"
     style="stroke-width:0.004" />
</svg>
