<?xml version="1.0" encoding="UTF-8" standalone="no"?>
<svg
   version="1.2"
   width="161.32986mm"
   height="34.94173mm"
   viewBox="0 0 91.805604 19.883774"
   id="svg230"
   xmlns="http://www.w3.org/2000/svg"
   xmlns:svg="http://www.w3.org/2000/svg">
  <defs
     id="defs234" />
  <!-- Page: 1/1 -->
  <text
     font-family="'Century Schoolbook L'"
     font-size="2.2001px"
     text-anchor="start"
     fill="currentColor"
     id="text4"
     x="1.212"
     y="-0.94082761"><tspan
       id="tspan2" /></text>
  <rect
     x="38.726101"
     y="7.4004726"
     width="0.19"
     height="4.9499998"
     ry="0.0000"
     fill="currentColor"
     id="rect6" />
  <rect
     x="18.106899"
     y="7.4004726"
     width="0.19"
     height="4.9499998"
     ry="0.0000"
     fill="currentColor"
     id="rect8" />
  <rect
     x="91.205597"
     y="3.3504725"
     width="0.60000002"
     height="4.0500002"
     ry="0.0000"
     fill="currentColor"
     id="rect10" />
  <rect
     x="90.715599"
     y="3.3504725"
     width="0.19"
     height="4.0500002"
     ry="0.0000"
     fill="currentColor"
     id="rect12" />
  <rect
     x="38.726101"
     y="12.300472"
     width="0.19"
     height="4.0500002"
     ry="0.0000"
     fill="currentColor"
     id="rect14" />
  <rect
     x="48.790798"
     y="7.4004726"
     width="0.60000002"
     height="4.9499998"
     ry="0.0000"
     fill="currentColor"
     id="rect16" />
  <rect
     x="70.193398"
     y="12.300472"
     width="0.19"
     height="4.0500002"
     ry="0.0000"
     fill="currentColor"
     id="rect18" />
  <rect
     x="69.7034"
     y="12.300472"
     width="0.19"
     height="4.0500002"
     ry="0.0000"
     fill="currentColor"
     id="rect20" />
  <rect
     x="18.106899"
     y="12.300472"
     width="0.19"
     height="4.0500002"
     ry="0.0000"
     fill="currentColor"
     id="rect22" />
  <rect
     x="59.442402"
     y="7.4004726"
     width="0.19"
     height="4.9499998"
     ry="0.0000"
     fill="currentColor"
     id="rect24" />
  <rect
     x="80.454498"
     y="7.4004726"
     width="0.19"
     height="4.9499998"
     ry="0.0000"
     fill="currentColor"
     id="rect26" />
  <rect
     x="70.193398"
     y="7.4004726"
     width="0.19"
     height="4.9499998"
     ry="0.0000"
     fill="currentColor"
     id="rect28" />
  <rect
     x="69.7034"
     y="7.4004726"
     width="0.19"
     height="4.9499998"
     ry="0.0000"
     fill="currentColor"
     id="rect30" />
  <rect
     x="38.726101"
     y="3.3504725"
     width="0.19"
     height="4.0500002"
     ry="0.0000"
     fill="currentColor"
     id="rect32" />
  <rect
     x="80.454498"
     y="12.300472"
     width="0.19"
     height="4.0500002"
     ry="0.0000"
     fill="currentColor"
     id="rect34" />
  <rect
     x="28.661501"
     y="12.300472"
     width="0.19"
     height="4.0500002"
     ry="0.0000"
     fill="currentColor"
     id="rect36" />
  <rect
     x="28.171499"
     y="12.300472"
     width="0.19"
     height="4.0500002"
     ry="0.0000"
     fill="currentColor"
     id="rect38" />
  <rect
     x="59.442402"
     y="12.300472"
     width="0.19"
     height="4.0500002"
     ry="0.0000"
     fill="currentColor"
     id="rect40" />
  <rect
     x="18.106899"
     y="3.3504725"
     width="0.19"
     height="4.0500002"
     ry="0.0000"
     fill="currentColor"
     id="rect42" />
  <rect
     x="28.661501"
     y="7.4004726"
     width="0.19"
     height="4.9499998"
     ry="0.0000"
     fill="currentColor"
     id="rect44" />
  <rect
     x="28.171499"
     y="7.4004726"
     width="0.19"
     height="4.9499998"
     ry="0.0000"
     fill="currentColor"
     id="rect46" />
  <rect
     x="80.454498"
     y="3.3504725"
     width="0.19"
     height="4.0500002"
     ry="0.0000"
     fill="currentColor"
     id="rect48" />
  <rect
     x="59.442402"
     y="3.3504725"
     width="0.19"
     height="4.0500002"
     ry="0.0000"
     fill="currentColor"
     id="rect50" />
  <line
     stroke-linejoin="round"
     stroke-linecap="round"
     stroke-width="0.1"
     stroke="currentColor"
     x1="1.262"
     y1="7.3504725"
     x2="91.7556"
     y2="7.3504725"
     id="line52" />
  <line
     stroke-linejoin="round"
     stroke-linecap="round"
     stroke-width="0.1"
     stroke="currentColor"
     x1="1.262"
     y1="6.3504725"
     x2="91.7556"
     y2="6.3504725"
     id="line54" />
  <line
     stroke-linejoin="round"
     stroke-linecap="round"
     stroke-width="0.1"
     stroke="currentColor"
     x1="1.262"
     y1="5.3504725"
     x2="91.7556"
     y2="5.3504725"
     id="line56" />
  <line
     stroke-linejoin="round"
     stroke-linecap="round"
     stroke-width="0.1"
     stroke="currentColor"
     x1="1.262"
     y1="4.3504725"
     x2="91.7556"
     y2="4.3504725"
     id="line58" />
  <line
     stroke-linejoin="round"
     stroke-linecap="round"
     stroke-width="0.1"
     stroke="currentColor"
     x1="1.262"
     y1="3.3504725"
     x2="91.7556"
     y2="3.3504725"
     id="line60" />
  <rect
     x="9.8249998"
     y="11.250472"
     width="2.97"
     height="0.2"
     ry="0.1"
     fill="currentColor"
     id="rect62" />
  <rect
     x="19.889601"
     y="11.250472"
     width="2.97"
     height="0.2"
     ry="0.1"
     fill="currentColor"
     id="rect64" />
  <rect
     x="19.889601"
     y="10.250472"
     width="2.97"
     height="0.2"
     ry="0.1"
     fill="currentColor"
     id="rect66" />
  <rect
     x="61.244503"
     y="11.250472"
     width="2.97"
     height="0.2"
     ry="0.1"
     fill="currentColor"
     id="rect68" />
  <rect
     x="82.256599"
     y="11.250472"
     width="2.97"
     height="0.2"
     ry="0.1"
     fill="currentColor"
     id="rect70" />
  <line
     stroke-linejoin="round"
     stroke-linecap="round"
     stroke-width="0.1"
     stroke="currentColor"
     x1="1.262"
     y1="16.350471"
     x2="91.7556"
     y2="16.350471"
     id="line72" />
  <line
     stroke-linejoin="round"
     stroke-linecap="round"
     stroke-width="0.1"
     stroke="currentColor"
     x1="1.262"
     y1="15.350472"
     x2="91.7556"
     y2="15.350472"
     id="line74" />
  <line
     stroke-linejoin="round"
     stroke-linecap="round"
     stroke-width="0.1"
     stroke="currentColor"
     x1="1.262"
     y1="14.350472"
     x2="91.7556"
     y2="14.350472"
     id="line76" />
  <line
     stroke-linejoin="round"
     stroke-linecap="round"
     stroke-width="0.1"
     stroke="currentColor"
     x1="1.262"
     y1="13.350472"
     x2="91.7556"
     y2="13.350472"
     id="line78" />
  <line
     stroke-linejoin="round"
     stroke-linecap="round"
     stroke-width="0.1"
     stroke="currentColor"
     x1="1.262"
     y1="12.350472"
     x2="91.7556"
     y2="12.350472"
     id="line80" />
  <rect
     x="48.790798"
     y="3.3504725"
     width="0.60000002"
     height="4.0500002"
     ry="0.0000"
     fill="currentColor"
     id="rect82" />
  <rect
     x="70.193398"
     y="3.3504725"
     width="0.19"
     height="4.0500002"
     ry="0.0000"
     fill="currentColor"
     id="rect84" />
  <rect
     x="69.7034"
     y="3.3504725"
     width="0.19"
     height="4.0500002"
     ry="0.0000"
     fill="currentColor"
     id="rect86" />
  <rect
     x="28.661501"
     y="3.3504725"
     width="0.19"
     height="4.0500002"
     ry="0.0000"
     fill="currentColor"
     id="rect88" />
  <rect
     x="28.171499"
     y="3.3504725"
     width="0.19"
     height="4.0500002"
     ry="0.0000"
     fill="currentColor"
     id="rect90" />
  <rect
     x="91.205597"
     y="12.300472"
     width="0.60000002"
     height="4.0500002"
     ry="0.0000"
     fill="currentColor"
     id="rect92" />
  <rect
     x="90.715599"
     y="12.300472"
     width="0.19"
     height="4.0500002"
     ry="0.0000"
     fill="currentColor"
     id="rect94" />
  <rect
     x="48.790798"
     y="12.300472"
     width="0.60000002"
     height="4.0500002"
     ry="0.0000"
     fill="currentColor"
     id="rect96" />
  <rect
     x="91.205597"
     y="7.4004726"
     width="0.60000002"
     height="4.9499998"
     ry="0.0000"
     fill="currentColor"
     id="rect98" />
  <rect
     x="90.715599"
     y="7.4004726"
     width="0.19"
     height="4.9499998"
     ry="0.0000"
     fill="currentColor"
     id="rect100" />
  <text
     font-family="'Roboto Light'"
     font-size="2.2001px"
     text-anchor="start"
     fill="currentColor"
     id="text104"
     x="72.200203"
     y="19.850471"><tspan
       id="tspan102">V</tspan></text>
  <text
     font-family="'Roboto Light'"
     font-size="1.5555px"
     text-anchor="start"
     fill="currentColor"
     id="text108"
     x="73.7659"
     y="19.065172"><tspan
       id="tspan106">7</tspan></text>
  <path
     d="m 73.3505,11.402472 c -0.2,0 -0.276,0.172 -0.276,0.352 0,0.308 0.228,0.544 0.536,0.544 0.2,0 0.276,-0.172 0.276,-0.352 0,-0.308 -0.228,-0.544 -0.536,-0.544 z m 1.12,0.448 c 0,0.172 -0.14,0.304 -0.292,0.388 -0.212,0.12 -0.452,0.164 -0.696,0.164 -0.244,0 -0.488,-0.044 -0.7,-0.164 -0.152,-0.084 -0.292,-0.216 -0.292,-0.388 0,-0.172 0.14,-0.304 0.292,-0.388 0.212,-0.12 0.456,-0.164 0.7,-0.164 0.244,0 0.484,0.044 0.696,0.164 0.152,0.084 0.292,0.216 0.292,0.388 z"
     fill="currentColor"
     id="path110"
     style="stroke-width:0.004" />
  <path
     d="m 73.3505,12.402472 c -0.2,0 -0.276,0.172 -0.276,0.352 0,0.308 0.228,0.544 0.536,0.544 0.2,0 0.276,-0.172 0.276,-0.352 0,-0.308 -0.228,-0.544 -0.536,-0.544 z m 1.12,0.448 c 0,0.172 -0.14,0.304 -0.292,0.388 -0.212,0.12 -0.452,0.164 -0.696,0.164 -0.244,0 -0.488,-0.044 -0.7,-0.164 -0.152,-0.084 -0.292,-0.216 -0.292,-0.388 0,-0.172 0.14,-0.304 0.292,-0.388 0.212,-0.12 0.456,-0.164 0.7,-0.164 0.244,0 0.484,0.044 0.696,0.164 0.152,0.084 0.292,0.216 0.292,0.388 z"
     fill="currentColor"
     id="path112"
     style="stroke-width:0.004" />
  <path
     d="m 73.3505,2.9024724 c -0.2,0 -0.276,0.172 -0.276,0.352 0,0.308 0.228,0.544 0.536,0.544 0.2,0 0.276,-0.172 0.276,-0.352 0,-0.308 -0.228,-0.544 -0.536,-0.544 z m 1.12,0.448 c 0,0.172 -0.14,0.304 -0.292,0.388 -0.212,0.12 -0.452,0.164 -0.696,0.164 -0.244,0 -0.488,-0.044 -0.7,-0.164 -0.152,-0.084 -0.292,-0.216 -0.292,-0.388 0,-0.172 0.14,-0.304 0.292,-0.388 0.212,-0.12 0.456,-0.164 0.7,-0.164 0.244,0 0.484,0.044 0.696,0.164 0.152,0.084 0.292,0.216 0.292,0.388 z"
     fill="currentColor"
     id="path114"
     style="stroke-width:0.004" />
  <path
     d="m 73.3505,5.9024724 c -0.2,0 -0.276,0.172 -0.276,0.352 0,0.308 0.228,0.544 0.536,0.544 0.2,0 0.276,-0.172 0.276,-0.352 0,-0.308 -0.228,-0.544 -0.536,-0.544 z m 1.12,0.448 c 0,0.172 -0.14,0.304 -0.292,0.388 -0.212,0.12 -0.452,0.164 -0.696,0.164 -0.244,0 -0.488,-0.044 -0.7,-0.164 -0.152,-0.084 -0.292,-0.216 -0.292,-0.388 0,-0.172 0.14,-0.304 0.292,-0.388 0.212,-0.12 0.456,-0.164 0.7,-0.164 0.244,0 0.484,0.044 0.696,0.164 0.152,0.084 0.292,0.216 0.292,0.388 z"
     fill="currentColor"
     id="path116"
     style="stroke-width:0.004" />
  <path
     d="m 62.5995,5.9024724 c -0.2,0 -0.276,0.172 -0.276,0.352 0,0.308 0.228,0.544 0.536,0.544 0.2,0 0.276,-0.172 0.276,-0.352 0,-0.308 -0.228,-0.544 -0.536,-0.544 z m 1.12,0.448 c 0,0.172 -0.14,0.304 -0.292,0.388 -0.212,0.12 -0.452,0.164 -0.696,0.164 -0.244,0 -0.488,-0.044 -0.7,-0.164 -0.152,-0.084 -0.292,-0.216 -0.292,-0.388 0,-0.172 0.14,-0.304 0.292,-0.388 0.212,-0.12 0.456,-0.164 0.7,-0.164 0.244,0 0.484,0.044 0.696,0.164 0.152,0.084 0.292,0.216 0.292,0.388 z"
     fill="currentColor"
     id="path118"
     style="stroke-width:0.004" />
  <path
     d="m 62.5995,3.4024724 c -0.2,0 -0.276,0.172 -0.276,0.352 0,0.308 0.228,0.544 0.536,0.544 0.2,0 0.276,-0.172 0.276,-0.352 0,-0.308 -0.228,-0.544 -0.536,-0.544 z m 1.12,0.448 c 0,0.172 -0.14,0.304 -0.292,0.388 -0.212,0.12 -0.452,0.164 -0.696,0.164 -0.244,0 -0.488,-0.044 -0.7,-0.164 -0.152,-0.084 -0.292,-0.216 -0.292,-0.388 0,-0.172 0.14,-0.304 0.292,-0.388 0.212,-0.12 0.456,-0.164 0.7,-0.164 0.244,0 0.484,0.044 0.696,0.164 0.152,0.084 0.292,0.216 0.292,0.388 z"
     fill="currentColor"
     id="path120"
     style="stroke-width:0.004" />
  <path
     d="m 62.5995,14.402472 c -0.2,0 -0.276,0.172 -0.276,0.352 0,0.308 0.228,0.544 0.536,0.544 0.2,0 0.276,-0.172 0.276,-0.352 0,-0.308 -0.228,-0.544 -0.536,-0.544 z m 1.12,0.448 c 0,0.172 -0.14,0.304 -0.292,0.388 -0.212,0.12 -0.452,0.164 -0.696,0.164 -0.244,0 -0.488,-0.044 -0.7,-0.164 -0.152,-0.084 -0.292,-0.216 -0.292,-0.388 0,-0.172 0.14,-0.304 0.292,-0.388 0.212,-0.12 0.456,-0.164 0.7,-0.164 0.244,0 0.484,0.044 0.696,0.164 0.152,0.084 0.292,0.216 0.292,0.388 z"
     fill="currentColor"
     id="path122"
     style="stroke-width:0.004" />
  <path
     d="m 62.5995,10.902472 c -0.2,0 -0.276,0.172 -0.276,0.352 0,0.308 0.228,0.544 0.536,0.544 0.2,0 0.276,-0.172 0.276,-0.352 0,-0.308 -0.228,-0.544 -0.536,-0.544 z m 1.12,0.448 c 0,0.172 -0.14,0.304 -0.292,0.388 -0.212,0.12 -0.452,0.164 -0.696,0.164 -0.244,0 -0.488,-0.044 -0.7,-0.164 -0.152,-0.084 -0.292,-0.216 -0.292,-0.388 0,-0.172 0.14,-0.304 0.292,-0.388 0.212,-0.12 0.456,-0.164 0.7,-0.164 0.244,0 0.484,0.044 0.696,0.164 0.152,0.084 0.292,0.216 0.292,0.388 z"
     fill="currentColor"
     id="path124"
     style="stroke-width:0.004" />
  <text
     font-family="'Roboto Light'"
     font-size="2.2001px"
     text-anchor="start"
     fill="currentColor"
     id="text128"
     x="62.439301"
     y="19.850471"><tspan
       id="tspan126">I</tspan></text>
  <path
     d="m 83.6116,5.9024724 c -0.2,0 -0.276,0.172 -0.276,0.352 0,0.308 0.228,0.544 0.536,0.544 0.2,0 0.276,-0.172 0.276,-0.352 0,-0.308 -0.228,-0.544 -0.536,-0.544 z m 1.12,0.448 c 0,0.172 -0.14,0.304 -0.292,0.388 -0.212,0.12 -0.452,0.164 -0.696,0.164 -0.244,0 -0.488,-0.044 -0.7,-0.164 -0.152,-0.084 -0.292,-0.216 -0.292,-0.388 0,-0.172 0.14,-0.304 0.292,-0.388 0.212,-0.12 0.456,-0.164 0.7,-0.164 0.244,0 0.484,0.044 0.696,0.164 0.152,0.084 0.292,0.216 0.292,0.388 z"
     fill="currentColor"
     id="path130"
     style="stroke-width:0.004" />
  <path
     d="m 83.6116,3.4024724 c -0.2,0 -0.276,0.172 -0.276,0.352 0,0.308 0.228,0.544 0.536,0.544 0.2,0 0.276,-0.172 0.276,-0.352 0,-0.308 -0.228,-0.544 -0.536,-0.544 z m 1.12,0.448 c 0,0.172 -0.14,0.304 -0.292,0.388 -0.212,0.12 -0.452,0.164 -0.696,0.164 -0.244,0 -0.488,-0.044 -0.7,-0.164 -0.152,-0.084 -0.292,-0.216 -0.292,-0.388 0,-0.172 0.14,-0.304 0.292,-0.388 0.212,-0.12 0.456,-0.164 0.7,-0.164 0.244,0 0.484,0.044 0.696,0.164 0.152,0.084 0.292,0.216 0.292,0.388 z"
     fill="currentColor"
     id="path132"
     style="stroke-width:0.004" />
  <path
     d="m 83.6116,14.402472 c -0.2,0 -0.276,0.172 -0.276,0.352 0,0.308 0.228,0.544 0.536,0.544 0.2,0 0.276,-0.172 0.276,-0.352 0,-0.308 -0.228,-0.544 -0.536,-0.544 z m 1.12,0.448 c 0,0.172 -0.14,0.304 -0.292,0.388 -0.212,0.12 -0.452,0.164 -0.696,0.164 -0.244,0 -0.488,-0.044 -0.7,-0.164 -0.152,-0.084 -0.292,-0.216 -0.292,-0.388 0,-0.172 0.14,-0.304 0.292,-0.388 0.212,-0.12 0.456,-0.164 0.7,-0.164 0.244,0 0.484,0.044 0.696,0.164 0.152,0.084 0.292,0.216 0.292,0.388 z"
     fill="currentColor"
     id="path134"
     style="stroke-width:0.004" />
  <path
     d="m 83.6116,10.902472 c -0.2,0 -0.276,0.172 -0.276,0.352 0,0.308 0.228,0.544 0.536,0.544 0.2,0 0.276,-0.172 0.276,-0.352 0,-0.308 -0.228,-0.544 -0.536,-0.544 z m 1.12,0.448 c 0,0.172 -0.14,0.304 -0.292,0.388 -0.212,0.12 -0.452,0.164 -0.696,0.164 -0.244,0 -0.488,-0.044 -0.7,-0.164 -0.152,-0.084 -0.292,-0.216 -0.292,-0.388 0,-0.172 0.14,-0.304 0.292,-0.388 0.212,-0.12 0.456,-0.164 0.7,-0.164 0.244,0 0.484,0.044 0.696,0.164 0.152,0.084 0.292,0.216 0.292,0.388 z"
     fill="currentColor"
     id="path136"
     style="stroke-width:0.004" />
  <text
     font-family="'Roboto Light'"
     font-size="2.2001px"
     text-anchor="start"
     fill="currentColor"
     id="text140"
     x="83.451401"
     y="19.850471"><tspan
       id="tspan138">I</tspan></text>
  <path
     d="m 21.2446,5.9024724 c -0.2,0 -0.276,0.172 -0.276,0.352 0,0.308 0.228,0.544 0.536,0.544 0.2,0 0.276,-0.172 0.276,-0.352 0,-0.308 -0.228,-0.544 -0.536,-0.544 z m 1.12,0.448 c 0,0.172 -0.14,0.304 -0.292,0.388 -0.212,0.12 -0.452,0.164 -0.696,0.164 -0.244,0 -0.488,-0.044 -0.7,-0.164 -0.152,-0.084 -0.292,-0.216 -0.292,-0.388 0,-0.172 0.14,-0.304 0.292,-0.388 0.212,-0.12 0.456,-0.164 0.7,-0.164 0.244,0 0.484,0.044 0.696,0.164 0.152,0.084 0.292,0.216 0.292,0.388 z"
     fill="currentColor"
     id="path142"
     style="stroke-width:0.004" />
  <path
     d="m 21.2446,4.4024724 c -0.2,0 -0.276,0.172 -0.276,0.352 0,0.308 0.228,0.544 0.536,0.544 0.2,0 0.276,-0.172 0.276,-0.352 0,-0.308 -0.228,-0.544 -0.536,-0.544 z m 1.12,0.448 c 0,0.172 -0.14,0.304 -0.292,0.388 -0.212,0.12 -0.452,0.164 -0.696,0.164 -0.244,0 -0.488,-0.044 -0.7,-0.164 -0.152,-0.084 -0.292,-0.216 -0.292,-0.388 0,-0.172 0.14,-0.304 0.292,-0.388 0.212,-0.12 0.456,-0.164 0.7,-0.164 0.244,0 0.484,0.044 0.696,0.164 0.152,0.084 0.292,0.216 0.292,0.388 z"
     fill="currentColor"
     id="path144"
     style="stroke-width:0.004" />
  <path
     d="m 21.2446,14.402472 c -0.2,0 -0.276,0.172 -0.276,0.352 0,0.308 0.228,0.544 0.536,0.544 0.2,0 0.276,-0.172 0.276,-0.352 0,-0.308 -0.228,-0.544 -0.536,-0.544 z m 1.12,0.448 c 0,0.172 -0.14,0.304 -0.292,0.388 -0.212,0.12 -0.452,0.164 -0.696,0.164 -0.244,0 -0.488,-0.044 -0.7,-0.164 -0.152,-0.084 -0.292,-0.216 -0.292,-0.388 0,-0.172 0.14,-0.304 0.292,-0.388 0.212,-0.12 0.456,-0.164 0.7,-0.164 0.244,0 0.484,0.044 0.696,0.164 0.152,0.084 0.292,0.216 0.292,0.388 z"
     fill="currentColor"
     id="path146"
     style="stroke-width:0.004" />
  <path
     d="m 21.2446,9.9024724 c -0.2,0 -0.276,0.1719996 -0.276,0.3519996 0,0.308 0.228,0.544 0.536,0.544 0.2,0 0.276,-0.172 0.276,-0.352 0,-0.308 -0.228,-0.5439996 -0.536,-0.5439996 z m 1.12,0.4479996 c 0,0.172 -0.14,0.304 -0.292,0.388 -0.212,0.12 -0.452,0.164 -0.696,0.164 -0.244,0 -0.488,-0.044 -0.7,-0.164 -0.152,-0.084 -0.292,-0.216 -0.292,-0.388 0,-0.172 0.14,-0.304 0.292,-0.3879996 0.212,-0.12 0.456,-0.164 0.7,-0.164 0.244,0 0.484,0.044 0.696,0.164 0.152,0.084 0.292,0.2159996 0.292,0.3879996 z"
     fill="currentColor"
     id="path148"
     style="stroke-width:0.004" />
  <text
     font-family="'Roboto Light'"
     font-size="2.2001px"
     text-anchor="start"
     fill="currentColor"
     id="text152"
     x="21.0844"
     y="19.850471"><tspan
       id="tspan150">I</tspan></text>
  <path
     d="m 31.7992,6.4024724 c -0.2,0 -0.276,0.172 -0.276,0.352 0,0.308 0.228,0.544 0.536,0.544 0.2,0 0.276,-0.172 0.276,-0.352 0,-0.308 -0.228,-0.544 -0.536,-0.544 z m 1.12,0.448 c 0,0.172 -0.14,0.304 -0.292,0.388 -0.212,0.12 -0.452,0.164 -0.696,0.164 -0.244,0 -0.488,-0.044 -0.7,-0.164 -0.152,-0.084 -0.292,-0.216 -0.292,-0.388 0,-0.172 0.14,-0.304 0.292,-0.388 0.212,-0.12 0.456,-0.164 0.7,-0.164 0.244,0 0.484,0.044 0.696,0.164 0.152,0.084 0.292,0.216 0.292,0.388 z"
     fill="currentColor"
     id="path154"
     style="stroke-width:0.004" />
  <path
     d="m 0.792,11.842472 c 0,1.044 -0.408,2.064 -0.408,3.06 0,0.54 0.12,1.044 0.516,1.44 0.012,0.012 0.012,0.036 0.012,0.048 0,0.036 -0.024,0.072 -0.06,0.072 -0.012,0 -0.036,-0.012 -0.048,-0.024 -0.528,-0.54 -0.708,-1.248 -0.708,-2.004 0,-1.068 0.432,-2.112 0.432,-3.12 0,-0.54 -0.132,-1.044 -0.516,-1.4399996 C 0,9.8624724 0,9.8624724 0,9.8504724 c 0,-0.012 0,-0.012 0.012,-0.024 0.384,-0.396 0.516,-0.9 0.516,-1.44 0,-1.008 -0.432,-2.052 -0.432,-3.12 0,-0.756 0.18,-1.464 0.708,-2.004 0.012,-0.012 0.036,-0.024 0.048,-0.024 0.036,0 0.06,0.036 0.06,0.072 0,0.012 0,0.036 -0.012,0.048 -0.396,0.396 -0.516,0.9 -0.516,1.44 0,0.996 0.408,2.016 0.408,3.06 0,0.744 -0.18,1.452 -0.696,1.992 0.516,0.5399996 0.696,1.2479996 0.696,1.9919996 z"
     fill="currentColor"
     id="path156"
     style="stroke-width:0.004" />
  <rect
     x="1.152"
     y="3.3004723"
     width="0.16"
     height="13.1"
     ry="0.050000001"
     fill="currentColor"
     id="rect158" />
  <path
     d="m 11.18,5.9024724 c -0.2,0 -0.276,0.172 -0.276,0.352 0,0.308 0.228,0.544 0.536,0.544 0.2,0 0.276,-0.172 0.276,-0.352 0,-0.308 -0.228,-0.544 -0.536,-0.544 z m 1.12,0.448 c 0,0.172 -0.14,0.304 -0.292,0.388 -0.212,0.12 -0.452,0.164 -0.696,0.164 -0.244,0 -0.488,-0.044 -0.7,-0.164 -0.152,-0.084 -0.292,-0.216 -0.292,-0.388 0,-0.172 0.14,-0.304 0.292,-0.388 0.212,-0.12 0.456,-0.164 0.7,-0.164 0.244,0 0.484,0.044 0.696,0.164 0.152,0.084 0.292,0.216 0.292,0.388 z"
     fill="currentColor"
     id="path160"
     style="stroke-width:0.004" />
  <path
     d="m 11.18,4.9024724 c -0.2,0 -0.276,0.172 -0.276,0.352 0,0.308 0.228,0.544 0.536,0.544 0.2,0 0.276,-0.172 0.276,-0.352 0,-0.308 -0.228,-0.544 -0.536,-0.544 z m 1.12,0.448 c 0,0.172 -0.14,0.304 -0.292,0.388 -0.212,0.12 -0.452,0.164 -0.696,0.164 -0.244,0 -0.488,-0.044 -0.7,-0.164 -0.152,-0.084 -0.292,-0.216 -0.292,-0.388 0,-0.172 0.14,-0.304 0.292,-0.388 0.212,-0.12 0.456,-0.164 0.7,-0.164 0.244,0 0.484,0.044 0.696,0.164 0.152,0.084 0.292,0.216 0.292,0.388 z"
     fill="currentColor"
     id="path162"
     style="stroke-width:0.004" />
  <text
     font-family="'Roboto Slab Light'"
     font-size="2.2001px"
     text-anchor="start"
     fill="currentColor"
     id="text166"
     x="8.3199997"
     y="1.8004724"><tspan
       id="tspan164">Cadências autênticas perfeitas:</tspan></text>
  <path
     d="m 3.516,5.3024724 c 0.016,0 0.036,-0.004 0.052,-0.004 0.62,0 1.024,0.512 1.024,1.044 0,0.304 -0.132,0.616 -0.428,0.84 -0.088,0.068 -0.188,0.112 -0.292,0.144 0.012,0.14 0.02,0.28 0.02,0.42 0,0.076 -0.004,0.156 -0.008,0.232 -0.028,0.48 -0.36,0.912 -0.832,0.912 -0.432,0 -0.78,-0.352 -0.78,-0.788 0,-0.232 0.212,-0.412 0.448,-0.412 0.216,0 0.38,0.188 0.38,0.412 0,0.208 -0.172,0.38 -0.38,0.38 -0.044,0 -0.084,-0.008 -0.124,-0.024 0.104,0.156 0.272,0.26 0.468,0.26 0.384,0 0.628,-0.368 0.652,-0.764 0.004,-0.072 0.008,-0.148 0.008,-0.22 0,-0.124 -0.004,-0.244 -0.016,-0.368 -0.116,0.02 -0.232,0.032 -0.356,0.032 -0.752,0 -1.332,-0.688 -1.332,-1.496 0,-0.708 0.524,-1.224 0.992,-1.764 -0.076,-0.248 -0.148,-0.5 -0.18,-0.76 -0.024,-0.208 -0.028,-0.416 -0.028,-0.624 0,-0.46 0.22,-0.896 0.596,-1.168 0.012,-0.008 0.028,-0.012 0.04,-0.012 0.016,0 0.028,0 0.04,0.012 0.284,0.336 0.532,0.98 0.532,1.432 0,0.572 -0.344,1.02 -0.72,1.456 0.084,0.272 0.156,0.552 0.224,0.828 z m 0.34,1.86 c 0.272,-0.096 0.452,-0.38 0.452,-0.656 0,-0.36 -0.264,-0.716 -0.692,-0.76 0.096,0.464 0.184,0.924 0.24,1.416 z m -1.548,-0.924 c 0,0.54 0.516,0.988 1.056,0.988 0.112,0 0.22,-0.008 0.328,-0.024 -0.056,-0.508 -0.148,-0.98 -0.252,-1.456 -0.316,0.032 -0.496,0.244 -0.496,0.476 0,0.176 0.1,0.364 0.324,0.492 0.02,0.02 0.028,0.04 0.028,0.06 0,0.044 -0.04,0.088 -0.088,0.088 -0.012,0 -0.024,-0.004 -0.036,-0.008 -0.32,-0.172 -0.468,-0.46 -0.468,-0.74 0,-0.352 0.232,-0.696 0.64,-0.788 -0.056,-0.232 -0.116,-0.468 -0.184,-0.7 -0.428,0.484 -0.852,0.972 -0.852,1.612 z m 1.336,-4.068 c -0.396,0.192 -0.648,0.596 -0.648,1.036 0,0.296 0.072,0.532 0.144,0.776 0.32,-0.388 0.584,-0.792 0.584,-1.296 0,-0.22 -0.016,-0.316 -0.08,-0.516 z"
     fill="currentColor"
     id="path168"
     style="stroke-width:0.004" />
  <path
     d="m 7.648,5.2424724 c -0.196,0 -0.3,-0.168 -0.3,-0.3 0,-0.152 0.108,-0.308 0.288,-0.308 0.016,0 0.036,0 0.056,0.004 -0.112,-0.148 -0.288,-0.236 -0.48,-0.236 -0.424,0 -0.452,0.292 -0.452,0.744 v 0.204 0.204 c 0,0.452 0.028,0.748 0.452,0.748 0.32,0 0.556,-0.28 0.632,-0.604 0.008,-0.028 0.028,-0.04 0.048,-0.04 0.024,0 0.052,0.016 0.052,0.048 0,0.376 -0.42,0.696 -0.732,0.696 -0.272,0 -0.548,-0.084 -0.736,-0.28 -0.196,-0.204 -0.264,-0.488 -0.264,-0.772 0,-0.284 0.068,-0.568 0.264,-0.772 0.188,-0.196 0.464,-0.276 0.736,-0.276 0.348,0 0.64,0.256 0.7,0.6 0.004,0.02 0.004,0.036 0.004,0.052 0,0.16 -0.12,0.288 -0.268,0.288 z"
     fill="currentColor"
     id="path170"
     style="stroke-width:0.004" />
  <path
     d="m 11.18,12.402472 c -0.2,0 -0.276,0.172 -0.276,0.352 0,0.308 0.228,0.544 0.536,0.544 0.2,0 0.276,-0.172 0.276,-0.352 0,-0.308 -0.228,-0.544 -0.536,-0.544 z m 1.12,0.448 c 0,0.172 -0.14,0.304 -0.292,0.388 -0.212,0.12 -0.452,0.164 -0.696,0.164 -0.244,0 -0.488,-0.044 -0.7,-0.164 -0.152,-0.084 -0.292,-0.216 -0.292,-0.388 0,-0.172 0.14,-0.304 0.292,-0.388 0.212,-0.12 0.456,-0.164 0.7,-0.164 0.244,0 0.484,0.044 0.696,0.164 0.152,0.084 0.292,0.216 0.292,0.388 z"
     fill="currentColor"
     id="path172"
     style="stroke-width:0.004" />
  <path
     d="m 11.18,10.402472 c -0.2,0 -0.276,0.172 -0.276,0.352 0,0.308 0.228,0.544 0.536,0.544 0.2,0 0.276,-0.172 0.276,-0.352 0,-0.308 -0.228,-0.544 -0.536,-0.544 z m 1.12,0.448 c 0,0.172 -0.14,0.304 -0.292,0.388 -0.212,0.12 -0.452,0.164 -0.696,0.164 -0.244,0 -0.488,-0.044 -0.7,-0.164 -0.152,-0.084 -0.292,-0.216 -0.292,-0.388 0,-0.172 0.14,-0.304 0.292,-0.388 0.212,-0.12 0.456,-0.164 0.7,-0.164 0.244,0 0.484,0.044 0.696,0.164 0.152,0.084 0.292,0.216 0.292,0.388 z"
     fill="currentColor"
     id="path174"
     style="stroke-width:0.004" />
  <path
     d="m 4.24,13.850472 c 0,-0.112 0.092,-0.204 0.204,-0.204 0.112,0 0.204,0.092 0.204,0.204 0,0.112 -0.092,0.204 -0.204,0.204 -0.112,0 -0.204,-0.092 -0.204,-0.204 z m 0,-1 c 0,-0.112 0.092,-0.204 0.204,-0.204 0.112,0 0.204,0.092 0.204,0.204 0,0.112 -0.092,0.204 -0.204,0.204 -0.112,0 -0.204,-0.092 -0.204,-0.204 z m -1.3,-0.552 c 0.688,0 1.172,0.352 1.172,1.004 0,1.052 -1.052,1.656 -2.064,2.084 -0.012,0.012 -0.024,0.016 -0.036,0.016 -0.028,0 -0.052,-0.024 -0.052,-0.052 0,-0.012 0.004,-0.024 0.016,-0.036 0.808,-0.472 1.648,-1.06 1.648,-1.972 0,-0.48 -0.252,-0.94 -0.684,-0.94 -0.296,0 -0.516,0.216 -0.616,0.504 0.044,-0.02 0.088,-0.032 0.136,-0.032 0.22,0 0.4,0.18 0.4,0.4 0,0.232 -0.176,0.424 -0.4,0.424 -0.24,0 -0.448,-0.188 -0.448,-0.424 0,-0.532 0.408,-0.976 0.928,-0.976 z"
     fill="currentColor"
     id="path176"
     style="stroke-width:0.004" />
  <path
     d="m 7.648,14.242472 c -0.196,0 -0.3,-0.168 -0.3,-0.3 0,-0.152 0.108,-0.308 0.288,-0.308 0.016,0 0.036,0 0.056,0.004 -0.112,-0.148 -0.288,-0.236 -0.48,-0.236 -0.424,0 -0.452,0.292 -0.452,0.744 v 0.204 0.204 c 0,0.452 0.028,0.748 0.452,0.748 0.32,0 0.556,-0.28 0.632,-0.604 0.008,-0.028 0.028,-0.04 0.048,-0.04 0.024,0 0.052,0.016 0.052,0.048 0,0.376 -0.42,0.696 -0.732,0.696 -0.272,0 -0.548,-0.084 -0.736,-0.28 -0.196,-0.204 -0.264,-0.488 -0.264,-0.772 0,-0.284 0.068,-0.568 0.264,-0.772 0.188,-0.196 0.464,-0.276 0.736,-0.276 0.348,0 0.64,0.256 0.7,0.6 0.004,0.02 0.004,0.036 0.004,0.052 0,0.16 -0.12,0.288 -0.268,0.288 z"
     fill="currentColor"
     id="path178"
     style="stroke-width:0.004" />
  <text
     font-family="'Roboto Light'"
     font-size="2.2001px"
     text-anchor="start"
     fill="currentColor"
     id="text182"
     x="10.5771"
     y="19.850471"><tspan
       id="tspan180">V</tspan></text>
  <text
     font-family="'Roboto Slab Light'"
     font-size="2.2001px"
     text-anchor="start"
     fill="currentColor"
     id="text186"
     x="1.212"
     y="19.850471"><tspan
       id="tspan184">C Maior:</tspan></text>
  <path
     d="m 41.8638,6.9024724 c -0.2,0 -0.276,0.172 -0.276,0.352 0,0.308 0.228,0.544 0.536,0.544 0.2,0 0.276,-0.172 0.276,-0.352 0,-0.308 -0.228,-0.544 -0.536,-0.544 z m 1.12,0.448 c 0,0.172 -0.14,0.304 -0.292,0.388 -0.212,0.12 -0.452,0.164 -0.696,0.164 -0.244,0 -0.488,-0.044 -0.7,-0.164 -0.152,-0.084 -0.292,-0.216 -0.292,-0.388 0,-0.172 0.14,-0.304 0.292,-0.388 0.212,-0.12 0.456,-0.164 0.7,-0.164 0.244,0 0.484,0.044 0.696,0.164 0.152,0.084 0.292,0.216 0.292,0.388 z"
     fill="currentColor"
     id="path188"
     style="stroke-width:0.004" />
  <path
     d="m 41.8638,4.4024724 c -0.2,0 -0.276,0.172 -0.276,0.352 0,0.308 0.228,0.544 0.536,0.544 0.2,0 0.276,-0.172 0.276,-0.352 0,-0.308 -0.228,-0.544 -0.536,-0.544 z m 1.12,0.448 c 0,0.172 -0.14,0.304 -0.292,0.388 -0.212,0.12 -0.452,0.164 -0.696,0.164 -0.244,0 -0.488,-0.044 -0.7,-0.164 -0.152,-0.084 -0.292,-0.216 -0.292,-0.388 0,-0.172 0.14,-0.304 0.292,-0.388 0.212,-0.12 0.456,-0.164 0.7,-0.164 0.244,0 0.484,0.044 0.696,0.164 0.152,0.084 0.292,0.216 0.292,0.388 z"
     fill="currentColor"
     id="path190"
     style="stroke-width:0.004" />
  <path
     d="m 41.8638,14.402472 c -0.2,0 -0.276,0.172 -0.276,0.352 0,0.308 0.228,0.544 0.536,0.544 0.2,0 0.276,-0.172 0.276,-0.352 0,-0.308 -0.228,-0.544 -0.536,-0.544 z m 1.12,0.448 c 0,0.172 -0.14,0.304 -0.292,0.388 -0.212,0.12 -0.452,0.164 -0.696,0.164 -0.244,0 -0.488,-0.044 -0.7,-0.164 -0.152,-0.084 -0.292,-0.216 -0.292,-0.388 0,-0.172 0.14,-0.304 0.292,-0.388 0.212,-0.12 0.456,-0.164 0.7,-0.164 0.244,0 0.484,0.044 0.696,0.164 0.152,0.084 0.292,0.216 0.292,0.388 z"
     fill="currentColor"
     id="path192"
     style="stroke-width:0.004" />
  <path
     d="m 41.8638,12.402472 c -0.2,0 -0.276,0.172 -0.276,0.352 0,0.308 0.228,0.544 0.536,0.544 0.2,0 0.276,-0.172 0.276,-0.352 0,-0.308 -0.228,-0.544 -0.536,-0.544 z m 1.12,0.448 c 0,0.172 -0.14,0.304 -0.292,0.388 -0.212,0.12 -0.452,0.164 -0.696,0.164 -0.244,0 -0.488,-0.044 -0.7,-0.164 -0.152,-0.084 -0.292,-0.216 -0.292,-0.388 0,-0.172 0.14,-0.304 0.292,-0.388 0.212,-0.12 0.456,-0.164 0.7,-0.164 0.244,0 0.484,0.044 0.696,0.164 0.152,0.084 0.292,0.216 0.292,0.388 z"
     fill="currentColor"
     id="path194"
     style="stroke-width:0.004" />
  <text
     font-family="'Roboto Light'"
     font-size="2.2001px"
     text-anchor="start"
     fill="currentColor"
     id="text198"
     x="41.703602"
     y="19.850471"><tspan
       id="tspan196">I</tspan></text>
  <path
     d="m 52.3384,5.9024724 c -0.2,0 -0.276,0.172 -0.276,0.352 0,0.308 0.228,0.544 0.536,0.544 0.2,0 0.276,-0.172 0.276,-0.352 0,-0.308 -0.228,-0.544 -0.536,-0.544 z m 1.12,0.448 c 0,0.172 -0.14,0.304 -0.292,0.388 -0.212,0.12 -0.452,0.164 -0.696,0.164 -0.244,0 -0.488,-0.044 -0.7,-0.164 -0.152,-0.084 -0.292,-0.216 -0.292,-0.388 0,-0.172 0.14,-0.304 0.292,-0.388 0.212,-0.12 0.456,-0.164 0.7,-0.164 0.244,0 0.484,0.044 0.696,0.164 0.152,0.084 0.292,0.216 0.292,0.388 z"
     fill="currentColor"
     id="path200"
     style="stroke-width:0.004" />
  <path
     d="m 52.3384,3.9024724 c -0.2,0 -0.276,0.172 -0.276,0.352 0,0.308 0.228,0.544 0.536,0.544 0.2,0 0.276,-0.172 0.276,-0.352 0,-0.308 -0.228,-0.544 -0.536,-0.544 z m 1.12,0.448 c 0,0.172 -0.14,0.304 -0.292,0.388 -0.212,0.12 -0.452,0.164 -0.696,0.164 -0.244,0 -0.488,-0.044 -0.7,-0.164 -0.152,-0.084 -0.292,-0.216 -0.292,-0.388 0,-0.172 0.14,-0.304 0.292,-0.388 0.212,-0.12 0.456,-0.164 0.7,-0.164 0.244,0 0.484,0.044 0.696,0.164 0.152,0.084 0.292,0.216 0.292,0.388 z"
     fill="currentColor"
     id="path202"
     style="stroke-width:0.004" />
  <text
     font-family="'Roboto Slab Light'"
     font-size="2.2001px"
     text-anchor="start"
     fill="currentColor"
     id="text206"
     x="49.478401"
     y="1.8004724"><tspan
       id="tspan204">Cadências autênticas imperfeitas:</tspan></text>
  <path
     d="m 52.3384,12.402472 c -0.2,0 -0.276,0.172 -0.276,0.352 0,0.308 0.228,0.544 0.536,0.544 0.2,0 0.276,-0.172 0.276,-0.352 0,-0.308 -0.228,-0.544 -0.536,-0.544 z m 1.12,0.448 c 0,0.172 -0.14,0.304 -0.292,0.388 -0.212,0.12 -0.452,0.164 -0.696,0.164 -0.244,0 -0.488,-0.044 -0.7,-0.164 -0.152,-0.084 -0.292,-0.216 -0.292,-0.388 0,-0.172 0.14,-0.304 0.292,-0.388 0.212,-0.12 0.456,-0.164 0.7,-0.164 0.244,0 0.484,0.044 0.696,0.164 0.152,0.084 0.292,0.216 0.292,0.388 z"
     fill="currentColor"
     id="path208"
     style="stroke-width:0.004" />
  <path
     d="m 52.3384,11.402472 c -0.2,0 -0.276,0.172 -0.276,0.352 0,0.308 0.228,0.544 0.536,0.544 0.2,0 0.276,-0.172 0.276,-0.352 0,-0.308 -0.228,-0.544 -0.536,-0.544 z m 1.12,0.448 c 0,0.172 -0.14,0.304 -0.292,0.388 -0.212,0.12 -0.452,0.164 -0.696,0.164 -0.244,0 -0.488,-0.044 -0.7,-0.164 -0.152,-0.084 -0.292,-0.216 -0.292,-0.388 0,-0.172 0.14,-0.304 0.292,-0.388 0.212,-0.12 0.456,-0.164 0.7,-0.164 0.244,0 0.484,0.044 0.696,0.164 0.152,0.084 0.292,0.216 0.292,0.388 z"
     fill="currentColor"
     id="path210"
     style="stroke-width:0.004" />
  <text
     font-family="'Roboto Light'"
     font-size="2.2001px"
     text-anchor="start"
     fill="currentColor"
     id="text214"
     x="51.7355"
     y="19.850471"><tspan
       id="tspan212">V</tspan></text>
  <path
     d="m 31.7992,3.9024724 c -0.2,0 -0.276,0.172 -0.276,0.352 0,0.308 0.228,0.544 0.536,0.544 0.2,0 0.276,-0.172 0.276,-0.352 0,-0.308 -0.228,-0.544 -0.536,-0.544 z m 1.12,0.448 c 0,0.172 -0.14,0.304 -0.292,0.388 -0.212,0.12 -0.452,0.164 -0.696,0.164 -0.244,0 -0.488,-0.044 -0.7,-0.164 -0.152,-0.084 -0.292,-0.216 -0.292,-0.388 0,-0.172 0.14,-0.304 0.292,-0.388 0.212,-0.12 0.456,-0.164 0.7,-0.164 0.244,0 0.484,0.044 0.696,0.164 0.152,0.084 0.292,0.216 0.292,0.388 z"
     fill="currentColor"
     id="path216"
     style="stroke-width:0.004" />
  <path
     d="m 31.7992,12.402472 c -0.2,0 -0.276,0.172 -0.276,0.352 0,0.308 0.228,0.544 0.536,0.544 0.2,0 0.276,-0.172 0.276,-0.352 0,-0.308 -0.228,-0.544 -0.536,-0.544 z m 1.12,0.448 c 0,0.172 -0.14,0.304 -0.292,0.388 -0.212,0.12 -0.452,0.164 -0.696,0.164 -0.244,0 -0.488,-0.044 -0.7,-0.164 -0.152,-0.084 -0.292,-0.216 -0.292,-0.388 0,-0.172 0.14,-0.304 0.292,-0.388 0.212,-0.12 0.456,-0.164 0.7,-0.164 0.244,0 0.484,0.044 0.696,0.164 0.152,0.084 0.292,0.216 0.292,0.388 z"
     fill="currentColor"
     id="path218"
     style="stroke-width:0.004" />
  <path
     d="m 31.7992,11.402472 c -0.2,0 -0.276,0.172 -0.276,0.352 0,0.308 0.228,0.544 0.536,0.544 0.2,0 0.276,-0.172 0.276,-0.352 0,-0.308 -0.228,-0.544 -0.536,-0.544 z m 1.12,0.448 c 0,0.172 -0.14,0.304 -0.292,0.388 -0.212,0.12 -0.452,0.164 -0.696,0.164 -0.244,0 -0.488,-0.044 -0.7,-0.164 -0.152,-0.084 -0.292,-0.216 -0.292,-0.388 0,-0.172 0.14,-0.304 0.292,-0.388 0.212,-0.12 0.456,-0.164 0.7,-0.164 0.244,0 0.484,0.044 0.696,0.164 0.152,0.084 0.292,0.216 0.292,0.388 z"
     fill="currentColor"
     id="path220"
     style="stroke-width:0.004" />
  <text
     font-family="'Roboto Light'"
     font-size="2.2001px"
     text-anchor="start"
     fill="currentColor"
     id="text224"
     x="30.6488"
     y="19.850471"><tspan
       id="tspan222">V</tspan></text>
  <text
     font-family="'Roboto Light'"
     font-size="1.5555px"
     text-anchor="start"
     fill="currentColor"
     id="text228"
     x="32.2146"
     y="19.065172"><tspan
       id="tspan226">7</tspan></text>
</svg>
