<?xml version="1.0" encoding="UTF-8" standalone="no"?>
<svg
   version="1.2"
   width="159.20001mm"
   height="53.054775mm"
   viewBox="0 0 90.593601 30.191097"
   id="svg362"
   xmlns="http://www.w3.org/2000/svg"
   xmlns:svg="http://www.w3.org/2000/svg">
  <defs
     id="defs366" />
  <!-- Page: 1/1 -->
  <text
     font-family="'Century Schoolbook L'"
     font-size="2.2001px"
     text-anchor="start"
     fill="currentColor"
     id="text4"
     y="-0.95000494"><tspan
       id="tspan2" /></text>
  <rect
     x="5.3049998"
     y="8.7697954"
     width="2.97"
     height="0.2"
     ry="0.1"
     fill="currentColor"
     id="rect6" />
  <rect
     x="25.1383"
     y="8.7697954"
     width="2.97"
     height="0.2"
     ry="0.1"
     fill="currentColor"
     id="rect8" />
  <rect
     x="48.8811"
     y="8.7697954"
     width="2.97"
     height="0.2"
     ry="0.1"
     fill="currentColor"
     id="rect10" />
  <rect
     x="73.733498"
     y="8.7697954"
     width="2.97"
     height="0.2"
     ry="0.1"
     fill="currentColor"
     id="rect12" />
  <line
     stroke-linejoin="round"
     stroke-linecap="round"
     stroke-width="0.1"
     stroke="currentColor"
     x1="0.050000001"
     y1="7.8697948"
     x2="90.543602"
     y2="7.8697948"
     id="line14" />
  <line
     stroke-linejoin="round"
     stroke-linecap="round"
     stroke-width="0.1"
     stroke="currentColor"
     x1="0.050000001"
     y1="6.8697948"
     x2="90.543602"
     y2="6.8697948"
     id="line16" />
  <line
     stroke-linejoin="round"
     stroke-linecap="round"
     stroke-width="0.1"
     stroke="currentColor"
     x1="0.050000001"
     y1="5.8697948"
     x2="90.543602"
     y2="5.8697948"
     id="line18" />
  <line
     stroke-linejoin="round"
     stroke-linecap="round"
     stroke-width="0.1"
     stroke="currentColor"
     x1="0.050000001"
     y1="4.8697948"
     x2="90.543602"
     y2="4.8697948"
     id="line20" />
  <line
     stroke-linejoin="round"
     stroke-linecap="round"
     stroke-width="0.1"
     stroke="currentColor"
     x1="0.050000001"
     y1="3.8697951"
     x2="90.543602"
     y2="3.8697951"
     id="line22" />
  <rect
     x="22.389099"
     y="3.8697951"
     width="0.19"
     height="4"
     ry="0.0000"
     fill="currentColor"
     id="rect24" />
  <rect
     x="45.700001"
     y="3.8697951"
     width="0.19"
     height="4"
     ry="0.0000"
     fill="currentColor"
     id="rect26" />
  <rect
     x="90.403603"
     y="3.8697951"
     width="0.19"
     height="4"
     ry="0.0000"
     fill="currentColor"
     id="rect28" />
  <rect
     x="69.649696"
     y="3.8697951"
     width="0.19"
     height="4"
     ry="0.0000"
     fill="currentColor"
     id="rect30" />
  <text
     font-family="sans-serif"
     font-size="2.6163px"
     text-anchor="start"
     fill="currentColor"
     id="text34"
     x="74.2285"
     y="3.2855949"><tspan
       id="tspan32">C</tspan></text>
  <text
     font-family="sans-serif"
     font-size="2.6163px"
     text-anchor="start"
     fill="currentColor"
     id="text38"
     x="76.038101"
     y="3.2855949"><tspan
       id="tspan36" /></text>
  <text
     font-family="sans-serif"
     font-size="2.6163px"
     text-anchor="start"
     fill="currentColor"
     id="text42"
     x="76.038101"
     y="3.2855949"><tspan
       id="tspan40">m</tspan></text>
  <polygon
     transform="translate(78.5989,1.7855951)"
     stroke-linejoin="round"
     stroke-linecap="round"
     stroke-width="0.1"
     fill="none"
     stroke="currentColor"
     points="1.0091,-1.7356 0,0 2.0182,0 "
     id="polygon44" />
  <path
     d="m 81.41,1.3745951 -0.006,0.186 v 0.033 c 0,0.066 0.006,0.129 0.015,0.192 0.129,-0.114 0.267,-0.24 0.267,-0.411 0,-0.096 -0.042,-0.195 -0.126,-0.195 -0.093,0 -0.147,0.096 -0.15,0.195 z m -0.141,0.531 -0.042,-1.77000005 c 0.027,-0.015 0.06,-0.024 0.09,-0.024 0.03,0 0.063,0.009 0.09,0.024 L 81.383,1.1555951 c 0.075,-0.072 0.177,-0.114 0.282,-0.114 0.15,0 0.252,0.15 0.252,0.312 0,0.234 -0.249,0.351 -0.423,0.507 -0.051,0.045 -0.075,0.132 -0.147,0.132 -0.045,0 -0.078,-0.039 -0.078,-0.087 z"
     fill="currentColor"
     id="path46"
     style="stroke-width:0.003" />
  <text
     font-family="sans-serif"
     font-size="1.85px"
     text-anchor="start"
     fill="currentColor"
     id="text50"
     x="81.916298"
     y="1.7855951"><tspan
       id="tspan48">5</tspan></text>
  <path
     d="m 75.0885,8.4217951 c -0.2,0 -0.276,0.172 -0.276,0.352 0,0.308 0.228,0.544 0.536,0.544 0.2,0 0.276,-0.172 0.276,-0.352 0,-0.308 -0.228,-0.544 -0.536,-0.544 z m 1.12,0.448 c 0,0.172 -0.14,0.304 -0.292,0.388 -0.212,0.12 -0.452,0.164 -0.696,0.164 -0.244,0 -0.488,-0.044 -0.7,-0.164 -0.152,-0.084 -0.292,-0.216 -0.292,-0.388 0,-0.172 0.14,-0.304 0.292,-0.388 0.212,-0.12 0.456,-0.164 0.7,-0.164 0.244,0 0.484,0.044 0.696,0.164 0.152,0.084 0.292,0.216 0.292,0.388 z"
     fill="currentColor"
     id="path52"
     style="stroke-width:0.004" />
  <path
     d="m 75.0885,7.4217951 c -0.2,0 -0.276,0.172 -0.276,0.352 0,0.308 0.228,0.544 0.536,0.544 0.2,0 0.276,-0.172 0.276,-0.352 0,-0.308 -0.228,-0.544 -0.536,-0.544 z m 1.12,0.448 c 0,0.172 -0.14,0.304 -0.292,0.388 -0.212,0.12 -0.452,0.164 -0.696,0.164 -0.244,0 -0.488,-0.044 -0.7,-0.164 -0.152,-0.084 -0.292,-0.216 -0.292,-0.388 0,-0.172 0.14,-0.304 0.292,-0.388 0.212,-0.12 0.456,-0.164 0.7,-0.164 0.244,0 0.484,0.044 0.696,0.164 0.152,0.084 0.292,0.216 0.292,0.388 z"
     fill="currentColor"
     id="path54"
     style="stroke-width:0.004" />
  <path
     d="m 75.0885,6.4217951 c -0.2,0 -0.276,0.172 -0.276,0.352 0,0.308 0.228,0.544 0.536,0.544 0.2,0 0.276,-0.172 0.276,-0.352 0,-0.308 -0.228,-0.544 -0.536,-0.544 z m 1.12,0.448 c 0,0.172 -0.14,0.304 -0.292,0.388 -0.212,0.12 -0.452,0.164 -0.696,0.164 -0.244,0 -0.488,-0.044 -0.7,-0.164 -0.152,-0.084 -0.292,-0.216 -0.292,-0.388 0,-0.172 0.14,-0.304 0.292,-0.388 0.212,-0.12 0.456,-0.164 0.7,-0.164 0.244,0 0.484,0.044 0.696,0.164 0.152,0.084 0.292,0.216 0.292,0.388 z"
     fill="currentColor"
     id="path56"
     style="stroke-width:0.004" />
  <path
     d="m 75.0885,5.4217951 c -0.2,0 -0.276,0.172 -0.276,0.352 0,0.308 0.228,0.544 0.536,0.544 0.2,0 0.276,-0.172 0.276,-0.352 0,-0.308 -0.228,-0.544 -0.536,-0.544 z m 1.12,0.448 c 0,0.172 -0.14,0.304 -0.292,0.388 -0.212,0.12 -0.452,0.164 -0.696,0.164 -0.244,0 -0.488,-0.044 -0.7,-0.164 -0.152,-0.084 -0.292,-0.216 -0.292,-0.388 0,-0.172 0.14,-0.304 0.292,-0.388 0.212,-0.12 0.456,-0.164 0.7,-0.164 0.244,0 0.484,0.044 0.696,0.164 0.152,0.084 0.292,0.216 0.292,0.388 z"
     fill="currentColor"
     id="path58"
     style="stroke-width:0.004" />
  <path
     d="m 48.7901,8.1177951 c 0,0.04 -0.032,0.076 -0.072,0.076 -0.04,0 -0.076,-0.036 -0.076,-0.076 v -0.58 l -0.332,0.124 v 0.632 c 0,0.04 -0.036,0.076 -0.076,0.076 -0.04,0 -0.072,-0.036 -0.072,-0.076 v -0.58 l -0.128,0.048 c -0.008,0.004 -0.02,0.004 -0.028,0.004 -0.044,0 -0.08,-0.036 -0.08,-0.08 v -0.24 c 0,-0.032 0.02,-0.064 0.052,-0.076 l 0.184,-0.064 v -0.64 l -0.128,0.044 c -0.008,0.004 -0.02,0.004 -0.028,0.004 -0.044,0 -0.08,-0.036 -0.08,-0.08 v -0.24 c 0,-0.032 0.02,-0.06 0.052,-0.072 l 0.184,-0.068 v -0.632 c 0,-0.04 0.032,-0.076 0.072,-0.076 0.04,0 0.076,0.036 0.076,0.076 v 0.58 l 0.332,-0.124 v -0.632 c 0,-0.04 0.036,-0.076 0.076,-0.076 0.04,0 0.072,0.036 0.072,0.076 v 0.58 l 0.128,-0.048 c 0.008,-0.004 0.02,-0.004 0.028,-0.004 0.044,0 0.08,0.036 0.08,0.08 v 0.24 c 0,0.032 -0.02,0.064 -0.052,0.076 l -0.184,0.064 v 0.64 l 0.128,-0.044 c 0.008,-0.004 0.02,-0.004 0.028,-0.004 0.044,0 0.08,0.036 0.08,0.08 v 0.24 c 0,0.032 -0.02,0.06 -0.052,0.072 l -0.184,0.068 z m -0.48,-1.508 v 0.64 l 0.332,-0.12 v -0.64 z"
     fill="currentColor"
     id="path60"
     style="stroke-width:0.004" />
  <text
     font-family="'Roboto Light'"
     font-size="2.2001px"
     text-anchor="start"
     fill="currentColor"
     id="text64"
     x="41.693699"
     y="11.592795"><tspan
       id="tspan62">Maior aumentado</tspan></text>
  <text
     font-family="'Roboto Light'"
     font-size="2.2001px"
     text-anchor="start"
     fill="currentColor"
     id="text68"
     x="45.6031"
     y="14.592795"><tspan
       id="tspan66">de sétima</tspan></text>
  <path
     d="m 50.2361,5.4217951 c -0.2,0 -0.276,0.172 -0.276,0.352 0,0.308 0.228,0.544 0.536,0.544 0.2,0 0.276,-0.172 0.276,-0.352 0,-0.308 -0.228,-0.544 -0.536,-0.544 z m 1.12,0.448 c 0,0.172 -0.14,0.304 -0.292,0.388 -0.212,0.12 -0.452,0.164 -0.696,0.164 -0.244,0 -0.488,-0.044 -0.7,-0.164 -0.152,-0.084 -0.292,-0.216 -0.292,-0.388 0,-0.172 0.14,-0.304 0.292,-0.388 0.212,-0.12 0.456,-0.164 0.7,-0.164 0.244,0 0.484,0.044 0.696,0.164 0.152,0.084 0.292,0.216 0.292,0.388 z"
     fill="currentColor"
     id="path70"
     style="stroke-width:0.004" />
  <path
     d="m 50.2361,6.4217951 c -0.2,0 -0.276,0.172 -0.276,0.352 0,0.308 0.228,0.544 0.536,0.544 0.2,0 0.276,-0.172 0.276,-0.352 0,-0.308 -0.228,-0.544 -0.536,-0.544 z m 1.12,0.448 c 0,0.172 -0.14,0.304 -0.292,0.388 -0.212,0.12 -0.452,0.164 -0.696,0.164 -0.244,0 -0.488,-0.044 -0.7,-0.164 -0.152,-0.084 -0.292,-0.216 -0.292,-0.388 0,-0.172 0.14,-0.304 0.292,-0.388 0.212,-0.12 0.456,-0.164 0.7,-0.164 0.244,0 0.484,0.044 0.696,0.164 0.152,0.084 0.292,0.216 0.292,0.388 z"
     fill="currentColor"
     id="path72"
     style="stroke-width:0.004" />
  <path
     d="m 50.2361,7.4217951 c -0.2,0 -0.276,0.172 -0.276,0.352 0,0.308 0.228,0.544 0.536,0.544 0.2,0 0.276,-0.172 0.276,-0.352 0,-0.308 -0.228,-0.544 -0.536,-0.544 z m 1.12,0.448 c 0,0.172 -0.14,0.304 -0.292,0.388 -0.212,0.12 -0.452,0.164 -0.696,0.164 -0.244,0 -0.488,-0.044 -0.7,-0.164 -0.152,-0.084 -0.292,-0.216 -0.292,-0.388 0,-0.172 0.14,-0.304 0.292,-0.388 0.212,-0.12 0.456,-0.164 0.7,-0.164 0.244,0 0.484,0.044 0.696,0.164 0.152,0.084 0.292,0.216 0.292,0.388 z"
     fill="currentColor"
     id="path74"
     style="stroke-width:0.004" />
  <path
     d="m 50.2361,8.4217951 c -0.2,0 -0.276,0.172 -0.276,0.352 0,0.308 0.228,0.544 0.536,0.544 0.2,0 0.276,-0.172 0.276,-0.352 0,-0.308 -0.228,-0.544 -0.536,-0.544 z m 1.12,0.448 c 0,0.172 -0.14,0.304 -0.292,0.388 -0.212,0.12 -0.452,0.164 -0.696,0.164 -0.244,0 -0.488,-0.044 -0.7,-0.164 -0.152,-0.084 -0.292,-0.216 -0.292,-0.388 0,-0.172 0.14,-0.304 0.292,-0.388 0.212,-0.12 0.456,-0.164 0.7,-0.164 0.244,0 0.484,0.044 0.696,0.164 0.152,0.084 0.292,0.216 0.292,0.388 z"
     fill="currentColor"
     id="path76"
     style="stroke-width:0.004" />
  <path
     d="m 73.1865,6.7057951 -0.004,0.264 v 0.044 c 0,0.088 0.004,0.176 0.016,0.264 0.18,-0.152 0.372,-0.32 0.372,-0.556 0,-0.132 -0.056,-0.268 -0.172,-0.268 -0.124,0 -0.208,0.12 -0.212,0.252 z m -0.168,0.716 -0.048,-2.38 c 0.032,-0.02 0.072,-0.032 0.108,-0.032 0.036,0 0.076,0.012 0.108,0.032 l -0.028,1.38 c 0.1,-0.084 0.232,-0.136 0.364,-0.136 0.208,0 0.356,0.192 0.356,0.408 0,0.32 -0.344,0.468 -0.588,0.676 -0.06,0.052 -0.096,0.152 -0.18,0.152 -0.052,0 -0.092,-0.044 -0.092,-0.1 z"
     fill="currentColor"
     id="path78"
     style="stroke-width:0.004" />
  <path
     d="m 72.1265,7.7057951 -0.004,0.264 v 0.044 c 0,0.088 0.004,0.176 0.016,0.264 0.18,-0.152 0.372,-0.32 0.372,-0.556 0,-0.132 -0.056,-0.268 -0.172,-0.268 -0.124,0 -0.208,0.12 -0.212,0.252 z m -0.168,0.716 -0.048,-2.38 c 0.032,-0.02 0.072,-0.032 0.108,-0.032 0.036,0 0.076,0.012 0.108,0.032 l -0.028,1.38 c 0.1,-0.084 0.232,-0.136 0.364,-0.136 0.208,0 0.356,0.192 0.356,0.408 0,0.32 -0.344,0.468 -0.588,0.676 -0.06,0.052 -0.096,0.152 -0.18,0.152 -0.052,0 -0.092,-0.044 -0.092,-0.1 z"
     fill="currentColor"
     id="path80"
     style="stroke-width:0.004" />
  <text
     font-family="'Roboto Light'"
     font-size="2.2001px"
     text-anchor="start"
     fill="currentColor"
     id="text84"
     x="67.792297"
     y="11.592795"><tspan
       id="tspan82">Maior diminuto</tspan></text>
  <text
     font-family="'Roboto Light'"
     font-size="2.2001px"
     text-anchor="start"
     fill="currentColor"
     id="text88"
     x="70.455498"
     y="14.592795"><tspan
       id="tspan86">de sétima</tspan></text>
  <text
     font-family="'Roboto Light'"
     font-size="2.2001px"
     text-anchor="start"
     fill="currentColor"
     id="text92"
     x="3.9732001"
     y="11.592795"><tspan
       id="tspan90">Maior</tspan></text>
  <text
     font-family="'Roboto Light'"
     font-size="2.2001px"
     text-anchor="start"
     fill="currentColor"
     id="text96"
     x="2.027"
     y="14.592795"><tspan
       id="tspan94">de sétima</tspan></text>
  <path
     d="m 2.304,5.8217951 c 0.016,0 0.036,-0.004 0.052,-0.004 0.62,0 1.024,0.512 1.024,1.044 0,0.304 -0.132,0.616 -0.428,0.84 -0.088,0.068 -0.188,0.112 -0.292,0.144 0.012,0.14 0.02,0.28 0.02,0.42 0,0.076 -0.004,0.156 -0.008,0.232 -0.028,0.48 -0.36,0.912 -0.832,0.912 -0.432,0 -0.78,-0.352 -0.78,-0.788 0,-0.232 0.212,-0.412 0.448,-0.412 0.216,0 0.38,0.188 0.38,0.412 0,0.208 -0.172,0.38 -0.38,0.38 -0.044,0 -0.084,-0.008 -0.124,-0.024 0.104,0.156 0.272,0.26 0.468,0.26 0.384,0 0.628,-0.368 0.652,-0.764 0.004,-0.072 0.008,-0.148 0.008,-0.22 0,-0.124 -0.004,-0.244 -0.016,-0.368 -0.116,0.02 -0.232,0.032 -0.356,0.032 -0.752,0 -1.332,-0.688 -1.332,-1.496 0,-0.708 0.524,-1.224 0.992,-1.764 -0.076,-0.248 -0.148,-0.5 -0.18,-0.76 -0.024,-0.208 -0.028,-0.416 -0.028,-0.624 0,-0.46 0.22,-0.896 0.596,-1.168 0.012,-0.008 0.028,-0.012 0.04,-0.012 0.016,0 0.028,0 0.04,0.012 0.284,0.336 0.532,0.98 0.532,1.432 0,0.572 -0.344,1.02 -0.72,1.456 0.084,0.272 0.156,0.552 0.224,0.828 z m 0.34,1.86 c 0.272,-0.096 0.452,-0.38 0.452,-0.656 0,-0.36 -0.264,-0.716 -0.692,-0.76 0.096,0.464 0.184,0.924 0.24,1.416 z m -1.548,-0.924 c 0,0.54 0.516,0.988 1.056,0.988 0.112,0 0.22,-0.008 0.328,-0.024 -0.056,-0.508 -0.148,-0.98 -0.252,-1.456 -0.316,0.032 -0.496,0.244 -0.496,0.476 0,0.176 0.1,0.364 0.324,0.492 0.02,0.02 0.028,0.04 0.028,0.06 0,0.044 -0.04,0.088 -0.088,0.088 -0.012,0 -0.024,-0.004 -0.036,-0.008 -0.32,-0.172 -0.468,-0.46 -0.468,-0.74 0,-0.352 0.232,-0.696 0.64,-0.788 -0.056,-0.232 -0.116,-0.468 -0.184,-0.7 -0.428,0.484 -0.852,0.972 -0.852,1.612 z m 1.336,-4.068 c -0.396,0.192 -0.648,0.596 -0.648,1.036 0,0.296 0.072,0.532 0.144,0.776 0.32,-0.388 0.584,-0.792 0.584,-1.296 0,-0.22 -0.016,-0.316 -0.08,-0.516 z"
     fill="currentColor"
     id="path98"
     style="stroke-width:0.004" />
  <path
     d="m 6.66,5.4217951 c -0.2,0 -0.276,0.172 -0.276,0.352 0,0.308 0.228,0.544 0.536,0.544 0.2,0 0.276,-0.172 0.276,-0.352 0,-0.308 -0.228,-0.544 -0.536,-0.544 z m 1.12,0.448 c 0,0.172 -0.14,0.304 -0.292,0.388 -0.212,0.12 -0.452,0.164 -0.696,0.164 -0.244,0 -0.488,-0.044 -0.7,-0.164 -0.152,-0.084 -0.292,-0.216 -0.292,-0.388 0,-0.172 0.14,-0.304 0.292,-0.388 0.212,-0.12 0.456,-0.164 0.7,-0.164 0.244,0 0.484,0.044 0.696,0.164 0.152,0.084 0.292,0.216 0.292,0.388 z"
     fill="currentColor"
     id="path100"
     style="stroke-width:0.004" />
  <path
     d="m 6.66,6.4217951 c -0.2,0 -0.276,0.172 -0.276,0.352 0,0.308 0.228,0.544 0.536,0.544 0.2,0 0.276,-0.172 0.276,-0.352 0,-0.308 -0.228,-0.544 -0.536,-0.544 z m 1.12,0.448 c 0,0.172 -0.14,0.304 -0.292,0.388 -0.212,0.12 -0.452,0.164 -0.696,0.164 -0.244,0 -0.488,-0.044 -0.7,-0.164 -0.152,-0.084 -0.292,-0.216 -0.292,-0.388 0,-0.172 0.14,-0.304 0.292,-0.388 0.212,-0.12 0.456,-0.164 0.7,-0.164 0.244,0 0.484,0.044 0.696,0.164 0.152,0.084 0.292,0.216 0.292,0.388 z"
     fill="currentColor"
     id="path102"
     style="stroke-width:0.004" />
  <path
     d="m 6.66,7.4217951 c -0.2,0 -0.276,0.172 -0.276,0.352 0,0.308 0.228,0.544 0.536,0.544 0.2,0 0.276,-0.172 0.276,-0.352 0,-0.308 -0.228,-0.544 -0.536,-0.544 z m 1.12,0.448 c 0,0.172 -0.14,0.304 -0.292,0.388 -0.212,0.12 -0.452,0.164 -0.696,0.164 -0.244,0 -0.488,-0.044 -0.7,-0.164 -0.152,-0.084 -0.292,-0.216 -0.292,-0.388 0,-0.172 0.14,-0.304 0.292,-0.388 0.212,-0.12 0.456,-0.164 0.7,-0.164 0.244,0 0.484,0.044 0.696,0.164 0.152,0.084 0.292,0.216 0.292,0.388 z"
     fill="currentColor"
     id="path104"
     style="stroke-width:0.004" />
  <path
     d="m 6.66,8.4217951 c -0.2,0 -0.276,0.172 -0.276,0.352 0,0.308 0.228,0.544 0.536,0.544 0.2,0 0.276,-0.172 0.276,-0.352 0,-0.308 -0.228,-0.544 -0.536,-0.544 z m 1.12,0.448 c 0,0.172 -0.14,0.304 -0.292,0.388 -0.212,0.12 -0.452,0.164 -0.696,0.164 -0.244,0 -0.488,-0.044 -0.7,-0.164 -0.152,-0.084 -0.292,-0.216 -0.292,-0.388 0,-0.172 0.14,-0.304 0.292,-0.388 0.212,-0.12 0.456,-0.164 0.7,-0.164 0.244,0 0.484,0.044 0.696,0.164 0.152,0.084 0.292,0.216 0.292,0.388 z"
     fill="currentColor"
     id="path106"
     style="stroke-width:0.004" />
  <text
     font-family="sans-serif"
     font-size="2.6163px"
     text-anchor="start"
     fill="currentColor"
     id="text110"
     x="5.8000002"
     y="3.2855949"><tspan
       id="tspan108">C</tspan></text>
  <text
     font-family="sans-serif"
     font-size="2.6163px"
     text-anchor="start"
     fill="currentColor"
     id="text114"
     x="7.6096001"
     y="3.2855949"><tspan
       id="tspan112" /></text>
  <text
     font-family="sans-serif"
     font-size="2.6163px"
     text-anchor="start"
     fill="currentColor"
     id="text118"
     x="7.6096001"
     y="3.2855949"><tspan
       id="tspan116" /></text>
  <polygon
     transform="translate(7.6096,1.7855951)"
     stroke-linejoin="round"
     stroke-linecap="round"
     stroke-width="0.1"
     fill="none"
     stroke="currentColor"
     points="1.0091,-1.7356 0,0 2.0182,0 "
     id="polygon120" />
  <text
     font-family="sans-serif"
     font-size="2.6163px"
     text-anchor="start"
     fill="currentColor"
     id="text124"
     x="49.376099"
     y="3.2855949"><tspan
       id="tspan122">C</tspan></text>
  <text
     font-family="sans-serif"
     font-size="2.6163px"
     text-anchor="start"
     fill="currentColor"
     id="text128"
     x="51.185699"
     y="3.2855949"><tspan
       id="tspan126" /></text>
  <text
     font-family="sans-serif"
     font-size="2.6163px"
     text-anchor="start"
     fill="currentColor"
     id="text132"
     x="51.185699"
     y="3.2855949"><tspan
       id="tspan130" /></text>
  <polygon
     transform="translate(51.1857,1.7855951)"
     stroke-linejoin="round"
     stroke-linecap="round"
     stroke-width="0.1"
     fill="none"
     stroke="currentColor"
     points="1.0091,-1.7356 0,0 2.0182,0 "
     id="polygon134" />
  <path
     d="m 54.2978,2.1725951 c -0.036,0 -0.063,-0.027 -0.063,-0.063 v -0.414 l -0.237,0.09 v 0.462 c 0,0.036 -0.027,0.063 -0.063,0.063 -0.036,0 -0.063,-0.027 -0.063,-0.063 v -0.414 l -0.066,0.024 c -0.009,0.003 -0.018,0.006 -0.027,0.006 -0.039,0 -0.075,-0.033 -0.075,-0.075 v -0.162 c 0,-0.03 0.018,-0.06 0.048,-0.072 l 0.12,-0.045 v -0.465 l -0.066,0.027 c -0.009,0.003 -0.018,0.003 -0.027,0.003 -0.039,0 -0.075,-0.033 -0.075,-0.075 v -0.162 c 0,-0.03 0.018,-0.057 0.048,-0.069 l 0.12,-0.045 v -0.462 c 0,-0.036 0.027,-0.063 0.063,-0.063 0.036,0 0.063,0.027 0.063,0.063 v 0.414 l 0.237,-0.09 v -0.462 c 0,-0.036 0.027,-0.063 0.063,-0.063 0.036,0 0.063,0.027 0.063,0.063 v 0.414 l 0.066,-0.024 c 0.009,-0.003 0.018,-0.006 0.027,-0.006 0.039,0 0.075,0.033 0.075,0.075 v 0.162 c 0,0.03 -0.018,0.06 -0.048,0.072 l -0.12,0.045 v 0.465 l 0.066,-0.027 c 0.009,-0.003 0.018,-0.003 0.027,-0.003 0.039,0 0.075,0.033 0.075,0.075 v 0.162 c 0,0.03 -0.018,0.057 -0.048,0.069 l -0.12,0.045 v 0.462 c 0,0.036 -0.027,0.063 -0.063,0.063 z m -0.3,-1.17300005 V 1.4615951 l 0.237,-0.09 V 0.90959505 Z"
     fill="currentColor"
     id="path136"
     style="stroke-width:0.003" />
  <text
     font-family="sans-serif"
     font-size="1.85px"
     text-anchor="start"
     fill="currentColor"
     id="text140"
     x="54.527901"
     y="1.7855951"><tspan
       id="tspan138">5</tspan></text>
  <path
     d="m 24.5913,7.7057951 -0.004,0.264 v 0.044 c 0,0.088 0.004,0.176 0.016,0.264 0.18,-0.152 0.372,-0.32 0.372,-0.556 0,-0.132 -0.056,-0.268 -0.172,-0.268 -0.124,0 -0.208,0.12 -0.212,0.252 z m -0.168,0.716 -0.048,-2.38 c 0.032,-0.02 0.072,-0.032 0.108,-0.032 0.036,0 0.076,0.012 0.108,0.032 l -0.028,1.38 c 0.1,-0.084 0.232,-0.136 0.364,-0.136 0.208,0 0.356,0.192 0.356,0.408 0,0.32 -0.344,0.468 -0.588,0.676 -0.06,0.052 -0.096,0.152 -0.18,0.152 -0.052,0 -0.092,-0.044 -0.092,-0.1 z"
     fill="currentColor"
     id="path142"
     style="stroke-width:0.004" />
  <text
     font-family="'Roboto Light'"
     font-size="2.2001px"
     text-anchor="start"
     fill="currentColor"
     id="text146"
     x="20.306801"
     y="11.592795"><tspan
       id="tspan144">Menor-maior</tspan></text>
  <text
     font-family="'Roboto Light'"
     font-size="2.2001px"
     text-anchor="start"
     fill="currentColor"
     id="text150"
     x="21.860399"
     y="14.592795"><tspan
       id="tspan148">de sétima</tspan></text>
  <path
     d="m 26.4933,5.4217951 c -0.2,0 -0.276,0.172 -0.276,0.352 0,0.308 0.228,0.544 0.536,0.544 0.2,0 0.276,-0.172 0.276,-0.352 0,-0.308 -0.228,-0.544 -0.536,-0.544 z m 1.12,0.448 c 0,0.172 -0.14,0.304 -0.292,0.388 -0.212,0.12 -0.452,0.164 -0.696,0.164 -0.244,0 -0.488,-0.044 -0.7,-0.164 -0.152,-0.084 -0.292,-0.216 -0.292,-0.388 0,-0.172 0.14,-0.304 0.292,-0.388 0.212,-0.12 0.456,-0.164 0.7,-0.164 0.244,0 0.484,0.044 0.696,0.164 0.152,0.084 0.292,0.216 0.292,0.388 z"
     fill="currentColor"
     id="path152"
     style="stroke-width:0.004" />
  <path
     d="m 26.4933,6.4217951 c -0.2,0 -0.276,0.172 -0.276,0.352 0,0.308 0.228,0.544 0.536,0.544 0.2,0 0.276,-0.172 0.276,-0.352 0,-0.308 -0.228,-0.544 -0.536,-0.544 z m 1.12,0.448 c 0,0.172 -0.14,0.304 -0.292,0.388 -0.212,0.12 -0.452,0.164 -0.696,0.164 -0.244,0 -0.488,-0.044 -0.7,-0.164 -0.152,-0.084 -0.292,-0.216 -0.292,-0.388 0,-0.172 0.14,-0.304 0.292,-0.388 0.212,-0.12 0.456,-0.164 0.7,-0.164 0.244,0 0.484,0.044 0.696,0.164 0.152,0.084 0.292,0.216 0.292,0.388 z"
     fill="currentColor"
     id="path154"
     style="stroke-width:0.004" />
  <text
     font-family="sans-serif"
     font-size="2.6163px"
     text-anchor="start"
     fill="currentColor"
     id="text158"
     x="25.633301"
     y="3.2855949"><tspan
       id="tspan156">C</tspan></text>
  <text
     font-family="sans-serif"
     font-size="2.6163px"
     text-anchor="start"
     fill="currentColor"
     id="text162"
     x="27.4429"
     y="3.2855949"><tspan
       id="tspan160" /></text>
  <text
     font-family="sans-serif"
     font-size="2.6163px"
     text-anchor="start"
     fill="currentColor"
     id="text166"
     x="27.4429"
     y="3.2855949"><tspan
       id="tspan164">m</tspan></text>
  <polygon
     transform="translate(30.0037,1.7855951)"
     stroke-linejoin="round"
     stroke-linecap="round"
     stroke-width="0.1"
     fill="none"
     stroke="currentColor"
     points="1.0091,-1.7356 0,0 2.0182,0 "
     id="polygon168" />
  <path
     d="m 26.4933,7.4217951 c -0.2,0 -0.276,0.172 -0.276,0.352 0,0.308 0.228,0.544 0.536,0.544 0.2,0 0.276,-0.172 0.276,-0.352 0,-0.308 -0.228,-0.544 -0.536,-0.544 z m 1.12,0.448 c 0,0.172 -0.14,0.304 -0.292,0.388 -0.212,0.12 -0.452,0.164 -0.696,0.164 -0.244,0 -0.488,-0.044 -0.7,-0.164 -0.152,-0.084 -0.292,-0.216 -0.292,-0.388 0,-0.172 0.14,-0.304 0.292,-0.388 0.212,-0.12 0.456,-0.164 0.7,-0.164 0.244,0 0.484,0.044 0.696,0.164 0.152,0.084 0.292,0.216 0.292,0.388 z"
     fill="currentColor"
     id="path170"
     style="stroke-width:0.004" />
  <path
     d="m 26.4933,8.4217951 c -0.2,0 -0.276,0.172 -0.276,0.352 0,0.308 0.228,0.544 0.536,0.544 0.2,0 0.276,-0.172 0.276,-0.352 0,-0.308 -0.228,-0.544 -0.536,-0.544 z m 1.12,0.448 c 0,0.172 -0.14,0.304 -0.292,0.388 -0.212,0.12 -0.452,0.164 -0.696,0.164 -0.244,0 -0.488,-0.044 -0.7,-0.164 -0.152,-0.084 -0.292,-0.216 -0.292,-0.388 0,-0.172 0.14,-0.304 0.292,-0.388 0.212,-0.12 0.456,-0.164 0.7,-0.164 0.244,0 0.484,0.044 0.696,0.164 0.152,0.084 0.292,0.216 0.292,0.388 z"
     fill="currentColor"
     id="path172"
     style="stroke-width:0.004" />
  <rect
     x="89.993599"
     y="19.434795"
     width="0.60000002"
     height="4"
     ry="0.0000"
     fill="currentColor"
     id="rect174" />
  <rect
     x="89.503601"
     y="19.434795"
     width="0.19"
     height="4"
     ry="0.0000"
     fill="currentColor"
     id="rect176" />
  <rect
     x="23.3699"
     y="19.434795"
     width="0.19"
     height="4"
     ry="0.0000"
     fill="currentColor"
     id="rect178" />
  <rect
     x="67.768303"
     y="19.434795"
     width="0.19"
     height="4"
     ry="0.0000"
     fill="currentColor"
     id="rect180" />
  <rect
     x="44.401199"
     y="19.434795"
     width="0.19"
     height="4"
     ry="0.0000"
     fill="currentColor"
     id="rect182" />
  <rect
     x="5.3049998"
     y="24.334795"
     width="2.97"
     height="0.2"
     ry="0.1"
     fill="currentColor"
     id="rect184" />
  <rect
     x="26.656799"
     y="24.334795"
     width="2.97"
     height="0.2"
     ry="0.1"
     fill="currentColor"
     id="rect186" />
  <rect
     x="48.332901"
     y="24.334795"
     width="2.97"
     height="0.2"
     ry="0.1"
     fill="currentColor"
     id="rect188" />
  <rect
     x="72.313698"
     y="24.334795"
     width="2.97"
     height="0.2"
     ry="0.1"
     fill="currentColor"
     id="rect190" />
  <line
     stroke-linejoin="round"
     stroke-linecap="round"
     stroke-width="0.1"
     stroke="currentColor"
     x1="0.050000001"
     y1="23.434795"
     x2="90.543602"
     y2="23.434795"
     id="line192" />
  <line
     stroke-linejoin="round"
     stroke-linecap="round"
     stroke-width="0.1"
     stroke="currentColor"
     x1="0.050000001"
     y1="22.434795"
     x2="90.543602"
     y2="22.434795"
     id="line194" />
  <line
     stroke-linejoin="round"
     stroke-linecap="round"
     stroke-width="0.1"
     stroke="currentColor"
     x1="0.050000001"
     y1="21.434795"
     x2="90.543602"
     y2="21.434795"
     id="line196" />
  <line
     stroke-linejoin="round"
     stroke-linecap="round"
     stroke-width="0.1"
     stroke="currentColor"
     x1="0.050000001"
     y1="20.434795"
     x2="90.543602"
     y2="20.434795"
     id="line198" />
  <line
     stroke-linejoin="round"
     stroke-linecap="round"
     stroke-width="0.1"
     stroke="currentColor"
     x1="0.050000001"
     y1="19.434795"
     x2="90.543602"
     y2="19.434795"
     id="line200" />
  <path
     d="m 71.7667,21.270795 -0.004,0.264 v 0.044 c 0,0.088 0.004,0.176 0.016,0.264 0.18,-0.152 0.372,-0.32 0.372,-0.556 0,-0.132 -0.056,-0.268 -0.172,-0.268 -0.124,0 -0.208,0.12 -0.212,0.252 z m -0.168,0.716 -0.048,-2.38 c 0.032,-0.02 0.072,-0.032 0.108,-0.032 0.036,0 0.076,0.012 0.108,0.032 l -0.028,1.38 c 0.1,-0.084 0.232,-0.136 0.364,-0.136 0.208,0 0.356,0.192 0.356,0.408 0,0.32 -0.344,0.468 -0.588,0.676 -0.06,0.052 -0.096,0.152 -0.18,0.152 -0.052,0 -0.092,-0.044 -0.092,-0.1 z"
     fill="currentColor"
     id="path202"
     style="stroke-width:0.004" />
  <path
     d="m 70.0987,22.270795 -0.004,0.264 v 0.044 c 0,0.088 0.004,0.176 0.016,0.264 0.18,-0.152 0.372,-0.32 0.372,-0.556 0,-0.132 -0.056,-0.268 -0.172,-0.268 -0.124,0 -0.208,0.12 -0.212,0.252 z m -0.168,0.716 -0.048,-2.38 c 0.032,-0.02 0.072,-0.032 0.108,-0.032 0.036,0 0.076,0.012 0.108,0.032 l -0.028,1.38 c 0.1,-0.084 0.232,-0.136 0.364,-0.136 0.208,0 0.356,0.192 0.356,0.408 0,0.32 -0.344,0.468 -0.588,0.676 -0.06,0.052 -0.096,0.152 -0.18,0.152 -0.052,0 -0.092,-0.044 -0.092,-0.1 z"
     fill="currentColor"
     id="path204"
     style="stroke-width:0.004" />
  <path
     d="m 71.2067,23.270795 -0.004,0.264 v 0.044 c 0,0.088 0.004,0.176 0.016,0.264 0.18,-0.152 0.372,-0.32 0.372,-0.556 0,-0.132 -0.056,-0.268 -0.172,-0.268 -0.124,0 -0.208,0.12 -0.212,0.252 z m -0.168,0.716 -0.048,-2.38 c 0.032,-0.02 0.072,-0.032 0.108,-0.032 0.036,0 0.076,0.012 0.108,0.032 l -0.028,1.38 c 0.1,-0.084 0.232,-0.136 0.364,-0.136 0.208,0 0.356,0.192 0.356,0.408 0,0.32 -0.344,0.468 -0.588,0.676 -0.06,0.052 -0.096,0.152 -0.18,0.152 -0.052,0 -0.092,-0.044 -0.092,-0.1 z"
     fill="currentColor"
     id="path206"
     style="stroke-width:0.004" />
  <text
     font-family="sans-serif"
     font-size="2.6163px"
     text-anchor="start"
     fill="currentColor"
     id="text210"
     x="72.808701"
     y="18.850695"><tspan
       id="tspan208">C</tspan></text>
  <text
     font-family="sans-serif"
     font-size="2.6163px"
     text-anchor="start"
     fill="currentColor"
     id="text214"
     x="74.618301"
     y="18.850695"><tspan
       id="tspan212" /></text>
  <text
     font-family="sans-serif"
     font-size="2.6163px"
     text-anchor="start"
     fill="currentColor"
     id="text218"
     x="74.618301"
     y="17.350695"><tspan
       id="tspan216">ø</tspan></text>
  <text
     font-family="'Roboto Light'"
     font-size="2.2001px"
     text-anchor="start"
     fill="currentColor"
     id="text222"
     x="66.731003"
     y="27.157795"><tspan
       id="tspan220">Meio-diminuto</tspan></text>
  <text
     font-family="'Roboto Light'"
     font-size="2.2001px"
     text-anchor="start"
     fill="currentColor"
     id="text226"
     x="69.035698"
     y="30.157795"><tspan
       id="tspan224">de sétima</tspan></text>
  <path
     d="m 73.6687,20.986795 c -0.2,0 -0.276,0.172 -0.276,0.352 0,0.308 0.228,0.544 0.536,0.544 0.2,0 0.276,-0.172 0.276,-0.352 0,-0.308 -0.228,-0.544 -0.536,-0.544 z m 1.12,0.448 c 0,0.172 -0.14,0.304 -0.292,0.388 -0.212,0.12 -0.452,0.164 -0.696,0.164 -0.244,0 -0.488,-0.044 -0.7,-0.164 -0.152,-0.084 -0.292,-0.216 -0.292,-0.388 0,-0.172 0.14,-0.304 0.292,-0.388 0.212,-0.12 0.456,-0.164 0.7,-0.164 0.244,0 0.484,0.044 0.696,0.164 0.152,0.084 0.292,0.216 0.292,0.388 z"
     fill="currentColor"
     id="path228"
     style="stroke-width:0.004" />
  <path
     d="m 73.6687,21.986795 c -0.2,0 -0.276,0.172 -0.276,0.352 0,0.308 0.228,0.544 0.536,0.544 0.2,0 0.276,-0.172 0.276,-0.352 0,-0.308 -0.228,-0.544 -0.536,-0.544 z m 1.12,0.448 c 0,0.172 -0.14,0.304 -0.292,0.388 -0.212,0.12 -0.452,0.164 -0.696,0.164 -0.244,0 -0.488,-0.044 -0.7,-0.164 -0.152,-0.084 -0.292,-0.216 -0.292,-0.388 0,-0.172 0.14,-0.304 0.292,-0.388 0.212,-0.12 0.456,-0.164 0.7,-0.164 0.244,0 0.484,0.044 0.696,0.164 0.152,0.084 0.292,0.216 0.292,0.388 z"
     fill="currentColor"
     id="path230"
     style="stroke-width:0.004" />
  <path
     d="m 73.6687,22.986795 c -0.2,0 -0.276,0.172 -0.276,0.352 0,0.308 0.228,0.544 0.536,0.544 0.2,0 0.276,-0.172 0.276,-0.352 0,-0.308 -0.228,-0.544 -0.536,-0.544 z m 1.12,0.448 c 0,0.172 -0.14,0.304 -0.292,0.388 -0.212,0.12 -0.452,0.164 -0.696,0.164 -0.244,0 -0.488,-0.044 -0.7,-0.164 -0.152,-0.084 -0.292,-0.216 -0.292,-0.388 0,-0.172 0.14,-0.304 0.292,-0.388 0.212,-0.12 0.456,-0.164 0.7,-0.164 0.244,0 0.484,0.044 0.696,0.164 0.152,0.084 0.292,0.216 0.292,0.388 z"
     fill="currentColor"
     id="path232"
     style="stroke-width:0.004" />
  <path
     d="m 73.6687,23.986795 c -0.2,0 -0.276,0.172 -0.276,0.352 0,0.308 0.228,0.544 0.536,0.544 0.2,0 0.276,-0.172 0.276,-0.352 0,-0.308 -0.228,-0.544 -0.536,-0.544 z m 1.12,0.448 c 0,0.172 -0.14,0.304 -0.292,0.388 -0.212,0.12 -0.452,0.164 -0.696,0.164 -0.244,0 -0.488,-0.044 -0.7,-0.164 -0.152,-0.084 -0.292,-0.216 -0.292,-0.388 0,-0.172 0.14,-0.304 0.292,-0.388 0.212,-0.12 0.456,-0.164 0.7,-0.164 0.244,0 0.484,0.044 0.696,0.164 0.152,0.084 0.292,0.216 0.292,0.388 z"
     fill="currentColor"
     id="path234"
     style="stroke-width:0.004" />
  <text
     font-family="sans-serif"
     font-size="2.6163px"
     text-anchor="start"
     fill="currentColor"
     id="text238"
     x="5.8000002"
     y="18.850695"><tspan
       id="tspan236">C</tspan></text>
  <text
     font-family="sans-serif"
     font-size="2.6163px"
     text-anchor="start"
     fill="currentColor"
     id="text242"
     x="7.6096001"
     y="18.850695"><tspan
       id="tspan240" /></text>
  <text
     font-family="sans-serif"
     font-size="2.6163px"
     text-anchor="start"
     fill="currentColor"
     id="text246"
     x="7.6096001"
     y="18.850695"><tspan
       id="tspan244" /></text>
  <text
     font-family="sans-serif"
     font-size="1.85px"
     text-anchor="start"
     fill="currentColor"
     id="text250"
     x="7.6096001"
     y="17.350695"><tspan
       id="tspan248" /></text>
  <text
     font-family="sans-serif"
     font-size="1.85px"
     text-anchor="start"
     fill="currentColor"
     id="text254"
     x="7.6096001"
     y="17.350695"><tspan
       id="tspan252">7</tspan></text>
  <path
     d="m 6.66,23.986795 c -0.2,0 -0.276,0.172 -0.276,0.352 0,0.308 0.228,0.544 0.536,0.544 0.2,0 0.276,-0.172 0.276,-0.352 0,-0.308 -0.228,-0.544 -0.536,-0.544 z m 1.12,0.448 c 0,0.172 -0.14,0.304 -0.292,0.388 -0.212,0.12 -0.452,0.164 -0.696,0.164 -0.244,0 -0.488,-0.044 -0.7,-0.164 -0.152,-0.084 -0.292,-0.216 -0.292,-0.388 0,-0.172 0.14,-0.304 0.292,-0.388 0.212,-0.12 0.456,-0.164 0.7,-0.164 0.244,0 0.484,0.044 0.696,0.164 0.152,0.084 0.292,0.216 0.292,0.388 z"
     fill="currentColor"
     id="path256"
     style="stroke-width:0.004" />
  <path
     d="m 6.66,22.986795 c -0.2,0 -0.276,0.172 -0.276,0.352 0,0.308 0.228,0.544 0.536,0.544 0.2,0 0.276,-0.172 0.276,-0.352 0,-0.308 -0.228,-0.544 -0.536,-0.544 z m 1.12,0.448 c 0,0.172 -0.14,0.304 -0.292,0.388 -0.212,0.12 -0.452,0.164 -0.696,0.164 -0.244,0 -0.488,-0.044 -0.7,-0.164 -0.152,-0.084 -0.292,-0.216 -0.292,-0.388 0,-0.172 0.14,-0.304 0.292,-0.388 0.212,-0.12 0.456,-0.164 0.7,-0.164 0.244,0 0.484,0.044 0.696,0.164 0.152,0.084 0.292,0.216 0.292,0.388 z"
     fill="currentColor"
     id="path258"
     style="stroke-width:0.004" />
  <path
     d="m 6.66,21.986795 c -0.2,0 -0.276,0.172 -0.276,0.352 0,0.308 0.228,0.544 0.536,0.544 0.2,0 0.276,-0.172 0.276,-0.352 0,-0.308 -0.228,-0.544 -0.536,-0.544 z m 1.12,0.448 c 0,0.172 -0.14,0.304 -0.292,0.388 -0.212,0.12 -0.452,0.164 -0.696,0.164 -0.244,0 -0.488,-0.044 -0.7,-0.164 -0.152,-0.084 -0.292,-0.216 -0.292,-0.388 0,-0.172 0.14,-0.304 0.292,-0.388 0.212,-0.12 0.456,-0.164 0.7,-0.164 0.244,0 0.484,0.044 0.696,0.164 0.152,0.084 0.292,0.216 0.292,0.388 z"
     fill="currentColor"
     id="path260"
     style="stroke-width:0.004" />
  <path
     d="m 6.66,20.986795 c -0.2,0 -0.276,0.172 -0.276,0.352 0,0.308 0.228,0.544 0.536,0.544 0.2,0 0.276,-0.172 0.276,-0.352 0,-0.308 -0.228,-0.544 -0.536,-0.544 z m 1.12,0.448 c 0,0.172 -0.14,0.304 -0.292,0.388 -0.212,0.12 -0.452,0.164 -0.696,0.164 -0.244,0 -0.488,-0.044 -0.7,-0.164 -0.152,-0.084 -0.292,-0.216 -0.292,-0.388 0,-0.172 0.14,-0.304 0.292,-0.388 0.212,-0.12 0.456,-0.164 0.7,-0.164 0.244,0 0.484,0.044 0.696,0.164 0.152,0.084 0.292,0.216 0.292,0.388 z"
     fill="currentColor"
     id="path262"
     style="stroke-width:0.004" />
  <text
     font-family="'Roboto Light'"
     font-size="2.2001px"
     text-anchor="start"
     fill="currentColor"
     id="text266"
     x="1.4466"
     y="27.157795"><tspan
       id="tspan264">Dominante</tspan></text>
  <text
     font-family="'Roboto Light'"
     font-size="2.2001px"
     text-anchor="start"
     fill="currentColor"
     id="text270"
     x="2.027"
     y="30.157795"><tspan
       id="tspan268">de sétima</tspan></text>
  <path
     d="m 4.758,21.270795 -0.004,0.264 v 0.044 c 0,0.088 0.004,0.176 0.016,0.264 0.18,-0.152 0.372,-0.32 0.372,-0.556 0,-0.132 -0.056,-0.268 -0.172,-0.268 -0.124,0 -0.208,0.12 -0.212,0.252 z m -0.168,0.716 -0.048,-2.38 c 0.032,-0.02 0.072,-0.032 0.108,-0.032 0.036,0 0.076,0.012 0.108,0.032 l -0.028,1.38 c 0.1,-0.084 0.232,-0.136 0.364,-0.136 0.208,0 0.356,0.192 0.356,0.408 0,0.32 -0.344,0.468 -0.588,0.676 -0.06,0.052 -0.096,0.152 -0.18,0.152 -0.052,0 -0.092,-0.044 -0.092,-0.1 z"
     fill="currentColor"
     id="path272"
     style="stroke-width:0.004" />
  <text
     font-family="sans-serif"
     font-size="2.6163px"
     text-anchor="start"
     fill="currentColor"
     id="text276"
     x="27.1518"
     y="18.850695"><tspan
       id="tspan274">C</tspan></text>
  <text
     font-family="sans-serif"
     font-size="2.6163px"
     text-anchor="start"
     fill="currentColor"
     id="text280"
     x="28.961399"
     y="18.850695"><tspan
       id="tspan278" /></text>
  <text
     font-family="sans-serif"
     font-size="2.6163px"
     text-anchor="start"
     fill="currentColor"
     id="text284"
     x="28.961399"
     y="18.850695"><tspan
       id="tspan282">m</tspan></text>
  <text
     font-family="sans-serif"
     font-size="1.85px"
     text-anchor="start"
     fill="currentColor"
     id="text288"
     x="31.5221"
     y="17.350695"><tspan
       id="tspan286" /></text>
  <text
     font-family="sans-serif"
     font-size="1.85px"
     text-anchor="start"
     fill="currentColor"
     id="text292"
     x="31.5221"
     y="17.350695"><tspan
       id="tspan290">7</tspan></text>
  <path
     d="m 28.0118,23.986795 c -0.2,0 -0.276,0.172 -0.276,0.352 0,0.308 0.228,0.544 0.536,0.544 0.2,0 0.276,-0.172 0.276,-0.352 0,-0.308 -0.228,-0.544 -0.536,-0.544 z m 1.12,0.448 c 0,0.172 -0.14,0.304 -0.292,0.388 -0.212,0.12 -0.452,0.164 -0.696,0.164 -0.244,0 -0.488,-0.044 -0.7,-0.164 -0.152,-0.084 -0.292,-0.216 -0.292,-0.388 0,-0.172 0.14,-0.304 0.292,-0.388 0.212,-0.12 0.456,-0.164 0.7,-0.164 0.244,0 0.484,0.044 0.696,0.164 0.152,0.084 0.292,0.216 0.292,0.388 z"
     fill="currentColor"
     id="path294"
     style="stroke-width:0.004" />
  <path
     d="m 28.0118,22.986795 c -0.2,0 -0.276,0.172 -0.276,0.352 0,0.308 0.228,0.544 0.536,0.544 0.2,0 0.276,-0.172 0.276,-0.352 0,-0.308 -0.228,-0.544 -0.536,-0.544 z m 1.12,0.448 c 0,0.172 -0.14,0.304 -0.292,0.388 -0.212,0.12 -0.452,0.164 -0.696,0.164 -0.244,0 -0.488,-0.044 -0.7,-0.164 -0.152,-0.084 -0.292,-0.216 -0.292,-0.388 0,-0.172 0.14,-0.304 0.292,-0.388 0.212,-0.12 0.456,-0.164 0.7,-0.164 0.244,0 0.484,0.044 0.696,0.164 0.152,0.084 0.292,0.216 0.292,0.388 z"
     fill="currentColor"
     id="path296"
     style="stroke-width:0.004" />
  <path
     d="m 28.0118,21.986795 c -0.2,0 -0.276,0.172 -0.276,0.352 0,0.308 0.228,0.544 0.536,0.544 0.2,0 0.276,-0.172 0.276,-0.352 0,-0.308 -0.228,-0.544 -0.536,-0.544 z m 1.12,0.448 c 0,0.172 -0.14,0.304 -0.292,0.388 -0.212,0.12 -0.452,0.164 -0.696,0.164 -0.244,0 -0.488,-0.044 -0.7,-0.164 -0.152,-0.084 -0.292,-0.216 -0.292,-0.388 0,-0.172 0.14,-0.304 0.292,-0.388 0.212,-0.12 0.456,-0.164 0.7,-0.164 0.244,0 0.484,0.044 0.696,0.164 0.152,0.084 0.292,0.216 0.292,0.388 z"
     fill="currentColor"
     id="path298"
     style="stroke-width:0.004" />
  <path
     d="m 28.0118,20.986795 c -0.2,0 -0.276,0.172 -0.276,0.352 0,0.308 0.228,0.544 0.536,0.544 0.2,0 0.276,-0.172 0.276,-0.352 0,-0.308 -0.228,-0.544 -0.536,-0.544 z m 1.12,0.448 c 0,0.172 -0.14,0.304 -0.292,0.388 -0.212,0.12 -0.452,0.164 -0.696,0.164 -0.244,0 -0.488,-0.044 -0.7,-0.164 -0.152,-0.084 -0.292,-0.216 -0.292,-0.388 0,-0.172 0.14,-0.304 0.292,-0.388 0.212,-0.12 0.456,-0.164 0.7,-0.164 0.244,0 0.484,0.044 0.696,0.164 0.152,0.084 0.292,0.216 0.292,0.388 z"
     fill="currentColor"
     id="path300"
     style="stroke-width:0.004" />
  <path
     d="m 26.1098,21.270795 -0.004,0.264 v 0.044 c 0,0.088 0.004,0.176 0.016,0.264 0.18,-0.152 0.372,-0.32 0.372,-0.556 0,-0.132 -0.056,-0.268 -0.172,-0.268 -0.124,0 -0.208,0.12 -0.212,0.252 z m -0.168,0.716 -0.048,-2.38 c 0.032,-0.02 0.072,-0.032 0.108,-0.032 0.036,0 0.076,0.012 0.108,0.032 l -0.028,1.38 c 0.1,-0.084 0.232,-0.136 0.364,-0.136 0.208,0 0.356,0.192 0.356,0.408 0,0.32 -0.344,0.468 -0.588,0.676 -0.06,0.052 -0.096,0.152 -0.18,0.152 -0.052,0 -0.092,-0.044 -0.092,-0.1 z"
     fill="currentColor"
     id="path302"
     style="stroke-width:0.004" />
  <path
     d="m 25.5498,23.270795 -0.004,0.264 v 0.044 c 0,0.088 0.004,0.176 0.016,0.264 0.18,-0.152 0.372,-0.32 0.372,-0.556 0,-0.132 -0.056,-0.268 -0.172,-0.268 -0.124,0 -0.208,0.12 -0.212,0.252 z m -0.168,0.716 -0.048,-2.38 c 0.032,-0.02 0.072,-0.032 0.108,-0.032 0.036,0 0.076,0.012 0.108,0.032 l -0.028,1.38 c 0.1,-0.084 0.232,-0.136 0.364,-0.136 0.208,0 0.356,0.192 0.356,0.408 0,0.32 -0.344,0.468 -0.588,0.676 -0.06,0.052 -0.096,0.152 -0.18,0.152 -0.052,0 -0.092,-0.044 -0.092,-0.1 z"
     fill="currentColor"
     id="path304"
     style="stroke-width:0.004" />
  <path
     d="m 2.304,21.386795 c 0.016,0 0.036,-0.004 0.052,-0.004 0.62,0 1.024,0.512 1.024,1.044 0,0.304 -0.132,0.616 -0.428,0.84 -0.088,0.068 -0.188,0.112 -0.292,0.144 0.012,0.14 0.02,0.28 0.02,0.42 0,0.076 -0.004,0.156 -0.008,0.232 -0.028,0.48 -0.36,0.912 -0.832,0.912 -0.432,0 -0.78,-0.352 -0.78,-0.788 0,-0.232 0.212,-0.412 0.448,-0.412 0.216,0 0.38,0.188 0.38,0.412 0,0.208 -0.172,0.38 -0.38,0.38 -0.044,0 -0.084,-0.008 -0.124,-0.024 0.104,0.156 0.272,0.26 0.468,0.26 0.384,0 0.628,-0.368 0.652,-0.764 0.004,-0.072 0.008,-0.148 0.008,-0.22 0,-0.124 -0.004,-0.244 -0.016,-0.368 -0.116,0.02 -0.232,0.032 -0.356,0.032 -0.752,0 -1.332,-0.688 -1.332,-1.496 0,-0.708 0.524,-1.224 0.992,-1.764 -0.076,-0.248 -0.148,-0.5 -0.18,-0.76 -0.024,-0.208 -0.028,-0.416 -0.028,-0.624 0,-0.46 0.22,-0.896 0.596,-1.168 0.012,-0.008 0.028,-0.012 0.04,-0.012 0.016,0 0.028,0 0.04,0.012 0.284,0.336 0.532,0.98 0.532,1.432 0,0.572 -0.344,1.02 -0.72,1.456 0.084,0.272 0.156,0.552 0.224,0.828 z m 0.34,1.86 c 0.272,-0.096 0.452,-0.38 0.452,-0.656 0,-0.36 -0.264,-0.716 -0.692,-0.76 0.096,0.464 0.184,0.924 0.24,1.416 z m -1.548,-0.924 c 0,0.54 0.516,0.988 1.056,0.988 0.112,0 0.22,-0.008 0.328,-0.024 -0.056,-0.508 -0.148,-0.98 -0.252,-1.456 -0.316,0.032 -0.496,0.244 -0.496,0.476 0,0.176 0.1,0.364 0.324,0.492 0.02,0.02 0.028,0.04 0.028,0.06 0,0.044 -0.04,0.088 -0.088,0.088 -0.012,0 -0.024,-0.004 -0.036,-0.008 -0.32,-0.172 -0.468,-0.46 -0.468,-0.74 0,-0.352 0.232,-0.696 0.64,-0.788 -0.056,-0.232 -0.116,-0.468 -0.184,-0.7 -0.428,0.484 -0.852,0.972 -0.852,1.612 z m 1.336,-4.068 c -0.396,0.192 -0.648,0.596 -0.648,1.036 0,0.296 0.072,0.532 0.144,0.776 0.32,-0.388 0.584,-0.792 0.584,-1.296 0,-0.22 -0.016,-0.316 -0.08,-0.516 z"
     fill="currentColor"
     id="path306"
     style="stroke-width:0.004" />
  <path
     d="m 47.7859,21.270795 -0.004,0.264 v 0.044 c 0,0.088 0.004,0.176 0.016,0.264 0.18,-0.152 0.372,-0.32 0.372,-0.556 0,-0.132 -0.056,-0.268 -0.172,-0.268 -0.124,0 -0.208,0.12 -0.212,0.252 z m -0.168,0.716 -0.048,-2.38 c 0.032,-0.02 0.072,-0.032 0.108,-0.032 0.036,0 0.076,0.012 0.108,0.032 l -0.028,1.38 c 0.1,-0.084 0.232,-0.136 0.364,-0.136 0.208,0 0.356,0.192 0.356,0.408 0,0.32 -0.344,0.468 -0.588,0.676 -0.06,0.052 -0.096,0.152 -0.18,0.152 -0.052,0 -0.092,-0.044 -0.092,-0.1 z"
     fill="currentColor"
     id="path308"
     style="stroke-width:0.004" />
  <path
     d="m 47.1819,23.682795 c 0,0.04 -0.032,0.076 -0.072,0.076 -0.04,0 -0.076,-0.036 -0.076,-0.076 v -0.58 l -0.332,0.124 v 0.632 c 0,0.04 -0.036,0.076 -0.076,0.076 -0.04,0 -0.072,-0.036 -0.072,-0.076 v -0.58 l -0.128,0.048 c -0.008,0.004 -0.02,0.004 -0.028,0.004 -0.044,0 -0.08,-0.036 -0.08,-0.08 v -0.24 c 0,-0.032 0.02,-0.064 0.052,-0.076 l 0.184,-0.064 v -0.64 l -0.128,0.044 c -0.008,0.004 -0.02,0.004 -0.028,0.004 -0.044,0 -0.08,-0.036 -0.08,-0.08 v -0.24 c 0,-0.032 0.02,-0.06 0.052,-0.072 l 0.184,-0.068 v -0.632 c 0,-0.04 0.032,-0.076 0.072,-0.076 0.04,0 0.076,0.036 0.076,0.076 v 0.58 l 0.332,-0.124 v -0.632 c 0,-0.04 0.036,-0.076 0.076,-0.076 0.04,0 0.072,0.036 0.072,0.076 v 0.58 l 0.128,-0.048 c 0.008,-0.004 0.02,-0.004 0.028,-0.004 0.044,0 0.08,0.036 0.08,0.08 v 0.24 c 0,0.032 -0.02,0.064 -0.052,0.076 l -0.184,0.064 v 0.64 l 0.128,-0.044 c 0.008,-0.004 0.02,-0.004 0.028,-0.004 0.044,0 0.08,0.036 0.08,0.08 v 0.24 c 0,0.032 -0.02,0.06 -0.052,0.072 l -0.184,0.068 z m -0.48,-1.508 v 0.64 l 0.332,-0.12 v -0.64 z"
     fill="currentColor"
     id="path310"
     style="stroke-width:0.004" />
  <text
     font-family="'Roboto Light'"
     font-size="2.2001px"
     text-anchor="start"
     fill="currentColor"
     id="text314"
     x="25.000601"
     y="27.157795"><tspan
       id="tspan312">Menor</tspan></text>
  <text
     font-family="'Roboto Light'"
     font-size="2.2001px"
     text-anchor="start"
     fill="currentColor"
     id="text318"
     x="23.378799"
     y="30.157795"><tspan
       id="tspan316">de sétima</tspan></text>
  <text
     font-family="'Roboto Light'"
     font-size="2.2001px"
     text-anchor="start"
     fill="currentColor"
     id="text322"
     x="44.150101"
     y="27.157795"><tspan
       id="tspan320">Aumentado</tspan></text>
  <text
     font-family="'Roboto Light'"
     font-size="2.2001px"
     text-anchor="start"
     fill="currentColor"
     id="text326"
     x="45.054901"
     y="30.157795"><tspan
       id="tspan324">de sétima</tspan></text>
  <path
     d="m 49.6879,20.986795 c -0.2,0 -0.276,0.172 -0.276,0.352 0,0.308 0.228,0.544 0.536,0.544 0.2,0 0.276,-0.172 0.276,-0.352 0,-0.308 -0.228,-0.544 -0.536,-0.544 z m 1.12,0.448 c 0,0.172 -0.14,0.304 -0.292,0.388 -0.212,0.12 -0.452,0.164 -0.696,0.164 -0.244,0 -0.488,-0.044 -0.7,-0.164 -0.152,-0.084 -0.292,-0.216 -0.292,-0.388 0,-0.172 0.14,-0.304 0.292,-0.388 0.212,-0.12 0.456,-0.164 0.7,-0.164 0.244,0 0.484,0.044 0.696,0.164 0.152,0.084 0.292,0.216 0.292,0.388 z"
     fill="currentColor"
     id="path328"
     style="stroke-width:0.004" />
  <path
     d="m 49.6879,21.986795 c -0.2,0 -0.276,0.172 -0.276,0.352 0,0.308 0.228,0.544 0.536,0.544 0.2,0 0.276,-0.172 0.276,-0.352 0,-0.308 -0.228,-0.544 -0.536,-0.544 z m 1.12,0.448 c 0,0.172 -0.14,0.304 -0.292,0.388 -0.212,0.12 -0.452,0.164 -0.696,0.164 -0.244,0 -0.488,-0.044 -0.7,-0.164 -0.152,-0.084 -0.292,-0.216 -0.292,-0.388 0,-0.172 0.14,-0.304 0.292,-0.388 0.212,-0.12 0.456,-0.164 0.7,-0.164 0.244,0 0.484,0.044 0.696,0.164 0.152,0.084 0.292,0.216 0.292,0.388 z"
     fill="currentColor"
     id="path330"
     style="stroke-width:0.004" />
  <path
     d="m 49.6879,22.986795 c -0.2,0 -0.276,0.172 -0.276,0.352 0,0.308 0.228,0.544 0.536,0.544 0.2,0 0.276,-0.172 0.276,-0.352 0,-0.308 -0.228,-0.544 -0.536,-0.544 z m 1.12,0.448 c 0,0.172 -0.14,0.304 -0.292,0.388 -0.212,0.12 -0.452,0.164 -0.696,0.164 -0.244,0 -0.488,-0.044 -0.7,-0.164 -0.152,-0.084 -0.292,-0.216 -0.292,-0.388 0,-0.172 0.14,-0.304 0.292,-0.388 0.212,-0.12 0.456,-0.164 0.7,-0.164 0.244,0 0.484,0.044 0.696,0.164 0.152,0.084 0.292,0.216 0.292,0.388 z"
     fill="currentColor"
     id="path332"
     style="stroke-width:0.004" />
  <path
     d="m 49.6879,23.986795 c -0.2,0 -0.276,0.172 -0.276,0.352 0,0.308 0.228,0.544 0.536,0.544 0.2,0 0.276,-0.172 0.276,-0.352 0,-0.308 -0.228,-0.544 -0.536,-0.544 z m 1.12,0.448 c 0,0.172 -0.14,0.304 -0.292,0.388 -0.212,0.12 -0.452,0.164 -0.696,0.164 -0.244,0 -0.488,-0.044 -0.7,-0.164 -0.152,-0.084 -0.292,-0.216 -0.292,-0.388 0,-0.172 0.14,-0.304 0.292,-0.388 0.212,-0.12 0.456,-0.164 0.7,-0.164 0.244,0 0.484,0.044 0.696,0.164 0.152,0.084 0.292,0.216 0.292,0.388 z"
     fill="currentColor"
     id="path334"
     style="stroke-width:0.004" />
  <text
     font-family="sans-serif"
     font-size="2.6163px"
     text-anchor="start"
     fill="currentColor"
     id="text338"
     x="48.8279"
     y="18.850695"><tspan
       id="tspan336">C</tspan></text>
  <text
     font-family="sans-serif"
     font-size="2.6163px"
     text-anchor="start"
     fill="currentColor"
     id="text342"
     x="50.637501"
     y="18.850695"><tspan
       id="tspan340" /></text>
  <text
     font-family="sans-serif"
     font-size="2.6163px"
     text-anchor="start"
     fill="currentColor"
     id="text346"
     x="50.637501"
     y="18.850695"><tspan
       id="tspan344" /></text>
  <text
     font-family="sans-serif"
     font-size="1.85px"
     text-anchor="start"
     fill="currentColor"
     id="text350"
     x="50.637501"
     y="17.350695"><tspan
       id="tspan348" /></text>
  <text
     font-family="sans-serif"
     font-size="1.85px"
     text-anchor="start"
     fill="currentColor"
     id="text354"
     x="50.637501"
     y="17.350695"><tspan
       id="tspan352">7</tspan></text>
  <path
     d="m 52.8924,17.737695 c -0.036,0 -0.063,-0.027 -0.063,-0.063 v -0.414 l -0.237,0.09 v 0.462 c 0,0.036 -0.027,0.063 -0.063,0.063 -0.036,0 -0.063,-0.027 -0.063,-0.063 v -0.414 l -0.066,0.024 c -0.009,0.003 -0.018,0.006 -0.027,0.006 -0.039,0 -0.075,-0.033 -0.075,-0.075 v -0.162 c 0,-0.03 0.018,-0.06 0.048,-0.072 l 0.12,-0.045 v -0.465 l -0.066,0.027 c -0.009,0.003 -0.018,0.003 -0.027,0.003 -0.039,0 -0.075,-0.033 -0.075,-0.075 v -0.162 c 0,-0.03 0.018,-0.057 0.048,-0.069 l 0.12,-0.045 v -0.462 c 0,-0.036 0.027,-0.063 0.063,-0.063 0.036,0 0.063,0.027 0.063,0.063 v 0.414 l 0.237,-0.09 v -0.462 c 0,-0.036 0.027,-0.063 0.063,-0.063 0.036,0 0.063,0.027 0.063,0.063 v 0.414 l 0.066,-0.024 c 0.009,-0.003 0.018,-0.006 0.027,-0.006 0.039,0 0.075,0.033 0.075,0.075 v 0.162 c 0,0.03 -0.018,0.06 -0.048,0.072 l -0.12,0.045 v 0.465 l 0.066,-0.027 c 0.009,-0.003 0.018,-0.003 0.027,-0.003 0.039,0 0.075,0.033 0.075,0.075 v 0.162 c 0,0.03 -0.018,0.057 -0.048,0.069 l -0.12,0.045 v 0.462 c 0,0.036 -0.027,0.063 -0.063,0.063 z m -0.3,-1.173 v 0.462 l 0.237,-0.09 v -0.462 z"
     fill="currentColor"
     id="path356"
     style="stroke-width:0.003" />
  <text
     font-family="sans-serif"
     font-size="1.85px"
     text-anchor="start"
     fill="currentColor"
     id="text360"
     x="53.122398"
     y="17.350695"><tspan
       id="tspan358">5</tspan></text>
</svg>
