<?xml version="1.0" encoding="UTF-8" standalone="no"?>
<svg
   version="1.2"
   width="159.20001mm"
   height="22.570871mm"
   viewBox="0 0 90.593601 12.844072"
   id="svg126"
   xmlns="http://www.w3.org/2000/svg"
   xmlns:svg="http://www.w3.org/2000/svg">
  <defs
     id="defs130" />
  <!-- Page: 1/1 -->
  <text
     font-family="'Century Schoolbook L'"
     font-size="2.2001px"
     text-anchor="start"
     fill="currentColor"
     id="text4"
     y="-0.8725276"><tspan
       id="tspan2" /></text>
  <rect
     x="8.2049999"
     y="8.2846727"
     width="2.97"
     height="0.2"
     ry="0.1"
     fill="currentColor"
     id="rect6" />
  <rect
     x="43.8876"
     y="8.2846727"
     width="2.97"
     height="0.2"
     ry="0.1"
     fill="currentColor"
     id="rect8" />
  <line
     stroke-linejoin="round"
     stroke-linecap="round"
     stroke-width="0.1"
     stroke="currentColor"
     x1="0.050000001"
     y1="7.3846726"
     x2="90.543602"
     y2="7.3846726"
     id="line10" />
  <line
     stroke-linejoin="round"
     stroke-linecap="round"
     stroke-width="0.1"
     stroke="currentColor"
     x1="0.050000001"
     y1="6.3846726"
     x2="90.543602"
     y2="6.3846726"
     id="line12" />
  <line
     stroke-linejoin="round"
     stroke-linecap="round"
     stroke-width="0.1"
     stroke="currentColor"
     x1="0.050000001"
     y1="5.3846726"
     x2="90.543602"
     y2="5.3846726"
     id="line14" />
  <line
     stroke-linejoin="round"
     stroke-linecap="round"
     stroke-width="0.1"
     stroke="currentColor"
     x1="0.050000001"
     y1="4.3846726"
     x2="90.543602"
     y2="4.3846726"
     id="line16" />
  <line
     stroke-linejoin="round"
     stroke-linecap="round"
     stroke-width="0.1"
     stroke="currentColor"
     x1="0.050000001"
     y1="3.3846724"
     x2="90.543602"
     y2="3.3846724"
     id="line18" />
  <rect
     x="89.993599"
     y="3.3846724"
     width="0.60000002"
     height="4"
     ry="0.0000"
     fill="currentColor"
     id="rect20" />
  <rect
     x="89.503601"
     y="3.3846724"
     width="0.19"
     height="4"
     ry="0.0000"
     fill="currentColor"
     id="rect22" />
  <rect
     x="17.9883"
     y="3.3846724"
     width="0.19"
     height="4"
     ry="0.0000"
     fill="currentColor"
     id="rect24" />
  <rect
     x="29.7192"
     y="3.3846724"
     width="0.19"
     height="4"
     ry="0.0000"
     fill="currentColor"
     id="rect26" />
  <rect
     x="41.940102"
     y="3.3846724"
     width="0.19"
     height="4"
     ry="0.0000"
     fill="currentColor"
     id="rect28" />
  <rect
     x="41.4501"
     y="3.3846724"
     width="0.19"
     height="4"
     ry="0.0000"
     fill="currentColor"
     id="rect30" />
  <rect
     x="77.452698"
     y="3.3846724"
     width="0.19"
     height="4"
     ry="0.0000"
     fill="currentColor"
     id="rect32" />
  <rect
     x="53.671001"
     y="3.3846724"
     width="0.19"
     height="4"
     ry="0.0000"
     fill="currentColor"
     id="rect34" />
  <rect
     x="65.401802"
     y="3.3846724"
     width="0.19"
     height="4"
     ry="0.0000"
     fill="currentColor"
     id="rect36" />
  <path
     d="m 68.8075,10.092172 c 0.0736,-0.048 0.1472,-0.0928 0.1984,-0.1631996 0.0384,-0.0512 0.064,-0.112 0.0896,-0.1664 0.0064,-0.0128 0.0192,-0.0192 0.032,-0.0192 0.0224,0 0.0448,0.016 0.0448,0.048 v 0.7455996 h 0.2432 c 0.0352,0 0.0512,0.0256 0.0512,0.0512 0,0.0256 -0.016,0.0512 -0.0512,0.0512 h -0.2432 v 0.0064 c 0,0.16 0.096,0.3104 0.2464,0.3104 0.0288,0 0.0384,0.0224 0.0384,0.0416 0,0.0192 -0.0096,0.0416 -0.0384,0.0416 -0.1472,0 -0.2944,-0.0416 -0.4416,-0.0416 -0.1472,0 -0.2976,0.0416 -0.4448,0.0416 -0.0288,0 -0.0384,-0.0224 -0.0384,-0.0416 0,-0.0192 0.0096,-0.0416 0.0384,-0.0416 0.1504,0 0.2464,-0.1504 0.2464,-0.3104 v -0.0064 h -0.512 c -0.0832,0 -0.1088,-0.048 -0.1088,-0.08 0,-0.0096 0.0032,-0.0192 0.0064,-0.0224 0.2528,-0.2912 0.4192,-0.6559996 0.4192,-1.0399996 0,-0.032 0.0224,-0.0576 0.048,-0.0576 h 0.0096 c 0.0768,0.0224 0.1568,0.0416 0.2368,0.0416 0.08,0 0.16,-0.0192 0.2368,-0.0416 0.0064,-0.0032 0.0096,-0.0032 0.016,-0.0032 0.0288,0 0.048,0.0224 0.048,0.0416 0,0.0064 0,0.0128 -0.0064,0.0192 l -0.9056,1.0399996 h 0.512 v -0.368 c 0,-0.0288 0.0032,-0.0608 0.0288,-0.0768 z"
     fill="currentColor"
     id="path38"
     style="stroke-width:0.0032" />
  <path
     d="m 68.6539,11.327272 c -0.096,0 -0.2016,0.0256 -0.2016,0.1088 0,0.0672 0.112,0.08 0.112,0.1472 0,0.0992 -0.08,0.1792 -0.1792,0.1792 -0.0992,0 -0.1792,-0.08 -0.1792,-0.1792 0,-0.2112 0.2176,-0.3392 0.448,-0.3392 0.2944,0 0.5472,0.1024 0.5472,0.3648 0,0.1344 -0.0192,0.2528 -0.1376,0.3072 -0.032,0.016 -0.048,0.048 -0.048,0.08 0,0.032 0.016,0.0608 0.048,0.0768 0.1312,0.0608 0.1856,0.1792 0.1856,0.3232 0,0.2976 -0.2592,0.448 -0.5824,0.448 -0.256,0 -0.5024,-0.1376 -0.5024,-0.3712 0,-0.112 0.0928,-0.2048 0.2048,-0.2048 0.112,0 0.2048,0.0928 0.2048,0.2048 0,0.0768 -0.1248,0.0928 -0.1248,0.1696 0,0.0928 0.112,0.1184 0.2176,0.1184 0.1504,0 0.1888,-0.1888 0.1888,-0.3648 v -0.0896 c 0,-0.1504 -0.0064,-0.2592 -0.1472,-0.2592 h -0.2464 c -0.0352,0 -0.0512,-0.0256 -0.0512,-0.0512 0,-0.0256 0.016,-0.0512 0.0512,-0.0512 h 0.2464 c 0.1408,0 0.1472,-0.1184 0.1472,-0.2752 v -0.0608 c 0,-0.1696 -0.048,-0.2816 -0.2016,-0.2816 z"
     fill="currentColor"
     id="path40"
     style="stroke-width:0.0032" />
  <path
     d="m 79.3552,4.9366724 c -0.2,0 -0.276,0.172 -0.276,0.352 0,0.308 0.228,0.544 0.536,0.544 0.2,0 0.276,-0.172 0.276,-0.352 0,-0.308 -0.228,-0.544 -0.536,-0.544 z m 1.12,0.448 c 0,0.172 -0.14,0.304 -0.292,0.388 -0.212,0.12 -0.452,0.164 -0.696,0.164 -0.244,0 -0.488,-0.044 -0.7,-0.164 -0.152,-0.084 -0.292,-0.216 -0.292,-0.388 0,-0.172 0.14,-0.304 0.292,-0.388 0.212,-0.12 0.456,-0.164 0.7,-0.164 0.244,0 0.484,0.044 0.696,0.164 0.152,0.084 0.292,0.216 0.292,0.388 z"
     fill="currentColor"
     id="path42"
     style="stroke-width:0.004" />
  <path
     d="m 81.0752,4.4366724 c -0.2,0 -0.276,0.172 -0.276,0.352 0,0.308 0.228,0.544 0.536,0.544 0.2,0 0.276,-0.172 0.276,-0.352 0,-0.308 -0.228,-0.544 -0.536,-0.544 z m 1.12,0.448 c 0,0.172 -0.14,0.304 -0.292,0.388 -0.212,0.12 -0.452,0.164 -0.696,0.164 -0.244,0 -0.488,-0.044 -0.7,-0.164 -0.152,-0.084 -0.292,-0.216 -0.292,-0.388 0,-0.172 0.14,-0.304 0.292,-0.388 0.212,-0.12 0.456,-0.164 0.7,-0.164 0.244,0 0.484,0.044 0.696,0.164 0.152,0.084 0.292,0.216 0.292,0.388 z"
     fill="currentColor"
     id="path44"
     style="stroke-width:0.004" />
  <path
     d="m 81.0752,3.4366724 c -0.2,0 -0.276,0.172 -0.276,0.352 0,0.308 0.228,0.544 0.536,0.544 0.2,0 0.276,-0.172 0.276,-0.352 0,-0.308 -0.228,-0.544 -0.536,-0.544 z m 1.12,0.448 c 0,0.172 -0.14,0.304 -0.292,0.388 -0.212,0.12 -0.452,0.164 -0.696,0.164 -0.244,0 -0.488,-0.044 -0.7,-0.164 -0.152,-0.084 -0.292,-0.216 -0.292,-0.388 0,-0.172 0.14,-0.304 0.292,-0.388 0.212,-0.12 0.456,-0.164 0.7,-0.164 0.244,0 0.484,0.044 0.696,0.164 0.152,0.084 0.292,0.216 0.292,0.388 z"
     fill="currentColor"
     id="path46"
     style="stroke-width:0.004" />
  <path
     d="m 56.9735,6.9366724 c -0.2,0 -0.276,0.172 -0.276,0.352 0,0.308 0.228,0.544 0.536,0.544 0.2,0 0.276,-0.172 0.276,-0.352 0,-0.308 -0.228,-0.544 -0.536,-0.544 z m 1.12,0.448 c 0,0.172 -0.14,0.304 -0.292,0.388 -0.212,0.12 -0.452,0.164 -0.696,0.164 -0.244,0 -0.488,-0.044 -0.7,-0.164 -0.152,-0.084 -0.292,-0.216 -0.292,-0.388 0,-0.172 0.14,-0.304 0.292,-0.388 0.212,-0.12 0.456,-0.164 0.7,-0.164 0.244,0 0.484,0.044 0.696,0.164 0.152,0.084 0.292,0.216 0.292,0.388 z"
     fill="currentColor"
     id="path48"
     style="stroke-width:0.004" />
  <path
     d="m 56.9735,5.9366724 c -0.2,0 -0.276,0.172 -0.276,0.352 0,0.308 0.228,0.544 0.536,0.544 0.2,0 0.276,-0.172 0.276,-0.352 0,-0.308 -0.228,-0.544 -0.536,-0.544 z m 1.12,0.448 c 0,0.172 -0.14,0.304 -0.292,0.388 -0.212,0.12 -0.452,0.164 -0.696,0.164 -0.244,0 -0.488,-0.044 -0.7,-0.164 -0.152,-0.084 -0.292,-0.216 -0.292,-0.388 0,-0.172 0.14,-0.304 0.292,-0.388 0.212,-0.12 0.456,-0.164 0.7,-0.164 0.244,0 0.484,0.044 0.696,0.164 0.152,0.084 0.292,0.216 0.292,0.388 z"
     fill="currentColor"
     id="path50"
     style="stroke-width:0.004" />
  <path
     d="m 56.9735,4.9366724 c -0.2,0 -0.276,0.172 -0.276,0.352 0,0.308 0.228,0.544 0.536,0.544 0.2,0 0.276,-0.172 0.276,-0.352 0,-0.308 -0.228,-0.544 -0.536,-0.544 z m 1.12,0.448 c 0,0.172 -0.14,0.304 -0.292,0.388 -0.212,0.12 -0.452,0.164 -0.696,0.164 -0.244,0 -0.488,-0.044 -0.7,-0.164 -0.152,-0.084 -0.292,-0.216 -0.292,-0.388 0,-0.172 0.14,-0.304 0.292,-0.388 0.212,-0.12 0.456,-0.164 0.7,-0.164 0.244,0 0.484,0.044 0.696,0.164 0.152,0.084 0.292,0.216 0.292,0.388 z"
     fill="currentColor"
     id="path52"
     style="stroke-width:0.004" />
  <path
     d="m 58.6935,4.4366724 c -0.2,0 -0.276,0.172 -0.276,0.352 0,0.308 0.228,0.544 0.536,0.544 0.2,0 0.276,-0.172 0.276,-0.352 0,-0.308 -0.228,-0.544 -0.536,-0.544 z m 1.12,0.448 c 0,0.172 -0.14,0.304 -0.292,0.388 -0.212,0.12 -0.452,0.164 -0.696,0.164 -0.244,0 -0.488,-0.044 -0.7,-0.164 -0.152,-0.084 -0.292,-0.216 -0.292,-0.388 0,-0.172 0.14,-0.304 0.292,-0.388 0.212,-0.12 0.456,-0.164 0.7,-0.164 0.244,0 0.484,0.044 0.696,0.164 0.152,0.084 0.292,0.216 0.292,0.388 z"
     fill="currentColor"
     id="path54"
     style="stroke-width:0.004" />
  <path
     d="m 56.6671,10.220172 c -0.1504,0 -0.16,0.1184 -0.16,0.2816 v 0.0864 0.0864 c 0,0.1632 0.0096,0.2816 0.16,0.2816 0.1792,0 0.1856,-0.16 0.1856,-0.368 0,-0.208 -0.0064,-0.368 -0.1856,-0.368 z m -0.16,-0.0416 c 0.0512,-0.0224 0.1024,-0.0416 0.16,-0.0416 0.3296,0 0.5536,0.144 0.5536,0.4512 0,0.3072 -0.224,0.4512 -0.5536,0.4512 -0.3616,0 -0.5536,-0.3968 -0.5536,-0.8 0,-0.4127996 0.24,-0.7999996 0.6208,-0.7999996 0.2304,0 0.4448,0.128 0.4448,0.3392 0,0.112 -0.0928,0.2048 -0.2048,0.2048 -0.112,0 -0.2048,-0.0928 -0.2048,-0.2048 0,-0.0736 0.1216,-0.08 0.1216,-0.1536 0,-0.0704 -0.0768,-0.1024 -0.1568,-0.1024 -0.2016,0 -0.2336,0.1888 -0.2336,0.416 0,0.0768 0.0064,0.1599996 0.0064,0.2399996 z"
     fill="currentColor"
     id="path56"
     style="stroke-width:0.0032" />
  <path
     d="m 56.2735,11.244072 c 0.144,0.0256 0.2912,0.0416 0.4384,0.0416 0.1472,0 0.2944,-0.016 0.4384,-0.0416 h 0.0128 c 0.032,0 0.0544,0.0224 0.0544,0.0416 0,0.0064 0,0.0096 -0.0064,0.016 -0.2176,0.2176 -0.528,0.3104 -0.8352,0.3104 -0.032,0 -0.0576,0.0256 -0.0576,0.0576 v 0.2752 c 0.0896,-0.0896 0.2112,-0.128 0.336,-0.128 0.3712,0 0.5984,0.1632 0.5984,0.5152 0,0.304 -0.2944,0.512 -0.6176,0.512 -0.2656,0 -0.5216,-0.1344 -0.5216,-0.3712 0,-0.112 0.0928,-0.2048 0.2048,-0.2048 0.112,0 0.2048,0.0928 0.2048,0.2048 0,0.0768 -0.1248,0.0928 -0.1248,0.1696 0,0.0992 0.1216,0.1184 0.2368,0.1184 0.1792,0 0.2272,-0.2208 0.2272,-0.4288 0,-0.1952 -0.0384,-0.4128 -0.208,-0.4128 -0.1344,0 -0.2688,0.0288 -0.3456,0.1344 -0.0096,0.016 -0.0256,0.0224 -0.0416,0.0224 -0.0256,0 -0.0544,-0.0192 -0.0544,-0.0512 v -0.7232 c 0,-0.032 0.0224,-0.0576 0.0512,-0.0576 z"
     fill="currentColor"
     id="path58"
     style="stroke-width:0.0032" />
  <path
     d="m 69.0243,5.9366724 c -0.2,0 -0.276,0.172 -0.276,0.352 0,0.308 0.228,0.544 0.536,0.544 0.2,0 0.276,-0.172 0.276,-0.352 0,-0.308 -0.228,-0.544 -0.536,-0.544 z m 1.12,0.448 c 0,0.172 -0.14,0.304 -0.292,0.388 -0.212,0.12 -0.452,0.164 -0.696,0.164 -0.244,0 -0.488,-0.044 -0.7,-0.164 -0.152,-0.084 -0.292,-0.216 -0.292,-0.388 0,-0.172 0.14,-0.304 0.292,-0.388 0.212,-0.12 0.456,-0.164 0.7,-0.164 0.244,0 0.484,0.044 0.696,0.164 0.152,0.084 0.292,0.216 0.292,0.388 z"
     fill="currentColor"
     id="path60"
     style="stroke-width:0.004" />
  <path
     d="m 67.3043,4.9366724 c -0.2,0 -0.276,0.172 -0.276,0.352 0,0.308 0.228,0.544 0.536,0.544 0.2,0 0.276,-0.172 0.276,-0.352 0,-0.308 -0.228,-0.544 -0.536,-0.544 z m 1.12,0.448 c 0,0.172 -0.14,0.304 -0.292,0.388 -0.212,0.12 -0.452,0.164 -0.696,0.164 -0.244,0 -0.488,-0.044 -0.7,-0.164 -0.152,-0.084 -0.292,-0.216 -0.292,-0.388 0,-0.172 0.14,-0.304 0.292,-0.388 0.212,-0.12 0.456,-0.164 0.7,-0.164 0.244,0 0.484,0.044 0.696,0.164 0.152,0.084 0.292,0.216 0.292,0.388 z"
     fill="currentColor"
     id="path62"
     style="stroke-width:0.004" />
  <path
     d="m 69.0243,4.4366724 c -0.2,0 -0.276,0.172 -0.276,0.352 0,0.308 0.228,0.544 0.536,0.544 0.2,0 0.276,-0.172 0.276,-0.352 0,-0.308 -0.228,-0.544 -0.536,-0.544 z m 1.12,0.448 c 0,0.172 -0.14,0.304 -0.292,0.388 -0.212,0.12 -0.452,0.164 -0.696,0.164 -0.244,0 -0.488,-0.044 -0.7,-0.164 -0.152,-0.084 -0.292,-0.216 -0.292,-0.388 0,-0.172 0.14,-0.304 0.292,-0.388 0.212,-0.12 0.456,-0.164 0.7,-0.164 0.244,0 0.484,0.044 0.696,0.164 0.152,0.084 0.292,0.216 0.292,0.388 z"
     fill="currentColor"
     id="path64"
     style="stroke-width:0.004" />
  <path
     d="m 69.0243,3.4366724 c -0.2,0 -0.276,0.172 -0.276,0.352 0,0.308 0.228,0.544 0.536,0.544 0.2,0 0.276,-0.172 0.276,-0.352 0,-0.308 -0.228,-0.544 -0.536,-0.544 z m 1.12,0.448 c 0,0.172 -0.14,0.304 -0.292,0.388 -0.212,0.12 -0.452,0.164 -0.696,0.164 -0.244,0 -0.488,-0.044 -0.7,-0.164 -0.152,-0.084 -0.292,-0.216 -0.292,-0.388 0,-0.172 0.14,-0.304 0.292,-0.388 0.212,-0.12 0.456,-0.164 0.7,-0.164 0.244,0 0.484,0.044 0.696,0.164 0.152,0.084 0.292,0.216 0.292,0.388 z"
     fill="currentColor"
     id="path66"
     style="stroke-width:0.004" />
  <path
     d="m 81.0752,2.4366724 c -0.2,0 -0.276,0.172 -0.276,0.352 0,0.308 0.228,0.544 0.536,0.544 0.2,0 0.276,-0.172 0.276,-0.352 0,-0.308 -0.228,-0.544 -0.536,-0.544 z m 1.12,0.448 c 0,0.172 -0.14,0.304 -0.292,0.388 -0.212,0.12 -0.452,0.164 -0.696,0.164 -0.244,0 -0.488,-0.044 -0.7,-0.164 -0.152,-0.084 -0.292,-0.216 -0.292,-0.388 0,-0.172 0.14,-0.304 0.292,-0.388 0.212,-0.12 0.456,-0.164 0.7,-0.164 0.244,0 0.484,0.044 0.696,0.164 0.152,0.084 0.292,0.216 0.292,0.388 z"
     fill="currentColor"
     id="path68"
     style="stroke-width:0.004" />
  <path
     d="m 80.8584,10.092172 c 0.0736,-0.048 0.1472,-0.0928 0.1984,-0.1631996 0.0384,-0.0512 0.064,-0.112 0.0896,-0.1664 0.0064,-0.0128 0.0192,-0.0192 0.032,-0.0192 0.0224,0 0.0448,0.016 0.0448,0.048 v 0.7455996 h 0.2432 c 0.0352,0 0.0512,0.0256 0.0512,0.0512 0,0.0256 -0.016,0.0512 -0.0512,0.0512 h -0.2432 v 0.0064 c 0,0.16 0.096,0.3104 0.2464,0.3104 0.0288,0 0.0384,0.0224 0.0384,0.0416 0,0.0192 -0.0096,0.0416 -0.0384,0.0416 -0.1472,0 -0.2944,-0.0416 -0.4416,-0.0416 -0.1472,0 -0.2976,0.0416 -0.4448,0.0416 -0.0288,0 -0.0384,-0.0224 -0.0384,-0.0416 0,-0.0192 0.0096,-0.0416 0.0384,-0.0416 0.1504,0 0.2464,-0.1504 0.2464,-0.3104 v -0.0064 h -0.512 c -0.0832,0 -0.1088,-0.048 -0.1088,-0.08 0,-0.0096 0.0032,-0.0192 0.0064,-0.0224 0.2528,-0.2912 0.4192,-0.6559996 0.4192,-1.0399996 0,-0.032 0.0224,-0.0576 0.048,-0.0576 h 0.0096 c 0.0768,0.0224 0.1568,0.0416 0.2368,0.0416 0.08,0 0.16,-0.0192 0.2368,-0.0416 0.0064,-0.0032 0.0096,-0.0032 0.016,-0.0032 0.0288,0 0.048,0.0224 0.048,0.0416 0,0.0064 0,0.0128 -0.0064,0.0192 l -0.9056,1.0399996 h 0.512 v -0.368 c 0,-0.0288 0.0032,-0.0608 0.0288,-0.0768 z"
     fill="currentColor"
     id="path70"
     style="stroke-width:0.0032" />
  <path
     d="m 80.2984,12.805672 c -0.0032,0.0256 -0.0224,0.0384 -0.0416,0.0384 -0.0224,0 -0.0416,-0.016 -0.0416,-0.0416 0,-0.5568 0.7488,-0.5248 0.7488,-1.0944 0,-0.1856 -0.0512,-0.3808 -0.2112,-0.3808 -0.0896,0 -0.176,0.0416 -0.176,0.1216 0,0.0864 0.112,0.128 0.112,0.2144 0,0.1184 -0.0992,0.2144 -0.2176,0.2144 -0.1184,0 -0.2144,-0.096 -0.2144,-0.2144 0,-0.2464 0.2336,-0.4192 0.496,-0.4192 0.3104,0 0.6048,0.1792 0.6048,0.464 0,0.4736 -0.4608,0.5056 -0.7744,0.6816 0.0192,-0.0032 0.0352,-0.0032 0.0544,-0.0032 0.1088,0 0.2304,0.0384 0.3456,0.1216 0.064,0.0448 0.1376,0.0704 0.2016,0.0704 0.0704,0 0.128,-0.032 0.144,-0.096 0.0064,-0.0224 0.0224,-0.032 0.0384,-0.032 0.0224,0 0.0416,0.016 0.0416,0.0416 v 0.0128 c -0.0576,0.2144 -0.2592,0.3392 -0.4544,0.3392 -0.1184,0 -0.2336,-0.0448 -0.3136,-0.144 -0.0384,-0.048 -0.0928,-0.0736 -0.1472,-0.0736 -0.0928,0 -0.1856,0.0672 -0.1952,0.1792 z"
     fill="currentColor"
     id="path72"
     style="stroke-width:0.0032" />
  <path
     d="m 21.2909,6.9366724 c -0.2,0 -0.276,0.172 -0.276,0.352 0,0.308 0.228,0.544 0.536,0.544 0.2,0 0.276,-0.172 0.276,-0.352 0,-0.308 -0.228,-0.544 -0.536,-0.544 z m 1.12,0.448 c 0,0.172 -0.14,0.304 -0.292,0.388 -0.212,0.12 -0.452,0.164 -0.696,0.164 -0.244,0 -0.488,-0.044 -0.7,-0.164 -0.152,-0.084 -0.292,-0.216 -0.292,-0.388 0,-0.172 0.14,-0.304 0.292,-0.388 0.212,-0.12 0.456,-0.164 0.7,-0.164 0.244,0 0.484,0.044 0.696,0.164 0.152,0.084 0.292,0.216 0.292,0.388 z"
     fill="currentColor"
     id="path74"
     style="stroke-width:0.004" />
  <path
     d="m 21.2909,5.9366724 c -0.2,0 -0.276,0.172 -0.276,0.352 0,0.308 0.228,0.544 0.536,0.544 0.2,0 0.276,-0.172 0.276,-0.352 0,-0.308 -0.228,-0.544 -0.536,-0.544 z m 1.12,0.448 c 0,0.172 -0.14,0.304 -0.292,0.388 -0.212,0.12 -0.452,0.164 -0.696,0.164 -0.244,0 -0.488,-0.044 -0.7,-0.164 -0.152,-0.084 -0.292,-0.216 -0.292,-0.388 0,-0.172 0.14,-0.304 0.292,-0.388 0.212,-0.12 0.456,-0.164 0.7,-0.164 0.244,0 0.484,0.044 0.696,0.164 0.152,0.084 0.292,0.216 0.292,0.388 z"
     fill="currentColor"
     id="path76"
     style="stroke-width:0.004" />
  <path
     d="m 21.2909,4.4366724 c -0.2,0 -0.276,0.172 -0.276,0.352 0,0.308 0.228,0.544 0.536,0.544 0.2,0 0.276,-0.172 0.276,-0.352 0,-0.308 -0.228,-0.544 -0.536,-0.544 z m 1.12,0.448 c 0,0.172 -0.14,0.304 -0.292,0.388 -0.212,0.12 -0.452,0.164 -0.696,0.164 -0.244,0 -0.488,-0.044 -0.7,-0.164 -0.152,-0.084 -0.292,-0.216 -0.292,-0.388 0,-0.172 0.14,-0.304 0.292,-0.388 0.212,-0.12 0.456,-0.164 0.7,-0.164 0.244,0 0.484,0.044 0.696,0.164 0.152,0.084 0.292,0.216 0.292,0.388 z"
     fill="currentColor"
     id="path78"
     style="stroke-width:0.004" />
  <path
     d="m 20.9845,10.220172 c -0.1504,0 -0.16,0.1184 -0.16,0.2816 v 0.0864 0.0864 c 0,0.1632 0.0096,0.2816 0.16,0.2816 0.1792,0 0.1856,-0.16 0.1856,-0.368 0,-0.208 -0.0064,-0.368 -0.1856,-0.368 z m -0.16,-0.0416 c 0.0512,-0.0224 0.1024,-0.0416 0.16,-0.0416 0.3296,0 0.5536,0.144 0.5536,0.4512 0,0.3072 -0.224,0.4512 -0.5536,0.4512 -0.3616,0 -0.5536,-0.3968 -0.5536,-0.8 0,-0.4127996 0.24,-0.7999996 0.6208,-0.7999996 0.2304,0 0.4448,0.128 0.4448,0.3392 0,0.112 -0.0928,0.2048 -0.2048,0.2048 -0.112,0 -0.2048,-0.0928 -0.2048,-0.2048 0,-0.0736 0.1216,-0.08 0.1216,-0.1536 0,-0.0704 -0.0768,-0.1024 -0.1568,-0.1024 -0.2016,0 -0.2336,0.1888 -0.2336,0.416 0,0.0768 0.0064,0.1599996 0.0064,0.2399996 z"
     fill="currentColor"
     id="path80"
     style="stroke-width:0.0032" />
  <path
     d="m 20.9205,11.327272 c -0.096,0 -0.2016,0.0256 -0.2016,0.1088 0,0.0672 0.112,0.08 0.112,0.1472 0,0.0992 -0.08,0.1792 -0.1792,0.1792 -0.0992,0 -0.1792,-0.08 -0.1792,-0.1792 0,-0.2112 0.2176,-0.3392 0.448,-0.3392 0.2944,0 0.5472,0.1024 0.5472,0.3648 0,0.1344 -0.0192,0.2528 -0.1376,0.3072 -0.032,0.016 -0.048,0.048 -0.048,0.08 0,0.032 0.016,0.0608 0.048,0.0768 0.1312,0.0608 0.1856,0.1792 0.1856,0.3232 0,0.2976 -0.2592,0.448 -0.5824,0.448 -0.256,0 -0.5024,-0.1376 -0.5024,-0.3712 0,-0.112 0.0928,-0.2048 0.2048,-0.2048 0.112,0 0.2048,0.0928 0.2048,0.2048 0,0.0768 -0.1248,0.0928 -0.1248,0.1696 0,0.0928 0.112,0.1184 0.2176,0.1184 0.1504,0 0.1888,-0.1888 0.1888,-0.3648 v -0.0896 c 0,-0.1504 -0.0064,-0.2592 -0.1472,-0.2592 h -0.2464 c -0.0352,0 -0.0512,-0.0256 -0.0512,-0.0512 0,-0.0256 0.016,-0.0512 0.0512,-0.0512 h 0.2464 c 0.1408,0 0.1472,-0.1184 0.1472,-0.2752 v -0.0608 c 0,-0.1696 -0.048,-0.2816 -0.2016,-0.2816 z"
     fill="currentColor"
     id="path82"
     style="stroke-width:0.0032" />
  <text
     font-family="'Roboto Light'"
     font-size="2.2001px"
     text-anchor="start"
     fill="currentColor"
     id="text86"
     x="8.6999998"
     y="1.8004724"><tspan
       id="tspan84">Tríades:</tspan></text>
  <path
     d="m 9.56,7.9366724 c -0.2,0 -0.276,0.172 -0.276,0.352 0,0.308 0.228,0.544 0.536,0.544 0.2,0 0.276,-0.172 0.276,-0.352 0,-0.308 -0.228,-0.544 -0.536,-0.544 z m 1.12,0.448 c 0,0.172 -0.14,0.304 -0.292,0.388 -0.212,0.12 -0.452,0.164 -0.696,0.164 -0.244,0 -0.488,-0.044 -0.7,-0.164 -0.152,-0.084 -0.292,-0.216 -0.292,-0.388 0,-0.172 0.14,-0.304 0.292,-0.388 0.212,-0.12 0.456,-0.164 0.7,-0.164 0.244,0 0.484,0.044 0.696,0.164 0.152,0.084 0.292,0.216 0.292,0.388 z"
     fill="currentColor"
     id="path88"
     style="stroke-width:0.004" />
  <path
     d="m 9.56,6.9366724 c -0.2,0 -0.276,0.172 -0.276,0.352 0,0.308 0.228,0.544 0.536,0.544 0.2,0 0.276,-0.172 0.276,-0.352 0,-0.308 -0.228,-0.544 -0.536,-0.544 z m 1.12,0.448 c 0,0.172 -0.14,0.304 -0.292,0.388 -0.212,0.12 -0.452,0.164 -0.696,0.164 -0.244,0 -0.488,-0.044 -0.7,-0.164 -0.152,-0.084 -0.292,-0.216 -0.292,-0.388 0,-0.172 0.14,-0.304 0.292,-0.388 0.212,-0.12 0.456,-0.164 0.7,-0.164 0.244,0 0.484,0.044 0.696,0.164 0.152,0.084 0.292,0.216 0.292,0.388 z"
     fill="currentColor"
     id="path90"
     style="stroke-width:0.004" />
  <path
     d="m 9.56,5.9366724 c -0.2,0 -0.276,0.172 -0.276,0.352 0,0.308 0.228,0.544 0.536,0.544 0.2,0 0.276,-0.172 0.276,-0.352 0,-0.308 -0.228,-0.544 -0.536,-0.544 z m 1.12,0.448 c 0,0.172 -0.14,0.304 -0.292,0.388 -0.212,0.12 -0.452,0.164 -0.696,0.164 -0.244,0 -0.488,-0.044 -0.7,-0.164 -0.152,-0.084 -0.292,-0.216 -0.292,-0.388 0,-0.172 0.14,-0.304 0.292,-0.388 0.212,-0.12 0.456,-0.164 0.7,-0.164 0.244,0 0.484,0.044 0.696,0.164 0.152,0.084 0.292,0.216 0.292,0.388 z"
     fill="currentColor"
     id="path92"
     style="stroke-width:0.004" />
  <path
     d="m 2.304,5.3366724 c 0.016,0 0.036,-0.004 0.052,-0.004 0.62,0 1.024,0.512 1.024,1.044 0,0.304 -0.132,0.616 -0.428,0.84 -0.088,0.068 -0.188,0.112 -0.292,0.144 0.012,0.14 0.02,0.28 0.02,0.42 0,0.076 -0.004,0.156 -0.008,0.232 -0.028,0.48 -0.36,0.912 -0.832,0.912 -0.432,0 -0.78,-0.352 -0.78,-0.788 0,-0.232 0.212,-0.412 0.448,-0.412 0.216,0 0.38,0.188 0.38,0.412 0,0.208 -0.172,0.38 -0.38,0.38 -0.044,0 -0.084,-0.008 -0.124,-0.024 0.104,0.156 0.272,0.26 0.468,0.26 0.384,0 0.628,-0.368 0.652,-0.764 0.004,-0.072 0.008,-0.148 0.008,-0.22 0,-0.124 -0.004,-0.244 -0.016,-0.368 -0.116,0.02 -0.232,0.032 -0.356,0.032 -0.752,0 -1.332,-0.688 -1.332,-1.496 0,-0.708 0.524,-1.224 0.992,-1.764 -0.076,-0.248 -0.148,-0.5 -0.18,-0.76 -0.024,-0.208 -0.028,-0.416 -0.028,-0.624 0,-0.46 0.22,-0.896 0.596,-1.168 0.012,-0.008 0.028,-0.012 0.04,-0.012 0.016,0 0.028,0 0.04,0.012 0.284,0.336 0.532,0.98 0.532,1.432 0,0.572 -0.344,1.02 -0.72,1.456 0.084,0.272 0.156,0.552 0.224,0.828 z m 0.34,1.86 c 0.272,-0.096 0.452,-0.38 0.452,-0.656 0,-0.36 -0.264,-0.716 -0.692,-0.76 0.096,0.464 0.184,0.924 0.24,1.416 z m -1.548,-0.924 c 0,0.54 0.516,0.988 1.056,0.988 0.112,0 0.22,-0.008 0.328,-0.024 -0.056,-0.508 -0.148,-0.98 -0.252,-1.456 -0.316,0.032 -0.496,0.244 -0.496,0.476 0,0.176 0.1,0.364 0.324,0.492 0.02,0.02 0.028,0.04 0.028,0.06 0,0.044 -0.04,0.088 -0.088,0.088 -0.012,0 -0.024,-0.004 -0.036,-0.008 -0.32,-0.172 -0.468,-0.46 -0.468,-0.74 0,-0.352 0.232,-0.696 0.64,-0.788 -0.056,-0.232 -0.116,-0.468 -0.184,-0.7 -0.428,0.484 -0.852,0.972 -0.852,1.612 z m 1.336,-4.068 c -0.396,0.192 -0.648,0.596 -0.648,1.036 0,0.296 0.072,0.532 0.144,0.776 0.32,-0.388 0.584,-0.792 0.584,-1.296 0,-0.22 -0.016,-0.316 -0.08,-0.516 z"
     fill="currentColor"
     id="path94"
     style="stroke-width:0.004" />
  <path
     d="m 6.436,5.2766724 c -0.196,0 -0.3,-0.168 -0.3,-0.3 0,-0.152 0.108,-0.308 0.288,-0.308 0.016,0 0.036,0 0.056,0.004 -0.112,-0.148 -0.288,-0.236 -0.48,-0.236 -0.424,0 -0.452,0.292 -0.452,0.744 v 0.204 0.204 c 0,0.452 0.028,0.748 0.452,0.748 0.32,0 0.556,-0.28 0.632,-0.604 0.008,-0.028 0.028,-0.04 0.048,-0.04 0.024,0 0.052,0.016 0.052,0.048 0,0.376 -0.42,0.696 -0.732,0.696 -0.272,0 -0.548,-0.084 -0.736,-0.28 -0.196,-0.204 -0.264,-0.488 -0.264,-0.772 0,-0.284 0.068,-0.568 0.264,-0.772 0.188,-0.196 0.464,-0.276 0.736,-0.276 0.348,0 0.64,0.256 0.7,0.6 0.004,0.02 0.004,0.036 0.004,0.052 0,0.16 -0.12,0.288 -0.268,0.288 z"
     fill="currentColor"
     id="path96"
     style="stroke-width:0.004" />
  <path
     d="m 8.86,9.4393724 c 0.144,0.0256 0.2912,0.0416 0.4384,0.0416 0.1472,0 0.2944,-0.016 0.4384,-0.0416 h 0.0128 c 0.032,0 0.0544,0.0224 0.0544,0.0416 0,0.0064 0,0.0096 -0.0064,0.016 -0.2176,0.2176 -0.528,0.3104 -0.8352,0.3104 -0.032,0 -0.0576,0.0256 -0.0576,0.0576 v 0.2751996 c 0.0896,-0.0896 0.2112,-0.128 0.336,-0.128 0.3712,0 0.5984,0.1632 0.5984,0.5152 0,0.304 -0.2944,0.512 -0.6176,0.512 -0.2656,0 -0.5216,-0.1344 -0.5216,-0.3712 0,-0.112 0.0928,-0.2048 0.2048,-0.2048 0.112,0 0.2048,0.0928 0.2048,0.2048 0,0.0768 -0.1248,0.0928 -0.1248,0.1696 0,0.0992 0.1216,0.1184 0.2368,0.1184 0.1792,0 0.2272,-0.2208 0.2272,-0.4288 0,-0.1952 -0.0384,-0.4128 -0.208,-0.4128 -0.1344,0 -0.2688,0.0288 -0.3456,0.1344 -0.0096,0.016 -0.0256,0.0224 -0.0416,0.0224 -0.0256,0 -0.0544,-0.0192 -0.0544,-0.0512 V 9.4969724 c 0,-0.032 0.0224,-0.0576 0.0512,-0.0576 z"
     fill="currentColor"
     id="path98"
     style="stroke-width:0.0032" />
  <path
     d="m 9.1896,11.327272 c -0.096,0 -0.2016,0.0256 -0.2016,0.1088 0,0.0672 0.112,0.08 0.112,0.1472 0,0.0992 -0.08,0.1792 -0.1792,0.1792 -0.0992,0 -0.1792,-0.08 -0.1792,-0.1792 0,-0.2112 0.2176,-0.3392 0.448,-0.3392 0.2944,0 0.5472,0.1024 0.5472,0.3648 0,0.1344 -0.0192,0.2528 -0.1376,0.3072 -0.032,0.016 -0.048,0.048 -0.048,0.08 0,0.032 0.016,0.0608 0.048,0.0768 0.1312,0.0608 0.1856,0.1792 0.1856,0.3232 0,0.2976 -0.2592,0.448 -0.5824,0.448 -0.256,0 -0.5024,-0.1376 -0.5024,-0.3712 0,-0.112 0.0928,-0.2048 0.2048,-0.2048 0.112,0 0.2048,0.0928 0.2048,0.2048 0,0.0768 -0.1248,0.0928 -0.1248,0.1696 0,0.0928 0.112,0.1184 0.2176,0.1184 0.1504,0 0.1888,-0.1888 0.1888,-0.3648 v -0.0896 c 0,-0.1504 -0.0064,-0.2592 -0.1472,-0.2592 H 8.9976 c -0.0352,0 -0.0512,-0.0256 -0.0512,-0.0512 0,-0.0256 0.016,-0.0512 0.0512,-0.0512 H 9.244 c 0.1408,0 0.1472,-0.1184 0.1472,-0.2752 v -0.0608 c 0,-0.1696 -0.048,-0.2816 -0.2016,-0.2816 z"
     fill="currentColor"
     id="path100"
     style="stroke-width:0.0032" />
  <text
     font-family="'Roboto Light'"
     font-size="2.2001px"
     text-anchor="start"
     fill="currentColor"
     id="text104"
     x="44.382599"
     y="1.8004724"><tspan
       id="tspan102">Acordes de sétima:</tspan></text>
  <path
     d="m 45.2426,7.9366724 c -0.2,0 -0.276,0.172 -0.276,0.352 0,0.308 0.228,0.544 0.536,0.544 0.2,0 0.276,-0.172 0.276,-0.352 0,-0.308 -0.228,-0.544 -0.536,-0.544 z m 1.12,0.448 c 0,0.172 -0.14,0.304 -0.292,0.388 -0.212,0.12 -0.452,0.164 -0.696,0.164 -0.244,0 -0.488,-0.044 -0.7,-0.164 -0.152,-0.084 -0.292,-0.216 -0.292,-0.388 0,-0.172 0.14,-0.304 0.292,-0.388 0.212,-0.12 0.456,-0.164 0.7,-0.164 0.244,0 0.484,0.044 0.696,0.164 0.152,0.084 0.292,0.216 0.292,0.388 z"
     fill="currentColor"
     id="path106"
     style="stroke-width:0.004" />
  <path
     d="m 45.2426,6.9366724 c -0.2,0 -0.276,0.172 -0.276,0.352 0,0.308 0.228,0.544 0.536,0.544 0.2,0 0.276,-0.172 0.276,-0.352 0,-0.308 -0.228,-0.544 -0.536,-0.544 z m 1.12,0.448 c 0,0.172 -0.14,0.304 -0.292,0.388 -0.212,0.12 -0.452,0.164 -0.696,0.164 -0.244,0 -0.488,-0.044 -0.7,-0.164 -0.152,-0.084 -0.292,-0.216 -0.292,-0.388 0,-0.172 0.14,-0.304 0.292,-0.388 0.212,-0.12 0.456,-0.164 0.7,-0.164 0.244,0 0.484,0.044 0.696,0.164 0.152,0.084 0.292,0.216 0.292,0.388 z"
     fill="currentColor"
     id="path108"
     style="stroke-width:0.004" />
  <path
     d="m 45.2426,5.9366724 c -0.2,0 -0.276,0.172 -0.276,0.352 0,0.308 0.228,0.544 0.536,0.544 0.2,0 0.276,-0.172 0.276,-0.352 0,-0.308 -0.228,-0.544 -0.536,-0.544 z m 1.12,0.448 c 0,0.172 -0.14,0.304 -0.292,0.388 -0.212,0.12 -0.452,0.164 -0.696,0.164 -0.244,0 -0.488,-0.044 -0.7,-0.164 -0.152,-0.084 -0.292,-0.216 -0.292,-0.388 0,-0.172 0.14,-0.304 0.292,-0.388 0.212,-0.12 0.456,-0.164 0.7,-0.164 0.244,0 0.484,0.044 0.696,0.164 0.152,0.084 0.292,0.216 0.292,0.388 z"
     fill="currentColor"
     id="path110"
     style="stroke-width:0.004" />
  <path
     d="m 45.2426,4.9366724 c -0.2,0 -0.276,0.172 -0.276,0.352 0,0.308 0.228,0.544 0.536,0.544 0.2,0 0.276,-0.172 0.276,-0.352 0,-0.308 -0.228,-0.544 -0.536,-0.544 z m 1.12,0.448 c 0,0.172 -0.14,0.304 -0.292,0.388 -0.212,0.12 -0.452,0.164 -0.696,0.164 -0.244,0 -0.488,-0.044 -0.7,-0.164 -0.152,-0.084 -0.292,-0.216 -0.292,-0.388 0,-0.172 0.14,-0.304 0.292,-0.388 0.212,-0.12 0.456,-0.164 0.7,-0.164 0.244,0 0.484,0.044 0.696,0.164 0.152,0.084 0.292,0.216 0.292,0.388 z"
     fill="currentColor"
     id="path112"
     style="stroke-width:0.004" />
  <path
     d="m 44.6098,9.7465724 c -0.0992,0 -0.1248,0.1472 -0.1248,0.2336 v 0.2079996 c 0,0.0352 -0.0256,0.0512 -0.0512,0.0512 -0.0256,0 -0.0512,-0.016 -0.0512,-0.0512 V 9.4905724 c 0,-0.0352 0.0256,-0.0512 0.0512,-0.0512 0.0256,0 0.0512,0.016 0.0512,0.0512 v 0.048 c 0,0.032 0.0416,0.064 0.0512,0.0512 0.0704,-0.0992 0.1632,-0.1504 0.2592,-0.1504 0.0896,0 0.1856,0.0416 0.2656,0.1248 0.0384,0.0384 0.0832,0.0576 0.1312,0.0576 0.0928,0 0.1984,-0.064 0.2656,-0.16 0.0128,-0.016 0.0224,-0.0224 0.0384,-0.0224 0.0288,0 0.0544,0.0224 0.0544,0.0512 0,0.0096 -0.0032,0.0192 -0.0096,0.0288 -0.2592,0.368 -0.4832,0.7871996 -0.4832,1.2191996 0,0.0832 0.0064,0.1664 0.0256,0.2496 0.0064,0.032 -0.016,0.0608 -0.0448,0.0608 h -0.0128 c -0.08,-0.0224 -0.1632,-0.0512 -0.2464,-0.0512 -0.0832,0 -0.1632,0.0288 -0.2432,0.0512 h -0.016 c -0.0256,0 -0.0448,-0.0224 -0.0448,-0.0448 0,-0.0064 0,-0.0096 0.0032,-0.016 0.1696,-0.4 0.4192,-0.7552 0.6752,-1.1071996 -0.0608,0.0288 -0.1184,0.0448 -0.176,0.0448 -0.0704,0 -0.1408,-0.0256 -0.1984,-0.0864 -0.0512,-0.0512 -0.1152,-0.0928 -0.1696,-0.0928 z"
     fill="currentColor"
     id="path114"
     style="stroke-width:0.0032" />
  <path
     d="m 33.0217,5.9366724 c -0.2,0 -0.276,0.172 -0.276,0.352 0,0.308 0.228,0.544 0.536,0.544 0.2,0 0.276,-0.172 0.276,-0.352 0,-0.308 -0.228,-0.544 -0.536,-0.544 z m 1.12,0.448 c 0,0.172 -0.14,0.304 -0.292,0.388 -0.212,0.12 -0.452,0.164 -0.696,0.164 -0.244,0 -0.488,-0.044 -0.7,-0.164 -0.152,-0.084 -0.292,-0.216 -0.292,-0.388 0,-0.172 0.14,-0.304 0.292,-0.388 0.212,-0.12 0.456,-0.164 0.7,-0.164 0.244,0 0.484,0.044 0.696,0.164 0.152,0.084 0.292,0.216 0.292,0.388 z"
     fill="currentColor"
     id="path116"
     style="stroke-width:0.004" />
  <path
     d="m 33.0217,4.4366724 c -0.2,0 -0.276,0.172 -0.276,0.352 0,0.308 0.228,0.544 0.536,0.544 0.2,0 0.276,-0.172 0.276,-0.352 0,-0.308 -0.228,-0.544 -0.536,-0.544 z m 1.12,0.448 c 0,0.172 -0.14,0.304 -0.292,0.388 -0.212,0.12 -0.452,0.164 -0.696,0.164 -0.244,0 -0.488,-0.044 -0.7,-0.164 -0.152,-0.084 -0.292,-0.216 -0.292,-0.388 0,-0.172 0.14,-0.304 0.292,-0.388 0.212,-0.12 0.456,-0.164 0.7,-0.164 0.244,0 0.484,0.044 0.696,0.164 0.152,0.084 0.292,0.216 0.292,0.388 z"
     fill="currentColor"
     id="path118"
     style="stroke-width:0.004" />
  <path
     d="m 33.0217,3.4366724 c -0.2,0 -0.276,0.172 -0.276,0.352 0,0.308 0.228,0.544 0.536,0.544 0.2,0 0.276,-0.172 0.276,-0.352 0,-0.308 -0.228,-0.544 -0.536,-0.544 z m 1.12,0.448 c 0,0.172 -0.14,0.304 -0.292,0.388 -0.212,0.12 -0.452,0.164 -0.696,0.164 -0.244,0 -0.488,-0.044 -0.7,-0.164 -0.152,-0.084 -0.292,-0.216 -0.292,-0.388 0,-0.172 0.14,-0.304 0.292,-0.388 0.212,-0.12 0.456,-0.164 0.7,-0.164 0.244,0 0.484,0.044 0.696,0.164 0.152,0.084 0.292,0.216 0.292,0.388 z"
     fill="currentColor"
     id="path120"
     style="stroke-width:0.004" />
  <path
     d="m 32.7153,10.220172 c -0.1504,0 -0.16,0.1184 -0.16,0.2816 v 0.0864 0.0864 c 0,0.1632 0.0096,0.2816 0.16,0.2816 0.1792,0 0.1856,-0.16 0.1856,-0.368 0,-0.208 -0.0064,-0.368 -0.1856,-0.368 z m -0.16,-0.0416 c 0.0512,-0.0224 0.1024,-0.0416 0.16,-0.0416 0.3296,0 0.5536,0.144 0.5536,0.4512 0,0.3072 -0.224,0.4512 -0.5536,0.4512 -0.3616,0 -0.5536,-0.3968 -0.5536,-0.8 0,-0.4127996 0.24,-0.7999996 0.6208,-0.7999996 0.2304,0 0.4448,0.128 0.4448,0.3392 0,0.112 -0.0928,0.2048 -0.2048,0.2048 -0.112,0 -0.2048,-0.0928 -0.2048,-0.2048 0,-0.0736 0.1216,-0.08 0.1216,-0.1536 0,-0.0704 -0.0768,-0.1024 -0.1568,-0.1024 -0.2016,0 -0.2336,0.1888 -0.2336,0.416 0,0.0768 0.0064,0.1599996 0.0064,0.2399996 z"
     fill="currentColor"
     id="path122"
     style="stroke-width:0.0032" />
  <path
     d="m 32.8049,11.896872 c 0.0736,-0.048 0.1472,-0.0928 0.1984,-0.1632 0.0384,-0.0512 0.064,-0.112 0.0896,-0.1664 0.0064,-0.0128 0.0192,-0.0192 0.032,-0.0192 0.0224,0 0.0448,0.016 0.0448,0.048 v 0.7456 h 0.2432 c 0.0352,0 0.0512,0.0256 0.0512,0.0512 0,0.0256 -0.016,0.0512 -0.0512,0.0512 h -0.2432 v 0.0064 c 0,0.16 0.096,0.3104 0.2464,0.3104 0.0288,0 0.0384,0.0224 0.0384,0.0416 0,0.0192 -0.0096,0.0416 -0.0384,0.0416 -0.1472,0 -0.2944,-0.0416 -0.4416,-0.0416 -0.1472,0 -0.2976,0.0416 -0.4448,0.0416 -0.0288,0 -0.0384,-0.0224 -0.0384,-0.0416 0,-0.0192 0.0096,-0.0416 0.0384,-0.0416 0.1504,0 0.2464,-0.1504 0.2464,-0.3104 v -0.0064 h -0.512 c -0.0832,0 -0.1088,-0.048 -0.1088,-0.08 0,-0.0096 0.0032,-0.0192 0.0064,-0.0224 0.2528,-0.2912 0.4192,-0.656 0.4192,-1.04 0,-0.032 0.0224,-0.0576 0.048,-0.0576 h 0.0096 c 0.0768,0.0224 0.1568,0.0416 0.2368,0.0416 0.08,0 0.16,-0.0192 0.2368,-0.0416 0.0064,-0.0032 0.0096,-0.0032 0.016,-0.0032 0.0288,0 0.048,0.0224 0.048,0.0416 0,0.0064 0,0.0128 -0.0064,0.0192 l -0.9056,1.04 h 0.512 v -0.368 c 0,-0.0288 0.0032,-0.0608 0.0288,-0.0768 z"
     fill="currentColor"
     id="path124"
     style="stroke-width:0.0032" />
</svg>
