<?xml version="1.0" encoding="UTF-8" standalone="no"?>
<svg
   version="1.2"
   width="172.75212mm"
   height="39.70433mm"
   viewBox="0 0 98.305499 22.593956"
   id="svg324"
   xmlns="http://www.w3.org/2000/svg"
   xmlns:svg="http://www.w3.org/2000/svg">
  <defs
     id="defs328" />
  <!-- Page: 1/1 -->
  <text
     font-family="'Century Schoolbook L'"
     font-size="2.2001px"
     text-anchor="start"
     fill="currentColor"
     id="text4"
     x="6.7705936"
     y="-0.99800003"><tspan
       id="tspan2" /></text>
  <rect
     x="53.256897"
     y="7.4520001"
     width="2.97"
     height="0.2"
     ry="0.1"
     fill="currentColor"
     id="rect6" />
  <rect
     x="88.030594"
     y="1.452"
     width="2.9200001"
     height="0.2"
     ry="0.1"
     fill="currentColor"
     id="rect8" />
  <rect
     x="91.050591"
     y="1.452"
     width="2.9200001"
     height="0.2"
     ry="0.1"
     fill="currentColor"
     id="rect10" />
  <rect
     x="94.267395"
     y="1.452"
     width="2.97"
     height="0.2"
     ry="0.1"
     fill="currentColor"
     id="rect12" />
  <rect
     x="94.267395"
     y="0.45199999"
     width="2.97"
     height="0.2"
     ry="0.1"
     fill="currentColor"
     id="rect14" />
  <line
     stroke-linejoin="round"
     stroke-linecap="round"
     stroke-width="0.1"
     stroke="currentColor"
     x1="6.8205938"
     y1="6.552"
     x2="98.255493"
     y2="6.552"
     id="line16" />
  <line
     stroke-linejoin="round"
     stroke-linecap="round"
     stroke-width="0.1"
     stroke="currentColor"
     x1="6.8205938"
     y1="5.552"
     x2="98.255493"
     y2="5.552"
     id="line18" />
  <line
     stroke-linejoin="round"
     stroke-linecap="round"
     stroke-width="0.1"
     stroke="currentColor"
     x1="6.8205938"
     y1="4.552"
     x2="98.255493"
     y2="4.552"
     id="line20" />
  <line
     stroke-linejoin="round"
     stroke-linecap="round"
     stroke-width="0.1"
     stroke="currentColor"
     x1="6.8205938"
     y1="3.552"
     x2="98.255493"
     y2="3.552"
     id="line22" />
  <line
     stroke-linejoin="round"
     stroke-linecap="round"
     stroke-width="0.1"
     stroke="currentColor"
     x1="6.8205938"
     y1="2.552"
     x2="98.255493"
     y2="2.552"
     id="line24" />
  <rect
     x="12.075594"
     y="18.464001"
     width="2.97"
     height="0.2"
     ry="0.1"
     fill="currentColor"
     id="rect26" />
  <rect
     x="12.075594"
     y="19.464001"
     width="2.97"
     height="0.2"
     ry="0.1"
     fill="currentColor"
     id="rect28" />
  <rect
     x="15.393594"
     y="18.464001"
     width="2.9200001"
     height="0.2"
     ry="0.1"
     fill="currentColor"
     id="rect30" />
  <rect
     x="18.413593"
     y="18.464001"
     width="2.9200001"
     height="0.2"
     ry="0.1"
     fill="currentColor"
     id="rect32" />
  <rect
     x="53.256897"
     y="12.464"
     width="2.97"
     height="0.2"
     ry="0.1"
     fill="currentColor"
     id="rect34" />
  <line
     stroke-linejoin="round"
     stroke-linecap="round"
     stroke-width="0.1"
     stroke="currentColor"
     x1="6.8205938"
     y1="17.563999"
     x2="98.255493"
     y2="17.563999"
     id="line36" />
  <line
     stroke-linejoin="round"
     stroke-linecap="round"
     stroke-width="0.1"
     stroke="currentColor"
     x1="6.8205938"
     y1="16.563999"
     x2="98.255493"
     y2="16.563999"
     id="line38" />
  <line
     stroke-linejoin="round"
     stroke-linecap="round"
     stroke-width="0.1"
     stroke="currentColor"
     x1="6.8205938"
     y1="15.564"
     x2="98.255493"
     y2="15.564"
     id="line40" />
  <line
     stroke-linejoin="round"
     stroke-linecap="round"
     stroke-width="0.1"
     stroke="currentColor"
     x1="6.8205938"
     y1="14.564"
     x2="98.255493"
     y2="14.564"
     id="line42" />
  <line
     stroke-linejoin="round"
     stroke-linecap="round"
     stroke-width="0.1"
     stroke="currentColor"
     x1="6.8205938"
     y1="13.564"
     x2="98.255493"
     y2="13.564"
     id="line44" />
  <rect
     x="98.115494"
     y="6.6019998"
     width="0.19"
     height="6.9619999"
     ry="0.0000"
     fill="currentColor"
     id="rect46" />
  <rect
     x="97.625496"
     y="6.6019998"
     width="0.19"
     height="6.9619999"
     ry="0.0000"
     fill="currentColor"
     id="rect48" />
  <rect
     x="98.115494"
     y="13.514"
     width="0.19"
     height="4.0500002"
     ry="0.0000"
     fill="currentColor"
     id="rect50" />
  <rect
     x="97.625496"
     y="13.514"
     width="0.19"
     height="4.0500002"
     ry="0.0000"
     fill="currentColor"
     id="rect52" />
  <rect
     x="98.115494"
     y="2.552"
     width="0.19"
     height="4.0500002"
     ry="0.0000"
     fill="currentColor"
     id="rect54" />
  <rect
     x="97.625496"
     y="2.552"
     width="0.19"
     height="4.0500002"
     ry="0.0000"
     fill="currentColor"
     id="rect56" />
  <text
     font-family="'Roboto Light'"
     font-size="1.96px"
     text-anchor="start"
     fill="currentColor"
     id="text60"
     x="70.655296"
     y="10.2067"><tspan
       id="tspan58">B4</tspan></text>
  <path
     d="m 71.669094,4.104 c -0.2,0 -0.276,0.172 -0.276,0.352 0,0.308 0.228,0.544 0.536,0.544 0.2,0 0.276,-0.172 0.276,-0.352 0,-0.308 -0.228,-0.544 -0.536,-0.544 z m 1.12,0.448 c 0,0.172 -0.14,0.304 -0.292,0.388 -0.212,0.12 -0.452,0.164 -0.696,0.164 -0.244,0 -0.488,-0.044 -0.7,-0.164 -0.152,-0.084 -0.292,-0.216 -0.292,-0.388 0,-0.172 0.14,-0.304 0.292,-0.388 0.212,-0.12 0.456,-0.164 0.7,-0.164 0.244,0 0.484,0.044 0.696,0.164 0.152,0.084 0.292,0.216 0.292,0.388 z"
     fill="currentColor"
     id="path62"
     style="stroke-width:0.004" />
  <text
     font-family="'Roboto Light'"
     font-size="1.96px"
     text-anchor="start"
     fill="currentColor"
     id="text66"
     x="67.883591"
     y="10.2067"><tspan
       id="tspan64">A4</tspan></text>
  <path
     d="m 68.914494,4.604 c -0.2,0 -0.276,0.172 -0.276,0.352 0,0.308 0.228,0.544 0.536,0.544 0.2,0 0.276,-0.172 0.276,-0.352 0,-0.308 -0.228,-0.544 -0.536,-0.544 z m 1.12,0.448 c 0,0.172 -0.14,0.304 -0.292,0.388 -0.212,0.12 -0.452,0.164 -0.696,0.164 -0.244,0 -0.488,-0.044 -0.7,-0.164 -0.152,-0.084 -0.292,-0.216 -0.292,-0.388 0,-0.172 0.14,-0.304 0.292,-0.388 0.212,-0.12 0.456,-0.164 0.7,-0.164 0.244,0 0.484,0.044 0.696,0.164 0.152,0.084 0.292,0.216 0.292,0.388 z"
     fill="currentColor"
     id="path68"
     style="stroke-width:0.004" />
  <text
     font-family="'Roboto Light'"
     font-size="1.96px"
     text-anchor="start"
     fill="currentColor"
     id="text72"
     x="80.028992"
     y="10.2067"><tspan
       id="tspan70">E5</tspan></text>
  <path
     d="m 81.008694,2.604 c -0.2,0 -0.276,0.172 -0.276,0.352 0,0.308 0.228,0.544 0.536,0.544 0.2,0 0.276,-0.172 0.276,-0.352 0,-0.308 -0.228,-0.544 -0.536,-0.544 z m 1.12,0.448 c 0,0.172 -0.14,0.304 -0.292,0.388 -0.212,0.12 -0.452,0.164 -0.696,0.164 -0.244,0 -0.488,-0.044 -0.7,-0.164 -0.152,-0.084 -0.292,-0.216 -0.292,-0.388 0,-0.172 0.14,-0.304 0.292,-0.388 0.212,-0.12 0.456,-0.164 0.7,-0.164 0.244,0 0.484,0.044 0.696,0.164 0.152,0.084 0.292,0.216 0.292,0.388 z"
     fill="currentColor"
     id="path74"
     style="stroke-width:0.004" />
  <text
     font-family="'Roboto Light'"
     font-size="1.96px"
     text-anchor="start"
     fill="currentColor"
     id="text78"
     x="77.188995"
     y="10.2067"><tspan
       id="tspan76">D5</tspan></text>
  <path
     d="m 78.253994,3.104 c -0.2,0 -0.276,0.172 -0.276,0.352 0,0.308 0.228,0.544 0.536,0.544 0.2,0 0.276,-0.172 0.276,-0.352 0,-0.308 -0.228,-0.544 -0.536,-0.544 z m 1.12,0.448 c 0,0.172 -0.14,0.304 -0.292,0.388 -0.212,0.12 -0.452,0.164 -0.696,0.164 -0.244,0 -0.488,-0.044 -0.7,-0.164 -0.152,-0.084 -0.292,-0.216 -0.292,-0.388 0,-0.172 0.14,-0.304 0.292,-0.388 0.212,-0.12 0.456,-0.164 0.7,-0.164 0.244,0 0.484,0.044 0.696,0.164 0.152,0.084 0.292,0.216 0.292,0.388 z"
     fill="currentColor"
     id="path80"
     style="stroke-width:0.004" />
  <text
     font-family="'Roboto Light'"
     font-size="1.96px"
     text-anchor="start"
     fill="currentColor"
     id="text84"
     x="73.392891"
     y="10.2067"><tspan
       id="tspan82">[C5]</tspan></text>
  <path
     d="m 74.935994,3.604 c -0.2,0 -0.276,0.172 -0.276,0.352 0,0.308 0.228,0.544 0.536,0.544 0.2,0 0.276,-0.172 0.276,-0.352 0,-0.308 -0.228,-0.544 -0.536,-0.544 z m 1.12,0.448 c 0,0.172 -0.14,0.304 -0.292,0.388 -0.212,0.12 -0.452,0.164 -0.696,0.164 -0.244,0 -0.488,-0.044 -0.7,-0.164 -0.152,-0.084 -0.292,-0.216 -0.292,-0.388 0,-0.172 0.14,-0.304 0.292,-0.388 0.212,-0.12 0.456,-0.164 0.7,-0.164 0.244,0 0.484,0.044 0.696,0.164 0.152,0.084 0.292,0.216 0.292,0.388 z"
     fill="currentColor"
     id="path86"
     style="stroke-width:0.004" />
  <path
     d="m 54.611894,7.104 c -0.2,0 -0.276,0.172 -0.276,0.352 0,0.308 0.228,0.544 0.536,0.544 0.2,0 0.276,-0.172 0.276,-0.352 0,-0.308 -0.228,-0.544 -0.536,-0.544 z m 1.12,0.448 c 0,0.172 -0.14,0.304 -0.292,0.388 -0.212,0.12 -0.452,0.164 -0.696,0.164 -0.244,0 -0.488,-0.044 -0.7,-0.164 -0.152,-0.084 -0.292,-0.216 -0.292,-0.388 0,-0.172 0.14,-0.304 0.292,-0.388 0.212,-0.12 0.456,-0.164 0.7,-0.164 0.244,0 0.484,0.044 0.696,0.164 0.152,0.084 0.292,0.216 0.292,0.388 z"
     fill="currentColor"
     id="path88"
     style="stroke-width:0.004" />
  <text
     font-family="'Roboto Light'"
     font-size="1.96px"
     text-anchor="start"
     fill="currentColor"
     id="text92"
     x="53.068893"
     y="10.2067"><tspan
       id="tspan90">[C4]</tspan></text>
  <path
     d="m 54.611894,12.116 c -0.2,0 -0.276,0.172 -0.276,0.352 0,0.308 0.228,0.544 0.536,0.544 0.2,0 0.276,-0.172 0.276,-0.352 0,-0.308 -0.228,-0.544 -0.536,-0.544 z m 1.12,0.448 c 0,0.172 -0.14,0.304 -0.292,0.388 -0.212,0.12 -0.452,0.164 -0.696,0.164 -0.244,0 -0.488,-0.044 -0.7,-0.164 -0.152,-0.084 -0.292,-0.216 -0.292,-0.388 0,-0.172 0.14,-0.304 0.292,-0.388 0.212,-0.12 0.456,-0.164 0.7,-0.164 0.244,0 0.484,0.044 0.696,0.164 0.152,0.084 0.292,0.216 0.292,0.388 z"
     fill="currentColor"
     id="path94"
     style="stroke-width:0.004" />
  <text
     font-family="'Roboto Light'"
     font-size="1.96px"
     text-anchor="start"
     fill="currentColor"
     id="text98"
     x="53.068893"
     y="22.2188"><tspan
       id="tspan96">[C4]</tspan></text>
  <path
     d="m 57.929894,6.604 c -0.2,0 -0.276,0.172 -0.276,0.352 0,0.308 0.228,0.544 0.536,0.544 0.2,0 0.276,-0.172 0.276,-0.352 0,-0.308 -0.228,-0.544 -0.536,-0.544 z m 1.12,0.448 c 0,0.172 -0.14,0.304 -0.292,0.388 -0.212,0.12 -0.452,0.164 -0.696,0.164 -0.244,0 -0.488,-0.044 -0.7,-0.164 -0.152,-0.084 -0.292,-0.216 -0.292,-0.388 0,-0.172 0.14,-0.304 0.292,-0.388 0.212,-0.12 0.456,-0.164 0.7,-0.164 0.244,0 0.484,0.044 0.696,0.164 0.152,0.084 0.292,0.216 0.292,0.388 z"
     fill="currentColor"
     id="path100"
     style="stroke-width:0.004" />
  <text
     font-family="'Roboto Light'"
     font-size="1.96px"
     text-anchor="start"
     fill="currentColor"
     id="text104"
     x="56.864895"
     y="10.2067"><tspan
       id="tspan102">D4</tspan></text>
  <text
     font-family="'Roboto Light'"
     font-size="1.96px"
     text-anchor="start"
     fill="currentColor"
     id="text108"
     x="65.009392"
     y="10.2067"><tspan
       id="tspan106">G4</tspan></text>
  <path
     d="m 66.091494,5.104 c -0.2,0 -0.276,0.172 -0.276,0.352 0,0.308 0.228,0.544 0.536,0.544 0.2,0 0.276,-0.172 0.276,-0.352 0,-0.308 -0.228,-0.544 -0.536,-0.544 z m 1.12,0.448 c 0,0.172 -0.14,0.304 -0.292,0.388 -0.212,0.12 -0.452,0.164 -0.696,0.164 -0.244,0 -0.488,-0.044 -0.7,-0.164 -0.152,-0.084 -0.292,-0.216 -0.292,-0.388 0,-0.172 0.14,-0.304 0.292,-0.388 0.212,-0.12 0.456,-0.164 0.7,-0.164 0.244,0 0.484,0.044 0.696,0.164 0.152,0.084 0.292,0.216 0.292,0.388 z"
     fill="currentColor"
     id="path110"
     style="stroke-width:0.004" />
  <text
     font-family="'Roboto Light'"
     font-size="1.96px"
     text-anchor="start"
     fill="currentColor"
     id="text114"
     x="62.374195"
     y="10.2067"><tspan
       id="tspan112">F4</tspan></text>
  <path
     d="m 63.336794,5.604 c -0.2,0 -0.276,0.172 -0.276,0.352 0,0.308 0.228,0.544 0.536,0.544 0.2,0 0.276,-0.172 0.276,-0.352 0,-0.308 -0.228,-0.544 -0.536,-0.544 z m 1.12,0.448 c 0,0.172 -0.14,0.304 -0.292,0.388 -0.212,0.12 -0.452,0.164 -0.696,0.164 -0.244,0 -0.488,-0.044 -0.7,-0.164 -0.152,-0.084 -0.292,-0.216 -0.292,-0.388 0,-0.172 0.14,-0.304 0.292,-0.388 0.212,-0.12 0.456,-0.164 0.7,-0.164 0.244,0 0.484,0.044 0.696,0.164 0.152,0.084 0.292,0.216 0.292,0.388 z"
     fill="currentColor"
     id="path116"
     style="stroke-width:0.004" />
  <text
     font-family="'Roboto Light'"
     font-size="1.96px"
     text-anchor="start"
     fill="currentColor"
     id="text120"
     x="59.704895"
     y="10.2067"><tspan
       id="tspan118">E4</tspan></text>
  <path
     d="m 60.684594,6.104 c -0.2,0 -0.276,0.172 -0.276,0.352 0,0.308 0.228,0.544 0.536,0.544 0.2,0 0.276,-0.172 0.276,-0.352 0,-0.308 -0.228,-0.544 -0.536,-0.544 z m 1.12,0.448 c 0,0.172 -0.14,0.304 -0.292,0.388 -0.212,0.12 -0.452,0.164 -0.696,0.164 -0.244,0 -0.488,-0.044 -0.7,-0.164 -0.152,-0.084 -0.292,-0.216 -0.292,-0.388 0,-0.172 0.14,-0.304 0.292,-0.388 0.212,-0.12 0.456,-0.164 0.7,-0.164 0.244,0 0.484,0.044 0.696,0.164 0.152,0.084 0.292,0.216 0.292,0.388 z"
     fill="currentColor"
     id="path122"
     style="stroke-width:0.004" />
  <path
     stroke-width="0.08"
     stroke-linejoin="round"
     stroke-linecap="round"
     stroke="currentColor"
     fill="currentColor"
     d="m 63.359551,7.3609245 c 0.08462,-0.078248 0.161728,-0.1646661 0.22956,-0.2589185 -0.07045,0.080379 -0.149866,0.1545556 -0.236483,0.2221952 z"
     id="path124" />
  <path
     stroke-width="0.08"
     stroke-linejoin="round"
     stroke-linecap="round"
     stroke="currentColor"
     fill="currentColor"
     d="m 62.611879,7.7893982 c 0.111069,-0.035315 0.219064,-0.079634 0.322211,-0.1326238 -0.11807,-0.02617 -0.226834,0.014069 -0.338364,0.046936 z"
     id="path126" />
  <path
     stroke-width="0.08"
     stroke-linejoin="round"
     stroke-linecap="round"
     stroke="currentColor"
     fill="currentColor"
     d="m 61.748919,7.8802025 c 0.11536,0.011797 0.232079,0.013753 0.348382,0.0062 -0.131996,-0.075686 -0.247945,-0.073563 -0.362229,-0.079647 z"
     id="path128" />
  <path
     stroke-width="0.08"
     stroke-linejoin="round"
     stroke-linecap="round"
     stroke="currentColor"
     fill="currentColor"
     d="m 60.936867,7.602006 c 0.09749,0.063085 0.200776,0.1154954 0.308075,0.157564 C 61.13272,7.691387 61.031745,7.6512182 60.936867,7.602006 Z"
     id="path130" />
  <path
     stroke-width="0.08"
     stroke-linejoin="round"
     stroke-linecap="round"
     stroke="currentColor"
     fill="currentColor"
     d="m 74.988706,5.3445864 c 0.07558,-0.075516 0.144641,-0.1564533 0.206011,-0.2425804 -0.0635,0.075428 -0.134492,0.1466384 -0.211817,0.2134003 z"
     id="path132" />
  <path
     stroke-width="0.08"
     stroke-linejoin="round"
     stroke-linecap="round"
     stroke="currentColor"
     fill="currentColor"
     d="m 74.317675,5.8056857 c 0.100932,-0.046961 0.19825,-0.099923 0.29079,-0.1586537 -0.106039,-0.00911 -0.204324,0.038985 -0.306031,0.082056 z"
     id="path134" />
  <path
     stroke-width="0.08"
     stroke-linejoin="round"
     stroke-linecap="round"
     stroke="currentColor"
     fill="currentColor"
     d="m 73.511099,6.0417665 c 0.111729,-0.015511 0.222754,-0.037602 0.33191,-0.06604 -0.126768,-0.060074 -0.237793,-0.037984 -0.349328,-0.0215 z"
     id="path136" />
  <path
     stroke-width="0.08"
     stroke-linejoin="round"
     stroke-linecap="round"
     stroke="currentColor"
     fill="currentColor"
     d="m 72.678124,6.0311121 c 0.107972,0.018835 0.218151,0.030511 0.329372,0.03526 -0.125688,-0.077456 -0.234899,-0.084269 -0.34171,-0.097268 z"
     id="path138" />
  <path
     stroke-width="0.08"
     stroke-linejoin="round"
     stroke-linecap="round"
     stroke="currentColor"
     fill="currentColor"
     d="m 71.927894,5.752006 c 0.08966,0.056076 0.184444,0.1044144 0.283177,0.1452465 -0.102798,-0.061258 -0.195643,-0.09987 -0.283177,-0.1452465 z"
     id="path140" />
  <path
     stroke-width="0.08"
     stroke-linejoin="round"
     stroke-linecap="round"
     stroke="currentColor"
     fill="currentColor"
     d="m 83.635744,4.1353601 c 0.08805,-0.1131581 0.169155,-0.2410203 0.241545,-0.3833541 -0.07424,0.1283375 -0.15697,0.24385 -0.246435,0.3463051 z"
     id="path142" />
  <path
     stroke-width="0.08"
     stroke-linejoin="round"
     stroke-linecap="round"
     stroke="currentColor"
     fill="currentColor"
     d="m 82.872563,4.7047108 c 0.111791,-0.038184 0.221037,-0.091654 0.325976,-0.1601767 -0.115477,-0.011339 -0.225267,0.038015 -0.337384,0.073729 z"
     id="path144" />
  <path
     stroke-width="0.08"
     stroke-linejoin="round"
     stroke-linecap="round"
     stroke="currentColor"
     fill="currentColor"
     d="m 82.013935,4.7008589 c 0.113505,0.039696 0.22887,0.063525 0.344333,0.07172 -0.126545,-0.092173 -0.241366,-0.1118856 -0.354111,-0.1458183 z"
     id="path146" />
  <path
     stroke-width="0.08"
     stroke-linejoin="round"
     stroke-linecap="round"
     stroke="currentColor"
     fill="currentColor"
     d="m 81.225046,4.102006 c 0.09319,0.1204826 0.192653,0.2245172 0.296615,0.3123364 C 81.414222,4.3001772 81.316393,4.2084923 81.225046,4.102006 Z"
     id="path148" />
  <path
     stroke-width="0.08"
     stroke-linejoin="round"
     stroke-linecap="round"
     stroke="currentColor"
     fill="currentColor"
     d="m 22.733094,19.332894 c 0.07082,-0.06774 0.136176,-0.140754 0.195085,-0.218888 -0.06072,0.06738 -0.127724,0.130614 -0.200025,0.189549 z"
     id="path150" />
  <path
     stroke-width="0.08"
     stroke-linejoin="round"
     stroke-linecap="round"
     stroke="currentColor"
     fill="currentColor"
     d="m 22.114994,19.739274 c 0.09195,-0.04029 0.180908,-0.08627 0.265887,-0.137784 -0.09646,-0.0167 -0.186244,0.0244 -0.278852,0.06077 z"
     id="path152" />
  <path
     stroke-width="0.08"
     stroke-linejoin="round"
     stroke-linecap="round"
     stroke="currentColor"
     fill="currentColor"
     d="m 21.384725,19.931982 c 0.100731,-0.01076 0.20094,-0.02763 0.29964,-0.05044 -0.113682,-0.06618 -0.213891,-0.04931 -0.314457,-0.03757 z"
     id="path154" />
  <path
     stroke-width="0.08"
     stroke-linejoin="round"
     stroke-linecap="round"
     stroke="currentColor"
     fill="currentColor"
     d="m 20.634909,19.895423 c 0.09716,0.02085 0.196273,0.03517 0.296344,0.04313 -0.112378,-0.08106 -0.210665,-0.09049 -0.30684,-0.105479 z"
     id="path156" />
  <path
     stroke-width="0.08"
     stroke-linejoin="round"
     stroke-linecap="round"
     stroke="currentColor"
     fill="currentColor"
     d="m 19.958167,19.614006 c 0.08124,0.05454 0.166907,0.102133 0.256,0.142948 -0.09255,-0.06135 -0.176567,-0.09917 -0.256,-0.142948 z"
     id="path158" />
  <path
     stroke-width="0.08"
     stroke-linejoin="round"
     stroke-linecap="round"
     stroke="currentColor"
     fill="currentColor"
     d="m 34.340606,17.356586 c 0.07558,-0.07552 0.144641,-0.156453 0.206011,-0.24258 -0.0635,0.07543 -0.134492,0.146638 -0.211817,0.2134 z"
     id="path160" />
  <path
     stroke-width="0.08"
     stroke-linejoin="round"
     stroke-linecap="round"
     stroke="currentColor"
     fill="currentColor"
     d="m 33.669575,17.817686 c 0.100932,-0.04696 0.19825,-0.09992 0.29079,-0.158654 -0.106039,-0.0091 -0.204324,0.03899 -0.306031,0.08206 z"
     id="path162" />
  <path
     stroke-width="0.08"
     stroke-linejoin="round"
     stroke-linecap="round"
     stroke="currentColor"
     fill="currentColor"
     d="m 32.862999,18.053766 c 0.111729,-0.01551 0.222754,-0.0376 0.33191,-0.06604 -0.126768,-0.06007 -0.237793,-0.03798 -0.349328,-0.0215 z"
     id="path164" />
  <path
     stroke-width="0.08"
     stroke-linejoin="round"
     stroke-linecap="round"
     stroke="currentColor"
     fill="currentColor"
     d="m 32.030024,18.043112 c 0.107972,0.01883 0.218151,0.03051 0.329372,0.03526 -0.125688,-0.07746 -0.234899,-0.08427 -0.34171,-0.09727 z"
     id="path166" />
  <path
     stroke-width="0.08"
     stroke-linejoin="round"
     stroke-linecap="round"
     stroke="currentColor"
     fill="currentColor"
     d="m 31.279794,17.764006 c 0.08966,0.05608 0.184444,0.104414 0.283177,0.145246 -0.102798,-0.06126 -0.195643,-0.09987 -0.283177,-0.145246 z"
     id="path168" />
  <path
     stroke-width="0.08"
     stroke-linejoin="round"
     stroke-linecap="round"
     stroke="currentColor"
     fill="currentColor"
     d="m 42.987544,16.14736 c 0.08805,-0.113158 0.169155,-0.24102 0.241545,-0.383354 -0.07424,0.128337 -0.15697,0.24385 -0.246435,0.346305 z"
     id="path170" />
  <path
     stroke-width="0.08"
     stroke-linejoin="round"
     stroke-linecap="round"
     stroke="currentColor"
     fill="currentColor"
     d="m 42.224363,16.716711 c 0.111791,-0.03818 0.221037,-0.09165 0.325976,-0.160177 -0.115477,-0.01134 -0.225267,0.03802 -0.337384,0.07373 z"
     id="path172" />
  <path
     stroke-width="0.08"
     stroke-linejoin="round"
     stroke-linecap="round"
     stroke="currentColor"
     fill="currentColor"
     d="m 41.365735,16.712859 c 0.113505,0.0397 0.22887,0.06352 0.344333,0.07172 -0.126545,-0.09217 -0.241366,-0.111886 -0.354111,-0.145818 z"
     id="path174" />
  <path
     stroke-width="0.08"
     stroke-linejoin="round"
     stroke-linecap="round"
     stroke="currentColor"
     fill="currentColor"
     d="m 40.576846,16.114006 c 0.09319,0.120483 0.192653,0.224517 0.296615,0.312336 -0.107439,-0.114165 -0.205268,-0.20585 -0.296615,-0.312336 z"
     id="path176" />
  <path
     stroke-width="0.08"
     stroke-linejoin="round"
     stroke-linecap="round"
     stroke="currentColor"
     fill="currentColor"
     d="m 54.588,14.075022 c 0.08101,-0.09478 0.15614,-0.198491 0.224229,-0.311016 -0.06925,0.101678 -0.145435,0.195531 -0.227399,0.281433 z"
     id="path178" />
  <path
     stroke-width="0.08"
     stroke-linejoin="round"
     stroke-linecap="round"
     stroke="currentColor"
     fill="currentColor"
     d="m 53.888074,14.616373 c 0.103231,-0.04932 0.20346,-0.107896 0.299534,-0.175587 -0.103443,-0.0011 -0.2042,0.05255 -0.307853,0.09793 z"
     id="path180" />
  <path
     stroke-width="0.08"
     stroke-linejoin="round"
     stroke-linecap="round"
     stroke="currentColor"
     fill="currentColor"
     d="m 53.07558,14.811045 c 0.111031,-0.0023 0.221944,-0.01421 0.331586,-0.03553 -0.119256,-0.06842 -0.230169,-0.05654 -0.341094,-0.05322 z"
     id="path182" />
  <path
     stroke-width="0.08"
     stroke-linejoin="round"
     stroke-linecap="round"
     stroke="currentColor"
     fill="currentColor"
     d="m 52.258647,14.64745 c 0.104415,0.04621 0.211594,0.08256 0.320386,0.109171 -0.116689,-0.10032 -0.22334,-0.131739 -0.327121,-0.172034 z"
     id="path184" />
  <path
     stroke-width="0.08"
     stroke-linejoin="round"
     stroke-linecap="round"
     stroke="currentColor"
     fill="currentColor"
     d="m 51.545407,14.114006 c 0.08338,0.0963 0.172408,0.182423 0.265932,0.258501 -0.09574,-0.09679 -0.183714,-0.173051 -0.265932,-0.258501 z"
     id="path186" />
  <text
     font-family="'Roboto Light'"
     font-size="1.96px"
     text-anchor="start"
     fill="currentColor"
     id="text190"
     x="88.354691"
     y="10.2067"><tspan
       id="tspan188">A5</tspan></text>
  <path
     d="m 89.385594,1.104 c -0.2,0 -0.276,0.172 -0.276,0.352 0,0.308 0.228,0.544 0.536,0.544 0.2,0 0.276,-0.172 0.276,-0.352 0,-0.308 -0.228,-0.544 -0.536,-0.544 z m 1.12,0.448 c 0,0.172 -0.14,0.304 -0.292,0.388 -0.212,0.12 -0.452,0.164 -0.696,0.164 -0.244,0 -0.488,-0.044 -0.7,-0.164 -0.152,-0.084 -0.292,-0.216 -0.292,-0.388 0,-0.172 0.14,-0.304 0.292,-0.388 0.212,-0.12 0.456,-0.164 0.7,-0.164 0.244,0 0.484,0.044 0.696,0.164 0.152,0.084 0.292,0.216 0.292,0.388 z"
     fill="currentColor"
     id="path192"
     style="stroke-width:0.004" />
  <text
     font-family="'Roboto Light'"
     font-size="1.96px"
     text-anchor="start"
     fill="currentColor"
     id="text196"
     x="85.333496"
     y="10.2067"><tspan
       id="tspan194">G5</tspan></text>
  <path
     d="m 86.415594,1.604 c -0.2,0 -0.276,0.172 -0.276,0.352 0,0.308 0.228,0.544 0.536,0.544 0.2,0 0.276,-0.172 0.276,-0.352 0,-0.308 -0.228,-0.544 -0.536,-0.544 z m 1.12,0.448 c 0,0.172 -0.14,0.304 -0.292,0.388 -0.212,0.12 -0.452,0.164 -0.696,0.164 -0.244,0 -0.488,-0.044 -0.7,-0.164 -0.152,-0.084 -0.292,-0.216 -0.292,-0.388 0,-0.172 0.14,-0.304 0.292,-0.388 0.212,-0.12 0.456,-0.164 0.7,-0.164 0.244,0 0.484,0.044 0.696,0.164 0.152,0.084 0.292,0.216 0.292,0.388 z"
     fill="currentColor"
     id="path198"
     style="stroke-width:0.004" />
  <text
     font-family="'Roboto Light'"
     font-size="1.96px"
     text-anchor="start"
     fill="currentColor"
     id="text202"
     x="82.698296"
     y="10.2067"><tspan
       id="tspan200">F5</tspan></text>
  <path
     d="m 83.660894,2.104 c -0.2,0 -0.276,0.172 -0.276,0.352 0,0.308 0.228,0.544 0.536,0.544 0.2,0 0.276,-0.172 0.276,-0.352 0,-0.308 -0.228,-0.544 -0.536,-0.544 z m 1.12,0.448 c 0,0.172 -0.14,0.304 -0.292,0.388 -0.212,0.12 -0.452,0.164 -0.696,0.164 -0.244,0 -0.488,-0.044 -0.7,-0.164 -0.152,-0.084 -0.292,-0.216 -0.292,-0.388 0,-0.172 0.14,-0.304 0.292,-0.388 0.212,-0.12 0.456,-0.164 0.7,-0.164 0.244,0 0.484,0.044 0.696,0.164 0.152,0.084 0.292,0.216 0.292,0.388 z"
     fill="currentColor"
     id="path204"
     style="stroke-width:0.004" />
  <path
     stroke-width="0.08"
     stroke-linejoin="round"
     stroke-linecap="round"
     stroke="currentColor"
     fill="currentColor"
     d="m 95.637142,1.9382354 c 0.0783,-0.1029748 0.150396,-0.2151103 0.215132,-0.3362294 -0.06639,0.1103356 -0.139984,0.2126679 -0.219633,0.3068198 z"
     id="path206" />
  <path
     stroke-width="0.08"
     stroke-linejoin="round"
     stroke-linecap="round"
     stroke="currentColor"
     fill="currentColor"
     d="m 94.951698,2.5360123 c 0.102073,-0.056063 0.20084,-0.1217302 0.29514,-0.1968238 -0.104766,0.00672 -0.204282,0.067482 -0.306956,0.1196236 z"
     id="path208" />
  <path
     stroke-width="0.08"
     stroke-linejoin="round"
     stroke-linecap="round"
     stroke="currentColor"
     fill="currentColor"
     d="m 94.142225,2.7736438 c 0.111373,-0.00694 0.222334,-0.023919 0.331724,-0.050772 -0.123044,-0.062356 -0.234005,-0.045373 -0.345228,-0.037457 z"
     id="path210" />
  <path
     stroke-width="0.08"
     stroke-linejoin="round"
     stroke-linecap="round"
     stroke="currentColor"
     fill="currentColor"
     d="m 93.317288,2.6345137 c 0.106197,0.044407 0.214877,0.078323 0.324882,0.1019269 C 93.52095,2.639558 93.41302,2.610543 93.307723,2.5720184 Z"
     id="path212" />
  <path
     stroke-width="0.08"
     stroke-linejoin="round"
     stroke-linecap="round"
     stroke="currentColor"
     fill="currentColor"
     d="m 92.585451,2.102006 c 0.08655,0.097965 0.178471,0.1849963 0.274615,0.2612719 -0.09929,-0.096862 -0.189719,-0.1740907 -0.274615,-0.2612719 z"
     id="path214" />
  <text
     font-family="'Roboto Light'"
     font-size="1.96px"
     text-anchor="start"
     fill="currentColor"
     id="text218"
     x="94.079391"
     y="10.2067"><tspan
       id="tspan216">[C6]</tspan></text>
  <path
     d="m 95.622394,0.104 c -0.2,0 -0.276,0.172 -0.276,0.352 0,0.308 0.228,0.544 0.536,0.544 0.2,0 0.276,-0.172 0.276,-0.352 0,-0.308 -0.228,-0.544 -0.536,-0.544 z m 1.12,0.448 c 0,0.172 -0.14,0.304 -0.292,0.388 -0.212,0.12 -0.452,0.164 -0.696,0.164 -0.244,0 -0.488,-0.044 -0.7,-0.164 -0.152,-0.084 -0.292,-0.216 -0.292,-0.388 0,-0.172 0.14,-0.304 0.292,-0.388 0.212,-0.12 0.456,-0.164 0.7,-0.164 0.244,0 0.484,0.044 0.696,0.164 0.152,0.084 0.292,0.216 0.292,0.388 z"
     fill="currentColor"
     id="path220"
     style="stroke-width:0.004" />
  <text
     font-family="'Roboto Light'"
     font-size="1.96px"
     text-anchor="start"
     fill="currentColor"
     id="text224"
     x="91.341797"
     y="10.2067"><tspan
       id="tspan222">B5</tspan></text>
  <path
     d="m 92.355594,0.604 c -0.2,0 -0.276,0.172 -0.276,0.352 0,0.308 0.228,0.544 0.536,0.544 0.2,0 0.276,-0.172 0.276,-0.352 0,-0.308 -0.228,-0.544 -0.536,-0.544 z m 1.12,0.448 c 0,0.172 -0.14,0.304 -0.292,0.388 -0.212,0.12 -0.452,0.164 -0.696,0.164 -0.244,0 -0.488,-0.044 -0.7,-0.164 -0.152,-0.084 -0.292,-0.216 -0.292,-0.388 0,-0.172 0.14,-0.304 0.292,-0.388 0.212,-0.12 0.456,-0.164 0.7,-0.164 0.244,0 0.484,0.044 0.696,0.164 0.152,0.084 0.292,0.216 0.292,0.388 z"
     fill="currentColor"
     id="path226"
     style="stroke-width:0.004" />
  <text
     font-family="'Roboto Light'"
     font-size="1.96px"
     text-anchor="start"
     fill="currentColor"
     id="text230"
     x="21.726093"
     y="22.2188"><tspan
       id="tspan228">F2</tspan></text>
  <path
     d="m 22.688694,17.616 c -0.2,0 -0.276,0.172 -0.276,0.352 0,0.308 0.228,0.544 0.536,0.544 0.2,0 0.276,-0.172 0.276,-0.352 0,-0.308 -0.228,-0.544 -0.536,-0.544 z m 1.12,0.448 c 0,0.172 -0.14,0.304 -0.292,0.388 -0.212,0.12 -0.452,0.164 -0.696,0.164 -0.244,0 -0.488,-0.044 -0.7,-0.164 -0.152,-0.084 -0.292,-0.216 -0.292,-0.388 0,-0.172 0.14,-0.304 0.292,-0.388 0.212,-0.12 0.456,-0.164 0.7,-0.164 0.244,0 0.484,0.044 0.696,0.164 0.152,0.084 0.292,0.216 0.292,0.388 z"
     fill="currentColor"
     id="path232"
     style="stroke-width:0.004" />
  <text
     font-family="'Roboto Light'"
     font-size="1.96px"
     text-anchor="start"
     fill="currentColor"
     id="text236"
     x="18.738995"
     y="22.2188"><tspan
       id="tspan234">E2</tspan></text>
  <path
     d="m 19.718594,18.116 c -0.2,0 -0.276,0.172 -0.276,0.352 0,0.308 0.228,0.544 0.536,0.544 0.2,0 0.276,-0.172 0.276,-0.352 0,-0.308 -0.228,-0.544 -0.536,-0.544 z m 1.12,0.448 c 0,0.172 -0.14,0.304 -0.292,0.388 -0.212,0.12 -0.452,0.164 -0.696,0.164 -0.244,0 -0.488,-0.044 -0.7,-0.164 -0.152,-0.084 -0.292,-0.216 -0.292,-0.388 0,-0.172 0.14,-0.304 0.292,-0.388 0.212,-0.12 0.456,-0.164 0.7,-0.164 0.244,0 0.484,0.044 0.696,0.164 0.152,0.084 0.292,0.216 0.292,0.388 z"
     fill="currentColor"
     id="path238"
     style="stroke-width:0.004" />
  <path
     d="m 31.020994,16.116 c -0.2,0 -0.276,0.172 -0.276,0.352 0,0.308 0.228,0.544 0.536,0.544 0.2,0 0.276,-0.172 0.276,-0.352 0,-0.308 -0.228,-0.544 -0.536,-0.544 z m 1.12,0.448 c 0,0.172 -0.14,0.304 -0.292,0.388 -0.212,0.12 -0.452,0.164 -0.696,0.164 -0.244,0 -0.488,-0.044 -0.7,-0.164 -0.152,-0.084 -0.292,-0.216 -0.292,-0.388 0,-0.172 0.14,-0.304 0.292,-0.388 0.212,-0.12 0.456,-0.164 0.7,-0.164 0.244,0 0.484,0.044 0.696,0.164 0.152,0.084 0.292,0.216 0.292,0.388 z"
     fill="currentColor"
     id="path240"
     style="stroke-width:0.004" />
  <text
     font-family="'Roboto Light'"
     font-size="1.96px"
     text-anchor="start"
     fill="currentColor"
     id="text244"
     x="27.235394"
     y="22.2188"><tspan
       id="tspan242">A2</tspan></text>
  <path
     d="m 28.266294,16.616 c -0.2,0 -0.276,0.172 -0.276,0.352 0,0.308 0.228,0.544 0.536,0.544 0.2,0 0.276,-0.172 0.276,-0.352 0,-0.308 -0.228,-0.544 -0.536,-0.544 z m 1.12,0.448 c 0,0.172 -0.14,0.304 -0.292,0.388 -0.212,0.12 -0.452,0.164 -0.696,0.164 -0.244,0 -0.488,-0.044 -0.7,-0.164 -0.152,-0.084 -0.292,-0.216 -0.292,-0.388 0,-0.172 0.14,-0.304 0.292,-0.388 0.212,-0.12 0.456,-0.164 0.7,-0.164 0.244,0 0.484,0.044 0.696,0.164 0.152,0.084 0.292,0.216 0.292,0.388 z"
     fill="currentColor"
     id="path246"
     style="stroke-width:0.004" />
  <text
     font-family="'Roboto Light'"
     font-size="1.96px"
     text-anchor="start"
     fill="currentColor"
     id="text250"
     x="24.361294"
     y="22.2188"><tspan
       id="tspan248">G2</tspan></text>
  <path
     d="m 25.443294,17.116 c -0.2,0 -0.276,0.172 -0.276,0.352 0,0.308 0.228,0.544 0.536,0.544 0.2,0 0.276,-0.172 0.276,-0.352 0,-0.308 -0.228,-0.544 -0.536,-0.544 z m 1.12,0.448 c 0,0.172 -0.14,0.304 -0.292,0.388 -0.212,0.12 -0.452,0.164 -0.696,0.164 -0.244,0 -0.488,-0.044 -0.7,-0.164 -0.152,-0.084 -0.292,-0.216 -0.292,-0.388 0,-0.172 0.14,-0.304 0.292,-0.388 0.212,-0.12 0.456,-0.164 0.7,-0.164 0.244,0 0.484,0.044 0.696,0.164 0.152,0.084 0.292,0.216 0.292,0.388 z"
     fill="currentColor"
     id="path252"
     style="stroke-width:0.004" />
  <path
     d="m 9.7985937,15.064 c 0,-0.112 0.092,-0.204 0.2040003,-0.204 0.112,0 0.204,0.092 0.204,0.204 0,0.112 -0.092,0.204 -0.204,0.204 -0.1120003,0 -0.2040003,-0.092 -0.2040003,-0.204 z m 0,-1 c 0,-0.112 0.092,-0.204 0.2040003,-0.204 0.112,0 0.204,0.092 0.204,0.204 0,0.112 -0.092,0.204 -0.204,0.204 -0.1120003,0 -0.2040003,-0.092 -0.2040003,-0.204 z m -1.3,-0.552 c 0.688,0 1.172,0.352 1.172,1.004 0,1.052 -1.052,1.656 -2.064,2.084 -0.012,0.012 -0.024,0.016 -0.036,0.016 -0.028,0 -0.052,-0.024 -0.052,-0.052 0,-0.012 0.004,-0.024 0.016,-0.036 0.808,-0.472 1.648,-1.06 1.648,-1.972 0,-0.48 -0.252,-0.94 -0.684,-0.94 -0.296,0 -0.516,0.216 -0.616,0.504 0.044,-0.02 0.088,-0.032 0.136,-0.032 0.22,0 0.4,0.18 0.4,0.4 0,0.232 -0.176,0.424 -0.4,0.424 -0.24,0 -0.448,-0.188 -0.448,-0.424 0,-0.532 0.408,-0.976 0.928,-0.976 z"
     fill="currentColor"
     id="path254"
     style="stroke-width:0.004" />
  <path
     d="m 13.430594,19.116 c -0.2,0 -0.276,0.172 -0.276,0.352 0,0.308 0.228,0.544 0.536,0.544 0.2,0 0.276,-0.172 0.276,-0.352 0,-0.308 -0.228,-0.544 -0.536,-0.544 z m 1.12,0.448 c 0,0.172 -0.14,0.304 -0.292,0.388 -0.212,0.12 -0.452,0.164 -0.696,0.164 -0.244,0 -0.488,-0.044 -0.7,-0.164 -0.152,-0.084 -0.292,-0.216 -0.292,-0.388 0,-0.172 0.14,-0.304 0.292,-0.388 0.212,-0.12 0.456,-0.164 0.7,-0.164 0.244,0 0.484,0.044 0.696,0.164 0.152,0.084 0.292,0.216 0.292,0.388 z"
     fill="currentColor"
     id="path256"
     style="stroke-width:0.004" />
  <path
     d="m 9.0745937,4.504 c 0.016,0 0.036,-0.004 0.052,-0.004 0.62,0 1.0240003,0.512 1.0240003,1.044 0,0.304 -0.132,0.616 -0.4280003,0.84 -0.088,0.068 -0.188,0.112 -0.292,0.144 0.012,0.14 0.02,0.28 0.02,0.42 0,0.076 -0.004,0.156 -0.008,0.232 -0.028,0.48 -0.36,0.912 -0.832,0.912 -0.432,0 -0.78,-0.352 -0.78,-0.788 0,-0.232 0.212,-0.412 0.448,-0.412 0.216,0 0.38,0.188 0.38,0.412 0,0.208 -0.172,0.38 -0.38,0.38 -0.044,0 -0.084,-0.008 -0.124,-0.024 0.104,0.156 0.272,0.26 0.468,0.26 0.384,0 0.628,-0.368 0.652,-0.764 0.004,-0.072 0.008,-0.148 0.008,-0.22 0,-0.124 -0.004,-0.244 -0.016,-0.368 -0.116,0.02 -0.232,0.032 -0.356,0.032 -0.752,0 -1.332,-0.688 -1.332,-1.496 0,-0.708 0.524,-1.224 0.992,-1.764 -0.076,-0.248 -0.148,-0.5 -0.18,-0.76 -0.024,-0.208 -0.028,-0.416 -0.028,-0.624 0,-0.46 0.22,-0.896 0.596,-1.168 0.012,-0.008 0.028,-0.012 0.04,-0.012 0.016,0 0.028,0 0.04,0.012 0.284,0.336 0.532,0.98 0.532,1.432 0,0.572 -0.344,1.02 -0.72,1.456 0.084,0.272 0.156,0.552 0.224,0.828 z m 0.34,1.86 c 0.272,-0.096 0.452,-0.38 0.452,-0.656 0,-0.36 -0.264,-0.716 -0.692,-0.76 0.096,0.464 0.184,0.924 0.24,1.416 z m -1.548,-0.924 c 0,0.54 0.516,0.988 1.056,0.988 0.112,0 0.22,-0.008 0.328,-0.024 -0.056,-0.508 -0.148,-0.98 -0.252,-1.456 -0.316,0.032 -0.496,0.244 -0.496,0.476 0,0.176 0.1,0.364 0.324,0.492 0.02,0.02 0.028,0.04 0.028,0.06 0,0.044 -0.04,0.088 -0.088,0.088 -0.012,0 -0.024,-0.004 -0.036,-0.008 -0.32,-0.172 -0.468,-0.46 -0.468,-0.74 0,-0.352 0.232,-0.696 0.64,-0.788 -0.056,-0.232 -0.116,-0.468 -0.184,-0.7 -0.428,0.484 -0.852,0.972 -0.852,1.612 z m 1.336,-4.068 c -0.396,0.192 -0.648,0.596 -0.648,1.036 0,0.296 0.072,0.532 0.144,0.776 0.32,-0.388 0.584,-0.792 0.584,-1.296 0,-0.22 -0.016,-0.316 -0.08,-0.516 z"
     fill="currentColor"
     id="path258"
     style="stroke-width:0.004" />
  <rect
     x="6.7105937"
     y="2.5019999"
     width="0.16"
     height="15.112"
     ry="0.050000001"
     fill="currentColor"
     id="rect260" />
  <path
     d="m 6.3465937,12.33 c 0,1.216 -0.464,2.416 -0.464,3.568 0,0.624 0.144,1.2 0.576,1.664 0.016,0.016 0.016,0.032 0.016,0.048 0,0.032 -0.032,0.064 -0.064,0.064 -0.016,0 -0.032,0 -0.048,-0.016 -0.576,-0.624 -0.784,-1.44 -0.784,-2.288 0,-1.248 0.496,-2.464 0.496,-3.632 0,-0.608 -0.144,-1.184 -0.576,-1.648 0,-0.016 -0.016,-0.016 -0.016,-0.032 0,-0.016 0.016,-0.016 0.016,-0.032 0.432,-0.464 0.576,-1.04 0.576,-1.648 0,-1.168 -0.496,-2.384 -0.496,-3.632 0,-0.848 0.208,-1.664 0.784,-2.288 0.016,-0.016 0.032,-0.016 0.048,-0.016 0.032,0 0.064,0.032 0.064,0.064 0,0.016 0,0.032 -0.016,0.048 -0.432,0.464 -0.576,1.04 -0.576,1.664 0,1.152 0.464,2.352 0.464,3.568 0,0.848 -0.192,1.648 -0.752,2.272 0.56,0.624 0.752,1.424 0.752,2.272 z"
     fill="currentColor"
     id="path262"
     style="stroke-width:0.004" />
  <text
     font-family="'Roboto Slab Light'"
     font-size="1.96px"
     text-anchor="start"
     fill="currentColor"
     id="text266"
     x="-0.19140625"
     y="10.7921"><tspan
       id="tspan264">Piano</tspan></text>
  <text
     font-family="'Roboto Light'"
     font-size="1.96px"
     text-anchor="start"
     fill="currentColor"
     id="text270"
     x="15.683594"
     y="22.2188"><tspan
       id="tspan268">D2</tspan></text>
  <path
     d="m 16.748594,18.616 c -0.2,0 -0.276,0.172 -0.276,0.352 0,0.308 0.228,0.544 0.536,0.544 0.2,0 0.276,-0.172 0.276,-0.352 0,-0.308 -0.228,-0.544 -0.536,-0.544 z m 1.12,0.448 c 0,0.172 -0.14,0.304 -0.292,0.388 -0.212,0.12 -0.452,0.164 -0.696,0.164 -0.244,0 -0.488,-0.044 -0.7,-0.164 -0.152,-0.084 -0.292,-0.216 -0.292,-0.388 0,-0.172 0.14,-0.304 0.292,-0.388 0.212,-0.12 0.456,-0.164 0.7,-0.164 0.244,0 0.484,0.044 0.696,0.164 0.152,0.084 0.292,0.216 0.292,0.388 z"
     fill="currentColor"
     id="path272"
     style="stroke-width:0.004" />
  <text
     font-family="'Roboto Light'"
     font-size="1.96px"
     text-anchor="start"
     fill="currentColor"
     id="text276"
     x="11.887594"
     y="22.2188"><tspan
       id="tspan274">[C2]</tspan></text>
  <path
     d="m 40.360494,14.616 c -0.2,0 -0.276,0.172 -0.276,0.352 0,0.308 0.228,0.544 0.536,0.544 0.2,0 0.276,-0.172 0.276,-0.352 0,-0.308 -0.228,-0.544 -0.536,-0.544 z m 1.12,0.448 c 0,0.172 -0.14,0.304 -0.292,0.388 -0.212,0.12 -0.452,0.164 -0.696,0.164 -0.244,0 -0.488,-0.044 -0.7,-0.164 -0.152,-0.084 -0.292,-0.216 -0.292,-0.388 0,-0.172 0.14,-0.304 0.292,-0.388 0.212,-0.12 0.456,-0.164 0.7,-0.164 0.244,0 0.484,0.044 0.696,0.164 0.152,0.084 0.292,0.216 0.292,0.388 z"
     fill="currentColor"
     id="path278"
     style="stroke-width:0.004" />
  <text
     font-family="'Roboto Light'"
     font-size="1.96px"
     text-anchor="start"
     fill="currentColor"
     id="text282"
     x="39.380795"
     y="22.2188"><tspan
       id="tspan280">E3</tspan></text>
  <path
     d="m 43.012694,14.116 c -0.2,0 -0.276,0.172 -0.276,0.352 0,0.308 0.228,0.544 0.536,0.544 0.2,0 0.276,-0.172 0.276,-0.352 0,-0.308 -0.228,-0.544 -0.536,-0.544 z m 1.12,0.448 c 0,0.172 -0.14,0.304 -0.292,0.388 -0.212,0.12 -0.452,0.164 -0.696,0.164 -0.244,0 -0.488,-0.044 -0.7,-0.164 -0.152,-0.084 -0.292,-0.216 -0.292,-0.388 0,-0.172 0.14,-0.304 0.292,-0.388 0.212,-0.12 0.456,-0.164 0.7,-0.164 0.244,0 0.484,0.044 0.696,0.164 0.152,0.084 0.292,0.216 0.292,0.388 z"
     fill="currentColor"
     id="path284"
     style="stroke-width:0.004" />
  <text
     font-family="'Roboto Light'"
     font-size="1.96px"
     text-anchor="start"
     fill="currentColor"
     id="text288"
     x="42.050194"
     y="22.2188"><tspan
       id="tspan286">F3</tspan></text>
  <path
     d="m 45.767394,13.616 c -0.2,0 -0.276,0.172 -0.276,0.352 0,0.308 0.228,0.544 0.536,0.544 0.2,0 0.276,-0.172 0.276,-0.352 0,-0.308 -0.228,-0.544 -0.536,-0.544 z m 1.12,0.448 c 0,0.172 -0.14,0.304 -0.292,0.388 -0.212,0.12 -0.452,0.164 -0.696,0.164 -0.244,0 -0.488,-0.044 -0.7,-0.164 -0.152,-0.084 -0.292,-0.216 -0.292,-0.388 0,-0.172 0.14,-0.304 0.292,-0.388 0.212,-0.12 0.456,-0.164 0.7,-0.164 0.244,0 0.484,0.044 0.696,0.164 0.152,0.084 0.292,0.216 0.292,0.388 z"
     fill="currentColor"
     id="path290"
     style="stroke-width:0.004" />
  <text
     font-family="'Roboto Light'"
     font-size="1.96px"
     text-anchor="start"
     fill="currentColor"
     id="text294"
     x="44.685295"
     y="22.2188"><tspan
       id="tspan292">G3</tspan></text>
  <text
     font-family="'Roboto Light'"
     font-size="1.96px"
     text-anchor="start"
     fill="currentColor"
     id="text298"
     x="50.331295"
     y="22.2188"><tspan
       id="tspan296">B3</tspan></text>
  <path
     d="m 51.345094,12.616 c -0.2,0 -0.276,0.172 -0.276,0.352 0,0.308 0.228,0.544 0.536,0.544 0.2,0 0.276,-0.172 0.276,-0.352 0,-0.308 -0.228,-0.544 -0.536,-0.544 z m 1.12,0.448 c 0,0.172 -0.14,0.304 -0.292,0.388 -0.212,0.12 -0.452,0.164 -0.696,0.164 -0.244,0 -0.488,-0.044 -0.7,-0.164 -0.152,-0.084 -0.292,-0.216 -0.292,-0.388 0,-0.172 0.14,-0.304 0.292,-0.388 0.212,-0.12 0.456,-0.164 0.7,-0.164 0.244,0 0.484,0.044 0.696,0.164 0.152,0.084 0.292,0.216 0.292,0.388 z"
     fill="currentColor"
     id="path300"
     style="stroke-width:0.004" />
  <text
     font-family="'Roboto Light'"
     font-size="1.96px"
     text-anchor="start"
     fill="currentColor"
     id="text304"
     x="47.559494"
     y="22.2188"><tspan
       id="tspan302">A3</tspan></text>
  <path
     d="m 48.590394,13.116 c -0.2,0 -0.276,0.172 -0.276,0.352 0,0.308 0.228,0.544 0.536,0.544 0.2,0 0.276,-0.172 0.276,-0.352 0,-0.308 -0.228,-0.544 -0.536,-0.544 z m 1.12,0.448 c 0,0.172 -0.14,0.304 -0.292,0.388 -0.212,0.12 -0.452,0.164 -0.696,0.164 -0.244,0 -0.488,-0.044 -0.7,-0.164 -0.152,-0.084 -0.292,-0.216 -0.292,-0.388 0,-0.172 0.14,-0.304 0.292,-0.388 0.212,-0.12 0.456,-0.164 0.7,-0.164 0.244,0 0.484,0.044 0.696,0.164 0.152,0.084 0.292,0.216 0.292,0.388 z"
     fill="currentColor"
     id="path306"
     style="stroke-width:0.004" />
  <text
     font-family="'Roboto Light'"
     font-size="1.96px"
     text-anchor="start"
     fill="currentColor"
     id="text310"
     x="30.007195"
     y="22.2188"><tspan
       id="tspan308">B2</tspan></text>
  <path
     d="m 34.287794,15.616 c -0.2,0 -0.276,0.172 -0.276,0.352 0,0.308 0.228,0.544 0.536,0.544 0.2,0 0.276,-0.172 0.276,-0.352 0,-0.308 -0.228,-0.544 -0.536,-0.544 z m 1.12,0.448 c 0,0.172 -0.14,0.304 -0.292,0.388 -0.212,0.12 -0.452,0.164 -0.696,0.164 -0.244,0 -0.488,-0.044 -0.7,-0.164 -0.152,-0.084 -0.292,-0.216 -0.292,-0.388 0,-0.172 0.14,-0.304 0.292,-0.388 0.212,-0.12 0.456,-0.164 0.7,-0.164 0.244,0 0.484,0.044 0.696,0.164 0.152,0.084 0.292,0.216 0.292,0.388 z"
     fill="currentColor"
     id="path312"
     style="stroke-width:0.004" />
  <text
     font-family="'Roboto Light'"
     font-size="1.96px"
     text-anchor="start"
     fill="currentColor"
     id="text316"
     x="32.744793"
     y="22.2188"><tspan
       id="tspan314">[C3]</tspan></text>
  <path
     d="m 37.605794,15.116 c -0.2,0 -0.276,0.172 -0.276,0.352 0,0.308 0.228,0.544 0.536,0.544 0.2,0 0.276,-0.172 0.276,-0.352 0,-0.308 -0.228,-0.544 -0.536,-0.544 z m 1.12,0.448 c 0,0.172 -0.14,0.304 -0.292,0.388 -0.212,0.12 -0.452,0.164 -0.696,0.164 -0.244,0 -0.488,-0.044 -0.7,-0.164 -0.152,-0.084 -0.292,-0.216 -0.292,-0.388 0,-0.172 0.14,-0.304 0.292,-0.388 0.212,-0.12 0.456,-0.164 0.7,-0.164 0.244,0 0.484,0.044 0.696,0.164 0.152,0.084 0.292,0.216 0.292,0.388 z"
     fill="currentColor"
     id="path318"
     style="stroke-width:0.004" />
  <text
     font-family="'Roboto Light'"
     font-size="1.96px"
     text-anchor="start"
     fill="currentColor"
     id="text322"
     x="36.540794"
     y="22.2188"><tspan
       id="tspan320">D3</tspan></text>
</svg>
