<?xml version="1.0" encoding="UTF-8" standalone="no"?>
<svg
   version="1.2"
   width="159.20001mm"
   height="29.428066mm"
   viewBox="0 0 90.593601 16.746195"
   id="svg274"
   xmlns="http://www.w3.org/2000/svg"
   xmlns:svg="http://www.w3.org/2000/svg">
  <defs
     id="defs278" />
  <!-- Page: 1/1 -->
  <text
     font-family="'Century Schoolbook L'"
     font-size="2.2001px"
     text-anchor="start"
     fill="currentColor"
     id="text4"
     y="-0.95000494"><tspan
       id="tspan2" /></text>
  <rect
     x="57.712799"
     y="5.2355952"
     width="2.97"
     height="0.2"
     ry="0.1"
     fill="currentColor"
     id="rect6" />
  <rect
     x="70.661797"
     y="5.2355952"
     width="2.97"
     height="0.2"
     ry="0.1"
     fill="currentColor"
     id="rect8" />
  <rect
     x="82.210999"
     y="5.2355952"
     width="2.97"
     height="0.2"
     ry="0.1"
     fill="currentColor"
     id="rect10" />
  <rect
     x="82.210999"
     y="5.2355952"
     width="2.97"
     height="0.2"
     ry="0.1"
     fill="currentColor"
     id="rect12" />
  <rect
     x="82.210999"
     y="4.2355952"
     width="2.97"
     height="0.2"
     ry="0.1"
     fill="currentColor"
     id="rect14" />
  <line
     stroke-linejoin="round"
     stroke-linecap="round"
     stroke-width="0.1"
     stroke="currentColor"
     x1="0.050000001"
     y1="10.335595"
     x2="90.543602"
     y2="10.335595"
     id="line16" />
  <line
     stroke-linejoin="round"
     stroke-linecap="round"
     stroke-width="0.1"
     stroke="currentColor"
     x1="0.050000001"
     y1="9.3355951"
     x2="90.543602"
     y2="9.3355951"
     id="line18" />
  <line
     stroke-linejoin="round"
     stroke-linecap="round"
     stroke-width="0.1"
     stroke="currentColor"
     x1="0.050000001"
     y1="8.3355951"
     x2="90.543602"
     y2="8.3355951"
     id="line20" />
  <line
     stroke-linejoin="round"
     stroke-linecap="round"
     stroke-width="0.1"
     stroke="currentColor"
     x1="0.050000001"
     y1="7.3355951"
     x2="90.543602"
     y2="7.3355951"
     id="line22" />
  <line
     stroke-linejoin="round"
     stroke-linecap="round"
     stroke-width="0.1"
     stroke="currentColor"
     x1="0.050000001"
     y1="6.3355951"
     x2="90.543602"
     y2="6.3355951"
     id="line24" />
  <rect
     x="89.993599"
     y="6.3355951"
     width="0.60000002"
     height="4"
     ry="0.0000"
     fill="currentColor"
     id="rect26" />
  <rect
     x="89.503601"
     y="6.3355951"
     width="0.19"
     height="4"
     ry="0.0000"
     fill="currentColor"
     id="rect28" />
  <text
     font-family="'Roboto Light'"
     font-size="2.2001px"
     text-anchor="start"
     fill="currentColor"
     id="text32"
     x="53.854401"
     y="13.946195"><tspan
       id="tspan30">Dominante</tspan></text>
  <text
     font-family="'Roboto Light'"
     font-size="2.2001px"
     text-anchor="start"
     fill="currentColor"
     id="text36"
     x="58.514999"
     y="16.746195"><tspan
       id="tspan34">V</tspan></text>
  <text
     font-family="sans-serif"
     font-size="2.6163px"
     text-anchor="start"
     fill="currentColor"
     id="text40"
     x="71.156799"
     y="3.2855949"><tspan
       id="tspan38">C</tspan></text>
  <text
     font-family="sans-serif"
     font-size="2.6163px"
     text-anchor="start"
     fill="currentColor"
     id="text44"
     x="72.9664"
     y="3.2855949"><tspan
       id="tspan42" /></text>
  <text
     font-family="sans-serif"
     font-size="2.6163px"
     text-anchor="start"
     fill="currentColor"
     id="text48"
     x="72.9664"
     y="3.2855949"><tspan
       id="tspan46">m</tspan></text>
  <text
     font-family="sans-serif"
     font-size="1.85px"
     text-anchor="start"
     fill="currentColor"
     id="text52"
     x="75.527199"
     y="1.7855951"><tspan
       id="tspan50" /></text>
  <text
     font-family="sans-serif"
     font-size="1.85px"
     text-anchor="start"
     fill="currentColor"
     id="text56"
     x="75.527199"
     y="1.7855951"><tspan
       id="tspan54">7</tspan></text>
  <path
     d="m 72.0168,7.3875951 c -0.2,0 -0.276,0.172 -0.276,0.352 0,0.308 0.228,0.544 0.536,0.544 0.2,0 0.276,-0.172 0.276,-0.352 0,-0.308 -0.228,-0.544 -0.536,-0.544 z m 1.12,0.448 c 0,0.172 -0.14,0.304 -0.292,0.388 -0.212,0.12 -0.452,0.164 -0.696,0.164 -0.244,0 -0.488,-0.044 -0.7,-0.164 -0.152,-0.084 -0.292,-0.216 -0.292,-0.388 0,-0.172 0.14,-0.304 0.292,-0.388 0.212,-0.12 0.456,-0.164 0.7,-0.164 0.244,0 0.484,0.044 0.696,0.164 0.152,0.084 0.292,0.216 0.292,0.388 z"
     fill="currentColor"
     id="path58"
     style="stroke-width:0.004" />
  <path
     d="m 72.0168,6.3875951 c -0.2,0 -0.276,0.172 -0.276,0.352 0,0.308 0.228,0.544 0.536,0.544 0.2,0 0.276,-0.172 0.276,-0.352 0,-0.308 -0.228,-0.544 -0.536,-0.544 z m 1.12,0.448 c 0,0.172 -0.14,0.304 -0.292,0.388 -0.212,0.12 -0.452,0.164 -0.696,0.164 -0.244,0 -0.488,-0.044 -0.7,-0.164 -0.152,-0.084 -0.292,-0.216 -0.292,-0.388 0,-0.172 0.14,-0.304 0.292,-0.388 0.212,-0.12 0.456,-0.164 0.7,-0.164 0.244,0 0.484,0.044 0.696,0.164 0.152,0.084 0.292,0.216 0.292,0.388 z"
     fill="currentColor"
     id="path60"
     style="stroke-width:0.004" />
  <path
     d="m 72.0168,5.3875951 c -0.2,0 -0.276,0.172 -0.276,0.352 0,0.308 0.228,0.544 0.536,0.544 0.2,0 0.276,-0.172 0.276,-0.352 0,-0.308 -0.228,-0.544 -0.536,-0.544 z m 1.12,0.448 c 0,0.172 -0.14,0.304 -0.292,0.388 -0.212,0.12 -0.452,0.164 -0.696,0.164 -0.244,0 -0.488,-0.044 -0.7,-0.164 -0.152,-0.084 -0.292,-0.216 -0.292,-0.388 0,-0.172 0.14,-0.304 0.292,-0.388 0.212,-0.12 0.456,-0.164 0.7,-0.164 0.244,0 0.484,0.044 0.696,0.164 0.152,0.084 0.292,0.216 0.292,0.388 z"
     fill="currentColor"
     id="path62"
     style="stroke-width:0.004" />
  <path
     d="m 72.0168,4.3875951 c -0.2,0 -0.276,0.172 -0.276,0.352 0,0.308 0.228,0.544 0.536,0.544 0.2,0 0.276,-0.172 0.276,-0.352 0,-0.308 -0.228,-0.544 -0.536,-0.544 z m 1.12,0.448 c 0,0.172 -0.14,0.304 -0.292,0.388 -0.212,0.12 -0.452,0.164 -0.696,0.164 -0.244,0 -0.488,-0.044 -0.7,-0.164 -0.152,-0.084 -0.292,-0.216 -0.292,-0.388 0,-0.172 0.14,-0.304 0.292,-0.388 0.212,-0.12 0.456,-0.164 0.7,-0.164 0.244,0 0.484,0.044 0.696,0.164 0.152,0.084 0.292,0.216 0.292,0.388 z"
     fill="currentColor"
     id="path64"
     style="stroke-width:0.004" />
  <text
     font-family="'Roboto Light'"
     font-size="2.2001px"
     text-anchor="start"
     fill="currentColor"
     id="text68"
     x="65.7108"
     y="13.946195"><tspan
       id="tspan66">Submediante</tspan></text>
  <text
     font-family="'Roboto Light'"
     font-size="2.2001px"
     text-anchor="start"
     fill="currentColor"
     id="text72"
     x="71.361603"
     y="16.746195"><tspan
       id="tspan70">vi</tspan></text>
  <path
     d="m 59.0679,4.8875951 c -0.2,0 -0.276,0.172 -0.276,0.352 0,0.308 0.228,0.544 0.536,0.544 0.2,0 0.276,-0.172 0.276,-0.352 0,-0.308 -0.228,-0.544 -0.536,-0.544 z m 1.12,0.448 c 0,0.172 -0.14,0.304 -0.292,0.388 -0.212,0.12 -0.452,0.164 -0.696,0.164 -0.244,0 -0.488,-0.044 -0.7,-0.164 -0.152,-0.084 -0.292,-0.216 -0.292,-0.388 0,-0.172 0.14,-0.304 0.292,-0.388 0.212,-0.12 0.456,-0.164 0.7,-0.164 0.244,0 0.484,0.044 0.696,0.164 0.152,0.084 0.292,0.216 0.292,0.388 z"
     fill="currentColor"
     id="path74"
     style="stroke-width:0.004" />
  <path
     d="m 59.0679,5.8875951 c -0.2,0 -0.276,0.172 -0.276,0.352 0,0.308 0.228,0.544 0.536,0.544 0.2,0 0.276,-0.172 0.276,-0.352 0,-0.308 -0.228,-0.544 -0.536,-0.544 z m 1.12,0.448 c 0,0.172 -0.14,0.304 -0.292,0.388 -0.212,0.12 -0.452,0.164 -0.696,0.164 -0.244,0 -0.488,-0.044 -0.7,-0.164 -0.152,-0.084 -0.292,-0.216 -0.292,-0.388 0,-0.172 0.14,-0.304 0.292,-0.388 0.212,-0.12 0.456,-0.164 0.7,-0.164 0.244,0 0.484,0.044 0.696,0.164 0.152,0.084 0.292,0.216 0.292,0.388 z"
     fill="currentColor"
     id="path76"
     style="stroke-width:0.004" />
  <path
     d="m 59.0679,6.8875951 c -0.2,0 -0.276,0.172 -0.276,0.352 0,0.308 0.228,0.544 0.536,0.544 0.2,0 0.276,-0.172 0.276,-0.352 0,-0.308 -0.228,-0.544 -0.536,-0.544 z m 1.12,0.448 c 0,0.172 -0.14,0.304 -0.292,0.388 -0.212,0.12 -0.452,0.164 -0.696,0.164 -0.244,0 -0.488,-0.044 -0.7,-0.164 -0.152,-0.084 -0.292,-0.216 -0.292,-0.388 0,-0.172 0.14,-0.304 0.292,-0.388 0.212,-0.12 0.456,-0.164 0.7,-0.164 0.244,0 0.484,0.044 0.696,0.164 0.152,0.084 0.292,0.216 0.292,0.388 z"
     fill="currentColor"
     id="path78"
     style="stroke-width:0.004" />
  <path
     d="m 59.0679,7.8875951 c -0.2,0 -0.276,0.172 -0.276,0.352 0,0.308 0.228,0.544 0.536,0.544 0.2,0 0.276,-0.172 0.276,-0.352 0,-0.308 -0.228,-0.544 -0.536,-0.544 z m 1.12,0.448 c 0,0.172 -0.14,0.304 -0.292,0.388 -0.212,0.12 -0.452,0.164 -0.696,0.164 -0.244,0 -0.488,-0.044 -0.7,-0.164 -0.152,-0.084 -0.292,-0.216 -0.292,-0.388 0,-0.172 0.14,-0.304 0.292,-0.388 0.212,-0.12 0.456,-0.164 0.7,-0.164 0.244,0 0.484,0.044 0.696,0.164 0.152,0.084 0.292,0.216 0.292,0.388 z"
     fill="currentColor"
     id="path80"
     style="stroke-width:0.004" />
  <text
     font-family="sans-serif"
     font-size="2.6163px"
     text-anchor="start"
     fill="currentColor"
     id="text84"
     x="58.207901"
     y="3.2855949"><tspan
       id="tspan82">B</tspan></text>
  <path
     d="m 60.3527,2.8133951 -0.0042,0.2772 v 0.0462 c 0,0.0924 0.0042,0.1848 0.0168,0.2772 0.189,-0.1596 0.3906,-0.336 0.3906,-0.5838 0,-0.1386 -0.0588,-0.2814 -0.1806,-0.2814 -0.1302,0 -0.2184,0.126 -0.2226,0.2646 z m -0.1764,0.7518 -0.0504,-2.499 c 0.0336,-0.021 0.0756,-0.0336 0.1134,-0.0336 0.0378,0 0.0798,0.0126 0.1134,0.0336 l -0.0294,1.449 c 0.105,-0.0882 0.2436,-0.1428 0.3822,-0.1428 0.2184,0 0.3738,0.2016 0.3738,0.4284 0,0.336 -0.3612,0.4914 -0.6174,0.7098 -0.063,0.0546 -0.1008,0.1596 -0.189,0.1596 -0.0546,0 -0.0966,-0.0462 -0.0966,-0.105 z"
     fill="currentColor"
     id="path86"
     style="stroke-width:0.0042" />
  <text
     font-family="sans-serif"
     font-size="2.6163px"
     text-anchor="start"
     fill="currentColor"
     id="text90"
     x="61.086899"
     y="3.2855949"><tspan
       id="tspan88" /></text>
  <text
     font-family="sans-serif"
     font-size="1.85px"
     text-anchor="start"
     fill="currentColor"
     id="text94"
     x="61.086899"
     y="1.7855951"><tspan
       id="tspan92" /></text>
  <text
     font-family="sans-serif"
     font-size="1.85px"
     text-anchor="start"
     fill="currentColor"
     id="text98"
     x="61.086899"
     y="1.7855951"><tspan
       id="tspan96">7</tspan></text>
  <text
     font-family="'Roboto Light'"
     font-size="2.2001px"
     text-anchor="start"
     fill="currentColor"
     id="text102"
     x="44.592899"
     y="16.746195"><tspan
       id="tspan100">IV</tspan></text>
  <text
     font-family="'Roboto Light'"
     font-size="2.2001px"
     text-anchor="start"
     fill="currentColor"
     id="text106"
     x="38.447102"
     y="13.946195"><tspan
       id="tspan104">Subdominante</tspan></text>
  <path
     d="m 45.436,5.3875951 c -0.2,0 -0.276,0.172 -0.276,0.352 0,0.308 0.228,0.544 0.536,0.544 0.2,0 0.276,-0.172 0.276,-0.352 0,-0.308 -0.228,-0.544 -0.536,-0.544 z m 1.12,0.448 c 0,0.172 -0.14,0.304 -0.292,0.388 -0.212,0.12 -0.452,0.164 -0.696,0.164 -0.244,0 -0.488,-0.044 -0.7,-0.164 -0.152,-0.084 -0.292,-0.216 -0.292,-0.388 0,-0.172 0.14,-0.304 0.292,-0.388 0.212,-0.12 0.456,-0.164 0.7,-0.164 0.244,0 0.484,0.044 0.696,0.164 0.152,0.084 0.292,0.216 0.292,0.388 z"
     fill="currentColor"
     id="path108"
     style="stroke-width:0.004" />
  <path
     d="m 45.436,6.3875951 c -0.2,0 -0.276,0.172 -0.276,0.352 0,0.308 0.228,0.544 0.536,0.544 0.2,0 0.276,-0.172 0.276,-0.352 0,-0.308 -0.228,-0.544 -0.536,-0.544 z m 1.12,0.448 c 0,0.172 -0.14,0.304 -0.292,0.388 -0.212,0.12 -0.452,0.164 -0.696,0.164 -0.244,0 -0.488,-0.044 -0.7,-0.164 -0.152,-0.084 -0.292,-0.216 -0.292,-0.388 0,-0.172 0.14,-0.304 0.292,-0.388 0.212,-0.12 0.456,-0.164 0.7,-0.164 0.244,0 0.484,0.044 0.696,0.164 0.152,0.084 0.292,0.216 0.292,0.388 z"
     fill="currentColor"
     id="path110"
     style="stroke-width:0.004" />
  <path
     d="m 45.436,7.3875951 c -0.2,0 -0.276,0.172 -0.276,0.352 0,0.308 0.228,0.544 0.536,0.544 0.2,0 0.276,-0.172 0.276,-0.352 0,-0.308 -0.228,-0.544 -0.536,-0.544 z m 1.12,0.448 c 0,0.172 -0.14,0.304 -0.292,0.388 -0.212,0.12 -0.452,0.164 -0.696,0.164 -0.244,0 -0.488,-0.044 -0.7,-0.164 -0.152,-0.084 -0.292,-0.216 -0.292,-0.388 0,-0.172 0.14,-0.304 0.292,-0.388 0.212,-0.12 0.456,-0.164 0.7,-0.164 0.244,0 0.484,0.044 0.696,0.164 0.152,0.084 0.292,0.216 0.292,0.388 z"
     fill="currentColor"
     id="path112"
     style="stroke-width:0.004" />
  <text
     font-family="'Roboto Light'"
     font-size="2.2001px"
     text-anchor="start"
     fill="currentColor"
     id="text116"
     x="82.229797"
     y="16.746195"><tspan
       id="tspan114">vii</tspan></text>
  <circle
     stroke-linejoin="round"
     stroke-linecap="round"
     fill="none"
     stroke="currentColor"
     stroke-width="0.0707"
     r="0.33939999"
     id="circle118"
     cx="84.7873"
     cy="15.403795" />
  <text
     font-family="'Roboto Light'"
     font-size="2.2001px"
     text-anchor="start"
     fill="currentColor"
     id="text122"
     x="79.752403"
     y="13.946195"><tspan
       id="tspan120">Sensível</tspan></text>
  <path
     d="m 83.566,3.8875951 c -0.2,0 -0.276,0.172 -0.276,0.352 0,0.308 0.228,0.544 0.536,0.544 0.2,0 0.276,-0.172 0.276,-0.352 0,-0.308 -0.228,-0.544 -0.536,-0.544 z m 1.12,0.448 c 0,0.172 -0.14,0.304 -0.292,0.388 -0.212,0.12 -0.452,0.164 -0.696,0.164 -0.244,0 -0.488,-0.044 -0.7,-0.164 -0.152,-0.084 -0.292,-0.216 -0.292,-0.388 0,-0.172 0.14,-0.304 0.292,-0.388 0.212,-0.12 0.456,-0.164 0.7,-0.164 0.244,0 0.484,0.044 0.696,0.164 0.152,0.084 0.292,0.216 0.292,0.388 z"
     fill="currentColor"
     id="path124"
     style="stroke-width:0.004" />
  <path
     d="m 83.566,4.8875951 c -0.2,0 -0.276,0.172 -0.276,0.352 0,0.308 0.228,0.544 0.536,0.544 0.2,0 0.276,-0.172 0.276,-0.352 0,-0.308 -0.228,-0.544 -0.536,-0.544 z m 1.12,0.448 c 0,0.172 -0.14,0.304 -0.292,0.388 -0.212,0.12 -0.452,0.164 -0.696,0.164 -0.244,0 -0.488,-0.044 -0.7,-0.164 -0.152,-0.084 -0.292,-0.216 -0.292,-0.388 0,-0.172 0.14,-0.304 0.292,-0.388 0.212,-0.12 0.456,-0.164 0.7,-0.164 0.244,0 0.484,0.044 0.696,0.164 0.152,0.084 0.292,0.216 0.292,0.388 z"
     fill="currentColor"
     id="path126"
     style="stroke-width:0.004" />
  <path
     d="m 83.566,5.8875951 c -0.2,0 -0.276,0.172 -0.276,0.352 0,0.308 0.228,0.544 0.536,0.544 0.2,0 0.276,-0.172 0.276,-0.352 0,-0.308 -0.228,-0.544 -0.536,-0.544 z m 1.12,0.448 c 0,0.172 -0.14,0.304 -0.292,0.388 -0.212,0.12 -0.452,0.164 -0.696,0.164 -0.244,0 -0.488,-0.044 -0.7,-0.164 -0.152,-0.084 -0.292,-0.216 -0.292,-0.388 0,-0.172 0.14,-0.304 0.292,-0.388 0.212,-0.12 0.456,-0.164 0.7,-0.164 0.244,0 0.484,0.044 0.696,0.164 0.152,0.084 0.292,0.216 0.292,0.388 z"
     fill="currentColor"
     id="path128"
     style="stroke-width:0.004" />
  <path
     d="m 83.566,6.8875951 c -0.2,0 -0.276,0.172 -0.276,0.352 0,0.308 0.228,0.544 0.536,0.544 0.2,0 0.276,-0.172 0.276,-0.352 0,-0.308 -0.228,-0.544 -0.536,-0.544 z m 1.12,0.448 c 0,0.172 -0.14,0.304 -0.292,0.388 -0.212,0.12 -0.452,0.164 -0.696,0.164 -0.244,0 -0.488,-0.044 -0.7,-0.164 -0.152,-0.084 -0.292,-0.216 -0.292,-0.388 0,-0.172 0.14,-0.304 0.292,-0.388 0.212,-0.12 0.456,-0.164 0.7,-0.164 0.244,0 0.484,0.044 0.696,0.164 0.152,0.084 0.292,0.216 0.292,0.388 z"
     fill="currentColor"
     id="path130"
     style="stroke-width:0.004" />
  <text
     font-family="sans-serif"
     font-size="2.6163px"
     text-anchor="start"
     fill="currentColor"
     id="text134"
     x="82.706001"
     y="3.2855949"><tspan
       id="tspan132">D</tspan></text>
  <text
     font-family="sans-serif"
     font-size="2.6163px"
     text-anchor="start"
     fill="currentColor"
     id="text138"
     x="84.754601"
     y="3.2855949"><tspan
       id="tspan136" /></text>
  <text
     font-family="sans-serif"
     font-size="2.6163px"
     text-anchor="start"
     fill="currentColor"
     id="text142"
     x="84.754601"
     y="1.7855951"><tspan
       id="tspan140">ø</tspan></text>
  <text
     font-family="'Roboto Slab Light'"
     font-size="2.2001px"
     text-anchor="start"
     fill="currentColor"
     id="text146"
     x="3.1752999"
     y="16.746195"><tspan
       id="tspan144">AF:</tspan></text>
  <text
     font-family="'Roboto Light'"
     font-size="2.2001px"
     text-anchor="start"
     fill="currentColor"
     id="text150"
     x="10.5943"
     y="16.746195"><tspan
       id="tspan148">I</tspan></text>
  <text
     font-family="'Roboto Slab Light'"
     font-size="2.2001px"
     text-anchor="start"
     fill="currentColor"
     id="text154"
     y="13.946195"><tspan
       id="tspan152">Nome:</tspan></text>
  <text
     font-family="'Roboto Light'"
     font-size="2.2001px"
     text-anchor="start"
     fill="currentColor"
     id="text158"
     x="7.5555"
     y="13.946195"><tspan
       id="tspan156">Tónica</tspan></text>
  <path
     d="m 4.528,8.1715951 -0.004,0.264 v 0.044 c 0,0.088 0.004,0.176 0.016,0.264 0.18,-0.152 0.372,-0.32 0.372,-0.556 0,-0.132 -0.056,-0.268 -0.172,-0.268 -0.124,0 -0.208,0.12 -0.212,0.252 z m -0.168,0.716 -0.048,-2.38 c 0.032,-0.02 0.072,-0.032 0.108,-0.032 0.036,0 0.076,0.012 0.108,0.032 l -0.028,1.38 c 0.1,-0.084 0.232,-0.136 0.364,-0.136 0.208,0 0.356,0.192 0.356,0.408 0,0.32 -0.344,0.468 -0.588,0.676 -0.06,0.052 -0.096,0.152 -0.18,0.152 -0.052,0 -0.092,-0.044 -0.092,-0.1 z"
     fill="currentColor"
     id="path160"
     style="stroke-width:0.004" />
  <path
     d="m 5.448,6.6715951 -0.004,0.264 v 0.044 c 0,0.088 0.004,0.176 0.016,0.264 0.18,-0.152 0.372,-0.32 0.372,-0.556 0,-0.132 -0.056,-0.268 -0.172,-0.268 -0.124,0 -0.208,0.12 -0.212,0.252 z m -0.168,0.716 -0.048,-2.38 c 0.032,-0.02 0.072,-0.032 0.108,-0.032 0.036,0 0.076,0.012 0.108,0.032 l -0.028,1.38 c 0.1,-0.084 0.232,-0.136 0.364,-0.136 0.208,0 0.356,0.192 0.356,0.408 0,0.32 -0.344,0.468 -0.588,0.676 -0.06,0.052 -0.096,0.152 -0.18,0.152 -0.052,0 -0.092,-0.044 -0.092,-0.1 z"
     fill="currentColor"
     id="path162"
     style="stroke-width:0.004" />
  <path
     d="m 6.368,8.6715951 -0.004,0.264 v 0.044 c 0,0.088 0.004,0.176 0.016,0.264 0.18,-0.152 0.372,-0.32 0.372,-0.556 0,-0.132 -0.056,-0.268 -0.172,-0.268 -0.124,0 -0.208,0.12 -0.212,0.252 z m -0.168,0.716 -0.048,-2.38 c 0.032,-0.02 0.072,-0.032 0.108,-0.032 0.036,0 0.076,0.012 0.108,0.032 l -0.028,1.38 c 0.1,-0.084 0.232,-0.136 0.364,-0.136 0.208,0 0.356,0.192 0.356,0.408 0,0.32 -0.344,0.468 -0.588,0.676 -0.06,0.052 -0.096,0.152 -0.18,0.152 -0.052,0 -0.092,-0.044 -0.092,-0.1 z"
     fill="currentColor"
     id="path164"
     style="stroke-width:0.004" />
  <path
     d="m 2.304,8.2875951 c 0.016,0 0.036,-0.004 0.052,-0.004 0.62,0 1.024,0.512 1.024,1.044 0,0.304 -0.132,0.616 -0.428,0.8399999 -0.088,0.068 -0.188,0.112 -0.292,0.144 0.012,0.14 0.02,0.28 0.02,0.42 0,0.076 -0.004,0.156 -0.008,0.232 -0.028,0.48 -0.36,0.912 -0.832,0.912 -0.432,0 -0.78,-0.352 -0.78,-0.788 0,-0.232 0.212,-0.412 0.448,-0.412 0.216,0 0.38,0.188 0.38,0.412 0,0.208 -0.172,0.38 -0.38,0.38 -0.044,0 -0.084,-0.008 -0.124,-0.024 0.104,0.156 0.272,0.26 0.468,0.26 0.384,0 0.628,-0.368 0.652,-0.764 0.004,-0.072 0.008,-0.148 0.008,-0.22 0,-0.124 -0.004,-0.244 -0.016,-0.368 -0.116,0.02 -0.232,0.032 -0.356,0.032 -0.752,0 -1.332,-0.6879999 -1.332,-1.4959999 0,-0.708 0.524,-1.224 0.992,-1.764 -0.076,-0.248 -0.148,-0.5 -0.18,-0.76 -0.024,-0.208 -0.028,-0.416 -0.028,-0.624 0,-0.46 0.22,-0.896 0.596,-1.168 0.012,-0.008 0.028,-0.012 0.04,-0.012 0.016,0 0.028,0 0.04,0.012 0.284,0.336 0.532,0.98 0.532,1.432 0,0.572 -0.344,1.02 -0.72,1.456 0.084,0.272 0.156,0.552 0.224,0.828 z m 0.34,1.8599999 c 0.272,-0.096 0.452,-0.3799999 0.452,-0.6559999 0,-0.36 -0.264,-0.716 -0.692,-0.76 0.096,0.464 0.184,0.924 0.24,1.4159999 z M 1.096,9.2235951 c 0,0.54 0.516,0.9879999 1.056,0.9879999 0.112,0 0.22,-0.008 0.328,-0.024 C 2.424,9.6795951 2.332,9.2075951 2.228,8.7315951 c -0.316,0.032 -0.496,0.244 -0.496,0.476 0,0.176 0.1,0.364 0.324,0.492 0.02,0.02 0.028,0.04 0.028,0.06 0,0.044 -0.04,0.088 -0.088,0.088 -0.012,0 -0.024,-0.004 -0.036,-0.008 -0.32,-0.172 -0.468,-0.46 -0.468,-0.74 0,-0.352 0.232,-0.696 0.64,-0.788 -0.056,-0.232 -0.116,-0.468 -0.184,-0.7 -0.428,0.484 -0.852,0.972 -0.852,1.612 z m 1.336,-4.068 c -0.396,0.192 -0.648,0.596 -0.648,1.036 0,0.296 0.072,0.532 0.144,0.776 0.32,-0.388 0.584,-0.792 0.584,-1.296 0,-0.22 -0.016,-0.316 -0.08,-0.516 z"
     fill="currentColor"
     id="path166"
     style="stroke-width:0.004" />
  <path
     d="m 10.7545,6.8875951 c -0.2,0 -0.276,0.172 -0.276,0.352 0,0.308 0.228,0.544 0.536,0.544 0.2,0 0.276,-0.172 0.276,-0.352 0,-0.308 -0.228,-0.544 -0.536,-0.544 z m 1.12,0.448 c 0,0.172 -0.14,0.304 -0.292,0.388 -0.212,0.12 -0.452,0.164 -0.696,0.164 -0.244,0 -0.488,-0.044 -0.7,-0.164 -0.152,-0.084 -0.292,-0.216 -0.292,-0.388 0,-0.172 0.14,-0.304 0.292,-0.388 0.212,-0.12 0.456,-0.164 0.7,-0.164 0.244,0 0.484,0.044 0.696,0.164 0.152,0.084 0.292,0.216 0.292,0.388 z"
     fill="currentColor"
     id="path168"
     style="stroke-width:0.004" />
  <path
     d="m 10.7545,7.8875951 c -0.2,0 -0.276,0.172 -0.276,0.352 0,0.308 0.228,0.544 0.536,0.544 0.2,0 0.276,-0.172 0.276,-0.352 0,-0.308 -0.228,-0.544 -0.536,-0.544 z m 1.12,0.448 c 0,0.172 -0.14,0.304 -0.292,0.388 -0.212,0.12 -0.452,0.164 -0.696,0.164 -0.244,0 -0.488,-0.044 -0.7,-0.164 -0.152,-0.084 -0.292,-0.216 -0.292,-0.388 0,-0.172 0.14,-0.304 0.292,-0.388 0.212,-0.12 0.456,-0.164 0.7,-0.164 0.244,0 0.484,0.044 0.696,0.164 0.152,0.084 0.292,0.216 0.292,0.388 z"
     fill="currentColor"
     id="path170"
     style="stroke-width:0.004" />
  <path
     d="m 10.7545,8.8875951 c -0.2,0 -0.276,0.172 -0.276,0.352 0,0.308 0.228,0.544 0.536,0.544 0.2,0 0.276,-0.172 0.276,-0.352 0,-0.308 -0.228,-0.544 -0.536,-0.544 z m 1.12,0.448 c 0,0.172 -0.14,0.304 -0.292,0.388 -0.212,0.12 -0.452,0.164 -0.696,0.164 -0.244,0 -0.488,-0.044 -0.7,-0.164 -0.152,-0.084 -0.292,-0.216 -0.292,-0.388 0,-0.172 0.14,-0.304 0.292,-0.388 0.212,-0.12 0.456,-0.164 0.7,-0.164 0.244,0 0.484,0.044 0.696,0.164 0.152,0.084 0.292,0.216 0.292,0.388 z"
     fill="currentColor"
     id="path172"
     style="stroke-width:0.004" />
  <path
     d="m 10.7545,9.8875951 c -0.2,0 -0.276,0.1719999 -0.276,0.3519999 0,0.308 0.228,0.544 0.536,0.544 0.2,0 0.276,-0.172 0.276,-0.352 0,-0.308 -0.228,-0.5439999 -0.536,-0.5439999 z m 1.12,0.4479999 c 0,0.172 -0.14,0.304 -0.292,0.388 -0.212,0.12 -0.452,0.164 -0.696,0.164 -0.244,0 -0.488,-0.044 -0.7,-0.164 -0.152,-0.084 -0.292,-0.216 -0.292,-0.388 0,-0.172 0.14,-0.304 0.292,-0.3879999 0.212,-0.12 0.456,-0.164 0.7,-0.164 0.244,0 0.484,0.044 0.696,0.164 0.152,0.084 0.292,0.2159999 0.292,0.3879999 z"
     fill="currentColor"
     id="path174"
     style="stroke-width:0.004" />
  <text
     font-family="sans-serif"
     font-size="2.6163px"
     text-anchor="start"
     fill="currentColor"
     id="text178"
     x="9.8944998"
     y="3.2855949"><tspan
       id="tspan176">E</tspan></text>
  <path
     d="m 11.9028,2.8133951 -0.0042,0.2772 v 0.0462 c 0,0.0924 0.0042,0.1848 0.0168,0.2772 0.189,-0.1596 0.3906,-0.336 0.3906,-0.5838 0,-0.1386 -0.0588,-0.2814 -0.1806,-0.2814 -0.1302,0 -0.2184,0.126 -0.2226,0.2646 z m -0.1764,0.7518 -0.0504,-2.499 c 0.0336,-0.021 0.0756,-0.0336 0.1134,-0.0336 0.0378,0 0.0798,0.0126 0.1134,0.0336 l -0.0294,1.449 c 0.105,-0.0882 0.2436,-0.1428 0.3822,-0.1428 0.2184,0 0.3738,0.2016 0.3738,0.4284 0,0.336 -0.3612,0.4914 -0.6174,0.7098 -0.063,0.0546 -0.1008,0.1596 -0.189,0.1596 -0.0546,0 -0.0966,-0.0462 -0.0966,-0.105 z"
     fill="currentColor"
     id="path180"
     style="stroke-width:0.0042" />
  <text
     font-family="sans-serif"
     font-size="2.6163px"
     text-anchor="start"
     fill="currentColor"
     id="text184"
     x="12.637"
     y="3.2855949"><tspan
       id="tspan182" /></text>
  <polygon
     transform="translate(12.637,1.7855951)"
     stroke-linejoin="round"
     stroke-linecap="round"
     stroke-width="0.1"
     fill="none"
     stroke="currentColor"
     points="1.0091,-1.7356 0,0 2.0182,0 "
     id="polygon186" />
  <text
     font-family="'Roboto Light'"
     font-size="2.2001px"
     text-anchor="start"
     fill="currentColor"
     id="text190"
     x="31.9853"
     y="16.746195"><tspan
       id="tspan188">iii</tspan></text>
  <text
     font-family="'Roboto Light'"
     font-size="2.2001px"
     text-anchor="start"
     fill="currentColor"
     id="text194"
     x="28.229601"
     y="13.946195"><tspan
       id="tspan192">Mediante</tspan></text>
  <path
     d="m 32.6236,5.8875951 c -0.2,0 -0.276,0.172 -0.276,0.352 0,0.308 0.228,0.544 0.536,0.544 0.2,0 0.276,-0.172 0.276,-0.352 0,-0.308 -0.228,-0.544 -0.536,-0.544 z m 1.12,0.448 c 0,0.172 -0.14,0.304 -0.292,0.388 -0.212,0.12 -0.452,0.164 -0.696,0.164 -0.244,0 -0.488,-0.044 -0.7,-0.164 -0.152,-0.084 -0.292,-0.216 -0.292,-0.388 0,-0.172 0.14,-0.304 0.292,-0.388 0.212,-0.12 0.456,-0.164 0.7,-0.164 0.244,0 0.484,0.044 0.696,0.164 0.152,0.084 0.292,0.216 0.292,0.388 z"
     fill="currentColor"
     id="path196"
     style="stroke-width:0.004" />
  <path
     d="m 32.6236,6.8875951 c -0.2,0 -0.276,0.172 -0.276,0.352 0,0.308 0.228,0.544 0.536,0.544 0.2,0 0.276,-0.172 0.276,-0.352 0,-0.308 -0.228,-0.544 -0.536,-0.544 z m 1.12,0.448 c 0,0.172 -0.14,0.304 -0.292,0.388 -0.212,0.12 -0.452,0.164 -0.696,0.164 -0.244,0 -0.488,-0.044 -0.7,-0.164 -0.152,-0.084 -0.292,-0.216 -0.292,-0.388 0,-0.172 0.14,-0.304 0.292,-0.388 0.212,-0.12 0.456,-0.164 0.7,-0.164 0.244,0 0.484,0.044 0.696,0.164 0.152,0.084 0.292,0.216 0.292,0.388 z"
     fill="currentColor"
     id="path198"
     style="stroke-width:0.004" />
  <path
     d="m 32.6236,7.8875951 c -0.2,0 -0.276,0.172 -0.276,0.352 0,0.308 0.228,0.544 0.536,0.544 0.2,0 0.276,-0.172 0.276,-0.352 0,-0.308 -0.228,-0.544 -0.536,-0.544 z m 1.12,0.448 c 0,0.172 -0.14,0.304 -0.292,0.388 -0.212,0.12 -0.452,0.164 -0.696,0.164 -0.244,0 -0.488,-0.044 -0.7,-0.164 -0.152,-0.084 -0.292,-0.216 -0.292,-0.388 0,-0.172 0.14,-0.304 0.292,-0.388 0.212,-0.12 0.456,-0.164 0.7,-0.164 0.244,0 0.484,0.044 0.696,0.164 0.152,0.084 0.292,0.216 0.292,0.388 z"
     fill="currentColor"
     id="path200"
     style="stroke-width:0.004" />
  <path
     d="m 32.6236,8.8875951 c -0.2,0 -0.276,0.172 -0.276,0.352 0,0.308 0.228,0.544 0.536,0.544 0.2,0 0.276,-0.172 0.276,-0.352 0,-0.308 -0.228,-0.544 -0.536,-0.544 z m 1.12,0.448 c 0,0.172 -0.14,0.304 -0.292,0.388 -0.212,0.12 -0.452,0.164 -0.696,0.164 -0.244,0 -0.488,-0.044 -0.7,-0.164 -0.152,-0.084 -0.292,-0.216 -0.292,-0.388 0,-0.172 0.14,-0.304 0.292,-0.388 0.212,-0.12 0.456,-0.164 0.7,-0.164 0.244,0 0.484,0.044 0.696,0.164 0.152,0.084 0.292,0.216 0.292,0.388 z"
     fill="currentColor"
     id="path202"
     style="stroke-width:0.004" />
  <text
     font-family="sans-serif"
     font-size="2.6163px"
     text-anchor="start"
     fill="currentColor"
     id="text206"
     x="31.763599"
     y="3.2855949"><tspan
       id="tspan204">G</tspan></text>
  <text
     font-family="sans-serif"
     font-size="2.6163px"
     text-anchor="start"
     fill="currentColor"
     id="text210"
     x="33.778"
     y="3.2855949"><tspan
       id="tspan208" /></text>
  <text
     font-family="sans-serif"
     font-size="2.6163px"
     text-anchor="start"
     fill="currentColor"
     id="text214"
     x="33.778"
     y="3.2855949"><tspan
       id="tspan212">m</tspan></text>
  <text
     font-family="sans-serif"
     font-size="1.85px"
     text-anchor="start"
     fill="currentColor"
     id="text218"
     x="36.338799"
     y="1.7855951"><tspan
       id="tspan216" /></text>
  <text
     font-family="sans-serif"
     font-size="1.85px"
     text-anchor="start"
     fill="currentColor"
     id="text222"
     x="36.338799"
     y="1.7855951"><tspan
       id="tspan220">7</tspan></text>
  <text
     font-family="'Roboto Light'"
     font-size="2.2001px"
     text-anchor="start"
     fill="currentColor"
     id="text226"
     x="20.7094"
     y="16.746195"><tspan
       id="tspan224">ii</tspan></text>
  <text
     font-family="'Roboto Light'"
     font-size="2.2001px"
     text-anchor="start"
     fill="currentColor"
     id="text230"
     x="15.383"
     y="13.946195"><tspan
       id="tspan228">Supertónica</tspan></text>
  <path
     d="m 21.0915,6.3875951 c -0.2,0 -0.276,0.172 -0.276,0.352 0,0.308 0.228,0.544 0.536,0.544 0.2,0 0.276,-0.172 0.276,-0.352 0,-0.308 -0.228,-0.544 -0.536,-0.544 z m 1.12,0.448 c 0,0.172 -0.14,0.304 -0.292,0.388 -0.212,0.12 -0.452,0.164 -0.696,0.164 -0.244,0 -0.488,-0.044 -0.7,-0.164 -0.152,-0.084 -0.292,-0.216 -0.292,-0.388 0,-0.172 0.14,-0.304 0.292,-0.388 0.212,-0.12 0.456,-0.164 0.7,-0.164 0.244,0 0.484,0.044 0.696,0.164 0.152,0.084 0.292,0.216 0.292,0.388 z"
     fill="currentColor"
     id="path232"
     style="stroke-width:0.004" />
  <text
     font-family="sans-serif"
     font-size="2.6163px"
     text-anchor="start"
     fill="currentColor"
     id="text236"
     x="44.576"
     y="3.2855949"><tspan
       id="tspan234">A</tspan></text>
  <path
     d="m 46.6867,2.8133951 -0.0042,0.2772 v 0.0462 c 0,0.0924 0.0042,0.1848 0.0168,0.2772 0.189,-0.1596 0.3906,-0.336 0.3906,-0.5838 0,-0.1386 -0.0588,-0.2814 -0.1806,-0.2814 -0.1302,0 -0.2184,0.126 -0.2226,0.2646 z m -0.1764,0.7518 -0.0504,-2.499 c 0.0336,-0.021 0.0756,-0.0336 0.1134,-0.0336 0.0378,0 0.0798,0.0126 0.1134,0.0336 l -0.0294,1.449 c 0.105,-0.0882 0.2436,-0.1428 0.3822,-0.1428 0.2184,0 0.3738,0.2016 0.3738,0.4284 0,0.336 -0.3612,0.4914 -0.6174,0.7098 -0.063,0.0546 -0.1008,0.1596 -0.189,0.1596 -0.0546,0 -0.0966,-0.0462 -0.0966,-0.105 z"
     fill="currentColor"
     id="path238"
     style="stroke-width:0.0042" />
  <text
     font-family="sans-serif"
     font-size="2.6163px"
     text-anchor="start"
     fill="currentColor"
     id="text242"
     x="47.420898"
     y="3.2855949"><tspan
       id="tspan240" /></text>
  <polygon
     transform="translate(47.4209,1.7855951)"
     stroke-linejoin="round"
     stroke-linecap="round"
     stroke-width="0.1"
     fill="none"
     stroke="currentColor"
     points="1.0091,-1.7356 0,0 2.0182,0 "
     id="polygon244" />
  <path
     d="m 21.0915,7.3875951 c -0.2,0 -0.276,0.172 -0.276,0.352 0,0.308 0.228,0.544 0.536,0.544 0.2,0 0.276,-0.172 0.276,-0.352 0,-0.308 -0.228,-0.544 -0.536,-0.544 z m 1.12,0.448 c 0,0.172 -0.14,0.304 -0.292,0.388 -0.212,0.12 -0.452,0.164 -0.696,0.164 -0.244,0 -0.488,-0.044 -0.7,-0.164 -0.152,-0.084 -0.292,-0.216 -0.292,-0.388 0,-0.172 0.14,-0.304 0.292,-0.388 0.212,-0.12 0.456,-0.164 0.7,-0.164 0.244,0 0.484,0.044 0.696,0.164 0.152,0.084 0.292,0.216 0.292,0.388 z"
     fill="currentColor"
     id="path246"
     style="stroke-width:0.004" />
  <path
     d="m 21.0915,8.3875951 c -0.2,0 -0.276,0.172 -0.276,0.352 0,0.308 0.228,0.544 0.536,0.544 0.2,0 0.276,-0.172 0.276,-0.352 0,-0.308 -0.228,-0.544 -0.536,-0.544 z m 1.12,0.448 c 0,0.172 -0.14,0.304 -0.292,0.388 -0.212,0.12 -0.452,0.164 -0.696,0.164 -0.244,0 -0.488,-0.044 -0.7,-0.164 -0.152,-0.084 -0.292,-0.216 -0.292,-0.388 0,-0.172 0.14,-0.304 0.292,-0.388 0.212,-0.12 0.456,-0.164 0.7,-0.164 0.244,0 0.484,0.044 0.696,0.164 0.152,0.084 0.292,0.216 0.292,0.388 z"
     fill="currentColor"
     id="path248"
     style="stroke-width:0.004" />
  <path
     d="m 21.0915,9.3875951 c -0.2,0 -0.276,0.172 -0.276,0.352 0,0.3079999 0.228,0.5439999 0.536,0.5439999 0.2,0 0.276,-0.172 0.276,-0.3519999 0,-0.308 -0.228,-0.544 -0.536,-0.544 z m 1.12,0.448 c 0,0.1719999 -0.14,0.3039999 -0.292,0.3879999 -0.212,0.12 -0.452,0.164 -0.696,0.164 -0.244,0 -0.488,-0.044 -0.7,-0.164 -0.152,-0.084 -0.292,-0.216 -0.292,-0.3879999 0,-0.172 0.14,-0.304 0.292,-0.388 0.212,-0.12 0.456,-0.164 0.7,-0.164 0.244,0 0.484,0.044 0.696,0.164 0.152,0.084 0.292,0.216 0.292,0.388 z"
     fill="currentColor"
     id="path250"
     style="stroke-width:0.004" />
  <text
     font-family="sans-serif"
     font-size="2.6163px"
     text-anchor="start"
     fill="currentColor"
     id="text254"
     x="20.231501"
     y="3.2855949"><tspan
       id="tspan252">F</tspan></text>
  <text
     font-family="sans-serif"
     font-size="2.6163px"
     text-anchor="start"
     fill="currentColor"
     id="text258"
     x="21.733801"
     y="3.2855949"><tspan
       id="tspan256" /></text>
  <text
     font-family="sans-serif"
     font-size="2.6163px"
     text-anchor="start"
     fill="currentColor"
     id="text262"
     x="21.733801"
     y="3.2855949"><tspan
       id="tspan260">m</tspan></text>
  <text
     font-family="sans-serif"
     font-size="1.85px"
     text-anchor="start"
     fill="currentColor"
     id="text266"
     x="24.2946"
     y="1.7855951"><tspan
       id="tspan264" /></text>
  <text
     font-family="sans-serif"
     font-size="1.85px"
     text-anchor="start"
     fill="currentColor"
     id="text270"
     x="24.2946"
     y="1.7855951"><tspan
       id="tspan268">7</tspan></text>
  <path
     d="m 45.436,8.3875951 c -0.2,0 -0.276,0.172 -0.276,0.352 0,0.308 0.228,0.544 0.536,0.544 0.2,0 0.276,-0.172 0.276,-0.352 0,-0.308 -0.228,-0.544 -0.536,-0.544 z m 1.12,0.448 c 0,0.172 -0.14,0.304 -0.292,0.388 -0.212,0.12 -0.452,0.164 -0.696,0.164 -0.244,0 -0.488,-0.044 -0.7,-0.164 -0.152,-0.084 -0.292,-0.216 -0.292,-0.388 0,-0.172 0.14,-0.304 0.292,-0.388 0.212,-0.12 0.456,-0.164 0.7,-0.164 0.244,0 0.484,0.044 0.696,0.164 0.152,0.084 0.292,0.216 0.292,0.388 z"
     fill="currentColor"
     id="path272"
     style="stroke-width:0.004" />
</svg>
