<?xml version="1.0" encoding="UTF-8" standalone="no"?>
<svg
   version="1.2"
   width="159.20001mm"
   height="27.233932mm"
   viewBox="0 0 90.593601 15.497611"
   id="svg242"
   xmlns="http://www.w3.org/2000/svg"
   xmlns:svg="http://www.w3.org/2000/svg">
  <defs
     id="defs246" />
  <!-- Page: 1/1 -->
  <text
     font-family="'Century Schoolbook L'"
     font-size="2.2001px"
     text-anchor="start"
     fill="currentColor"
     id="text4"
     y="-0.9872883"><tspan
       id="tspan2" /></text>
  <rect
     x="89.993599"
     y="5.0870118"
     width="0.60000002"
     height="4"
     ry="0.0000"
     fill="currentColor"
     id="rect6" />
  <rect
     x="89.503601"
     y="5.0870118"
     width="0.19"
     height="4"
     ry="0.0000"
     fill="currentColor"
     id="rect8" />
  <rect
     x="70.661797"
     y="3.9870117"
     width="2.97"
     height="0.2"
     ry="0.1"
     fill="currentColor"
     id="rect10" />
  <rect
     x="82.210999"
     y="3.9870117"
     width="2.97"
     height="0.2"
     ry="0.1"
     fill="currentColor"
     id="rect12" />
  <line
     stroke-linejoin="round"
     stroke-linecap="round"
     stroke-width="0.1"
     stroke="currentColor"
     x1="0.050000001"
     y1="9.0870113"
     x2="90.543602"
     y2="9.0870113"
     id="line14" />
  <line
     stroke-linejoin="round"
     stroke-linecap="round"
     stroke-width="0.1"
     stroke="currentColor"
     x1="0.050000001"
     y1="8.0870113"
     x2="90.543602"
     y2="8.0870113"
     id="line16" />
  <line
     stroke-linejoin="round"
     stroke-linecap="round"
     stroke-width="0.1"
     stroke="currentColor"
     x1="0.050000001"
     y1="7.0870118"
     x2="90.543602"
     y2="7.0870118"
     id="line18" />
  <line
     stroke-linejoin="round"
     stroke-linecap="round"
     stroke-width="0.1"
     stroke="currentColor"
     x1="0.050000001"
     y1="6.0870118"
     x2="90.543602"
     y2="6.0870118"
     id="line20" />
  <line
     stroke-linejoin="round"
     stroke-linecap="round"
     stroke-width="0.1"
     stroke="currentColor"
     x1="0.050000001"
     y1="5.0870118"
     x2="90.543602"
     y2="5.0870118"
     id="line22" />
  <text
     font-family="'Roboto Light'"
     font-size="2.2001px"
     text-anchor="start"
     fill="currentColor"
     id="text26"
     x="58.514999"
     y="15.497612"><tspan
       id="tspan24">V</tspan></text>
  <text
     font-family="sans-serif"
     font-size="2.6163px"
     text-anchor="start"
     fill="currentColor"
     id="text30"
     x="71.156799"
     y="2.5370116"><tspan
       id="tspan28">D</tspan></text>
  <text
     font-family="sans-serif"
     font-size="2.6163px"
     text-anchor="start"
     fill="currentColor"
     id="text34"
     x="73.205399"
     y="2.5370116"><tspan
       id="tspan32" /></text>
  <text
     font-family="sans-serif"
     font-size="2.6163px"
     text-anchor="start"
     fill="currentColor"
     id="text38"
     x="73.205399"
     y="2.5370116"><tspan
       id="tspan36">m</tspan></text>
  <text
     font-family="sans-serif"
     font-size="1.85px"
     text-anchor="start"
     fill="currentColor"
     id="text42"
     x="75.766197"
     y="1.0370117"><tspan
       id="tspan40" /></text>
  <path
     d="m 72.0168,5.6390117 c -0.2,0 -0.276,0.172 -0.276,0.352 0,0.308 0.228,0.544 0.536,0.544 0.2,0 0.276,-0.172 0.276,-0.352 0,-0.308 -0.228,-0.544 -0.536,-0.544 z m 1.12,0.448 c 0,0.172 -0.14,0.304 -0.292,0.388 -0.212,0.12 -0.452,0.164 -0.696,0.164 -0.244,0 -0.488,-0.044 -0.7,-0.164 -0.152,-0.084 -0.292,-0.216 -0.292,-0.388 0,-0.172 0.14,-0.304 0.292,-0.388 0.212,-0.12 0.456,-0.164 0.7,-0.164 0.244,0 0.484,0.044 0.696,0.164 0.152,0.084 0.292,0.216 0.292,0.388 z"
     fill="currentColor"
     id="path44"
     style="stroke-width:0.004" />
  <path
     d="m 72.0168,4.6390117 c -0.2,0 -0.276,0.172 -0.276,0.352 0,0.308 0.228,0.544 0.536,0.544 0.2,0 0.276,-0.172 0.276,-0.352 0,-0.308 -0.228,-0.544 -0.536,-0.544 z m 1.12,0.448 c 0,0.172 -0.14,0.304 -0.292,0.388 -0.212,0.12 -0.452,0.164 -0.696,0.164 -0.244,0 -0.488,-0.044 -0.7,-0.164 -0.152,-0.084 -0.292,-0.216 -0.292,-0.388 0,-0.172 0.14,-0.304 0.292,-0.388 0.212,-0.12 0.456,-0.164 0.7,-0.164 0.244,0 0.484,0.044 0.696,0.164 0.152,0.084 0.292,0.216 0.292,0.388 z"
     fill="currentColor"
     id="path46"
     style="stroke-width:0.004" />
  <path
     d="m 72.0168,3.6390117 c -0.2,0 -0.276,0.172 -0.276,0.352 0,0.308 0.228,0.544 0.536,0.544 0.2,0 0.276,-0.172 0.276,-0.352 0,-0.308 -0.228,-0.544 -0.536,-0.544 z m 1.12,0.448 c 0,0.172 -0.14,0.304 -0.292,0.388 -0.212,0.12 -0.452,0.164 -0.696,0.164 -0.244,0 -0.488,-0.044 -0.7,-0.164 -0.152,-0.084 -0.292,-0.216 -0.292,-0.388 0,-0.172 0.14,-0.304 0.292,-0.388 0.212,-0.12 0.456,-0.164 0.7,-0.164 0.244,0 0.484,0.044 0.696,0.164 0.152,0.084 0.292,0.216 0.292,0.388 z"
     fill="currentColor"
     id="path48"
     style="stroke-width:0.004" />
  <text
     font-family="'Roboto Light'"
     font-size="2.2001px"
     text-anchor="start"
     fill="currentColor"
     id="text52"
     x="65.7108"
     y="12.697612"><tspan
       id="tspan50">Submediante</tspan></text>
  <text
     font-family="'Roboto Light'"
     font-size="2.2001px"
     text-anchor="start"
     fill="currentColor"
     id="text56"
     x="71.361603"
     y="15.497612"><tspan
       id="tspan54">vi</tspan></text>
  <text
     font-family="'Roboto Light'"
     font-size="2.2001px"
     text-anchor="start"
     fill="currentColor"
     id="text60"
     x="53.854401"
     y="12.697612"><tspan
       id="tspan58">Dominante</tspan></text>
  <path
     d="m 59.0679,4.1390117 c -0.2,0 -0.276,0.172 -0.276,0.352 0,0.308 0.228,0.544 0.536,0.544 0.2,0 0.276,-0.172 0.276,-0.352 0,-0.308 -0.228,-0.544 -0.536,-0.544 z m 1.12,0.448 c 0,0.172 -0.14,0.304 -0.292,0.388 -0.212,0.12 -0.452,0.164 -0.696,0.164 -0.244,0 -0.488,-0.044 -0.7,-0.164 -0.152,-0.084 -0.292,-0.216 -0.292,-0.388 0,-0.172 0.14,-0.304 0.292,-0.388 0.212,-0.12 0.456,-0.164 0.7,-0.164 0.244,0 0.484,0.044 0.696,0.164 0.152,0.084 0.292,0.216 0.292,0.388 z"
     fill="currentColor"
     id="path62"
     style="stroke-width:0.004" />
  <path
     d="m 59.0679,5.1390117 c -0.2,0 -0.276,0.172 -0.276,0.352 0,0.308 0.228,0.544 0.536,0.544 0.2,0 0.276,-0.172 0.276,-0.352 0,-0.308 -0.228,-0.544 -0.536,-0.544 z m 1.12,0.448 c 0,0.172 -0.14,0.304 -0.292,0.388 -0.212,0.12 -0.452,0.164 -0.696,0.164 -0.244,0 -0.488,-0.044 -0.7,-0.164 -0.152,-0.084 -0.292,-0.216 -0.292,-0.388 0,-0.172 0.14,-0.304 0.292,-0.388 0.212,-0.12 0.456,-0.164 0.7,-0.164 0.244,0 0.484,0.044 0.696,0.164 0.152,0.084 0.292,0.216 0.292,0.388 z"
     fill="currentColor"
     id="path64"
     style="stroke-width:0.004" />
  <path
     d="m 59.0679,6.1390117 c -0.2,0 -0.276,0.172 -0.276,0.352 0,0.308 0.228,0.544 0.536,0.544 0.2,0 0.276,-0.172 0.276,-0.352 0,-0.308 -0.228,-0.544 -0.536,-0.544 z m 1.12,0.448 c 0,0.172 -0.14,0.304 -0.292,0.388 -0.212,0.12 -0.452,0.164 -0.696,0.164 -0.244,0 -0.488,-0.044 -0.7,-0.164 -0.152,-0.084 -0.292,-0.216 -0.292,-0.388 0,-0.172 0.14,-0.304 0.292,-0.388 0.212,-0.12 0.456,-0.164 0.7,-0.164 0.244,0 0.484,0.044 0.696,0.164 0.152,0.084 0.292,0.216 0.292,0.388 z"
     fill="currentColor"
     id="path66"
     style="stroke-width:0.004" />
  <text
     font-family="sans-serif"
     font-size="2.6163px"
     text-anchor="start"
     fill="currentColor"
     id="text70"
     x="58.207901"
     y="2.5370116"><tspan
       id="tspan68">C</tspan></text>
  <text
     font-family="sans-serif"
     font-size="2.6163px"
     text-anchor="start"
     fill="currentColor"
     id="text74"
     x="60.017399"
     y="2.5370116"><tspan
       id="tspan72" /></text>
  <text
     font-family="sans-serif"
     font-size="2.6163px"
     text-anchor="start"
     fill="currentColor"
     id="text78"
     x="60.017399"
     y="2.5370116"><tspan
       id="tspan76" /></text>
  <text
     font-family="sans-serif"
     font-size="1.85px"
     text-anchor="start"
     fill="currentColor"
     id="text82"
     x="60.017399"
     y="1.0370117"><tspan
       id="tspan80" /></text>
  <text
     font-family="'Roboto Light'"
     font-size="2.2001px"
     text-anchor="start"
     fill="currentColor"
     id="text86"
     x="44.592899"
     y="15.497612"><tspan
       id="tspan84">IV</tspan></text>
  <text
     font-family="'Roboto Light'"
     font-size="2.2001px"
     text-anchor="start"
     fill="currentColor"
     id="text90"
     x="38.447102"
     y="12.697612"><tspan
       id="tspan88">Subdominante</tspan></text>
  <path
     d="m 45.436,4.6390117 c -0.2,0 -0.276,0.172 -0.276,0.352 0,0.308 0.228,0.544 0.536,0.544 0.2,0 0.276,-0.172 0.276,-0.352 0,-0.308 -0.228,-0.544 -0.536,-0.544 z m 1.12,0.448 c 0,0.172 -0.14,0.304 -0.292,0.388 -0.212,0.12 -0.452,0.164 -0.696,0.164 -0.244,0 -0.488,-0.044 -0.7,-0.164 -0.152,-0.084 -0.292,-0.216 -0.292,-0.388 0,-0.172 0.14,-0.304 0.292,-0.388 0.212,-0.12 0.456,-0.164 0.7,-0.164 0.244,0 0.484,0.044 0.696,0.164 0.152,0.084 0.292,0.216 0.292,0.388 z"
     fill="currentColor"
     id="path92"
     style="stroke-width:0.004" />
  <path
     d="m 45.436,5.6390117 c -0.2,0 -0.276,0.172 -0.276,0.352 0,0.308 0.228,0.544 0.536,0.544 0.2,0 0.276,-0.172 0.276,-0.352 0,-0.308 -0.228,-0.544 -0.536,-0.544 z m 1.12,0.448 c 0,0.172 -0.14,0.304 -0.292,0.388 -0.212,0.12 -0.452,0.164 -0.696,0.164 -0.244,0 -0.488,-0.044 -0.7,-0.164 -0.152,-0.084 -0.292,-0.216 -0.292,-0.388 0,-0.172 0.14,-0.304 0.292,-0.388 0.212,-0.12 0.456,-0.164 0.7,-0.164 0.244,0 0.484,0.044 0.696,0.164 0.152,0.084 0.292,0.216 0.292,0.388 z"
     fill="currentColor"
     id="path94"
     style="stroke-width:0.004" />
  <text
     font-family="'Roboto Light'"
     font-size="2.2001px"
     text-anchor="start"
     fill="currentColor"
     id="text98"
     x="82.229797"
     y="15.497612"><tspan
       id="tspan96">vii</tspan></text>
  <circle
     stroke-linejoin="round"
     stroke-linecap="round"
     fill="none"
     stroke="currentColor"
     stroke-width="0.0707"
     r="0.33939999"
     id="circle100"
     cx="84.7873"
     cy="14.155211" />
  <text
     font-family="'Roboto Light'"
     font-size="2.2001px"
     text-anchor="start"
     fill="currentColor"
     id="text104"
     x="79.752403"
     y="12.697612"><tspan
       id="tspan102">Sensível</tspan></text>
  <path
     d="m 83.566,3.1390117 c -0.2,0 -0.276,0.172 -0.276,0.352 0,0.308 0.228,0.544 0.536,0.544 0.2,0 0.276,-0.172 0.276,-0.352 0,-0.308 -0.228,-0.544 -0.536,-0.544 z m 1.12,0.448 c 0,0.172 -0.14,0.304 -0.292,0.388 -0.212,0.12 -0.452,0.164 -0.696,0.164 -0.244,0 -0.488,-0.044 -0.7,-0.164 -0.152,-0.084 -0.292,-0.216 -0.292,-0.388 0,-0.172 0.14,-0.304 0.292,-0.388 0.212,-0.12 0.456,-0.164 0.7,-0.164 0.244,0 0.484,0.044 0.696,0.164 0.152,0.084 0.292,0.216 0.292,0.388 z"
     fill="currentColor"
     id="path106"
     style="stroke-width:0.004" />
  <path
     d="m 83.566,4.1390117 c -0.2,0 -0.276,0.172 -0.276,0.352 0,0.308 0.228,0.544 0.536,0.544 0.2,0 0.276,-0.172 0.276,-0.352 0,-0.308 -0.228,-0.544 -0.536,-0.544 z m 1.12,0.448 c 0,0.172 -0.14,0.304 -0.292,0.388 -0.212,0.12 -0.452,0.164 -0.696,0.164 -0.244,0 -0.488,-0.044 -0.7,-0.164 -0.152,-0.084 -0.292,-0.216 -0.292,-0.388 0,-0.172 0.14,-0.304 0.292,-0.388 0.212,-0.12 0.456,-0.164 0.7,-0.164 0.244,0 0.484,0.044 0.696,0.164 0.152,0.084 0.292,0.216 0.292,0.388 z"
     fill="currentColor"
     id="path108"
     style="stroke-width:0.004" />
  <path
     d="m 83.566,5.1390117 c -0.2,0 -0.276,0.172 -0.276,0.352 0,0.308 0.228,0.544 0.536,0.544 0.2,0 0.276,-0.172 0.276,-0.352 0,-0.308 -0.228,-0.544 -0.536,-0.544 z m 1.12,0.448 c 0,0.172 -0.14,0.304 -0.292,0.388 -0.212,0.12 -0.452,0.164 -0.696,0.164 -0.244,0 -0.488,-0.044 -0.7,-0.164 -0.152,-0.084 -0.292,-0.216 -0.292,-0.388 0,-0.172 0.14,-0.304 0.292,-0.388 0.212,-0.12 0.456,-0.164 0.7,-0.164 0.244,0 0.484,0.044 0.696,0.164 0.152,0.084 0.292,0.216 0.292,0.388 z"
     fill="currentColor"
     id="path110"
     style="stroke-width:0.004" />
  <text
     font-family="sans-serif"
     font-size="2.6163px"
     text-anchor="start"
     fill="currentColor"
     id="text114"
     x="82.706001"
     y="2.5370116"><tspan
       id="tspan112">E</tspan></text>
  <text
     font-family="sans-serif"
     font-size="2.6163px"
     text-anchor="start"
     fill="currentColor"
     id="text118"
     x="84.378998"
     y="2.5370116"><tspan
       id="tspan116" /></text>
  <text
     font-family="sans-serif"
     font-size="1.85px"
     text-anchor="start"
     fill="currentColor"
     id="text122"
     x="84.378998"
     y="1.0370117"><tspan
       id="tspan120">o</tspan></text>
  <text
     font-family="'Roboto Slab Light'"
     font-size="2.2001px"
     text-anchor="start"
     fill="currentColor"
     id="text126"
     x="3.1752999"
     y="15.497612"><tspan
       id="tspan124">AF:</tspan></text>
  <text
     font-family="'Roboto Light'"
     font-size="2.2001px"
     text-anchor="start"
     fill="currentColor"
     id="text130"
     x="10.5943"
     y="15.497612"><tspan
       id="tspan128">I</tspan></text>
  <text
     font-family="'Roboto Slab Light'"
     font-size="2.2001px"
     text-anchor="start"
     fill="currentColor"
     id="text134"
     y="12.697612"><tspan
       id="tspan132">Nome:</tspan></text>
  <text
     font-family="'Roboto Light'"
     font-size="2.2001px"
     text-anchor="start"
     fill="currentColor"
     id="text138"
     x="7.5555"
     y="12.697612"><tspan
       id="tspan136">Tónica</tspan></text>
  <path
     d="m 4.528,6.9230117 -0.004,0.264 v 0.044 c 0,0.088 0.004,0.176 0.016,0.264 0.18,-0.152 0.372,-0.32 0.372,-0.556 0,-0.132 -0.056,-0.268 -0.172,-0.268 -0.124,0 -0.208,0.12 -0.212,0.252 z m -0.168,0.716 -0.048,-2.38 c 0.032,-0.02 0.072,-0.032 0.108,-0.032 0.036,0 0.076,0.012 0.108,0.032 l -0.028,1.38 c 0.1,-0.084 0.232,-0.136 0.364,-0.136 0.208,0 0.356,0.192 0.356,0.408 0,0.32 -0.344,0.468 -0.588,0.676 -0.06,0.052 -0.096,0.152 -0.18,0.152 -0.052,0 -0.092,-0.044 -0.092,-0.1 z"
     fill="currentColor"
     id="path140"
     style="stroke-width:0.004" />
  <path
     d="m 2.304,7.0390117 c 0.016,0 0.036,-0.004 0.052,-0.004 0.62,0 1.024,0.512 1.024,1.044 0,0.304 -0.132,0.616 -0.428,0.84 -0.088,0.068 -0.188,0.112 -0.292,0.144 0.012,0.14 0.02,0.28 0.02,0.42 0,0.076 -0.004,0.156 -0.008,0.232 -0.028,0.4800003 -0.36,0.9120003 -0.832,0.9120003 -0.432,0 -0.78,-0.352 -0.78,-0.7880003 0,-0.232 0.212,-0.412 0.448,-0.412 0.216,0 0.38,0.188 0.38,0.412 0,0.2080003 -0.172,0.3800003 -0.38,0.3800003 -0.044,0 -0.084,-0.008 -0.124,-0.024 0.104,0.156 0.272,0.26 0.468,0.26 0.384,0 0.628,-0.368 0.652,-0.7640003 0.004,-0.072 0.008,-0.148 0.008,-0.22 0,-0.124 -0.004,-0.244 -0.016,-0.368 -0.116,0.02 -0.232,0.032 -0.356,0.032 -0.752,0 -1.332,-0.688 -1.332,-1.496 0,-0.708 0.524,-1.224 0.992,-1.764 -0.076,-0.248 -0.148,-0.5 -0.18,-0.76 -0.024,-0.208 -0.028,-0.416 -0.028,-0.624 0,-0.46 0.22,-0.896 0.596,-1.168 0.012,-0.008 0.028,-0.012 0.04,-0.012 0.016,0 0.028,0 0.04,0.012 0.284,0.336 0.532,0.98 0.532,1.432 0,0.572 -0.344,1.02 -0.72,1.456 0.084,0.272 0.156,0.552 0.224,0.828 z m 0.34,1.86 c 0.272,-0.096 0.452,-0.38 0.452,-0.656 0,-0.36 -0.264,-0.716 -0.692,-0.76 0.096,0.464 0.184,0.924 0.24,1.416 z m -1.548,-0.924 c 0,0.54 0.516,0.988 1.056,0.988 0.112,0 0.22,-0.008 0.328,-0.024 -0.056,-0.508 -0.148,-0.98 -0.252,-1.456 -0.316,0.032 -0.496,0.244 -0.496,0.476 0,0.176 0.1,0.364 0.324,0.492 0.02,0.02 0.028,0.04 0.028,0.06 0,0.044 -0.04,0.088 -0.088,0.088 -0.012,0 -0.024,-0.004 -0.036,-0.008 -0.32,-0.172 -0.468,-0.46 -0.468,-0.74 0,-0.352 0.232,-0.696 0.64,-0.788 -0.056,-0.232 -0.116,-0.468 -0.184,-0.7 -0.428,0.484 -0.852,0.972 -0.852,1.612 z m 1.336,-4.068 c -0.396,0.192 -0.648,0.596 -0.648,1.036 0,0.296 0.072,0.532 0.144,0.776 0.32,-0.388 0.584,-0.792 0.584,-1.296 0,-0.22 -0.016,-0.316 -0.08,-0.516 z"
     fill="currentColor"
     id="path142"
     style="stroke-width:0.004" />
  <path
     d="m 10.7545,6.1390117 c -0.2,0 -0.276,0.172 -0.276,0.352 0,0.308 0.228,0.544 0.536,0.544 0.2,0 0.276,-0.172 0.276,-0.352 0,-0.308 -0.228,-0.544 -0.536,-0.544 z m 1.12,0.448 c 0,0.172 -0.14,0.304 -0.292,0.388 -0.212,0.12 -0.452,0.164 -0.696,0.164 -0.244,0 -0.488,-0.044 -0.7,-0.164 -0.152,-0.084 -0.292,-0.216 -0.292,-0.388 0,-0.172 0.14,-0.304 0.292,-0.388 0.212,-0.12 0.456,-0.164 0.7,-0.164 0.244,0 0.484,0.044 0.696,0.164 0.152,0.084 0.292,0.216 0.292,0.388 z"
     fill="currentColor"
     id="path144"
     style="stroke-width:0.004" />
  <path
     d="m 10.7545,7.1390117 c -0.2,0 -0.276,0.172 -0.276,0.352 0,0.308 0.228,0.544 0.536,0.544 0.2,0 0.276,-0.172 0.276,-0.352 0,-0.308 -0.228,-0.544 -0.536,-0.544 z m 1.12,0.448 c 0,0.172 -0.14,0.304 -0.292,0.388 -0.212,0.12 -0.452,0.164 -0.696,0.164 -0.244,0 -0.488,-0.044 -0.7,-0.164 -0.152,-0.084 -0.292,-0.216 -0.292,-0.388 0,-0.172 0.14,-0.304 0.292,-0.388 0.212,-0.12 0.456,-0.164 0.7,-0.164 0.244,0 0.484,0.044 0.696,0.164 0.152,0.084 0.292,0.216 0.292,0.388 z"
     fill="currentColor"
     id="path146"
     style="stroke-width:0.004" />
  <path
     d="m 10.7545,8.1390117 c -0.2,0 -0.276,0.172 -0.276,0.352 0,0.308 0.228,0.544 0.536,0.544 0.2,0 0.276,-0.172 0.276,-0.352 0,-0.308 -0.228,-0.544 -0.536,-0.544 z m 1.12,0.448 c 0,0.172 -0.14,0.304 -0.292,0.388 -0.212,0.12 -0.452,0.164 -0.696,0.164 -0.244,0 -0.488,-0.044 -0.7,-0.164 -0.152,-0.084 -0.292,-0.216 -0.292,-0.388 0,-0.172 0.14,-0.304 0.292,-0.388 0.212,-0.12 0.456,-0.164 0.7,-0.164 0.244,0 0.484,0.044 0.696,0.164 0.152,0.084 0.292,0.216 0.292,0.388 z"
     fill="currentColor"
     id="path148"
     style="stroke-width:0.004" />
  <text
     font-family="sans-serif"
     font-size="2.6163px"
     text-anchor="start"
     fill="currentColor"
     id="text152"
     x="9.8944998"
     y="2.5370116"><tspan
       id="tspan150">F</tspan></text>
  <text
     font-family="sans-serif"
     font-size="2.6163px"
     text-anchor="start"
     fill="currentColor"
     id="text156"
     x="11.3968"
     y="2.5370116"><tspan
       id="tspan154" /></text>
  <text
     font-family="sans-serif"
     font-size="2.6163px"
     text-anchor="start"
     fill="currentColor"
     id="text160"
     x="11.3968"
     y="2.5370116"><tspan
       id="tspan158" /></text>
  <text
     font-family="sans-serif"
     font-size="1.85px"
     text-anchor="start"
     fill="currentColor"
     id="text164"
     x="11.3968"
     y="1.0370117"><tspan
       id="tspan162" /></text>
  <path
     d="m 45.436,6.6390117 c -0.2,0 -0.276,0.172 -0.276,0.352 0,0.308 0.228,0.544 0.536,0.544 0.2,0 0.276,-0.172 0.276,-0.352 0,-0.308 -0.228,-0.544 -0.536,-0.544 z m 1.12,0.448 c 0,0.172 -0.14,0.304 -0.292,0.388 -0.212,0.12 -0.452,0.164 -0.696,0.164 -0.244,0 -0.488,-0.044 -0.7,-0.164 -0.152,-0.084 -0.292,-0.216 -0.292,-0.388 0,-0.172 0.14,-0.304 0.292,-0.388 0.212,-0.12 0.456,-0.164 0.7,-0.164 0.244,0 0.484,0.044 0.696,0.164 0.152,0.084 0.292,0.216 0.292,0.388 z"
     fill="currentColor"
     id="path166"
     style="stroke-width:0.004" />
  <text
     font-family="sans-serif"
     font-size="2.6163px"
     text-anchor="start"
     fill="currentColor"
     id="text170"
     x="44.576"
     y="2.5370116"><tspan
       id="tspan168">B</tspan></text>
  <path
     d="m 46.7209,2.0648117 -0.0042,0.2772 v 0.0462 c 0,0.0924 0.0042,0.1848 0.0168,0.2772 0.189,-0.1596 0.3906,-0.336 0.3906,-0.5838 0,-0.1386 -0.0588,-0.2814 -0.1806,-0.2814 -0.1302,0 -0.2184,0.126 -0.2226,0.2646 z m -0.1764,0.7518 -0.0504,-2.49899997 c 0.0336,-0.021 0.0756,-0.0336 0.1134,-0.0336 0.0378,0 0.0798,0.0126 0.1134,0.0336 L 46.6915,1.7666117 c 0.105,-0.0882 0.2436,-0.1428 0.3822,-0.1428 0.2184,0 0.3738,0.2016 0.3738,0.4284 0,0.336 -0.3612,0.4914 -0.6174,0.7098 -0.063,0.0546 -0.1008,0.1596 -0.189,0.1596 -0.0546,0 -0.0966,-0.0462 -0.0966,-0.105 z"
     fill="currentColor"
     id="path172"
     style="stroke-width:0.0042" />
  <text
     font-family="sans-serif"
     font-size="2.6163px"
     text-anchor="start"
     fill="currentColor"
     id="text176"
     x="47.455002"
     y="2.5370116"><tspan
       id="tspan174" /></text>
  <text
     font-family="sans-serif"
     font-size="1.85px"
     text-anchor="start"
     fill="currentColor"
     id="text180"
     x="47.455002"
     y="1.0370117"><tspan
       id="tspan178" /></text>
  <text
     font-family="'Roboto Light'"
     font-size="2.2001px"
     text-anchor="start"
     fill="currentColor"
     id="text184"
     x="31.9853"
     y="15.497612"><tspan
       id="tspan182">iii</tspan></text>
  <text
     font-family="'Roboto Light'"
     font-size="2.2001px"
     text-anchor="start"
     fill="currentColor"
     id="text188"
     x="28.229601"
     y="12.697612"><tspan
       id="tspan186">Mediante</tspan></text>
  <path
     d="m 32.6236,5.1390117 c -0.2,0 -0.276,0.172 -0.276,0.352 0,0.308 0.228,0.544 0.536,0.544 0.2,0 0.276,-0.172 0.276,-0.352 0,-0.308 -0.228,-0.544 -0.536,-0.544 z m 1.12,0.448 c 0,0.172 -0.14,0.304 -0.292,0.388 -0.212,0.12 -0.452,0.164 -0.696,0.164 -0.244,0 -0.488,-0.044 -0.7,-0.164 -0.152,-0.084 -0.292,-0.216 -0.292,-0.388 0,-0.172 0.14,-0.304 0.292,-0.388 0.212,-0.12 0.456,-0.164 0.7,-0.164 0.244,0 0.484,0.044 0.696,0.164 0.152,0.084 0.292,0.216 0.292,0.388 z"
     fill="currentColor"
     id="path190"
     style="stroke-width:0.004" />
  <path
     d="m 32.6236,6.1390117 c -0.2,0 -0.276,0.172 -0.276,0.352 0,0.308 0.228,0.544 0.536,0.544 0.2,0 0.276,-0.172 0.276,-0.352 0,-0.308 -0.228,-0.544 -0.536,-0.544 z m 1.12,0.448 c 0,0.172 -0.14,0.304 -0.292,0.388 -0.212,0.12 -0.452,0.164 -0.696,0.164 -0.244,0 -0.488,-0.044 -0.7,-0.164 -0.152,-0.084 -0.292,-0.216 -0.292,-0.388 0,-0.172 0.14,-0.304 0.292,-0.388 0.212,-0.12 0.456,-0.164 0.7,-0.164 0.244,0 0.484,0.044 0.696,0.164 0.152,0.084 0.292,0.216 0.292,0.388 z"
     fill="currentColor"
     id="path192"
     style="stroke-width:0.004" />
  <path
     d="m 32.6236,7.1390117 c -0.2,0 -0.276,0.172 -0.276,0.352 0,0.308 0.228,0.544 0.536,0.544 0.2,0 0.276,-0.172 0.276,-0.352 0,-0.308 -0.228,-0.544 -0.536,-0.544 z m 1.12,0.448 c 0,0.172 -0.14,0.304 -0.292,0.388 -0.212,0.12 -0.452,0.164 -0.696,0.164 -0.244,0 -0.488,-0.044 -0.7,-0.164 -0.152,-0.084 -0.292,-0.216 -0.292,-0.388 0,-0.172 0.14,-0.304 0.292,-0.388 0.212,-0.12 0.456,-0.164 0.7,-0.164 0.244,0 0.484,0.044 0.696,0.164 0.152,0.084 0.292,0.216 0.292,0.388 z"
     fill="currentColor"
     id="path194"
     style="stroke-width:0.004" />
  <text
     font-family="sans-serif"
     font-size="2.6163px"
     text-anchor="start"
     fill="currentColor"
     id="text198"
     x="31.763599"
     y="2.5370116"><tspan
       id="tspan196">A</tspan></text>
  <text
     font-family="sans-serif"
     font-size="2.6163px"
     text-anchor="start"
     fill="currentColor"
     id="text202"
     x="33.539001"
     y="2.5370116"><tspan
       id="tspan200" /></text>
  <text
     font-family="sans-serif"
     font-size="2.6163px"
     text-anchor="start"
     fill="currentColor"
     id="text206"
     x="33.539001"
     y="2.5370116"><tspan
       id="tspan204">m</tspan></text>
  <text
     font-family="sans-serif"
     font-size="1.85px"
     text-anchor="start"
     fill="currentColor"
     id="text210"
     x="36.0998"
     y="1.0370117"><tspan
       id="tspan208" /></text>
  <text
     font-family="sans-serif"
     font-size="2.6163px"
     text-anchor="start"
     fill="currentColor"
     id="text214"
     x="20.231501"
     y="2.5370116"><tspan
       id="tspan212">G</tspan></text>
  <text
     font-family="sans-serif"
     font-size="2.6163px"
     text-anchor="start"
     fill="currentColor"
     id="text218"
     x="22.246"
     y="2.5370116"><tspan
       id="tspan216" /></text>
  <text
     font-family="sans-serif"
     font-size="2.6163px"
     text-anchor="start"
     fill="currentColor"
     id="text222"
     x="22.246"
     y="2.5370116"><tspan
       id="tspan220">m</tspan></text>
  <text
     font-family="sans-serif"
     font-size="1.85px"
     text-anchor="start"
     fill="currentColor"
     id="text226"
     x="24.8067"
     y="1.0370117"><tspan
       id="tspan224" /></text>
  <path
     d="m 21.0915,7.6390117 c -0.2,0 -0.276,0.172 -0.276,0.352 0,0.308 0.228,0.544 0.536,0.544 0.2,0 0.276,-0.172 0.276,-0.352 0,-0.308 -0.228,-0.544 -0.536,-0.544 z m 1.12,0.448 c 0,0.172 -0.14,0.304 -0.292,0.388 -0.212,0.12 -0.452,0.164 -0.696,0.164 -0.244,0 -0.488,-0.044 -0.7,-0.164 -0.152,-0.084 -0.292,-0.216 -0.292,-0.388 0,-0.172 0.14,-0.304 0.292,-0.388 0.212,-0.12 0.456,-0.164 0.7,-0.164 0.244,0 0.484,0.044 0.696,0.164 0.152,0.084 0.292,0.216 0.292,0.388 z"
     fill="currentColor"
     id="path228"
     style="stroke-width:0.004" />
  <path
     d="m 21.0915,6.6390117 c -0.2,0 -0.276,0.172 -0.276,0.352 0,0.308 0.228,0.544 0.536,0.544 0.2,0 0.276,-0.172 0.276,-0.352 0,-0.308 -0.228,-0.544 -0.536,-0.544 z m 1.12,0.448 c 0,0.172 -0.14,0.304 -0.292,0.388 -0.212,0.12 -0.452,0.164 -0.696,0.164 -0.244,0 -0.488,-0.044 -0.7,-0.164 -0.152,-0.084 -0.292,-0.216 -0.292,-0.388 0,-0.172 0.14,-0.304 0.292,-0.388 0.212,-0.12 0.456,-0.164 0.7,-0.164 0.244,0 0.484,0.044 0.696,0.164 0.152,0.084 0.292,0.216 0.292,0.388 z"
     fill="currentColor"
     id="path230"
     style="stroke-width:0.004" />
  <path
     d="m 21.0915,5.6390117 c -0.2,0 -0.276,0.172 -0.276,0.352 0,0.308 0.228,0.544 0.536,0.544 0.2,0 0.276,-0.172 0.276,-0.352 0,-0.308 -0.228,-0.544 -0.536,-0.544 z m 1.12,0.448 c 0,0.172 -0.14,0.304 -0.292,0.388 -0.212,0.12 -0.452,0.164 -0.696,0.164 -0.244,0 -0.488,-0.044 -0.7,-0.164 -0.152,-0.084 -0.292,-0.216 -0.292,-0.388 0,-0.172 0.14,-0.304 0.292,-0.388 0.212,-0.12 0.456,-0.164 0.7,-0.164 0.244,0 0.484,0.044 0.696,0.164 0.152,0.084 0.292,0.216 0.292,0.388 z"
     fill="currentColor"
     id="path232"
     style="stroke-width:0.004" />
  <text
     font-family="'Roboto Light'"
     font-size="2.2001px"
     text-anchor="start"
     fill="currentColor"
     id="text236"
     x="15.383"
     y="12.697612"><tspan
       id="tspan234">Supertónica</tspan></text>
  <text
     font-family="'Roboto Light'"
     font-size="2.2001px"
     text-anchor="start"
     fill="currentColor"
     id="text240"
     x="20.7094"
     y="15.497612"><tspan
       id="tspan238">ii</tspan></text>
</svg>
