<?xml version="1.0" encoding="UTF-8" standalone="no"?>
<svg
   version="1.2"
   width="159.20001mm"
   height="47.16502mm"
   viewBox="0 0 90.593601 26.839501"
   id="svg416"
   xmlns="http://www.w3.org/2000/svg"
   xmlns:svg="http://www.w3.org/2000/svg">
  <defs
     id="defs420" />
  <!-- Page: 1/1 -->
  <text
     font-family="'Century Schoolbook L'"
     font-size="2.2001px"
     text-anchor="start"
     fill="currentColor"
     id="text4"
     y="-1.0193001"><tspan
       id="tspan2" /></text>
  <rect
     x="32.4146"
     y="4.0180001"
     width="0.19"
     height="4"
     ry="0.0000"
     fill="currentColor"
     id="rect6" />
  <rect
     x="54.7519"
     y="4.0180001"
     width="0.19"
     height="4"
     ry="0.0000"
     fill="currentColor"
     id="rect8" />
  <rect
     x="90.403603"
     y="4.0180001"
     width="0.19"
     height="4"
     ry="0.0000"
     fill="currentColor"
     id="rect10" />
  <rect
     x="80.567802"
     y="4.0180001"
     width="0.19"
     height="4"
     ry="0.0000"
     fill="currentColor"
     id="rect12" />
  <rect
     x="45.792301"
     y="8.9180002"
     width="1.9743"
     height="0.2"
     ry="0.1"
     fill="currentColor"
     id="rect14" />
  <rect
     x="48.343201"
     y="8.9180002"
     width="2.085"
     height="0.2"
     ry="0.1"
     fill="currentColor"
     id="rect16" />
  <rect
     x="55.532799"
     y="8.9180002"
     width="1.9743"
     height="0.2"
     ry="0.1"
     fill="currentColor"
     id="rect18" />
  <rect
     x="60.088402"
     y="8.9180002"
     width="1.9743"
     height="0.2"
     ry="0.1"
     fill="currentColor"
     id="rect20" />
  <rect
     x="62.657799"
     y="8.9180002"
     width="1.9743"
     height="0.2"
     ry="0.1"
     fill="currentColor"
     id="rect22" />
  <rect
     x="65.227097"
     y="8.9180002"
     width="1.9743"
     height="0.2"
     ry="0.1"
     fill="currentColor"
     id="rect24" />
  <rect
     x="67.796501"
     y="8.9180002"
     width="1.9743"
     height="0.2"
     ry="0.1"
     fill="currentColor"
     id="rect26" />
  <rect
     x="70.365898"
     y="8.9180002"
     width="1.9743"
     height="0.2"
     ry="0.1"
     fill="currentColor"
     id="rect28" />
  <rect
     x="75.504601"
     y="8.9180002"
     width="1.9743"
     height="0.2"
     ry="0.1"
     fill="currentColor"
     id="rect30" />
  <rect
     x="82.1828"
     y="8.9180002"
     width="2.97"
     height="0.2"
     ry="0.1"
     fill="currentColor"
     id="rect32" />
  <line
     stroke-linejoin="round"
     stroke-linecap="round"
     stroke-width="0.1"
     stroke="currentColor"
     x1="0.050000001"
     y1="8.0179996"
     x2="90.543602"
     y2="8.0179996"
     id="line34" />
  <line
     stroke-linejoin="round"
     stroke-linecap="round"
     stroke-width="0.1"
     stroke="currentColor"
     x1="0.050000001"
     y1="7.0180001"
     x2="90.543602"
     y2="7.0180001"
     id="line36" />
  <line
     stroke-linejoin="round"
     stroke-linecap="round"
     stroke-width="0.1"
     stroke="currentColor"
     x1="0.050000001"
     y1="6.0180001"
     x2="90.543602"
     y2="6.0180001"
     id="line38" />
  <line
     stroke-linejoin="round"
     stroke-linecap="round"
     stroke-width="0.1"
     stroke="currentColor"
     x1="0.050000001"
     y1="5.0180001"
     x2="90.543602"
     y2="5.0180001"
     id="line40" />
  <line
     stroke-linejoin="round"
     stroke-linecap="round"
     stroke-width="0.1"
     stroke="currentColor"
     x1="0.050000001"
     y1="4.0180001"
     x2="90.543602"
     y2="4.0180001"
     id="line42" />
  <path
     d="m 63.8668,8.4659999 c 0.224,0 0.436,0.116 0.436,0.364 0,0.288 -0.224,0.484 -0.412,0.596 -0.144,0.084 -0.304,0.144 -0.468,0.144 -0.224,0 -0.436,-0.116 -0.436,-0.364 0,-0.288 0.224,-0.484 0.412,-0.596 0.144,-0.084 0.304,-0.144 0.468,-0.144 z"
     fill="currentColor"
     id="path44"
     style="stroke-width:0.004" />
  <rect
     x="64.172997"
     y="5.9229999"
     width="0.13"
     height="2.9072001"
     ry="0.039999999"
     fill="currentColor"
     id="rect46" />
  <path
     d="m 66.4362,8.9659999 c 0.224,0 0.436,0.116 0.436,0.364 0,0.288 -0.224,0.484 -0.412,0.596 C 66.3162,10.01 66.1562,10.07 65.9922,10.07 c -0.224,0 -0.436,-0.1160001 -0.436,-0.3640001 0,-0.288 0.224,-0.484 0.412,-0.596 0.144,-0.084 0.304,-0.144 0.468,-0.144 z"
     fill="currentColor"
     id="path48"
     style="stroke-width:0.004" />
  <rect
     x="66.742401"
     y="6.0156999"
     width="0.13"
     height="3.3145001"
     ry="0.039999999"
     fill="currentColor"
     id="rect50" />
  <rect
     x="74.4505"
     y="5.8302999"
     width="0.13"
     height="2.4998"
     ry="0.039999999"
     fill="currentColor"
     id="rect52" />
  <path
     d="m 74.1443,7.9659999 c 0.224,0 0.436,0.116 0.436,0.364 0,0.288 -0.224,0.484 -0.412,0.596 -0.144,0.084 -0.304,0.144 -0.468,0.144 -0.224,0 -0.436,-0.116 -0.436,-0.364 0,-0.288 0.224,-0.484 0.412,-0.596 0.144,-0.084 0.304,-0.144 0.468,-0.144 z"
     fill="currentColor"
     id="path54"
     style="stroke-width:0.004" />
  <path
     d="m 69.0055,8.4659999 c 0.224,0 0.436,0.116 0.436,0.364 0,0.288 -0.224,0.484 -0.412,0.596 -0.144,0.084 -0.304,0.144 -0.468,0.144 -0.224,0 -0.436,-0.116 -0.436,-0.364 0,-0.288 0.224,-0.484 0.412,-0.596 0.144,-0.084 0.304,-0.144 0.468,-0.144 z"
     fill="currentColor"
     id="path56"
     style="stroke-width:0.004" />
  <rect
     x="69.311699"
     y="6.0156999"
     width="0.13"
     height="2.8145001"
     ry="0.039999999"
     fill="currentColor"
     id="rect58" />
  <path
     d="m 71.5749,8.4659999 c 0.224,0 0.436,0.116 0.436,0.364 0,0.288 -0.224,0.484 -0.412,0.596 -0.144,0.084 -0.304,0.144 -0.468,0.144 -0.224,0 -0.436,-0.116 -0.436,-0.364 0,-0.288 0.224,-0.484 0.412,-0.596 0.144,-0.084 0.304,-0.144 0.468,-0.144 z"
     fill="currentColor"
     id="path60"
     style="stroke-width:0.004" />
  <rect
     x="71.881104"
     y="5.9229999"
     width="0.13"
     height="2.9072001"
     ry="0.039999999"
     fill="currentColor"
     id="rect62" />
  <path
     d="m 47.0014,8.4659999 c 0.224,0 0.436,0.116 0.436,0.364 0,0.288 -0.224,0.484 -0.412,0.596 -0.144,0.084 -0.304,0.144 -0.468,0.144 -0.224,0 -0.436,-0.116 -0.436,-0.364 0,-0.288 0.224,-0.484 0.412,-0.596 0.144,-0.084 0.304,-0.144 0.468,-0.144 z"
     fill="currentColor"
     id="path64"
     style="stroke-width:0.004" />
  <rect
     x="47.307499"
     y="6.0156999"
     width="0.13"
     height="2.8145001"
     ry="0.039999999"
     fill="currentColor"
     id="rect66" />
  <path
     d="m 49.9507,8.7579999 c 0,-0.096 -0.084,-0.164 -0.168,-0.164 -0.016,0 -0.032,0 -0.048,0.004 -0.124,0.036 -0.308,0.16 -0.456,0.256 -0.148,0.096 -0.336,0.212 -0.416,0.312 -0.028,0.032 -0.044,0.072 -0.044,0.112 0,0.096 0.084,0.164 0.168,0.164 0.016,0 0.032,0 0.048,-0.004 0.124,-0.036 0.312,-0.16 0.46,-0.256 0.148,-0.096 0.336,-0.212 0.416,-0.312 0.028,-0.032 0.04,-0.072 0.04,-0.112 z m -0.204,-0.288 c 0.188,0 0.332,0.084 0.332,0.288 0,0.076 -0.016,0.148 -0.04,0.224 -0.048,0.152 -0.128,0.296 -0.26,0.384 -0.216,0.144 -0.452,0.204 -0.752,0.204 -0.188,0 -0.336,-0.088 -0.336,-0.292 0,-0.076 0.02,-0.148 0.044,-0.224 0.048,-0.152 0.124,-0.296 0.256,-0.384 0.216,-0.144 0.456,-0.2 0.756,-0.2 z"
     fill="currentColor"
     id="path68"
     style="stroke-width:0.004" />
  <rect
     x="49.950699"
     y="5.5180001"
     width="0.13"
     height="3.2386"
     ry="0.039999999"
     fill="currentColor"
     id="rect70" />
  <path
     d="m 56.7418,8.4659999 c 0.224,0 0.436,0.116 0.436,0.364 0,0.288 -0.224,0.484 -0.412,0.596 -0.144,0.084 -0.304,0.144 -0.468,0.144 -0.224,0 -0.436,-0.116 -0.436,-0.364 0,-0.288 0.224,-0.484 0.412,-0.596 0.144,-0.084 0.304,-0.144 0.468,-0.144 z"
     fill="currentColor"
     id="path72"
     style="stroke-width:0.004" />
  <rect
     x="57.048"
     y="5.5180001"
     width="0.13"
     height="3.3122001"
     ry="0.039999999"
     fill="currentColor"
     id="rect74" />
  <path
     d="m 61.2975,8.4659999 c 0.224,0 0.436,0.116 0.436,0.364 0,0.288 -0.224,0.484 -0.412,0.596 -0.144,0.084 -0.304,0.144 -0.468,0.144 -0.224,0 -0.436,-0.116 -0.436,-0.364 0,-0.288 0.224,-0.484 0.412,-0.596 0.144,-0.084 0.304,-0.144 0.468,-0.144 z"
     fill="currentColor"
     id="path76"
     style="stroke-width:0.004" />
  <rect
     x="61.6036"
     y="5.8302999"
     width="0.13"
     height="2.9998"
     ry="0.039999999"
     fill="currentColor"
     id="rect78" />
  <text
     font-family="'Century Schoolbook L'"
     font-style="italic"
     font-size="1.7461px"
     text-anchor="start"
     fill="currentColor"
     id="text82"
     x="71.468102"
     y="5.1782999"><tspan
       id="tspan80">3</tspan></text>
  <path
     stroke-width="0.08"
     stroke-linejoin="round"
     stroke-linecap="round"
     stroke="currentColor"
     fill="currentColor"
     d="m 61.275589,9.7679999 c 0.518406,0.6001291 1.650957,0.6001291 2.169362,0 -0.518405,0.4801291 -1.650956,0.4801291 -2.169362,0 z"
     id="path84" />
  <text
     font-family="'Century Schoolbook L'"
     font-style="italic"
     font-size="1.7461px"
     text-anchor="start"
     fill="currentColor"
     id="text88"
     x="63.759998"
     y="5.1782999"><tspan
       id="tspan86">3</tspan></text>
  <polygon
     transform="translate(42.1688,5.8279999)"
     stroke-linejoin="round"
     stroke-linecap="round"
     stroke-width="0.08"
     fill="currentColor"
     stroke="currentColor"
     points="0.04,0.2 0.04,-0.2 5.2287,-0.01 5.2287,0.39 "
     id="polygon90" />
  <path
     stroke-width="0.08"
     stroke-linejoin="round"
     stroke-linecap="round"
     stroke="currentColor"
     fill="currentColor"
     d="m 46.979489,9.7679999 c 0.52491,0.6054491 1.681356,0.6054491 2.206265,0 -0.524909,0.4854491 -1.681355,0.4854491 -2.206265,0 z"
     id="path92" />
  <path
     stroke-width="0.08"
     stroke-linejoin="round"
     stroke-linecap="round"
     stroke="currentColor"
     fill="currentColor"
     d="m 42.498778,9.0179999 c 0.241929,0.3272248 0.611255,0.3272248 0.853184,0 -0.241929,0.2072248 -0.611255,0.2072248 -0.853184,0 z"
     id="path94" />
  <polygon
     transform="translate(34.7107,4.0179999)"
     stroke-linejoin="round"
     stroke-linecap="round"
     stroke-width="0.08"
     fill="currentColor"
     stroke="currentColor"
     points="0.04,0.2 0.04,-0.2 5.2287,-0.01 5.2287,0.39 "
     id="polygon96" />
  <text
     font-family="'Century Schoolbook L'"
     font-style="italic"
     font-size="1.7461px"
     text-anchor="start"
     fill="currentColor"
     id="text100"
     x="44.325199"
     y="5.1782999"><tspan
       id="tspan98">3</tspan></text>
  <path
     stroke-width="0.08"
     stroke-linejoin="round"
     stroke-linecap="round"
     stroke="currentColor"
     fill="currentColor"
     d="m 34.382689,8.0179999 c 0.518406,0.6001287 1.650957,0.6001287 2.169362,0 -0.518405,0.4801287 -1.650956,0.4801287 -2.169362,0 z"
     id="path102" />
  <text
     font-family="'Century Schoolbook L'"
     font-style="italic"
     font-size="1.7461px"
     text-anchor="start"
     fill="currentColor"
     id="text106"
     x="36.8671"
     y="3.3683"><tspan
       id="tspan104">3</tspan></text>
  <polygon
     transform="translate(19.8843,3.8279999)"
     stroke-linejoin="round"
     stroke-linecap="round"
     stroke-width="0.08"
     fill="currentColor"
     stroke="currentColor"
     points="0.04,0.2 0.04,-0.2 5.4787,-0.82 5.4787,-0.42 "
     id="polygon108" />
  <path
     stroke-width="0.08"
     stroke-linejoin="round"
     stroke-linecap="round"
     stroke="currentColor"
     fill="currentColor"
     d="m 25.737978,5.7086668 c 0.207622,-0.2887713 0.510562,-0.2887713 0.718184,0 -0.207622,-0.1687713 -0.510562,-0.1687713 -0.718184,0 z"
     id="path110" />
  <path
     stroke-width="0.08"
     stroke-linejoin="round"
     stroke-linecap="round"
     stroke="currentColor"
     fill="currentColor"
     d="m 19.556189,8.0179999 c 0.518406,0.6001287 1.650957,0.6001287 2.169362,0 -0.518405,0.4801287 -1.650956,0.4801287 -2.169362,0 z"
     id="path112" />
  <polygon
     transform="translate(12.1762,4.0179999)"
     stroke-linejoin="round"
     stroke-linecap="round"
     stroke-width="0.08"
     fill="currentColor"
     stroke="currentColor"
     points="0.04,0.2 0.04,-0.2 5.2287,-0.01 5.2287,0.39 "
     id="polygon114" />
  <text
     font-family="'Century Schoolbook L'"
     font-style="italic"
     font-size="1.7461px"
     text-anchor="start"
     fill="currentColor"
     id="text118"
     x="22.1656"
     y="2.7684"><tspan
       id="tspan116">3</tspan></text>
  <path
     stroke-width="0.08"
     stroke-linejoin="round"
     stroke-linecap="round"
     stroke="currentColor"
     fill="currentColor"
     d="m 11.848089,8.0179999 c 0.518406,0.6001287 1.650957,0.6001287 2.169362,0 -0.518405,0.4801287 -1.650956,0.4801287 -2.169362,0 z"
     id="path120" />
  <line
     stroke-linejoin="round"
     stroke-linecap="round"
     stroke-width="0.1"
     stroke="currentColor"
     x1="11.49"
     y1="11.318"
     x2="84.1577"
     y2="11.318"
     id="line122" />
  <line
     stroke-linejoin="round"
     stroke-linecap="round"
     stroke-width="0.1"
     stroke="currentColor"
     x1="84.1577"
     y1="11.318"
     x2="84.6577"
     y2="10.318"
     id="line124" />
  <line
     stroke-linejoin="round"
     stroke-linecap="round"
     stroke-width="0.1"
     stroke="currentColor"
     x1="11.49"
     y1="11.318"
     x2="10.99"
     y2="10.318"
     id="line126" />
  <text
     font-family="'Century Schoolbook L'"
     font-style="italic"
     font-size="1.7461px"
     text-anchor="start"
     fill="currentColor"
     id="text130"
     x="14.3326"
     y="3.3683"><tspan
       id="tspan128">3</tspan></text>
  <path
     d="m 76.7136,8.4659999 c 0.224,0 0.436,0.116 0.436,0.364 0,0.288 -0.224,0.484 -0.412,0.596 -0.144,0.084 -0.304,0.144 -0.468,0.144 -0.224,0 -0.436,-0.116 -0.436,-0.364 0,-0.288 0.224,-0.484 0.412,-0.596 0.144,-0.084 0.304,-0.144 0.468,-0.144 z"
     fill="currentColor"
     id="path132"
     style="stroke-width:0.004" />
  <rect
     x="77.019798"
     y="5.5180001"
     width="0.13"
     height="3.3122001"
     ry="0.039999999"
     fill="currentColor"
     id="rect134" />
  <path
     d="m 83.5378,8.5699999 c -0.2,0 -0.276,0.172 -0.276,0.352 0,0.308 0.228,0.544 0.536,0.544 0.2,0 0.276,-0.172 0.276,-0.352 0,-0.308 -0.228,-0.544 -0.536,-0.544 z m 1.12,0.448 c 0,0.172 -0.14,0.304 -0.292,0.388 -0.212,0.12 -0.452,0.164 -0.696,0.164 -0.244,0 -0.488,-0.044 -0.7,-0.164 -0.152,-0.084 -0.292,-0.216 -0.292,-0.388 0,-0.172 0.14,-0.304 0.292,-0.388 0.212,-0.12 0.456,-0.164 0.7,-0.164 0.244,0 0.484,0.044 0.696,0.164 0.152,0.084 0.292,0.216 0.292,0.388 z"
     fill="currentColor"
     id="path136"
     style="stroke-width:0.004" />
  <path
     stroke-width="0.08"
     stroke-linejoin="round"
     stroke-linecap="round"
     stroke="currentColor"
     fill="currentColor"
     d="m 76.691689,9.7679999 c 1.044393,0.8849361 5.73165,0.8849361 6.776043,0 -1.044393,0.7649361 -5.73165,0.7649361 -6.776043,0 z"
     id="path138" />
  <polygon
     transform="translate(69.3117,6.0179999)"
     stroke-linejoin="round"
     stroke-linecap="round"
     stroke-width="0.08"
     fill="currentColor"
     stroke="currentColor"
     points="0.04,0.2 0.04,-0.2 5.2287,-0.39 5.2287,0.01 "
     id="polygon140" />
  <path
     stroke-width="0.08"
     stroke-linejoin="round"
     stroke-linecap="round"
     stroke="currentColor"
     fill="currentColor"
     d="m 68.983589,9.7679999 c 0.518406,0.6001291 1.650957,0.6001291 2.169362,0 -0.518405,0.4801291 -1.650956,0.4801291 -2.169362,0 z"
     id="path142" />
  <polygon
     transform="translate(61.6036,5.8279999)"
     stroke-linejoin="round"
     stroke-linecap="round"
     stroke-width="0.08"
     fill="currentColor"
     stroke="currentColor"
     points="0.04,0.2 0.04,-0.2 5.2287,-0.01 5.2287,0.39 "
     id="polygon144" />
  <path
     d="m 17.0087,6.9659999 c 0.224,0 0.436,0.116 0.436,0.364 0,0.288 -0.224,0.484 -0.412,0.596 -0.144,0.084 -0.304,0.144 -0.468,0.144 -0.224,0 -0.436,-0.116 -0.436,-0.364 0,-0.288 0.224,-0.484 0.412,-0.596 0.144,-0.084 0.304,-0.144 0.468,-0.144 z"
     fill="currentColor"
     id="path146"
     style="stroke-width:0.004" />
  <rect
     x="17.314899"
     y="4.2056999"
     width="0.13"
     height="3.1245"
     ry="0.039999999"
     fill="currentColor"
     id="rect148" />
  <path
     d="m 19.5781,6.4659999 c 0.224,0 0.436,0.116 0.436,0.364 0,0.288 -0.224,0.484 -0.412,0.596 -0.144,0.084 -0.304,0.144 -0.468,0.144 -0.224,0 -0.436,-0.116 -0.436,-0.364 0,-0.288 0.224,-0.484 0.412,-0.596 0.144,-0.084 0.304,-0.144 0.468,-0.144 z"
     fill="currentColor"
     id="path150"
     style="stroke-width:0.004" />
  <rect
     x="19.8843"
     y="3.8206999"
     width="0.13"
     height="3.0095"
     ry="0.039999999"
     fill="currentColor"
     id="rect152" />
  <path
     d="m 22.1475,6.4659999 c 0.224,0 0.436,0.116 0.436,0.364 0,0.288 -0.224,0.484 -0.412,0.596 -0.144,0.084 -0.304,0.144 -0.468,0.144 -0.224,0 -0.436,-0.116 -0.436,-0.364 0,-0.288 0.224,-0.484 0.412,-0.596 0.144,-0.084 0.304,-0.144 0.468,-0.144 z"
     fill="currentColor"
     id="path154"
     style="stroke-width:0.004" />
  <rect
     x="22.4536"
     y="3.5319998"
     width="0.13"
     height="3.2981"
     ry="0.039999999"
     fill="currentColor"
     id="rect156" />
  <path
     d="m 24.9668,5.4659999 c 0.224,0 0.436,0.116 0.436,0.364 0,0.288 -0.224,0.484 -0.412,0.596 -0.144,0.084 -0.304,0.144 -0.468,0.144 -0.224,0 -0.436,-0.116 -0.436,-0.364 0,-0.288 0.224,-0.484 0.412,-0.596 0.144,-0.084 0.304,-0.144 0.468,-0.144 z"
     fill="currentColor"
     id="path158"
     style="stroke-width:0.004" />
  <rect
     x="25.273001"
     y="3.2152998"
     width="0.13"
     height="2.6149001"
     ry="0.039999999"
     fill="currentColor"
     id="rect160" />
  <path
     d="m 27.9162,5.7579999 c 0,-0.096 -0.084,-0.164 -0.168,-0.164 -0.016,0 -0.032,0 -0.048,0.004 -0.124,0.036 -0.308,0.16 -0.456,0.256 -0.148,0.096 -0.336,0.212 -0.416,0.312 -0.028,0.032 -0.044,0.072 -0.044,0.112 0,0.096 0.084,0.164 0.168,0.164 0.016,0 0.032,0 0.048,-0.004 0.124,-0.036 0.312,-0.16 0.46,-0.256 0.148,-0.096 0.336,-0.212 0.416,-0.312 0.028,-0.032 0.04,-0.072 0.04,-0.112 z m -0.204,-0.288 c 0.188,0 0.332,0.084 0.332,0.288 0,0.076 -0.016,0.148 -0.04,0.224 -0.048,0.152 -0.128,0.296 -0.26,0.384 -0.216,0.144 -0.452,0.204 -0.752,0.204 -0.188,0 -0.336,-0.088 -0.336,-0.292 0,-0.076 0.02,-0.148 0.044,-0.224 0.048,-0.152 0.124,-0.296 0.256,-0.384 0.216,-0.144 0.456,-0.2 0.756,-0.2 z"
     fill="currentColor"
     id="path162"
     style="stroke-width:0.004" />
  <rect
     x="26.6562"
     y="6.2793999"
     width="0.13"
     height="3.0718999"
     ry="0.039999999"
     fill="currentColor"
     id="rect164" />
  <path
     d="m 11.87,6.4659999 c 0.224,0 0.436,0.116 0.436,0.364 0,0.288 -0.224,0.484 -0.412,0.596 -0.144,0.084 -0.304,0.144 -0.468,0.144 -0.224,0 -0.436,-0.116 -0.436,-0.364 0,-0.288 0.224,-0.484 0.412,-0.596 0.144,-0.084 0.304,-0.144 0.468,-0.144 z"
     fill="currentColor"
     id="path166"
     style="stroke-width:0.004" />
  <path
     d="m 2.304,5.9699999 c 0.016,0 0.036,-0.004 0.052,-0.004 0.62,0 1.024,0.512 1.024,1.044 0,0.304 -0.132,0.616 -0.428,0.84 -0.088,0.068 -0.188,0.112 -0.292,0.144 0.012,0.14 0.02,0.28 0.02,0.42 0,0.076 -0.004,0.156 -0.008,0.232 -0.028,0.48 -0.36,0.912 -0.832,0.912 -0.432,0 -0.78,-0.352 -0.78,-0.788 0,-0.232 0.212,-0.412 0.448,-0.412 0.216,0 0.38,0.188 0.38,0.412 0,0.208 -0.172,0.38 -0.38,0.38 -0.044,0 -0.084,-0.008 -0.124,-0.024 0.104,0.156 0.272,0.26 0.468,0.26 0.384,0 0.628,-0.368 0.652,-0.764 0.004,-0.072 0.008,-0.148 0.008,-0.22 0,-0.124 -0.004,-0.244 -0.016,-0.368 -0.116,0.02 -0.232,0.032 -0.356,0.032 -0.752,0 -1.332,-0.688 -1.332,-1.496 0,-0.708 0.524,-1.224 0.992,-1.764 -0.076,-0.248 -0.148,-0.5 -0.18,-0.76 -0.024,-0.208 -0.028,-0.416 -0.028,-0.624 0,-0.46 0.22,-0.896 0.596,-1.168 0.012,-0.008 0.028,-0.012 0.04,-0.012 0.016,0 0.028,0 0.04,0.012 0.284,0.336 0.532,0.98 0.532,1.432 0,0.572 -0.344,1.02 -0.72,1.456 0.084,0.272 0.156,0.552 0.224,0.828 z m 0.34,1.86 c 0.272,-0.096 0.452,-0.38 0.452,-0.656 0,-0.36 -0.264,-0.716 -0.692,-0.76 0.096,0.464 0.184,0.924 0.24,1.416 z m -1.548,-0.924 c 0,0.54 0.516,0.988 1.056,0.988 0.112,0 0.22,-0.008 0.328,-0.024 -0.056,-0.508 -0.148,-0.98 -0.252,-1.456 -0.316,0.032 -0.496,0.244 -0.496,0.476 0,0.176 0.1,0.364 0.324,0.492 0.02,0.02 0.028,0.04 0.028,0.06 0,0.044 -0.04,0.088 -0.088,0.088 -0.012,0 -0.024,-0.004 -0.036,-0.008 -0.32,-0.172 -0.468,-0.46 -0.468,-0.74 0,-0.352 0.232,-0.696 0.64,-0.788 -0.056,-0.232 -0.116,-0.468 -0.184,-0.7 -0.428,0.484 -0.852,0.972 -0.852,1.612 z m 1.336,-4.068 c -0.396,0.192 -0.648,0.596 -0.648,1.036 0,0.296 0.072,0.532 0.144,0.776 0.32,-0.388 0.584,-0.792 0.584,-1.296 0,-0.22 -0.016,-0.316 -0.08,-0.516 z"
     fill="currentColor"
     id="path168"
     style="stroke-width:0.004" />
  <path
     d="m 4.528,5.8539999 -0.004,0.264 v 0.044 c 0,0.088 0.004,0.176 0.016,0.264 0.18,-0.152 0.372,-0.32 0.372,-0.556 0,-0.132 -0.056,-0.268 -0.172,-0.268 -0.124,0 -0.208,0.12 -0.212,0.252 z m -0.168,0.716 -0.048,-2.38 c 0.032,-0.02 0.072,-0.032 0.108,-0.032 0.036,0 0.076,0.012 0.108,0.032 l -0.028,1.38 c 0.1,-0.084 0.232,-0.136 0.364,-0.136 0.208,0 0.356,0.192 0.356,0.408 0,0.32 -0.344,0.468 -0.588,0.676 -0.06,0.052 -0.096,0.152 -0.18,0.152 -0.052,0 -0.092,-0.044 -0.092,-0.1 z"
     fill="currentColor"
     id="path170"
     style="stroke-width:0.004" />
  <path
     d="m 5.448,4.3539999 -0.004,0.264 v 0.044 c 0,0.088 0.004,0.176 0.016,0.264 0.18,-0.152 0.372,-0.32 0.372,-0.556 0,-0.132 -0.056,-0.268 -0.172,-0.268 -0.124,0 -0.208,0.12 -0.212,0.252 z m -0.168,0.716 -0.048,-2.38 c 0.032,-0.02 0.072,-0.032 0.108,-0.032 0.036,0 0.076,0.012 0.108,0.032 l -0.028,1.38 c 0.1,-0.084 0.232,-0.136 0.364,-0.136 0.208,0 0.356,0.192 0.356,0.408 0,0.32 -0.344,0.468 -0.588,0.676 -0.06,0.052 -0.096,0.152 -0.18,0.152 -0.052,0 -0.092,-0.044 -0.092,-0.1 z"
     fill="currentColor"
     id="path172"
     style="stroke-width:0.004" />
  <path
     d="m 8.726,5.9099999 c -0.196,0 -0.3,-0.168 -0.3,-0.3 0,-0.152 0.108,-0.308 0.288,-0.308 0.016,0 0.036,0 0.056,0.004 -0.112,-0.148 -0.288,-0.236 -0.48,-0.236 -0.424,0 -0.452,0.292 -0.452,0.744 v 0.204 0.204 c 0,0.452 0.028,0.748 0.452,0.748 0.32,0 0.556,-0.28 0.632,-0.604 0.008,-0.028 0.028,-0.04 0.048,-0.04 0.024,0 0.052,0.016 0.052,0.048 0,0.376 -0.42,0.696 -0.732,0.696 -0.272,0 -0.548,-0.084 -0.736,-0.28 -0.196,-0.204 -0.264,-0.488 -0.264,-0.772 0,-0.284 0.068,-0.568 0.264,-0.772 0.188,-0.196 0.464,-0.276 0.736,-0.276 0.348,0 0.64,0.256 0.7,0.6 0.004,0.02 0.004,0.036 0.004,0.052 0,0.16 -0.12,0.288 -0.268,0.288 z"
     fill="currentColor"
     id="path174"
     style="stroke-width:0.004" />
  <text
     font-family="'Roboto Light'"
     font-size="2.2001px"
     text-anchor="start"
     fill="currentColor"
     id="text178"
     x="10.99"
     y="13.4386"><tspan
       id="tspan176">Frase 1</tspan></text>
  <rect
     x="8.3463001"
     y="-8.8817842e-16"
     width="0.1158"
     height="2.5113001"
     ry="0.019300001"
     fill="currentColor"
     id="rect180" />
  <path
     d="m 8.0712,2.1722999 c 0.2052,0 0.4032,0.1116 0.4032,0.3384 0,0.2592 -0.198,0.4356 -0.3672,0.5364 -0.126,0.0756 -0.2664,0.126 -0.414,0.126 -0.2052,0 -0.4032,-0.1116 -0.4032,-0.3384 0,-0.2592 0.198,-0.4356 0.3672,-0.5364 0.126,-0.0756 0.2664,-0.126 0.414,-0.126 z"
     fill="currentColor"
     id="path182"
     style="stroke-width:0.0036" />
  <text
     font-family="'Century Schoolbook L'"
     font-size="2.2001px"
     text-anchor="start"
     fill="currentColor"
     id="text186"
     x="8.4621"
     y="3.1662998"><tspan
       id="tspan184">= 208</tspan></text>
  <rect
     x="12.1762"
     y="4.0202999"
     width="0.13"
     height="2.8097999"
     ry="0.039999999"
     fill="currentColor"
     id="rect188" />
  <path
     d="m 14.4394,6.4659999 c 0.224,0 0.436,0.116 0.436,0.364 0,0.288 -0.224,0.484 -0.412,0.596 -0.144,0.084 -0.304,0.144 -0.468,0.144 -0.224,0 -0.436,-0.116 -0.436,-0.364 0,-0.288 0.224,-0.484 0.412,-0.596 0.144,-0.084 0.304,-0.144 0.468,-0.144 z"
     fill="currentColor"
     id="path190"
     style="stroke-width:0.004" />
  <rect
     x="14.7456"
     y="4.1129999"
     width="0.13"
     height="2.7172"
     ry="0.039999999"
     fill="currentColor"
     id="rect192" />
  <path
     d="m 36.9739,6.4659999 c 0.224,0 0.436,0.116 0.436,0.364 0,0.288 -0.224,0.484 -0.412,0.596 -0.144,0.084 -0.304,0.144 -0.468,0.144 -0.224,0 -0.436,-0.116 -0.436,-0.364 0,-0.288 0.224,-0.484 0.412,-0.596 0.144,-0.084 0.304,-0.144 0.468,-0.144 z"
     fill="currentColor"
     id="path194"
     style="stroke-width:0.004" />
  <rect
     x="37.280102"
     y="4.1129999"
     width="0.13"
     height="2.7172"
     ry="0.039999999"
     fill="currentColor"
     id="rect196" />
  <path
     d="m 39.5433,6.9659999 c 0.224,0 0.436,0.116 0.436,0.364 0,0.288 -0.224,0.484 -0.412,0.596 -0.144,0.084 -0.304,0.144 -0.468,0.144 -0.224,0 -0.436,-0.116 -0.436,-0.364 0,-0.288 0.224,-0.484 0.412,-0.596 0.144,-0.084 0.304,-0.144 0.468,-0.144 z"
     fill="currentColor"
     id="path198"
     style="stroke-width:0.004" />
  <rect
     x="39.849499"
     y="4.2056999"
     width="0.13"
     height="3.1245"
     ry="0.039999999"
     fill="currentColor"
     id="rect200" />
  <rect
     x="42.1688"
     y="5.8302999"
     width="0.13"
     height="2.4998"
     ry="0.039999999"
     fill="currentColor"
     id="rect202" />
  <path
     d="m 41.8626,7.9659999 c 0.224,0 0.436,0.116 0.436,0.364 0,0.288 -0.224,0.484 -0.412,0.596 -0.144,0.084 -0.304,0.144 -0.468,0.144 -0.224,0 -0.436,-0.116 -0.436,-0.364 0,-0.288 0.224,-0.484 0.412,-0.596 0.144,-0.084 0.304,-0.144 0.468,-0.144 z"
     fill="currentColor"
     id="path204"
     style="stroke-width:0.004" />
  <path
     d="m 34.4046,6.4659999 c 0.224,0 0.436,0.116 0.436,0.364 0,0.288 -0.224,0.484 -0.412,0.596 -0.144,0.084 -0.304,0.144 -0.468,0.144 -0.224,0 -0.436,-0.116 -0.436,-0.364 0,-0.288 0.224,-0.484 0.412,-0.596 0.144,-0.084 0.304,-0.144 0.468,-0.144 z"
     fill="currentColor"
     id="path206"
     style="stroke-width:0.004" />
  <rect
     x="34.710701"
     y="4.0202999"
     width="0.13"
     height="2.8097999"
     ry="0.039999999"
     fill="currentColor"
     id="rect208" />
  <path
     d="m 44.432,7.9659999 c 0.224,0 0.436,0.116 0.436,0.364 0,0.288 -0.224,0.484 -0.412,0.596 -0.144,0.084 -0.304,0.144 -0.468,0.144 -0.224,0 -0.436,-0.116 -0.436,-0.364 0,-0.288 0.224,-0.484 0.412,-0.596 0.144,-0.084 0.304,-0.144 0.468,-0.144 z"
     fill="currentColor"
     id="path210"
     style="stroke-width:0.004" />
  <rect
     x="44.738201"
     y="5.9229999"
     width="0.13"
     height="2.4072001"
     ry="0.039999999"
     fill="currentColor"
     id="rect212" />
  <rect
     x="53.575298"
     y="16.3515"
     width="0.19"
     height="4"
     ry="0.0000"
     fill="currentColor"
     id="rect214" />
  <rect
     x="30.8986"
     y="16.3515"
     width="0.19"
     height="4"
     ry="0.0000"
     fill="currentColor"
     id="rect216" />
  <rect
     x="79.498802"
     y="16.3515"
     width="0.19"
     height="4"
     ry="0.0000"
     fill="currentColor"
     id="rect218" />
  <rect
     x="89.993599"
     y="16.3515"
     width="0.60000002"
     height="4"
     ry="0.0000"
     fill="currentColor"
     id="rect220" />
  <rect
     x="89.503601"
     y="16.3515"
     width="0.19"
     height="4"
     ry="0.0000"
     fill="currentColor"
     id="rect222" />
  <rect
     x="44.459499"
     y="21.251499"
     width="1.9743"
     height="0.2"
     ry="0.1"
     fill="currentColor"
     id="rect224" />
  <rect
     x="47.044498"
     y="21.251499"
     width="2.085"
     height="0.2"
     ry="0.1"
     fill="currentColor"
     id="rect226" />
  <rect
     x="54.3689"
     y="21.251499"
     width="1.9743"
     height="0.2"
     ry="0.1"
     fill="currentColor"
     id="rect228" />
  <rect
     x="59.0126"
     y="21.251499"
     width="1.9743"
     height="0.2"
     ry="0.1"
     fill="currentColor"
     id="rect230" />
  <rect
     x="61.6161"
     y="21.251499"
     width="1.9743"
     height="0.2"
     ry="0.1"
     fill="currentColor"
     id="rect232" />
  <rect
     x="64.219498"
     y="21.251499"
     width="1.9743"
     height="0.2"
     ry="0.1"
     fill="currentColor"
     id="rect234" />
  <rect
     x="72.0298"
     y="21.251499"
     width="1.9743"
     height="0.2"
     ry="0.1"
     fill="currentColor"
     id="rect236" />
  <rect
     x="74.383202"
     y="21.251499"
     width="1.9743"
     height="0.2"
     ry="0.1"
     fill="currentColor"
     id="rect238" />
  <rect
     x="74.383202"
     y="22.251499"
     width="1.9743"
     height="0.2"
     ry="0.1"
     fill="currentColor"
     id="rect240" />
  <rect
     x="81.126503"
     y="21.251499"
     width="2.97"
     height="0.2"
     ry="0.1"
     fill="currentColor"
     id="rect242" />
  <rect
     x="81.126503"
     y="22.251499"
     width="2.97"
     height="0.2"
     ry="0.1"
     fill="currentColor"
     id="rect244" />
  <line
     stroke-linejoin="round"
     stroke-linecap="round"
     stroke-width="0.1"
     stroke="currentColor"
     x1="0.050000001"
     y1="20.3515"
     x2="90.543602"
     y2="20.3515"
     id="line246" />
  <line
     stroke-linejoin="round"
     stroke-linecap="round"
     stroke-width="0.1"
     stroke="currentColor"
     x1="0.050000001"
     y1="19.3515"
     x2="90.543602"
     y2="19.3515"
     id="line248" />
  <line
     stroke-linejoin="round"
     stroke-linecap="round"
     stroke-width="0.1"
     stroke="currentColor"
     x1="0.050000001"
     y1="18.3515"
     x2="90.543602"
     y2="18.3515"
     id="line250" />
  <line
     stroke-linejoin="round"
     stroke-linecap="round"
     stroke-width="0.1"
     stroke="currentColor"
     x1="0.050000001"
     y1="17.3515"
     x2="90.543602"
     y2="17.3515"
     id="line252" />
  <line
     stroke-linejoin="round"
     stroke-linecap="round"
     stroke-width="0.1"
     stroke="currentColor"
     x1="0.050000001"
     y1="16.3515"
     x2="90.543602"
     y2="16.3515"
     id="line254" />
  <path
     d="m 68.282,20.2995 c 0.224,0 0.436,0.116 0.436,0.364 0,0.288 -0.224,0.484 -0.412,0.596 -0.144,0.084 -0.304,0.144 -0.468,0.144 -0.224,0 -0.436,-0.116 -0.436,-0.364 0,-0.288 0.224,-0.484 0.412,-0.596 0.144,-0.084 0.304,-0.144 0.468,-0.144 z"
     fill="currentColor"
     id="path256"
     style="stroke-width:0.004" />
  <rect
     x="68.588203"
     y="18.1639"
     width="0.13"
     height="2.4998"
     ry="0.039999999"
     fill="currentColor"
     id="rect258" />
  <path
     d="m 70.8854,20.2995 c 0.224,0 0.436,0.116 0.436,0.364 0,0.288 -0.224,0.484 -0.412,0.596 -0.144,0.084 -0.304,0.144 -0.468,0.144 -0.224,0 -0.436,-0.116 -0.436,-0.364 0,-0.288 0.224,-0.484 0.412,-0.596 0.144,-0.084 0.304,-0.144 0.468,-0.144 z"
     fill="currentColor"
     id="path260"
     style="stroke-width:0.004" />
  <rect
     x="71.191597"
     y="18.2612"
     width="0.13"
     height="2.4024999"
     ry="0.039999999"
     fill="currentColor"
     id="rect262" />
  <path
     d="m 73.2388,21.2995 c 0.224,0 0.436,0.116 0.436,0.364 0,0.288 -0.224,0.484 -0.412,0.596 -0.144,0.084 -0.304,0.144 -0.468,0.144 -0.224,0 -0.436,-0.116 -0.436,-0.364 0,-0.288 0.224,-0.484 0.412,-0.596 0.144,-0.084 0.304,-0.144 0.468,-0.144 z"
     fill="currentColor"
     id="path264"
     style="stroke-width:0.004" />
  <rect
     x="73.544998"
     y="18.3491"
     width="0.13"
     height="3.3146"
     ry="0.039999999"
     fill="currentColor"
     id="rect266" />
  <path
     d="m 75.5923,22.2995 c 0.224,0 0.436,0.116 0.436,0.364 0,0.288 -0.224,0.484 -0.412,0.596 -0.144,0.084 -0.304,0.144 -0.468,0.144 -0.224,0 -0.436,-0.116 -0.436,-0.364 0,-0.288 0.224,-0.484 0.412,-0.596 0.144,-0.084 0.304,-0.144 0.468,-0.144 z"
     fill="currentColor"
     id="path268"
     style="stroke-width:0.004" />
  <rect
     x="75.898499"
     y="18.3515"
     width="0.13"
     height="4.3122001"
     ry="0.039999999"
     fill="currentColor"
     id="rect270" />
  <path
     d="m 82.4815,22.4035 c -0.2,0 -0.276,0.172 -0.276,0.352 0,0.308 0.228,0.544 0.536,0.544 0.2,0 0.276,-0.172 0.276,-0.352 0,-0.308 -0.228,-0.544 -0.536,-0.544 z m 1.12,0.448 c 0,0.172 -0.14,0.304 -0.292,0.388 -0.212,0.12 -0.452,0.164 -0.696,0.164 -0.244,0 -0.488,-0.044 -0.7,-0.164 -0.152,-0.084 -0.292,-0.216 -0.292,-0.388 0,-0.172 0.14,-0.304 0.292,-0.388 0.212,-0.12 0.456,-0.164 0.7,-0.164 0.244,0 0.484,0.044 0.696,0.164 0.152,0.084 0.292,0.216 0.292,0.388 z"
     fill="currentColor"
     id="path272"
     style="stroke-width:0.004" />
  <rect
     x="55.884201"
     y="17.8515"
     width="0.13"
     height="3.3122001"
     ry="0.039999999"
     fill="currentColor"
     id="rect274" />
  <path
     d="m 60.2217,20.7995 c 0.224,0 0.436,0.116 0.436,0.364 0,0.288 -0.224,0.484 -0.412,0.596 -0.144,0.084 -0.304,0.144 -0.468,0.144 -0.224,0 -0.436,-0.116 -0.436,-0.364 0,-0.288 0.224,-0.484 0.412,-0.596 0.144,-0.084 0.304,-0.144 0.468,-0.144 z"
     fill="currentColor"
     id="path276"
     style="stroke-width:0.004" />
  <rect
     x="60.527901"
     y="18.163799"
     width="0.13"
     height="2.9999001"
     ry="0.039999999"
     fill="currentColor"
     id="rect278" />
  <path
     d="m 62.8251,20.7995 c 0.224,0 0.436,0.116 0.436,0.364 0,0.288 -0.224,0.484 -0.412,0.596 -0.144,0.084 -0.304,0.144 -0.468,0.144 -0.224,0 -0.436,-0.116 -0.436,-0.364 0,-0.288 0.224,-0.484 0.412,-0.596 0.144,-0.084 0.304,-0.144 0.468,-0.144 z"
     fill="currentColor"
     id="path280"
     style="stroke-width:0.004" />
  <rect
     x="63.131302"
     y="18.2565"
     width="0.13"
     height="2.9072001"
     ry="0.039999999"
     fill="currentColor"
     id="rect282" />
  <path
     d="m 65.4285,21.2995 c 0.224,0 0.436,0.116 0.436,0.364 0,0.288 -0.224,0.484 -0.412,0.596 -0.144,0.084 -0.304,0.144 -0.468,0.144 -0.224,0 -0.436,-0.116 -0.436,-0.364 0,-0.288 0.224,-0.484 0.412,-0.596 0.144,-0.084 0.304,-0.144 0.468,-0.144 z"
     fill="currentColor"
     id="path284"
     style="stroke-width:0.004" />
  <rect
     x="65.734703"
     y="18.349199"
     width="0.13"
     height="3.3145001"
     ry="0.039999999"
     fill="currentColor"
     id="rect286" />
  <path
     stroke-width="0.08"
     stroke-linejoin="round"
     stroke-linecap="round"
     stroke="currentColor"
     fill="currentColor"
     d="m 68.918178,21.3515 c 0.250381,0.336623 0.636875,0.336623 0.887256,0 -0.250381,0.216623 -0.636875,0.216623 -0.887256,0 z"
     id="path288" />
  <polygon
     transform="translate(60.5279,18.1615)"
     stroke-linejoin="round"
     stroke-linecap="round"
     stroke-width="0.08"
     fill="currentColor"
     stroke="currentColor"
     points="0.04,0.2 0.04,-0.2 5.2969,-0.01 5.2969,0.39 "
     id="polygon290" />
  <text
     font-family="'Century Schoolbook L'"
     font-style="italic"
     font-size="1.7461px"
     text-anchor="start"
     fill="currentColor"
     id="text294"
     x="70.653603"
     y="17.5116"><tspan
       id="tspan292">3</tspan></text>
  <path
     stroke-width="0.08"
     stroke-linejoin="round"
     stroke-linecap="round"
     stroke="currentColor"
     fill="currentColor"
     d="m 60.199789,22.1015 c 0.524413,0.605045 1.679021,0.605045 2.203434,0 -0.524413,0.485045 -1.679021,0.485045 -2.203434,0 z"
     id="path296" />
  <text
     font-family="'Century Schoolbook L'"
     font-style="italic"
     font-size="1.7461px"
     text-anchor="start"
     fill="currentColor"
     id="text300"
     x="62.7183"
     y="17.5117"><tspan
       id="tspan298">3</tspan></text>
  <polygon
     transform="translate(40.7678,18.1615)"
     stroke-linejoin="round"
     stroke-linecap="round"
     stroke-width="0.08"
     fill="currentColor"
     stroke="currentColor"
     points="0.04,0.2 0.04,-0.2 5.2969,-0.01 5.2969,0.39 "
     id="polygon302" />
  <path
     stroke-width="0.08"
     stroke-linejoin="round"
     stroke-linecap="round"
     stroke="currentColor"
     fill="currentColor"
     d="m 45.646589,22.1015 c 0.530864,0.610272 1.709473,0.610272 2.240337,0 -0.530864,0.490272 -1.709473,0.490272 -2.240337,0 z"
     id="path304" />
  <path
     stroke-width="0.08"
     stroke-linejoin="round"
     stroke-linecap="round"
     stroke="currentColor"
     fill="currentColor"
     d="m 41.097878,21.3515 c 0.250381,0.336623 0.636875,0.336623 0.887256,0 -0.250381,0.216623 -0.636875,0.216623 -0.887256,0 z"
     id="path306" />
  <polygon
     transform="translate(33.2075,16.3515)"
     stroke-linejoin="round"
     stroke-linecap="round"
     stroke-width="0.08"
     fill="currentColor"
     stroke="currentColor"
     points="0.04,0.2 0.04,-0.2 5.2969,-0.01 5.2969,0.39 "
     id="polygon308" />
  <text
     font-family="'Century Schoolbook L'"
     font-style="italic"
     font-size="1.7461px"
     text-anchor="start"
     fill="currentColor"
     id="text312"
     x="42.958302"
     y="17.5117"><tspan
       id="tspan310">3</tspan></text>
  <path
     stroke-width="0.08"
     stroke-linejoin="round"
     stroke-linecap="round"
     stroke="currentColor"
     fill="currentColor"
     d="m 32.879389,20.3515 c 0.524413,0.605045 1.679021,0.605045 2.203434,0 -0.524413,0.485045 -1.679021,0.485045 -2.203434,0 z"
     id="path314" />
  <text
     font-family="'Century Schoolbook L'"
     font-style="italic"
     font-size="1.7461px"
     text-anchor="start"
     fill="currentColor"
     id="text318"
     x="35.397999"
     y="15.7017"><tspan
       id="tspan316">3</tspan></text>
  <polygon
     transform="translate(18.1439,16.1615)"
     stroke-linejoin="round"
     stroke-linecap="round"
     stroke-width="0.08"
     fill="currentColor"
     stroke="currentColor"
     points="0.04,0.2 0.04,-0.2 5.5469,-0.82 5.5469,-0.42 "
     id="polygon320" />
  <path
     stroke-width="0.08"
     stroke-linejoin="round"
     stroke-linecap="round"
     stroke="currentColor"
     fill="currentColor"
     d="m 24.065778,18.044219 c 0.216406,-0.298655 0.53585,-0.298655 0.752256,0 -0.216406,-0.178655 -0.53585,-0.178655 -0.752256,0 z"
     id="path322" />
  <path
     stroke-width="0.08"
     stroke-linejoin="round"
     stroke-linecap="round"
     stroke="currentColor"
     fill="currentColor"
     d="m 17.815889,20.3515 c 0.524413,0.605045 1.679021,0.605045 2.203434,0 -0.524413,0.485045 -1.679021,0.485045 -2.203434,0 z"
     id="path324" />
  <polygon
     transform="translate(9.8262,16.3515)"
     stroke-linejoin="round"
     stroke-linecap="round"
     stroke-width="0.08"
     fill="currentColor"
     stroke="currentColor"
     points="0.04,0.2 0.04,-0.2 5.8043,-0.01 5.8043,0.39 "
     id="polygon326" />
  <text
     font-family="'Century Schoolbook L'"
     font-style="italic"
     font-size="1.7461px"
     text-anchor="start"
     fill="currentColor"
     id="text330"
     x="20.4594"
     y="15.102"><tspan
       id="tspan328">3</tspan></text>
  <path
     stroke-width="0.08"
     stroke-linejoin="round"
     stroke-linecap="round"
     stroke="currentColor"
     fill="currentColor"
     d="m 9.498089,20.3515 c 0.524413,0.605045 1.679021,0.605045 2.203434,0 -0.524413,0.485045 -1.679021,0.485045 -2.203434,0 z"
     id="path332" />
  <line
     stroke-linejoin="round"
     stroke-linecap="round"
     stroke-width="0.1"
     stroke="currentColor"
     x1="9.1400003"
     y1="24.651501"
     x2="83.101501"
     y2="24.651501"
     id="line334" />
  <line
     stroke-linejoin="round"
     stroke-linecap="round"
     stroke-width="0.1"
     stroke="currentColor"
     x1="83.101501"
     y1="24.651501"
     x2="83.601501"
     y2="23.651501"
     id="line336" />
  <line
     stroke-linejoin="round"
     stroke-linecap="round"
     stroke-width="0.1"
     stroke="currentColor"
     x1="9.1400003"
     y1="24.651501"
     x2="8.6400003"
     y2="23.651501"
     id="line338" />
  <text
     font-family="'Century Schoolbook L'"
     font-style="italic"
     font-size="1.7461px"
     text-anchor="start"
     fill="currentColor"
     id="text342"
     x="12.2704"
     y="15.7019"><tspan
       id="tspan340">3</tspan></text>
  <rect
     x="9.8261995"
     y="16.3536"
     width="0.13"
     height="2.8101001"
     ry="0.039999999"
     fill="currentColor"
     id="rect344" />
  <text
     font-family="'Roboto Light'"
     font-size="2.2001px"
     text-anchor="start"
     fill="currentColor"
     id="text348"
     x="8.6400003"
     y="26.8062"><tspan
       id="tspan346">Frase 2</tspan></text>
  <path
     d="m 9.52,18.7995 c 0.224,0 0.436,0.116 0.436,0.364 0,0.288 -0.224,0.484 -0.412,0.596 -0.144,0.084 -0.304,0.144 -0.468,0.144 -0.224,0 -0.436,-0.116 -0.436,-0.364 0,-0.288 0.224,-0.484 0.412,-0.596 0.144,-0.084 0.304,-0.144 0.468,-0.144 z"
     fill="currentColor"
     id="path350"
     style="stroke-width:0.004" />
  <path
     stroke-width="0.08"
     stroke-linejoin="round"
     stroke-linecap="round"
     stroke="currentColor"
     fill="currentColor"
     d="m 76.228478,23.3515 c 0.911621,0.835438 4.281466,0.835438 5.193086,0 -0.91162,0.715438 -4.281465,0.715438 -5.193086,0 z"
     id="path352" />
  <polygon
     transform="translate(68.5882,18.1615)"
     stroke-linejoin="round"
     stroke-linecap="round"
     stroke-width="0.08"
     fill="currentColor"
     stroke="currentColor"
     points="0.04,0.2 0.04,-0.2 5.0469,-0.01 5.0469,0.39 "
     id="polygon354" />
  <path
     d="m 17.8378,18.7995 c 0.224,0 0.436,0.116 0.436,0.364 0,0.288 -0.224,0.484 -0.412,0.596 -0.144,0.084 -0.304,0.144 -0.468,0.144 -0.224,0 -0.436,-0.116 -0.436,-0.364 0,-0.288 0.224,-0.484 0.412,-0.596 0.144,-0.084 0.304,-0.144 0.468,-0.144 z"
     fill="currentColor"
     id="path356"
     style="stroke-width:0.004" />
  <rect
     x="18.1439"
     y="16.154301"
     width="0.13"
     height="3.0093999"
     ry="0.039999999"
     fill="currentColor"
     id="rect358" />
  <path
     d="m 20.4412,18.7995 c 0.224,0 0.436,0.116 0.436,0.364 0,0.288 -0.224,0.484 -0.412,0.596 -0.144,0.084 -0.304,0.144 -0.468,0.144 -0.224,0 -0.436,-0.116 -0.436,-0.364 0,-0.288 0.224,-0.484 0.412,-0.596 0.144,-0.084 0.304,-0.144 0.468,-0.144 z"
     fill="currentColor"
     id="path360"
     style="stroke-width:0.004" />
  <rect
     x="20.7474"
     y="15.8654"
     width="0.13"
     height="3.2983"
     ry="0.039999999"
     fill="currentColor"
     id="rect362" />
  <path
     d="m 23.2946,17.7995 c 0.224,0 0.436,0.116 0.436,0.364 0,0.288 -0.224,0.484 -0.412,0.596 -0.144,0.084 -0.304,0.144 -0.468,0.144 -0.224,0 -0.436,-0.116 -0.436,-0.364 0,-0.288 0.224,-0.484 0.412,-0.596 0.144,-0.084 0.304,-0.144 0.468,-0.144 z"
     fill="currentColor"
     id="path364"
     style="stroke-width:0.004" />
  <rect
     x="23.6008"
     y="15.5487"
     width="0.13"
     height="2.615"
     ry="0.039999999"
     fill="currentColor"
     id="rect366" />
  <path
     d="m 26.2781,18.0915 c 0,-0.096 -0.084,-0.164 -0.168,-0.164 -0.016,0 -0.032,0 -0.048,0.004 -0.124,0.036 -0.308,0.16 -0.456,0.256 -0.148,0.096 -0.336,0.212 -0.416,0.312 -0.028,0.032 -0.044,0.072 -0.044,0.112 0,0.096 0.084,0.164 0.168,0.164 0.016,0 0.032,0 0.048,-0.004 0.124,-0.036 0.312,-0.16 0.46,-0.256 0.148,-0.096 0.336,-0.212 0.416,-0.312 0.028,-0.032 0.04,-0.072 0.04,-0.112 z m -0.204,-0.288 c 0.188,0 0.332,0.084 0.332,0.288 0,0.076 -0.016,0.148 -0.04,0.224 -0.048,0.152 -0.128,0.296 -0.26,0.384 -0.216,0.144 -0.452,0.204 -0.752,0.204 -0.188,0 -0.336,-0.088 -0.336,-0.292 0,-0.076 0.02,-0.148 0.044,-0.224 0.048,-0.152 0.124,-0.296 0.256,-0.384 0.216,-0.144 0.456,-0.2 0.756,-0.2 z"
     fill="currentColor"
     id="path368"
     style="stroke-width:0.004" />
  <rect
     x="25.018101"
     y="18.6129"
     width="0.13"
     height="3.0718999"
     ry="0.039999999"
     fill="currentColor"
     id="rect370" />
  <path
     d="m 32.9013,18.7995 c 0.224,0 0.436,0.116 0.436,0.364 0,0.288 -0.224,0.484 -0.412,0.596 -0.144,0.084 -0.304,0.144 -0.468,0.144 -0.224,0 -0.436,-0.116 -0.436,-0.364 0,-0.288 0.224,-0.484 0.412,-0.596 0.144,-0.084 0.304,-0.144 0.468,-0.144 z"
     fill="currentColor"
     id="path372"
     style="stroke-width:0.004" />
  <rect
     x="33.2075"
     y="16.3538"
     width="0.13"
     height="2.8099"
     ry="0.039999999"
     fill="currentColor"
     id="rect374" />
  <path
     d="m 2.304,18.3035 c 0.016,0 0.036,-0.004 0.052,-0.004 0.62,0 1.024,0.512 1.024,1.044 0,0.304 -0.132,0.616 -0.428,0.84 -0.088,0.068 -0.188,0.112 -0.292,0.144 0.012,0.14 0.02,0.28 0.02,0.42 0,0.076 -0.004,0.156 -0.008,0.232 -0.028,0.48 -0.36,0.912 -0.832,0.912 -0.432,0 -0.78,-0.352 -0.78,-0.788 0,-0.232 0.212,-0.412 0.448,-0.412 0.216,0 0.38,0.188 0.38,0.412 0,0.208 -0.172,0.38 -0.38,0.38 -0.044,0 -0.084,-0.008 -0.124,-0.024 0.104,0.156 0.272,0.26 0.468,0.26 0.384,0 0.628,-0.368 0.652,-0.764 0.004,-0.072 0.008,-0.148 0.008,-0.22 0,-0.124 -0.004,-0.244 -0.016,-0.368 -0.116,0.02 -0.232,0.032 -0.356,0.032 -0.752,0 -1.332,-0.688 -1.332,-1.496 0,-0.708 0.524,-1.224 0.992,-1.764 -0.076,-0.248 -0.148,-0.5 -0.18,-0.76 -0.024,-0.208 -0.028,-0.416 -0.028,-0.624 0,-0.46 0.22,-0.896 0.596,-1.168 0.012,-0.008 0.028,-0.012 0.04,-0.012 0.016,0 0.028,0 0.04,0.012 0.284,0.336 0.532,0.98 0.532,1.432 0,0.572 -0.344,1.02 -0.72,1.456 0.084,0.272 0.156,0.552 0.224,0.828 z m 0.34,1.86 c 0.272,-0.096 0.452,-0.38 0.452,-0.656 0,-0.36 -0.264,-0.716 -0.692,-0.76 0.096,0.464 0.184,0.924 0.24,1.416 z m -1.548,-0.924 c 0,0.54 0.516,0.988 1.056,0.988 0.112,0 0.22,-0.008 0.328,-0.024 -0.056,-0.508 -0.148,-0.98 -0.252,-1.456 -0.316,0.032 -0.496,0.244 -0.496,0.476 0,0.176 0.1,0.364 0.324,0.492 0.02,0.02 0.028,0.04 0.028,0.06 0,0.044 -0.04,0.088 -0.088,0.088 -0.012,0 -0.024,-0.004 -0.036,-0.008 -0.32,-0.172 -0.468,-0.46 -0.468,-0.74 0,-0.352 0.232,-0.696 0.64,-0.788 -0.056,-0.232 -0.116,-0.468 -0.184,-0.7 -0.428,0.484 -0.852,0.972 -0.852,1.612 z m 1.336,-4.068 c -0.396,0.192 -0.648,0.596 -0.648,1.036 0,0.296 0.072,0.532 0.144,0.776 0.32,-0.388 0.584,-0.792 0.584,-1.296 0,-0.22 -0.016,-0.316 -0.08,-0.516 z"
     fill="currentColor"
     id="path376"
     style="stroke-width:0.004" />
  <path
     d="m 4.528,18.1875 -0.004,0.264 v 0.044 c 0,0.088 0.004,0.176 0.016,0.264 0.18,-0.152 0.372,-0.32 0.372,-0.556 0,-0.132 -0.056,-0.268 -0.172,-0.268 -0.124,0 -0.208,0.12 -0.212,0.252 z m -0.168,0.716 -0.048,-2.38 c 0.032,-0.02 0.072,-0.032 0.108,-0.032 0.036,0 0.076,0.012 0.108,0.032 l -0.028,1.38 c 0.1,-0.084 0.232,-0.136 0.364,-0.136 0.208,0 0.356,0.192 0.356,0.408 0,0.32 -0.344,0.468 -0.588,0.676 -0.06,0.052 -0.096,0.152 -0.18,0.152 -0.052,0 -0.092,-0.044 -0.092,-0.1 z"
     fill="currentColor"
     id="path378"
     style="stroke-width:0.004" />
  <path
     d="m 5.448,16.6875 -0.004,0.264 v 0.044 c 0,0.088 0.004,0.176 0.016,0.264 0.18,-0.152 0.372,-0.32 0.372,-0.556 0,-0.132 -0.056,-0.268 -0.172,-0.268 -0.124,0 -0.208,0.12 -0.212,0.252 z m -0.168,0.716 -0.048,-2.38 c 0.032,-0.02 0.072,-0.032 0.108,-0.032 0.036,0 0.076,0.012 0.108,0.032 l -0.028,1.38 c 0.1,-0.084 0.232,-0.136 0.364,-0.136 0.208,0 0.356,0.192 0.356,0.408 0,0.32 -0.344,0.468 -0.588,0.676 -0.06,0.052 -0.096,0.152 -0.18,0.152 -0.052,0 -0.092,-0.044 -0.092,-0.1 z"
     fill="currentColor"
     id="path380"
     style="stroke-width:0.004" />
  <path
     d="m 12.1235,18.7995 c 0.224,0 0.436,0.116 0.436,0.364 0,0.288 -0.224,0.484 -0.412,0.596 -0.144,0.084 -0.304,0.144 -0.468,0.144 -0.224,0 -0.436,-0.116 -0.436,-0.364 0,-0.288 0.224,-0.484 0.412,-0.596 0.144,-0.084 0.304,-0.144 0.468,-0.144 z"
     fill="currentColor"
     id="path382"
     style="stroke-width:0.004" />
  <rect
     x="12.4296"
     y="16.438299"
     width="0.13"
     height="2.7254"
     ry="0.039999999"
     fill="currentColor"
     id="rect384" />
  <path
     d="m 15.2343,19.2995 c 0.224,0 0.436,0.116 0.436,0.364 0,0.288 -0.224,0.484 -0.412,0.596 -0.144,0.084 -0.304,0.144 -0.468,0.144 -0.224,0 -0.436,-0.116 -0.436,-0.364 0,-0.288 0.224,-0.484 0.412,-0.596 0.144,-0.084 0.304,-0.144 0.468,-0.144 z"
     fill="currentColor"
     id="path386"
     style="stroke-width:0.004" />
  <rect
     x="15.5405"
     y="16.5394"
     width="0.13"
     height="3.1243"
     ry="0.039999999"
     fill="currentColor"
     id="rect388" />
  <rect
     x="38.414398"
     y="16.5392"
     width="0.13"
     height="3.1245"
     ry="0.039999999"
     fill="currentColor"
     id="rect390" />
  <path
     d="m 40.4617,20.2995 c 0.224,0 0.436,0.116 0.436,0.364 0,0.288 -0.224,0.484 -0.412,0.596 -0.144,0.084 -0.304,0.144 -0.468,0.144 -0.224,0 -0.436,-0.116 -0.436,-0.364 0,-0.288 0.224,-0.484 0.412,-0.596 0.144,-0.084 0.304,-0.144 0.468,-0.144 z"
     fill="currentColor"
     id="path392"
     style="stroke-width:0.004" />
  <rect
     x="40.767799"
     y="18.163799"
     width="0.13"
     height="2.4999001"
     ry="0.039999999"
     fill="currentColor"
     id="rect394" />
  <path
     d="m 43.0651,20.2995 c 0.224,0 0.436,0.116 0.436,0.364 0,0.288 -0.224,0.484 -0.412,0.596 -0.144,0.084 -0.304,0.144 -0.468,0.144 -0.224,0 -0.436,-0.116 -0.436,-0.364 0,-0.288 0.224,-0.484 0.412,-0.596 0.144,-0.084 0.304,-0.144 0.468,-0.144 z"
     fill="currentColor"
     id="path396"
     style="stroke-width:0.004" />
  <rect
     x="43.3713"
     y="18.2565"
     width="0.13"
     height="2.4072001"
     ry="0.039999999"
     fill="currentColor"
     id="rect398" />
  <path
     d="m 45.6685,20.7995 c 0.224,0 0.436,0.116 0.436,0.364 0,0.288 -0.224,0.484 -0.412,0.596 -0.144,0.084 -0.304,0.144 -0.468,0.144 -0.224,0 -0.436,-0.116 -0.436,-0.364 0,-0.288 0.224,-0.484 0.412,-0.596 0.144,-0.084 0.304,-0.144 0.468,-0.144 z"
     fill="currentColor"
     id="path400"
     style="stroke-width:0.004" />
  <rect
     x="45.974701"
     y="18.349199"
     width="0.13"
     height="2.8145001"
     ry="0.039999999"
     fill="currentColor"
     id="rect402" />
  <path
     d="m 48.652,21.0915 c 0,-0.096 -0.084,-0.164 -0.168,-0.164 -0.016,0 -0.032,0 -0.048,0.004 -0.124,0.036 -0.308,0.16 -0.456,0.256 -0.148,0.096 -0.336,0.212 -0.416,0.312 -0.028,0.032 -0.044,0.072 -0.044,0.112 0,0.096 0.084,0.164 0.168,0.164 0.016,0 0.032,0 0.048,-0.004 0.124,-0.036 0.312,-0.16 0.46,-0.256 0.148,-0.096 0.336,-0.212 0.416,-0.312 0.028,-0.032 0.04,-0.072 0.04,-0.112 z m -0.204,-0.288 c 0.188,0 0.332,0.084 0.332,0.288 0,0.076 -0.016,0.148 -0.04,0.224 -0.048,0.152 -0.128,0.296 -0.26,0.384 -0.216,0.144 -0.452,0.204 -0.752,0.204 -0.188,0 -0.336,-0.088 -0.336,-0.292 0,-0.076 0.02,-0.148 0.044,-0.224 0.048,-0.152 0.124,-0.296 0.256,-0.384 0.216,-0.144 0.456,-0.2 0.756,-0.2 z"
     fill="currentColor"
     id="path404"
     style="stroke-width:0.004" />
  <rect
     x="48.651901"
     y="17.8515"
     width="0.13"
     height="3.2386"
     ry="0.039999999"
     fill="currentColor"
     id="rect406" />
  <path
     d="m 55.578,20.7995 c 0.224,0 0.436,0.116 0.436,0.364 0,0.288 -0.224,0.484 -0.412,0.596 -0.144,0.084 -0.304,0.144 -0.468,0.144 -0.224,0 -0.436,-0.116 -0.436,-0.364 0,-0.288 0.224,-0.484 0.412,-0.596 0.144,-0.084 0.304,-0.144 0.468,-0.144 z"
     fill="currentColor"
     id="path408"
     style="stroke-width:0.004" />
  <path
     d="m 35.5048,18.7995 c 0.224,0 0.436,0.116 0.436,0.364 0,0.288 -0.224,0.484 -0.412,0.596 -0.144,0.084 -0.304,0.144 -0.468,0.144 -0.224,0 -0.436,-0.116 -0.436,-0.364 0,-0.288 0.224,-0.484 0.412,-0.596 0.144,-0.084 0.304,-0.144 0.468,-0.144 z"
     fill="currentColor"
     id="path410"
     style="stroke-width:0.004" />
  <rect
     x="35.811001"
     y="16.446501"
     width="0.13"
     height="2.7172"
     ry="0.039999999"
     fill="currentColor"
     id="rect412" />
  <path
     d="m 38.1082,19.2995 c 0.224,0 0.436,0.116 0.436,0.364 0,0.288 -0.224,0.484 -0.412,0.596 -0.144,0.084 -0.304,0.144 -0.468,0.144 -0.224,0 -0.436,-0.116 -0.436,-0.364 0,-0.288 0.224,-0.484 0.412,-0.596 0.144,-0.084 0.304,-0.144 0.468,-0.144 z"
     fill="currentColor"
     id="path414"
     style="stroke-width:0.004" />
</svg>
