<?xml version="1.0" encoding="UTF-8" standalone="no"?>
<svg
   version="1.2"
   width="159.20001mm"
   height="32.413898mm"
   viewBox="0 0 90.593601 18.445298"
   id="svg176"
   xmlns="http://www.w3.org/2000/svg"
   xmlns:svg="http://www.w3.org/2000/svg">
  <defs
     id="defs180" />
  <!-- Page: 1/1 -->
  <text
     font-family="'Century Schoolbook L'"
     font-size="2.2001px"
     text-anchor="start"
     fill="currentColor"
     id="text4"
     y="-1.002"><tspan
       id="tspan2" /></text>
  <rect
     x="70.556999"
     y="4.5479999"
     width="0.19"
     height="4"
     ry="0.0000"
     fill="currentColor"
     id="rect6" />
  <rect
     x="32.002499"
     y="4.5479999"
     width="0.19"
     height="4"
     ry="0.0000"
     fill="currentColor"
     id="rect8" />
  <rect
     x="89.993599"
     y="4.5479999"
     width="0.60000002"
     height="4"
     ry="0.0000"
     fill="currentColor"
     id="rect10" />
  <rect
     x="89.503601"
     y="4.5479999"
     width="0.19"
     height="4"
     ry="0.0000"
     fill="currentColor"
     id="rect12" />
  <rect
     x="51.6105"
     y="4.5479999"
     width="0.19"
     height="4"
     ry="0.0000"
     fill="currentColor"
     id="rect14" />
  <rect
     x="51.120499"
     y="4.5479999"
     width="0.19"
     height="4"
     ry="0.0000"
     fill="currentColor"
     id="rect16" />
  <rect
     x="14.2977"
     y="9.448"
     width="2.085"
     height="0.2"
     ry="0.1"
     fill="currentColor"
     id="rect18" />
  <rect
     x="14.2977"
     y="10.448"
     width="2.085"
     height="0.2"
     ry="0.1"
     fill="currentColor"
     id="rect20" />
  <rect
     x="14.2977"
     y="11.448"
     width="2.085"
     height="0.2"
     ry="0.1"
     fill="currentColor"
     id="rect22" />
  <rect
     x="14.2977"
     y="12.448"
     width="2.085"
     height="0.2"
     ry="0.1"
     fill="currentColor"
     id="rect24" />
  <rect
     x="22.9049"
     y="9.448"
     width="2.085"
     height="0.2"
     ry="0.1"
     fill="currentColor"
     id="rect26" />
  <rect
     x="22.9049"
     y="10.448"
     width="2.085"
     height="0.2"
     ry="0.1"
     fill="currentColor"
     id="rect28" />
  <rect
     x="22.9049"
     y="11.448"
     width="2.085"
     height="0.2"
     ry="0.1"
     fill="currentColor"
     id="rect30" />
  <rect
     x="33.415699"
     y="9.448"
     width="2.085"
     height="0.2"
     ry="0.1"
     fill="currentColor"
     id="rect32" />
  <rect
     x="33.415699"
     y="10.448"
     width="2.085"
     height="0.2"
     ry="0.1"
     fill="currentColor"
     id="rect34" />
  <rect
     x="42.0229"
     y="9.448"
     width="2.085"
     height="0.2"
     ry="0.1"
     fill="currentColor"
     id="rect36" />
  <rect
     x="53.137901"
     y="3.448"
     width="2.085"
     height="0.2"
     ry="0.1"
     fill="currentColor"
     id="rect38" />
  <rect
     x="61.745201"
     y="3.448"
     width="2.085"
     height="0.2"
     ry="0.1"
     fill="currentColor"
     id="rect40" />
  <rect
     x="61.745201"
     y="2.448"
     width="2.085"
     height="0.2"
     ry="0.1"
     fill="currentColor"
     id="rect42" />
  <rect
     x="72.084503"
     y="3.448"
     width="2.085"
     height="0.2"
     ry="0.1"
     fill="currentColor"
     id="rect44" />
  <rect
     x="72.084503"
     y="2.448"
     width="2.085"
     height="0.2"
     ry="0.1"
     fill="currentColor"
     id="rect46" />
  <rect
     x="72.084503"
     y="1.448"
     width="2.085"
     height="0.2"
     ry="0.1"
     fill="currentColor"
     id="rect48" />
  <rect
     x="80.691704"
     y="3.448"
     width="2.085"
     height="0.2"
     ry="0.1"
     fill="currentColor"
     id="rect50" />
  <rect
     x="80.691704"
     y="2.448"
     width="2.085"
     height="0.2"
     ry="0.1"
     fill="currentColor"
     id="rect52" />
  <rect
     x="80.691704"
     y="1.448"
     width="2.085"
     height="0.2"
     ry="0.1"
     fill="currentColor"
     id="rect54" />
  <rect
     x="80.691704"
     y="0.44799998"
     width="2.085"
     height="0.2"
     ry="0.1"
     fill="currentColor"
     id="rect56" />
  <line
     stroke-linejoin="round"
     stroke-linecap="round"
     stroke-width="0.1"
     stroke="currentColor"
     x1="0.050000001"
     y1="8.5480003"
     x2="90.543602"
     y2="8.5480003"
     id="line58" />
  <line
     stroke-linejoin="round"
     stroke-linecap="round"
     stroke-width="0.1"
     stroke="currentColor"
     x1="0.050000001"
     y1="7.5479999"
     x2="90.543602"
     y2="7.5479999"
     id="line60" />
  <line
     stroke-linejoin="round"
     stroke-linecap="round"
     stroke-width="0.1"
     stroke="currentColor"
     x1="0.050000001"
     y1="6.5479999"
     x2="90.543602"
     y2="6.5479999"
     id="line62" />
  <line
     stroke-linejoin="round"
     stroke-linecap="round"
     stroke-width="0.1"
     stroke="currentColor"
     x1="0.050000001"
     y1="5.5479999"
     x2="90.543602"
     y2="5.5479999"
     id="line64" />
  <line
     stroke-linejoin="round"
     stroke-linecap="round"
     stroke-width="0.1"
     stroke="currentColor"
     x1="0.050000001"
     y1="4.5479999"
     x2="90.543602"
     y2="4.5479999"
     id="line66" />
  <rect
     x="72.431999"
     y="1.3094002"
     width="0.13"
     height="5.2385998"
     ry="0.039999999"
     fill="currentColor"
     id="rect68" />
  <text
     font-family="'Roboto Light'"
     font-size="2.2001px"
     text-anchor="start"
     fill="currentColor"
     id="text72"
     x="72.529503"
     y="18.002701"><tspan
       id="tspan70">7</tspan></text>
  <text
     font-family="'Roboto Light'"
     font-size="2.2001px"
     text-anchor="start"
     fill="currentColor"
     id="text76"
     x="71.880699"
     y="15.2027"><tspan
       id="tspan74">F6</tspan></text>
  <path
     d="m 73.692,0.788 c 0,-0.096 -0.084,-0.164 -0.168,-0.164 -0.016,0 -0.032,0 -0.048,0.004 -0.124,0.036 -0.308,0.16 -0.456,0.256 -0.148,0.096 -0.336,0.212 -0.416,0.312 -0.028,0.032 -0.044,0.072 -0.044,0.112 0,0.096 0.084,0.164 0.168,0.164 0.016,0 0.032,0 0.048,-0.004 C 72.9,1.432 73.088,1.308 73.236,1.212 73.384,1.116 73.572,1 73.652,0.9 73.68,0.868 73.692,0.828 73.692,0.788 Z M 73.488,0.5 c 0.188,0 0.332,0.084 0.332,0.288 0,0.076 -0.016,0.148 -0.04,0.224 C 73.732,1.164 73.652,1.308 73.52,1.396 73.304,1.54 73.068,1.6 72.768,1.6 72.58,1.6 72.432,1.512 72.432,1.308 72.432,1.232 72.452,1.16 72.476,1.084 72.524,0.932 72.6,0.788 72.732,0.7 72.948,0.556 73.188,0.5 73.488,0.5 Z"
     fill="currentColor"
     id="path78"
     style="stroke-width:0.004" />
  <rect
     x="62.092701"
     y="2.8094001"
     width="0.13"
     height="3.7386"
     ry="0.039999999"
     fill="currentColor"
     id="rect80" />
  <text
     font-family="'Roboto Light'"
     font-size="2.2001px"
     text-anchor="start"
     fill="currentColor"
     id="text84"
     x="62.1731"
     y="18.002701"><tspan
       id="tspan82">6</tspan></text>
  <text
     font-family="'Roboto Light'"
     font-size="2.2001px"
     text-anchor="start"
     fill="currentColor"
     id="text88"
     x="61.4561"
     y="15.2027"><tspan
       id="tspan86">C6</tspan></text>
  <text
     font-family="'Roboto Light'"
     font-size="2.2001px"
     text-anchor="start"
     fill="currentColor"
     id="text92"
     x="53.5658"
     y="18.002701"><tspan
       id="tspan90">5</tspan></text>
  <path
     d="m 63.3527,2.288 c 0,-0.096 -0.084,-0.164 -0.168,-0.164 -0.016,0 -0.032,0 -0.048,0.004 -0.124,0.036 -0.308,0.16 -0.456,0.256 -0.148,0.096 -0.336,0.212 -0.416,0.312 -0.028,0.032 -0.044,0.072 -0.044,0.112 0,0.096 0.084,0.164 0.168,0.164 0.016,0 0.032,0 0.048,-0.004 0.124,-0.036 0.312,-0.16 0.46,-0.256 0.148,-0.096 0.336,-0.212 0.416,-0.312 0.028,-0.032 0.04,-0.072 0.04,-0.112 z M 63.1487,2 c 0.188,0 0.332,0.084 0.332,0.288 0,0.076 -0.016,0.148 -0.04,0.224 -0.048,0.152 -0.128,0.296 -0.26,0.384 -0.216,0.144 -0.452,0.204 -0.752,0.204 -0.188,0 -0.336,-0.088 -0.336,-0.292 0,-0.076 0.02,-0.148 0.044,-0.224 0.048,-0.152 0.124,-0.296 0.256,-0.384 0.216,-0.144 0.456,-0.2 0.756,-0.2 z"
     fill="currentColor"
     id="path94"
     style="stroke-width:0.004" />
  <rect
     x="53.485401"
     y="3.3094001"
     width="0.13"
     height="3.2386"
     ry="0.039999999"
     fill="currentColor"
     id="rect96" />
  <path
     d="m 82.2992,0.288 c 0,-0.096 -0.084,-0.164 -0.168,-0.164 -0.016,0 -0.032,0 -0.048,0.004 -0.124,0.036 -0.308,0.16 -0.456,0.256 -0.148,0.096 -0.336,0.212 -0.416,0.312 -0.028,0.032 -0.044,0.072 -0.044,0.112 0,0.096 0.084,0.164 0.168,0.164 0.016,0 0.032,0 0.048,-0.004 0.124,-0.036 0.312,-0.16 0.46,-0.256 0.148,-0.096 0.336,-0.212 0.416,-0.312 0.028,-0.032 0.04,-0.072 0.04,-0.112 z M 82.0952,0 c 0.188,0 0.332,0.084 0.332,0.288 0,0.076 -0.016,0.148 -0.04,0.224 -0.048,0.152 -0.128,0.296 -0.26,0.384 -0.216,0.144 -0.452,0.204 -0.752,0.204 -0.188,0 -0.336,-0.088 -0.336,-0.292 0,-0.076 0.02,-0.148 0.044,-0.224 0.048,-0.152 0.124,-0.296 0.256,-0.384 0.216,-0.144 0.456,-0.2 0.756,-0.2 z"
     fill="currentColor"
     id="path98"
     style="stroke-width:0.004" />
  <text
     font-family="'Roboto Light'"
     font-size="2.2001px"
     text-anchor="start"
     fill="currentColor"
     id="text102"
     x="80.3685"
     y="15.2027"><tspan
       id="tspan100">G6</tspan></text>
  <text
     font-family="'Roboto Light'"
     font-size="2.2001px"
     text-anchor="start"
     fill="currentColor"
     id="text106"
     x="81.136703"
     y="18.002701"><tspan
       id="tspan104">8</tspan></text>
  <rect
     x="81.0392"
     y="0.8094002"
     width="0.13"
     height="5.7385998"
     ry="0.039999999"
     fill="currentColor"
     id="rect108" />
  <rect
     x="24.5124"
     y="6.5479999"
     width="0.13"
     height="5.2385998"
     ry="0.039999999"
     fill="currentColor"
     id="rect110" />
  <text
     font-family="'Roboto Light'"
     font-size="2.2001px"
     text-anchor="start"
     fill="currentColor"
     id="text114"
     x="23.3328"
     y="18.002701"><tspan
       id="tspan112">2</tspan></text>
  <text
     font-family="'Roboto Light'"
     font-size="2.2001px"
     text-anchor="start"
     fill="currentColor"
     id="text118"
     x="22.7012"
     y="15.2027"><tspan
       id="tspan116">E3</tspan></text>
  <path
     d="m 24.5124,11.788 c 0,-0.096 -0.084,-0.164 -0.168,-0.164 -0.016,0 -0.032,0 -0.048,0.004 -0.124,0.036 -0.308,0.16 -0.456,0.256 -0.148,0.096 -0.336,0.212 -0.416,0.312 -0.028,0.032 -0.044,0.072 -0.044,0.112 0,0.096 0.084,0.164 0.168,0.164 0.016,0 0.032,0 0.048,-0.004 0.124,-0.036 0.312,-0.16 0.46,-0.256 0.148,-0.096 0.336,-0.212 0.416,-0.312 0.028,-0.032 0.04,-0.072 0.04,-0.112 z M 24.3084,11.5 c 0.188,0 0.332,0.084 0.332,0.288 0,0.076 -0.016,0.148 -0.04,0.224 -0.048,0.152 -0.128,0.296 -0.26,0.384 -0.216,0.144 -0.452,0.204 -0.752,0.204 -0.188,0 -0.336,-0.088 -0.336,-0.292 0,-0.076 0.02,-0.148 0.044,-0.224 0.048,-0.152 0.124,-0.296 0.256,-0.384 0.216,-0.144 0.456,-0.2 0.756,-0.2 z"
     fill="currentColor"
     id="path120"
     style="stroke-width:0.004" />
  <path
     d="m 15.9052,12.288 c 0,-0.096 -0.084,-0.164 -0.168,-0.164 -0.016,0 -0.032,0 -0.048,0.004 -0.124,0.036 -0.308,0.16 -0.456,0.256 -0.148,0.096 -0.336,0.212 -0.416,0.312 -0.028,0.032 -0.044,0.072 -0.044,0.112 0,0.096 0.084,0.164 0.168,0.164 0.016,0 0.032,0 0.048,-0.004 0.124,-0.036 0.312,-0.16 0.46,-0.256 0.148,-0.096 0.336,-0.212 0.416,-0.312 0.028,-0.032 0.04,-0.072 0.04,-0.112 z M 15.7012,12 c 0.188,0 0.332,0.084 0.332,0.288 0,0.076 -0.016,0.148 -0.04,0.224 -0.048,0.152 -0.128,0.296 -0.26,0.384 -0.216,0.144 -0.452,0.204 -0.752,0.204 -0.188,0 -0.336,-0.088 -0.336,-0.292 0,-0.076 0.02,-0.148 0.044,-0.224 0.048,-0.152 0.124,-0.296 0.256,-0.384 0.216,-0.144 0.456,-0.2 0.756,-0.2 z"
     fill="currentColor"
     id="path122"
     style="stroke-width:0.004" />
  <path
     d="M 2.304,6.5 C 2.32,6.5 2.34,6.496 2.356,6.496 2.976,6.496 3.38,7.008 3.38,7.54 3.38,7.844 3.248,8.156 2.952,8.38 2.864,8.448 2.764,8.492 2.66,8.524 2.672,8.664 2.68,8.804 2.68,8.944 2.68,9.02 2.676,9.1 2.672,9.176 2.644,9.656 2.312,10.088 1.84,10.088 1.408,10.088 1.06,9.736 1.06,9.3 c 0,-0.232 0.212,-0.412 0.448,-0.412 0.216,0 0.38,0.188 0.38,0.412 0,0.208 -0.172,0.38 -0.38,0.38 -0.044,0 -0.084,-0.008 -0.124,-0.024 0.104,0.156 0.272,0.26 0.468,0.26 0.384,0 0.628,-0.368 0.652,-0.764 C 2.508,9.08 2.512,9.004 2.512,8.932 2.512,8.808 2.508,8.688 2.496,8.564 2.38,8.584 2.264,8.596 2.14,8.596 1.388,8.596 0.808,7.908 0.808,7.1 0.808,6.392 1.332,5.876 1.8,5.336 1.724,5.088 1.652,4.836 1.62,4.576 1.596,4.368 1.592,4.16 1.592,3.952 1.592,3.492 1.812,3.056 2.188,2.784 2.2,2.776 2.216,2.772 2.228,2.772 c 0.016,0 0.028,0 0.04,0.012 C 2.552,3.12 2.8,3.764 2.8,4.216 2.8,4.788 2.456,5.236 2.08,5.672 2.164,5.944 2.236,6.224 2.304,6.5 Z m 0.34,1.86 C 2.916,8.264 3.096,7.98 3.096,7.704 3.096,7.344 2.832,6.988 2.404,6.944 2.5,7.408 2.588,7.868 2.644,8.36 Z M 1.096,7.436 c 0,0.54 0.516,0.988 1.056,0.988 C 2.264,8.424 2.372,8.416 2.48,8.4 2.424,7.892 2.332,7.42 2.228,6.944 1.912,6.976 1.732,7.188 1.732,7.42 c 0,0.176 0.1,0.364 0.324,0.492 0.02,0.02 0.028,0.04 0.028,0.06 0,0.044 -0.04,0.088 -0.088,0.088 C 1.984,8.06 1.972,8.056 1.96,8.052 1.64,7.88 1.492,7.592 1.492,7.312 1.492,6.96 1.724,6.616 2.132,6.524 2.076,6.292 2.016,6.056 1.948,5.824 1.52,6.308 1.096,6.796 1.096,7.436 Z M 2.432,3.368 C 2.036,3.56 1.784,3.964 1.784,4.404 1.784,4.7 1.856,4.936 1.928,5.18 2.248,4.792 2.512,4.388 2.512,3.884 2.512,3.664 2.496,3.568 2.432,3.368 Z"
     fill="currentColor"
     id="path124"
     style="stroke-width:0.004" />
  <path
     d="m 6.436,6.44 c -0.196,0 -0.3,-0.168 -0.3,-0.3 0,-0.152 0.108,-0.308 0.288,-0.308 0.016,0 0.036,0 0.056,0.004 C 6.368,5.688 6.192,5.6 6,5.6 5.576,5.6 5.548,5.892 5.548,6.344 V 6.548 6.752 C 5.548,7.204 5.576,7.5 6,7.5 6.32,7.5 6.556,7.22 6.632,6.896 6.64,6.868 6.66,6.856 6.68,6.856 6.704,6.856 6.732,6.872 6.732,6.904 6.732,7.28 6.312,7.6 6,7.6 5.728,7.6 5.452,7.516 5.264,7.32 5.068,7.116 5,6.832 5,6.548 5,6.264 5.068,5.98 5.264,5.776 5.452,5.58 5.728,5.5 6,5.5 c 0.348,0 0.64,0.256 0.7,0.6 0.004,0.02 0.004,0.036 0.004,0.052 0,0.16 -0.12,0.288 -0.268,0.288 z"
     fill="currentColor"
     id="path126"
     style="stroke-width:0.004" />
  <text
     font-family="'Roboto Light'"
     font-size="2.2001px"
     text-anchor="start"
     fill="currentColor"
     id="text130"
     x="14.0086"
     y="15.2027"><tspan
       id="tspan128">D3</tspan></text>
  <text
     font-family="'Roboto Slab Light'"
     font-size="2.2001px"
     text-anchor="start"
     fill="currentColor"
     id="text134"
     x="6.6237998"
     y="15.2027"><tspan
       id="tspan132">Notas:</tspan></text>
  <text
     font-family="'Roboto Light'"
     font-size="2.2001px"
     text-anchor="start"
     fill="currentColor"
     id="text138"
     x="14.7256"
     y="18.002701"><tspan
       id="tspan136">1</tspan></text>
  <text
     font-family="'Roboto Slab Light'"
     font-size="2.2001px"
     text-anchor="start"
     fill="currentColor"
     id="text142"
     y="18.002701"><tspan
       id="tspan140">Exemplo n.ยบ:</tspan></text>
  <rect
     x="15.9052"
     y="6.5479999"
     width="0.13"
     height="5.7385998"
     ry="0.039999999"
     fill="currentColor"
     id="rect144" />
  <rect
     x="43.630402"
     y="6.5479999"
     width="0.13"
     height="3.2386"
     ry="0.039999999"
     fill="currentColor"
     id="rect146" />
  <text
     font-family="'Roboto Light'"
     font-size="2.2001px"
     text-anchor="start"
     fill="currentColor"
     id="text150"
     x="42.467899"
     y="18.002701"><tspan
       id="tspan148">4</tspan></text>
  <text
     font-family="'Roboto Light'"
     font-size="2.2001px"
     text-anchor="start"
     fill="currentColor"
     id="text154"
     x="41.767899"
     y="15.2027"><tspan
       id="tspan152">B3</tspan></text>
  <path
     d="m 43.6304,9.788 c 0,-0.096 -0.084,-0.164 -0.168,-0.164 -0.016,0 -0.032,0 -0.048,0.004 -0.124,0.036 -0.308,0.16 -0.456,0.256 -0.148,0.096 -0.336,0.212 -0.416,0.312 -0.028,0.032 -0.044,0.072 -0.044,0.112 0,0.096 0.084,0.164 0.168,0.164 0.016,0 0.032,0 0.048,-0.004 0.124,-0.036 0.312,-0.16 0.46,-0.256 0.148,-0.096 0.336,-0.212 0.416,-0.312 0.028,-0.032 0.04,-0.072 0.04,-0.112 z M 43.4264,9.5 c 0.188,0 0.332,0.084 0.332,0.288 0,0.076 -0.016,0.148 -0.04,0.224 -0.048,0.152 -0.128,0.296 -0.26,0.384 -0.216,0.144 -0.452,0.204 -0.752,0.204 -0.188,0 -0.336,-0.088 -0.336,-0.292 0,-0.076 0.02,-0.148 0.044,-0.224 0.048,-0.152 0.124,-0.296 0.256,-0.384 0.216,-0.144 0.456,-0.2 0.756,-0.2 z"
     fill="currentColor"
     id="path156"
     style="stroke-width:0.004" />
  <rect
     x="35.023201"
     y="6.5479999"
     width="0.13"
     height="3.7386"
     ry="0.039999999"
     fill="currentColor"
     id="rect158" />
  <text
     font-family="'Roboto Light'"
     font-size="2.2001px"
     text-anchor="start"
     fill="currentColor"
     id="text162"
     x="33.843601"
     y="18.002701"><tspan
       id="tspan160">3</tspan></text>
  <text
     font-family="'Roboto Light'"
     font-size="2.2001px"
     text-anchor="start"
     fill="currentColor"
     id="text166"
     x="33.160702"
     y="15.2027"><tspan
       id="tspan164">A3</tspan></text>
  <path
     d="m 35.0232,10.288 c 0,-0.096 -0.084,-0.164 -0.168,-0.164 -0.016,0 -0.032,0 -0.048,0.004 -0.124,0.036 -0.308,0.16 -0.456,0.256 -0.148,0.096 -0.336,0.212 -0.416,0.312 -0.028,0.032 -0.044,0.072 -0.044,0.112 0,0.096 0.084,0.164 0.168,0.164 0.016,0 0.032,0 0.048,-0.004 0.124,-0.036 0.312,-0.16 0.46,-0.256 0.148,-0.096 0.336,-0.212 0.416,-0.312 0.028,-0.032 0.04,-0.072 0.04,-0.112 z M 34.8192,10 c 0.188,0 0.332,0.084 0.332,0.288 0,0.076 -0.016,0.148 -0.04,0.224 -0.048,0.152 -0.128,0.296 -0.26,0.384 -0.216,0.144 -0.452,0.204 -0.752,0.204 -0.188,0 -0.336,-0.088 -0.336,-0.292 0,-0.076 0.02,-0.148 0.044,-0.224 0.048,-0.152 0.124,-0.296 0.256,-0.384 0.216,-0.144 0.456,-0.2 0.756,-0.2 z"
     fill="currentColor"
     id="path168"
     style="stroke-width:0.004" />
  <path
     d="m 54.7454,2.788 c 0,-0.096 -0.084,-0.164 -0.168,-0.164 -0.016,0 -0.032,0 -0.048,0.004 -0.124,0.036 -0.308,0.16 -0.456,0.256 -0.148,0.096 -0.336,0.212 -0.416,0.312 -0.028,0.032 -0.044,0.072 -0.044,0.112 0,0.096 0.084,0.164 0.168,0.164 0.016,0 0.032,0 0.048,-0.004 0.124,-0.036 0.312,-0.16 0.46,-0.256 0.148,-0.096 0.336,-0.212 0.416,-0.312 0.028,-0.032 0.04,-0.072 0.04,-0.112 z M 54.5414,2.5 c 0.188,0 0.332,0.084 0.332,0.288 0,0.076 -0.016,0.148 -0.04,0.224 -0.048,0.152 -0.128,0.296 -0.26,0.384 -0.216,0.144 -0.452,0.204 -0.752,0.204 -0.188,0 -0.336,-0.088 -0.336,-0.292 0,-0.076 0.02,-0.148 0.044,-0.224 0.048,-0.152 0.124,-0.296 0.256,-0.384 0.216,-0.144 0.456,-0.2 0.756,-0.2 z"
     fill="currentColor"
     id="path170"
     style="stroke-width:0.004" />
  <text
     font-family="'Roboto Light'"
     font-size="2.2001px"
     text-anchor="start"
     fill="currentColor"
     id="text174"
     x="52.882999"
     y="15.2027"><tspan
       id="tspan172">B5</tspan></text>
</svg>
