<?xml version="1.0" encoding="UTF-8" standalone="no"?>
<svg
   version="1.2"
   width="176.67502mm"
   height="57.22345mm"
   viewBox="0 0 100.53784 32.563303"
   id="svg404"
   xmlns="http://www.w3.org/2000/svg"
   xmlns:svg="http://www.w3.org/2000/svg">
  <defs
     id="defs408" />
  <!-- Page: 1/1 -->
  <text
     font-family="'Century Schoolbook L'"
     font-size="2.2001px"
     text-anchor="start"
     fill="currentColor"
     id="text4"
     x="9.9442415"
     y="-1"><tspan
       id="tspan2" /></text>
  <rect
     x="100.34784"
     y="20.379999"
     width="0.19"
     height="2.0999999"
     ry="0.0000"
     fill="currentColor"
     id="rect6" />
  <rect
     x="99.857841"
     y="20.379999"
     width="0.19"
     height="2.0999999"
     ry="0.0000"
     fill="currentColor"
     id="rect8" />
  <rect
     x="80.78894"
     y="11.38"
     width="0.19"
     height="2.0999999"
     ry="0.0000"
     fill="currentColor"
     id="rect10" />
  <rect
     x="51.340042"
     y="20.379999"
     width="0.19"
     height="2.0999999"
     ry="0.0000"
     fill="currentColor"
     id="rect12" />
  <rect
     x="51.340042"
     y="11.38"
     width="0.19"
     height="2.0999999"
     ry="0.0000"
     fill="currentColor"
     id="rect14" />
  <rect
     x="100.34784"
     y="11.38"
     width="0.19"
     height="2.0999999"
     ry="0.0000"
     fill="currentColor"
     id="rect16" />
  <rect
     x="99.857841"
     y="11.38"
     width="0.19"
     height="2.0999999"
     ry="0.0000"
     fill="currentColor"
     id="rect18" />
  <rect
     x="80.78894"
     y="2.3800001"
     width="0.19"
     height="2.0999999"
     ry="0.0000"
     fill="currentColor"
     id="rect20" />
  <rect
     x="100.34784"
     y="2.3800001"
     width="0.19"
     height="2.0999999"
     ry="0.0000"
     fill="currentColor"
     id="rect22" />
  <rect
     x="99.857841"
     y="2.3800001"
     width="0.19"
     height="2.0999999"
     ry="0.0000"
     fill="currentColor"
     id="rect24" />
  <rect
     x="80.78894"
     y="20.379999"
     width="0.19"
     height="2.0999999"
     ry="0.0000"
     fill="currentColor"
     id="rect26" />
  <line
     stroke-linejoin="round"
     stroke-linecap="round"
     stroke-width="0.1"
     stroke="currentColor"
     x1="9.9942417"
     y1="21.43"
     x2="100.48785"
     y2="21.43"
     id="line28" />
  <line
     stroke-linejoin="round"
     stroke-linecap="round"
     stroke-width="0.1"
     stroke="currentColor"
     x1="9.9942417"
     y1="12.43"
     x2="100.48785"
     y2="12.43"
     id="line30" />
  <rect
     x="51.340042"
     y="2.3800001"
     width="0.19"
     height="2.0999999"
     ry="0.0000"
     fill="currentColor"
     id="rect32" />
  <line
     stroke-linejoin="round"
     stroke-linecap="round"
     stroke-width="0.1"
     stroke="currentColor"
     x1="9.9942417"
     y1="3.4300001"
     x2="100.48785"
     y2="3.4300001"
     id="line34" />
  <rect
     x="77.194939"
     y="0.23999994"
     width="0.13"
     height="3.0021999"
     ry="0.039999999"
     fill="currentColor"
     id="rect36" />
  <path
     d="m 76.888741,20.878 c 0.224,0 0.436,0.116 0.436,0.364 0,0.288 -0.224,0.484 -0.412,0.596 -0.144,0.084 -0.304,0.144 -0.468,0.144 -0.224,0 -0.436,-0.116 -0.436,-0.364 0,-0.288 0.224,-0.484 0.412,-0.596 0.144,-0.084 0.304,-0.144 0.468,-0.144 z"
     fill="currentColor"
     id="path38"
     style="stroke-width:0.004" />
  <path
     d="m 76.888741,2.878 c 0.224,0 0.436,0.116 0.436,0.364 0,0.288 -0.224,0.484 -0.412,0.596 -0.144,0.084 -0.304,0.144 -0.468,0.144 -0.224,0 -0.436,-0.116 -0.436,-0.364 0,-0.288 0.224,-0.484 0.412,-0.596 0.144,-0.084 0.304,-0.144 0.468,-0.144 z"
     fill="currentColor"
     id="path40"
     style="stroke-width:0.004" />
  <rect
     x="74.835541"
     y="0.23999994"
     width="0.13"
     height="3.0021999"
     ry="0.039999999"
     fill="currentColor"
     id="rect42" />
  <path
     d="m 74.529341,2.878 c 0.224,0 0.436,0.116 0.436,0.364 0,0.288 -0.224,0.484 -0.412,0.596 -0.144,0.084 -0.304,0.144 -0.468,0.144 -0.224,0 -0.436,-0.116 -0.436,-0.364 0,-0.288 0.224,-0.484 0.412,-0.596 0.144,-0.084 0.304,-0.144 0.468,-0.144 z"
     fill="currentColor"
     id="path44"
     style="stroke-width:0.004" />
  <rect
     x="72.476242"
     y="18.43"
     width="0.13"
     height="2.8122001"
     ry="0.039999999"
     fill="currentColor"
     id="rect46" />
  <text
     font-family="'Roboto Light'"
     font-size="2.2001px"
     text-anchor="start"
     fill="currentColor"
     id="text50"
     x="85.138245"
     y="32.529999"><tspan
       id="tspan48">—</tspan></text>
  <text
     font-family="'Roboto Light'"
     font-size="2.2001px"
     text-anchor="start"
     fill="currentColor"
     id="text54"
     x="83.431038"
     y="29.73"><tspan
       id="tspan52">Forte</tspan></text>
  <text
     font-family="'Roboto Light'"
     font-size="2.2001px"
     text-anchor="start"
     fill="currentColor"
     id="text58"
     x="85.377243"
     y="26.93"><tspan
       id="tspan56">1</tspan></text>
  <path
     d="m 82.544941,22.2165 c 0.088,-0.056 0.176,-0.116 0.24,-0.2 0.044,-0.06 0.076,-0.132 0.108,-0.2 0.008,-0.016 0.02,-0.024 0.036,-0.024 0.024,0 0.052,0.02 0.052,0.056 v 0.98 h 0.288 c 0.04,0 0.06,0.028 0.06,0.056 0,0.028 -0.02,0.06 -0.06,0.06 h -0.288 v 0.032 c 0,0.192 0.108,0.376 0.288,0.376 0.032,0 0.048,0.02 0.048,0.044 0,0.024 -0.016,0.048 -0.048,0.048 -0.176,0 -0.348,-0.052 -0.524,-0.052 -0.176,0 -0.348,0.052 -0.524,0.052 -0.032,0 -0.048,-0.024 -0.048,-0.048 0,-0.024 0.016,-0.044 0.048,-0.044 0.18,0 0.292,-0.184 0.292,-0.376 v -0.032 h -0.668 c -0.092,0 -0.124,-0.056 -0.124,-0.092 0,-0.012 0.004,-0.02 0.008,-0.024 0.32,-0.372 0.552,-0.828 0.552,-1.32 0,-0.036 0.024,-0.064 0.052,-0.064 h 0.012 c 0.092,0.028 0.188,0.052 0.284,0.052 0.096,0 0.192,-0.024 0.284,-0.052 0.008,-0.004 0.012,-0.004 0.02,-0.004 0.044,0 0.072,0.04 0.048,0.068 l -1.136,1.32 h 0.668 v -0.524 c 0,-0.032 0.004,-0.068 0.032,-0.088 z"
     fill="currentColor"
     id="path60"
     style="stroke-width:0.004" />
  <path
     d="m 81.889241,21.386 c -0.004,0.028 -0.024,0.044 -0.044,0.044 -0.024,0 -0.048,-0.016 -0.048,-0.044 0,-0.7 0.94,-0.66 0.94,-1.376 0,-0.24 -0.072,-0.488 -0.28,-0.488 -0.104,0 -0.204,0.056 -0.204,0.148 0,0.108 0.14,0.164 0.14,0.272 0,0.152 -0.12,0.276 -0.272,0.276 -0.152,0 -0.276,-0.124 -0.276,-0.276 0,-0.304 0.288,-0.512 0.612,-0.512 0.384,0 0.748,0.224 0.748,0.58 0,0.612 -0.604,0.636 -0.996,0.88 0.036,-0.008 0.068,-0.012 0.104,-0.012 0.132,0 0.28,0.044 0.42,0.144 0.084,0.06 0.184,0.092 0.264,0.092 0.084,0 0.156,-0.036 0.176,-0.116 0.008,-0.024 0.024,-0.036 0.044,-0.036 0.024,0 0.048,0.02 0.048,0.048 0,0.268 -0.36,0.42 -0.552,0.42 -0.144,0 -0.284,-0.056 -0.384,-0.176 -0.052,-0.064 -0.124,-0.088 -0.192,-0.088 -0.12,0 -0.236,0.08 -0.248,0.22 z"
     fill="currentColor"
     id="path62"
     style="stroke-width:0.004" />
  <path
     d="m 86.213741,20.878 c 0.224,0 0.436,0.116 0.436,0.364 0,0.288 -0.224,0.484 -0.412,0.596 -0.144,0.084 -0.304,0.144 -0.468,0.144 -0.224,0 -0.436,-0.116 -0.436,-0.364 0,-0.288 0.224,-0.484 0.412,-0.596 0.144,-0.084 0.304,-0.144 0.468,-0.144 z"
     fill="currentColor"
     id="path64"
     style="stroke-width:0.004" />
  <path
     d="m 82.544941,13.2165 c 0.088,-0.056 0.176,-0.116 0.24,-0.2 0.044,-0.06 0.076,-0.132 0.108,-0.2 0.008,-0.016 0.02,-0.024 0.036,-0.024 0.024,0 0.052,0.02 0.052,0.056 v 0.98 h 0.288 c 0.04,0 0.06,0.028 0.06,0.056 0,0.028 -0.02,0.06 -0.06,0.06 h -0.288 v 0.032 c 0,0.192 0.108,0.376 0.288,0.376 0.032,0 0.048,0.02 0.048,0.044 0,0.024 -0.016,0.048 -0.048,0.048 -0.176,0 -0.348,-0.052 -0.524,-0.052 -0.176,0 -0.348,0.052 -0.524,0.052 -0.032,0 -0.048,-0.024 -0.048,-0.048 0,-0.024 0.016,-0.044 0.048,-0.044 0.18,0 0.292,-0.184 0.292,-0.376 v -0.032 h -0.668 c -0.092,0 -0.124,-0.056 -0.124,-0.092 0,-0.012 0.004,-0.02 0.008,-0.024 0.32,-0.372 0.552,-0.828 0.552,-1.32 0,-0.036 0.024,-0.064 0.052,-0.064 h 0.012 c 0.092,0.028 0.188,0.052 0.284,0.052 0.096,0 0.192,-0.024 0.284,-0.052 0.008,-0.004 0.012,-0.004 0.02,-0.004 0.044,0 0.072,0.04 0.048,0.068 l -1.136,1.32 h 0.668 v -0.524 c 0,-0.032 0.004,-0.068 0.032,-0.088 z"
     fill="currentColor"
     id="path66"
     style="stroke-width:0.004" />
  <path
     d="m 81.889241,12.386 c -0.004,0.028 -0.024,0.044 -0.044,0.044 -0.024,0 -0.048,-0.016 -0.048,-0.044 0,-0.7 0.94,-0.66 0.94,-1.376 0,-0.24 -0.072,-0.488 -0.28,-0.488 -0.104,0 -0.204,0.056 -0.204,0.148 0,0.108 0.14,0.164 0.14,0.272 0,0.152 -0.12,0.276 -0.272,0.276 -0.152,0 -0.276,-0.124 -0.276,-0.276 0,-0.304 0.288,-0.512 0.612,-0.512 0.384,0 0.748,0.224 0.748,0.58 0,0.612 -0.604,0.636 -0.996,0.88 0.036,-0.008 0.068,-0.012 0.104,-0.012 0.132,0 0.28,0.044 0.42,0.144 0.084,0.06 0.184,0.092 0.264,0.092 0.084,0 0.156,-0.036 0.176,-0.116 0.008,-0.024 0.024,-0.036 0.044,-0.036 0.024,0 0.048,0.02 0.048,0.048 0,0.268 -0.36,0.42 -0.552,0.42 -0.144,0 -0.284,-0.056 -0.384,-0.176 -0.052,-0.064 -0.124,-0.088 -0.192,-0.088 -0.12,0 -0.236,0.08 -0.248,0.22 z"
     fill="currentColor"
     id="path68"
     style="stroke-width:0.004" />
  <path
     d="m 86.213741,11.878 c 0.224,0 0.436,0.116 0.436,0.364 0,0.288 -0.224,0.484 -0.412,0.596 -0.144,0.084 -0.304,0.144 -0.468,0.144 -0.224,0 -0.436,-0.116 -0.436,-0.364 0,-0.288 0.224,-0.484 0.412,-0.596 0.144,-0.084 0.304,-0.144 0.468,-0.144 z"
     fill="currentColor"
     id="path70"
     style="stroke-width:0.004" />
  <path
     d="m 82.544941,4.2165 c 0.088,-0.056 0.176,-0.116 0.24,-0.2 0.044,-0.06 0.076,-0.132 0.108,-0.2 0.008,-0.016 0.02,-0.024 0.036,-0.024 0.024,0 0.052,0.02 0.052,0.056 v 0.98 h 0.288 c 0.04,0 0.06,0.028 0.06,0.056 0,0.028 -0.02,0.06 -0.06,0.06 h -0.288 v 0.032 c 0,0.192 0.108,0.376 0.288,0.376 0.032,0 0.048,0.02 0.048,0.044 0,0.024 -0.016,0.048 -0.048,0.048 -0.176,0 -0.348,-0.052 -0.524,-0.052 -0.176,0 -0.348,0.052 -0.524,0.052 -0.032,0 -0.048,-0.024 -0.048,-0.048 0,-0.024 0.016,-0.044 0.048,-0.044 0.18,0 0.292,-0.184 0.292,-0.376 v -0.032 h -0.668 c -0.092,0 -0.124,-0.056 -0.124,-0.092 0,-0.012 0.004,-0.02 0.008,-0.024 0.32,-0.372 0.552,-0.828 0.552,-1.32 0,-0.036 0.024,-0.064 0.052,-0.064 h 0.012 c 0.092,0.028 0.188,0.052 0.284,0.052 0.096,0 0.192,-0.024 0.284,-0.052 0.008,-0.004 0.012,-0.004 0.02,-0.004 0.044,0 0.072,0.04 0.048,0.068 l -1.136,1.32 h 0.668 v -0.524 c 0,-0.032 0.004,-0.068 0.032,-0.088 z"
     fill="currentColor"
     id="path72"
     style="stroke-width:0.004" />
  <path
     d="m 81.889241,3.386 c -0.004,0.028 -0.024,0.044 -0.044,0.044 -0.024,0 -0.048,-0.016 -0.048,-0.044 0,-0.7 0.94,-0.66 0.94,-1.376 0,-0.24 -0.072,-0.488 -0.28,-0.488 -0.104,0 -0.204,0.056 -0.204,0.148 0,0.108 0.14,0.164 0.14,0.272 0,0.152 -0.12,0.276 -0.272,0.276 -0.152,0 -0.276,-0.124 -0.276,-0.276 0,-0.304 0.288,-0.512 0.612,-0.512 0.384,0 0.748,0.224 0.748,0.58 0,0.612 -0.604,0.636 -0.996,0.88 0.036,-0.008 0.068,-0.012 0.104,-0.012 0.132,0 0.28,0.044 0.42,0.144 0.084,0.06 0.184,0.092 0.264,0.092 0.084,0 0.156,-0.036 0.176,-0.116 0.008,-0.024 0.024,-0.036 0.044,-0.036 0.024,0 0.048,0.02 0.048,0.048 0,0.268 -0.36,0.42 -0.552,0.42 -0.144,0 -0.284,-0.056 -0.384,-0.176 -0.052,-0.064 -0.124,-0.088 -0.192,-0.088 -0.12,0 -0.236,0.08 -0.248,0.22 z"
     fill="currentColor"
     id="path74"
     style="stroke-width:0.004" />
  <path
     d="m 86.213741,2.878 c 0.224,0 0.436,0.116 0.436,0.364 0,0.288 -0.224,0.484 -0.412,0.596 -0.144,0.084 -0.304,0.144 -0.468,0.144 -0.224,0 -0.436,-0.116 -0.436,-0.364 0,-0.288 0.224,-0.484 0.412,-0.596 0.144,-0.084 0.304,-0.144 0.468,-0.144 z"
     fill="currentColor"
     id="path76"
     style="stroke-width:0.004" />
  <rect
     x="79.554245"
     y="0.23999994"
     width="0.13"
     height="3.0021999"
     ry="0.039999999"
     fill="currentColor"
     id="rect78" />
  <path
     d="m 79.248041,2.878 c 0.224,0 0.436,0.116 0.436,0.364 0,0.288 -0.224,0.484 -0.412,0.596 -0.144,0.084 -0.304,0.144 -0.468,0.144 -0.224,0 -0.436,-0.116 -0.436,-0.364 0,-0.288 0.224,-0.484 0.412,-0.596 0.144,-0.084 0.304,-0.144 0.468,-0.144 z"
     fill="currentColor"
     id="path80"
     style="stroke-width:0.004" />
  <rect
     x="77.194939"
     y="18.43"
     width="0.13"
     height="2.8122001"
     ry="0.039999999"
     fill="currentColor"
     id="rect82" />
  <path
     d="m 68.259041,20.878 c 0.224,0 0.436,0.116 0.436,0.364 0,0.288 -0.224,0.484 -0.412,0.596 -0.144,0.084 -0.304,0.144 -0.468,0.144 -0.224,0 -0.436,-0.116 -0.436,-0.364 0,-0.288 0.224,-0.484 0.412,-0.596 0.144,-0.084 0.304,-0.144 0.468,-0.144 z"
     fill="currentColor"
     id="path84"
     style="stroke-width:0.004" />
  <path
     d="m 68.259041,2.878 c 0.224,0 0.436,0.116 0.436,0.364 0,0.288 -0.224,0.484 -0.412,0.596 -0.144,0.084 -0.304,0.144 -0.468,0.144 -0.224,0 -0.436,-0.116 -0.436,-0.364 0,-0.288 0.224,-0.484 0.412,-0.596 0.144,-0.084 0.304,-0.144 0.468,-0.144 z"
     fill="currentColor"
     id="path86"
     style="stroke-width:0.004" />
  <rect
     x="64.654144"
     y="18.43"
     width="0.13"
     height="2.8122001"
     ry="0.039999999"
     fill="currentColor"
     id="rect88" />
  <rect
     x="64.654144"
     y="9.0966997"
     width="0.13"
     height="3.1454999"
     ry="0.039999999"
     fill="currentColor"
     id="rect90" />
  <rect
     x="64.654144"
     y="0.43000001"
     width="0.13"
     height="2.8122001"
     ry="0.039999999"
     fill="currentColor"
     id="rect92" />
  <text
     font-family="'Roboto Light'"
     font-size="2.2001px"
     text-anchor="start"
     fill="currentColor"
     id="text96"
     x="63.443142"
     y="32.529999"><tspan
       id="tspan94">∙</tspan></text>
  <text
     font-family="'Roboto Light'"
     font-size="2.2001px"
     text-anchor="start"
     fill="currentColor"
     id="text100"
     x="61.326241"
     y="29.73"><tspan
       id="tspan98">Fraco</tspan></text>
  <text
     font-family="'Roboto Light'"
     font-size="2.2001px"
     text-anchor="start"
     fill="currentColor"
     id="text104"
     x="63.51144"
     y="26.93"><tspan
       id="tspan102">2</tspan></text>
  <path
     d="m 64.347941,20.878 c 0.224,0 0.436,0.116 0.436,0.364 0,0.288 -0.224,0.484 -0.412,0.596 -0.144,0.084 -0.304,0.144 -0.468,0.144 -0.224,0 -0.436,-0.116 -0.436,-0.364 0,-0.288 0.224,-0.484 0.412,-0.596 0.144,-0.084 0.304,-0.144 0.468,-0.144 z"
     fill="currentColor"
     id="path106"
     style="stroke-width:0.004" />
  <path
     d="m 64.347941,11.878 c 0.224,0 0.436,0.116 0.436,0.364 0,0.288 -0.224,0.484 -0.412,0.596 -0.144,0.084 -0.304,0.144 -0.468,0.144 -0.224,0 -0.436,-0.116 -0.436,-0.364 0,-0.288 0.224,-0.484 0.412,-0.596 0.144,-0.084 0.304,-0.144 0.468,-0.144 z"
     fill="currentColor"
     id="path108"
     style="stroke-width:0.004" />
  <path
     d="m 64.347941,2.878 c 0.224,0 0.436,0.116 0.436,0.364 0,0.288 -0.224,0.484 -0.412,0.596 -0.144,0.084 -0.304,0.144 -0.468,0.144 -0.224,0 -0.436,-0.116 -0.436,-0.364 0,-0.288 0.224,-0.484 0.412,-0.596 0.144,-0.084 0.304,-0.144 0.468,-0.144 z"
     fill="currentColor"
     id="path110"
     style="stroke-width:0.004" />
  <rect
     x="72.476242"
     y="9.0966997"
     width="0.13"
     height="3.1454999"
     ry="0.039999999"
     fill="currentColor"
     id="rect112" />
  <rect
     x="72.476242"
     y="0.23999994"
     width="0.13"
     height="3.0021999"
     ry="0.039999999"
     fill="currentColor"
     id="rect114" />
  <text
     font-family="'Roboto Light'"
     font-size="2.2001px"
     text-anchor="start"
     fill="currentColor"
     id="text118"
     x="71.265244"
     y="32.529999"><tspan
       id="tspan116">∙</tspan></text>
  <text
     font-family="'Roboto Light'"
     font-size="2.2001px"
     text-anchor="start"
     fill="currentColor"
     id="text122"
     x="69.148445"
     y="29.73"><tspan
       id="tspan120">Fraco</tspan></text>
  <text
     font-family="'Roboto Light'"
     font-size="2.2001px"
     text-anchor="start"
     fill="currentColor"
     id="text126"
     x="71.333542"
     y="26.93"><tspan
       id="tspan124">3</tspan></text>
  <path
     d="m 72.170041,20.878 c 0.224,0 0.436,0.116 0.436,0.364 0,0.288 -0.224,0.484 -0.412,0.596 -0.144,0.084 -0.304,0.144 -0.468,0.144 -0.224,0 -0.436,-0.116 -0.436,-0.364 0,-0.288 0.224,-0.484 0.412,-0.596 0.144,-0.084 0.304,-0.144 0.468,-0.144 z"
     fill="currentColor"
     id="path128"
     style="stroke-width:0.004" />
  <path
     d="m 72.170041,11.878 c 0.224,0 0.436,0.116 0.436,0.364 0,0.288 -0.224,0.484 -0.412,0.596 -0.144,0.084 -0.304,0.144 -0.468,0.144 -0.224,0 -0.436,-0.116 -0.436,-0.364 0,-0.288 0.224,-0.484 0.412,-0.596 0.144,-0.084 0.304,-0.144 0.468,-0.144 z"
     fill="currentColor"
     id="path130"
     style="stroke-width:0.004" />
  <path
     d="m 72.170041,2.878 c 0.224,0 0.436,0.116 0.436,0.364 0,0.288 -0.224,0.484 -0.412,0.596 -0.144,0.084 -0.304,0.144 -0.468,0.144 -0.224,0 -0.436,-0.116 -0.436,-0.364 0,-0.288 0.224,-0.484 0.412,-0.596 0.144,-0.084 0.304,-0.144 0.468,-0.144 z"
     fill="currentColor"
     id="path132"
     style="stroke-width:0.004" />
  <rect
     x="68.56514"
     y="18.43"
     width="0.13"
     height="2.8122001"
     ry="0.039999999"
     fill="currentColor"
     id="rect134" />
  <rect
     x="68.56514"
     y="0.43000001"
     width="0.13"
     height="2.8122001"
     ry="0.039999999"
     fill="currentColor"
     id="rect136" />
  <polygon
     transform="translate(64.654141,0.43)"
     stroke-linejoin="round"
     stroke-linecap="round"
     stroke-width="0.08"
     fill="currentColor"
     stroke="currentColor"
     points="0.04,0.2 0.04,-0.2 4.0011,-0.2 4.0011,0.2 "
     id="polygon138" />
  <polygon
     transform="translate(64.654141,18.43)"
     stroke-linejoin="round"
     stroke-linecap="round"
     stroke-width="0.08"
     fill="currentColor"
     stroke="currentColor"
     points="0.04,0.2 0.04,-0.2 4.0011,-0.2 4.0011,0.2 "
     id="polygon140" />
  <polygon
     transform="translate(72.476241,0.24)"
     stroke-linejoin="round"
     stroke-linecap="round"
     stroke-width="0.08"
     fill="currentColor"
     stroke="currentColor"
     points="0.04,0.2 0.04,-0.2 7.168,-0.2 7.168,0.2 "
     id="polygon142" />
  <polygon
     transform="translate(72.476241,1.05)"
     stroke-linejoin="round"
     stroke-linecap="round"
     stroke-width="0.08"
     fill="currentColor"
     stroke="currentColor"
     points="0.04,0.2 0.04,-0.2 7.168,-0.2 7.168,0.2 "
     id="polygon144" />
  <polygon
     transform="translate(72.476241,18.43)"
     stroke-linejoin="round"
     stroke-linecap="round"
     stroke-width="0.08"
     fill="currentColor"
     stroke="currentColor"
     points="0.04,0.2 0.04,-0.2 4.8087,-0.2 4.8087,0.2 "
     id="polygon146" />
  <polygon
     transform="translate(86.519841,18.43)"
     stroke-linejoin="round"
     stroke-linecap="round"
     stroke-width="0.08"
     fill="currentColor"
     stroke="currentColor"
     points="0.04,0.2 0.04,-0.2 3.8816,-0.2 3.8816,0.2 "
     id="polygon148" />
  <polygon
     transform="translate(94.103041,18.43)"
     stroke-linejoin="round"
     stroke-linecap="round"
     stroke-width="0.08"
     fill="currentColor"
     stroke="currentColor"
     points="0.04,0.2 0.04,-0.2 3.4925,-0.2 3.4925,0.2 "
     id="polygon150" />
  <rect
     x="97.505539"
     y="18.43"
     width="0.13"
     height="2.8122001"
     ry="0.039999999"
     fill="currentColor"
     id="rect152" />
  <path
     d="m 97.635541,0.095 c 0,0.792 0.836,1.34 0.836,2.132 0,0.284 -0.064,0.564 -0.168,0.828 -0.02,0.032 -0.048,0.048 -0.076,0.048 -0.052,0 -0.104,-0.044 -0.092,-0.108 0.104,-0.244 0.168,-0.504 0.168,-0.768 0,-0.416 -0.38,-0.832 -0.668,-1.132 h -0.064 v -1 z"
     fill="currentColor"
     id="path154"
     style="stroke-width:0.004" />
  <rect
     x="97.505539"
     y="0.055"
     width="0.13"
     height="3.1872001"
     ry="0.039999999"
     fill="currentColor"
     id="rect156" />
  <polygon
     transform="translate(22.910341,18.43)"
     stroke-linejoin="round"
     stroke-linecap="round"
     stroke-width="0.08"
     fill="currentColor"
     stroke="currentColor"
     points="0.04,0.2 0.04,-0.2 3.8816,-0.2 3.8816,0.2 "
     id="polygon158" />
  <polygon
     transform="translate(30.493441,18.43)"
     stroke-linejoin="round"
     stroke-linecap="round"
     stroke-width="0.08"
     fill="currentColor"
     stroke="currentColor"
     points="0.04,0.2 0.04,-0.2 3.8816,-0.2 3.8816,0.2 "
     id="polygon160" />
  <polygon
     transform="translate(38.076541,18.43)"
     stroke-linejoin="round"
     stroke-linecap="round"
     stroke-width="0.08"
     fill="currentColor"
     stroke="currentColor"
     points="0.04,0.2 0.04,-0.2 3.8816,-0.2 3.8816,0.2 "
     id="polygon162" />
  <polygon
     transform="translate(45.659741,0.43)"
     stroke-linejoin="round"
     stroke-linecap="round"
     stroke-width="0.08"
     fill="currentColor"
     stroke="currentColor"
     points="0.04,0.2 0.04,-0.2 3.4925,-0.2 3.4925,0.2 "
     id="polygon164" />
  <polygon
     transform="translate(45.659741,18.43)"
     stroke-linejoin="round"
     stroke-linecap="round"
     stroke-width="0.08"
     fill="currentColor"
     stroke="currentColor"
     points="0.04,0.2 0.04,-0.2 3.4925,-0.2 3.4925,0.2 "
     id="polygon166" />
  <polygon
     transform="translate(57.071041,18.43)"
     stroke-linejoin="round"
     stroke-linecap="round"
     stroke-width="0.08"
     fill="currentColor"
     stroke="currentColor"
     points="0.04,0.2 0.04,-0.2 3.8816,-0.2 3.8816,0.2 "
     id="polygon168" />
  <rect
     x="86.519844"
     y="18.43"
     width="0.13"
     height="2.8122001"
     ry="0.039999999"
     fill="currentColor"
     id="rect170" />
  <rect
     x="86.519844"
     y="9.0966997"
     width="0.13"
     height="3.1454999"
     ry="0.039999999"
     fill="currentColor"
     id="rect172" />
  <rect
     x="86.519844"
     y="0.096699886"
     width="0.13"
     height="3.1454999"
     ry="0.039999999"
     fill="currentColor"
     id="rect174" />
  <path
     d="m 87.099841,2.93 c 0,-0.124 0.1,-0.224 0.224,-0.224 0.124,0 0.224,0.1 0.224,0.224 0,0.124 -0.1,0.224 -0.224,0.224 -0.124,0 -0.224,-0.1 -0.224,-0.224 z"
     fill="currentColor"
     id="path176"
     style="stroke-width:0.004" />
  <path
     d="m 97.199341,20.878 c 0.224,0 0.436,0.116 0.436,0.364 0,0.288 -0.224,0.484 -0.412,0.596 -0.144,0.084 -0.304,0.144 -0.468,0.144 -0.224,0 -0.436,-0.116 -0.436,-0.364 0,-0.288 0.224,-0.484 0.412,-0.596 0.144,-0.084 0.304,-0.144 0.468,-0.144 z"
     fill="currentColor"
     id="path178"
     style="stroke-width:0.004" />
  <path
     d="m 97.199341,2.878 c 0.224,0 0.436,0.116 0.436,0.364 0,0.288 -0.224,0.484 -0.412,0.596 -0.144,0.084 -0.304,0.144 -0.468,0.144 -0.224,0 -0.436,-0.116 -0.436,-0.364 0,-0.288 0.224,-0.484 0.412,-0.596 0.144,-0.084 0.304,-0.144 0.468,-0.144 z"
     fill="currentColor"
     id="path180"
     style="stroke-width:0.004" />
  <rect
     x="94.103043"
     y="18.43"
     width="0.13"
     height="2.8122001"
     ry="0.039999999"
     fill="currentColor"
     id="rect182" />
  <rect
     x="94.103043"
     y="9.0966997"
     width="0.13"
     height="3.1454999"
     ry="0.039999999"
     fill="currentColor"
     id="rect184" />
  <text
     font-family="'Roboto Light'"
     font-size="2.2001px"
     text-anchor="start"
     fill="currentColor"
     id="text188"
     x="92.892044"
     y="32.529999"><tspan
       id="tspan186">∙</tspan></text>
  <text
     font-family="'Roboto Light'"
     font-size="2.2001px"
     text-anchor="start"
     fill="currentColor"
     id="text192"
     x="90.775139"
     y="29.73"><tspan
       id="tspan190">Fraco</tspan></text>
  <text
     font-family="'Roboto Light'"
     font-size="2.2001px"
     text-anchor="start"
     fill="currentColor"
     id="text196"
     x="92.960342"
     y="26.93"><tspan
       id="tspan194">2</tspan></text>
  <path
     d="m 93.796841,20.878 c 0.224,0 0.436,0.116 0.436,0.364 0,0.288 -0.224,0.484 -0.412,0.596 -0.144,0.084 -0.304,0.144 -0.468,0.144 -0.224,0 -0.436,-0.116 -0.436,-0.364 0,-0.288 0.224,-0.484 0.412,-0.596 0.144,-0.084 0.304,-0.144 0.468,-0.144 z"
     fill="currentColor"
     id="path198"
     style="stroke-width:0.004" />
  <path
     d="m 93.796841,11.878 c 0.224,0 0.436,0.116 0.436,0.364 0,0.288 -0.224,0.484 -0.412,0.596 -0.144,0.084 -0.304,0.144 -0.468,0.144 -0.224,0 -0.436,-0.116 -0.436,-0.364 0,-0.288 0.224,-0.484 0.412,-0.596 0.144,-0.084 0.304,-0.144 0.468,-0.144 z"
     fill="currentColor"
     id="path200"
     style="stroke-width:0.004" />
  <rect
     x="90.31144"
     y="18.43"
     width="0.13"
     height="2.8122001"
     ry="0.039999999"
     fill="currentColor"
     id="rect202" />
  <path
     d="m 90.005241,20.878 c 0.224,0 0.436,0.116 0.436,0.364 0,0.288 -0.224,0.484 -0.412,0.596 -0.144,0.084 -0.304,0.144 -0.468,0.144 -0.224,0 -0.436,-0.116 -0.436,-0.364 0,-0.288 0.224,-0.484 0.412,-0.596 0.144,-0.084 0.304,-0.144 0.468,-0.144 z"
     fill="currentColor"
     id="path204"
     style="stroke-width:0.004" />
  <rect
     x="34.285042"
     y="18.43"
     width="0.13"
     height="2.8122001"
     ry="0.039999999"
     fill="currentColor"
     id="rect206" />
  <path
     d="m 33.978841,20.878 c 0.224,0 0.436,0.116 0.436,0.364 0,0.288 -0.224,0.484 -0.412,0.596 -0.144,0.084 -0.304,0.144 -0.468,0.144 -0.224,0 -0.436,-0.116 -0.436,-0.364 0,-0.288 0.224,-0.484 0.412,-0.596 0.144,-0.084 0.304,-0.144 0.468,-0.144 z"
     fill="currentColor"
     id="path208"
     style="stroke-width:0.004" />
  <rect
     x="30.493441"
     y="18.43"
     width="0.13"
     height="2.8122001"
     ry="0.039999999"
     fill="currentColor"
     id="rect210" />
  <rect
     x="30.493441"
     y="9.0966997"
     width="0.13"
     height="3.1454999"
     ry="0.039999999"
     fill="currentColor"
     id="rect212" />
  <text
     font-family="'Roboto Light'"
     font-size="2.2001px"
     text-anchor="start"
     fill="currentColor"
     id="text216"
     x="29.282541"
     y="32.529999"><tspan
       id="tspan214">∙</tspan></text>
  <text
     font-family="'Roboto Light'"
     font-size="2.2001px"
     text-anchor="start"
     fill="currentColor"
     id="text220"
     x="27.165642"
     y="29.73"><tspan
       id="tspan218">Fraco</tspan></text>
  <text
     font-family="'Roboto Light'"
     font-size="2.2001px"
     text-anchor="start"
     fill="currentColor"
     id="text224"
     x="29.350742"
     y="26.93"><tspan
       id="tspan222">2</tspan></text>
  <path
     d="m 30.187241,20.878 c 0.224,0 0.436,0.116 0.436,0.364 0,0.288 -0.224,0.484 -0.412,0.596 -0.144,0.084 -0.304,0.144 -0.468,0.144 -0.224,0 -0.436,-0.116 -0.436,-0.364 0,-0.288 0.224,-0.484 0.412,-0.596 0.144,-0.084 0.304,-0.144 0.468,-0.144 z"
     fill="currentColor"
     id="path226"
     style="stroke-width:0.004" />
  <path
     d="m 30.187241,11.878 c 0.224,0 0.436,0.116 0.436,0.364 0,0.288 -0.224,0.484 -0.412,0.596 -0.144,0.084 -0.304,0.144 -0.468,0.144 -0.224,0 -0.436,-0.116 -0.436,-0.364 0,-0.288 0.224,-0.484 0.412,-0.596 0.144,-0.084 0.304,-0.144 0.468,-0.144 z"
     fill="currentColor"
     id="path228"
     style="stroke-width:0.004" />
  <rect
     x="38.076542"
     y="18.43"
     width="0.13"
     height="2.8122001"
     ry="0.039999999"
     fill="currentColor"
     id="rect230" />
  <rect
     x="38.076542"
     y="9.0966997"
     width="0.13"
     height="3.1454999"
     ry="0.039999999"
     fill="currentColor"
     id="rect232" />
  <rect
     x="38.076542"
     y="0.096699886"
     width="0.13"
     height="3.1454999"
     ry="0.039999999"
     fill="currentColor"
     id="rect234" />
  <text
     font-family="'Roboto Light'"
     font-size="2.2001px"
     text-anchor="start"
     fill="currentColor"
     id="text238"
     x="36.91684"
     y="32.529999"><tspan
       id="tspan236">−</tspan></text>
  <text
     font-family="'Roboto Light'"
     font-size="2.2001px"
     text-anchor="start"
     fill="currentColor"
     id="text242"
     x="34.98774"
     y="29.73"><tspan
       id="tspan240">Forte</tspan></text>
  <text
     font-family="'Roboto Light'"
     font-size="2.2001px"
     text-anchor="start"
     fill="currentColor"
     id="text246"
     x="36.933941"
     y="26.93"><tspan
       id="tspan244">3</tspan></text>
  <path
     d="m 37.770441,20.878 c 0.224,0 0.436,0.116 0.436,0.364 0,0.288 -0.224,0.484 -0.412,0.596 -0.144,0.084 -0.304,0.144 -0.468,0.144 -0.224,0 -0.436,-0.116 -0.436,-0.364 0,-0.288 0.224,-0.484 0.412,-0.596 0.144,-0.084 0.304,-0.144 0.468,-0.144 z"
     fill="currentColor"
     id="path248"
     style="stroke-width:0.004" />
  <path
     d="m 37.770441,11.878 c 0.224,0 0.436,0.116 0.436,0.364 0,0.288 -0.224,0.484 -0.412,0.596 -0.144,0.084 -0.304,0.144 -0.468,0.144 -0.224,0 -0.436,-0.116 -0.436,-0.364 0,-0.288 0.224,-0.484 0.412,-0.596 0.144,-0.084 0.304,-0.144 0.468,-0.144 z"
     fill="currentColor"
     id="path250"
     style="stroke-width:0.004" />
  <path
     d="m 37.770441,2.878 c 0.224,0 0.436,0.116 0.436,0.364 0,0.288 -0.224,0.484 -0.412,0.596 -0.144,0.084 -0.304,0.144 -0.468,0.144 -0.224,0 -0.436,-0.116 -0.436,-0.364 0,-0.288 0.224,-0.484 0.412,-0.596 0.144,-0.084 0.304,-0.144 0.468,-0.144 z"
     fill="currentColor"
     id="path252"
     style="stroke-width:0.004" />
  <text
     font-family="'Roboto Light'"
     font-size="2.2001px"
     text-anchor="start"
     fill="currentColor"
     id="text256"
     x="21.528641"
     y="32.529999"><tspan
       id="tspan254">—</tspan></text>
  <text
     font-family="'Roboto Slab Light'"
     font-size="2.2001px"
     text-anchor="start"
     fill="currentColor"
     id="text260"
     x="11.344141"
     y="29.73"><tspan
       id="tspan258">Ênfase:</tspan></text>
  <text
     font-family="'Roboto Light'"
     font-size="2.2001px"
     text-anchor="start"
     fill="currentColor"
     id="text264"
     x="19.821541"
     y="29.73"><tspan
       id="tspan262">Forte</tspan></text>
  <text
     font-family="'Roboto Slab Light'"
     font-size="2.2001px"
     text-anchor="start"
     fill="currentColor"
     id="text268"
     x="12.744041"
     y="26.93"><tspan
       id="tspan266">Pulso:</tspan></text>
  <text
     font-family="'Roboto Light'"
     font-size="2.2001px"
     text-anchor="start"
     fill="currentColor"
     id="text272"
     x="21.767641"
     y="26.93"><tspan
       id="tspan270">1</tspan></text>
  <path
     d="m 11.760241,22.2165 c 0.088,-0.056 0.176,-0.116 0.24,-0.2 0.044,-0.06 0.076,-0.132 0.108,-0.2 0.008,-0.016 0.02,-0.024 0.036,-0.024 0.024,0 0.052,0.02 0.052,0.056 v 0.98 h 0.288 c 0.04,0 0.06,0.028 0.06,0.056 0,0.028 -0.02,0.06 -0.06,0.06 h -0.288 v 0.032 c 0,0.192 0.108,0.376 0.288,0.376 0.032,0 0.048,0.02 0.048,0.044 0,0.024 -0.016,0.048 -0.048,0.048 -0.176,0 -0.348,-0.052 -0.524,-0.052 -0.176,0 -0.348,0.052 -0.524,0.052 -0.032,0 -0.048,-0.024 -0.048,-0.048 0,-0.024 0.016,-0.044 0.048,-0.044 0.18,0 0.292,-0.184 0.292,-0.376 v -0.032 h -0.668 c -0.092,0 -0.124,-0.056 -0.124,-0.092 0,-0.012 0.004,-0.02 0.008,-0.024 0.32,-0.372 0.552,-0.828 0.552,-1.32 0,-0.036 0.024,-0.064 0.052,-0.064 h 0.012 c 0.092,0.028 0.188,0.052 0.284,0.052 0.096,0 0.192,-0.024 0.284,-0.052 0.008,-0.004 0.012,-0.004 0.02,-0.004 0.044,0 0.072,0.04 0.048,0.068 l -1.136,1.32 h 0.668 v -0.524 c 0,-0.032 0.004,-0.068 0.032,-0.088 z"
     fill="currentColor"
     id="path274"
     style="stroke-width:0.004" />
  <path
     d="m 11.760241,20.202 c 0.088,-0.056 0.176,-0.116 0.24,-0.2 0.044,-0.06 0.076,-0.132 0.108,-0.2 0.008,-0.016 0.02,-0.024 0.036,-0.024 0.024,0 0.052,0.02 0.052,0.056 v 0.98 h 0.288 c 0.04,0 0.06,0.028 0.06,0.056 0,0.028 -0.02,0.06 -0.06,0.06 h -0.288 v 0.032 c 0,0.192 0.108,0.376 0.288,0.376 0.032,0 0.048,0.02 0.048,0.044 0,0.024 -0.016,0.048 -0.048,0.048 -0.176,0 -0.348,-0.052 -0.524,-0.052 -0.176,0 -0.348,0.052 -0.524,0.052 -0.032,0 -0.048,-0.024 -0.048,-0.048 0,-0.024 0.016,-0.044 0.048,-0.044 0.18,0 0.292,-0.184 0.292,-0.376 V 20.93 h -0.668 c -0.092,0 -0.124,-0.056 -0.124,-0.092 0,-0.012 0.004,-0.02 0.008,-0.024 0.32,-0.372 0.552,-0.828 0.552,-1.32 0,-0.036 0.024,-0.064 0.052,-0.064 h 0.012 c 0.092,0.028 0.188,0.052 0.284,0.052 0.096,0 0.192,-0.024 0.284,-0.052 0.008,-0.004 0.012,-0.004 0.02,-0.004 0.044,0 0.072,0.04 0.048,0.068 l -1.136,1.32 h 0.668 V 20.29 c 0,-0.032 0.004,-0.068 0.032,-0.088 z"
     fill="currentColor"
     id="path276"
     style="stroke-width:0.004" />
  <path
     d="m 22.604141,20.878 c 0.224,0 0.436,0.116 0.436,0.364 0,0.288 -0.224,0.484 -0.412,0.596 -0.144,0.084 -0.304,0.144 -0.468,0.144 -0.224,0 -0.436,-0.116 -0.436,-0.364 0,-0.288 0.224,-0.484 0.412,-0.596 0.144,-0.084 0.304,-0.144 0.468,-0.144 z"
     fill="currentColor"
     id="path278"
     style="stroke-width:0.004" />
  <path
     d="m 11.760241,13.2165 c 0.088,-0.056 0.176,-0.116 0.24,-0.2 0.044,-0.06 0.076,-0.132 0.108,-0.2 0.008,-0.016 0.02,-0.024 0.036,-0.024 0.024,0 0.052,0.02 0.052,0.056 v 0.98 h 0.288 c 0.04,0 0.06,0.028 0.06,0.056 0,0.028 -0.02,0.06 -0.06,0.06 h -0.288 v 0.032 c 0,0.192 0.108,0.376 0.288,0.376 0.032,0 0.048,0.02 0.048,0.044 0,0.024 -0.016,0.048 -0.048,0.048 -0.176,0 -0.348,-0.052 -0.524,-0.052 -0.176,0 -0.348,0.052 -0.524,0.052 -0.032,0 -0.048,-0.024 -0.048,-0.048 0,-0.024 0.016,-0.044 0.048,-0.044 0.18,0 0.292,-0.184 0.292,-0.376 v -0.032 h -0.668 c -0.092,0 -0.124,-0.056 -0.124,-0.092 0,-0.012 0.004,-0.02 0.008,-0.024 0.32,-0.372 0.552,-0.828 0.552,-1.32 0,-0.036 0.024,-0.064 0.052,-0.064 h 0.012 c 0.092,0.028 0.188,0.052 0.284,0.052 0.096,0 0.192,-0.024 0.284,-0.052 0.008,-0.004 0.012,-0.004 0.02,-0.004 0.044,0 0.072,0.04 0.048,0.068 l -1.136,1.32 h 0.668 v -0.524 c 0,-0.032 0.004,-0.068 0.032,-0.088 z"
     fill="currentColor"
     id="path280"
     style="stroke-width:0.004" />
  <path
     d="m 11.760241,11.202 c 0.088,-0.056 0.176,-0.116 0.24,-0.2 0.044,-0.06 0.076,-0.132 0.108,-0.2 0.008,-0.016 0.02,-0.024 0.036,-0.024 0.024,0 0.052,0.02 0.052,0.056 v 0.98 h 0.288 c 0.04,0 0.06,0.028 0.06,0.056 0,0.028 -0.02,0.06 -0.06,0.06 h -0.288 v 0.032 c 0,0.192 0.108,0.376 0.288,0.376 0.032,0 0.048,0.02 0.048,0.044 0,0.024 -0.016,0.048 -0.048,0.048 -0.176,0 -0.348,-0.052 -0.524,-0.052 -0.176,0 -0.348,0.052 -0.524,0.052 -0.032,0 -0.048,-0.024 -0.048,-0.048 0,-0.024 0.016,-0.044 0.048,-0.044 0.18,0 0.292,-0.184 0.292,-0.376 V 11.93 h -0.668 c -0.092,0 -0.124,-0.056 -0.124,-0.092 0,-0.012 0.004,-0.02 0.008,-0.024 0.32,-0.372 0.552,-0.828 0.552,-1.32 0,-0.036 0.024,-0.064 0.052,-0.064 h 0.012 c 0.092,0.028 0.188,0.052 0.284,0.052 0.096,0 0.192,-0.024 0.284,-0.052 0.008,-0.004 0.012,-0.004 0.02,-0.004 0.044,0 0.072,0.04 0.048,0.068 l -1.136,1.32 h 0.668 V 11.29 c 0,-0.032 0.004,-0.068 0.032,-0.088 z"
     fill="currentColor"
     id="path282"
     style="stroke-width:0.004" />
  <path
     d="m 22.604141,11.878 c 0.224,0 0.436,0.116 0.436,0.364 0,0.288 -0.224,0.484 -0.412,0.596 -0.144,0.084 -0.304,0.144 -0.468,0.144 -0.224,0 -0.436,-0.116 -0.436,-0.364 0,-0.288 0.224,-0.484 0.412,-0.596 0.144,-0.084 0.304,-0.144 0.468,-0.144 z"
     fill="currentColor"
     id="path284"
     style="stroke-width:0.004" />
  <path
     d="m 11.760241,4.2165 c 0.088,-0.056 0.176,-0.116 0.24,-0.2 0.044,-0.06 0.076,-0.132 0.108,-0.2 0.008,-0.016 0.02,-0.024 0.036,-0.024 0.024,0 0.052,0.02 0.052,0.056 v 0.98 h 0.288 c 0.04,0 0.06,0.028 0.06,0.056 0,0.028 -0.02,0.06 -0.06,0.06 h -0.288 v 0.032 c 0,0.192 0.108,0.376 0.288,0.376 0.032,0 0.048,0.02 0.048,0.044 0,0.024 -0.016,0.048 -0.048,0.048 -0.176,0 -0.348,-0.052 -0.524,-0.052 -0.176,0 -0.348,0.052 -0.524,0.052 -0.032,0 -0.048,-0.024 -0.048,-0.048 0,-0.024 0.016,-0.044 0.048,-0.044 0.18,0 0.292,-0.184 0.292,-0.376 v -0.032 h -0.668 c -0.092,0 -0.124,-0.056 -0.124,-0.092 0,-0.012 0.004,-0.02 0.008,-0.024 0.32,-0.372 0.552,-0.828 0.552,-1.32 0,-0.036 0.024,-0.064 0.052,-0.064 h 0.012 c 0.092,0.028 0.188,0.052 0.284,0.052 0.096,0 0.192,-0.024 0.284,-0.052 0.008,-0.004 0.012,-0.004 0.02,-0.004 0.044,0 0.072,0.04 0.048,0.068 l -1.136,1.32 h 0.668 v -0.524 c 0,-0.032 0.004,-0.068 0.032,-0.088 z"
     fill="currentColor"
     id="path286"
     style="stroke-width:0.004" />
  <path
     d="m 11.760241,2.202 c 0.088,-0.056 0.176,-0.116 0.24,-0.2 0.044,-0.06 0.076,-0.132 0.108,-0.2 0.008,-0.016 0.02,-0.024 0.036,-0.024 0.024,0 0.052,0.02 0.052,0.056 v 0.98 h 0.288 c 0.04,0 0.06,0.028 0.06,0.056 0,0.028 -0.02,0.06 -0.06,0.06 h -0.288 v 0.032 c 0,0.192 0.108,0.376 0.288,0.376 0.032,0 0.048,0.02 0.048,0.044 0,0.024 -0.016,0.048 -0.048,0.048 -0.176,0 -0.348,-0.052 -0.524,-0.052 -0.176,0 -0.348,0.052 -0.524,0.052 -0.032,0 -0.048,-0.024 -0.048,-0.048 0,-0.024 0.016,-0.044 0.048,-0.044 0.18,0 0.292,-0.184 0.292,-0.376 V 2.93 h -0.668 c -0.092,0 -0.124,-0.056 -0.124,-0.092 0,-0.012 0.004,-0.02 0.008,-0.024 0.32,-0.372 0.552,-0.828 0.552,-1.32 0,-0.036 0.024,-0.064 0.052,-0.064 h 0.012 c 0.092,0.028 0.188,0.052 0.284,0.052 0.096,0 0.192,-0.024 0.284,-0.052 0.008,-0.004 0.012,-0.004 0.02,-0.004 0.044,0 0.072,0.04 0.048,0.068 l -1.136,1.32 h 0.668 V 2.29 c 0,-0.032 0.004,-0.068 0.032,-0.088 z"
     fill="currentColor"
     id="path288"
     style="stroke-width:0.004" />
  <path
     d="m 22.984141,3.17 c 0,-0.096 -0.084,-0.164 -0.168,-0.164 -0.016,0 -0.032,0 -0.048,0.004 -0.124,0.036 -0.308,0.16 -0.456,0.256 -0.148,0.096 -0.336,0.212 -0.416,0.312 -0.028,0.032 -0.044,0.072 -0.044,0.112 0,0.096 0.084,0.164 0.168,0.164 0.016,0 0.032,0 0.048,-0.004 0.124,-0.036 0.312,-0.16 0.46,-0.256 0.148,-0.096 0.336,-0.212 0.416,-0.312 0.028,-0.032 0.04,-0.072 0.04,-0.112 z m -0.204,-0.288 c 0.188,0 0.332,0.084 0.332,0.288 0,0.076 -0.016,0.148 -0.04,0.224 -0.048,0.152 -0.128,0.296 -0.26,0.384 -0.216,0.144 -0.452,0.204 -0.752,0.204 -0.188,0 -0.336,-0.088 -0.336,-0.292 0,-0.076 0.02,-0.148 0.044,-0.224 0.048,-0.152 0.124,-0.296 0.256,-0.384 0.216,-0.144 0.456,-0.2 0.756,-0.2 z"
     fill="currentColor"
     id="path290"
     style="stroke-width:0.004" />
  <rect
     x="9.8842411"
     y="3.3799999"
     width="0.16"
     height="18.1"
     ry="0.050000001"
     fill="currentColor"
     id="rect292" />
  <text
     font-family="'Roboto Slab Light'"
     font-size="1.96px"
     text-anchor="start"
     fill="currentColor"
     id="text296"
     x="-0.041758597"
     y="20.476299"><tspan
       id="tspan294">Divisão do</tspan></text>
  <text
     font-family="'Roboto Slab Light'"
     font-size="1.96px"
     text-anchor="start"
     fill="currentColor"
     id="text300"
     x="4.0896416"
     y="23.476299"><tspan
       id="tspan298">pulso:</tspan></text>
  <text
     font-family="'Roboto Slab Light'"
     font-size="1.96px"
     text-anchor="start"
     fill="currentColor"
     id="text304"
     x="3.0653415"
     y="13.1641"><tspan
       id="tspan302">Pulsos:</tspan></text>
  <text
     font-family="'Roboto Slab Light'"
     font-size="1.96px"
     text-anchor="start"
     fill="currentColor"
     id="text308"
     x="-0.1100586"
     y="2.4421"><tspan
       id="tspan306">Compasso</tspan></text>
  <text
     font-family="'Roboto Slab Light'"
     font-size="1.96px"
     text-anchor="start"
     fill="currentColor"
     id="text312"
     x="1.9385414"
     y="5.4421"><tspan
       id="tspan310">simples:</tspan></text>
  <rect
     x="26.701941"
     y="18.43"
     width="0.13"
     height="2.8122001"
     ry="0.039999999"
     fill="currentColor"
     id="rect314" />
  <path
     d="m 26.395741,20.878 c 0.224,0 0.436,0.116 0.436,0.364 0,0.288 -0.224,0.484 -0.412,0.596 -0.144,0.084 -0.304,0.144 -0.468,0.144 -0.224,0 -0.436,-0.116 -0.436,-0.364 0,-0.288 0.224,-0.484 0.412,-0.596 0.144,-0.084 0.304,-0.144 0.468,-0.144 z"
     fill="currentColor"
     id="path316"
     style="stroke-width:0.004" />
  <rect
     x="22.910341"
     y="18.43"
     width="0.13"
     height="2.8122001"
     ry="0.039999999"
     fill="currentColor"
     id="rect318" />
  <rect
     x="22.910341"
     y="9.0966997"
     width="0.13"
     height="3.1454999"
     ry="0.039999999"
     fill="currentColor"
     id="rect320" />
  <rect
     x="22.984142"
     y="0.096699886"
     width="0.13"
     height="3.0718999"
     ry="0.039999999"
     fill="currentColor"
     id="rect322" />
  <text
     font-family="'Roboto Slab Light'"
     font-size="2.2001px"
     text-anchor="start"
     fill="currentColor"
     id="text326"
     x="9.9442415"
     y="32.529999"><tspan
       id="tspan324">Símbolo:</tspan></text>
  <rect
     x="57.071041"
     y="0.096699886"
     width="0.13"
     height="3.1454999"
     ry="0.039999999"
     fill="currentColor"
     id="rect328" />
  <text
     font-family="'Roboto Light'"
     font-size="2.2001px"
     text-anchor="start"
     fill="currentColor"
     id="text332"
     x="55.689342"
     y="32.529999"><tspan
       id="tspan330">—</tspan></text>
  <text
     font-family="'Roboto Light'"
     font-size="2.2001px"
     text-anchor="start"
     fill="currentColor"
     id="text336"
     x="53.98214"
     y="29.73"><tspan
       id="tspan334">Forte</tspan></text>
  <text
     font-family="'Roboto Light'"
     font-size="2.2001px"
     text-anchor="start"
     fill="currentColor"
     id="text340"
     x="55.928341"
     y="26.93"><tspan
       id="tspan338">1</tspan></text>
  <path
     d="m 53.096041,22.2165 c 0.088,-0.056 0.176,-0.116 0.24,-0.2 0.044,-0.06 0.076,-0.132 0.108,-0.2 0.008,-0.016 0.02,-0.024 0.036,-0.024 0.024,0 0.052,0.02 0.052,0.056 v 0.98 h 0.288 c 0.04,0 0.06,0.028 0.06,0.056 0,0.028 -0.02,0.06 -0.06,0.06 h -0.288 v 0.032 c 0,0.192 0.108,0.376 0.288,0.376 0.032,0 0.048,0.02 0.048,0.044 0,0.024 -0.016,0.048 -0.048,0.048 -0.176,0 -0.348,-0.052 -0.524,-0.052 -0.176,0 -0.348,0.052 -0.524,0.052 -0.032,0 -0.048,-0.024 -0.048,-0.048 0,-0.024 0.016,-0.044 0.048,-0.044 0.18,0 0.292,-0.184 0.292,-0.376 v -0.032 h -0.668 c -0.092,0 -0.124,-0.056 -0.124,-0.092 0,-0.012 0.004,-0.02 0.008,-0.024 0.32,-0.372 0.552,-0.828 0.552,-1.32 0,-0.036 0.024,-0.064 0.052,-0.064 h 0.012 c 0.092,0.028 0.188,0.052 0.284,0.052 0.096,0 0.192,-0.024 0.284,-0.052 0.008,-0.004 0.012,-0.004 0.02,-0.004 0.044,0 0.072,0.04 0.048,0.068 l -1.136,1.32 h 0.668 v -0.524 c 0,-0.032 0.004,-0.068 0.032,-0.088 z"
     fill="currentColor"
     id="path342"
     style="stroke-width:0.004" />
  <path
     d="m 53.016641,19.522 c -0.116,0 -0.236,0.032 -0.236,0.132 0,0.088 0.144,0.1 0.144,0.188 0,0.128 -0.104,0.232 -0.232,0.232 -0.128,0 -0.228,-0.104 -0.228,-0.232 0,-0.26 0.268,-0.412 0.552,-0.412 0.364,0 0.676,0.132 0.676,0.456 0,0.172 -0.016,0.328 -0.168,0.4 -0.036,0.016 -0.056,0.048 -0.056,0.084 0,0.036 0.02,0.072 0.056,0.088 0.164,0.076 0.224,0.228 0.224,0.412 0,0.368 -0.316,0.56 -0.716,0.56 -0.316,0 -0.616,-0.168 -0.616,-0.452 0,-0.144 0.12,-0.264 0.264,-0.264 0.144,0 0.26,0.12 0.26,0.264 0,0.1 -0.16,0.112 -0.16,0.212 0,0.108 0.128,0.148 0.252,0.148 0.196,0 0.252,-0.244 0.252,-0.468 v -0.064 c 0,-0.216 -0.008,-0.376 -0.2,-0.376 h -0.32 c -0.04,0 -0.056,-0.032 -0.056,-0.06 0,-0.028 0.016,-0.056 0.056,-0.056 h 0.32 c 0.196,0 0.2,-0.172 0.2,-0.396 v -0.032 c 0,-0.216 -0.072,-0.364 -0.268,-0.364 z"
     fill="currentColor"
     id="path344"
     style="stroke-width:0.004" />
  <path
     d="m 56.764841,20.878 c 0.224,0 0.436,0.116 0.436,0.364 0,0.288 -0.224,0.484 -0.412,0.596 -0.144,0.084 -0.304,0.144 -0.468,0.144 -0.224,0 -0.436,-0.116 -0.436,-0.364 0,-0.288 0.224,-0.484 0.412,-0.596 0.144,-0.084 0.304,-0.144 0.468,-0.144 z"
     fill="currentColor"
     id="path346"
     style="stroke-width:0.004" />
  <path
     d="m 53.096041,13.2165 c 0.088,-0.056 0.176,-0.116 0.24,-0.2 0.044,-0.06 0.076,-0.132 0.108,-0.2 0.008,-0.016 0.02,-0.024 0.036,-0.024 0.024,0 0.052,0.02 0.052,0.056 v 0.98 h 0.288 c 0.04,0 0.06,0.028 0.06,0.056 0,0.028 -0.02,0.06 -0.06,0.06 h -0.288 v 0.032 c 0,0.192 0.108,0.376 0.288,0.376 0.032,0 0.048,0.02 0.048,0.044 0,0.024 -0.016,0.048 -0.048,0.048 -0.176,0 -0.348,-0.052 -0.524,-0.052 -0.176,0 -0.348,0.052 -0.524,0.052 -0.032,0 -0.048,-0.024 -0.048,-0.048 0,-0.024 0.016,-0.044 0.048,-0.044 0.18,0 0.292,-0.184 0.292,-0.376 v -0.032 h -0.668 c -0.092,0 -0.124,-0.056 -0.124,-0.092 0,-0.012 0.004,-0.02 0.008,-0.024 0.32,-0.372 0.552,-0.828 0.552,-1.32 0,-0.036 0.024,-0.064 0.052,-0.064 h 0.012 c 0.092,0.028 0.188,0.052 0.284,0.052 0.096,0 0.192,-0.024 0.284,-0.052 0.008,-0.004 0.012,-0.004 0.02,-0.004 0.044,0 0.072,0.04 0.048,0.068 l -1.136,1.32 h 0.668 v -0.524 c 0,-0.032 0.004,-0.068 0.032,-0.088 z"
     fill="currentColor"
     id="path348"
     style="stroke-width:0.004" />
  <path
     d="m 53.016641,10.522 c -0.116,0 -0.236,0.032 -0.236,0.132 0,0.088 0.144,0.1 0.144,0.188 0,0.128 -0.104,0.232 -0.232,0.232 -0.128,0 -0.228,-0.104 -0.228,-0.232 0,-0.26 0.268,-0.412 0.552,-0.412 0.364,0 0.676,0.132 0.676,0.456 0,0.172 -0.016,0.328 -0.168,0.4 -0.036,0.016 -0.056,0.048 -0.056,0.084 0,0.036 0.02,0.072 0.056,0.088 0.164,0.076 0.224,0.228 0.224,0.412 0,0.368 -0.316,0.56 -0.716,0.56 -0.316,0 -0.616,-0.168 -0.616,-0.452 0,-0.144 0.12,-0.264 0.264,-0.264 0.144,0 0.26,0.12 0.26,0.264 0,0.1 -0.16,0.112 -0.16,0.212 0,0.108 0.128,0.148 0.252,0.148 0.196,0 0.252,-0.244 0.252,-0.468 v -0.064 c 0,-0.216 -0.008,-0.376 -0.2,-0.376 h -0.32 c -0.04,0 -0.056,-0.032 -0.056,-0.06 0,-0.028 0.016,-0.056 0.056,-0.056 h 0.32 c 0.196,0 0.2,-0.172 0.2,-0.396 v -0.032 c 0,-0.216 -0.072,-0.364 -0.268,-0.364 z"
     fill="currentColor"
     id="path350"
     style="stroke-width:0.004" />
  <path
     d="m 56.764841,11.878 c 0.224,0 0.436,0.116 0.436,0.364 0,0.288 -0.224,0.484 -0.412,0.596 -0.144,0.084 -0.304,0.144 -0.468,0.144 -0.224,0 -0.436,-0.116 -0.436,-0.364 0,-0.288 0.224,-0.484 0.412,-0.596 0.144,-0.084 0.304,-0.144 0.468,-0.144 z"
     fill="currentColor"
     id="path352"
     style="stroke-width:0.004" />
  <path
     d="m 53.096041,4.2165 c 0.088,-0.056 0.176,-0.116 0.24,-0.2 0.044,-0.06 0.076,-0.132 0.108,-0.2 0.008,-0.016 0.02,-0.024 0.036,-0.024 0.024,0 0.052,0.02 0.052,0.056 v 0.98 h 0.288 c 0.04,0 0.06,0.028 0.06,0.056 0,0.028 -0.02,0.06 -0.06,0.06 h -0.288 v 0.032 c 0,0.192 0.108,0.376 0.288,0.376 0.032,0 0.048,0.02 0.048,0.044 0,0.024 -0.016,0.048 -0.048,0.048 -0.176,0 -0.348,-0.052 -0.524,-0.052 -0.176,0 -0.348,0.052 -0.524,0.052 -0.032,0 -0.048,-0.024 -0.048,-0.048 0,-0.024 0.016,-0.044 0.048,-0.044 0.18,0 0.292,-0.184 0.292,-0.376 v -0.032 h -0.668 c -0.092,0 -0.124,-0.056 -0.124,-0.092 0,-0.012 0.004,-0.02 0.008,-0.024 0.32,-0.372 0.552,-0.828 0.552,-1.32 0,-0.036 0.024,-0.064 0.052,-0.064 h 0.012 c 0.092,0.028 0.188,0.052 0.284,0.052 0.096,0 0.192,-0.024 0.284,-0.052 0.008,-0.004 0.012,-0.004 0.02,-0.004 0.044,0 0.072,0.04 0.048,0.068 l -1.136,1.32 h 0.668 v -0.524 c 0,-0.032 0.004,-0.068 0.032,-0.088 z"
     fill="currentColor"
     id="path354"
     style="stroke-width:0.004" />
  <path
     d="m 53.016641,1.522 c -0.116,0 -0.236,0.032 -0.236,0.132 0,0.088 0.144,0.1 0.144,0.188 0,0.128 -0.104,0.232 -0.232,0.232 -0.128,0 -0.228,-0.104 -0.228,-0.232 0,-0.26 0.268,-0.412 0.552,-0.412 0.364,0 0.676,0.132 0.676,0.456 0,0.172 -0.016,0.328 -0.168,0.4 -0.036,0.016 -0.056,0.048 -0.056,0.084 0,0.036 0.02,0.072 0.056,0.088 0.164,0.076 0.224,0.228 0.224,0.412 0,0.368 -0.316,0.56 -0.716,0.56 -0.316,0 -0.616,-0.168 -0.616,-0.452 0,-0.144 0.12,-0.264 0.264,-0.264 0.144,0 0.26,0.12 0.26,0.264 0,0.1 -0.16,0.112 -0.16,0.212 0,0.108 0.128,0.148 0.252,0.148 0.196,0 0.252,-0.244 0.252,-0.468 V 2.806 c 0,-0.216 -0.008,-0.376 -0.2,-0.376 h -0.32 c -0.04,0 -0.056,-0.032 -0.056,-0.06 0,-0.028 0.016,-0.056 0.056,-0.056 h 0.32 c 0.196,0 0.2,-0.172 0.2,-0.396 V 1.886 c 0,-0.216 -0.072,-0.364 -0.268,-0.364 z"
     fill="currentColor"
     id="path356"
     style="stroke-width:0.004" />
  <path
     d="m 56.764841,2.878 c 0.224,0 0.436,0.116 0.436,0.364 0,0.288 -0.224,0.484 -0.412,0.596 -0.144,0.084 -0.304,0.144 -0.468,0.144 -0.224,0 -0.436,-0.116 -0.436,-0.364 0,-0.288 0.224,-0.484 0.412,-0.596 0.144,-0.084 0.304,-0.144 0.468,-0.144 z"
     fill="currentColor"
     id="path358"
     style="stroke-width:0.004" />
  <rect
     x="49.062141"
     y="18.43"
     width="0.13"
     height="2.8122001"
     ry="0.039999999"
     fill="currentColor"
     id="rect360" />
  <rect
     x="60.862541"
     y="18.43"
     width="0.13"
     height="2.8122001"
     ry="0.039999999"
     fill="currentColor"
     id="rect362" />
  <path
     d="m 60.556341,20.878 c 0.224,0 0.436,0.116 0.436,0.364 0,0.288 -0.224,0.484 -0.412,0.596 -0.144,0.084 -0.304,0.144 -0.468,0.144 -0.224,0 -0.436,-0.116 -0.436,-0.364 0,-0.288 0.224,-0.484 0.412,-0.596 0.144,-0.084 0.304,-0.144 0.468,-0.144 z"
     fill="currentColor"
     id="path364"
     style="stroke-width:0.004" />
  <rect
     x="57.071041"
     y="18.43"
     width="0.13"
     height="2.8122001"
     ry="0.039999999"
     fill="currentColor"
     id="rect366" />
  <rect
     x="57.071041"
     y="9.0966997"
     width="0.13"
     height="3.1454999"
     ry="0.039999999"
     fill="currentColor"
     id="rect368" />
  <rect
     x="45.65974"
     y="9.0966997"
     width="0.13"
     height="3.1454999"
     ry="0.039999999"
     fill="currentColor"
     id="rect370" />
  <rect
     x="45.65974"
     y="0.43000001"
     width="0.13"
     height="2.8122001"
     ry="0.039999999"
     fill="currentColor"
     id="rect372" />
  <text
     font-family="'Roboto Light'"
     font-size="2.2001px"
     text-anchor="start"
     fill="currentColor"
     id="text376"
     x="44.448742"
     y="32.529999"><tspan
       id="tspan374">∙</tspan></text>
  <text
     font-family="'Roboto Light'"
     font-size="2.2001px"
     text-anchor="start"
     fill="currentColor"
     id="text380"
     x="42.331841"
     y="29.73"><tspan
       id="tspan378">Fraco</tspan></text>
  <text
     font-family="'Roboto Light'"
     font-size="2.2001px"
     text-anchor="start"
     fill="currentColor"
     id="text384"
     x="44.534142"
     y="26.93"><tspan
       id="tspan382">4</tspan></text>
  <path
     d="m 45.353541,20.878 c 0.224,0 0.436,0.116 0.436,0.364 0,0.288 -0.224,0.484 -0.412,0.596 -0.144,0.084 -0.304,0.144 -0.468,0.144 -0.224,0 -0.436,-0.116 -0.436,-0.364 0,-0.288 0.224,-0.484 0.412,-0.596 0.144,-0.084 0.304,-0.144 0.468,-0.144 z"
     fill="currentColor"
     id="path386"
     style="stroke-width:0.004" />
  <path
     d="m 45.353541,11.878 c 0.224,0 0.436,0.116 0.436,0.364 0,0.288 -0.224,0.484 -0.412,0.596 -0.144,0.084 -0.304,0.144 -0.468,0.144 -0.224,0 -0.436,-0.116 -0.436,-0.364 0,-0.288 0.224,-0.484 0.412,-0.596 0.144,-0.084 0.304,-0.144 0.468,-0.144 z"
     fill="currentColor"
     id="path388"
     style="stroke-width:0.004" />
  <path
     d="m 45.353541,2.878 c 0.224,0 0.436,0.116 0.436,0.364 0,0.288 -0.224,0.484 -0.412,0.596 -0.144,0.084 -0.304,0.144 -0.468,0.144 -0.224,0 -0.436,-0.116 -0.436,-0.364 0,-0.288 0.224,-0.484 0.412,-0.596 0.144,-0.084 0.304,-0.144 0.468,-0.144 z"
     fill="currentColor"
     id="path390"
     style="stroke-width:0.004" />
  <rect
     x="41.868141"
     y="18.43"
     width="0.13"
     height="2.8122001"
     ry="0.039999999"
     fill="currentColor"
     id="rect392" />
  <path
     d="m 41.561941,20.878 c 0.224,0 0.436,0.116 0.436,0.364 0,0.288 -0.224,0.484 -0.412,0.596 -0.144,0.084 -0.304,0.144 -0.468,0.144 -0.224,0 -0.436,-0.116 -0.436,-0.364 0,-0.288 0.224,-0.484 0.412,-0.596 0.144,-0.084 0.304,-0.144 0.468,-0.144 z"
     fill="currentColor"
     id="path394"
     style="stroke-width:0.004" />
  <path
     d="m 48.756041,2.878 c 0.224,0 0.436,0.116 0.436,0.364 0,0.288 -0.224,0.484 -0.412,0.596 -0.144,0.084 -0.304,0.144 -0.468,0.144 -0.224,0 -0.436,-0.116 -0.436,-0.364 0,-0.288 0.224,-0.484 0.412,-0.596 0.144,-0.084 0.304,-0.144 0.468,-0.144 z"
     fill="currentColor"
     id="path396"
     style="stroke-width:0.004" />
  <path
     d="m 48.756041,20.878 c 0.224,0 0.436,0.116 0.436,0.364 0,0.288 -0.224,0.484 -0.412,0.596 -0.144,0.084 -0.304,0.144 -0.468,0.144 -0.224,0 -0.436,-0.116 -0.436,-0.364 0,-0.288 0.224,-0.484 0.412,-0.596 0.144,-0.084 0.304,-0.144 0.468,-0.144 z"
     fill="currentColor"
     id="path398"
     style="stroke-width:0.004" />
  <rect
     x="49.062141"
     y="0.43000001"
     width="0.13"
     height="2.8122001"
     ry="0.039999999"
     fill="currentColor"
     id="rect400" />
  <rect
     x="45.65974"
     y="18.43"
     width="0.13"
     height="2.8122001"
     ry="0.039999999"
     fill="currentColor"
     id="rect402" />
</svg>
