<?xml version="1.0" encoding="UTF-8" standalone="no"?>
<svg
   version="1.2"
   width="176.67502mm"
   height="57.126797mm"
   viewBox="0 0 100.53784 32.508302"
   id="svg512"
   xmlns="http://www.w3.org/2000/svg"
   xmlns:svg="http://www.w3.org/2000/svg">
  <defs
     id="defs516" />
  <!-- Page: 1/1 -->
  <text
     font-family="'Century Schoolbook L'"
     font-size="2.2001px"
     text-anchor="start"
     fill="currentColor"
     id="text4"
     x="9.9442415"
     y="-1"><tspan
       id="tspan2" /></text>
  <rect
     x="52.614941"
     y="11.325"
     width="0.19"
     height="2.0999999"
     ry="0.0000"
     fill="currentColor"
     id="rect6" />
  <rect
     x="52.614941"
     y="2.325"
     width="0.19"
     height="2.0999999"
     ry="0.0000"
     fill="currentColor"
     id="rect8" />
  <rect
     x="52.614941"
     y="20.325001"
     width="0.19"
     height="2.0999999"
     ry="0.0000"
     fill="currentColor"
     id="rect10" />
  <rect
     x="100.34784"
     y="2.325"
     width="0.19"
     height="2.0999999"
     ry="0.0000"
     fill="currentColor"
     id="rect12" />
  <rect
     x="99.857841"
     y="2.325"
     width="0.19"
     height="2.0999999"
     ry="0.0000"
     fill="currentColor"
     id="rect14" />
  <rect
     x="100.34784"
     y="11.325"
     width="0.19"
     height="2.0999999"
     ry="0.0000"
     fill="currentColor"
     id="rect16" />
  <rect
     x="99.857841"
     y="11.325"
     width="0.19"
     height="2.0999999"
     ry="0.0000"
     fill="currentColor"
     id="rect18" />
  <rect
     x="100.34784"
     y="20.325001"
     width="0.19"
     height="2.0999999"
     ry="0.0000"
     fill="currentColor"
     id="rect20" />
  <rect
     x="99.857841"
     y="20.325001"
     width="0.19"
     height="2.0999999"
     ry="0.0000"
     fill="currentColor"
     id="rect22" />
  <rect
     x="79.973442"
     y="2.325"
     width="0.19"
     height="2.0999999"
     ry="0.0000"
     fill="currentColor"
     id="rect24" />
  <rect
     x="79.973442"
     y="11.325"
     width="0.19"
     height="2.0999999"
     ry="0.0000"
     fill="currentColor"
     id="rect26" />
  <rect
     x="79.973442"
     y="20.325001"
     width="0.19"
     height="2.0999999"
     ry="0.0000"
     fill="currentColor"
     id="rect28" />
  <line
     stroke-linejoin="round"
     stroke-linecap="round"
     stroke-width="0.1"
     stroke="currentColor"
     x1="9.9942417"
     y1="12.375"
     x2="100.48785"
     y2="12.375"
     id="line30" />
  <line
     stroke-linejoin="round"
     stroke-linecap="round"
     stroke-width="0.1"
     stroke="currentColor"
     x1="9.9942417"
     y1="21.375"
     x2="100.48785"
     y2="21.375"
     id="line32" />
  <line
     stroke-linejoin="round"
     stroke-linecap="round"
     stroke-width="0.1"
     stroke="currentColor"
     x1="9.9942417"
     y1="3.375"
     x2="100.48785"
     y2="3.375"
     id="line34" />
  <text
     font-family="'Roboto Light'"
     font-size="2.2001px"
     text-anchor="start"
     fill="currentColor"
     id="text38"
     x="72.368744"
     y="32.474998"><tspan
       id="tspan36">∙</tspan></text>
  <text
     font-family="'Roboto Light'"
     font-size="2.2001px"
     text-anchor="start"
     fill="currentColor"
     id="text42"
     x="70.251839"
     y="29.674999"><tspan
       id="tspan40">Fraco</tspan></text>
  <rect
     x="73.579643"
     y="0.375"
     width="0.13"
     height="2.8122001"
     ry="0.039999999"
     fill="currentColor"
     id="rect44" />
  <text
     font-family="'Roboto Light'"
     font-size="2.2001px"
     text-anchor="start"
     fill="currentColor"
     id="text48"
     x="72.437042"
     y="26.875"><tspan
       id="tspan46">3</tspan></text>
  <path
     d="m 73.273541,20.823 c 0.224,0 0.436,0.116 0.436,0.364 0,0.288 -0.224,0.484 -0.412,0.596 -0.144,0.084 -0.304,0.144 -0.468,0.144 -0.224,0 -0.436,-0.116 -0.436,-0.364 0,-0.288 0.224,-0.484 0.412,-0.596 0.144,-0.084 0.304,-0.144 0.468,-0.144 z"
     fill="currentColor"
     id="path50"
     style="stroke-width:0.004" />
  <path
     d="m 73.273541,11.823 c 0.224,0 0.436,0.116 0.436,0.364 0,0.288 -0.224,0.484 -0.412,0.596 -0.144,0.084 -0.304,0.144 -0.468,0.144 -0.224,0 -0.436,-0.116 -0.436,-0.364 0,-0.288 0.224,-0.484 0.412,-0.596 0.144,-0.084 0.304,-0.144 0.468,-0.144 z"
     fill="currentColor"
     id="path52"
     style="stroke-width:0.004" />
  <path
     d="m 73.273541,2.823 c 0.224,0 0.436,0.116 0.436,0.364 0,0.288 -0.224,0.484 -0.412,0.596 -0.144,0.084 -0.304,0.144 -0.468,0.144 -0.224,0 -0.436,-0.116 -0.436,-0.364 0,-0.288 0.224,-0.484 0.412,-0.596 0.144,-0.084 0.304,-0.144 0.468,-0.144 z"
     fill="currentColor"
     id="path54"
     style="stroke-width:0.004" />
  <rect
     x="70.874542"
     y="18.375"
     width="0.13"
     height="2.8122001"
     ry="0.039999999"
     fill="currentColor"
     id="rect56" />
  <path
     d="m 71.004541,0.04 c 0,0.792 0.836,1.34 0.836,2.132 0,0.284 -0.064,0.564 -0.168,0.828 -0.02,0.032 -0.048,0.048 -0.076,0.048 -0.052,0 -0.104,-0.044 -0.092,-0.108 0.104,-0.244 0.168,-0.504 0.168,-0.768 0,-0.416 -0.38,-0.832 -0.668,-1.132 h -0.064 v -1 z"
     fill="currentColor"
     id="path58"
     style="stroke-width:0.004" />
  <rect
     x="70.874542"
     y="-4.4408921e-16"
     width="0.13"
     height="3.1872001"
     ry="0.039999999"
     fill="currentColor"
     id="rect60" />
  <path
     d="m 70.568341,20.823 c 0.224,0 0.436,0.116 0.436,0.364 0,0.288 -0.224,0.484 -0.412,0.596 -0.144,0.084 -0.304,0.144 -0.468,0.144 -0.224,0 -0.436,-0.116 -0.436,-0.364 0,-0.288 0.224,-0.484 0.412,-0.596 0.144,-0.084 0.304,-0.144 0.468,-0.144 z"
     fill="currentColor"
     id="path62"
     style="stroke-width:0.004" />
  <path
     d="m 70.568341,2.823 c 0.224,0 0.436,0.116 0.436,0.364 0,0.288 -0.224,0.484 -0.412,0.596 -0.144,0.084 -0.304,0.144 -0.468,0.144 -0.224,0 -0.436,-0.116 -0.436,-0.364 0,-0.288 0.224,-0.484 0.412,-0.596 0.144,-0.084 0.304,-0.144 0.468,-0.144 z"
     fill="currentColor"
     id="path64"
     style="stroke-width:0.004" />
  <rect
     x="68.463539"
     y="18.375"
     width="0.13"
     height="2.8122001"
     ry="0.039999999"
     fill="currentColor"
     id="rect66" />
  <path
     d="m 78.411641,20.823 c 0.224,0 0.436,0.116 0.436,0.364 0,0.288 -0.224,0.484 -0.412,0.596 -0.144,0.084 -0.304,0.144 -0.468,0.144 -0.224,0 -0.436,-0.116 -0.436,-0.364 0,-0.288 0.224,-0.484 0.412,-0.596 0.144,-0.084 0.304,-0.144 0.468,-0.144 z"
     fill="currentColor"
     id="path68"
     style="stroke-width:0.004" />
  <path
     d="m 77.819641,4.375 0.468,-1.304 c -0.136,0.048 -0.276,0.088 -0.42,0.088 -0.184,0 -0.348,-0.132 -0.348,-0.316 0,-0.16 0.132,-0.288 0.292,-0.288 0.1,0 0.192,0.06 0.224,0.156 0.04,0.112 0.024,0.236 0.14,0.236 0.064,0 0.216,-0.192 0.244,-0.252 0.024,-0.048 0.092,-0.048 0.112,0 l -0.492,1.68 c -0.032,0.028 -0.068,0.04 -0.108,0.04 -0.04,0 -0.08,-0.012 -0.112,-0.04 z"
     fill="currentColor"
     id="path70"
     style="stroke-width:0.004" />
  <rect
     x="76.148743"
     y="18.375"
     width="0.13"
     height="2.8122001"
     ry="0.039999999"
     fill="currentColor"
     id="rect72" />
  <rect
     x="76.148743"
     y="0.375"
     width="0.13"
     height="2.8122001"
     ry="0.039999999"
     fill="currentColor"
     id="rect74" />
  <path
     d="m 75.842641,20.823 c 0.224,0 0.436,0.116 0.436,0.364 0,0.288 -0.224,0.484 -0.412,0.596 -0.144,0.084 -0.304,0.144 -0.468,0.144 -0.224,0 -0.436,-0.116 -0.436,-0.364 0,-0.288 0.224,-0.484 0.412,-0.596 0.144,-0.084 0.304,-0.144 0.468,-0.144 z"
     fill="currentColor"
     id="path76"
     style="stroke-width:0.004" />
  <path
     d="m 75.842641,2.823 c 0.224,0 0.436,0.116 0.436,0.364 0,0.288 -0.224,0.484 -0.412,0.596 -0.144,0.084 -0.304,0.144 -0.468,0.144 -0.224,0 -0.436,-0.116 -0.436,-0.364 0,-0.288 0.224,-0.484 0.412,-0.596 0.144,-0.084 0.304,-0.144 0.468,-0.144 z"
     fill="currentColor"
     id="path78"
     style="stroke-width:0.004" />
  <rect
     x="73.579643"
     y="18.375"
     width="0.13"
     height="2.8122001"
     ry="0.039999999"
     fill="currentColor"
     id="rect80" />
  <rect
     x="73.579643"
     y="9.0416994"
     width="0.13"
     height="3.1454999"
     ry="0.039999999"
     fill="currentColor"
     id="rect82" />
  <path
     d="m 74.159641,11.875 c 0,-0.124 0.1,-0.224 0.224,-0.224 0.124,0 0.224,0.1 0.224,0.224 0,0.124 -0.1,0.224 -0.224,0.224 -0.124,0 -0.224,-0.1 -0.224,-0.224 z"
     fill="currentColor"
     id="path84"
     style="stroke-width:0.004" />
  <rect
     x="63.189342"
     y="0.375"
     width="0.13"
     height="2.8122001"
     ry="0.039999999"
     fill="currentColor"
     id="rect86" />
  <path
     d="m 62.883141,20.823 c 0.224,0 0.436,0.116 0.436,0.364 0,0.288 -0.224,0.484 -0.412,0.596 -0.144,0.084 -0.304,0.144 -0.468,0.144 -0.224,0 -0.436,-0.116 -0.436,-0.364 0,-0.288 0.224,-0.484 0.412,-0.596 0.144,-0.084 0.304,-0.144 0.468,-0.144 z"
     fill="currentColor"
     id="path88"
     style="stroke-width:0.004" />
  <path
     d="m 62.883141,2.823 c 0.224,0 0.436,0.116 0.436,0.364 0,0.288 -0.224,0.484 -0.412,0.596 -0.144,0.084 -0.304,0.144 -0.468,0.144 -0.224,0 -0.436,-0.116 -0.436,-0.364 0,-0.288 0.224,-0.484 0.412,-0.596 0.144,-0.084 0.304,-0.144 0.468,-0.144 z"
     fill="currentColor"
     id="path90"
     style="stroke-width:0.004" />
  <rect
     x="60.620243"
     y="18.375"
     width="0.13"
     height="2.8122001"
     ry="0.039999999"
     fill="currentColor"
     id="rect92" />
  <rect
     x="60.620243"
     y="0.375"
     width="0.13"
     height="2.8122001"
     ry="0.039999999"
     fill="currentColor"
     id="rect94" />
  <path
     d="m 60.314041,20.823 c 0.224,0 0.436,0.116 0.436,0.364 0,0.288 -0.224,0.484 -0.412,0.596 -0.144,0.084 -0.304,0.144 -0.468,0.144 -0.224,0 -0.436,-0.116 -0.436,-0.364 0,-0.288 0.224,-0.484 0.412,-0.596 0.144,-0.084 0.304,-0.144 0.468,-0.144 z"
     fill="currentColor"
     id="path96"
     style="stroke-width:0.004" />
  <path
     d="m 60.314041,2.823 c 0.224,0 0.436,0.116 0.436,0.364 0,0.288 -0.224,0.484 -0.412,0.596 -0.144,0.084 -0.304,0.144 -0.468,0.144 -0.224,0 -0.436,-0.116 -0.436,-0.364 0,-0.288 0.224,-0.484 0.412,-0.596 0.144,-0.084 0.304,-0.144 0.468,-0.144 z"
     fill="currentColor"
     id="path98"
     style="stroke-width:0.004" />
  <rect
     x="58.20924"
     y="18.375"
     width="0.13"
     height="2.8122001"
     ry="0.039999999"
     fill="currentColor"
     id="rect100" />
  <path
     d="m 68.157341,20.823 c 0.224,0 0.436,0.116 0.436,0.364 0,0.288 -0.224,0.484 -0.412,0.596 -0.144,0.084 -0.304,0.144 -0.468,0.144 -0.224,0 -0.436,-0.116 -0.436,-0.364 0,-0.288 0.224,-0.484 0.412,-0.596 0.144,-0.084 0.304,-0.144 0.468,-0.144 z"
     fill="currentColor"
     id="path102"
     style="stroke-width:0.004" />
  <path
     d="m 67.565341,4.375 0.468,-1.304 c -0.136,0.048 -0.276,0.088 -0.42,0.088 -0.184,0 -0.348,-0.132 -0.348,-0.316 0,-0.16 0.132,-0.288 0.292,-0.288 0.1,0 0.192,0.06 0.224,0.156 0.04,0.112 0.024,0.236 0.14,0.236 0.064,0 0.216,-0.192 0.244,-0.252 0.024,-0.048 0.092,-0.048 0.112,0 l -0.492,1.68 c -0.032,0.028 -0.068,0.04 -0.108,0.04 -0.04,0 -0.08,-0.012 -0.112,-0.04 z"
     fill="currentColor"
     id="path104"
     style="stroke-width:0.004" />
  <rect
     x="65.758438"
     y="18.375"
     width="0.13"
     height="2.8122001"
     ry="0.039999999"
     fill="currentColor"
     id="rect106" />
  <rect
     x="65.758438"
     y="9.0416994"
     width="0.13"
     height="3.1454999"
     ry="0.039999999"
     fill="currentColor"
     id="rect108" />
  <path
     d="m 66.338441,11.875 c 0,-0.124 0.1,-0.224 0.224,-0.224 0.124,0 0.224,0.1 0.224,0.224 0,0.124 -0.1,0.224 -0.224,0.224 -0.124,0 -0.224,-0.1 -0.224,-0.224 z"
     fill="currentColor"
     id="path110"
     style="stroke-width:0.004" />
  <path
     d="m 65.888441,0.04 c 0,0.792 0.836,1.34 0.836,2.132 0,0.284 -0.064,0.564 -0.168,0.828 -0.02,0.032 -0.048,0.048 -0.076,0.048 -0.052,0 -0.104,-0.044 -0.092,-0.108 0.104,-0.244 0.168,-0.504 0.168,-0.768 0,-0.416 -0.38,-0.832 -0.668,-1.132 h -0.064 v -1 z"
     fill="currentColor"
     id="path112"
     style="stroke-width:0.004" />
  <rect
     x="65.758438"
     y="-4.4408921e-16"
     width="0.13"
     height="3.1872001"
     ry="0.039999999"
     fill="currentColor"
     id="rect114" />
  <text
     font-family="'Roboto Light'"
     font-size="2.2001px"
     text-anchor="start"
     fill="currentColor"
     id="text118"
     x="64.54744"
     y="32.474998"><tspan
       id="tspan116">∙</tspan></text>
  <text
     font-family="'Roboto Light'"
     font-size="2.2001px"
     text-anchor="start"
     fill="currentColor"
     id="text122"
     x="62.430641"
     y="29.674999"><tspan
       id="tspan120">Fraco</tspan></text>
  <text
     font-family="'Roboto Light'"
     font-size="2.2001px"
     text-anchor="start"
     fill="currentColor"
     id="text126"
     x="64.615738"
     y="26.875"><tspan
       id="tspan124">2</tspan></text>
  <path
     d="m 65.452241,20.823 c 0.224,0 0.436,0.116 0.436,0.364 0,0.288 -0.224,0.484 -0.412,0.596 -0.144,0.084 -0.304,0.144 -0.468,0.144 -0.224,0 -0.436,-0.116 -0.436,-0.364 0,-0.288 0.224,-0.484 0.412,-0.596 0.144,-0.084 0.304,-0.144 0.468,-0.144 z"
     fill="currentColor"
     id="path128"
     style="stroke-width:0.004" />
  <path
     d="m 65.452241,11.823 c 0.224,0 0.436,0.116 0.436,0.364 0,0.288 -0.224,0.484 -0.412,0.596 -0.144,0.084 -0.304,0.144 -0.468,0.144 -0.224,0 -0.436,-0.116 -0.436,-0.364 0,-0.288 0.224,-0.484 0.412,-0.596 0.144,-0.084 0.304,-0.144 0.468,-0.144 z"
     fill="currentColor"
     id="path130"
     style="stroke-width:0.004" />
  <path
     d="m 65.452241,2.823 c 0.224,0 0.436,0.116 0.436,0.364 0,0.288 -0.224,0.484 -0.412,0.596 -0.144,0.084 -0.304,0.144 -0.468,0.144 -0.224,0 -0.436,-0.116 -0.436,-0.364 0,-0.288 0.224,-0.484 0.412,-0.596 0.144,-0.084 0.304,-0.144 0.468,-0.144 z"
     fill="currentColor"
     id="path132"
     style="stroke-width:0.004" />
  <rect
     x="63.189342"
     y="18.375"
     width="0.13"
     height="2.8122001"
     ry="0.039999999"
     fill="currentColor"
     id="rect134" />
  <polygon
     transform="translate(85.567841,18.375)"
     stroke-linejoin="round"
     stroke-linecap="round"
     stroke-width="0.08"
     fill="currentColor"
     stroke="currentColor"
     points="0.04,0.2 0.04,-0.2 5.2282,-0.2 5.2282,0.2 "
     id="polygon136" />
  <polygon
     transform="translate(93.275141,18.375)"
     stroke-linejoin="round"
     stroke-linecap="round"
     stroke-width="0.08"
     fill="currentColor"
     stroke="currentColor"
     points="0.04,0.2 0.04,-0.2 5.2282,-0.2 5.2282,0.2 "
     id="polygon138" />
  <rect
     x="98.413338"
     y="18.375"
     width="0.13"
     height="2.8122001"
     ry="0.039999999"
     fill="currentColor"
     id="rect140" />
  <path
     d="m 98.107141,20.823 c 0.224,0 0.436,0.116 0.436,0.364 0,0.288 -0.224,0.484 -0.412,0.596 -0.144,0.084 -0.304,0.144 -0.468,0.144 -0.224,0 -0.436,-0.116 -0.436,-0.364 0,-0.288 0.224,-0.484 0.412,-0.596 0.144,-0.084 0.304,-0.144 0.468,-0.144 z"
     fill="currentColor"
     id="path142"
     style="stroke-width:0.004" />
  <rect
     x="95.844238"
     y="18.375"
     width="0.13"
     height="2.8122001"
     ry="0.039999999"
     fill="currentColor"
     id="rect144" />
  <rect
     x="95.844238"
     y="0.041699886"
     width="0.13"
     height="3.1454999"
     ry="0.039999999"
     fill="currentColor"
     id="rect146" />
  <path
     d="m 95.538041,20.823 c 0.224,0 0.436,0.116 0.436,0.364 0,0.288 -0.224,0.484 -0.412,0.596 -0.144,0.084 -0.304,0.144 -0.468,0.144 -0.224,0 -0.436,-0.116 -0.436,-0.364 0,-0.288 0.224,-0.484 0.412,-0.596 0.144,-0.084 0.304,-0.144 0.468,-0.144 z"
     fill="currentColor"
     id="path148"
     style="stroke-width:0.004" />
  <path
     d="m 95.538041,2.823 c 0.224,0 0.436,0.116 0.436,0.364 0,0.288 -0.224,0.484 -0.412,0.596 -0.144,0.084 -0.304,0.144 -0.468,0.144 -0.224,0 -0.436,-0.116 -0.436,-0.364 0,-0.288 0.224,-0.484 0.412,-0.596 0.144,-0.084 0.304,-0.144 0.468,-0.144 z"
     fill="currentColor"
     id="path150"
     style="stroke-width:0.004" />
  <rect
     x="93.275139"
     y="18.375"
     width="0.13"
     height="2.8122001"
     ry="0.039999999"
     fill="currentColor"
     id="rect152" />
  <rect
     x="93.275139"
     y="9.0416994"
     width="0.13"
     height="3.1454999"
     ry="0.039999999"
     fill="currentColor"
     id="rect154" />
  <path
     d="m 93.855141,11.875 c 0,-0.124 0.1,-0.224 0.224,-0.224 0.124,0 0.224,0.1 0.224,0.224 0,0.124 -0.1,0.224 -0.224,0.224 -0.124,0 -0.224,-0.1 -0.224,-0.224 z"
     fill="currentColor"
     id="path156"
     style="stroke-width:0.004" />
  <polygon
     transform="translate(22.910341,18.375)"
     stroke-linejoin="round"
     stroke-linecap="round"
     stroke-width="0.08"
     fill="currentColor"
     stroke="currentColor"
     points="0.04,0.2 0.04,-0.2 5.2282,-0.2 5.2282,0.2 "
     id="polygon158" />
  <polygon
     transform="translate(30.617641,0.375)"
     stroke-linejoin="round"
     stroke-linecap="round"
     stroke-width="0.08"
     fill="currentColor"
     stroke="currentColor"
     points="0.04,0.2 0.04,-0.2 5.2282,-0.2 5.2282,0.2 "
     id="polygon160" />
  <polygon
     transform="translate(30.617641,18.375)"
     stroke-linejoin="round"
     stroke-linecap="round"
     stroke-width="0.08"
     fill="currentColor"
     stroke="currentColor"
     points="0.04,0.2 0.04,-0.2 5.2282,-0.2 5.2282,0.2 "
     id="polygon162" />
  <polygon
     transform="translate(38.324941,0.375)"
     stroke-linejoin="round"
     stroke-linecap="round"
     stroke-width="0.08"
     fill="currentColor"
     stroke="currentColor"
     points="0.04,0.2 0.04,-0.2 5.2282,-0.2 5.2282,0.2 "
     id="polygon164" />
  <polygon
     transform="translate(38.324941,18.375)"
     stroke-linejoin="round"
     stroke-linecap="round"
     stroke-width="0.08"
     fill="currentColor"
     stroke="currentColor"
     points="0.04,0.2 0.04,-0.2 5.2282,-0.2 5.2282,0.2 "
     id="polygon166" />
  <polygon
     transform="translate(46.032241,0.375)"
     stroke-linejoin="round"
     stroke-linecap="round"
     stroke-width="0.08"
     fill="currentColor"
     stroke="currentColor"
     points="0.04,0.2 0.04,-0.2 5.2282,-0.2 5.2282,0.2 "
     id="polygon168" />
  <polygon
     transform="translate(46.032241,18.375)"
     stroke-linejoin="round"
     stroke-linecap="round"
     stroke-width="0.08"
     fill="currentColor"
     stroke="currentColor"
     points="0.04,0.2 0.04,-0.2 5.2282,-0.2 5.2282,0.2 "
     id="polygon170" />
  <polygon
     transform="translate(60.620241,0.375)"
     stroke-linejoin="round"
     stroke-linecap="round"
     stroke-width="0.08"
     fill="currentColor"
     stroke="currentColor"
     points="0.04,0.2 0.04,-0.2 2.6591,-0.2 2.6591,0.2 "
     id="polygon172" />
  <polygon
     transform="translate(58.209241,18.375)"
     stroke-linejoin="round"
     stroke-linecap="round"
     stroke-width="0.08"
     fill="currentColor"
     stroke="currentColor"
     points="0.04,0.2 0.04,-0.2 5.0701,-0.2 5.0701,0.2 "
     id="polygon174" />
  <polygon
     transform="translate(65.758441,18.375)"
     stroke-linejoin="round"
     stroke-linecap="round"
     stroke-width="0.08"
     fill="currentColor"
     stroke="currentColor"
     points="0.04,0.2 0.04,-0.2 5.2061,-0.2 5.2061,0.2 "
     id="polygon176" />
  <polygon
     transform="translate(73.579641,0.375)"
     stroke-linejoin="round"
     stroke-linecap="round"
     stroke-width="0.08"
     fill="currentColor"
     stroke="currentColor"
     points="0.04,0.2 0.04,-0.2 2.6591,-0.2 2.6591,0.2 "
     id="polygon178" />
  <polygon
     transform="translate(73.579641,18.375)"
     stroke-linejoin="round"
     stroke-linecap="round"
     stroke-width="0.08"
     fill="currentColor"
     stroke="currentColor"
     points="0.04,0.2 0.04,-0.2 5.2282,-0.2 5.2282,0.2 "
     id="polygon180" />
  <rect
     x="85.567841"
     y="18.375"
     width="0.13"
     height="2.8122001"
     ry="0.039999999"
     fill="currentColor"
     id="rect182" />
  <polygon
     transform="translate(22.910341,0.375)"
     stroke-linejoin="round"
     stroke-linecap="round"
     stroke-width="0.08"
     fill="currentColor"
     stroke="currentColor"
     points="0.04,0.2 0.04,-0.2 5.2282,-0.2 5.2282,0.2 "
     id="polygon184" />
  <rect
     x="85.567841"
     y="9.0416994"
     width="0.13"
     height="3.1454999"
     ry="0.039999999"
     fill="currentColor"
     id="rect186" />
  <path
     d="m 86.147841,11.875 c 0,-0.124 0.1,-0.224 0.224,-0.224 0.124,0 0.224,0.1 0.224,0.224 0,0.124 -0.1,0.224 -0.224,0.224 -0.124,0 -0.224,-0.1 -0.224,-0.224 z"
     fill="currentColor"
     id="path188"
     style="stroke-width:0.004" />
  <rect
     x="85.567841"
     y="0.041699886"
     width="0.13"
     height="3.1454999"
     ry="0.039999999"
     fill="currentColor"
     id="rect190" />
  <text
     font-family="'Roboto Light'"
     font-size="2.2001px"
     text-anchor="start"
     fill="currentColor"
     id="text194"
     x="84.186142"
     y="32.474998"><tspan
       id="tspan192">—</tspan></text>
  <text
     font-family="'Roboto Light'"
     font-size="2.2001px"
     text-anchor="start"
     fill="currentColor"
     id="text198"
     x="82.479042"
     y="29.674999"><tspan
       id="tspan196">Forte</tspan></text>
  <text
     font-family="'Roboto Light'"
     font-size="2.2001px"
     text-anchor="start"
     fill="currentColor"
     id="text202"
     x="84.42514"
     y="26.875"><tspan
       id="tspan200">1</tspan></text>
  <path
     d="m 81.949441,22.2375 c 0.108,-0.116 0.196,-0.248 0.196,-0.408 0,-0.22 -0.228,-0.348 -0.468,-0.348 -0.188,0 -0.3,0.144 -0.3,0.284 0,0.08 0.04,0.16 0.12,0.208 z m 0.12,0.068 c 0.22,0.124 0.332,0.316 0.332,0.508 0,0.292 -0.264,0.576 -0.756,0.576 -0.376,0 -0.732,-0.216 -0.732,-0.56 0,-0.2 0.156,-0.34 0.304,-0.48 -0.164,-0.112 -0.244,-0.268 -0.244,-0.424 0,-0.272 0.244,-0.536 0.704,-0.536 0.324,0 0.644,0.152 0.644,0.44 0,0.188 -0.12,0.34 -0.252,0.476 z m -0.732,0.116 c -0.132,0.116 -0.248,0.236 -0.248,0.408 0,0.276 0.264,0.468 0.556,0.468 0.216,0 0.344,-0.168 0.344,-0.332 0,-0.096 -0.04,-0.192 -0.14,-0.248 z"
     fill="currentColor"
     id="path204"
     style="stroke-width:0.004" />
  <path
     d="m 81.644741,20.351 c -0.204,0 -0.212,0.176 -0.212,0.408 v 0.056 0.06 c 0,0.232 0.008,0.408 0.212,0.408 0.228,0 0.244,-0.204 0.244,-0.468 0,-0.264 -0.016,-0.464 -0.244,-0.464 z m -0.212,-0.04 c 0.068,-0.028 0.136,-0.052 0.212,-0.052 0.404,0 0.68,0.176 0.68,0.556 0,0.38 -0.276,0.56 -0.68,0.56 -0.448,0 -0.68,-0.496 -0.68,-1 0,-0.512 0.288,-1 0.76,-1 0.284,0 0.552,0.156 0.552,0.412 0,0.144 -0.116,0.264 -0.26,0.264 -0.144,0 -0.264,-0.12 -0.264,-0.264 0,-0.096 0.156,-0.1 0.156,-0.196 0,-0.08 -0.092,-0.124 -0.184,-0.124 -0.264,0 -0.3,0.26 -0.3,0.556 0,0.096 0.008,0.192 0.008,0.288 z"
     fill="currentColor"
     id="path206"
     style="stroke-width:0.004" />
  <path
     d="m 85.261641,20.823 c 0.224,0 0.436,0.116 0.436,0.364 0,0.288 -0.224,0.484 -0.412,0.596 -0.144,0.084 -0.304,0.144 -0.468,0.144 -0.224,0 -0.436,-0.116 -0.436,-0.364 0,-0.288 0.224,-0.484 0.412,-0.596 0.144,-0.084 0.304,-0.144 0.468,-0.144 z"
     fill="currentColor"
     id="path208"
     style="stroke-width:0.004" />
  <path
     d="m 81.949441,13.2375 c 0.108,-0.116 0.196,-0.248 0.196,-0.408 0,-0.22 -0.228,-0.348 -0.468,-0.348 -0.188,0 -0.3,0.144 -0.3,0.284 0,0.08 0.04,0.16 0.12,0.208 z m 0.12,0.068 c 0.22,0.124 0.332,0.316 0.332,0.508 0,0.292 -0.264,0.576 -0.756,0.576 -0.376,0 -0.732,-0.216 -0.732,-0.56 0,-0.2 0.156,-0.34 0.304,-0.48 -0.164,-0.112 -0.244,-0.268 -0.244,-0.424 0,-0.272 0.244,-0.536 0.704,-0.536 0.324,0 0.644,0.152 0.644,0.44 0,0.188 -0.12,0.34 -0.252,0.476 z m -0.732,0.116 c -0.132,0.116 -0.248,0.236 -0.248,0.408 0,0.276 0.264,0.468 0.556,0.468 0.216,0 0.344,-0.168 0.344,-0.332 0,-0.096 -0.04,-0.192 -0.14,-0.248 z"
     fill="currentColor"
     id="path210"
     style="stroke-width:0.004" />
  <path
     d="m 81.644741,11.351 c -0.204,0 -0.212,0.176 -0.212,0.408 v 0.056 0.06 c 0,0.232 0.008,0.408 0.212,0.408 0.228,0 0.244,-0.204 0.244,-0.468 0,-0.264 -0.016,-0.464 -0.244,-0.464 z m -0.212,-0.04 c 0.068,-0.028 0.136,-0.052 0.212,-0.052 0.404,0 0.68,0.176 0.68,0.556 0,0.38 -0.276,0.56 -0.68,0.56 -0.448,0 -0.68,-0.496 -0.68,-1 0,-0.512 0.288,-1 0.76,-1 0.284,0 0.552,0.156 0.552,0.412 0,0.144 -0.116,0.264 -0.26,0.264 -0.144,0 -0.264,-0.12 -0.264,-0.264 0,-0.096 0.156,-0.1 0.156,-0.196 0,-0.08 -0.092,-0.124 -0.184,-0.124 -0.264,0 -0.3,0.26 -0.3,0.556 0,0.096 0.008,0.192 0.008,0.288 z"
     fill="currentColor"
     id="path212"
     style="stroke-width:0.004" />
  <path
     d="m 85.261641,11.823 c 0.224,0 0.436,0.116 0.436,0.364 0,0.288 -0.224,0.484 -0.412,0.596 -0.144,0.084 -0.304,0.144 -0.468,0.144 -0.224,0 -0.436,-0.116 -0.436,-0.364 0,-0.288 0.224,-0.484 0.412,-0.596 0.144,-0.084 0.304,-0.144 0.468,-0.144 z"
     fill="currentColor"
     id="path214"
     style="stroke-width:0.004" />
  <path
     d="m 81.949441,4.2375 c 0.108,-0.116 0.196,-0.248 0.196,-0.408 0,-0.22 -0.228,-0.348 -0.468,-0.348 -0.188,0 -0.3,0.144 -0.3,0.284 0,0.08 0.04,0.16 0.12,0.208 z m 0.12,0.068 c 0.22,0.124 0.332,0.316 0.332,0.508 0,0.292 -0.264,0.576 -0.756,0.576 -0.376,0 -0.732,-0.216 -0.732,-0.56 0,-0.2 0.156,-0.34 0.304,-0.48 -0.164,-0.112 -0.244,-0.268 -0.244,-0.424 0,-0.272 0.244,-0.536 0.704,-0.536 0.324,0 0.644,0.152 0.644,0.44 0,0.188 -0.12,0.34 -0.252,0.476 z m -0.732,0.116 c -0.132,0.116 -0.248,0.236 -0.248,0.408 0,0.276 0.264,0.468 0.556,0.468 0.216,0 0.344,-0.168 0.344,-0.332 0,-0.096 -0.04,-0.192 -0.14,-0.248 z"
     fill="currentColor"
     id="path216"
     style="stroke-width:0.004" />
  <path
     d="m 81.644741,2.351 c -0.204,0 -0.212,0.176 -0.212,0.408 v 0.056 0.06 c 0,0.232 0.008,0.408 0.212,0.408 0.228,0 0.244,-0.204 0.244,-0.468 0,-0.264 -0.016,-0.464 -0.244,-0.464 z m -0.212,-0.04 c 0.068,-0.028 0.136,-0.052 0.212,-0.052 0.404,0 0.68,0.176 0.68,0.556 0,0.38 -0.276,0.56 -0.68,0.56 -0.448,0 -0.68,-0.496 -0.68,-1 0,-0.512 0.288,-1 0.76,-1 0.284,0 0.552,0.156 0.552,0.412 0,0.144 -0.116,0.264 -0.26,0.264 -0.144,0 -0.264,-0.12 -0.264,-0.264 0,-0.096 0.156,-0.1 0.156,-0.196 0,-0.08 -0.092,-0.124 -0.184,-0.124 -0.264,0 -0.3,0.26 -0.3,0.556 0,0.096 0.008,0.192 0.008,0.288 z"
     fill="currentColor"
     id="path218"
     style="stroke-width:0.004" />
  <path
     d="m 85.261641,2.823 c 0.224,0 0.436,0.116 0.436,0.364 0,0.288 -0.224,0.484 -0.412,0.596 -0.144,0.084 -0.304,0.144 -0.468,0.144 -0.224,0 -0.436,-0.116 -0.436,-0.364 0,-0.288 0.224,-0.484 0.412,-0.596 0.144,-0.084 0.304,-0.144 0.468,-0.144 z"
     fill="currentColor"
     id="path220"
     style="stroke-width:0.004" />
  <rect
     x="78.717842"
     y="18.375"
     width="0.13"
     height="2.8122001"
     ry="0.039999999"
     fill="currentColor"
     id="rect222" />
  <text
     font-family="'Roboto Light'"
     font-size="2.2001px"
     text-anchor="start"
     fill="currentColor"
     id="text226"
     x="92.06414"
     y="32.474998"><tspan
       id="tspan224">∙</tspan></text>
  <text
     font-family="'Roboto Light'"
     font-size="2.2001px"
     text-anchor="start"
     fill="currentColor"
     id="text230"
     x="89.947243"
     y="29.674999"><tspan
       id="tspan228">Fraco</tspan></text>
  <text
     font-family="'Roboto Light'"
     font-size="2.2001px"
     text-anchor="start"
     fill="currentColor"
     id="text234"
     x="92.132439"
     y="26.875"><tspan
       id="tspan232">2</tspan></text>
  <path
     d="m 92.968941,20.823 c 0.224,0 0.436,0.116 0.436,0.364 0,0.288 -0.224,0.484 -0.412,0.596 -0.144,0.084 -0.304,0.144 -0.468,0.144 -0.224,0 -0.436,-0.116 -0.436,-0.364 0,-0.288 0.224,-0.484 0.412,-0.596 0.144,-0.084 0.304,-0.144 0.468,-0.144 z"
     fill="currentColor"
     id="path236"
     style="stroke-width:0.004" />
  <path
     d="m 92.968941,11.823 c 0.224,0 0.436,0.116 0.436,0.364 0,0.288 -0.224,0.484 -0.412,0.596 -0.144,0.084 -0.304,0.144 -0.468,0.144 -0.224,0 -0.436,-0.116 -0.436,-0.364 0,-0.288 0.224,-0.484 0.412,-0.596 0.144,-0.084 0.304,-0.144 0.468,-0.144 z"
     fill="currentColor"
     id="path238"
     style="stroke-width:0.004" />
  <rect
     x="90.706039"
     y="18.375"
     width="0.13"
     height="2.8122001"
     ry="0.039999999"
     fill="currentColor"
     id="rect240" />
  <rect
     x="90.706039"
     y="0.041699886"
     width="0.13"
     height="3.1454999"
     ry="0.039999999"
     fill="currentColor"
     id="rect242" />
  <path
     d="m 90.399841,20.823 c 0.224,0 0.436,0.116 0.436,0.364 0,0.288 -0.224,0.484 -0.412,0.596 -0.144,0.084 -0.304,0.144 -0.468,0.144 -0.224,0 -0.436,-0.116 -0.436,-0.364 0,-0.288 0.224,-0.484 0.412,-0.596 0.144,-0.084 0.304,-0.144 0.468,-0.144 z"
     fill="currentColor"
     id="path244"
     style="stroke-width:0.004" />
  <path
     d="m 90.399841,2.823 c 0.224,0 0.436,0.116 0.436,0.364 0,0.288 -0.224,0.484 -0.412,0.596 -0.144,0.084 -0.304,0.144 -0.468,0.144 -0.224,0 -0.436,-0.116 -0.436,-0.364 0,-0.288 0.224,-0.484 0.412,-0.596 0.144,-0.084 0.304,-0.144 0.468,-0.144 z"
     fill="currentColor"
     id="path246"
     style="stroke-width:0.004" />
  <rect
     x="88.13694"
     y="18.375"
     width="0.13"
     height="2.8122001"
     ry="0.039999999"
     fill="currentColor"
     id="rect248" />
  <path
     d="m 87.830741,20.823 c 0.224,0 0.436,0.116 0.436,0.364 0,0.288 -0.224,0.484 -0.412,0.596 -0.144,0.084 -0.304,0.144 -0.468,0.144 -0.224,0 -0.436,-0.116 -0.436,-0.364 0,-0.288 0.224,-0.484 0.412,-0.596 0.144,-0.084 0.304,-0.144 0.468,-0.144 z"
     fill="currentColor"
     id="path250"
     style="stroke-width:0.004" />
  <rect
     x="30.617641"
     y="18.375"
     width="0.13"
     height="2.8122001"
     ry="0.039999999"
     fill="currentColor"
     id="rect252" />
  <rect
     x="30.617641"
     y="9.0416994"
     width="0.13"
     height="3.1454999"
     ry="0.039999999"
     fill="currentColor"
     id="rect254" />
  <path
     d="m 31.197641,11.875 c 0,-0.124 0.1,-0.224 0.224,-0.224 0.124,0 0.224,0.1 0.224,0.224 0,0.124 -0.1,0.224 -0.224,0.224 -0.124,0 -0.224,-0.1 -0.224,-0.224 z"
     fill="currentColor"
     id="path256"
     style="stroke-width:0.004" />
  <rect
     x="30.617641"
     y="0.375"
     width="0.13"
     height="2.8122001"
     ry="0.039999999"
     fill="currentColor"
     id="rect258" />
  <text
     font-family="'Roboto Light'"
     font-size="2.2001px"
     text-anchor="start"
     fill="currentColor"
     id="text262"
     x="29.406641"
     y="32.474998"><tspan
       id="tspan260">∙</tspan></text>
  <text
     font-family="'Roboto Light'"
     font-size="2.2001px"
     text-anchor="start"
     fill="currentColor"
     id="text266"
     x="27.289742"
     y="29.674999"><tspan
       id="tspan264">Fraco</tspan></text>
  <text
     font-family="'Roboto Light'"
     font-size="2.2001px"
     text-anchor="start"
     fill="currentColor"
     id="text270"
     x="29.474941"
     y="26.875"><tspan
       id="tspan268">2</tspan></text>
  <path
     d="m 30.311441,20.823 c 0.224,0 0.436,0.116 0.436,0.364 0,0.288 -0.224,0.484 -0.412,0.596 -0.144,0.084 -0.304,0.144 -0.468,0.144 -0.224,0 -0.436,-0.116 -0.436,-0.364 0,-0.288 0.224,-0.484 0.412,-0.596 0.144,-0.084 0.304,-0.144 0.468,-0.144 z"
     fill="currentColor"
     id="path272"
     style="stroke-width:0.004" />
  <path
     d="m 30.311441,11.823 c 0.224,0 0.436,0.116 0.436,0.364 0,0.288 -0.224,0.484 -0.412,0.596 -0.144,0.084 -0.304,0.144 -0.468,0.144 -0.224,0 -0.436,-0.116 -0.436,-0.364 0,-0.288 0.224,-0.484 0.412,-0.596 0.144,-0.084 0.304,-0.144 0.468,-0.144 z"
     fill="currentColor"
     id="path274"
     style="stroke-width:0.004" />
  <path
     d="m 30.311441,2.823 c 0.224,0 0.436,0.116 0.436,0.364 0,0.288 -0.224,0.484 -0.412,0.596 -0.144,0.084 -0.304,0.144 -0.468,0.144 -0.224,0 -0.436,-0.116 -0.436,-0.364 0,-0.288 0.224,-0.484 0.412,-0.596 0.144,-0.084 0.304,-0.144 0.468,-0.144 z"
     fill="currentColor"
     id="path276"
     style="stroke-width:0.004" />
  <rect
     x="28.048542"
     y="18.375"
     width="0.13"
     height="2.8122001"
     ry="0.039999999"
     fill="currentColor"
     id="rect278" />
  <text
     font-family="'Roboto Light'"
     font-size="2.2001px"
     text-anchor="start"
     fill="currentColor"
     id="text282"
     x="35.236042"
     y="29.674999"><tspan
       id="tspan280">Forte</tspan></text>
  <text
     font-family="'Roboto Light'"
     font-size="2.2001px"
     text-anchor="start"
     fill="currentColor"
     id="text286"
     x="37.18224"
     y="26.875"><tspan
       id="tspan284">3</tspan></text>
  <path
     d="m 38.018741,20.823 c 0.224,0 0.436,0.116 0.436,0.364 0,0.288 -0.224,0.484 -0.412,0.596 -0.144,0.084 -0.304,0.144 -0.468,0.144 -0.224,0 -0.436,-0.116 -0.436,-0.364 0,-0.288 0.224,-0.484 0.412,-0.596 0.144,-0.084 0.304,-0.144 0.468,-0.144 z"
     fill="currentColor"
     id="path288"
     style="stroke-width:0.004" />
  <path
     d="m 38.018741,11.823 c 0.224,0 0.436,0.116 0.436,0.364 0,0.288 -0.224,0.484 -0.412,0.596 -0.144,0.084 -0.304,0.144 -0.468,0.144 -0.224,0 -0.436,-0.116 -0.436,-0.364 0,-0.288 0.224,-0.484 0.412,-0.596 0.144,-0.084 0.304,-0.144 0.468,-0.144 z"
     fill="currentColor"
     id="path290"
     style="stroke-width:0.004" />
  <path
     d="m 38.018741,2.823 c 0.224,0 0.436,0.116 0.436,0.364 0,0.288 -0.224,0.484 -0.412,0.596 -0.144,0.084 -0.304,0.144 -0.468,0.144 -0.224,0 -0.436,-0.116 -0.436,-0.364 0,-0.288 0.224,-0.484 0.412,-0.596 0.144,-0.084 0.304,-0.144 0.468,-0.144 z"
     fill="currentColor"
     id="path292"
     style="stroke-width:0.004" />
  <rect
     x="35.75584"
     y="18.375"
     width="0.13"
     height="2.8122001"
     ry="0.039999999"
     fill="currentColor"
     id="rect294" />
  <rect
     x="35.75584"
     y="0.375"
     width="0.13"
     height="2.8122001"
     ry="0.039999999"
     fill="currentColor"
     id="rect296" />
  <path
     d="m 35.449641,20.823 c 0.224,0 0.436,0.116 0.436,0.364 0,0.288 -0.224,0.484 -0.412,0.596 -0.144,0.084 -0.304,0.144 -0.468,0.144 -0.224,0 -0.436,-0.116 -0.436,-0.364 0,-0.288 0.224,-0.484 0.412,-0.596 0.144,-0.084 0.304,-0.144 0.468,-0.144 z"
     fill="currentColor"
     id="path298"
     style="stroke-width:0.004" />
  <path
     d="m 35.449641,2.823 c 0.224,0 0.436,0.116 0.436,0.364 0,0.288 -0.224,0.484 -0.412,0.596 -0.144,0.084 -0.304,0.144 -0.468,0.144 -0.224,0 -0.436,-0.116 -0.436,-0.364 0,-0.288 0.224,-0.484 0.412,-0.596 0.144,-0.084 0.304,-0.144 0.468,-0.144 z"
     fill="currentColor"
     id="path300"
     style="stroke-width:0.004" />
  <rect
     x="33.186741"
     y="18.375"
     width="0.13"
     height="2.8122001"
     ry="0.039999999"
     fill="currentColor"
     id="rect302" />
  <rect
     x="33.186741"
     y="0.375"
     width="0.13"
     height="2.8122001"
     ry="0.039999999"
     fill="currentColor"
     id="rect304" />
  <path
     d="m 32.880541,20.823 c 0.224,0 0.436,0.116 0.436,0.364 0,0.288 -0.224,0.484 -0.412,0.596 -0.144,0.084 -0.304,0.144 -0.468,0.144 -0.224,0 -0.436,-0.116 -0.436,-0.364 0,-0.288 0.224,-0.484 0.412,-0.596 0.144,-0.084 0.304,-0.144 0.468,-0.144 z"
     fill="currentColor"
     id="path306"
     style="stroke-width:0.004" />
  <path
     d="m 32.880541,2.823 c 0.224,0 0.436,0.116 0.436,0.364 0,0.288 -0.224,0.484 -0.412,0.596 -0.144,0.084 -0.304,0.144 -0.468,0.144 -0.224,0 -0.436,-0.116 -0.436,-0.364 0,-0.288 0.224,-0.484 0.412,-0.596 0.144,-0.084 0.304,-0.144 0.468,-0.144 z"
     fill="currentColor"
     id="path308"
     style="stroke-width:0.004" />
  <rect
     x="22.910341"
     y="9.0416994"
     width="0.13"
     height="3.1454999"
     ry="0.039999999"
     fill="currentColor"
     id="rect310" />
  <path
     d="m 23.490341,11.875 c 0,-0.124 0.1,-0.224 0.224,-0.224 0.124,0 0.224,0.1 0.224,0.224 0,0.124 -0.1,0.224 -0.224,0.224 -0.124,0 -0.224,-0.1 -0.224,-0.224 z"
     fill="currentColor"
     id="path312"
     style="stroke-width:0.004" />
  <rect
     x="22.910341"
     y="0.375"
     width="0.13"
     height="2.8122001"
     ry="0.039999999"
     fill="currentColor"
     id="rect314" />
  <text
     font-family="'Roboto Slab Light'"
     font-size="2.2001px"
     text-anchor="start"
     fill="currentColor"
     id="text318"
     x="9.9442415"
     y="32.474998"><tspan
       id="tspan316">Símbolo:</tspan></text>
  <text
     font-family="'Roboto Light'"
     font-size="2.2001px"
     text-anchor="start"
     fill="currentColor"
     id="text322"
     x="21.528641"
     y="32.474998"><tspan
       id="tspan320">—</tspan></text>
  <text
     font-family="'Roboto Slab Light'"
     font-size="2.2001px"
     text-anchor="start"
     fill="currentColor"
     id="text326"
     x="11.344141"
     y="29.674999"><tspan
       id="tspan324">Ênfase:</tspan></text>
  <text
     font-family="'Roboto Light'"
     font-size="2.2001px"
     text-anchor="start"
     fill="currentColor"
     id="text330"
     x="19.821541"
     y="29.674999"><tspan
       id="tspan328">Forte</tspan></text>
  <text
     font-family="'Roboto Slab Light'"
     font-size="2.2001px"
     text-anchor="start"
     fill="currentColor"
     id="text334"
     x="12.744041"
     y="26.875"><tspan
       id="tspan332">Pulso:</tspan></text>
  <text
     font-family="'Roboto Light'"
     font-size="2.2001px"
     text-anchor="start"
     fill="currentColor"
     id="text338"
     x="21.767641"
     y="26.875"><tspan
       id="tspan336">1</tspan></text>
  <path
     d="m 12.611941,22.2375 c 0.108,-0.116 0.196,-0.248 0.196,-0.408 0,-0.22 -0.228,-0.348 -0.468,-0.348 -0.188,0 -0.3,0.144 -0.3,0.284 0,0.08 0.04,0.16 0.12,0.208 z m 0.12,0.068 c 0.22,0.124 0.332,0.316 0.332,0.508 0,0.292 -0.264,0.576 -0.756,0.576 -0.376,0 -0.732,-0.216 -0.732,-0.56 0,-0.2 0.156,-0.34 0.304,-0.48 -0.164,-0.112 -0.244,-0.268 -0.244,-0.424 0,-0.272 0.244,-0.536 0.704,-0.536 0.324,0 0.644,0.152 0.644,0.44 0,0.188 -0.12,0.34 -0.252,0.476 z m -0.732,0.116 c -0.132,0.116 -0.248,0.236 -0.248,0.408 0,0.276 0.264,0.468 0.556,0.468 0.216,0 0.344,-0.168 0.344,-0.332 0,-0.096 -0.04,-0.192 -0.14,-0.248 z"
     fill="currentColor"
     id="path340"
     style="stroke-width:0.004" />
  <g
     transform="translate(10.944241,21.375)"
     id="g346">
    <path
       transform="scale(0.004,-0.004)"
       d="m 122,503 c 18,0 34,-16 53,-16 15,0 29,7 42,13 1,1 3,1 4,1 7,0 12,-7 12,-17 V 117 c 0,-48 28,-94 73,-94 8,0 12,-5 12,-11 C 318,6 314,0 306,0 262,0 219,13 175,13 131,13 88,0 44,0 36,0 32,6 32,12 c 0,6 4,11 12,11 45,0 73,46 73,94 v 245 c 0,12 -9,19 -17,19 -4,0 -8,-3 -10,-7 L 26,238 c -3,-6 -7,-9 -12,-9 -8,0 -16,6 -16,14 0,2 1,5 2,7 l 117,250 c 1,2 3,3 5,3 z"
       fill="currentColor"
       id="path342" />
    <path
       transform="matrix(0.004,0,0,-0.004,1.2633,0)"
       d="M 23,11 C 22,4 17,0 12,0 6,0 0,4 0,11 c 0,175 235,165 235,344 0,60 -18,122 -70,122 -26,0 -51,-14 -51,-37 0,-27 35,-41 35,-68 0,-38 -30,-69 -68,-69 -38,0 -69,31 -69,69 0,76 72,128 153,128 96,0 187,-56 187,-145 0,-153 -151,-159 -249,-220 9,2 17,3 26,3 33,0 70,-11 105,-36 21,-15 46,-23 66,-23 21,0 39,9 44,29 2,6 6,9 11,9 6,0 12,-5 12,-12 C 367,38 277,0 229,0 193,0 158,14 133,44 120,60 102,66 85,66 55,66 26,46 23,11 Z"
       fill="currentColor"
       id="path344" />
  </g>
  <path
     d="m 22.604141,20.823 c 0.224,0 0.436,0.116 0.436,0.364 0,0.288 -0.224,0.484 -0.412,0.596 -0.144,0.084 -0.304,0.144 -0.468,0.144 -0.224,0 -0.436,-0.116 -0.436,-0.364 0,-0.288 0.224,-0.484 0.412,-0.596 0.144,-0.084 0.304,-0.144 0.468,-0.144 z"
     fill="currentColor"
     id="path348"
     style="stroke-width:0.004" />
  <path
     d="m 12.611941,13.2375 c 0.108,-0.116 0.196,-0.248 0.196,-0.408 0,-0.22 -0.228,-0.348 -0.468,-0.348 -0.188,0 -0.3,0.144 -0.3,0.284 0,0.08 0.04,0.16 0.12,0.208 z m 0.12,0.068 c 0.22,0.124 0.332,0.316 0.332,0.508 0,0.292 -0.264,0.576 -0.756,0.576 -0.376,0 -0.732,-0.216 -0.732,-0.56 0,-0.2 0.156,-0.34 0.304,-0.48 -0.164,-0.112 -0.244,-0.268 -0.244,-0.424 0,-0.272 0.244,-0.536 0.704,-0.536 0.324,0 0.644,0.152 0.644,0.44 0,0.188 -0.12,0.34 -0.252,0.476 z m -0.732,0.116 c -0.132,0.116 -0.248,0.236 -0.248,0.408 0,0.276 0.264,0.468 0.556,0.468 0.216,0 0.344,-0.168 0.344,-0.332 0,-0.096 -0.04,-0.192 -0.14,-0.248 z"
     fill="currentColor"
     id="path350"
     style="stroke-width:0.004" />
  <g
     transform="translate(10.944241,12.375)"
     id="g356">
    <path
       transform="scale(0.004,-0.004)"
       d="m 122,503 c 18,0 34,-16 53,-16 15,0 29,7 42,13 1,1 3,1 4,1 7,0 12,-7 12,-17 V 117 c 0,-48 28,-94 73,-94 8,0 12,-5 12,-11 C 318,6 314,0 306,0 262,0 219,13 175,13 131,13 88,0 44,0 36,0 32,6 32,12 c 0,6 4,11 12,11 45,0 73,46 73,94 v 245 c 0,12 -9,19 -17,19 -4,0 -8,-3 -10,-7 L 26,238 c -3,-6 -7,-9 -12,-9 -8,0 -16,6 -16,14 0,2 1,5 2,7 l 117,250 c 1,2 3,3 5,3 z"
       fill="currentColor"
       id="path352" />
    <path
       transform="matrix(0.004,0,0,-0.004,1.2633,0)"
       d="M 23,11 C 22,4 17,0 12,0 6,0 0,4 0,11 c 0,175 235,165 235,344 0,60 -18,122 -70,122 -26,0 -51,-14 -51,-37 0,-27 35,-41 35,-68 0,-38 -30,-69 -68,-69 -38,0 -69,31 -69,69 0,76 72,128 153,128 96,0 187,-56 187,-145 0,-153 -151,-159 -249,-220 9,2 17,3 26,3 33,0 70,-11 105,-36 21,-15 46,-23 66,-23 21,0 39,9 44,29 2,6 6,9 11,9 6,0 12,-5 12,-12 C 367,38 277,0 229,0 193,0 158,14 133,44 120,60 102,66 85,66 55,66 26,46 23,11 Z"
       fill="currentColor"
       id="path354" />
  </g>
  <path
     d="m 22.604141,11.823 c 0.224,0 0.436,0.116 0.436,0.364 0,0.288 -0.224,0.484 -0.412,0.596 -0.144,0.084 -0.304,0.144 -0.468,0.144 -0.224,0 -0.436,-0.116 -0.436,-0.364 0,-0.288 0.224,-0.484 0.412,-0.596 0.144,-0.084 0.304,-0.144 0.468,-0.144 z"
     fill="currentColor"
     id="path358"
     style="stroke-width:0.004" />
  <path
     d="m 12.611941,4.2375 c 0.108,-0.116 0.196,-0.248 0.196,-0.408 0,-0.22 -0.228,-0.348 -0.468,-0.348 -0.188,0 -0.3,0.144 -0.3,0.284 0,0.08 0.04,0.16 0.12,0.208 z m 0.12,0.068 c 0.22,0.124 0.332,0.316 0.332,0.508 0,0.292 -0.264,0.576 -0.756,0.576 -0.376,0 -0.732,-0.216 -0.732,-0.56 0,-0.2 0.156,-0.34 0.304,-0.48 -0.164,-0.112 -0.244,-0.268 -0.244,-0.424 0,-0.272 0.244,-0.536 0.704,-0.536 0.324,0 0.644,0.152 0.644,0.44 0,0.188 -0.12,0.34 -0.252,0.476 z m -0.732,0.116 c -0.132,0.116 -0.248,0.236 -0.248,0.408 0,0.276 0.264,0.468 0.556,0.468 0.216,0 0.344,-0.168 0.344,-0.332 0,-0.096 -0.04,-0.192 -0.14,-0.248 z"
     fill="currentColor"
     id="path360"
     style="stroke-width:0.004" />
  <g
     transform="translate(10.944241,3.375)"
     id="g366">
    <path
       transform="scale(0.004,-0.004)"
       d="m 122,503 c 18,0 34,-16 53,-16 15,0 29,7 42,13 1,1 3,1 4,1 7,0 12,-7 12,-17 V 117 c 0,-48 28,-94 73,-94 8,0 12,-5 12,-11 C 318,6 314,0 306,0 262,0 219,13 175,13 131,13 88,0 44,0 36,0 32,6 32,12 c 0,6 4,11 12,11 45,0 73,46 73,94 v 245 c 0,12 -9,19 -17,19 -4,0 -8,-3 -10,-7 L 26,238 c -3,-6 -7,-9 -12,-9 -8,0 -16,6 -16,14 0,2 1,5 2,7 l 117,250 c 1,2 3,3 5,3 z"
       fill="currentColor"
       id="path362" />
    <path
       transform="matrix(0.004,0,0,-0.004,1.2633,0)"
       d="M 23,11 C 22,4 17,0 12,0 6,0 0,4 0,11 c 0,175 235,165 235,344 0,60 -18,122 -70,122 -26,0 -51,-14 -51,-37 0,-27 35,-41 35,-68 0,-38 -30,-69 -68,-69 -38,0 -69,31 -69,69 0,76 72,128 153,128 96,0 187,-56 187,-145 0,-153 -151,-159 -249,-220 9,2 17,3 26,3 33,0 70,-11 105,-36 21,-15 46,-23 66,-23 21,0 39,9 44,29 2,6 6,9 11,9 6,0 12,-5 12,-12 C 367,38 277,0 229,0 193,0 158,14 133,44 120,60 102,66 85,66 55,66 26,46 23,11 Z"
       fill="currentColor"
       id="path364" />
  </g>
  <path
     d="m 22.604141,2.823 c 0.224,0 0.436,0.116 0.436,0.364 0,0.288 -0.224,0.484 -0.412,0.596 -0.144,0.084 -0.304,0.144 -0.468,0.144 -0.224,0 -0.436,-0.116 -0.436,-0.364 0,-0.288 0.224,-0.484 0.412,-0.596 0.144,-0.084 0.304,-0.144 0.468,-0.144 z"
     fill="currentColor"
     id="path368"
     style="stroke-width:0.004" />
  <rect
     x="9.8842411"
     y="3.3249998"
     width="0.16"
     height="18.1"
     ry="0.050000001"
     fill="currentColor"
     id="rect370" />
  <text
     font-family="'Roboto Slab Light'"
     font-size="1.96px"
     text-anchor="start"
     fill="currentColor"
     id="text374"
     x="-0.041758597"
     y="20.421301"><tspan
       id="tspan372">Divisão do</tspan></text>
  <text
     font-family="'Roboto Slab Light'"
     font-size="1.96px"
     text-anchor="start"
     fill="currentColor"
     id="text378"
     x="4.0896416"
     y="23.421301"><tspan
       id="tspan376">pulso:</tspan></text>
  <text
     font-family="'Roboto Slab Light'"
     font-size="1.96px"
     text-anchor="start"
     fill="currentColor"
     id="text382"
     x="3.0653415"
     y="13.1091"><tspan
       id="tspan380">Pulsos:</tspan></text>
  <text
     font-family="'Roboto Slab Light'"
     font-size="1.96px"
     text-anchor="start"
     fill="currentColor"
     id="text386"
     x="-0.1100586"
     y="2.3871"><tspan
       id="tspan384">Compasso</tspan></text>
  <text
     font-family="'Roboto Slab Light'"
     font-size="1.96px"
     text-anchor="start"
     fill="currentColor"
     id="text390"
     x="-0.0075585959"
     y="5.3871002"><tspan
       id="tspan388">composto:</tspan></text>
  <rect
     x="28.048542"
     y="0.375"
     width="0.13"
     height="2.8122001"
     ry="0.039999999"
     fill="currentColor"
     id="rect392" />
  <path
     d="m 27.742341,20.823 c 0.224,0 0.436,0.116 0.436,0.364 0,0.288 -0.224,0.484 -0.412,0.596 -0.144,0.084 -0.304,0.144 -0.468,0.144 -0.224,0 -0.436,-0.116 -0.436,-0.364 0,-0.288 0.224,-0.484 0.412,-0.596 0.144,-0.084 0.304,-0.144 0.468,-0.144 z"
     fill="currentColor"
     id="path394"
     style="stroke-width:0.004" />
  <path
     d="m 27.742341,2.823 c 0.224,0 0.436,0.116 0.436,0.364 0,0.288 -0.224,0.484 -0.412,0.596 -0.144,0.084 -0.304,0.144 -0.468,0.144 -0.224,0 -0.436,-0.116 -0.436,-0.364 0,-0.288 0.224,-0.484 0.412,-0.596 0.144,-0.084 0.304,-0.144 0.468,-0.144 z"
     fill="currentColor"
     id="path396"
     style="stroke-width:0.004" />
  <rect
     x="25.479441"
     y="18.375"
     width="0.13"
     height="2.8122001"
     ry="0.039999999"
     fill="currentColor"
     id="rect398" />
  <rect
     x="25.479441"
     y="0.375"
     width="0.13"
     height="2.8122001"
     ry="0.039999999"
     fill="currentColor"
     id="rect400" />
  <path
     d="m 25.173241,20.823 c 0.224,0 0.436,0.116 0.436,0.364 0,0.288 -0.224,0.484 -0.412,0.596 -0.144,0.084 -0.304,0.144 -0.468,0.144 -0.224,0 -0.436,-0.116 -0.436,-0.364 0,-0.288 0.224,-0.484 0.412,-0.596 0.144,-0.084 0.304,-0.144 0.468,-0.144 z"
     fill="currentColor"
     id="path402"
     style="stroke-width:0.004" />
  <path
     d="m 25.173241,2.823 c 0.224,0 0.436,0.116 0.436,0.364 0,0.288 -0.224,0.484 -0.412,0.596 -0.144,0.084 -0.304,0.144 -0.468,0.144 -0.224,0 -0.436,-0.116 -0.436,-0.364 0,-0.288 0.224,-0.484 0.412,-0.596 0.144,-0.084 0.304,-0.144 0.468,-0.144 z"
     fill="currentColor"
     id="path404"
     style="stroke-width:0.004" />
  <rect
     x="22.910341"
     y="18.375"
     width="0.13"
     height="2.8122001"
     ry="0.039999999"
     fill="currentColor"
     id="rect406" />
  <path
     d="m 50.864241,2.823 c 0.224,0 0.436,0.116 0.436,0.364 0,0.288 -0.224,0.484 -0.412,0.596 -0.144,0.084 -0.304,0.144 -0.468,0.144 -0.224,0 -0.436,-0.116 -0.436,-0.364 0,-0.288 0.224,-0.484 0.412,-0.596 0.144,-0.084 0.304,-0.144 0.468,-0.144 z"
     fill="currentColor"
     id="path408"
     style="stroke-width:0.004" />
  <rect
     x="48.601341"
     y="18.375"
     width="0.13"
     height="2.8122001"
     ry="0.039999999"
     fill="currentColor"
     id="rect410" />
  <rect
     x="48.601341"
     y="0.375"
     width="0.13"
     height="2.8122001"
     ry="0.039999999"
     fill="currentColor"
     id="rect412" />
  <path
     d="m 48.295141,20.823 c 0.224,0 0.436,0.116 0.436,0.364 0,0.288 -0.224,0.484 -0.412,0.596 -0.144,0.084 -0.304,0.144 -0.468,0.144 -0.224,0 -0.436,-0.116 -0.436,-0.364 0,-0.288 0.224,-0.484 0.412,-0.596 0.144,-0.084 0.304,-0.144 0.468,-0.144 z"
     fill="currentColor"
     id="path414"
     style="stroke-width:0.004" />
  <path
     d="m 48.295141,2.823 c 0.224,0 0.436,0.116 0.436,0.364 0,0.288 -0.224,0.484 -0.412,0.596 -0.144,0.084 -0.304,0.144 -0.468,0.144 -0.224,0 -0.436,-0.116 -0.436,-0.364 0,-0.288 0.224,-0.484 0.412,-0.596 0.144,-0.084 0.304,-0.144 0.468,-0.144 z"
     fill="currentColor"
     id="path416"
     style="stroke-width:0.004" />
  <rect
     x="46.032242"
     y="18.375"
     width="0.13"
     height="2.8122001"
     ry="0.039999999"
     fill="currentColor"
     id="rect418" />
  <rect
     x="46.032242"
     y="9.0416994"
     width="0.13"
     height="3.1454999"
     ry="0.039999999"
     fill="currentColor"
     id="rect420" />
  <path
     d="m 46.612241,11.875 c 0,-0.124 0.1,-0.224 0.224,-0.224 0.124,0 0.224,0.1 0.224,0.224 0,0.124 -0.1,0.224 -0.224,0.224 -0.124,0 -0.224,-0.1 -0.224,-0.224 z"
     fill="currentColor"
     id="path422"
     style="stroke-width:0.004" />
  <rect
     x="46.032242"
     y="0.375"
     width="0.13"
     height="2.8122001"
     ry="0.039999999"
     fill="currentColor"
     id="rect424" />
  <text
     font-family="'Roboto Light'"
     font-size="2.2001px"
     text-anchor="start"
     fill="currentColor"
     id="text428"
     x="44.821243"
     y="32.474998"><tspan
       id="tspan426">∙</tspan></text>
  <rect
     x="58.20924"
     y="9.0416994"
     width="0.13"
     height="3.1454999"
     ry="0.039999999"
     fill="currentColor"
     id="rect430" />
  <path
     d="m 58.789241,11.875 c 0,-0.124 0.1,-0.224 0.224,-0.224 0.124,0 0.224,0.1 0.224,0.224 0,0.124 -0.1,0.224 -0.224,0.224 -0.124,0 -0.224,-0.1 -0.224,-0.224 z"
     fill="currentColor"
     id="path432"
     style="stroke-width:0.004" />
  <text
     font-family="'Roboto Light'"
     font-size="2.2001px"
     text-anchor="start"
     fill="currentColor"
     id="text436"
     x="56.827541"
     y="32.474998"><tspan
       id="tspan434">—</tspan></text>
  <text
     font-family="'Roboto Light'"
     font-size="2.2001px"
     text-anchor="start"
     fill="currentColor"
     id="text440"
     x="55.120441"
     y="29.674999"><tspan
       id="tspan438">Forte</tspan></text>
  <text
     font-family="'Roboto Light'"
     font-size="2.2001px"
     text-anchor="start"
     fill="currentColor"
     id="text444"
     x="57.06654"
     y="26.875"><tspan
       id="tspan442">1</tspan></text>
  <path
     d="m 54.590941,22.2375 c 0.108,-0.116 0.196,-0.248 0.196,-0.408 0,-0.22 -0.228,-0.348 -0.468,-0.348 -0.188,0 -0.3,0.144 -0.3,0.284 0,0.08 0.04,0.16 0.12,0.208 z m 0.12,0.068 c 0.22,0.124 0.332,0.316 0.332,0.508 0,0.292 -0.264,0.576 -0.756,0.576 -0.376,0 -0.732,-0.216 -0.732,-0.56 0,-0.2 0.156,-0.34 0.304,-0.48 -0.164,-0.112 -0.244,-0.268 -0.244,-0.424 0,-0.272 0.244,-0.536 0.704,-0.536 0.324,0 0.644,0.152 0.644,0.44 0,0.188 -0.12,0.34 -0.252,0.476 z m -0.732,0.116 c -0.132,0.116 -0.248,0.236 -0.248,0.408 0,0.276 0.264,0.468 0.556,0.468 0.216,0 0.344,-0.168 0.344,-0.332 0,-0.096 -0.04,-0.192 -0.14,-0.248 z"
     fill="currentColor"
     id="path446"
     style="stroke-width:0.004" />
  <path
     d="m 54.286141,20.399 c 0.204,0 0.212,-0.176 0.212,-0.408 v -0.056 -0.06 c 0,-0.232 -0.008,-0.408 -0.212,-0.408 -0.228,0 -0.244,0.204 -0.244,0.468 0,0.264 0.016,0.464 0.244,0.464 z m 0.212,0.04 c -0.068,0.028 -0.136,0.052 -0.212,0.052 -0.404,0 -0.68,-0.176 -0.68,-0.556 0,-0.38 0.276,-0.56 0.68,-0.56 0.448,0 0.68,0.496 0.68,1 0,0.512 -0.288,1 -0.76,1 -0.284,0 -0.552,-0.156 -0.552,-0.412 0,-0.144 0.116,-0.264 0.26,-0.264 0.144,0 0.264,0.12 0.264,0.264 0,0.096 -0.156,0.1 -0.156,0.196 0,0.08 0.092,0.124 0.184,0.124 0.264,0 0.3,-0.26 0.3,-0.556 0,-0.096 -0.008,-0.192 -0.008,-0.288 z"
     fill="currentColor"
     id="path448"
     style="stroke-width:0.004" />
  <path
     d="m 57.903041,20.823 c 0.224,0 0.436,0.116 0.436,0.364 0,0.288 -0.224,0.484 -0.412,0.596 -0.144,0.084 -0.304,0.144 -0.468,0.144 -0.224,0 -0.436,-0.116 -0.436,-0.364 0,-0.288 0.224,-0.484 0.412,-0.596 0.144,-0.084 0.304,-0.144 0.468,-0.144 z"
     fill="currentColor"
     id="path450"
     style="stroke-width:0.004" />
  <path
     d="m 54.590941,13.2375 c 0.108,-0.116 0.196,-0.248 0.196,-0.408 0,-0.22 -0.228,-0.348 -0.468,-0.348 -0.188,0 -0.3,0.144 -0.3,0.284 0,0.08 0.04,0.16 0.12,0.208 z m 0.12,0.068 c 0.22,0.124 0.332,0.316 0.332,0.508 0,0.292 -0.264,0.576 -0.756,0.576 -0.376,0 -0.732,-0.216 -0.732,-0.56 0,-0.2 0.156,-0.34 0.304,-0.48 -0.164,-0.112 -0.244,-0.268 -0.244,-0.424 0,-0.272 0.244,-0.536 0.704,-0.536 0.324,0 0.644,0.152 0.644,0.44 0,0.188 -0.12,0.34 -0.252,0.476 z m -0.732,0.116 c -0.132,0.116 -0.248,0.236 -0.248,0.408 0,0.276 0.264,0.468 0.556,0.468 0.216,0 0.344,-0.168 0.344,-0.332 0,-0.096 -0.04,-0.192 -0.14,-0.248 z"
     fill="currentColor"
     id="path452"
     style="stroke-width:0.004" />
  <path
     d="m 54.286141,11.399 c 0.204,0 0.212,-0.176 0.212,-0.408 v -0.056 -0.06 c 0,-0.232 -0.008,-0.408 -0.212,-0.408 -0.228,0 -0.244,0.204 -0.244,0.468 0,0.264 0.016,0.464 0.244,0.464 z m 0.212,0.04 c -0.068,0.028 -0.136,0.052 -0.212,0.052 -0.404,0 -0.68,-0.176 -0.68,-0.556 0,-0.38 0.276,-0.56 0.68,-0.56 0.448,0 0.68,0.496 0.68,1 0,0.512 -0.288,1 -0.76,1 -0.284,0 -0.552,-0.156 -0.552,-0.412 0,-0.144 0.116,-0.264 0.26,-0.264 0.144,0 0.264,0.12 0.264,0.264 0,0.096 -0.156,0.1 -0.156,0.196 0,0.08 0.092,0.124 0.184,0.124 0.264,0 0.3,-0.26 0.3,-0.556 0,-0.096 -0.008,-0.192 -0.008,-0.288 z"
     fill="currentColor"
     id="path454"
     style="stroke-width:0.004" />
  <path
     d="m 57.903041,11.823 c 0.224,0 0.436,0.116 0.436,0.364 0,0.288 -0.224,0.484 -0.412,0.596 -0.144,0.084 -0.304,0.144 -0.468,0.144 -0.224,0 -0.436,-0.116 -0.436,-0.364 0,-0.288 0.224,-0.484 0.412,-0.596 0.144,-0.084 0.304,-0.144 0.468,-0.144 z"
     fill="currentColor"
     id="path456"
     style="stroke-width:0.004" />
  <path
     d="m 54.590941,4.2375 c 0.108,-0.116 0.196,-0.248 0.196,-0.408 0,-0.22 -0.228,-0.348 -0.468,-0.348 -0.188,0 -0.3,0.144 -0.3,0.284 0,0.08 0.04,0.16 0.12,0.208 z m 0.12,0.068 c 0.22,0.124 0.332,0.316 0.332,0.508 0,0.292 -0.264,0.576 -0.756,0.576 -0.376,0 -0.732,-0.216 -0.732,-0.56 0,-0.2 0.156,-0.34 0.304,-0.48 -0.164,-0.112 -0.244,-0.268 -0.244,-0.424 0,-0.272 0.244,-0.536 0.704,-0.536 0.324,0 0.644,0.152 0.644,0.44 0,0.188 -0.12,0.34 -0.252,0.476 z m -0.732,0.116 c -0.132,0.116 -0.248,0.236 -0.248,0.408 0,0.276 0.264,0.468 0.556,0.468 0.216,0 0.344,-0.168 0.344,-0.332 0,-0.096 -0.04,-0.192 -0.14,-0.248 z"
     fill="currentColor"
     id="path458"
     style="stroke-width:0.004" />
  <path
     d="m 54.286141,2.399 c 0.204,0 0.212,-0.176 0.212,-0.408 V 1.935 1.875 c 0,-0.232 -0.008,-0.408 -0.212,-0.408 -0.228,0 -0.244,0.204 -0.244,0.468 0,0.264 0.016,0.464 0.244,0.464 z m 0.212,0.04 c -0.068,0.028 -0.136,0.052 -0.212,0.052 -0.404,0 -0.68,-0.176 -0.68,-0.556 0,-0.38 0.276,-0.56 0.68,-0.56 0.448,0 0.68,0.496 0.68,1 0,0.512 -0.288,1 -0.76,1 -0.284,0 -0.552,-0.156 -0.552,-0.412 0,-0.144 0.116,-0.264 0.26,-0.264 0.144,0 0.264,0.12 0.264,0.264 0,0.096 -0.156,0.1 -0.156,0.196 0,0.08 0.092,0.124 0.184,0.124 0.264,0 0.3,-0.26 0.3,-0.556 0,-0.096 -0.008,-0.192 -0.008,-0.288 z"
     fill="currentColor"
     id="path460"
     style="stroke-width:0.004" />
  <path
     d="m 57.311041,4.375 0.468,-1.304 c -0.136,0.048 -0.276,0.088 -0.42,0.088 -0.184,0 -0.348,-0.132 -0.348,-0.316 0,-0.16 0.132,-0.288 0.292,-0.288 0.1,0 0.192,0.06 0.224,0.156 0.04,0.112 0.024,0.236 0.14,0.236 0.064,0 0.216,-0.192 0.244,-0.252 0.024,-0.048 0.092,-0.048 0.112,0 l -0.492,1.68 c -0.032,0.028 -0.068,0.04 -0.108,0.04 -0.04,0 -0.08,-0.012 -0.112,-0.04 z"
     fill="currentColor"
     id="path462"
     style="stroke-width:0.004" />
  <rect
     x="51.170441"
     y="18.375"
     width="0.13"
     height="2.8122001"
     ry="0.039999999"
     fill="currentColor"
     id="rect464" />
  <rect
     x="51.170441"
     y="0.375"
     width="0.13"
     height="2.8122001"
     ry="0.039999999"
     fill="currentColor"
     id="rect466" />
  <path
     d="m 50.864241,20.823 c 0.224,0 0.436,0.116 0.436,0.364 0,0.288 -0.224,0.484 -0.412,0.596 -0.144,0.084 -0.304,0.144 -0.468,0.144 -0.224,0 -0.436,-0.116 -0.436,-0.364 0,-0.288 0.224,-0.484 0.412,-0.596 0.144,-0.084 0.304,-0.144 0.468,-0.144 z"
     fill="currentColor"
     id="path468"
     style="stroke-width:0.004" />
  <rect
     x="40.894043"
     y="18.375"
     width="0.13"
     height="2.8122001"
     ry="0.039999999"
     fill="currentColor"
     id="rect470" />
  <rect
     x="40.894043"
     y="0.375"
     width="0.13"
     height="2.8122001"
     ry="0.039999999"
     fill="currentColor"
     id="rect472" />
  <path
     d="m 40.587841,20.823 c 0.224,0 0.436,0.116 0.436,0.364 0,0.288 -0.224,0.484 -0.412,0.596 -0.144,0.084 -0.304,0.144 -0.468,0.144 -0.224,0 -0.436,-0.116 -0.436,-0.364 0,-0.288 0.224,-0.484 0.412,-0.596 0.144,-0.084 0.304,-0.144 0.468,-0.144 z"
     fill="currentColor"
     id="path474"
     style="stroke-width:0.004" />
  <path
     d="m 40.587841,2.823 c 0.224,0 0.436,0.116 0.436,0.364 0,0.288 -0.224,0.484 -0.412,0.596 -0.144,0.084 -0.304,0.144 -0.468,0.144 -0.224,0 -0.436,-0.116 -0.436,-0.364 0,-0.288 0.224,-0.484 0.412,-0.596 0.144,-0.084 0.304,-0.144 0.468,-0.144 z"
     fill="currentColor"
     id="path476"
     style="stroke-width:0.004" />
  <rect
     x="38.32494"
     y="18.375"
     width="0.13"
     height="2.8122001"
     ry="0.039999999"
     fill="currentColor"
     id="rect478" />
  <rect
     x="38.32494"
     y="9.0416994"
     width="0.13"
     height="3.1454999"
     ry="0.039999999"
     fill="currentColor"
     id="rect480" />
  <path
     d="m 38.904941,11.875 c 0,-0.124 0.1,-0.224 0.224,-0.224 0.124,0 0.224,0.1 0.224,0.224 0,0.124 -0.1,0.224 -0.224,0.224 -0.124,0 -0.224,-0.1 -0.224,-0.224 z"
     fill="currentColor"
     id="path482"
     style="stroke-width:0.004" />
  <rect
     x="38.32494"
     y="0.375"
     width="0.13"
     height="2.8122001"
     ry="0.039999999"
     fill="currentColor"
     id="rect484" />
  <text
     font-family="'Roboto Light'"
     font-size="2.2001px"
     text-anchor="start"
     fill="currentColor"
     id="text488"
     x="37.165142"
     y="32.474998"><tspan
       id="tspan486">−</tspan></text>
  <path
     d="m 45.726041,2.823 c 0.224,0 0.436,0.116 0.436,0.364 0,0.288 -0.224,0.484 -0.412,0.596 -0.144,0.084 -0.304,0.144 -0.468,0.144 -0.224,0 -0.436,-0.116 -0.436,-0.364 0,-0.288 0.224,-0.484 0.412,-0.596 0.144,-0.084 0.304,-0.144 0.468,-0.144 z"
     fill="currentColor"
     id="path490"
     style="stroke-width:0.004" />
  <rect
     x="43.463142"
     y="18.375"
     width="0.13"
     height="2.8122001"
     ry="0.039999999"
     fill="currentColor"
     id="rect492" />
  <path
     d="m 45.726041,11.823 c 0.224,0 0.436,0.116 0.436,0.364 0,0.288 -0.224,0.484 -0.412,0.596 -0.144,0.084 -0.304,0.144 -0.468,0.144 -0.224,0 -0.436,-0.116 -0.436,-0.364 0,-0.288 0.224,-0.484 0.412,-0.596 0.144,-0.084 0.304,-0.144 0.468,-0.144 z"
     fill="currentColor"
     id="path494"
     style="stroke-width:0.004" />
  <text
     font-family="'Roboto Light'"
     font-size="2.2001px"
     text-anchor="start"
     fill="currentColor"
     id="text498"
     x="42.704342"
     y="29.674999"><tspan
       id="tspan496">Fraco</tspan></text>
  <rect
     x="43.463142"
     y="0.375"
     width="0.13"
     height="2.8122001"
     ry="0.039999999"
     fill="currentColor"
     id="rect500" />
  <path
     d="m 45.726041,20.823 c 0.224,0 0.436,0.116 0.436,0.364 0,0.288 -0.224,0.484 -0.412,0.596 -0.144,0.084 -0.304,0.144 -0.468,0.144 -0.224,0 -0.436,-0.116 -0.436,-0.364 0,-0.288 0.224,-0.484 0.412,-0.596 0.144,-0.084 0.304,-0.144 0.468,-0.144 z"
     fill="currentColor"
     id="path502"
     style="stroke-width:0.004" />
  <path
     d="m 43.156941,2.823 c 0.224,0 0.436,0.116 0.436,0.364 0,0.288 -0.224,0.484 -0.412,0.596 -0.144,0.084 -0.304,0.144 -0.468,0.144 -0.224,0 -0.436,-0.116 -0.436,-0.364 0,-0.288 0.224,-0.484 0.412,-0.596 0.144,-0.084 0.304,-0.144 0.468,-0.144 z"
     fill="currentColor"
     id="path504"
     style="stroke-width:0.004" />
  <path
     d="m 43.156941,20.823 c 0.224,0 0.436,0.116 0.436,0.364 0,0.288 -0.224,0.484 -0.412,0.596 -0.144,0.084 -0.304,0.144 -0.468,0.144 -0.224,0 -0.436,-0.116 -0.436,-0.364 0,-0.288 0.224,-0.484 0.412,-0.596 0.144,-0.084 0.304,-0.144 0.468,-0.144 z"
     fill="currentColor"
     id="path506"
     style="stroke-width:0.004" />
  <text
     font-family="'Roboto Light'"
     font-size="2.2001px"
     text-anchor="start"
     fill="currentColor"
     id="text510"
     x="44.906643"
     y="26.875"><tspan
       id="tspan508">4</tspan></text>
</svg>
