<?xml version="1.0" encoding="UTF-8" standalone="no"?>
<svg
   version="1.2"
   width="58.651062mm"
   height="28.308851mm"
   viewBox="0 0 33.375694 16.1093"
   id="svg92"
   xmlns="http://www.w3.org/2000/svg"
   xmlns:svg="http://www.w3.org/2000/svg">
  <defs
     id="defs96" />
  <!-- Page: 1/1 -->
  <text
     font-family="'Century Schoolbook L'"
     font-size="2.2001px"
     text-anchor="start"
     fill="currentColor"
     id="text4"
     x="6.7072935"
     y="-1"><tspan
       id="tspan2" /></text>
  <rect
     x="24.117693"
     y="1.776"
     width="0.19"
     height="4.0500002"
     ry="0.0000"
     fill="currentColor"
     id="rect6" />
  <rect
     x="24.117693"
     y="10.726"
     width="0.19"
     height="4.0500002"
     ry="0.0000"
     fill="currentColor"
     id="rect8" />
  <rect
     x="24.117693"
     y="5.8260002"
     width="0.19"
     height="4.9499998"
     ry="0.0000"
     fill="currentColor"
     id="rect10" />
  <rect
     x="32.775692"
     y="1.776"
     width="0.60000002"
     height="4.0500002"
     ry="0.0000"
     fill="currentColor"
     id="rect12" />
  <rect
     x="32.285694"
     y="1.776"
     width="0.19"
     height="4.0500002"
     ry="0.0000"
     fill="currentColor"
     id="rect14" />
  <rect
     x="32.775692"
     y="10.726"
     width="0.60000002"
     height="4.0500002"
     ry="0.0000"
     fill="currentColor"
     id="rect16" />
  <rect
     x="32.285694"
     y="10.726"
     width="0.19"
     height="4.0500002"
     ry="0.0000"
     fill="currentColor"
     id="rect18" />
  <rect
     x="32.775692"
     y="5.8260002"
     width="0.60000002"
     height="4.9499998"
     ry="0.0000"
     fill="currentColor"
     id="rect20" />
  <rect
     x="32.285694"
     y="5.8260002"
     width="0.19"
     height="4.9499998"
     ry="0.0000"
     fill="currentColor"
     id="rect22" />
  <line
     stroke-linejoin="round"
     stroke-linecap="round"
     stroke-width="0.1"
     stroke="currentColor"
     x1="6.7572937"
     y1="5.776"
     x2="33.325695"
     y2="5.776"
     id="line24" />
  <line
     stroke-linejoin="round"
     stroke-linecap="round"
     stroke-width="0.1"
     stroke="currentColor"
     x1="6.7572937"
     y1="4.776"
     x2="33.325695"
     y2="4.776"
     id="line26" />
  <line
     stroke-linejoin="round"
     stroke-linecap="round"
     stroke-width="0.1"
     stroke="currentColor"
     x1="6.7572937"
     y1="3.776"
     x2="33.325695"
     y2="3.776"
     id="line28" />
  <line
     stroke-linejoin="round"
     stroke-linecap="round"
     stroke-width="0.1"
     stroke="currentColor"
     x1="6.7572937"
     y1="2.776"
     x2="33.325695"
     y2="2.776"
     id="line30" />
  <line
     stroke-linejoin="round"
     stroke-linecap="round"
     stroke-width="0.1"
     stroke="currentColor"
     x1="6.7572937"
     y1="1.776"
     x2="33.325695"
     y2="1.776"
     id="line32" />
  <line
     stroke-linejoin="round"
     stroke-linecap="round"
     stroke-width="0.1"
     stroke="currentColor"
     x1="6.7572937"
     y1="14.776"
     x2="33.325695"
     y2="14.776"
     id="line34" />
  <line
     stroke-linejoin="round"
     stroke-linecap="round"
     stroke-width="0.1"
     stroke="currentColor"
     x1="6.7572937"
     y1="13.776"
     x2="33.325695"
     y2="13.776"
     id="line36" />
  <line
     stroke-linejoin="round"
     stroke-linecap="round"
     stroke-width="0.1"
     stroke="currentColor"
     x1="6.7572937"
     y1="12.776"
     x2="33.325695"
     y2="12.776"
     id="line38" />
  <line
     stroke-linejoin="round"
     stroke-linecap="round"
     stroke-width="0.1"
     stroke="currentColor"
     x1="6.7572937"
     y1="11.776"
     x2="33.325695"
     y2="11.776"
     id="line40" />
  <line
     stroke-linejoin="round"
     stroke-linecap="round"
     stroke-width="0.1"
     stroke="currentColor"
     x1="6.7572937"
     y1="10.776"
     x2="33.325695"
     y2="10.776"
     id="line42" />
  <path
     d="m 27.067694,12.828 c -0.2,0 -0.276,0.172 -0.276,0.352 0,0.308 0.228,0.544 0.536,0.544 0.2,0 0.276,-0.172 0.276,-0.352 0,-0.308 -0.228,-0.544 -0.536,-0.544 z m 1.12,0.448 c 0,0.172 -0.14,0.304 -0.292,0.388 -0.212,0.12 -0.452,0.164 -0.696,0.164 -0.244,0 -0.488,-0.044 -0.7,-0.164 -0.152,-0.084 -0.292,-0.216 -0.292,-0.388 0,-0.172 0.14,-0.304 0.292,-0.388 0.212,-0.12 0.456,-0.164 0.7,-0.164 0.244,0 0.484,0.044 0.696,0.164 0.152,0.084 0.292,0.216 0.292,0.388 z"
     fill="currentColor"
     id="path44"
     style="stroke-width:0.004" />
  <path
     d="m 27.067694,2.828 c -0.2,0 -0.276,0.172 -0.276,0.352 0,0.308 0.228,0.544 0.536,0.544 0.2,0 0.276,-0.172 0.276,-0.352 0,-0.308 -0.228,-0.544 -0.536,-0.544 z m 1.12,0.448 c 0,0.172 -0.14,0.304 -0.292,0.388 -0.212,0.12 -0.452,0.164 -0.696,0.164 -0.244,0 -0.488,-0.044 -0.7,-0.164 -0.152,-0.084 -0.292,-0.216 -0.292,-0.388 0,-0.172 0.14,-0.304 0.292,-0.388 0.212,-0.12 0.456,-0.164 0.7,-0.164 0.244,0 0.484,0.044 0.696,0.164 0.152,0.084 0.292,0.216 0.292,0.388 z"
     fill="currentColor"
     id="path46"
     style="stroke-width:0.004" />
  <path
     d="m 27.067694,4.328 c -0.2,0 -0.276,0.172 -0.276,0.352 0,0.308 0.228,0.544 0.536,0.544 0.2,0 0.276,-0.172 0.276,-0.352 0,-0.308 -0.228,-0.544 -0.536,-0.544 z m 1.12,0.448 c 0,0.172 -0.14,0.304 -0.292,0.388 -0.212,0.12 -0.452,0.164 -0.696,0.164 -0.244,0 -0.488,-0.044 -0.7,-0.164 -0.152,-0.084 -0.292,-0.216 -0.292,-0.388 0,-0.172 0.14,-0.304 0.292,-0.388 0.212,-0.12 0.456,-0.164 0.7,-0.164 0.244,0 0.484,0.044 0.696,0.164 0.152,0.084 0.292,0.216 0.292,0.388 z"
     fill="currentColor"
     id="path48"
     style="stroke-width:0.004" />
  <path
     d="m 27.067694,5.328 c -0.2,0 -0.276,0.172 -0.276,0.352 0,0.308 0.228,0.544 0.536,0.544 0.2,0 0.276,-0.172 0.276,-0.352 0,-0.308 -0.228,-0.544 -0.536,-0.544 z m 1.12,0.448 c 0,0.172 -0.14,0.304 -0.292,0.388 -0.212,0.12 -0.452,0.164 -0.696,0.164 -0.244,0 -0.488,-0.044 -0.7,-0.164 -0.152,-0.084 -0.292,-0.216 -0.292,-0.388 0,-0.172 0.14,-0.304 0.292,-0.388 0.212,-0.12 0.456,-0.164 0.7,-0.164 0.244,0 0.484,0.044 0.696,0.164 0.152,0.084 0.292,0.216 0.292,0.388 z"
     fill="currentColor"
     id="path50"
     style="stroke-width:0.004" />
  <rect
     x="19.820293"
     y="11.5374"
     width="0.13"
     height="3.2386"
     ry="0.039999999"
     fill="currentColor"
     id="rect52" />
  <rect
     x="16.667294"
     y="0.77600002"
     width="0.13"
     height="5.2385998"
     ry="0.039999999"
     fill="currentColor"
     id="rect54" />
  <path
     d="m 13.143294,12.668 c -0.196,0 -0.3,-0.168 -0.3,-0.3 0,-0.152 0.108,-0.308 0.288,-0.308 0.016,0 0.036,0 0.056,0.004 -0.112,-0.148 -0.288,-0.236 -0.48,-0.236 -0.424,0 -0.452,0.292 -0.452,0.744 v 0.204 0.204 c 0,0.452 0.028,0.748 0.452,0.748 0.32,0 0.556,-0.28 0.632,-0.604 0.008,-0.028 0.028,-0.04 0.048,-0.04 0.024,0 0.052,0.016 0.052,0.048 0,0.376 -0.42,0.696 -0.732,0.696 -0.272,0 -0.548,-0.084 -0.736,-0.28 -0.196,-0.204 -0.264,-0.488 -0.264,-0.772 0,-0.284 0.068,-0.568 0.264,-0.772 0.188,-0.196 0.464,-0.276 0.736,-0.276 0.348,0 0.64,0.256 0.7,0.6 0.004,0.02 0.004,0.036 0.004,0.052 0,0.16 -0.12,0.288 -0.268,0.288 z"
     fill="currentColor"
     id="path56"
     style="stroke-width:0.004" />
  <path
     d="m 9.7352937,12.276 c 0,-0.112 0.092,-0.204 0.204,-0.204 0.1120003,0 0.2040003,0.092 0.2040003,0.204 0,0.112 -0.092,0.204 -0.2040003,0.204 -0.112,0 -0.204,-0.092 -0.204,-0.204 z m 0,-1 c 0,-0.112 0.092,-0.204 0.204,-0.204 0.1120003,0 0.2040003,0.092 0.2040003,0.204 0,0.112 -0.092,0.204 -0.2040003,0.204 -0.112,0 -0.204,-0.092 -0.204,-0.204 z m -1.3,-0.552 c 0.688,0 1.172,0.352 1.172,1.004 0,1.052 -1.052,1.656 -2.064,2.084 -0.012,0.012 -0.024,0.016 -0.036,0.016 -0.028,0 -0.052,-0.024 -0.052,-0.052 0,-0.012 0.004,-0.024 0.016,-0.036 0.808,-0.472 1.648,-1.06 1.648,-1.972 0,-0.48 -0.252,-0.94 -0.684,-0.94 -0.296,0 -0.516,0.216 -0.616,0.504 0.044,-0.02 0.088,-0.032 0.136,-0.032 0.22,0 0.4,0.18 0.4,0.4 0,0.232 -0.176,0.424 -0.4,0.424 -0.24,0 -0.448,-0.188 -0.448,-0.424 0,-0.532 0.408,-0.976 0.928,-0.976 z"
     fill="currentColor"
     id="path58"
     style="stroke-width:0.004" />
  <path
     d="m 16.667294,12.516 c 0,-0.096 -0.084,-0.164 -0.168,-0.164 -0.016,0 -0.032,0 -0.048,0.004 -0.124,0.036 -0.308,0.16 -0.456,0.256 -0.148,0.096 -0.336,0.212 -0.416,0.312 -0.028,0.032 -0.044,0.072 -0.044,0.112 0,0.096 0.084,0.164 0.168,0.164 0.016,0 0.032,0 0.048,-0.004 0.124,-0.036 0.312,-0.16 0.46,-0.256 0.148,-0.096 0.336,-0.212 0.416,-0.312 0.028,-0.032 0.04,-0.072 0.04,-0.112 z m -0.204,-0.288 c 0.188,0 0.332,0.084 0.332,0.288 0,0.076 -0.016,0.148 -0.04,0.224 -0.048,0.152 -0.128,0.296 -0.26,0.384 -0.216,0.144 -0.452,0.204 -0.752,0.204 -0.188,0 -0.336,-0.088 -0.336,-0.292 0,-0.076 0.02,-0.148 0.044,-0.224 0.048,-0.152 0.124,-0.296 0.256,-0.384 0.216,-0.144 0.456,-0.2 0.756,-0.2 z"
     fill="currentColor"
     id="path60"
     style="stroke-width:0.004" />
  <path
     d="m 13.143294,3.668 c -0.196,0 -0.3,-0.168 -0.3,-0.3 0,-0.152 0.108,-0.308 0.288,-0.308 0.016,0 0.036,0 0.056,0.004 -0.112,-0.148 -0.288,-0.236 -0.48,-0.236 -0.424,0 -0.452,0.292 -0.452,0.744 V 3.776 3.98 c 0,0.452 0.028,0.748 0.452,0.748 0.32,0 0.556,-0.28 0.632,-0.604 0.008,-0.028 0.028,-0.04 0.048,-0.04 0.024,0 0.052,0.016 0.052,0.048 0,0.376 -0.42,0.696 -0.732,0.696 -0.272,0 -0.548,-0.084 -0.736,-0.28 -0.196,-0.204 -0.264,-0.488 -0.264,-0.772 0,-0.284 0.068,-0.568 0.264,-0.772 0.188,-0.196 0.464,-0.276 0.736,-0.276 0.348,0 0.64,0.256 0.7,0.6 0.004,0.02 0.004,0.036 0.004,0.052 0,0.16 -0.12,0.288 -0.268,0.288 z"
     fill="currentColor"
     id="path62"
     style="stroke-width:0.004" />
  <path
     d="m 9.0112937,3.728 c 0.016,0 0.036,-0.004 0.052,-0.004 0.62,0 1.0240003,0.512 1.0240003,1.044 0,0.304 -0.1320003,0.616 -0.4280003,0.84 -0.088,0.068 -0.188,0.112 -0.292,0.144 0.012,0.14 0.02,0.28 0.02,0.42 0,0.076 -0.004,0.156 -0.008,0.232 -0.028,0.48 -0.36,0.912 -0.832,0.912 -0.432,0 -0.78,-0.352 -0.78,-0.788 0,-0.232 0.212,-0.412 0.448,-0.412 0.216,0 0.38,0.188 0.38,0.412 0,0.208 -0.172,0.38 -0.38,0.38 -0.044,0 -0.084,-0.008 -0.124,-0.024 0.104,0.156 0.272,0.26 0.468,0.26 0.384,0 0.628,-0.368 0.652,-0.764 0.004,-0.072 0.008,-0.148 0.008,-0.22 0,-0.124 -0.004,-0.244 -0.016,-0.368 -0.116,0.02 -0.232,0.032 -0.356,0.032 -0.752,0 -1.332,-0.688 -1.332,-1.496 0,-0.708 0.524,-1.224 0.992,-1.764 -0.076,-0.248 -0.148,-0.5 -0.18,-0.76 -0.024,-0.208 -0.028,-0.416 -0.028,-0.624 0,-0.46 0.22,-0.896 0.596,-1.168 0.012,-0.008 0.028,-0.012 0.04,-0.012 0.016,0 0.028,0 0.04,0.012 0.284,0.336 0.532,0.98 0.532,1.432 0,0.572 -0.344,1.02 -0.72,1.456 0.084,0.272 0.156,0.552 0.224,0.828 z m 0.34,1.86 c 0.272,-0.096 0.452,-0.38 0.452,-0.656 0,-0.36 -0.264,-0.716 -0.692,-0.76 0.096,0.464 0.184,0.924 0.24,1.416 z m -1.548,-0.924 c 0,0.54 0.516,0.988 1.056,0.988 0.112,0 0.22,-0.008 0.328,-0.024 -0.056,-0.508 -0.148,-0.98 -0.252,-1.456 -0.316,0.032 -0.496,0.244 -0.496,0.476 0,0.176 0.1,0.364 0.324,0.492 0.02,0.02 0.028,0.04 0.028,0.06 0,0.044 -0.04,0.088 -0.088,0.088 -0.012,0 -0.024,-0.004 -0.036,-0.008 -0.32,-0.172 -0.468,-0.46 -0.468,-0.74 0,-0.352 0.232,-0.696 0.64,-0.788 -0.056,-0.232 -0.116,-0.468 -0.184,-0.7 -0.428,0.484 -0.852,0.972 -0.852,1.612 z m 1.336,-4.068 c -0.396,0.192 -0.648,0.596 -0.648,1.036 0,0.296 0.072,0.532 0.144,0.776 0.32,-0.388 0.584,-0.792 0.584,-1.296 0,-0.22 -0.016,-0.316 -0.08,-0.516 z"
     fill="currentColor"
     id="path64"
     style="stroke-width:0.004" />
  <path
     d="m 16.667294,4.016 c 0,-0.096 -0.084,-0.164 -0.168,-0.164 -0.016,0 -0.032,0 -0.048,0.004 -0.124,0.036 -0.308,0.16 -0.456,0.256 -0.148,0.096 -0.336,0.212 -0.416,0.312 -0.028,0.032 -0.044,0.072 -0.044,0.112 0,0.096 0.084,0.164 0.168,0.164 0.016,0 0.032,0 0.048,-0.004 0.124,-0.036 0.312,-0.16 0.46,-0.256 0.148,-0.096 0.336,-0.212 0.416,-0.312 0.028,-0.032 0.04,-0.072 0.04,-0.112 z m -0.204,-0.288 c 0.188,0 0.332,0.084 0.332,0.288 0,0.076 -0.016,0.148 -0.04,0.224 -0.048,0.152 -0.128,0.296 -0.26,0.384 -0.216,0.144 -0.452,0.204 -0.752,0.204 -0.188,0 -0.336,-0.088 -0.336,-0.292 0,-0.076 0.02,-0.148 0.044,-0.224 0.048,-0.152 0.124,-0.296 0.256,-0.384 0.216,-0.144 0.456,-0.2 0.756,-0.2 z"
     fill="currentColor"
     id="path66"
     style="stroke-width:0.004" />
  <path
     d="m 16.667294,5.016 c 0,-0.096 -0.084,-0.164 -0.168,-0.164 -0.016,0 -0.032,0 -0.048,0.004 -0.124,0.036 -0.308,0.16 -0.456,0.256 -0.148,0.096 -0.336,0.212 -0.416,0.312 -0.028,0.032 -0.044,0.072 -0.044,0.112 0,0.096 0.084,0.164 0.168,0.164 0.016,0 0.032,0 0.048,-0.004 0.124,-0.036 0.312,-0.16 0.46,-0.256 0.148,-0.096 0.336,-0.212 0.416,-0.312 0.028,-0.032 0.04,-0.072 0.04,-0.112 z m -0.204,-0.288 c 0.188,0 0.332,0.084 0.332,0.288 0,0.076 -0.016,0.148 -0.04,0.224 -0.048,0.152 -0.128,0.296 -0.26,0.384 -0.216,0.144 -0.452,0.204 -0.752,0.204 -0.188,0 -0.336,-0.088 -0.336,-0.292 0,-0.076 0.02,-0.148 0.044,-0.224 0.048,-0.152 0.124,-0.296 0.256,-0.384 0.216,-0.144 0.456,-0.2 0.756,-0.2 z"
     fill="currentColor"
     id="path68"
     style="stroke-width:0.004" />
  <path
     d="m 16.667294,6.016 c 0,-0.096 -0.084,-0.164 -0.168,-0.164 -0.016,0 -0.032,0 -0.048,0.004 -0.124,0.036 -0.308,0.16 -0.456,0.256 -0.148,0.096 -0.336,0.212 -0.416,0.312 -0.028,0.032 -0.044,0.072 -0.044,0.112 0,0.096 0.084,0.164 0.168,0.164 0.016,0 0.032,0 0.048,-0.004 0.124,-0.036 0.312,-0.16 0.46,-0.256 0.148,-0.096 0.336,-0.212 0.416,-0.312 0.028,-0.032 0.04,-0.072 0.04,-0.112 z m -0.204,-0.288 c 0.188,0 0.332,0.084 0.332,0.288 0,0.076 -0.016,0.148 -0.04,0.224 -0.048,0.152 -0.128,0.296 -0.26,0.384 -0.216,0.144 -0.452,0.204 -0.752,0.204 -0.188,0 -0.336,-0.088 -0.336,-0.292 0,-0.076 0.02,-0.148 0.044,-0.224 0.048,-0.152 0.124,-0.296 0.256,-0.384 0.216,-0.144 0.456,-0.2 0.756,-0.2 z"
     fill="currentColor"
     id="path70"
     style="stroke-width:0.004" />
  <rect
     x="6.6472936"
     y="1.7259998"
     width="0.16"
     height="13.1"
     ry="0.050000001"
     fill="currentColor"
     id="rect72" />
  <path
     d="m 6.2872937,10.268 c 0,1.044 -0.408,2.064 -0.408,3.06 0,0.54 0.12,1.044 0.516,1.44 0.012,0.012 0.012,0.036 0.012,0.048 0,0.036 -0.024,0.072 -0.06,0.072 -0.012,0 -0.036,-0.012 -0.048,-0.024 -0.528,-0.54 -0.708,-1.248 -0.708,-2.004 0,-1.068 0.432,-2.112 0.432,-3.12 0,-0.54 -0.132,-1.044 -0.516,-1.44 -0.012,-0.012 -0.012,-0.012 -0.012,-0.024 0,-0.012 0,-0.012 0.012,-0.024 0.384,-0.396 0.516,-0.9 0.516,-1.44 0,-1.008 -0.432,-2.052 -0.432,-3.12 0,-0.756 0.18,-1.464 0.708,-2.004 0.012,-0.012 0.036,-0.024 0.048,-0.024 0.036,0 0.06,0.036 0.06,0.072 0,0.012 0,0.036 -0.012,0.048 -0.396,0.396 -0.516,0.9 -0.516,1.44 0,0.996 0.408,2.016 0.408,3.06 0,0.744 -0.18,1.452 -0.696,1.992 0.516,0.54 0.696,1.248 0.696,1.992 z"
     fill="currentColor"
     id="path74"
     style="stroke-width:0.004" />
  <text
     font-family="'Roboto Slab Light'"
     font-size="1.96px"
     text-anchor="start"
     fill="currentColor"
     id="text78"
     x="-0.19140625"
     y="9.0101004"><tspan
       id="tspan76">Piano</tspan></text>
  <rect
     x="21.080294"
     y="0.44269988"
     width="0.13"
     height="5.5718999"
     ry="0.039999999"
     fill="currentColor"
     id="rect80" />
  <path
     d="m 21.080294,11.016 c 0,-0.096 -0.084,-0.164 -0.168,-0.164 -0.016,0 -0.032,0 -0.048,0.004 -0.124,0.036 -0.308,0.16 -0.456,0.256 -0.148,0.096 -0.336,0.212 -0.416,0.312 -0.028,0.032 -0.044,0.072 -0.044,0.112 0,0.096 0.084,0.164 0.168,0.164 0.016,0 0.032,0 0.048,-0.004 0.124,-0.036 0.312,-0.16 0.46,-0.256 0.148,-0.096 0.336,-0.212 0.416,-0.312 0.028,-0.032 0.04,-0.072 0.04,-0.112 z m -0.204,-0.288 c 0.188,0 0.332,0.084 0.332,0.288 0,0.076 -0.016,0.148 -0.04,0.224 -0.048,0.152 -0.128,0.296 -0.26,0.384 -0.216,0.144 -0.452,0.204 -0.752,0.204 -0.188,0 -0.336,-0.088 -0.336,-0.292 0,-0.076 0.02,-0.148 0.044,-0.224 0.048,-0.152 0.124,-0.296 0.256,-0.384 0.216,-0.144 0.456,-0.2 0.756,-0.2 z"
     fill="currentColor"
     id="path82"
     style="stroke-width:0.004" />
  <path
     d="m 21.080294,3.516 c 0,-0.096 -0.084,-0.164 -0.168,-0.164 -0.016,0 -0.032,0 -0.048,0.004 -0.124,0.036 -0.308,0.16 -0.456,0.256 -0.148,0.096 -0.336,0.212 -0.416,0.312 -0.028,0.032 -0.044,0.072 -0.044,0.112 0,0.096 0.084,0.164 0.168,0.164 0.016,0 0.032,0 0.048,-0.004 0.124,-0.036 0.312,-0.16 0.46,-0.256 0.148,-0.096 0.336,-0.212 0.416,-0.312 0.028,-0.032 0.04,-0.072 0.04,-0.112 z m -0.204,-0.288 c 0.188,0 0.332,0.084 0.332,0.288 0,0.076 -0.016,0.148 -0.04,0.224 -0.048,0.152 -0.128,0.296 -0.26,0.384 -0.216,0.144 -0.452,0.204 -0.752,0.204 -0.188,0 -0.336,-0.088 -0.336,-0.292 0,-0.076 0.02,-0.148 0.044,-0.224 0.048,-0.152 0.124,-0.296 0.256,-0.384 0.216,-0.144 0.456,-0.2 0.756,-0.2 z"
     fill="currentColor"
     id="path84"
     style="stroke-width:0.004" />
  <path
     d="m 21.080294,4.516 c 0,-0.096 -0.084,-0.164 -0.168,-0.164 -0.016,0 -0.032,0 -0.048,0.004 -0.124,0.036 -0.308,0.16 -0.456,0.256 -0.148,0.096 -0.336,0.212 -0.416,0.312 -0.028,0.032 -0.044,0.072 -0.044,0.112 0,0.096 0.084,0.164 0.168,0.164 0.016,0 0.032,0 0.048,-0.004 0.124,-0.036 0.312,-0.16 0.46,-0.256 0.148,-0.096 0.336,-0.212 0.416,-0.312 0.028,-0.032 0.04,-0.072 0.04,-0.112 z m -0.204,-0.288 c 0.188,0 0.332,0.084 0.332,0.288 0,0.076 -0.016,0.148 -0.04,0.224 -0.048,0.152 -0.128,0.296 -0.26,0.384 -0.216,0.144 -0.452,0.204 -0.752,0.204 -0.188,0 -0.336,-0.088 -0.336,-0.292 0,-0.076 0.02,-0.148 0.044,-0.224 0.048,-0.152 0.124,-0.296 0.256,-0.384 0.216,-0.144 0.456,-0.2 0.756,-0.2 z"
     fill="currentColor"
     id="path86"
     style="stroke-width:0.004" />
  <path
     d="m 21.080294,6.016 c 0,-0.096 -0.084,-0.164 -0.168,-0.164 -0.016,0 -0.032,0 -0.048,0.004 -0.124,0.036 -0.308,0.16 -0.456,0.256 -0.148,0.096 -0.336,0.212 -0.416,0.312 -0.028,0.032 -0.044,0.072 -0.044,0.112 0,0.096 0.084,0.164 0.168,0.164 0.016,0 0.032,0 0.048,-0.004 0.124,-0.036 0.312,-0.16 0.46,-0.256 0.148,-0.096 0.336,-0.212 0.416,-0.312 0.028,-0.032 0.04,-0.072 0.04,-0.112 z m -0.204,-0.288 c 0.188,0 0.332,0.084 0.332,0.288 0,0.076 -0.016,0.148 -0.04,0.224 -0.048,0.152 -0.128,0.296 -0.26,0.384 -0.216,0.144 -0.452,0.204 -0.752,0.204 -0.188,0 -0.336,-0.088 -0.336,-0.292 0,-0.076 0.02,-0.148 0.044,-0.224 0.048,-0.152 0.124,-0.296 0.256,-0.384 0.216,-0.144 0.456,-0.2 0.756,-0.2 z"
     fill="currentColor"
     id="path88"
     style="stroke-width:0.004" />
  <rect
     x="15.407293"
     y="13.0374"
     width="0.13"
     height="3.0718999"
     ry="0.039999999"
     fill="currentColor"
     id="rect90" />
</svg>
