<?xml version="1.0" encoding="UTF-8" standalone="no"?>
<svg
   version="1.2"
   width="159.20001mm"
   height="21.064892mm"
   viewBox="0 0 90.593601 11.987087"
   id="svg178"
   xmlns="http://www.w3.org/2000/svg"
   xmlns:svg="http://www.w3.org/2000/svg">
  <defs
     id="defs182" />
  <!-- Page: 1/1 -->
  <text
     font-family="'Century Schoolbook L'"
     font-size="2.2001px"
     text-anchor="start"
     fill="currentColor"
     id="text4"
     y="-0.97181332"><tspan
       id="tspan2" /></text>
  <line
     stroke-linejoin="round"
     stroke-linecap="round"
     stroke-width="0.1"
     stroke="currentColor"
     x1="0.050000001"
     y1="9.5570869"
     x2="90.543602"
     y2="9.5570869"
     id="line6" />
  <line
     stroke-linejoin="round"
     stroke-linecap="round"
     stroke-width="0.1"
     stroke="currentColor"
     x1="0.050000001"
     y1="8.5570869"
     x2="90.543602"
     y2="8.5570869"
     id="line8" />
  <line
     stroke-linejoin="round"
     stroke-linecap="round"
     stroke-width="0.1"
     stroke="currentColor"
     x1="0.050000001"
     y1="7.5570865"
     x2="90.543602"
     y2="7.5570865"
     id="line10" />
  <line
     stroke-linejoin="round"
     stroke-linecap="round"
     stroke-width="0.1"
     stroke="currentColor"
     x1="0.050000001"
     y1="6.5570865"
     x2="90.543602"
     y2="6.5570865"
     id="line12" />
  <line
     stroke-linejoin="round"
     stroke-linecap="round"
     stroke-width="0.1"
     stroke="currentColor"
     x1="0.050000001"
     y1="5.5570865"
     x2="90.543602"
     y2="5.5570865"
     id="line14" />
  <path
     d="m 88.7536,7.0570867 c 0,-0.124 0.1,-0.224 0.224,-0.224 0.124,0 0.224,0.1 0.224,0.224 0,0.124 -0.1,0.224 -0.224,0.224 -0.124,0 -0.224,-0.1 -0.224,-0.224 z"
     fill="currentColor"
     id="path16"
     style="stroke-width:0.004" />
  <path
     d="m 88.7536,8.0570867 c 0,-0.124 0.1,-0.224 0.224,-0.224 0.124,0 0.224,0.1 0.224,0.224 0,0.124 -0.1,0.224 -0.224,0.224 -0.124,0 -0.224,-0.1 -0.224,-0.224 z"
     fill="currentColor"
     id="path18"
     style="stroke-width:0.004" />
  <rect
     x="89.993599"
     y="5.5570865"
     width="0.60000002"
     height="4"
     ry="0.0000"
     fill="currentColor"
     id="rect20" />
  <rect
     x="89.503601"
     y="5.5570865"
     width="0.19"
     height="4"
     ry="0.0000"
     fill="currentColor"
     id="rect22" />
  <path
     d="m 54.1517,4.9130867 0.48,-0.392 c 0.012,-0.008 0.024,-0.016 0.036,-0.016 0.012,0 0.028,0.008 0.04,0.016 l 0.08,0.064 c 0.012,0.012 0.02,0.032 0.02,0.048 0,0.016 -0.008,0.032 -0.02,0.044 l -0.464,0.38 0.464,0.38 c 0.012,0.012 0.02,0.028 0.02,0.044 0,0.016 -0.008,0.036 -0.02,0.048 l -0.08,0.064 c -0.012,0.008 -0.028,0.016 -0.04,0.016 -0.012,0 -0.024,-0.008 -0.036,-0.016 l -0.48,-0.392 -0.484,0.392 c -0.012,0.008 -0.024,0.016 -0.036,0.016 -0.012,0 -0.028,-0.008 -0.04,-0.016 l -0.08,-0.064 c -0.012,-0.012 -0.02,-0.032 -0.02,-0.048 0,-0.016 0.008,-0.032 0.02,-0.044 l 0.464,-0.38 -0.464,-0.38 c -0.012,-0.012 -0.02,-0.028 -0.02,-0.044 0,-0.016 0.008,-0.036 0.02,-0.048 l 0.08,-0.064 c 0.012,-0.008 0.028,-0.016 0.04,-0.016 0.012,0 0.024,0.008 0.036,0.016 z"
     fill="currentColor"
     id="path24"
     style="stroke-width:0.004" />
  <rect
     x="54.677898"
     y="2.3670866"
     width="0.13"
     height="2.2646999"
     ry="0.039999999"
     fill="currentColor"
     id="rect26" />
  <text
     font-family="'Roboto Slab Light'"
     font-size="2.2001px"
     text-anchor="start"
     fill="currentColor"
     id="text30"
     x="58.529099"
     y="1.6328866"><tspan
       id="tspan28">e</tspan></text>
  <path
     d="m 59.1891,4.9130867 0.48,-0.392 c 0.012,-0.008 0.024,-0.016 0.036,-0.016 0.012,0 0.028,0.008 0.04,0.016 l 0.08,0.064 c 0.012,0.012 0.02,0.032 0.02,0.048 0,0.016 -0.008,0.032 -0.02,0.044 l -0.464,0.38 0.464,0.38 c 0.012,0.012 0.02,0.028 0.02,0.044 0,0.016 -0.008,0.036 -0.02,0.048 l -0.08,0.064 c -0.012,0.008 -0.028,0.016 -0.04,0.016 -0.012,0 -0.024,-0.008 -0.036,-0.016 l -0.48,-0.392 -0.484,0.392 c -0.012,0.008 -0.024,0.016 -0.036,0.016 -0.012,0 -0.028,-0.008 -0.04,-0.016 l -0.08,-0.064 c -0.012,-0.012 -0.02,-0.032 -0.02,-0.048 0,-0.016 0.008,-0.032 0.02,-0.044 l 0.464,-0.38 -0.464,-0.38 c -0.012,-0.012 -0.02,-0.028 -0.02,-0.044 0,-0.016 0.008,-0.036 0.02,-0.048 l 0.08,-0.064 c 0.012,-0.008 0.028,-0.016 0.04,-0.016 0.012,0 0.024,0.008 0.036,0.016 z"
     fill="currentColor"
     id="path32"
     style="stroke-width:0.004" />
  <rect
     x="59.715302"
     y="2.3670866"
     width="0.13"
     height="2.2646999"
     ry="0.039999999"
     fill="currentColor"
     id="rect34" />
  <path
     d="m 64.2265,4.9130867 0.48,-0.392 c 0.012,-0.008 0.024,-0.016 0.036,-0.016 0.012,0 0.028,0.008 0.04,0.016 l 0.08,0.064 c 0.012,0.012 0.02,0.032 0.02,0.048 0,0.016 -0.008,0.032 -0.02,0.044 l -0.464,0.38 0.464,0.38 c 0.012,0.012 0.02,0.028 0.02,0.044 0,0.016 -0.008,0.036 -0.02,0.048 l -0.08,0.064 c -0.012,0.008 -0.028,0.016 -0.04,0.016 -0.012,0 -0.024,-0.008 -0.036,-0.016 l -0.48,-0.392 -0.484,0.392 c -0.012,0.008 -0.024,0.016 -0.036,0.016 -0.012,0 -0.028,-0.008 -0.04,-0.016 l -0.08,-0.064 c -0.012,-0.012 -0.02,-0.032 -0.02,-0.048 0,-0.016 0.008,-0.032 0.02,-0.044 l 0.464,-0.38 -0.464,-0.38 c -0.012,-0.012 -0.02,-0.028 -0.02,-0.044 0,-0.016 0.008,-0.036 0.02,-0.048 l 0.08,-0.064 c 0.012,-0.008 0.028,-0.016 0.04,-0.016 0.012,0 0.024,0.008 0.036,0.016 z"
     fill="currentColor"
     id="path36"
     style="stroke-width:0.004" />
  <path
     d="m 64.4465,8.5050867 c 0.224,0 0.436,0.116 0.436,0.364 0,0.288 -0.224,0.484 -0.412,0.596 -0.144,0.084 -0.304,0.144 -0.468,0.144 -0.224,0 -0.436,-0.116 -0.436,-0.364 0,-0.288 0.224,-0.484 0.412,-0.596 0.144,-0.084 0.304,-0.144 0.468,-0.144 z"
     fill="currentColor"
     id="path38"
     style="stroke-width:0.004" />
  <rect
     x="64.752701"
     y="2.3670866"
     width="0.13"
     height="2.2646999"
     ry="0.039999999"
     fill="currentColor"
     id="rect40" />
  <path
     d="m 44.0769,4.9130867 0.48,-0.392 c 0.012,-0.008 0.024,-0.016 0.036,-0.016 0.012,0 0.028,0.008 0.04,0.016 l 0.08,0.064 c 0.012,0.012 0.02,0.032 0.02,0.048 0,0.016 -0.008,0.032 -0.02,0.044 l -0.464,0.38 0.464,0.38 c 0.012,0.012 0.02,0.028 0.02,0.044 0,0.016 -0.008,0.036 -0.02,0.048 l -0.08,0.064 c -0.012,0.008 -0.028,0.016 -0.04,0.016 -0.012,0 -0.024,-0.008 -0.036,-0.016 l -0.48,-0.392 -0.484,0.392 c -0.012,0.008 -0.024,0.016 -0.036,0.016 -0.012,0 -0.028,-0.008 -0.04,-0.016 l -0.08,-0.064 c -0.012,-0.012 -0.02,-0.032 -0.02,-0.048 0,-0.016 0.008,-0.032 0.02,-0.044 l 0.464,-0.38 -0.464,-0.38 c -0.012,-0.012 -0.02,-0.028 -0.02,-0.044 0,-0.016 0.008,-0.036 0.02,-0.048 l 0.08,-0.064 c 0.012,-0.008 0.028,-0.016 0.04,-0.016 0.012,0 0.024,0.008 0.036,0.016 z"
     fill="currentColor"
     id="path42"
     style="stroke-width:0.004" />
  <rect
     x="44.6031"
     y="2.3670866"
     width="0.13"
     height="2.2646999"
     ry="0.039999999"
     fill="currentColor"
     id="rect44" />
  <text
     font-family="'Roboto Slab Light'"
     font-size="2.2001px"
     text-anchor="start"
     fill="currentColor"
     id="text48"
     x="48.4543"
     y="1.6328866"><tspan
       id="tspan46">3</tspan></text>
  <path
     d="m 49.1143,4.9130867 0.48,-0.392 c 0.012,-0.008 0.024,-0.016 0.036,-0.016 0.012,0 0.028,0.008 0.04,0.016 l 0.08,0.064 c 0.012,0.012 0.02,0.032 0.02,0.048 0,0.016 -0.008,0.032 -0.02,0.044 l -0.464,0.38 0.464,0.38 c 0.012,0.012 0.02,0.028 0.02,0.044 0,0.016 -0.008,0.036 -0.02,0.048 l -0.08,0.064 c -0.012,0.008 -0.028,0.016 -0.04,0.016 -0.012,0 -0.024,-0.008 -0.036,-0.016 l -0.48,-0.392 -0.484,0.392 c -0.012,0.008 -0.024,0.016 -0.036,0.016 -0.012,0 -0.028,-0.008 -0.04,-0.016 l -0.08,-0.064 c -0.012,-0.012 -0.02,-0.032 -0.02,-0.048 0,-0.016 0.008,-0.032 0.02,-0.044 l 0.464,-0.38 -0.464,-0.38 c -0.012,-0.012 -0.02,-0.028 -0.02,-0.044 0,-0.016 0.008,-0.036 0.02,-0.048 l 0.08,-0.064 c 0.012,-0.008 0.028,-0.016 0.04,-0.016 0.012,0 0.024,0.008 0.036,0.016 z"
     fill="currentColor"
     id="path50"
     style="stroke-width:0.004" />
  <path
     d="m 49.3343,8.5050867 c 0.224,0 0.436,0.116 0.436,0.364 0,0.288 -0.224,0.484 -0.412,0.596 -0.144,0.084 -0.304,0.144 -0.468,0.144 -0.224,0 -0.436,-0.116 -0.436,-0.364 0,-0.288 0.224,-0.484 0.412,-0.596 0.144,-0.084 0.304,-0.144 0.468,-0.144 z"
     fill="currentColor"
     id="path52"
     style="stroke-width:0.004" />
  <rect
     x="49.640499"
     y="2.3670866"
     width="0.13"
     height="2.2646999"
     ry="0.039999999"
     fill="currentColor"
     id="rect54" />
  <path
     d="m 50.2205,9.0570867 c 0,-0.124 0.1,-0.224 0.224,-0.224 0.124,0 0.224,0.1 0.224,0.224 0,0.124 -0.1,0.224 -0.224,0.224 -0.124,0 -0.224,-0.1 -0.224,-0.224 z"
     fill="currentColor"
     id="path56"
     style="stroke-width:0.004" />
  <rect
     x="48.4543"
     y="9.2448864"
     width="0.13"
     height="2.5021999"
     ry="0.039999999"
     fill="currentColor"
     id="rect58" />
  <text
     font-family="'Roboto Slab Light'"
     font-size="2.2001px"
     text-anchor="start"
     fill="currentColor"
     id="text62"
     x="78.678802"
     y="1.6328866"><tspan
       id="tspan60">e</tspan></text>
  <path
     d="m 79.3388,4.9130867 0.48,-0.392 c 0.012,-0.008 0.024,-0.016 0.036,-0.016 0.012,0 0.028,0.008 0.04,0.016 l 0.08,0.064 c 0.012,0.012 0.02,0.032 0.02,0.048 0,0.016 -0.008,0.032 -0.02,0.044 l -0.464,0.38 0.464,0.38 c 0.012,0.012 0.02,0.028 0.02,0.044 0,0.016 -0.008,0.036 -0.02,0.048 l -0.08,0.064 c -0.012,0.008 -0.028,0.016 -0.04,0.016 -0.012,0 -0.024,-0.008 -0.036,-0.016 l -0.48,-0.392 -0.484,0.392 c -0.012,0.008 -0.024,0.016 -0.036,0.016 -0.012,0 -0.028,-0.008 -0.04,-0.016 l -0.08,-0.064 c -0.012,-0.012 -0.02,-0.032 -0.02,-0.048 0,-0.016 0.008,-0.032 0.02,-0.044 l 0.464,-0.38 -0.464,-0.38 c -0.012,-0.012 -0.02,-0.028 -0.02,-0.044 0,-0.016 0.008,-0.036 0.02,-0.048 l 0.08,-0.064 c 0.012,-0.008 0.028,-0.016 0.04,-0.016 0.012,0 0.024,0.008 0.036,0.016 z"
     fill="currentColor"
     id="path64"
     style="stroke-width:0.004" />
  <rect
     x="79.864899"
     y="2.3670866"
     width="0.13"
     height="2.2646999"
     ry="0.039999999"
     fill="currentColor"
     id="rect66" />
  <path
     d="m 84.3762,4.9130867 0.48,-0.392 c 0.012,-0.008 0.024,-0.016 0.036,-0.016 0.012,0 0.028,0.008 0.04,0.016 l 0.08,0.064 c 0.012,0.012 0.02,0.032 0.02,0.048 0,0.016 -0.008,0.032 -0.02,0.044 l -0.464,0.38 0.464,0.38 c 0.012,0.012 0.02,0.028 0.02,0.044 0,0.016 -0.008,0.036 -0.02,0.048 l -0.08,0.064 c -0.012,0.008 -0.028,0.016 -0.04,0.016 -0.012,0 -0.024,-0.008 -0.036,-0.016 l -0.48,-0.392 -0.484,0.392 c -0.012,0.008 -0.024,0.016 -0.036,0.016 -0.012,0 -0.028,-0.008 -0.04,-0.016 l -0.08,-0.064 c -0.012,-0.012 -0.02,-0.032 -0.02,-0.048 0,-0.016 0.008,-0.032 0.02,-0.044 l 0.464,-0.38 -0.464,-0.38 c -0.012,-0.012 -0.02,-0.028 -0.02,-0.044 0,-0.016 0.008,-0.036 0.02,-0.048 l 0.08,-0.064 c 0.012,-0.008 0.028,-0.016 0.04,-0.016 0.012,0 0.024,0.008 0.036,0.016 z"
     fill="currentColor"
     id="path68"
     style="stroke-width:0.004" />
  <rect
     x="84.902298"
     y="2.3670866"
     width="0.13"
     height="2.2646999"
     ry="0.039999999"
     fill="currentColor"
     id="rect70" />
  <polygon
     transform="translate(69.7901,2.3670867)"
     stroke-linejoin="round"
     stroke-linecap="round"
     stroke-width="0.08"
     fill="currentColor"
     stroke="currentColor"
     points="0.04,0.2 0.04,-0.2 15.2022,-0.2 15.2022,0.2 "
     id="polygon72" />
  <polygon
     transform="translate(69.7901,3.1770867)"
     stroke-linejoin="round"
     stroke-linecap="round"
     stroke-width="0.08"
     fill="currentColor"
     stroke="currentColor"
     points="0.04,0.2 0.04,-0.2 15.2022,-0.2 15.2022,0.2 "
     id="polygon74" />
  <polygon
     transform="translate(62.5315,10.937087)"
     stroke-linejoin="round"
     stroke-linecap="round"
     stroke-width="0.08"
     fill="currentColor"
     stroke="currentColor"
     points="0.04,0.2 0.04,-0.2 1.125,-0.2 1.125,0.2 "
     id="polygon76" />
  <polygon
     transform="translate(48.4543,11.747087)"
     stroke-linejoin="round"
     stroke-linecap="round"
     stroke-width="0.08"
     fill="currentColor"
     stroke="currentColor"
     points="0.04,0.2 0.04,-0.2 15.2022,-0.2 15.2022,0.2 "
     id="polygon78" />
  <polygon
     transform="translate(49.6405,2.3670867)"
     stroke-linejoin="round"
     stroke-linecap="round"
     stroke-width="0.08"
     fill="currentColor"
     stroke="currentColor"
     points="0.04,0.2 0.04,-0.2 15.2022,-0.2 15.2022,0.2 "
     id="polygon80" />
  <polygon
     transform="translate(49.6405,3.1770867)"
     stroke-linejoin="round"
     stroke-linecap="round"
     stroke-width="0.08"
     fill="currentColor"
     stroke="currentColor"
     points="0.04,0.2 0.04,-0.2 15.2022,-0.2 15.2022,0.2 "
     id="polygon82" />
  <polygon
     transform="translate(29.4908,2.3670867)"
     stroke-linejoin="round"
     stroke-linecap="round"
     stroke-width="0.08"
     fill="currentColor"
     stroke="currentColor"
     points="0.04,0.2 0.04,-0.2 15.2022,-0.2 15.2022,0.2 "
     id="polygon84" />
  <polygon
     transform="translate(29.4908,3.1770867)"
     stroke-linejoin="round"
     stroke-linecap="round"
     stroke-width="0.08"
     fill="currentColor"
     stroke="currentColor"
     points="0.04,0.2 0.04,-0.2 15.2022,-0.2 15.2022,0.2 "
     id="polygon86" />
  <polygon
     transform="translate(22.1072,10.937087)"
     stroke-linejoin="round"
     stroke-linecap="round"
     stroke-width="0.08"
     fill="currentColor"
     stroke="currentColor"
     points="0.04,0.2 0.04,-0.2 1.125,-0.2 1.125,0.2 "
     id="polygon88" />
  <polygon
     transform="translate(8.03,11.747087)"
     stroke-linejoin="round"
     stroke-linecap="round"
     stroke-width="0.08"
     fill="currentColor"
     stroke="currentColor"
     points="0.04,0.2 0.04,-0.2 15.2022,-0.2 15.2022,0.2 "
     id="polygon90" />
  <polygon
     transform="translate(9.2162,2.3670867)"
     stroke-linejoin="round"
     stroke-linecap="round"
     stroke-width="0.08"
     fill="currentColor"
     stroke="currentColor"
     points="0.04,0.2 0.04,-0.2 15.2022,-0.2 15.2022,0.2 "
     id="polygon92" />
  <polygon
     transform="translate(9.2162,3.1770867)"
     stroke-linejoin="round"
     stroke-linecap="round"
     stroke-width="0.08"
     fill="currentColor"
     stroke="currentColor"
     points="0.04,0.2 0.04,-0.2 15.2022,-0.2 15.2022,0.2 "
     id="polygon94" />
  <rect
     x="63.566502"
     y="9.2448864"
     width="0.13"
     height="2.5021999"
     ry="0.039999999"
     fill="currentColor"
     id="rect96" />
  <text
     font-family="'Roboto Slab Light'"
     font-size="2.2001px"
     text-anchor="start"
     fill="currentColor"
     id="text100"
     x="68.603897"
     y="1.6670867"><tspan
       id="tspan98">4</tspan></text>
  <path
     d="m 69.2639,4.9130867 0.48,-0.392 c 0.012,-0.008 0.024,-0.016 0.036,-0.016 0.012,0 0.028,0.008 0.04,0.016 l 0.08,0.064 c 0.012,0.012 0.02,0.032 0.02,0.048 0,0.016 -0.008,0.032 -0.02,0.044 l -0.464,0.38 0.464,0.38 c 0.012,0.012 0.02,0.028 0.02,0.044 0,0.016 -0.008,0.036 -0.02,0.048 l -0.08,0.064 c -0.012,0.008 -0.028,0.016 -0.04,0.016 -0.012,0 -0.024,-0.008 -0.036,-0.016 l -0.48,-0.392 -0.484,0.392 c -0.012,0.008 -0.024,0.016 -0.036,0.016 -0.012,0 -0.028,-0.008 -0.04,-0.016 l -0.08,-0.064 c -0.012,-0.012 -0.02,-0.032 -0.02,-0.048 0,-0.016 0.008,-0.032 0.02,-0.044 l 0.464,-0.38 -0.464,-0.38 c -0.012,-0.012 -0.02,-0.028 -0.02,-0.044 0,-0.016 0.008,-0.036 0.02,-0.048 l 0.08,-0.064 c 0.012,-0.008 0.028,-0.016 0.04,-0.016 0.012,0 0.024,0.008 0.036,0.016 z"
     fill="currentColor"
     id="path102"
     style="stroke-width:0.004" />
  <path
     d="m 69.4839,8.5050867 c 0.224,0 0.436,0.116 0.436,0.364 0,0.288 -0.224,0.484 -0.412,0.596 -0.144,0.084 -0.304,0.144 -0.468,0.144 -0.224,0 -0.436,-0.116 -0.436,-0.364 0,-0.288 0.224,-0.484 0.412,-0.596 0.144,-0.084 0.304,-0.144 0.468,-0.144 z"
     fill="currentColor"
     id="path104"
     style="stroke-width:0.004" />
  <path
     d="m 69.4839,6.5050867 c 0.224,0 0.436,0.116 0.436,0.364 0,0.288 -0.224,0.484 -0.412,0.596 -0.144,0.084 -0.304,0.144 -0.468,0.144 -0.224,0 -0.436,-0.116 -0.436,-0.364 0,-0.288 0.224,-0.484 0.412,-0.596 0.144,-0.084 0.304,-0.144 0.468,-0.144 z"
     fill="currentColor"
     id="path106"
     style="stroke-width:0.004" />
  <rect
     x="69.7901"
     y="2.3670866"
     width="0.13"
     height="2.2646999"
     ry="0.039999999"
     fill="currentColor"
     id="rect108" />
  <rect
     x="68.603897"
     y="7.2448869"
     width="0.13"
     height="4.6455002"
     ry="0.039999999"
     fill="currentColor"
     id="rect110" />
  <path
     d="m 74.3013,4.9130867 0.48,-0.392 c 0.012,-0.008 0.024,-0.016 0.036,-0.016 0.012,0 0.028,0.008 0.04,0.016 l 0.08,0.064 c 0.012,0.012 0.02,0.032 0.02,0.048 0,0.016 -0.008,0.032 -0.02,0.044 l -0.464,0.38 0.464,0.38 c 0.012,0.012 0.02,0.028 0.02,0.044 0,0.016 -0.008,0.036 -0.02,0.048 l -0.08,0.064 c -0.012,0.008 -0.028,0.016 -0.04,0.016 -0.012,0 -0.024,-0.008 -0.036,-0.016 l -0.48,-0.392 -0.484,0.392 c -0.012,0.008 -0.024,0.016 -0.036,0.016 -0.012,0 -0.028,-0.008 -0.04,-0.016 l -0.08,-0.064 c -0.012,-0.012 -0.02,-0.032 -0.02,-0.048 0,-0.016 0.008,-0.032 0.02,-0.044 l 0.464,-0.38 -0.464,-0.38 c -0.012,-0.012 -0.02,-0.028 -0.02,-0.044 0,-0.016 0.008,-0.036 0.02,-0.048 l 0.08,-0.064 c 0.012,-0.008 0.028,-0.016 0.04,-0.016 0.012,0 0.024,0.008 0.036,0.016 z"
     fill="currentColor"
     id="path112"
     style="stroke-width:0.004" />
  <rect
     x="74.827499"
     y="2.3670866"
     width="0.13"
     height="2.2646999"
     ry="0.039999999"
     fill="currentColor"
     id="rect114" />
  <path
     d="m 13.7274,4.9130867 0.48,-0.392 c 0.012,-0.008 0.024,-0.016 0.036,-0.016 0.012,0 0.028,0.008 0.04,0.016 l 0.08,0.064 c 0.012,0.012 0.02,0.032 0.02,0.048 0,0.016 -0.008,0.032 -0.02,0.044 l -0.464,0.38 0.464,0.38 c 0.012,0.012 0.02,0.028 0.02,0.044 0,0.016 -0.008,0.036 -0.02,0.048 l -0.08,0.064 c -0.012,0.008 -0.028,0.016 -0.04,0.016 -0.012,0 -0.024,-0.008 -0.036,-0.016 l -0.48,-0.392 -0.484,0.392 c -0.012,0.008 -0.024,0.016 -0.036,0.016 -0.012,0 -0.028,-0.008 -0.04,-0.016 l -0.08,-0.064 c -0.012,-0.012 -0.02,-0.032 -0.02,-0.048 0,-0.016 0.008,-0.032 0.02,-0.044 l 0.464,-0.38 -0.464,-0.38 c -0.012,-0.012 -0.02,-0.028 -0.02,-0.044 0,-0.016 0.008,-0.036 0.02,-0.048 l 0.08,-0.064 c 0.012,-0.008 0.028,-0.016 0.04,-0.016 0.012,0 0.024,0.008 0.036,0.016 z"
     fill="currentColor"
     id="path116"
     style="stroke-width:0.004" />
  <rect
     x="14.2536"
     y="2.3670866"
     width="0.13"
     height="2.2646999"
     ry="0.039999999"
     fill="currentColor"
     id="rect118" />
  <text
     font-family="'Roboto Slab Light'"
     font-size="2.2001px"
     text-anchor="start"
     fill="currentColor"
     id="text122"
     x="18.104799"
     y="1.6328866"><tspan
       id="tspan120">e</tspan></text>
  <path
     d="m 18.7648,4.9130867 0.48,-0.392 c 0.012,-0.008 0.024,-0.016 0.036,-0.016 0.012,0 0.028,0.008 0.04,0.016 l 0.08,0.064 c 0.012,0.012 0.02,0.032 0.02,0.048 0,0.016 -0.008,0.032 -0.02,0.044 l -0.464,0.38 0.464,0.38 c 0.012,0.012 0.02,0.028 0.02,0.044 0,0.016 -0.008,0.036 -0.02,0.048 l -0.08,0.064 c -0.012,0.008 -0.028,0.016 -0.04,0.016 -0.012,0 -0.024,-0.008 -0.036,-0.016 l -0.48,-0.392 -0.484,0.392 c -0.012,0.008 -0.024,0.016 -0.036,0.016 -0.012,0 -0.028,-0.008 -0.04,-0.016 l -0.08,-0.064 c -0.012,-0.012 -0.02,-0.032 -0.02,-0.048 0,-0.016 0.008,-0.032 0.02,-0.044 l 0.464,-0.38 -0.464,-0.38 c -0.012,-0.012 -0.02,-0.028 -0.02,-0.044 0,-0.016 0.008,-0.036 0.02,-0.048 l 0.08,-0.064 c 0.012,-0.008 0.028,-0.016 0.04,-0.016 0.012,0 0.024,0.008 0.036,0.016 z"
     fill="currentColor"
     id="path124"
     style="stroke-width:0.004" />
  <rect
     x="19.291"
     y="2.3670866"
     width="0.13"
     height="2.2646999"
     ry="0.039999999"
     fill="currentColor"
     id="rect126" />
  <path
     d="m 23.8022,4.9130867 0.48,-0.392 c 0.012,-0.008 0.024,-0.016 0.036,-0.016 0.012,0 0.028,0.008 0.04,0.016 l 0.08,0.064 c 0.012,0.012 0.02,0.032 0.02,0.048 0,0.016 -0.008,0.032 -0.02,0.044 l -0.464,0.38 0.464,0.38 c 0.012,0.012 0.02,0.028 0.02,0.044 0,0.016 -0.008,0.036 -0.02,0.048 l -0.08,0.064 c -0.012,0.008 -0.028,0.016 -0.04,0.016 -0.012,0 -0.024,-0.008 -0.036,-0.016 l -0.48,-0.392 -0.484,0.392 c -0.012,0.008 -0.024,0.016 -0.036,0.016 -0.012,0 -0.028,-0.008 -0.04,-0.016 l -0.08,-0.064 c -0.012,-0.012 -0.02,-0.032 -0.02,-0.048 0,-0.016 0.008,-0.032 0.02,-0.044 l 0.464,-0.38 -0.464,-0.38 c -0.012,-0.012 -0.02,-0.028 -0.02,-0.044 0,-0.016 0.008,-0.036 0.02,-0.048 l 0.08,-0.064 c 0.012,-0.008 0.028,-0.016 0.04,-0.016 0.012,0 0.024,0.008 0.036,0.016 z"
     fill="currentColor"
     id="path128"
     style="stroke-width:0.004" />
  <path
     d="m 24.0222,8.5050867 c 0.224,0 0.436,0.116 0.436,0.364 0,0.288 -0.224,0.484 -0.412,0.596 -0.144,0.084 -0.304,0.144 -0.468,0.144 -0.224,0 -0.436,-0.116 -0.436,-0.364 0,-0.288 0.224,-0.484 0.412,-0.596 0.144,-0.084 0.304,-0.144 0.468,-0.144 z"
     fill="currentColor"
     id="path130"
     style="stroke-width:0.004" />
  <text
     font-family="'Roboto Slab Light'"
     font-size="2.2001px"
     text-anchor="start"
     fill="currentColor"
     id="text134"
     x="8.0299997"
     y="1.7654867"><tspan
       id="tspan132">1</tspan></text>
  <path
     d="m 8.69,4.9130867 0.48,-0.392 c 0.012,-0.008 0.024,-0.016 0.036,-0.016 0.012,0 0.028,0.008 0.04,0.016 l 0.08,0.064 c 0.012,0.012 0.02,0.032 0.02,0.048 0,0.016 -0.008,0.032 -0.02,0.044 l -0.464,0.38 0.464,0.38 c 0.012,0.012 0.02,0.028 0.02,0.044 0,0.016 -0.008,0.036 -0.02,0.048 l -0.08,0.064 c -0.012,0.008 -0.028,0.016 -0.04,0.016 -0.012,0 -0.024,-0.008 -0.036,-0.016 l -0.48,-0.392 -0.484,0.392 c -0.012,0.008 -0.024,0.016 -0.036,0.016 -0.012,0 -0.028,-0.008 -0.04,-0.016 l -0.08,-0.064 c -0.012,-0.012 -0.02,-0.032 -0.02,-0.048 0,-0.016 0.008,-0.032 0.02,-0.044 l 0.464,-0.38 -0.464,-0.38 c -0.012,-0.012 -0.02,-0.028 -0.02,-0.044 0,-0.016 0.008,-0.036 0.02,-0.048 l 0.08,-0.064 c 0.012,-0.008 0.028,-0.016 0.04,-0.016 0.012,0 0.024,0.008 0.036,0.016 z"
     fill="currentColor"
     id="path136"
     style="stroke-width:0.004" />
  <path
     d="m 8.91,8.5050867 c 0.224,0 0.436,0.116 0.436,0.364 0,0.288 -0.224,0.484 -0.412,0.596 -0.144,0.084 -0.304,0.144 -0.468,0.144 -0.224,0 -0.436,-0.116 -0.436,-0.364 0,-0.288 0.224,-0.484 0.412,-0.596 0.144,-0.084 0.304,-0.144 0.468,-0.144 z"
     fill="currentColor"
     id="path138"
     style="stroke-width:0.004" />
  <path
     d="M 2.09,8.5570867 H 1.722 c -0.024,0 -0.04,-0.016 -0.04,-0.04 v -1.92 c 0,-0.024 0.016,-0.04 0.04,-0.04 H 2.09 c 0.024,0 0.04,0.016 0.04,0.04 v 1.92 c 0,0.024 -0.016,0.04 -0.04,0.04 z m -0.88,0 H 0.838 c -0.024,0 -0.04,-0.016 -0.04,-0.04 v -1.92 c 0,-0.024 0.016,-0.04 0.04,-0.04 H 1.21 c 0.024,0 0.04,0.016 0.04,0.04 v 1.92 c 0,0.024 -0.016,0.04 -0.04,0.04 z"
     fill="currentColor"
     id="path140"
     style="stroke-width:0.004" />
  <path
     d="m 5.766,7.4490867 c -0.196,0 -0.3,-0.168 -0.3,-0.3 0,-0.152 0.108,-0.308 0.288,-0.308 0.016,0 0.036,0 0.056,0.004 -0.112,-0.148 -0.288,-0.236 -0.48,-0.236 -0.424,0 -0.452,0.292 -0.452,0.744 v 0.204 0.204 c 0,0.452 0.028,0.748 0.452,0.748 0.32,0 0.556,-0.28 0.632,-0.604 0.008,-0.028 0.028,-0.04 0.048,-0.04 0.024,0 0.052,0.016 0.052,0.048 0,0.376 -0.42,0.696 -0.732,0.696 -0.272,0 -0.548,-0.084 -0.736,-0.28 -0.196,-0.204 -0.264,-0.488 -0.264,-0.772 0,-0.284 0.068,-0.568 0.264,-0.772 0.188,-0.196 0.464,-0.276 0.736,-0.276 0.348,0 0.64,0.256 0.7,0.6 0.004,0.02 0.004,0.036 0.004,0.052 0,0.16 -0.12,0.288 -0.268,0.288 z"
     fill="currentColor"
     id="path142"
     style="stroke-width:0.004" />
  <rect
     x="9.2161999"
     y="2.3670866"
     width="0.13"
     height="2.2646999"
     ry="0.039999999"
     fill="currentColor"
     id="rect144" />
  <path
     d="m 9.7962,9.0570867 c 0,-0.124 0.1,-0.224 0.224,-0.224 0.124,0 0.224,0.1 0.224,0.224 0,0.124 -0.1,0.224 -0.224,0.224 -0.124,0 -0.224,-0.1 -0.224,-0.224 z"
     fill="currentColor"
     id="path146"
     style="stroke-width:0.004" />
  <rect
     x="8.0299997"
     y="9.2448864"
     width="0.13"
     height="2.5021999"
     ry="0.039999999"
     fill="currentColor"
     id="rect148" />
  <rect
     x="29.490801"
     y="2.3670866"
     width="0.13"
     height="2.2646999"
     ry="0.039999999"
     fill="currentColor"
     id="rect150" />
  <rect
     x="28.3046"
     y="7.2448869"
     width="0.13"
     height="3.3122001"
     ry="0.039999999"
     fill="currentColor"
     id="rect152" />
  <path
     d="m 34.0021,4.9130867 0.48,-0.392 c 0.012,-0.008 0.024,-0.016 0.036,-0.016 0.012,0 0.028,0.008 0.04,0.016 l 0.08,0.064 c 0.012,0.012 0.02,0.032 0.02,0.048 0,0.016 -0.008,0.032 -0.02,0.044 l -0.464,0.38 0.464,0.38 c 0.012,0.012 0.02,0.028 0.02,0.044 0,0.016 -0.008,0.036 -0.02,0.048 l -0.08,0.064 c -0.012,0.008 -0.028,0.016 -0.04,0.016 -0.012,0 -0.024,-0.008 -0.036,-0.016 l -0.48,-0.392 -0.484,0.392 c -0.012,0.008 -0.024,0.016 -0.036,0.016 -0.012,0 -0.028,-0.008 -0.04,-0.016 l -0.08,-0.064 c -0.012,-0.012 -0.02,-0.032 -0.02,-0.048 0,-0.016 0.008,-0.032 0.02,-0.044 l 0.464,-0.38 -0.464,-0.38 c -0.012,-0.012 -0.02,-0.028 -0.02,-0.044 0,-0.016 0.008,-0.036 0.02,-0.048 l 0.08,-0.064 c 0.012,-0.008 0.028,-0.016 0.04,-0.016 0.012,0 0.024,0.008 0.036,0.016 z"
     fill="currentColor"
     id="path154"
     style="stroke-width:0.004" />
  <rect
     x="34.528198"
     y="2.3670866"
     width="0.13"
     height="2.2646999"
     ry="0.039999999"
     fill="currentColor"
     id="rect156" />
  <text
     font-family="'Roboto Slab Light'"
     font-size="2.2001px"
     text-anchor="start"
     fill="currentColor"
     id="text160"
     x="38.379501"
     y="1.6328866"><tspan
       id="tspan158">e</tspan></text>
  <path
     d="m 39.0395,4.9130867 0.48,-0.392 c 0.012,-0.008 0.024,-0.016 0.036,-0.016 0.012,0 0.028,0.008 0.04,0.016 l 0.08,0.064 c 0.012,0.012 0.02,0.032 0.02,0.048 0,0.016 -0.008,0.032 -0.02,0.044 l -0.464,0.38 0.464,0.38 c 0.012,0.012 0.02,0.028 0.02,0.044 0,0.016 -0.008,0.036 -0.02,0.048 l -0.08,0.064 c -0.012,0.008 -0.028,0.016 -0.04,0.016 -0.012,0 -0.024,-0.008 -0.036,-0.016 l -0.48,-0.392 -0.484,0.392 c -0.012,0.008 -0.024,0.016 -0.036,0.016 -0.012,0 -0.028,-0.008 -0.04,-0.016 l -0.08,-0.064 c -0.012,-0.012 -0.02,-0.032 -0.02,-0.048 0,-0.016 0.008,-0.032 0.02,-0.044 l 0.464,-0.38 -0.464,-0.38 c -0.012,-0.012 -0.02,-0.028 -0.02,-0.044 0,-0.016 0.008,-0.036 0.02,-0.048 l 0.08,-0.064 c 0.012,-0.008 0.028,-0.016 0.04,-0.016 0.012,0 0.024,0.008 0.036,0.016 z"
     fill="currentColor"
     id="path162"
     style="stroke-width:0.004" />
  <rect
     x="39.565601"
     y="2.3670866"
     width="0.13"
     height="2.2646999"
     ry="0.039999999"
     fill="currentColor"
     id="rect164" />
  <rect
     x="24.3284"
     y="2.3670866"
     width="0.13"
     height="2.2646999"
     ry="0.039999999"
     fill="currentColor"
     id="rect166" />
  <rect
     x="23.1422"
     y="9.2448864"
     width="0.13"
     height="2.5021999"
     ry="0.039999999"
     fill="currentColor"
     id="rect168" />
  <path
     d="m 29.1846,6.5050867 c 0.224,0 0.436,0.116 0.436,0.364 0,0.288 -0.224,0.484 -0.412,0.596 -0.144,0.084 -0.304,0.144 -0.468,0.144 -0.224,0 -0.436,-0.116 -0.436,-0.364 0,-0.288 0.224,-0.484 0.412,-0.596 0.144,-0.084 0.304,-0.144 0.468,-0.144 z"
     fill="currentColor"
     id="path170"
     style="stroke-width:0.004" />
  <path
     d="m 28.9646,4.9130867 0.48,-0.392 c 0.012,-0.008 0.024,-0.016 0.036,-0.016 0.012,0 0.028,0.008 0.04,0.016 l 0.08,0.064 c 0.012,0.012 0.02,0.032 0.02,0.048 0,0.016 -0.008,0.032 -0.02,0.044 l -0.464,0.38 0.464,0.38 c 0.012,0.012 0.02,0.028 0.02,0.044 0,0.016 -0.008,0.036 -0.02,0.048 l -0.08,0.064 c -0.012,0.008 -0.028,0.016 -0.04,0.016 -0.012,0 -0.024,-0.008 -0.036,-0.016 l -0.48,-0.392 -0.484,0.392 c -0.012,0.008 -0.024,0.016 -0.036,0.016 -0.012,0 -0.028,-0.008 -0.04,-0.016 l -0.08,-0.064 c -0.012,-0.012 -0.02,-0.032 -0.02,-0.048 0,-0.016 0.008,-0.032 0.02,-0.044 l 0.464,-0.38 -0.464,-0.38 c -0.012,-0.012 -0.02,-0.028 -0.02,-0.044 0,-0.016 0.008,-0.036 0.02,-0.048 l 0.08,-0.064 c 0.012,-0.008 0.028,-0.016 0.04,-0.016 0.012,0 0.024,0.008 0.036,0.016 z"
     fill="currentColor"
     id="path172"
     style="stroke-width:0.004" />
  <text
     font-family="'Roboto Slab Light'"
     font-size="2.2001px"
     text-anchor="start"
     fill="currentColor"
     id="text176"
     x="28.3046"
     y="1.6670867"><tspan
       id="tspan174">2</tspan></text>
</svg>
