<?xml version="1.0" encoding="UTF-8" standalone="no"?>
<svg
   version="1.2"
   width="159.20001mm"
   height="18.417385mm"
   viewBox="0 0 90.593601 10.480509"
   id="svg102"
   xmlns="http://www.w3.org/2000/svg"
   xmlns:svg="http://www.w3.org/2000/svg">
  <defs
     id="defs106" />
  <!-- Page: 1/1 -->
  <text
     font-family="'Century Schoolbook L'"
     font-size="2.2001px"
     text-anchor="start"
     fill="currentColor"
     id="text4"
     y="-1.0244933"><tspan
       id="tspan2" /></text>
  <line
     stroke-linejoin="round"
     stroke-linecap="round"
     stroke-width="0.1"
     stroke="currentColor"
     x1="0.050000001"
     y1="4.9472065"
     x2="90.543602"
     y2="4.9472065"
     id="line6" />
  <path
     d="m 88.7536,4.4972067 c 0,-0.124 0.1,-0.224 0.224,-0.224 0.124,0 0.224,0.1 0.224,0.224 0,0.124 -0.1,0.224 -0.224,0.224 -0.124,0 -0.224,-0.1 -0.224,-0.224 z"
     fill="currentColor"
     id="path8"
     style="stroke-width:0.004" />
  <path
     d="m 88.7536,5.3972067 c 0,-0.124 0.1,-0.224 0.224,-0.224 0.124,0 0.224,0.1 0.224,0.224 0,0.124 -0.1,0.224 -0.224,0.224 -0.124,0 -0.224,-0.1 -0.224,-0.224 z"
     fill="currentColor"
     id="path10"
     style="stroke-width:0.004" />
  <rect
     x="89.993599"
     y="3.8972068"
     width="0.60000002"
     height="2.0999999"
     ry="0.0000"
     fill="currentColor"
     id="rect12" />
  <rect
     x="89.503601"
     y="3.8972068"
     width="0.19"
     height="2.0999999"
     ry="0.0000"
     fill="currentColor"
     id="rect14" />
  <rect
     x="69.791496"
     y="1.9472066"
     width="0.13"
     height="2.8122001"
     ry="0.039999999"
     fill="currentColor"
     id="rect16" />
  <text
     font-family="'Roboto Light'"
     font-size="2.2001px"
     text-anchor="start"
     fill="currentColor"
     id="text20"
     x="68.665901"
     y="10.447206"><tspan
       id="tspan18">4</tspan></text>
  <path
     d="m 69.4854,4.3952067 c 0.224,0 0.436,0.116 0.436,0.364 0,0.288 -0.224,0.484 -0.412,0.596 -0.144,0.084 -0.304,0.144 -0.468,0.144 -0.224,0 -0.436,-0.116 -0.436,-0.364 0,-0.288 0.224,-0.484 0.412,-0.596 0.144,-0.084 0.304,-0.144 0.468,-0.144 z"
     fill="currentColor"
     id="path22"
     style="stroke-width:0.004" />
  <rect
     x="62.9701"
     y="1.9472066"
     width="0.13"
     height="2.8122001"
     ry="0.039999999"
     fill="currentColor"
     id="rect24" />
  <path
     d="m 62.6639,4.3952067 c 0.224,0 0.436,0.116 0.436,0.364 0,0.288 -0.224,0.484 -0.412,0.596 -0.144,0.084 -0.304,0.144 -0.468,0.144 -0.224,0 -0.436,-0.116 -0.436,-0.364 0,-0.288 0.224,-0.484 0.412,-0.596 0.144,-0.084 0.304,-0.144 0.468,-0.144 z"
     fill="currentColor"
     id="path26"
     style="stroke-width:0.004" />
  <path
     d="m 55.5666,5.9472067 0.468,-1.304 c -0.136,0.048 -0.276,0.088 -0.42,0.088 -0.184,0 -0.348,-0.132 -0.348,-0.316 0,-0.16 0.132,-0.288 0.292,-0.288 0.1,0 0.192,0.06 0.224,0.156 0.04,0.112 0.024,0.236 0.14,0.236 0.064,0 0.216,-0.192 0.244,-0.252 0.024,-0.048 0.092,-0.048 0.112,0 l -0.492,1.68 c -0.032,0.028 -0.068,0.04 -0.108,0.04 -0.04,0 -0.08,-0.012 -0.112,-0.04 z"
     fill="currentColor"
     id="path28"
     style="stroke-width:0.004" />
  <rect
     x="49.643299"
     y="1.9472066"
     width="0.13"
     height="2.8122001"
     ry="0.039999999"
     fill="currentColor"
     id="rect30" />
  <text
     font-family="'Roboto Light'"
     font-size="2.2001px"
     text-anchor="start"
     fill="currentColor"
     id="text34"
     x="48.500702"
     y="10.447206"><tspan
       id="tspan32">3</tspan></text>
  <path
     d="m 49.3372,4.3952067 c 0.224,0 0.436,0.116 0.436,0.364 0,0.288 -0.224,0.484 -0.412,0.596 -0.144,0.084 -0.304,0.144 -0.468,0.144 -0.224,0 -0.436,-0.116 -0.436,-0.364 0,-0.288 0.224,-0.484 0.412,-0.596 0.144,-0.084 0.304,-0.144 0.468,-0.144 z"
     fill="currentColor"
     id="path36"
     style="stroke-width:0.004" />
  <polygon
     transform="translate(9.3469,1.9472067)"
     stroke-linejoin="round"
     stroke-linecap="round"
     stroke-width="0.08"
     fill="currentColor"
     stroke="currentColor"
     points="0.04,0.2 0.04,-0.2 13.4167,-0.2 13.4167,0.2 "
     id="polygon38" />
  <text
     font-family="'Century Schoolbook L'"
     font-style="italic"
     font-size="1.7461px"
     text-anchor="start"
     fill="currentColor"
     id="text42"
     x="15.5973"
     y="1.2047067"><tspan
       id="tspan40">3</tspan></text>
  <polygon
     transform="translate(29.4951,1.9472067)"
     stroke-linejoin="round"
     stroke-linecap="round"
     stroke-width="0.08"
     fill="currentColor"
     stroke="currentColor"
     points="0.04,0.2 0.04,-0.2 13.4167,-0.2 13.4167,0.2 "
     id="polygon44" />
  <text
     font-family="'Century Schoolbook L'"
     font-style="italic"
     font-size="1.7461px"
     text-anchor="start"
     fill="currentColor"
     id="text48"
     x="35.745499"
     y="1.2047067"><tspan
       id="tspan46">3</tspan></text>
  <polygon
     transform="translate(49.6433,1.9472067)"
     stroke-linejoin="round"
     stroke-linecap="round"
     stroke-width="0.08"
     fill="currentColor"
     stroke="currentColor"
     points="0.04,0.2 0.04,-0.2 13.4167,-0.2 13.4167,0.2 "
     id="polygon50" />
  <text
     font-family="'Century Schoolbook L'"
     font-style="italic"
     font-size="1.7461px"
     text-anchor="start"
     fill="currentColor"
     id="text54"
     x="55.8937"
     y="1.2047067"><tspan
       id="tspan52">3</tspan></text>
  <polygon
     transform="translate(69.7915,1.9472067)"
     stroke-linejoin="round"
     stroke-linecap="round"
     stroke-width="0.08"
     fill="currentColor"
     stroke="currentColor"
     points="0.04,0.2 0.04,-0.2 13.4167,-0.2 13.4167,0.2 "
     id="polygon56" />
  <text
     font-family="'Century Schoolbook L'"
     font-style="italic"
     font-size="1.7461px"
     text-anchor="start"
     fill="currentColor"
     id="text60"
     x="76.041901"
     y="1.2047067"><tspan
       id="tspan58">3</tspan></text>
  <rect
     x="83.118301"
     y="1.9472066"
     width="0.13"
     height="2.8122001"
     ry="0.039999999"
     fill="currentColor"
     id="rect62" />
  <path
     d="m 82.8121,4.3952067 c 0.224,0 0.436,0.116 0.436,0.364 0,0.288 -0.224,0.484 -0.412,0.596 -0.144,0.084 -0.304,0.144 -0.468,0.144 -0.224,0 -0.436,-0.116 -0.436,-0.364 0,-0.288 0.224,-0.484 0.412,-0.596 0.144,-0.084 0.304,-0.144 0.468,-0.144 z"
     fill="currentColor"
     id="path64"
     style="stroke-width:0.004" />
  <path
     d="m 75.7148,5.9472067 0.468,-1.304 c -0.136,0.048 -0.276,0.088 -0.42,0.088 -0.184,0 -0.348,-0.132 -0.348,-0.316 0,-0.16 0.132,-0.288 0.292,-0.288 0.1,0 0.192,0.06 0.224,0.156 0.04,0.112 0.024,0.236 0.14,0.236 0.064,0 0.216,-0.192 0.244,-0.252 0.024,-0.048 0.092,-0.048 0.112,0 l -0.492,1.68 c -0.032,0.028 -0.068,0.04 -0.108,0.04 -0.04,0 -0.08,-0.012 -0.112,-0.04 z"
     fill="currentColor"
     id="path66"
     style="stroke-width:0.004" />
  <rect
     x="22.6737"
     y="1.9472066"
     width="0.13"
     height="2.8122001"
     ry="0.039999999"
     fill="currentColor"
     id="rect68" />
  <path
     d="m 22.3675,4.3952067 c 0.224,0 0.436,0.116 0.436,0.364 0,0.288 -0.224,0.484 -0.412,0.596 -0.144,0.084 -0.304,0.144 -0.468,0.144 -0.224,0 -0.436,-0.116 -0.436,-0.364 0,-0.288 0.224,-0.484 0.412,-0.596 0.144,-0.084 0.304,-0.144 0.468,-0.144 z"
     fill="currentColor"
     id="path70"
     style="stroke-width:0.004" />
  <path
     d="m 15.2702,5.9472067 0.468,-1.304 c -0.136,0.048 -0.276,0.088 -0.42,0.088 -0.184,0 -0.348,-0.132 -0.348,-0.316 0,-0.16 0.132,-0.288 0.292,-0.288 0.1,0 0.192,0.06 0.224,0.156 0.04,0.112 0.024,0.236 0.14,0.236 0.064,0 0.216,-0.192 0.244,-0.252 0.024,-0.048 0.092,-0.048 0.112,0 l -0.492,1.68 c -0.032,0.028 -0.068,0.04 -0.108,0.04 -0.04,0 -0.08,-0.012 -0.112,-0.04 z"
     fill="currentColor"
     id="path72"
     style="stroke-width:0.004" />
  <rect
     x="9.3469"
     y="1.9472066"
     width="0.13"
     height="2.8122001"
     ry="0.039999999"
     fill="currentColor"
     id="rect74" />
  <text
     font-family="'Roboto Slab Light'"
     font-size="2.2001px"
     text-anchor="start"
     fill="currentColor"
     id="text78"
     y="10.447206"><tspan
       id="tspan76">Pulsos:</tspan></text>
  <text
     font-family="'Roboto Light'"
     font-size="2.2001px"
     text-anchor="start"
     fill="currentColor"
     id="text82"
     x="8.2041998"
     y="10.447206"><tspan
       id="tspan80">1</tspan></text>
  <path
     d="m 2.436,4.8392067 c -0.196,0 -0.3,-0.168 -0.3,-0.3 0,-0.152 0.108,-0.308 0.288,-0.308 0.016,0 0.036,0 0.056,0.004 -0.112,-0.148 -0.288,-0.236 -0.48,-0.236 -0.424,0 -0.452,0.292 -0.452,0.744 v 0.204 0.204 c 0,0.452 0.028,0.748 0.452,0.748 0.32,0 0.556,-0.28 0.632,-0.604 0.008,-0.028 0.028,-0.04 0.048,-0.04 0.024,0 0.052,0.016 0.052,0.048 0,0.376 -0.42,0.696 -0.732,0.696 -0.272,0 -0.548,-0.084 -0.736,-0.28 -0.196,-0.204 -0.264,-0.488 -0.264,-0.772 0,-0.284 0.068,-0.568 0.264,-0.772 0.188,-0.196 0.464,-0.276 0.736,-0.276 0.348,0 0.64,0.256 0.7,0.6 0.004,0.02 0.004,0.036 0.004,0.052 0,0.16 -0.12,0.288 -0.268,0.288 z"
     fill="currentColor"
     id="path84"
     style="stroke-width:0.004" />
  <path
     d="m 9.0407,4.3952067 c 0.224,0 0.436,0.116 0.436,0.364 0,0.288 -0.224,0.484 -0.412,0.596 -0.144,0.084 -0.304,0.144 -0.468,0.144 -0.224,0 -0.436,-0.116 -0.436,-0.364 0,-0.288 0.224,-0.484 0.412,-0.596 0.144,-0.084 0.304,-0.144 0.468,-0.144 z"
     fill="currentColor"
     id="path86"
     style="stroke-width:0.004" />
  <rect
     x="42.821899"
     y="1.9472066"
     width="0.13"
     height="2.8122001"
     ry="0.039999999"
     fill="currentColor"
     id="rect88" />
  <path
     d="m 42.5157,4.3952067 c 0.224,0 0.436,0.116 0.436,0.364 0,0.288 -0.224,0.484 -0.412,0.596 -0.144,0.084 -0.304,0.144 -0.468,0.144 -0.224,0 -0.436,-0.116 -0.436,-0.364 0,-0.288 0.224,-0.484 0.412,-0.596 0.144,-0.084 0.304,-0.144 0.468,-0.144 z"
     fill="currentColor"
     id="path90"
     style="stroke-width:0.004" />
  <path
     d="m 35.4184,5.9472067 0.468,-1.304 c -0.136,0.048 -0.276,0.088 -0.42,0.088 -0.184,0 -0.348,-0.132 -0.348,-0.316 0,-0.16 0.132,-0.288 0.292,-0.288 0.1,0 0.192,0.06 0.224,0.156 0.04,0.112 0.024,0.236 0.14,0.236 0.064,0 0.216,-0.192 0.244,-0.252 0.024,-0.048 0.092,-0.048 0.112,0 l -0.492,1.68 c -0.032,0.028 -0.068,0.04 -0.108,0.04 -0.04,0 -0.08,-0.012 -0.112,-0.04 z"
     fill="currentColor"
     id="path92"
     style="stroke-width:0.004" />
  <rect
     x="29.4951"
     y="1.9472066"
     width="0.13"
     height="2.8122001"
     ry="0.039999999"
     fill="currentColor"
     id="rect94" />
  <text
     font-family="'Roboto Light'"
     font-size="2.2001px"
     text-anchor="start"
     fill="currentColor"
     id="text98"
     x="28.352501"
     y="10.447206"><tspan
       id="tspan96">2</tspan></text>
  <path
     d="m 29.1889,4.3952067 c 0.224,0 0.436,0.116 0.436,0.364 0,0.288 -0.224,0.484 -0.412,0.596 -0.144,0.084 -0.304,0.144 -0.468,0.144 -0.224,0 -0.436,-0.116 -0.436,-0.364 0,-0.288 0.224,-0.484 0.412,-0.596 0.144,-0.084 0.304,-0.144 0.468,-0.144 z"
     fill="currentColor"
     id="path100"
     style="stroke-width:0.004" />
</svg>
