<?xml version="1.0" encoding="UTF-8" standalone="no"?>
<svg
   version="1.2"
   width="181.46193mm"
   height="82.768768mm"
   viewBox="0 0 103.26186 47.1"
   id="svg472"
   xmlns="http://www.w3.org/2000/svg"
   xmlns:svg="http://www.w3.org/2000/svg">
  <defs
     id="defs476" />
  <!-- Page: 1/1 -->
  <text
     font-family="'Century Schoolbook L'"
     font-size="2.2001px"
     text-anchor="start"
     fill="currentColor"
     id="text4"
     x="12.668258"
     y="-1"><tspan
       id="tspan2" /></text>
  <rect
     x="103.07186"
     y="36"
     width="0.19"
     height="2.0999999"
     ry="0.0000"
     fill="currentColor"
     id="rect6" />
  <rect
     x="103.07186"
     y="18"
     width="0.19"
     height="2.0999999"
     ry="0.0000"
     fill="currentColor"
     id="rect8" />
  <rect
     x="103.07186"
     y="1.3322676e-15"
     width="0.19"
     height="2.0999999"
     ry="0.0000"
     fill="currentColor"
     id="rect10" />
  <line
     stroke-linejoin="round"
     stroke-linecap="round"
     stroke-width="0.1"
     stroke="currentColor"
     x1="12.718258"
     y1="46.049999"
     x2="103.21186"
     y2="46.049999"
     id="line12" />
  <line
     stroke-linejoin="round"
     stroke-linecap="round"
     stroke-width="0.1"
     stroke="currentColor"
     x1="12.718258"
     y1="37.049999"
     x2="103.21186"
     y2="37.049999"
     id="line14" />
  <rect
     x="103.07186"
     y="45"
     width="0.19"
     height="2.0999999"
     ry="0.0000"
     fill="currentColor"
     id="rect16" />
  <line
     stroke-linejoin="round"
     stroke-linecap="round"
     stroke-width="0.1"
     stroke="currentColor"
     x1="12.718258"
     y1="28.049999"
     x2="103.21186"
     y2="28.049999"
     id="line18" />
  <rect
     x="103.07186"
     y="27"
     width="0.19"
     height="2.0999999"
     ry="0.0000"
     fill="currentColor"
     id="rect20" />
  <line
     stroke-linejoin="round"
     stroke-linecap="round"
     stroke-width="0.1"
     stroke="currentColor"
     x1="12.718258"
     y1="1.05"
     x2="103.21186"
     y2="1.05"
     id="line22" />
  <line
     stroke-linejoin="round"
     stroke-linecap="round"
     stroke-width="0.1"
     stroke="currentColor"
     x1="12.718258"
     y1="10.05"
     x2="103.21186"
     y2="10.05"
     id="line24" />
  <rect
     x="103.07186"
     y="9"
     width="0.19"
     height="2.0999999"
     ry="0.0000"
     fill="currentColor"
     id="rect26" />
  <line
     stroke-linejoin="round"
     stroke-linecap="round"
     stroke-width="0.1"
     stroke="currentColor"
     x1="12.718258"
     y1="19.049999"
     x2="103.21186"
     y2="19.049999"
     id="line28" />
  <rect
     x="65.319756"
     y="42.549999"
     width="0.13"
     height="3.3122001"
     ry="0.039999999"
     fill="currentColor"
     id="rect30" />
  <rect
     x="70.873558"
     y="42.549999"
     width="0.13"
     height="3.3122001"
     ry="0.039999999"
     fill="currentColor"
     id="rect32" />
  <rect
     x="70.873558"
     y="33.860001"
     width="0.13"
     height="3.0021999"
     ry="0.039999999"
     fill="currentColor"
     id="rect34" />
  <rect
     x="70.873558"
     y="25.049999"
     width="0.13"
     height="2.8122001"
     ry="0.039999999"
     fill="currentColor"
     id="rect36" />
  <path
     d="m 70.567358,45.498 c 0.224,0 0.436,0.116 0.436,0.364 0,0.288 -0.224,0.484 -0.412,0.596 -0.144,0.084 -0.304,0.144 -0.468,0.144 -0.224,0 -0.436,-0.116 -0.436,-0.364 0,-0.288 0.224,-0.484 0.412,-0.596 0.144,-0.084 0.304,-0.144 0.468,-0.144 z"
     fill="currentColor"
     id="path38"
     style="stroke-width:0.004" />
  <text
     font-family="'Roboto Light'"
     font-size="2.2001px"
     text-anchor="start"
     fill="currentColor"
     id="text42"
     x="69.679657"
     y="40.775902"><tspan
       id="tspan40">&amp;</tspan></text>
  <path
     d="m 70.567358,36.498 c 0.224,0 0.436,0.116 0.436,0.364 0,0.288 -0.224,0.484 -0.412,0.596 -0.144,0.084 -0.304,0.144 -0.468,0.144 -0.224,0 -0.436,-0.116 -0.436,-0.364 0,-0.288 0.224,-0.484 0.412,-0.596 0.144,-0.084 0.304,-0.144 0.468,-0.144 z"
     fill="currentColor"
     id="path44"
     style="stroke-width:0.004" />
  <text
     font-family="'Roboto Light'"
     font-size="2.2001px"
     text-anchor="start"
     fill="currentColor"
     id="text48"
     x="69.782158"
     y="32.085899"><tspan
       id="tspan46">e</tspan></text>
  <path
     d="m 70.567358,27.498 c 0.224,0 0.436,0.116 0.436,0.364 0,0.288 -0.224,0.484 -0.412,0.596 -0.144,0.084 -0.304,0.144 -0.468,0.144 -0.224,0 -0.436,-0.116 -0.436,-0.364 0,-0.288 0.224,-0.484 0.412,-0.596 0.144,-0.084 0.304,-0.144 0.468,-0.144 z"
     fill="currentColor"
     id="path50"
     style="stroke-width:0.004" />
  <rect
     x="68.096657"
     y="42.549999"
     width="0.13"
     height="3.3122001"
     ry="0.039999999"
     fill="currentColor"
     id="rect52" />
  <path
     d="m 67.790458,45.498 c 0.224,0 0.436,0.116 0.436,0.364 0,0.288 -0.224,0.484 -0.412,0.596 -0.144,0.084 -0.304,0.144 -0.468,0.144 -0.224,0 -0.436,-0.116 -0.436,-0.364 0,-0.288 0.224,-0.484 0.412,-0.596 0.144,-0.084 0.304,-0.144 0.468,-0.144 z"
     fill="currentColor"
     id="path54"
     style="stroke-width:0.004" />
  <text
     font-family="'Roboto Light'"
     font-size="2.2001px"
     text-anchor="start"
     fill="currentColor"
     id="text58"
     x="80.85556"
     y="32.085899"><tspan
       id="tspan56">4</tspan></text>
  <path
     d="m 81.675058,27.498 c 0.224,0 0.436,0.116 0.436,0.364 0,0.288 -0.224,0.484 -0.412,0.596 -0.144,0.084 -0.304,0.144 -0.468,0.144 -0.224,0 -0.436,-0.116 -0.436,-0.364 0,-0.288 0.224,-0.484 0.412,-0.596 0.144,-0.084 0.304,-0.144 0.468,-0.144 z"
     fill="currentColor"
     id="path60"
     style="stroke-width:0.004" />
  <text
     font-family="'Roboto Light'"
     font-size="2.2001px"
     text-anchor="start"
     fill="currentColor"
     id="text64"
     x="80.85556"
     y="23.2759"><tspan
       id="tspan62">4</tspan></text>
  <path
     d="m 81.675058,18.498 c 0.224,0 0.436,0.116 0.436,0.364 0,0.288 -0.224,0.484 -0.412,0.596 -0.144,0.084 -0.304,0.144 -0.468,0.144 -0.224,0 -0.436,-0.116 -0.436,-0.364 0,-0.288 0.224,-0.484 0.412,-0.596 0.144,-0.084 0.304,-0.144 0.468,-0.144 z"
     fill="currentColor"
     id="path66"
     style="stroke-width:0.004" />
  <rect
     x="79.204254"
     y="42.549999"
     width="0.13"
     height="3.3122001"
     ry="0.039999999"
     fill="currentColor"
     id="rect68" />
  <path
     d="m 78.898158,45.498 c 0.224,0 0.436,0.116 0.436,0.364 0,0.288 -0.224,0.484 -0.412,0.596 -0.144,0.084 -0.304,0.144 -0.468,0.144 -0.224,0 -0.436,-0.116 -0.436,-0.364 0,-0.288 0.224,-0.484 0.412,-0.596 0.144,-0.084 0.304,-0.144 0.468,-0.144 z"
     fill="currentColor"
     id="path70"
     style="stroke-width:0.004" />
  <rect
     x="76.427361"
     y="42.549999"
     width="0.13"
     height="3.3122001"
     ry="0.039999999"
     fill="currentColor"
     id="rect72" />
  <rect
     x="76.427361"
     y="33.860001"
     width="0.13"
     height="3.0021999"
     ry="0.039999999"
     fill="currentColor"
     id="rect74" />
  <path
     d="m 76.121158,45.498 c 0.224,0 0.436,0.116 0.436,0.364 0,0.288 -0.224,0.484 -0.412,0.596 -0.144,0.084 -0.304,0.144 -0.468,0.144 -0.224,0 -0.436,-0.116 -0.436,-0.364 0,-0.288 0.224,-0.484 0.412,-0.596 0.144,-0.084 0.304,-0.144 0.468,-0.144 z"
     fill="currentColor"
     id="path76"
     style="stroke-width:0.004" />
  <text
     font-family="'Roboto Light'"
     font-size="2.2001px"
     text-anchor="start"
     fill="currentColor"
     id="text80"
     x="75.301758"
     y="40.775902"><tspan
       id="tspan78">a</tspan></text>
  <path
     d="m 76.121158,36.498 c 0.224,0 0.436,0.116 0.436,0.364 0,0.288 -0.224,0.484 -0.412,0.596 -0.144,0.084 -0.304,0.144 -0.468,0.144 -0.224,0 -0.436,-0.116 -0.436,-0.364 0,-0.288 0.224,-0.484 0.412,-0.596 0.144,-0.084 0.304,-0.144 0.468,-0.144 z"
     fill="currentColor"
     id="path82"
     style="stroke-width:0.004" />
  <rect
     x="73.650459"
     y="42.549999"
     width="0.13"
     height="3.3122001"
     ry="0.039999999"
     fill="currentColor"
     id="rect84" />
  <path
     d="m 73.344258,45.498 c 0.224,0 0.436,0.116 0.436,0.364 0,0.288 -0.224,0.484 -0.412,0.596 -0.144,0.084 -0.304,0.144 -0.468,0.144 -0.224,0 -0.436,-0.116 -0.436,-0.364 0,-0.288 0.224,-0.484 0.412,-0.596 0.144,-0.084 0.304,-0.144 0.468,-0.144 z"
     fill="currentColor"
     id="path86"
     style="stroke-width:0.004" />
  <rect
     x="59.765957"
     y="15.7167"
     width="0.13"
     height="3.1454999"
     ry="0.039999999"
     fill="currentColor"
     id="rect88" />
  <rect
     x="59.839756"
     y="6.7167001"
     width="0.13"
     height="3.0718999"
     ry="0.039999999"
     fill="currentColor"
     id="rect90" />
  <path
     d="m 59.459758,45.498 c 0.224,0 0.436,0.116 0.436,0.364 0,0.288 -0.224,0.484 -0.412,0.596 -0.144,0.084 -0.304,0.144 -0.468,0.144 -0.224,0 -0.436,-0.116 -0.436,-0.364 0,-0.288 0.224,-0.484 0.412,-0.596 0.144,-0.084 0.304,-0.144 0.468,-0.144 z"
     fill="currentColor"
     id="path92"
     style="stroke-width:0.004" />
  <text
     font-family="'Roboto Light'"
     font-size="2.2001px"
     text-anchor="start"
     fill="currentColor"
     id="text96"
     x="58.623257"
     y="40.775902"><tspan
       id="tspan94">3</tspan></text>
  <path
     d="m 59.459758,36.498 c 0.224,0 0.436,0.116 0.436,0.364 0,0.288 -0.224,0.484 -0.412,0.596 -0.144,0.084 -0.304,0.144 -0.468,0.144 -0.224,0 -0.436,-0.116 -0.436,-0.364 0,-0.288 0.224,-0.484 0.412,-0.596 0.144,-0.084 0.304,-0.144 0.468,-0.144 z"
     fill="currentColor"
     id="path98"
     style="stroke-width:0.004" />
  <text
     font-family="'Roboto Light'"
     font-size="2.2001px"
     text-anchor="start"
     fill="currentColor"
     id="text102"
     x="58.623257"
     y="32.085899"><tspan
       id="tspan100">3</tspan></text>
  <path
     d="m 59.459758,27.498 c 0.224,0 0.436,0.116 0.436,0.364 0,0.288 -0.224,0.484 -0.412,0.596 -0.144,0.084 -0.304,0.144 -0.468,0.144 -0.224,0 -0.436,-0.116 -0.436,-0.364 0,-0.288 0.224,-0.484 0.412,-0.596 0.144,-0.084 0.304,-0.144 0.468,-0.144 z"
     fill="currentColor"
     id="path104"
     style="stroke-width:0.004" />
  <text
     font-family="'Roboto Light'"
     font-size="2.2001px"
     text-anchor="start"
     fill="currentColor"
     id="text108"
     x="58.623257"
     y="23.2759"><tspan
       id="tspan106">3</tspan></text>
  <path
     d="m 59.459758,18.498 c 0.224,0 0.436,0.116 0.436,0.364 0,0.288 -0.224,0.484 -0.412,0.596 -0.144,0.084 -0.304,0.144 -0.468,0.144 -0.224,0 -0.436,-0.116 -0.436,-0.364 0,-0.288 0.224,-0.484 0.412,-0.596 0.144,-0.084 0.304,-0.144 0.468,-0.144 z"
     fill="currentColor"
     id="path110"
     style="stroke-width:0.004" />
  <text
     font-family="'Roboto Light'"
     font-size="2.2001px"
     text-anchor="start"
     fill="currentColor"
     id="text114"
     x="58.660156"
     y="14.1825"><tspan
       id="tspan112">3</tspan></text>
  <path
     d="m 59.839758,9.79 c 0,-0.096 -0.084,-0.164 -0.168,-0.164 -0.016,0 -0.032,0 -0.048,0.004 -0.124,0.036 -0.308,0.16 -0.456,0.256 -0.148,0.096 -0.336,0.212 -0.416,0.312 -0.028,0.032 -0.044,0.072 -0.044,0.112 0,0.096 0.084,0.164 0.168,0.164 0.016,0 0.032,0 0.048,-0.004 0.124,-0.036 0.312,-0.16 0.46,-0.256 0.148,-0.096 0.336,-0.212 0.416,-0.312 0.028,-0.032 0.04,-0.072 0.04,-0.112 z m -0.204,-0.288 c 0.188,0 0.332,0.084 0.332,0.288 0,0.076 -0.016,0.148 -0.04,0.224 -0.048,0.152 -0.128,0.296 -0.26,0.384 -0.216,0.144 -0.452,0.204 -0.752,0.204 -0.188,0 -0.336,-0.088 -0.336,-0.292 0,-0.076 0.02,-0.148 0.044,-0.224 0.048,-0.152 0.124,-0.296 0.256,-0.384 0.216,-0.144 0.456,-0.2 0.756,-0.2 z"
     fill="currentColor"
     id="path116"
     style="stroke-width:0.004" />
  <rect
     x="56.989059"
     y="42.549999"
     width="0.13"
     height="3.3122001"
     ry="0.039999999"
     fill="currentColor"
     id="rect118" />
  <path
     d="m 56.682858,45.498 c 0.224,0 0.436,0.116 0.436,0.364 0,0.288 -0.224,0.484 -0.412,0.596 -0.144,0.084 -0.304,0.144 -0.468,0.144 -0.224,0 -0.436,-0.116 -0.436,-0.364 0,-0.288 0.224,-0.484 0.412,-0.596 0.144,-0.084 0.304,-0.144 0.468,-0.144 z"
     fill="currentColor"
     id="path120"
     style="stroke-width:0.004" />
  <rect
     x="54.212158"
     y="42.549999"
     width="0.13"
     height="3.3122001"
     ry="0.039999999"
     fill="currentColor"
     id="rect122" />
  <rect
     x="65.319756"
     y="33.860001"
     width="0.13"
     height="3.0021999"
     ry="0.039999999"
     fill="currentColor"
     id="rect124" />
  <path
     d="m 65.013558,45.498 c 0.224,0 0.436,0.116 0.436,0.364 0,0.288 -0.224,0.484 -0.412,0.596 -0.144,0.084 -0.304,0.144 -0.468,0.144 -0.224,0 -0.436,-0.116 -0.436,-0.364 0,-0.288 0.224,-0.484 0.412,-0.596 0.144,-0.084 0.304,-0.144 0.468,-0.144 z"
     fill="currentColor"
     id="path126"
     style="stroke-width:0.004" />
  <text
     font-family="'Roboto Light'"
     font-size="2.2001px"
     text-anchor="start"
     fill="currentColor"
     id="text130"
     x="64.228355"
     y="40.775902"><tspan
       id="tspan128">e</tspan></text>
  <path
     d="m 65.013558,36.498 c 0.224,0 0.436,0.116 0.436,0.364 0,0.288 -0.224,0.484 -0.412,0.596 -0.144,0.084 -0.304,0.144 -0.468,0.144 -0.224,0 -0.436,-0.116 -0.436,-0.364 0,-0.288 0.224,-0.484 0.412,-0.596 0.144,-0.084 0.304,-0.144 0.468,-0.144 z"
     fill="currentColor"
     id="path132"
     style="stroke-width:0.004" />
  <rect
     x="62.542858"
     y="42.549999"
     width="0.13"
     height="3.3122001"
     ry="0.039999999"
     fill="currentColor"
     id="rect134" />
  <path
     d="m 62.236658,45.498 c 0.224,0 0.436,0.116 0.436,0.364 0,0.288 -0.224,0.484 -0.412,0.596 -0.144,0.084 -0.304,0.144 -0.468,0.144 -0.224,0 -0.436,-0.116 -0.436,-0.364 0,-0.288 0.224,-0.484 0.412,-0.596 0.144,-0.084 0.304,-0.144 0.468,-0.144 z"
     fill="currentColor"
     id="path136"
     style="stroke-width:0.004" />
  <rect
     x="59.765957"
     y="42.549999"
     width="0.13"
     height="3.3122001"
     ry="0.039999999"
     fill="currentColor"
     id="rect138" />
  <rect
     x="59.765957"
     y="33.860001"
     width="0.13"
     height="3.0021999"
     ry="0.039999999"
     fill="currentColor"
     id="rect140" />
  <rect
     x="59.765957"
     y="25.049999"
     width="0.13"
     height="2.8122001"
     ry="0.039999999"
     fill="currentColor"
     id="rect142" />
  <polygon
     transform="translate(59.765958,25.05)"
     stroke-linejoin="round"
     stroke-linecap="round"
     stroke-width="0.08"
     fill="currentColor"
     stroke="currentColor"
     points="0.04,0.2 0.04,-0.2 33.4128,-0.2 33.4128,0.2 "
     id="polygon144" />
  <polygon
     transform="translate(81.981158,33.86)"
     stroke-linejoin="round"
     stroke-linecap="round"
     stroke-width="0.08"
     fill="currentColor"
     stroke="currentColor"
     points="0.04,0.2 0.04,-0.2 16.7514,-0.2 16.7514,0.2 "
     id="polygon146" />
  <polygon
     transform="translate(81.981158,34.67)"
     stroke-linejoin="round"
     stroke-linecap="round"
     stroke-width="0.08"
     fill="currentColor"
     stroke="currentColor"
     points="0.04,0.2 0.04,-0.2 16.7514,-0.2 16.7514,0.2 "
     id="polygon148" />
  <polygon
     transform="translate(81.981158,42.55)"
     stroke-linejoin="round"
     stroke-linecap="round"
     stroke-width="0.08"
     fill="currentColor"
     stroke="currentColor"
     points="0.04,0.2 0.04,-0.2 19.5283,-0.2 19.5283,0.2 "
     id="polygon150" />
  <polygon
     transform="translate(81.981158,43.36)"
     stroke-linejoin="round"
     stroke-linecap="round"
     stroke-width="0.08"
     fill="currentColor"
     stroke="currentColor"
     points="0.04,0.2 0.04,-0.2 19.5283,-0.2 19.5283,0.2 "
     id="polygon152" />
  <polygon
     transform="translate(81.981158,44.17)"
     stroke-linejoin="round"
     stroke-linecap="round"
     stroke-width="0.08"
     fill="currentColor"
     stroke="currentColor"
     points="0.04,0.2 0.04,-0.2 19.5283,-0.2 19.5283,0.2 "
     id="polygon154" />
  <rect
     x="101.41956"
     y="42.549999"
     width="0.13"
     height="3.3122001"
     ry="0.039999999"
     fill="currentColor"
     id="rect156" />
  <path
     d="m 101.11336,45.498 c 0.224,0 0.436,0.116 0.436,0.364 0,0.288 -0.224,0.484 -0.412,0.596 -0.144,0.084 -0.304,0.144 -0.468,0.144 -0.224,0 -0.436,-0.116 -0.436,-0.364 0,-0.288 0.224,-0.484 0.412,-0.596 0.144,-0.084 0.304,-0.144 0.468,-0.144 z"
     fill="currentColor"
     id="path158"
     style="stroke-width:0.004" />
  <rect
     x="98.642654"
     y="42.549999"
     width="0.13"
     height="3.3122001"
     ry="0.039999999"
     fill="currentColor"
     id="rect160" />
  <rect
     x="98.642654"
     y="33.860001"
     width="0.13"
     height="3.0021999"
     ry="0.039999999"
     fill="currentColor"
     id="rect162" />
  <path
     d="m 98.336458,45.498 c 0.224,0 0.436,0.116 0.436,0.364 0,0.288 -0.224,0.484 -0.412,0.596 -0.144,0.084 -0.304,0.144 -0.468,0.144 -0.224,0 -0.436,-0.116 -0.436,-0.364 0,-0.288 0.224,-0.484 0.412,-0.596 0.144,-0.084 0.304,-0.144 0.468,-0.144 z"
     fill="currentColor"
     id="path164"
     style="stroke-width:0.004" />
  <text
     font-family="'Roboto Light'"
     font-size="2.2001px"
     text-anchor="start"
     fill="currentColor"
     id="text168"
     x="97.517059"
     y="40.775902"><tspan
       id="tspan166">a</tspan></text>
  <path
     d="m 98.336458,36.498 c 0.224,0 0.436,0.116 0.436,0.364 0,0.288 -0.224,0.484 -0.412,0.596 -0.144,0.084 -0.304,0.144 -0.468,0.144 -0.224,0 -0.436,-0.116 -0.436,-0.364 0,-0.288 0.224,-0.484 0.412,-0.596 0.144,-0.084 0.304,-0.144 0.468,-0.144 z"
     fill="currentColor"
     id="path170"
     style="stroke-width:0.004" />
  <rect
     x="95.865761"
     y="42.549999"
     width="0.13"
     height="3.3122001"
     ry="0.039999999"
     fill="currentColor"
     id="rect172" />
  <path
     d="m 95.559558,45.498 c 0.224,0 0.436,0.116 0.436,0.364 0,0.288 -0.224,0.484 -0.412,0.596 -0.144,0.084 -0.304,0.144 -0.468,0.144 -0.224,0 -0.436,-0.116 -0.436,-0.364 0,-0.288 0.224,-0.484 0.412,-0.596 0.144,-0.084 0.304,-0.144 0.468,-0.144 z"
     fill="currentColor"
     id="path174"
     style="stroke-width:0.004" />
  <polygon
     transform="translate(15.335458,33.86)"
     stroke-linejoin="round"
     stroke-linecap="round"
     stroke-width="0.08"
     fill="currentColor"
     stroke="currentColor"
     points="0.04,0.2 0.04,-0.2 16.7514,-0.2 16.7514,0.2 "
     id="polygon176" />
  <polygon
     transform="translate(15.335458,34.67)"
     stroke-linejoin="round"
     stroke-linecap="round"
     stroke-width="0.08"
     fill="currentColor"
     stroke="currentColor"
     points="0.04,0.2 0.04,-0.2 16.7514,-0.2 16.7514,0.2 "
     id="polygon178" />
  <polygon
     transform="translate(15.335458,42.55)"
     stroke-linejoin="round"
     stroke-linecap="round"
     stroke-width="0.08"
     fill="currentColor"
     stroke="currentColor"
     points="0.04,0.2 0.04,-0.2 19.5283,-0.2 19.5283,0.2 "
     id="polygon180" />
  <polygon
     transform="translate(15.335458,43.36)"
     stroke-linejoin="round"
     stroke-linecap="round"
     stroke-width="0.08"
     fill="currentColor"
     stroke="currentColor"
     points="0.04,0.2 0.04,-0.2 19.5283,-0.2 19.5283,0.2 "
     id="polygon182" />
  <polygon
     transform="translate(15.335458,44.17)"
     stroke-linejoin="round"
     stroke-linecap="round"
     stroke-width="0.08"
     fill="currentColor"
     stroke="currentColor"
     points="0.04,0.2 0.04,-0.2 19.5283,-0.2 19.5283,0.2 "
     id="polygon184" />
  <polygon
     transform="translate(15.335458,25.05)"
     stroke-linejoin="round"
     stroke-linecap="round"
     stroke-width="0.08"
     fill="currentColor"
     stroke="currentColor"
     points="0.04,0.2 0.04,-0.2 33.4128,-0.2 33.4128,0.2 "
     id="polygon186" />
  <polygon
     transform="translate(37.550758,33.86)"
     stroke-linejoin="round"
     stroke-linecap="round"
     stroke-width="0.08"
     fill="currentColor"
     stroke="currentColor"
     points="0.04,0.2 0.04,-0.2 16.7514,-0.2 16.7514,0.2 "
     id="polygon188" />
  <polygon
     transform="translate(37.550758,34.67)"
     stroke-linejoin="round"
     stroke-linecap="round"
     stroke-width="0.08"
     fill="currentColor"
     stroke="currentColor"
     points="0.04,0.2 0.04,-0.2 16.7514,-0.2 16.7514,0.2 "
     id="polygon190" />
  <polygon
     transform="translate(37.550758,42.55)"
     stroke-linejoin="round"
     stroke-linecap="round"
     stroke-width="0.08"
     fill="currentColor"
     stroke="currentColor"
     points="0.04,0.2 0.04,-0.2 19.5283,-0.2 19.5283,0.2 "
     id="polygon192" />
  <polygon
     transform="translate(37.550758,43.36)"
     stroke-linejoin="round"
     stroke-linecap="round"
     stroke-width="0.08"
     fill="currentColor"
     stroke="currentColor"
     points="0.04,0.2 0.04,-0.2 19.5283,-0.2 19.5283,0.2 "
     id="polygon194" />
  <polygon
     transform="translate(37.550758,44.17)"
     stroke-linejoin="round"
     stroke-linecap="round"
     stroke-width="0.08"
     fill="currentColor"
     stroke="currentColor"
     points="0.04,0.2 0.04,-0.2 19.5283,-0.2 19.5283,0.2 "
     id="polygon196" />
  <polygon
     transform="translate(59.765958,33.86)"
     stroke-linejoin="round"
     stroke-linecap="round"
     stroke-width="0.08"
     fill="currentColor"
     stroke="currentColor"
     points="0.04,0.2 0.04,-0.2 16.7514,-0.2 16.7514,0.2 "
     id="polygon198" />
  <polygon
     transform="translate(59.765958,34.67)"
     stroke-linejoin="round"
     stroke-linecap="round"
     stroke-width="0.08"
     fill="currentColor"
     stroke="currentColor"
     points="0.04,0.2 0.04,-0.2 16.7514,-0.2 16.7514,0.2 "
     id="polygon200" />
  <polygon
     transform="translate(59.765958,42.55)"
     stroke-linejoin="round"
     stroke-linecap="round"
     stroke-width="0.08"
     fill="currentColor"
     stroke="currentColor"
     points="0.04,0.2 0.04,-0.2 19.5283,-0.2 19.5283,0.2 "
     id="polygon202" />
  <polygon
     transform="translate(59.765958,43.36)"
     stroke-linejoin="round"
     stroke-linecap="round"
     stroke-width="0.08"
     fill="currentColor"
     stroke="currentColor"
     points="0.04,0.2 0.04,-0.2 19.5283,-0.2 19.5283,0.2 "
     id="polygon204" />
  <polygon
     transform="translate(59.765958,44.17)"
     stroke-linejoin="round"
     stroke-linecap="round"
     stroke-width="0.08"
     fill="currentColor"
     stroke="currentColor"
     points="0.04,0.2 0.04,-0.2 19.5283,-0.2 19.5283,0.2 "
     id="polygon206" />
  <rect
     x="87.534958"
     y="33.860001"
     width="0.13"
     height="3.0021999"
     ry="0.039999999"
     fill="currentColor"
     id="rect208" />
  <path
     d="m 87.228858,45.498 c 0.224,0 0.436,0.116 0.436,0.364 0,0.288 -0.224,0.484 -0.412,0.596 -0.144,0.084 -0.304,0.144 -0.468,0.144 -0.224,0 -0.436,-0.116 -0.436,-0.364 0,-0.288 0.224,-0.484 0.412,-0.596 0.144,-0.084 0.304,-0.144 0.468,-0.144 z"
     fill="currentColor"
     id="path210"
     style="stroke-width:0.004" />
  <text
     font-family="'Roboto Light'"
     font-size="2.2001px"
     text-anchor="start"
     fill="currentColor"
     id="text214"
     x="86.443558"
     y="40.775902"><tspan
       id="tspan212">e</tspan></text>
  <path
     d="m 87.228858,36.498 c 0.224,0 0.436,0.116 0.436,0.364 0,0.288 -0.224,0.484 -0.412,0.596 -0.144,0.084 -0.304,0.144 -0.468,0.144 -0.224,0 -0.436,-0.116 -0.436,-0.364 0,-0.288 0.224,-0.484 0.412,-0.596 0.144,-0.084 0.304,-0.144 0.468,-0.144 z"
     fill="currentColor"
     id="path216"
     style="stroke-width:0.004" />
  <rect
     x="84.758057"
     y="42.549999"
     width="0.13"
     height="3.3122001"
     ry="0.039999999"
     fill="currentColor"
     id="rect218" />
  <path
     d="m 84.451958,45.498 c 0.224,0 0.436,0.116 0.436,0.364 0,0.288 -0.224,0.484 -0.412,0.596 -0.144,0.084 -0.304,0.144 -0.468,0.144 -0.224,0 -0.436,-0.116 -0.436,-0.364 0,-0.288 0.224,-0.484 0.412,-0.596 0.144,-0.084 0.304,-0.144 0.468,-0.144 z"
     fill="currentColor"
     id="path220"
     style="stroke-width:0.004" />
  <rect
     x="81.981155"
     y="42.549999"
     width="0.13"
     height="3.3122001"
     ry="0.039999999"
     fill="currentColor"
     id="rect222" />
  <rect
     x="81.981155"
     y="33.860001"
     width="0.13"
     height="3.0021999"
     ry="0.039999999"
     fill="currentColor"
     id="rect224" />
  <rect
     x="81.981155"
     y="25.049999"
     width="0.13"
     height="2.8122001"
     ry="0.039999999"
     fill="currentColor"
     id="rect226" />
  <rect
     x="81.981155"
     y="15.7167"
     width="0.13"
     height="3.1454999"
     ry="0.039999999"
     fill="currentColor"
     id="rect228" />
  <path
     d="m 81.675058,45.498 c 0.224,0 0.436,0.116 0.436,0.364 0,0.288 -0.224,0.484 -0.412,0.596 -0.144,0.084 -0.304,0.144 -0.468,0.144 -0.224,0 -0.436,-0.116 -0.436,-0.364 0,-0.288 0.224,-0.484 0.412,-0.596 0.144,-0.084 0.304,-0.144 0.468,-0.144 z"
     fill="currentColor"
     id="path230"
     style="stroke-width:0.004" />
  <text
     font-family="'Roboto Light'"
     font-size="2.2001px"
     text-anchor="start"
     fill="currentColor"
     id="text234"
     x="80.85556"
     y="40.775902"><tspan
       id="tspan232">4</tspan></text>
  <path
     d="m 81.675058,36.498 c 0.224,0 0.436,0.116 0.436,0.364 0,0.288 -0.224,0.484 -0.412,0.596 -0.144,0.084 -0.304,0.144 -0.468,0.144 -0.224,0 -0.436,-0.116 -0.436,-0.364 0,-0.288 0.224,-0.484 0.412,-0.596 0.144,-0.084 0.304,-0.144 0.468,-0.144 z"
     fill="currentColor"
     id="path236"
     style="stroke-width:0.004" />
  <rect
     x="93.08886"
     y="42.549999"
     width="0.13"
     height="3.3122001"
     ry="0.039999999"
     fill="currentColor"
     id="rect238" />
  <rect
     x="93.08886"
     y="33.860001"
     width="0.13"
     height="3.0021999"
     ry="0.039999999"
     fill="currentColor"
     id="rect240" />
  <rect
     x="93.08886"
     y="25.049999"
     width="0.13"
     height="2.8122001"
     ry="0.039999999"
     fill="currentColor"
     id="rect242" />
  <path
     d="m 92.782658,45.498 c 0.224,0 0.436,0.116 0.436,0.364 0,0.288 -0.224,0.484 -0.412,0.596 -0.144,0.084 -0.304,0.144 -0.468,0.144 -0.224,0 -0.436,-0.116 -0.436,-0.364 0,-0.288 0.224,-0.484 0.412,-0.596 0.144,-0.084 0.304,-0.144 0.468,-0.144 z"
     fill="currentColor"
     id="path244"
     style="stroke-width:0.004" />
  <text
     font-family="'Roboto Light'"
     font-size="2.2001px"
     text-anchor="start"
     fill="currentColor"
     id="text248"
     x="91.894958"
     y="40.775902"><tspan
       id="tspan246">&amp;</tspan></text>
  <path
     d="m 92.782658,36.498 c 0.224,0 0.436,0.116 0.436,0.364 0,0.288 -0.224,0.484 -0.412,0.596 -0.144,0.084 -0.304,0.144 -0.468,0.144 -0.224,0 -0.436,-0.116 -0.436,-0.364 0,-0.288 0.224,-0.484 0.412,-0.596 0.144,-0.084 0.304,-0.144 0.468,-0.144 z"
     fill="currentColor"
     id="path250"
     style="stroke-width:0.004" />
  <text
     font-family="'Roboto Light'"
     font-size="2.2001px"
     text-anchor="start"
     fill="currentColor"
     id="text254"
     x="91.99736"
     y="32.085899"><tspan
       id="tspan252">e</tspan></text>
  <path
     d="m 92.782658,27.498 c 0.224,0 0.436,0.116 0.436,0.364 0,0.288 -0.224,0.484 -0.412,0.596 -0.144,0.084 -0.304,0.144 -0.468,0.144 -0.224,0 -0.436,-0.116 -0.436,-0.364 0,-0.288 0.224,-0.484 0.412,-0.596 0.144,-0.084 0.304,-0.144 0.468,-0.144 z"
     fill="currentColor"
     id="path256"
     style="stroke-width:0.004" />
  <rect
     x="90.311859"
     y="42.549999"
     width="0.13"
     height="3.3122001"
     ry="0.039999999"
     fill="currentColor"
     id="rect258" />
  <path
     d="m 90.005758,45.498 c 0.224,0 0.436,0.116 0.436,0.364 0,0.288 -0.224,0.484 -0.412,0.596 -0.144,0.084 -0.304,0.144 -0.468,0.144 -0.224,0 -0.436,-0.116 -0.436,-0.364 0,-0.288 0.224,-0.484 0.412,-0.596 0.144,-0.084 0.304,-0.144 0.468,-0.144 z"
     fill="currentColor"
     id="path260"
     style="stroke-width:0.004" />
  <rect
     x="87.534958"
     y="42.549999"
     width="0.13"
     height="3.3122001"
     ry="0.039999999"
     fill="currentColor"
     id="rect262" />
  <rect
     x="20.889257"
     y="42.549999"
     width="0.13"
     height="3.3122001"
     ry="0.039999999"
     fill="currentColor"
     id="rect264" />
  <rect
     x="20.889257"
     y="33.860001"
     width="0.13"
     height="3.0021999"
     ry="0.039999999"
     fill="currentColor"
     id="rect266" />
  <path
     d="m 20.583158,45.498 c 0.224,0 0.436,0.116 0.436,0.364 0,0.288 -0.224,0.484 -0.412,0.596 -0.144,0.084 -0.304,0.144 -0.468,0.144 -0.224,0 -0.436,-0.116 -0.436,-0.364 0,-0.288 0.224,-0.484 0.412,-0.596 0.144,-0.084 0.304,-0.144 0.468,-0.144 z"
     fill="currentColor"
     id="path268"
     style="stroke-width:0.004" />
  <text
     font-family="'Roboto Light'"
     font-size="2.2001px"
     text-anchor="start"
     fill="currentColor"
     id="text272"
     x="19.797857"
     y="40.775902"><tspan
       id="tspan270">e</tspan></text>
  <path
     d="m 20.583158,36.498 c 0.224,0 0.436,0.116 0.436,0.364 0,0.288 -0.224,0.484 -0.412,0.596 -0.144,0.084 -0.304,0.144 -0.468,0.144 -0.224,0 -0.436,-0.116 -0.436,-0.364 0,-0.288 0.224,-0.484 0.412,-0.596 0.144,-0.084 0.304,-0.144 0.468,-0.144 z"
     fill="currentColor"
     id="path274"
     style="stroke-width:0.004" />
  <rect
     x="18.112358"
     y="42.549999"
     width="0.13"
     height="3.3122001"
     ry="0.039999999"
     fill="currentColor"
     id="rect276" />
  <path
     d="m 17.806258,45.498 c 0.224,0 0.436,0.116 0.436,0.364 0,0.288 -0.224,0.484 -0.412,0.596 -0.144,0.084 -0.304,0.144 -0.468,0.144 -0.224,0 -0.436,-0.116 -0.436,-0.364 0,-0.288 0.224,-0.484 0.412,-0.596 0.144,-0.084 0.304,-0.144 0.468,-0.144 z"
     fill="currentColor"
     id="path278"
     style="stroke-width:0.004" />
  <rect
     x="15.335458"
     y="42.549999"
     width="0.13"
     height="3.3122001"
     ry="0.039999999"
     fill="currentColor"
     id="rect280" />
  <rect
     x="29.220058"
     y="42.549999"
     width="0.13"
     height="3.3122001"
     ry="0.039999999"
     fill="currentColor"
     id="rect282" />
  <path
     d="m 28.913858,45.498 c 0.224,0 0.436,0.116 0.436,0.364 0,0.288 -0.224,0.484 -0.412,0.596 -0.144,0.084 -0.304,0.144 -0.468,0.144 -0.224,0 -0.436,-0.116 -0.436,-0.364 0,-0.288 0.224,-0.484 0.412,-0.596 0.144,-0.084 0.304,-0.144 0.468,-0.144 z"
     fill="currentColor"
     id="path284"
     style="stroke-width:0.004" />
  <rect
     x="26.443157"
     y="42.549999"
     width="0.13"
     height="3.3122001"
     ry="0.039999999"
     fill="currentColor"
     id="rect286" />
  <rect
     x="26.443157"
     y="33.860001"
     width="0.13"
     height="3.0021999"
     ry="0.039999999"
     fill="currentColor"
     id="rect288" />
  <rect
     x="26.443157"
     y="25.049999"
     width="0.13"
     height="2.8122001"
     ry="0.039999999"
     fill="currentColor"
     id="rect290" />
  <path
     d="m 26.136958,45.498 c 0.224,0 0.436,0.116 0.436,0.364 0,0.288 -0.224,0.484 -0.412,0.596 -0.144,0.084 -0.304,0.144 -0.468,0.144 -0.224,0 -0.436,-0.116 -0.436,-0.364 0,-0.288 0.224,-0.484 0.412,-0.596 0.144,-0.084 0.304,-0.144 0.468,-0.144 z"
     fill="currentColor"
     id="path292"
     style="stroke-width:0.004" />
  <text
     font-family="'Roboto Light'"
     font-size="2.2001px"
     text-anchor="start"
     fill="currentColor"
     id="text296"
     x="25.249258"
     y="40.775902"><tspan
       id="tspan294">&amp;</tspan></text>
  <path
     d="m 26.136958,36.498 c 0.224,0 0.436,0.116 0.436,0.364 0,0.288 -0.224,0.484 -0.412,0.596 -0.144,0.084 -0.304,0.144 -0.468,0.144 -0.224,0 -0.436,-0.116 -0.436,-0.364 0,-0.288 0.224,-0.484 0.412,-0.596 0.144,-0.084 0.304,-0.144 0.468,-0.144 z"
     fill="currentColor"
     id="path298"
     style="stroke-width:0.004" />
  <text
     font-family="'Roboto Light'"
     font-size="2.2001px"
     text-anchor="start"
     fill="currentColor"
     id="text302"
     x="25.351658"
     y="32.085899"><tspan
       id="tspan300">e</tspan></text>
  <path
     d="m 26.136958,27.498 c 0.224,0 0.436,0.116 0.436,0.364 0,0.288 -0.224,0.484 -0.412,0.596 -0.144,0.084 -0.304,0.144 -0.468,0.144 -0.224,0 -0.436,-0.116 -0.436,-0.364 0,-0.288 0.224,-0.484 0.412,-0.596 0.144,-0.084 0.304,-0.144 0.468,-0.144 z"
     fill="currentColor"
     id="path304"
     style="stroke-width:0.004" />
  <rect
     x="23.666159"
     y="42.549999"
     width="0.13"
     height="3.3122001"
     ry="0.039999999"
     fill="currentColor"
     id="rect306" />
  <path
     d="m 23.360058,45.498 c 0.224,0 0.436,0.116 0.436,0.364 0,0.288 -0.224,0.484 -0.412,0.596 -0.144,0.084 -0.304,0.144 -0.468,0.144 -0.224,0 -0.436,-0.116 -0.436,-0.364 0,-0.288 0.224,-0.484 0.412,-0.596 0.144,-0.084 0.304,-0.144 0.468,-0.144 z"
     fill="currentColor"
     id="path308"
     style="stroke-width:0.004" />
  <text
     font-family="'Roboto Light'"
     font-size="2.2001px"
     text-anchor="start"
     fill="currentColor"
     id="text312"
     x="14.192858"
     y="32.085899"><tspan
       id="tspan310">1</tspan></text>
  <path
     d="m 15.029358,27.498 c 0.224,0 0.436,0.116 0.436,0.364 0,0.288 -0.224,0.484 -0.412,0.596 -0.144,0.084 -0.304,0.144 -0.468,0.144 -0.224,0 -0.436,-0.116 -0.436,-0.364 0,-0.288 0.224,-0.484 0.412,-0.596 0.144,-0.084 0.304,-0.144 0.468,-0.144 z"
     fill="currentColor"
     id="path314"
     style="stroke-width:0.004" />
  <text
     font-family="'Roboto Light'"
     font-size="2.2001px"
     text-anchor="start"
     fill="currentColor"
     id="text318"
     x="14.192858"
     y="23.2759"><tspan
       id="tspan316">1</tspan></text>
  <path
     d="m 15.029358,18.498 c 0.224,0 0.436,0.116 0.436,0.364 0,0.288 -0.224,0.484 -0.412,0.596 -0.144,0.084 -0.304,0.144 -0.468,0.144 -0.224,0 -0.436,-0.116 -0.436,-0.364 0,-0.288 0.224,-0.484 0.412,-0.596 0.144,-0.084 0.304,-0.144 0.468,-0.144 z"
     fill="currentColor"
     id="path320"
     style="stroke-width:0.004" />
  <text
     font-family="'Roboto Light'"
     font-size="2.2001px"
     text-anchor="start"
     fill="currentColor"
     id="text324"
     x="14.229758"
     y="14.1825"><tspan
       id="tspan322">1</tspan></text>
  <path
     d="m 15.409358,9.79 c 0,-0.096 -0.084,-0.164 -0.168,-0.164 -0.016,0 -0.032,0 -0.048,0.004 -0.124,0.036 -0.308,0.16 -0.456,0.256 -0.148,0.096 -0.336,0.212 -0.416,0.312 -0.028,0.032 -0.044,0.072 -0.044,0.112 0,0.096 0.084,0.164 0.168,0.164 0.016,0 0.032,0 0.048,-0.004 0.124,-0.036 0.312,-0.16 0.46,-0.256 0.148,-0.096 0.336,-0.212 0.416,-0.312 0.028,-0.032 0.04,-0.072 0.04,-0.112 z m -0.204,-0.288 c 0.188,0 0.332,0.084 0.332,0.288 0,0.076 -0.016,0.148 -0.04,0.224 -0.048,0.152 -0.128,0.296 -0.26,0.384 -0.216,0.144 -0.452,0.204 -0.752,0.204 -0.188,0 -0.336,-0.088 -0.336,-0.292 0,-0.076 0.02,-0.148 0.044,-0.224 0.048,-0.152 0.124,-0.296 0.256,-0.384 0.216,-0.144 0.456,-0.2 0.756,-0.2 z"
     fill="currentColor"
     id="path326"
     style="stroke-width:0.004" />
  <text
     font-family="'Roboto Light'"
     font-size="2.2001px"
     text-anchor="start"
     fill="currentColor"
     id="text330"
     x="14.524757"
     y="5.2167001"><tspan
       id="tspan328">1</tspan></text>
  <path
     d="m 15.009358,0.60199995 c -0.2,0 -0.276,0.172 -0.276,0.352 0,0.30800005 0.228,0.54400005 0.536,0.54400005 0.2,0 0.276,-0.172 0.276,-0.352 0,-0.30800005 -0.228,-0.54400005 -0.536,-0.54400005 z M 16.129358,1.05 c 0,0.172 -0.14,0.304 -0.292,0.388 -0.212,0.12 -0.452,0.164 -0.696,0.164 -0.244,0 -0.488,-0.044 -0.7,-0.164 -0.152,-0.084 -0.292,-0.216 -0.292,-0.388 0,-0.17200005 0.14,-0.30400005 0.292,-0.38800005 0.212,-0.12 0.456,-0.164 0.7,-0.164 0.244,0 0.484,0.044 0.696,0.164 0.152,0.084 0.292,0.216 0.292,0.38800005 z"
     fill="currentColor"
     id="path332"
     style="stroke-width:0.004" />
  <text
     font-family="'Roboto Slab Light'"
     font-size="1.96px"
     text-anchor="start"
     fill="currentColor"
     id="text336"
     x="7.8954577"
     y="46.732899"><tspan
       id="tspan334">Fusa</tspan></text>
  <text
     font-family="'Roboto Slab Light'"
     font-size="1.96px"
     text-anchor="start"
     fill="currentColor"
     id="text340"
     x="-0.12824219"
     y="37.7841"><tspan
       id="tspan338">Semicolcheia</tspan></text>
  <text
     font-family="'Roboto Slab Light'"
     font-size="1.96px"
     text-anchor="start"
     fill="currentColor"
     id="text344"
     x="4.3104577"
     y="28.7841"><tspan
       id="tspan342">Colcheia</tspan></text>
  <text
     font-family="'Roboto Slab Light'"
     font-size="1.96px"
     text-anchor="start"
     fill="currentColor"
     id="text348"
     x="2.8081579"
     y="19.7841"><tspan
       id="tspan346">Semínima</tspan></text>
  <text
     font-family="'Roboto Slab Light'"
     font-size="1.96px"
     text-anchor="start"
     fill="currentColor"
     id="text352"
     x="5.129858"
     y="10.7841"><tspan
       id="tspan350">Mínima</tspan></text>
  <text
     font-family="'Roboto Slab Light'"
     font-size="1.96px"
     text-anchor="start"
     fill="currentColor"
     id="text356"
     x="2.6715579"
     y="1.7840999"><tspan
       id="tspan354">Semibreve</tspan></text>
  <rect
     x="15.335458"
     y="33.860001"
     width="0.13"
     height="3.0021999"
     ry="0.039999999"
     fill="currentColor"
     id="rect358" />
  <rect
     x="15.335458"
     y="25.049999"
     width="0.13"
     height="2.8122001"
     ry="0.039999999"
     fill="currentColor"
     id="rect360" />
  <rect
     x="15.335458"
     y="15.7167"
     width="0.13"
     height="3.1454999"
     ry="0.039999999"
     fill="currentColor"
     id="rect362" />
  <rect
     x="15.409258"
     y="6.7167001"
     width="0.13"
     height="3.0718999"
     ry="0.039999999"
     fill="currentColor"
     id="rect364" />
  <path
     d="m 15.029358,45.498 c 0.224,0 0.436,0.116 0.436,0.364 0,0.288 -0.224,0.484 -0.412,0.596 -0.144,0.084 -0.304,0.144 -0.468,0.144 -0.224,0 -0.436,-0.116 -0.436,-0.364 0,-0.288 0.224,-0.484 0.412,-0.596 0.144,-0.084 0.304,-0.144 0.468,-0.144 z"
     fill="currentColor"
     id="path366"
     style="stroke-width:0.004" />
  <text
     font-family="'Roboto Light'"
     font-size="2.2001px"
     text-anchor="start"
     fill="currentColor"
     id="text370"
     x="14.192858"
     y="40.775902"><tspan
       id="tspan368">1</tspan></text>
  <path
     d="m 15.029358,36.498 c 0.224,0 0.436,0.116 0.436,0.364 0,0.288 -0.224,0.484 -0.412,0.596 -0.144,0.084 -0.304,0.144 -0.468,0.144 -0.224,0 -0.436,-0.116 -0.436,-0.364 0,-0.288 0.224,-0.484 0.412,-0.596 0.144,-0.084 0.304,-0.144 0.468,-0.144 z"
     fill="currentColor"
     id="path372"
     style="stroke-width:0.004" />
  <path
     d="m 48.352158,27.498 c 0.224,0 0.436,0.116 0.436,0.364 0,0.288 -0.224,0.484 -0.412,0.596 -0.144,0.084 -0.304,0.144 -0.468,0.144 -0.224,0 -0.436,-0.116 -0.436,-0.364 0,-0.288 0.224,-0.484 0.412,-0.596 0.144,-0.084 0.304,-0.144 0.468,-0.144 z"
     fill="currentColor"
     id="path374"
     style="stroke-width:0.004" />
  <rect
     x="45.881458"
     y="42.549999"
     width="0.13"
     height="3.3122001"
     ry="0.039999999"
     fill="currentColor"
     id="rect376" />
  <path
     d="m 45.575258,45.498 c 0.224,0 0.436,0.116 0.436,0.364 0,0.288 -0.224,0.484 -0.412,0.596 -0.144,0.084 -0.304,0.144 -0.468,0.144 -0.224,0 -0.436,-0.116 -0.436,-0.364 0,-0.288 0.224,-0.484 0.412,-0.596 0.144,-0.084 0.304,-0.144 0.468,-0.144 z"
     fill="currentColor"
     id="path378"
     style="stroke-width:0.004" />
  <rect
     x="43.104557"
     y="42.549999"
     width="0.13"
     height="3.3122001"
     ry="0.039999999"
     fill="currentColor"
     id="rect380" />
  <rect
     x="43.104557"
     y="33.860001"
     width="0.13"
     height="3.0021999"
     ry="0.039999999"
     fill="currentColor"
     id="rect382" />
  <path
     d="m 42.798358,45.498 c 0.224,0 0.436,0.116 0.436,0.364 0,0.288 -0.224,0.484 -0.412,0.596 -0.144,0.084 -0.304,0.144 -0.468,0.144 -0.224,0 -0.436,-0.116 -0.436,-0.364 0,-0.288 0.224,-0.484 0.412,-0.596 0.144,-0.084 0.304,-0.144 0.468,-0.144 z"
     fill="currentColor"
     id="path384"
     style="stroke-width:0.004" />
  <text
     font-family="'Roboto Light'"
     font-size="2.2001px"
     text-anchor="start"
     fill="currentColor"
     id="text388"
     x="42.013058"
     y="40.775902"><tspan
       id="tspan386">e</tspan></text>
  <path
     d="m 42.798358,36.498 c 0.224,0 0.436,0.116 0.436,0.364 0,0.288 -0.224,0.484 -0.412,0.596 -0.144,0.084 -0.304,0.144 -0.468,0.144 -0.224,0 -0.436,-0.116 -0.436,-0.364 0,-0.288 0.224,-0.484 0.412,-0.596 0.144,-0.084 0.304,-0.144 0.468,-0.144 z"
     fill="currentColor"
     id="path390"
     style="stroke-width:0.004" />
  <rect
     x="40.32766"
     y="42.549999"
     width="0.13"
     height="3.3122001"
     ry="0.039999999"
     fill="currentColor"
     id="rect392" />
  <path
     d="m 40.021458,45.498 c 0.224,0 0.436,0.116 0.436,0.364 0,0.288 -0.224,0.484 -0.412,0.596 -0.144,0.084 -0.304,0.144 -0.468,0.144 -0.224,0 -0.436,-0.116 -0.436,-0.364 0,-0.288 0.224,-0.484 0.412,-0.596 0.144,-0.084 0.304,-0.144 0.468,-0.144 z"
     fill="currentColor"
     id="path394"
     style="stroke-width:0.004" />
  <rect
     x="54.212158"
     y="33.860001"
     width="0.13"
     height="3.0021999"
     ry="0.039999999"
     fill="currentColor"
     id="rect396" />
  <path
     d="m 53.905958,45.498 c 0.224,0 0.436,0.116 0.436,0.364 0,0.288 -0.224,0.484 -0.412,0.596 -0.144,0.084 -0.304,0.144 -0.468,0.144 -0.224,0 -0.436,-0.116 -0.436,-0.364 0,-0.288 0.224,-0.484 0.412,-0.596 0.144,-0.084 0.304,-0.144 0.468,-0.144 z"
     fill="currentColor"
     id="path398"
     style="stroke-width:0.004" />
  <text
     font-family="'Roboto Light'"
     font-size="2.2001px"
     text-anchor="start"
     fill="currentColor"
     id="text402"
     x="53.086559"
     y="40.775902"><tspan
       id="tspan400">a</tspan></text>
  <path
     d="m 53.905958,36.498 c 0.224,0 0.436,0.116 0.436,0.364 0,0.288 -0.224,0.484 -0.412,0.596 -0.144,0.084 -0.304,0.144 -0.468,0.144 -0.224,0 -0.436,-0.116 -0.436,-0.364 0,-0.288 0.224,-0.484 0.412,-0.596 0.144,-0.084 0.304,-0.144 0.468,-0.144 z"
     fill="currentColor"
     id="path404"
     style="stroke-width:0.004" />
  <rect
     x="51.435257"
     y="42.549999"
     width="0.13"
     height="3.3122001"
     ry="0.039999999"
     fill="currentColor"
     id="rect406" />
  <path
     d="m 51.129058,45.498 c 0.224,0 0.436,0.116 0.436,0.364 0,0.288 -0.224,0.484 -0.412,0.596 -0.144,0.084 -0.304,0.144 -0.468,0.144 -0.224,0 -0.436,-0.116 -0.436,-0.364 0,-0.288 0.224,-0.484 0.412,-0.596 0.144,-0.084 0.304,-0.144 0.468,-0.144 z"
     fill="currentColor"
     id="path408"
     style="stroke-width:0.004" />
  <rect
     x="48.65836"
     y="42.549999"
     width="0.13"
     height="3.3122001"
     ry="0.039999999"
     fill="currentColor"
     id="rect410" />
  <rect
     x="48.65836"
     y="33.860001"
     width="0.13"
     height="3.0021999"
     ry="0.039999999"
     fill="currentColor"
     id="rect412" />
  <rect
     x="48.65836"
     y="25.049999"
     width="0.13"
     height="2.8122001"
     ry="0.039999999"
     fill="currentColor"
     id="rect414" />
  <path
     d="m 48.352158,45.498 c 0.224,0 0.436,0.116 0.436,0.364 0,0.288 -0.224,0.484 -0.412,0.596 -0.144,0.084 -0.304,0.144 -0.468,0.144 -0.224,0 -0.436,-0.116 -0.436,-0.364 0,-0.288 0.224,-0.484 0.412,-0.596 0.144,-0.084 0.304,-0.144 0.468,-0.144 z"
     fill="currentColor"
     id="path416"
     style="stroke-width:0.004" />
  <text
     font-family="'Roboto Light'"
     font-size="2.2001px"
     text-anchor="start"
     fill="currentColor"
     id="text420"
     x="47.464458"
     y="40.775902"><tspan
       id="tspan418">&amp;</tspan></text>
  <path
     d="m 48.352158,36.498 c 0.224,0 0.436,0.116 0.436,0.364 0,0.288 -0.224,0.484 -0.412,0.596 -0.144,0.084 -0.304,0.144 -0.468,0.144 -0.224,0 -0.436,-0.116 -0.436,-0.364 0,-0.288 0.224,-0.484 0.412,-0.596 0.144,-0.084 0.304,-0.144 0.468,-0.144 z"
     fill="currentColor"
     id="path422"
     style="stroke-width:0.004" />
  <text
     font-family="'Roboto Light'"
     font-size="2.2001px"
     text-anchor="start"
     fill="currentColor"
     id="text426"
     x="47.566856"
     y="32.085899"><tspan
       id="tspan424">e</tspan></text>
  <text
     font-family="'Roboto Light'"
     font-size="2.2001px"
     text-anchor="start"
     fill="currentColor"
     id="text430"
     x="36.408058"
     y="40.775902"><tspan
       id="tspan428">2</tspan></text>
  <path
     d="m 37.244558,36.498 c 0.224,0 0.436,0.116 0.436,0.364 0,0.288 -0.224,0.484 -0.412,0.596 -0.144,0.084 -0.304,0.144 -0.468,0.144 -0.224,0 -0.436,-0.116 -0.436,-0.364 0,-0.288 0.224,-0.484 0.412,-0.596 0.144,-0.084 0.304,-0.144 0.468,-0.144 z"
     fill="currentColor"
     id="path432"
     style="stroke-width:0.004" />
  <text
     font-family="'Roboto Light'"
     font-size="2.2001px"
     text-anchor="start"
     fill="currentColor"
     id="text436"
     x="36.408058"
     y="32.085899"><tspan
       id="tspan434">2</tspan></text>
  <path
     d="m 37.244558,27.498 c 0.224,0 0.436,0.116 0.436,0.364 0,0.288 -0.224,0.484 -0.412,0.596 -0.144,0.084 -0.304,0.144 -0.468,0.144 -0.224,0 -0.436,-0.116 -0.436,-0.364 0,-0.288 0.224,-0.484 0.412,-0.596 0.144,-0.084 0.304,-0.144 0.468,-0.144 z"
     fill="currentColor"
     id="path438"
     style="stroke-width:0.004" />
  <text
     font-family="'Roboto Light'"
     font-size="2.2001px"
     text-anchor="start"
     fill="currentColor"
     id="text442"
     x="36.408058"
     y="23.2759"><tspan
       id="tspan440">2</tspan></text>
  <path
     d="m 37.244558,18.498 c 0.224,0 0.436,0.116 0.436,0.364 0,0.288 -0.224,0.484 -0.412,0.596 -0.144,0.084 -0.304,0.144 -0.468,0.144 -0.224,0 -0.436,-0.116 -0.436,-0.364 0,-0.288 0.224,-0.484 0.412,-0.596 0.144,-0.084 0.304,-0.144 0.468,-0.144 z"
     fill="currentColor"
     id="path444"
     style="stroke-width:0.004" />
  <rect
     x="34.773857"
     y="42.549999"
     width="0.13"
     height="3.3122001"
     ry="0.039999999"
     fill="currentColor"
     id="rect446" />
  <path
     d="m 34.467658,45.498 c 0.224,0 0.436,0.116 0.436,0.364 0,0.288 -0.224,0.484 -0.412,0.596 -0.144,0.084 -0.304,0.144 -0.468,0.144 -0.224,0 -0.436,-0.116 -0.436,-0.364 0,-0.288 0.224,-0.484 0.412,-0.596 0.144,-0.084 0.304,-0.144 0.468,-0.144 z"
     fill="currentColor"
     id="path448"
     style="stroke-width:0.004" />
  <rect
     x="31.996958"
     y="42.549999"
     width="0.13"
     height="3.3122001"
     ry="0.039999999"
     fill="currentColor"
     id="rect450" />
  <rect
     x="31.996958"
     y="33.860001"
     width="0.13"
     height="3.0021999"
     ry="0.039999999"
     fill="currentColor"
     id="rect452" />
  <path
     d="m 31.690758,45.498 c 0.224,0 0.436,0.116 0.436,0.364 0,0.288 -0.224,0.484 -0.412,0.596 -0.144,0.084 -0.304,0.144 -0.468,0.144 -0.224,0 -0.436,-0.116 -0.436,-0.364 0,-0.288 0.224,-0.484 0.412,-0.596 0.144,-0.084 0.304,-0.144 0.468,-0.144 z"
     fill="currentColor"
     id="path454"
     style="stroke-width:0.004" />
  <text
     font-family="'Roboto Light'"
     font-size="2.2001px"
     text-anchor="start"
     fill="currentColor"
     id="text458"
     x="30.871357"
     y="40.775902"><tspan
       id="tspan456">a</tspan></text>
  <path
     d="m 31.690758,36.498 c 0.224,0 0.436,0.116 0.436,0.364 0,0.288 -0.224,0.484 -0.412,0.596 -0.144,0.084 -0.304,0.144 -0.468,0.144 -0.224,0 -0.436,-0.116 -0.436,-0.364 0,-0.288 0.224,-0.484 0.412,-0.596 0.144,-0.084 0.304,-0.144 0.468,-0.144 z"
     fill="currentColor"
     id="path460"
     style="stroke-width:0.004" />
  <rect
     x="37.550758"
     y="42.549999"
     width="0.13"
     height="3.3122001"
     ry="0.039999999"
     fill="currentColor"
     id="rect462" />
  <rect
     x="37.550758"
     y="33.860001"
     width="0.13"
     height="3.0021999"
     ry="0.039999999"
     fill="currentColor"
     id="rect464" />
  <rect
     x="37.550758"
     y="25.049999"
     width="0.13"
     height="2.8122001"
     ry="0.039999999"
     fill="currentColor"
     id="rect466" />
  <path
     d="m 37.244558,45.498 c 0.224,0 0.436,0.116 0.436,0.364 0,0.288 -0.224,0.484 -0.412,0.596 -0.144,0.084 -0.304,0.144 -0.468,0.144 -0.224,0 -0.436,-0.116 -0.436,-0.364 0,-0.288 0.224,-0.484 0.412,-0.596 0.144,-0.084 0.304,-0.144 0.468,-0.144 z"
     fill="currentColor"
     id="path468"
     style="stroke-width:0.004" />
  <rect
     x="37.550758"
     y="15.7167"
     width="0.13"
     height="3.1454999"
     ry="0.039999999"
     fill="currentColor"
     id="rect470" />
</svg>
