<?xml version="1.0" encoding="UTF-8" standalone="no"?>
<svg
   version="1.2"
   width="174.71344mm"
   height="38.673222mm"
   viewBox="0 0 99.421598 22.007199"
   id="svg226"
   xmlns="http://www.w3.org/2000/svg"
   xmlns:svg="http://www.w3.org/2000/svg">
  <defs
     id="defs230" />
  <!-- Page: 1/1 -->
  <text
     font-family="'Century Schoolbook L'"
     font-size="2.2001px"
     text-anchor="start"
     fill="currentColor"
     id="text4"
     x="6.6299939"
     y="-1"><tspan
       id="tspan2" /></text>
  <line
     stroke-linejoin="round"
     stroke-linecap="round"
     stroke-width="0.1"
     stroke="currentColor"
     x1="6.6799936"
     y1="21.957199"
     x2="97.173599"
     y2="21.957199"
     id="line6" />
  <line
     stroke-linejoin="round"
     stroke-linecap="round"
     stroke-width="0.1"
     stroke="currentColor"
     x1="6.6799936"
     y1="20.957199"
     x2="97.173599"
     y2="20.957199"
     id="line8" />
  <line
     stroke-linejoin="round"
     stroke-linecap="round"
     stroke-width="0.1"
     stroke="currentColor"
     x1="6.6799936"
     y1="19.957199"
     x2="97.173599"
     y2="19.957199"
     id="line10" />
  <line
     stroke-linejoin="round"
     stroke-linecap="round"
     stroke-width="0.1"
     stroke="currentColor"
     x1="6.6799936"
     y1="18.957199"
     x2="97.173599"
     y2="18.957199"
     id="line12" />
  <line
     stroke-linejoin="round"
     stroke-linecap="round"
     stroke-width="0.1"
     stroke="currentColor"
     x1="6.6799936"
     y1="17.957199"
     x2="97.173599"
     y2="17.957199"
     id="line14" />
  <line
     stroke-linejoin="round"
     stroke-linecap="round"
     stroke-width="0.1"
     stroke="currentColor"
     x1="6.6799936"
     y1="4.0500002"
     x2="97.173599"
     y2="4.0500002"
     id="line16" />
  <line
     stroke-linejoin="round"
     stroke-linecap="round"
     stroke-width="0.1"
     stroke="currentColor"
     x1="6.6799936"
     y1="3.05"
     x2="97.173599"
     y2="3.05"
     id="line18" />
  <line
     stroke-linejoin="round"
     stroke-linecap="round"
     stroke-width="0.1"
     stroke="currentColor"
     x1="6.6799936"
     y1="2.05"
     x2="97.173599"
     y2="2.05"
     id="line20" />
  <line
     stroke-linejoin="round"
     stroke-linecap="round"
     stroke-width="0.1"
     stroke="currentColor"
     x1="6.6799936"
     y1="1.05"
     x2="97.173599"
     y2="1.05"
     id="line22" />
  <line
     stroke-linejoin="round"
     stroke-linecap="round"
     stroke-width="0.1"
     stroke="currentColor"
     x1="6.6799936"
     y1="0.050000001"
     x2="97.173599"
     y2="0.050000001"
     id="line24" />
  <path
     d="m 56.500394,5.01 h -0.064 v -1 h 0.064 c 0.392,-0.232 0.908,-0.592 0.908,-1.036 0,-0.228 -0.064,-0.448 -0.164,-0.652 -0.012,-0.064 0.04,-0.108 0.092,-0.108 0.028,0 0.06,0.012 0.08,0.044 0.1,0.224 0.16,0.468 0.16,0.716 0,0.816 -1.076,1.22 -1.076,2.036 z"
     fill="currentColor"
     id="path26"
     style="stroke-width:0.004" />
  <path
     d="m 71.005794,0.998 c 0.224,0 0.436,0.116 0.436,0.364 0,0.288 -0.224,0.484 -0.412,0.596 -0.144,0.084 -0.304,0.144 -0.468,0.144 -0.224,0 -0.436,-0.116 -0.436,-0.364 0,-0.288 0.224,-0.484 0.412,-0.596 0.144,-0.084 0.304,-0.144 0.468,-0.144 z"
     fill="currentColor"
     id="path28"
     style="stroke-width:0.004" />
  <text
     font-family="'Roboto Light'"
     font-size="2.2001px"
     text-anchor="start"
     fill="currentColor"
     id="text32"
     x="64.296692"
     y="7.8706002"><tspan
       id="tspan30">Semicolcheia</tspan></text>
  <text
     font-family="'Roboto Light'"
     font-size="2.2001px"
     text-anchor="start"
     fill="currentColor"
     id="text36"
     x="65.030792"
     y="10.6706"><tspan
       id="tspan34">Semiquaver</tspan></text>
  <text
     font-family="'Roboto Light'"
     font-size="2.2001px"
     text-anchor="start"
     fill="currentColor"
     id="text40"
     x="63.835693"
     y="13.4706"><tspan
       id="tspan38">Sixteenth note</tspan></text>
  <text
     font-family="'Roboto Light'"
     font-size="2.2001px"
     text-anchor="start"
     fill="currentColor"
     id="text44"
     x="68.496292"
     y="16.270599"><tspan
       id="tspan42">1</tspan></text>
  <text
     font-family="'Roboto Light'"
     font-size="2.2001px"
     text-anchor="start"
     fill="currentColor"
     id="text48"
     x="69.725494"
     y="16.270599"><tspan
       id="tspan46">/</tspan></text>
  <text
     font-family="'Roboto Light'"
     font-size="2.2001px"
     text-anchor="start"
     fill="currentColor"
     id="text52"
     x="70.613197"
     y="16.270599"><tspan
       id="tspan50">16</tspan></text>
  <path
     d="m 70.389794,21.9572 0.404,-1.308 c -0.136,0.048 -0.28,0.092 -0.424,0.092 -0.184,0 -0.348,-0.132 -0.348,-0.316 0,-0.16 0.128,-0.288 0.288,-0.288 0.1,0 0.196,0.06 0.228,0.156 0.04,0.112 0.02,0.236 0.136,0.236 0.064,0 0.22,-0.204 0.24,-0.272 l 0.184,-0.604 c -0.136,0.048 -0.272,0.088 -0.416,0.088 -0.184,0 -0.348,-0.132 -0.348,-0.316 0,-0.16 0.132,-0.288 0.292,-0.288 0.1,0 0.192,0.06 0.224,0.156 0.04,0.112 0.02,0.236 0.136,0.236 0.06,0 0.2,-0.196 0.228,-0.252 0.024,-0.048 0.092,-0.048 0.112,0 l -0.716,2.68 c -0.032,0.028 -0.068,0.04 -0.108,0.04 -0.04,0 -0.08,-0.012 -0.112,-0.04 z"
     fill="currentColor"
     id="path54"
     style="stroke-width:0.004" />
  <rect
     x="70.125793"
     y="1.7378"
     width="0.13"
     height="3.3122001"
     ry="0.039999999"
     fill="currentColor"
     id="rect56" />
  <path
     d="m 70.255794,4.19 c 0.368,-0.204 0.856,-0.524 0.856,-0.932 0,-0.096 -0.02,-0.192 -0.056,-0.28 -0.32,0.356 -0.8,0.64 -0.8,1.132 z m 1.076,-1.832 c 0,0.176 -0.06,0.328 -0.152,0.464 0.064,0.136 0.1,0.284 0.1,0.436 0,0.724 -1.024,1.028 -1.024,1.752 h -0.064 v -2 h 0.064 v 0.28 c 0.392,-0.196 0.908,-0.508 0.908,-0.932 0,-0.084 -0.024,-0.168 -0.056,-0.248 -0.012,-0.064 0.04,-0.108 0.092,-0.108 0.12,0 0.132,0.252 0.132,0.356 z"
     fill="currentColor"
     id="path58"
     style="stroke-width:0.004" />
  <text
     font-family="'Roboto Light'"
     font-size="2.2001px"
     text-anchor="start"
     fill="currentColor"
     id="text62"
     x="37.785095"
     y="13.4706"><tspan
       id="tspan60">Quarter note</tspan></text>
  <text
     font-family="'Roboto Light'"
     font-size="2.2001px"
     text-anchor="start"
     fill="currentColor"
     id="text66"
     x="42.206696"
     y="16.270599"><tspan
       id="tspan64">1</tspan></text>
  <text
     font-family="'Roboto Light'"
     font-size="2.2001px"
     text-anchor="start"
     fill="currentColor"
     id="text70"
     x="43.435795"
     y="16.270599"><tspan
       id="tspan68">/</tspan></text>
  <text
     font-family="'Roboto Light'"
     font-size="2.2001px"
     text-anchor="start"
     fill="currentColor"
     id="text74"
     x="44.323593"
     y="16.270599"><tspan
       id="tspan72">4</tspan></text>
  <path
     d="m 43.112494,20.4212 c 0,-0.112 0.044,-0.168 0.16,-0.168 0.132,0 0.312,0.052 0.476,0.124 l -0.528,-0.632 c -0.028,-0.036 -0.04,-0.068 -0.04,-0.1 0,-0.136 0.2,-0.264 0.348,-0.396 0.1,-0.088 0.148,-0.208 0.148,-0.332 0,-0.096 -0.032,-0.196 -0.1,-0.276 l -0.14,-0.168 c -0.012,-0.012 -0.016,-0.028 -0.016,-0.04 0,-0.036 0.036,-0.06 0.068,-0.06 0.016,0 0.032,0.004 0.044,0.02 l 0.604,0.72 c 0.028,0.036 0.04,0.068 0.04,0.1 0,0.136 -0.2,0.264 -0.348,0.396 -0.1,0.088 -0.148,0.208 -0.148,0.332 0,0.096 0.028,0.196 0.096,0.276 l 0.336,0.396 c 0.012,0.012 0.016,0.028 0.016,0.04 0,0.036 -0.032,0.064 -0.064,0.064 -0.016,0 -0.036,-0.008 -0.048,-0.024 -0.072,-0.084 -0.252,-0.152 -0.388,-0.152 -0.164,0 -0.212,0.104 -0.212,0.268 0,0.14 0.044,0.296 0.112,0.376 0.02,0.024 0,0.052 -0.024,0.052 -0.008,0 -0.016,0 -0.024,-0.008 -0.18,-0.216 -0.368,-0.592 -0.368,-0.808 z"
     fill="currentColor"
     id="path76"
     style="stroke-width:0.004" />
  <rect
     x="43.204494"
     y="1.7378"
     width="0.13"
     height="3.3122001"
     ry="0.039999999"
     fill="currentColor"
     id="rect78" />
  <path
     d="m 57.250394,0.998 c 0.224,0 0.436,0.116 0.436,0.364 0,0.288 -0.224,0.484 -0.412,0.596 -0.144,0.084 -0.304,0.144 -0.468,0.144 -0.224,0 -0.436,-0.116 -0.436,-0.364 0,-0.288 0.224,-0.484 0.412,-0.596 0.144,-0.084 0.304,-0.144 0.468,-0.144 z"
     fill="currentColor"
     id="path80"
     style="stroke-width:0.004" />
  <text
     font-family="'Roboto Light'"
     font-size="2.2001px"
     text-anchor="start"
     fill="currentColor"
     id="text84"
     x="52.845894"
     y="7.8706002"><tspan
       id="tspan82">Colcheia</tspan></text>
  <text
     font-family="'Roboto Light'"
     font-size="2.2001px"
     text-anchor="start"
     fill="currentColor"
     id="text88"
     x="53.597095"
     y="10.6706"><tspan
       id="tspan86">Quaver</tspan></text>
  <text
     font-family="'Roboto Light'"
     font-size="2.2001px"
     text-anchor="start"
     fill="currentColor"
     id="text92"
     x="51.514294"
     y="13.4706"><tspan
       id="tspan90">Eighth note</tspan></text>
  <text
     font-family="'Roboto Light'"
     font-size="2.2001px"
     text-anchor="start"
     fill="currentColor"
     id="text96"
     x="55.372494"
     y="16.270599"><tspan
       id="tspan94">1</tspan></text>
  <text
     font-family="'Roboto Light'"
     font-size="2.2001px"
     text-anchor="start"
     fill="currentColor"
     id="text100"
     x="56.601692"
     y="16.270599"><tspan
       id="tspan98">/</tspan></text>
  <text
     font-family="'Roboto Light'"
     font-size="2.2001px"
     text-anchor="start"
     fill="currentColor"
     id="text104"
     x="57.489395"
     y="16.270599"><tspan
       id="tspan102">8</tspan></text>
  <path
     d="m 56.658394,20.9572 0.468,-1.304 c -0.136,0.048 -0.276,0.088 -0.42,0.088 -0.184,0 -0.348,-0.132 -0.348,-0.316 0,-0.16 0.132,-0.288 0.292,-0.288 0.1,0 0.192,0.06 0.224,0.156 0.04,0.112 0.024,0.236 0.14,0.236 0.064,0 0.216,-0.192 0.244,-0.252 0.024,-0.048 0.092,-0.048 0.112,0 l -0.492,1.68 c -0.032,0.028 -0.068,0.04 -0.108,0.04 -0.04,0 -0.08,-0.012 -0.112,-0.04 z"
     fill="currentColor"
     id="path106"
     style="stroke-width:0.004" />
  <rect
     x="56.370392"
     y="1.7378"
     width="0.13"
     height="3.3122001"
     ry="0.039999999"
     fill="currentColor"
     id="rect108" />
  <path
     d="m 88.065294,0.998 c 0.224,0 0.436,0.116 0.436,0.364 0,0.288 -0.224,0.484 -0.412,0.596 -0.144,0.084 -0.304,0.144 -0.468,0.144 -0.224,0 -0.436,-0.116 -0.436,-0.364 0,-0.288 0.224,-0.484 0.412,-0.596 0.144,-0.084 0.304,-0.144 0.468,-0.144 z"
     fill="currentColor"
     id="path110"
     style="stroke-width:0.004" />
  <text
     font-family="'Roboto Light'"
     font-size="2.2001px"
     text-anchor="start"
     fill="currentColor"
     id="text114"
     x="85.453293"
     y="7.8706002"><tspan
       id="tspan112">Fusa</tspan></text>
  <text
     font-family="'Roboto Light'"
     font-size="2.2001px"
     text-anchor="start"
     fill="currentColor"
     id="text118"
     x="79.665993"
     y="10.6706"><tspan
       id="tspan116">Demisemiquaver</tspan></text>
  <text
     font-family="'Roboto Light'"
     font-size="2.2001px"
     text-anchor="start"
     fill="currentColor"
     id="text122"
     x="78.744095"
     y="13.4706"><tspan
       id="tspan120">Thirty-second note</tspan></text>
  <text
     font-family="'Roboto Light'"
     font-size="2.2001px"
     text-anchor="start"
     fill="currentColor"
     id="text126"
     x="85.555695"
     y="16.270599"><tspan
       id="tspan124">1</tspan></text>
  <text
     font-family="'Roboto Light'"
     font-size="2.2001px"
     text-anchor="start"
     fill="currentColor"
     id="text130"
     x="86.784897"
     y="16.270599"><tspan
       id="tspan128">/</tspan></text>
  <text
     font-family="'Roboto Light'"
     font-size="2.2001px"
     text-anchor="start"
     fill="currentColor"
     id="text134"
     x="87.672592"
     y="16.270599"><tspan
       id="tspan132">32</tspan></text>
  <path
     d="m 87.401294,21.9572 0.344,-1.308 c -0.14,0.052 -0.284,0.092 -0.432,0.092 -0.184,0 -0.348,-0.132 -0.348,-0.316 0,-0.16 0.128,-0.288 0.288,-0.288 0.1,0 0.196,0.06 0.228,0.156 0.04,0.112 0.02,0.236 0.136,0.236 0.068,0 0.216,-0.216 0.236,-0.284 l 0.156,-0.596 c -0.136,0.048 -0.28,0.092 -0.424,0.092 -0.184,0 -0.348,-0.132 -0.348,-0.316 0,-0.16 0.132,-0.288 0.292,-0.288 0.1,0 0.192,0.06 0.224,0.156 0.04,0.112 0.02,0.236 0.136,0.236 0.064,0 0.208,-0.204 0.224,-0.272 l 0.16,-0.604 c -0.132,0.048 -0.272,0.088 -0.412,0.088 -0.184,0 -0.348,-0.132 -0.348,-0.316 0,-0.16 0.128,-0.288 0.288,-0.288 0.1,0 0.196,0.06 0.228,0.156 0.04,0.112 0.02,0.236 0.136,0.236 0.06,0 0.184,-0.196 0.208,-0.252 0.024,-0.048 0.092,-0.048 0.112,0 l -0.864,3.68 c -0.032,0.028 -0.072,0.04 -0.112,0.04 -0.04,0 -0.076,-0.012 -0.108,-0.04 z"
     fill="currentColor"
     id="path136"
     style="stroke-width:0.004" />
  <rect
     x="87.185295"
     y="1.7378"
     width="0.13"
     height="4.0622001"
     ry="0.039999999"
     fill="currentColor"
     id="rect138" />
  <path
     d="m 87.315294,4.94 c 0.36,-0.2 0.832,-0.512 0.832,-0.912 0,-0.092 -0.012,-0.176 -0.032,-0.264 -0.312,0.352 -0.8,0.628 -0.8,1.116 z m 0.908,-2.636 c 0,-0.104 -0.104,-0.3 0.052,-0.3 0.108,0 0.116,0.204 0.116,0.3 0,0.152 -0.044,0.28 -0.12,0.4 0.064,0.152 0.1,0.316 0.1,0.48 0,0.152 -0.044,0.28 -0.12,0.4 0.044,0.144 0.068,0.292 0.068,0.444 0,0.716 -1.004,1.016 -1.004,1.732 h -0.064 v -3 h 0.064 v 0.42 c 0.392,-0.176 0.908,-0.464 0.908,-0.876 z m -0.908,1.756 c 0.384,-0.18 0.888,-0.468 0.888,-0.876 0,-0.108 -0.02,-0.216 -0.056,-0.316 -0.316,0.36 -0.832,0.632 -0.832,1.132 z"
     fill="currentColor"
     id="path140"
     style="stroke-width:0.004" />
  <text
     font-family="'Roboto Light'"
     font-size="2.2001px"
     text-anchor="start"
     fill="currentColor"
     id="text144"
     x="13.722194"
     y="13.4706"><tspan
       id="tspan142">Whole note</tspan></text>
  <text
     font-family="'Roboto Slab Light'"
     font-size="2.2001px"
     text-anchor="start"
     fill="currentColor"
     id="text148"
     x="9.3760939"
     y="13.4706"><tspan
       id="tspan146">US:</tspan></text>
  <text
     font-family="'Roboto Light'"
     font-size="2.2001px"
     text-anchor="start"
     fill="currentColor"
     id="text152"
     x="18.587593"
     y="16.270599"><tspan
       id="tspan150">1</tspan></text>
  <text
     font-family="'Roboto Slab Light'"
     font-size="2.2001px"
     text-anchor="start"
     fill="currentColor"
     id="text156"
     x="6.7470937"
     y="16.270599"><tspan
       id="tspan154">Valor:</tspan></text>
  <path
     d="m 19.672194,19.5812 h -1.42 c -0.024,0 -0.04,-0.016 -0.04,-0.04 v -0.544 c 0,-0.024 0.016,-0.04 0.04,-0.04 h 1.42 c 0.024,0 0.04,0.016 0.04,0.04 v 0.544 c 0,0.024 -0.016,0.04 -0.04,0.04 z"
     fill="currentColor"
     id="path158"
     style="stroke-width:0.004" />
  <text
     font-family="'Roboto Slab Light'"
     font-size="1.96px"
     text-anchor="start"
     fill="currentColor"
     id="text162"
     x="1.0035938"
     y="2.7328999"><tspan
       id="tspan160">Notas</tspan></text>
  <text
     font-family="'Roboto Slab Light'"
     font-size="1.96px"
     text-anchor="start"
     fill="currentColor"
     id="text166"
     x="-0.19140625"
     y="20.639999"><tspan
       id="tspan164">Pausas</tspan></text>
  <path
     d="m 19.072194,1.102 c -0.2,0 -0.276,0.172 -0.276,0.352 0,0.308 0.228,0.544 0.536,0.544 0.2,0 0.276,-0.172 0.276,-0.352 0,-0.308 -0.228,-0.544 -0.536,-0.544 z m 1.12,0.448 c 0,0.172 -0.14,0.304 -0.292,0.388 -0.212,0.12 -0.452,0.164 -0.696,0.164 -0.244,0 -0.488,-0.044 -0.7,-0.164 -0.152,-0.084 -0.292,-0.216 -0.292,-0.388 0,-0.172 0.14,-0.304 0.292,-0.388 0.212,-0.12 0.456,-0.164 0.7,-0.164 0.244,0 0.484,0.044 0.696,0.164 0.152,0.084 0.292,0.216 0.292,0.388 z"
     fill="currentColor"
     id="path168"
     style="stroke-width:0.004" />
  <text
     font-family="'Roboto Light'"
     font-size="2.2001px"
     text-anchor="start"
     fill="currentColor"
     id="text172"
     x="14.097794"
     y="7.8706002"><tspan
       id="tspan170">Semibreve</tspan></text>
  <text
     font-family="'Roboto Slab Light'"
     font-size="2.2001px"
     text-anchor="start"
     fill="currentColor"
     id="text176"
     x="9.5468941"
     y="7.8706002"><tspan
       id="tspan174">PT:</tspan></text>
  <text
     font-family="'Roboto Light'"
     font-size="2.2001px"
     text-anchor="start"
     fill="currentColor"
     id="text180"
     x="14.097794"
     y="10.6706"><tspan
       id="tspan178">Semibreve</tspan></text>
  <text
     font-family="'Roboto Slab Light'"
     font-size="2.2001px"
     text-anchor="start"
     fill="currentColor"
     id="text184"
     x="9.2053938"
     y="10.6706"><tspan
       id="tspan182">UK:</tspan></text>
  <path
     d="m 44.084494,0.998 c 0.224,0 0.436,0.116 0.436,0.364 0,0.288 -0.224,0.484 -0.412,0.596 -0.144,0.084 -0.304,0.144 -0.468,0.144 -0.224,0 -0.436,-0.116 -0.436,-0.364 0,-0.288 0.224,-0.484 0.412,-0.596 0.144,-0.084 0.304,-0.144 0.468,-0.144 z"
     fill="currentColor"
     id="path186"
     style="stroke-width:0.004" />
  <text
     font-family="'Roboto Light'"
     font-size="2.2001px"
     text-anchor="start"
     fill="currentColor"
     id="text190"
     x="38.963093"
     y="7.8706002"><tspan
       id="tspan188">Semínima</tspan></text>
  <text
     font-family="'Roboto Light'"
     font-size="2.2001px"
     text-anchor="start"
     fill="currentColor"
     id="text194"
     x="39.680092"
     y="10.6706"><tspan
       id="tspan192">Crotchet</tspan></text>
  <path
     d="m 32.056294,1.29 c 0,-0.096 -0.084,-0.164 -0.168,-0.164 -0.016,0 -0.032,0 -0.048,0.004 -0.124,0.036 -0.308,0.16 -0.456,0.256 -0.148,0.096 -0.336,0.212 -0.416,0.312 -0.028,0.032 -0.044,0.072 -0.044,0.112 0,0.096 0.084,0.164 0.168,0.164 0.016,0 0.032,0 0.048,-0.004 0.124,-0.036 0.312,-0.16 0.46,-0.256 0.148,-0.096 0.336,-0.212 0.416,-0.312 0.028,-0.032 0.04,-0.072 0.04,-0.112 z m -0.204,-0.288 c 0.188,0 0.332,0.084 0.332,0.288 0,0.076 -0.016,0.148 -0.04,0.224 -0.048,0.152 -0.128,0.296 -0.26,0.384 -0.216,0.144 -0.452,0.204 -0.752,0.204 -0.188,0 -0.336,-0.088 -0.336,-0.292 0,-0.076 0.02,-0.148 0.044,-0.224 0.048,-0.152 0.124,-0.296 0.256,-0.384 0.216,-0.144 0.456,-0.2 0.756,-0.2 z"
     fill="currentColor"
     id="path196"
     style="stroke-width:0.004" />
  <text
     font-family="'Roboto Light'"
     font-size="2.2001px"
     text-anchor="start"
     fill="currentColor"
     id="text200"
     x="27.837894"
     y="7.8706002"><tspan
       id="tspan198">Mínima</tspan></text>
  <text
     font-family="'Roboto Light'"
     font-size="2.2001px"
     text-anchor="start"
     fill="currentColor"
     id="text204"
     x="28.418394"
     y="10.6706"><tspan
       id="tspan202">Minim</tspan></text>
  <text
     font-family="'Roboto Light'"
     font-size="2.2001px"
     text-anchor="start"
     fill="currentColor"
     id="text208"
     x="27.052593"
     y="13.4706"><tspan
       id="tspan206">Half note</tspan></text>
  <text
     font-family="'Roboto Light'"
     font-size="2.2001px"
     text-anchor="start"
     fill="currentColor"
     id="text212"
     x="29.818295"
     y="16.270599"><tspan
       id="tspan210">1</tspan></text>
  <text
     font-family="'Roboto Light'"
     font-size="2.2001px"
     text-anchor="start"
     fill="currentColor"
     id="text216"
     x="31.047394"
     y="16.270599"><tspan
       id="tspan214">/</tspan></text>
  <text
     font-family="'Roboto Light'"
     font-size="2.2001px"
     text-anchor="start"
     fill="currentColor"
     id="text220"
     x="31.935093"
     y="16.270599"><tspan
       id="tspan218">2</tspan></text>
  <path
     d="m 32.256294,19.9572 h -1.42 c -0.024,0 -0.04,-0.016 -0.04,-0.04 v -0.544 c 0,-0.024 0.016,-0.04 0.04,-0.04 h 1.42 c 0.024,0 0.04,0.016 0.04,0.04 v 0.544 c 0,0.024 -0.016,0.04 -0.04,0.04 z"
     fill="currentColor"
     id="path222"
     style="stroke-width:0.004" />
  <rect
     x="30.796293"
     y="1.8114001"
     width="0.13"
     height="3.2386"
     ry="0.039999999"
     fill="currentColor"
     id="rect224" />
</svg>
