<?xml version="1.0" encoding="UTF-8" standalone="no"?>
<svg
   version="1.2"
   width="159.20001mm"
   height="19.136641mm"
   viewBox="0 0 90.593601 10.889805"
   id="svg190"
   xmlns="http://www.w3.org/2000/svg"
   xmlns:svg="http://www.w3.org/2000/svg">
  <defs
     id="defs194" />
  <!-- Page: 1/1 -->
  <text
     font-family="'Century Schoolbook L'"
     font-size="2.2001px"
     text-anchor="start"
     fill="currentColor"
     id="text4"
     y="-1.0244933"><tspan
       id="tspan2" /></text>
  <rect
     x="71.704498"
     y="3.8972068"
     width="0.19"
     height="2.0999999"
     ry="0.0000"
     fill="currentColor"
     id="rect6" />
  <rect
     x="63.425301"
     y="3.8972068"
     width="0.19"
     height="2.0999999"
     ry="0.0000"
     fill="currentColor"
     id="rect8" />
  <rect
     x="33.084202"
     y="3.8972068"
     width="0.19"
     height="2.0999999"
     ry="0.0000"
     fill="currentColor"
     id="rect10" />
  <rect
     x="21.654301"
     y="3.8972068"
     width="0.19"
     height="2.0999999"
     ry="0.0000"
     fill="currentColor"
     id="rect12" />
  <rect
     x="79.983803"
     y="3.8972068"
     width="0.19"
     height="2.0999999"
     ry="0.0000"
     fill="currentColor"
     id="rect14" />
  <rect
     x="90.403603"
     y="3.8972068"
     width="0.19"
     height="2.0999999"
     ry="0.0000"
     fill="currentColor"
     id="rect16" />
  <rect
     x="53.3116"
     y="3.8972068"
     width="0.19"
     height="2.0999999"
     ry="0.0000"
     fill="currentColor"
     id="rect18" />
  <rect
     x="43.197899"
     y="3.8972068"
     width="0.19"
     height="2.0999999"
     ry="0.0000"
     fill="currentColor"
     id="rect20" />
  <line
     stroke-linejoin="round"
     stroke-linecap="round"
     stroke-width="0.1"
     stroke="currentColor"
     x1="0.050000001"
     y1="4.9472065"
     x2="90.543602"
     y2="4.9472065"
     id="line22" />
  <path
     d="m 65.4136,4.3952067 c 0.224,0 0.436,0.116 0.436,0.364 0,0.288 -0.224,0.484 -0.412,0.596 -0.144,0.084 -0.304,0.144 -0.468,0.144 -0.224,0 -0.436,-0.116 -0.436,-0.364 0,-0.288 0.224,-0.484 0.412,-0.596 0.144,-0.084 0.304,-0.144 0.468,-0.144 z"
     fill="currentColor"
     id="path24"
     style="stroke-width:0.004" />
  <text
     font-family="'Roboto Light'"
     font-size="2.2001px"
     text-anchor="start"
     fill="currentColor"
     id="text28"
     x="64.577103"
     y="10.447206"><tspan
       id="tspan26">6</tspan></text>
  <path
     d="m 50.3162,4.3952067 c 0.224,0 0.436,0.116 0.436,0.364 0,0.288 -0.224,0.484 -0.412,0.596 -0.144,0.084 -0.304,0.144 -0.468,0.144 -0.224,0 -0.436,-0.116 -0.436,-0.364 0,-0.288 0.224,-0.484 0.412,-0.596 0.144,-0.084 0.304,-0.144 0.468,-0.144 z"
     fill="currentColor"
     id="path30"
     style="stroke-width:0.004" />
  <path
     d="m 66.2998,4.4472067 c 0,-0.124 0.1,-0.224 0.224,-0.224 0.124,0 0.224,0.1 0.224,0.224 0,0.124 -0.1,0.224 -0.224,0.224 -0.124,0 -0.224,-0.1 -0.224,-0.224 z"
     fill="currentColor"
     id="path32"
     style="stroke-width:0.004" />
  <rect
     x="65.719803"
     y="1.7572066"
     width="0.13"
     height="3.0021999"
     ry="0.039999999"
     fill="currentColor"
     id="rect34" />
  <path
     d="m 69.958,4.3952067 c 0.224,0 0.436,0.116 0.436,0.364 0,0.288 -0.224,0.484 -0.412,0.596 -0.144,0.084 -0.304,0.144 -0.468,0.144 -0.224,0 -0.436,-0.116 -0.436,-0.364 0,-0.288 0.224,-0.484 0.412,-0.596 0.144,-0.084 0.304,-0.144 0.468,-0.144 z"
     fill="currentColor"
     id="path36"
     style="stroke-width:0.004" />
  <rect
     x="70.264099"
     y="1.7572066"
     width="0.13"
     height="3.0021999"
     ry="0.039999999"
     fill="currentColor"
     id="rect38" />
  <path
     d="m 73.6929,4.3952067 c 0.224,0 0.436,0.116 0.436,0.364 0,0.288 -0.224,0.484 -0.412,0.596 -0.144,0.084 -0.304,0.144 -0.468,0.144 -0.224,0 -0.436,-0.116 -0.436,-0.364 0,-0.288 0.224,-0.484 0.412,-0.596 0.144,-0.084 0.304,-0.144 0.468,-0.144 z"
     fill="currentColor"
     id="path40"
     style="stroke-width:0.004" />
  <text
     font-family="'Roboto Light'"
     font-size="2.2001px"
     text-anchor="start"
     fill="currentColor"
     id="text44"
     x="72.873398"
     y="10.447206"><tspan
       id="tspan42">7</tspan></text>
  <path
     d="m 55.2999,4.3952067 c 0.224,0 0.436,0.116 0.436,0.364 0,0.288 -0.224,0.484 -0.412,0.596 -0.144,0.084 -0.304,0.144 -0.468,0.144 -0.224,0 -0.436,-0.116 -0.436,-0.364 0,-0.288 0.224,-0.484 0.412,-0.596 0.144,-0.084 0.304,-0.144 0.468,-0.144 z"
     fill="currentColor"
     id="path46"
     style="stroke-width:0.004" />
  <text
     font-family="'Roboto Light'"
     font-size="2.2001px"
     text-anchor="start"
     fill="currentColor"
     id="text50"
     x="54.463402"
     y="10.447206"><tspan
       id="tspan48">5</tspan></text>
  <rect
     x="55.606098"
     y="1.7572066"
     width="0.13"
     height="3.0021999"
     ry="0.039999999"
     fill="currentColor"
     id="rect52" />
  <path
     d="m 57.8649,4.3952067 c 0.224,0 0.436,0.116 0.436,0.364 0,0.288 -0.224,0.484 -0.412,0.596 -0.144,0.084 -0.304,0.144 -0.468,0.144 -0.224,0 -0.436,-0.116 -0.436,-0.364 0,-0.288 0.224,-0.484 0.412,-0.596 0.144,-0.084 0.304,-0.144 0.468,-0.144 z"
     fill="currentColor"
     id="path54"
     style="stroke-width:0.004" />
  <rect
     x="58.171101"
     y="1.7572066"
     width="0.13"
     height="3.0021999"
     ry="0.039999999"
     fill="currentColor"
     id="rect56" />
  <path
     d="m 61.6787,4.3952067 c 0.224,0 0.436,0.116 0.436,0.364 0,0.288 -0.224,0.484 -0.412,0.596 -0.144,0.084 -0.304,0.144 -0.468,0.144 -0.224,0 -0.436,-0.116 -0.436,-0.364 0,-0.288 0.224,-0.484 0.412,-0.596 0.144,-0.084 0.304,-0.144 0.468,-0.144 z"
     fill="currentColor"
     id="path58"
     style="stroke-width:0.004" />
  <rect
     x="61.984901"
     y="1.7572066"
     width="0.13"
     height="3.0021999"
     ry="0.039999999"
     fill="currentColor"
     id="rect60" />
  <rect
     x="50.622398"
     y="1.7572066"
     width="0.13"
     height="3.0021999"
     ry="0.039999999"
     fill="currentColor"
     id="rect62" />
  <path
     d="m 85.0554,4.3952067 c 0.224,0 0.436,0.116 0.436,0.364 0,0.288 -0.224,0.484 -0.412,0.596 -0.144,0.084 -0.304,0.144 -0.468,0.144 -0.224,0 -0.436,-0.116 -0.436,-0.364 0,-0.288 0.224,-0.484 0.412,-0.596 0.144,-0.084 0.304,-0.144 0.468,-0.144 z"
     fill="currentColor"
     id="path64"
     style="stroke-width:0.004" />
  <rect
     x="85.361603"
     y="1.9472066"
     width="0.13"
     height="2.8122001"
     ry="0.039999999"
     fill="currentColor"
     id="rect66" />
  <path
     d="m 88.1387,4.3952067 c 0.224,0 0.436,0.116 0.436,0.364 0,0.288 -0.224,0.484 -0.412,0.596 -0.144,0.084 -0.304,0.144 -0.468,0.144 -0.224,0 -0.436,-0.116 -0.436,-0.364 0,-0.288 0.224,-0.484 0.412,-0.596 0.144,-0.084 0.304,-0.144 0.468,-0.144 z"
     fill="currentColor"
     id="path68"
     style="stroke-width:0.004" />
  <rect
     x="88.444901"
     y="1.9472066"
     width="0.13"
     height="2.8122001"
     ry="0.039999999"
     fill="currentColor"
     id="rect70" />
  <polygon
     transform="translate(82.2783,1.9472067)"
     stroke-linejoin="round"
     stroke-linecap="round"
     stroke-width="0.08"
     fill="currentColor"
     stroke="currentColor"
     points="0.04,0.2 0.04,-0.2 6.2566,-0.2 6.2566,0.2 "
     id="polygon72" />
  <text
     font-family="'Century Schoolbook L'"
     font-style="italic"
     font-size="1.7461px"
     text-anchor="start"
     fill="currentColor"
     id="text76"
     x="84.948601"
     y="1.2047067"><tspan
       id="tspan74">3</tspan></text>
  <polygon
     transform="translate(73.999,1.7572067)"
     stroke-linejoin="round"
     stroke-linecap="round"
     stroke-width="0.08"
     fill="currentColor"
     stroke="currentColor"
     points="0.04,0.2 0.04,-0.2 2.655,-0.2 2.655,0.2 "
     id="polygon78" />
  <polygon
     transform="translate(73.999,2.5672067)"
     stroke-linejoin="round"
     stroke-linecap="round"
     stroke-width="0.08"
     fill="currentColor"
     stroke="currentColor"
     points="0.04,0.2 0.04,-0.2 1.125,-0.2 1.125,0.2 "
     id="polygon80" />
  <polygon
     transform="translate(65.7198,1.7572067)"
     stroke-linejoin="round"
     stroke-linecap="round"
     stroke-width="0.08"
     fill="currentColor"
     stroke="currentColor"
     points="0.04,0.2 0.04,-0.2 4.6343,-0.2 4.6343,0.2 "
     id="polygon82" />
  <polygon
     transform="translate(69.2291,2.5672067)"
     stroke-linejoin="round"
     stroke-linecap="round"
     stroke-width="0.08"
     fill="currentColor"
     stroke="currentColor"
     points="0.04,0.2 0.04,-0.2 1.125,-0.2 1.125,0.2 "
     id="polygon84" />
  <polygon
     transform="translate(55.6061,1.7572067)"
     stroke-linejoin="round"
     stroke-linecap="round"
     stroke-width="0.08"
     fill="currentColor"
     stroke="currentColor"
     points="0.04,0.2 0.04,-0.2 6.4688,-0.2 6.4688,0.2 "
     id="polygon86" />
  <polygon
     transform="translate(60.9499,2.5672067)"
     stroke-linejoin="round"
     stroke-linecap="round"
     stroke-width="0.08"
     fill="currentColor"
     stroke="currentColor"
     points="0.04,0.2 0.04,-0.2 1.125,-0.2 1.125,0.2 "
     id="polygon88" />
  <polygon
     transform="translate(55.6061,2.5672067)"
     stroke-linejoin="round"
     stroke-linecap="round"
     stroke-width="0.08"
     fill="currentColor"
     stroke="currentColor"
     points="0.04,0.2 0.04,-0.2 1.125,-0.2 1.125,0.2 "
     id="polygon90" />
  <polygon
     transform="translate(45.4924,1.7572067)"
     stroke-linejoin="round"
     stroke-linecap="round"
     stroke-width="0.08"
     fill="currentColor"
     stroke="currentColor"
     points="0.04,0.2 0.04,-0.2 5.22,-0.2 5.22,0.2 "
     id="polygon92" />
  <polygon
     transform="translate(45.4924,2.5672067)"
     stroke-linejoin="round"
     stroke-linecap="round"
     stroke-width="0.08"
     fill="currentColor"
     stroke="currentColor"
     points="0.04,0.2 0.04,-0.2 2.655,-0.2 2.655,0.2 "
     id="polygon94" />
  <polygon
     transform="translate(35.3787,1.7572067)"
     stroke-linejoin="round"
     stroke-linecap="round"
     stroke-width="0.08"
     fill="currentColor"
     stroke="currentColor"
     points="0.04,0.2 0.04,-0.2 6.4688,-0.2 6.4688,0.2 "
     id="polygon96" />
  <polygon
     transform="translate(39.1925,2.5672067)"
     stroke-linejoin="round"
     stroke-linecap="round"
     stroke-width="0.08"
     fill="currentColor"
     stroke="currentColor"
     points="0.04,0.2 0.04,-0.2 2.655,-0.2 2.655,0.2 "
     id="polygon98" />
  <polygon
     transform="translate(23.9488,1.7572067)"
     stroke-linejoin="round"
     stroke-linecap="round"
     stroke-width="0.08"
     fill="currentColor"
     stroke="currentColor"
     points="0.04,0.2 0.04,-0.2 7.785,-0.2 7.785,0.2 "
     id="polygon100" />
  <polygon
     transform="translate(23.9488,2.5672067)"
     stroke-linejoin="round"
     stroke-linecap="round"
     stroke-width="0.08"
     fill="currentColor"
     stroke="currentColor"
     points="0.04,0.2 0.04,-0.2 7.785,-0.2 7.785,0.2 "
     id="polygon102" />
  <polygon
     transform="translate(15.1513,1.9472067)"
     stroke-linejoin="round"
     stroke-linecap="round"
     stroke-width="0.08"
     fill="currentColor"
     stroke="currentColor"
     points="0.04,0.2 0.04,-0.2 3.9038,-0.2 3.9038,0.2 "
     id="polygon104" />
  <rect
     x="73.999001"
     y="1.7572066"
     width="0.13"
     height="3.0021999"
     ry="0.039999999"
     fill="currentColor"
     id="rect106" />
  <path
     d="m 76.2578,4.3952067 c 0.224,0 0.436,0.116 0.436,0.364 0,0.288 -0.224,0.484 -0.412,0.596 -0.144,0.084 -0.304,0.144 -0.468,0.144 -0.224,0 -0.436,-0.116 -0.436,-0.364 0,-0.288 0.224,-0.484 0.412,-0.596 0.144,-0.084 0.304,-0.144 0.468,-0.144 z"
     fill="currentColor"
     id="path108"
     style="stroke-width:0.004" />
  <path
     d="m 77.144,4.4472067 c 0,-0.124 0.1,-0.224 0.224,-0.224 0.124,0 0.224,0.1 0.224,0.224 0,0.124 -0.1,0.224 -0.224,0.224 -0.124,0 -0.224,-0.1 -0.224,-0.224 z"
     fill="currentColor"
     id="path110"
     style="stroke-width:0.004" />
  <rect
     x="76.564003"
     y="1.7572066"
     width="0.13"
     height="3.0021999"
     ry="0.039999999"
     fill="currentColor"
     id="rect112" />
  <path
     d="m 81.9721,4.3952067 c 0.224,0 0.436,0.116 0.436,0.364 0,0.288 -0.224,0.484 -0.412,0.596 -0.144,0.084 -0.304,0.144 -0.468,0.144 -0.224,0 -0.436,-0.116 -0.436,-0.364 0,-0.288 0.224,-0.484 0.412,-0.596 0.144,-0.084 0.304,-0.144 0.468,-0.144 z"
     fill="currentColor"
     id="path114"
     style="stroke-width:0.004" />
  <text
     font-family="'Roboto Light'"
     font-size="2.2001px"
     text-anchor="start"
     fill="currentColor"
     id="text118"
     x="81.152702"
     y="10.447206"><tspan
       id="tspan116">8</tspan></text>
  <rect
     x="82.278297"
     y="1.9472066"
     width="0.13"
     height="2.8122001"
     ry="0.039999999"
     fill="currentColor"
     id="rect120" />
  <path
     d="m 26.2076,4.3952067 c 0.224,0 0.436,0.116 0.436,0.364 0,0.288 -0.224,0.484 -0.412,0.596 -0.144,0.084 -0.304,0.144 -0.468,0.144 -0.224,0 -0.436,-0.116 -0.436,-0.364 0,-0.288 0.224,-0.484 0.412,-0.596 0.144,-0.084 0.304,-0.144 0.468,-0.144 z"
     fill="currentColor"
     id="path122"
     style="stroke-width:0.004" />
  <rect
     x="26.5138"
     y="1.7572066"
     width="0.13"
     height="3.0021999"
     ry="0.039999999"
     fill="currentColor"
     id="rect124" />
  <path
     d="m 28.7726,4.3952067 c 0.224,0 0.436,0.116 0.436,0.364 0,0.288 -0.224,0.484 -0.412,0.596 -0.144,0.084 -0.304,0.144 -0.468,0.144 -0.224,0 -0.436,-0.116 -0.436,-0.364 0,-0.288 0.224,-0.484 0.412,-0.596 0.144,-0.084 0.304,-0.144 0.468,-0.144 z"
     fill="currentColor"
     id="path126"
     style="stroke-width:0.004" />
  <rect
     x="29.0788"
     y="1.7572066"
     width="0.13"
     height="3.0021999"
     ry="0.039999999"
     fill="currentColor"
     id="rect128" />
  <path
     d="m 31.3376,4.3952067 c 0.224,0 0.436,0.116 0.436,0.364 0,0.288 -0.224,0.484 -0.412,0.596 -0.144,0.084 -0.304,0.144 -0.468,0.144 -0.224,0 -0.436,-0.116 -0.436,-0.364 0,-0.288 0.224,-0.484 0.412,-0.596 0.144,-0.084 0.304,-0.144 0.468,-0.144 z"
     fill="currentColor"
     id="path130"
     style="stroke-width:0.004" />
  <rect
     x="31.643801"
     y="1.7572066"
     width="0.13"
     height="3.0021999"
     ry="0.039999999"
     fill="currentColor"
     id="rect132" />
  <path
     d="m 14.8451,4.3952067 c 0.224,0 0.436,0.116 0.436,0.364 0,0.288 -0.224,0.484 -0.412,0.596 -0.144,0.084 -0.304,0.144 -0.468,0.144 -0.224,0 -0.436,-0.116 -0.436,-0.364 0,-0.288 0.224,-0.484 0.412,-0.596 0.144,-0.084 0.304,-0.144 0.468,-0.144 z"
     fill="currentColor"
     id="path134"
     style="stroke-width:0.004" />
  <path
     d="m 1.816,5.7336067 c 0.088,-0.056 0.176,-0.116 0.24,-0.2 0.044,-0.06 0.076,-0.132 0.108,-0.2 0.008,-0.016 0.02,-0.024 0.036,-0.024 0.024,0 0.052,0.02 0.052,0.056 v 0.98 H 2.54 c 0.04,0 0.06,0.028 0.06,0.056 0,0.028 -0.02,0.06 -0.06,0.06 H 2.252 v 0.032 c 0,0.192 0.108,0.376 0.288,0.376 0.032,0 0.048,0.02 0.048,0.044 0,0.024 -0.016,0.048 -0.048,0.048 -0.176,0 -0.348,-0.052 -0.524,-0.052 -0.176,0 -0.348,0.052 -0.524,0.052 -0.032,0 -0.048,-0.024 -0.048,-0.048 0,-0.024 0.016,-0.044 0.048,-0.044 0.18,0 0.292,-0.184 0.292,-0.376 v -0.032 H 1.116 c -0.092,0 -0.124,-0.056 -0.124,-0.092 0,-0.012 0.004,-0.02 0.008,-0.024 0.32,-0.372 0.552,-0.828 0.552,-1.32 0,-0.036 0.024,-0.064 0.052,-0.064 h 0.012 c 0.092,0.028 0.188,0.052 0.284,0.052 0.096,0 0.192,-0.024 0.284,-0.052 0.008,-0.004 0.012,-0.004 0.02,-0.004 0.044,0 0.072,0.04 0.048,0.068 l -1.136,1.32 h 0.668 v -0.524 c 0,-0.032 0.004,-0.068 0.032,-0.088 z"
     fill="currentColor"
     id="path136"
     style="stroke-width:0.004" />
  <path
     d="m 1.6587,2.9352067 c 0.072,0 0.136,0.064 0.212,0.064 0.06,0 0.116,-0.028 0.168,-0.052 0.004,-0.004 0.012,-0.004 0.016,-0.004 0.028,0 0.048,0.028 0.048,0.068 v 1.468 c 0,0.192 0.112,0.376 0.292,0.376 0.032,0 0.048,0.02 0.048,0.044 0,0.024 -0.016,0.048 -0.048,0.048 -0.176,0 -0.348,-0.052 -0.524,-0.052 -0.176,0 -0.348,0.052 -0.524,0.052 -0.032,0 -0.048,-0.024 -0.048,-0.048 0,-0.024 0.016,-0.044 0.048,-0.044 0.18,0 0.292,-0.184 0.292,-0.376 v -0.98 c 0,-0.048 -0.036,-0.076 -0.068,-0.076 -0.016,0 -0.032,0.012 -0.04,0.028 l -0.256,0.544 c -0.012,0.024 -0.028,0.036 -0.048,0.036 -0.032,0 -0.064,-0.024 -0.064,-0.056 0,-0.008 0.004,-0.02 0.008,-0.028 l 0.468,-1 c 0.004,-0.008 0.012,-0.012 0.02,-0.012 z"
     fill="currentColor"
     id="path138"
     style="stroke-width:0.004" />
  <text
     font-family="'Roboto Light'"
     font-size="2.2001px"
     text-anchor="start"
     fill="currentColor"
     id="text142"
     x="14.0086"
     y="10.447206"><tspan
       id="tspan140">1</tspan></text>
  <text
     font-family="'Roboto Slab Light'"
     font-size="2.2001px"
     text-anchor="start"
     fill="currentColor"
     id="text146"
     y="10.447206"><tspan
       id="tspan144">Exemplo n.ยบ:</tspan></text>
  <rect
     x="15.1513"
     y="1.9472066"
     width="0.13"
     height="2.8122001"
     ry="0.039999999"
     fill="currentColor"
     id="rect148" />
  <path
     d="m 18.6589,4.3952067 c 0.224,0 0.436,0.116 0.436,0.364 0,0.288 -0.224,0.484 -0.412,0.596 -0.144,0.084 -0.304,0.144 -0.468,0.144 -0.224,0 -0.436,-0.116 -0.436,-0.364 0,-0.288 0.224,-0.484 0.412,-0.596 0.144,-0.084 0.304,-0.144 0.468,-0.144 z"
     fill="currentColor"
     id="path150"
     style="stroke-width:0.004" />
  <rect
     x="18.965099"
     y="1.9472066"
     width="0.13"
     height="2.8122001"
     ry="0.039999999"
     fill="currentColor"
     id="rect152" />
  <path
     d="m 23.6426,4.3952067 c 0.224,0 0.436,0.116 0.436,0.364 0,0.288 -0.224,0.484 -0.412,0.596 -0.144,0.084 -0.304,0.144 -0.468,0.144 -0.224,0 -0.436,-0.116 -0.436,-0.364 0,-0.288 0.224,-0.484 0.412,-0.596 0.144,-0.084 0.304,-0.144 0.468,-0.144 z"
     fill="currentColor"
     id="path154"
     style="stroke-width:0.004" />
  <text
     font-family="'Roboto Light'"
     font-size="2.2001px"
     text-anchor="start"
     fill="currentColor"
     id="text158"
     x="22.806101"
     y="10.447206"><tspan
       id="tspan156">2</tspan></text>
  <rect
     x="23.948799"
     y="1.7572066"
     width="0.13"
     height="3.0021999"
     ry="0.039999999"
     fill="currentColor"
     id="rect160" />
  <path
     d="m 41.4513,4.3952067 c 0.224,0 0.436,0.116 0.436,0.364 0,0.288 -0.224,0.484 -0.412,0.596 -0.144,0.084 -0.304,0.144 -0.468,0.144 -0.224,0 -0.436,-0.116 -0.436,-0.364 0,-0.288 0.224,-0.484 0.412,-0.596 0.144,-0.084 0.304,-0.144 0.468,-0.144 z"
     fill="currentColor"
     id="path162"
     style="stroke-width:0.004" />
  <rect
     x="41.7575"
     y="1.7572066"
     width="0.13"
     height="3.0021999"
     ry="0.039999999"
     fill="currentColor"
     id="rect164" />
  <path
     d="m 45.1862,4.3952067 c 0.224,0 0.436,0.116 0.436,0.364 0,0.288 -0.224,0.484 -0.412,0.596 -0.144,0.084 -0.304,0.144 -0.468,0.144 -0.224,0 -0.436,-0.116 -0.436,-0.364 0,-0.288 0.224,-0.484 0.412,-0.596 0.144,-0.084 0.304,-0.144 0.468,-0.144 z"
     fill="currentColor"
     id="path166"
     style="stroke-width:0.004" />
  <text
     font-family="'Roboto Light'"
     font-size="2.2001px"
     text-anchor="start"
     fill="currentColor"
     id="text170"
     x="44.366798"
     y="10.447206"><tspan
       id="tspan168">4</tspan></text>
  <rect
     x="45.492401"
     y="1.7572066"
     width="0.13"
     height="3.0021999"
     ry="0.039999999"
     fill="currentColor"
     id="rect172" />
  <path
     d="m 47.7512,4.3952067 c 0.224,0 0.436,0.116 0.436,0.364 0,0.288 -0.224,0.484 -0.412,0.596 -0.144,0.084 -0.304,0.144 -0.468,0.144 -0.224,0 -0.436,-0.116 -0.436,-0.364 0,-0.288 0.224,-0.484 0.412,-0.596 0.144,-0.084 0.304,-0.144 0.468,-0.144 z"
     fill="currentColor"
     id="path174"
     style="stroke-width:0.004" />
  <rect
     x="48.0574"
     y="1.7572066"
     width="0.13"
     height="3.0021999"
     ry="0.039999999"
     fill="currentColor"
     id="rect176" />
  <rect
     x="35.3787"
     y="1.7572066"
     width="0.13"
     height="3.0021999"
     ry="0.039999999"
     fill="currentColor"
     id="rect178" />
  <text
     font-family="'Roboto Light'"
     font-size="2.2001px"
     text-anchor="start"
     fill="currentColor"
     id="text182"
     x="34.236"
     y="10.447206"><tspan
       id="tspan180">3</tspan></text>
  <path
     d="m 35.0725,4.3952067 c 0.224,0 0.436,0.116 0.436,0.364 0,0.288 -0.224,0.484 -0.412,0.596 -0.144,0.084 -0.304,0.144 -0.468,0.144 -0.224,0 -0.436,-0.116 -0.436,-0.364 0,-0.288 0.224,-0.484 0.412,-0.596 0.144,-0.084 0.304,-0.144 0.468,-0.144 z"
     fill="currentColor"
     id="path184"
     style="stroke-width:0.004" />
  <rect
     x="39.192501"
     y="1.7572066"
     width="0.13"
     height="3.0021999"
     ry="0.039999999"
     fill="currentColor"
     id="rect186" />
  <path
     d="m 38.8863,4.3952067 c 0.224,0 0.436,0.116 0.436,0.364 0,0.288 -0.224,0.484 -0.412,0.596 -0.144,0.084 -0.304,0.144 -0.468,0.144 -0.224,0 -0.436,-0.116 -0.436,-0.364 0,-0.288 0.224,-0.484 0.412,-0.596 0.144,-0.084 0.304,-0.144 0.468,-0.144 z"
     fill="currentColor"
     id="path188"
     style="stroke-width:0.004" />
</svg>
