<?xml version="1.0" encoding="UTF-8" standalone="no"?>
<svg
   version="1.2"
   width="159.20001mm"
   height="36.619995mm"
   viewBox="0 0 90.593601 20.838799"
   id="svg316"
   xmlns="http://www.w3.org/2000/svg"
   xmlns:svg="http://www.w3.org/2000/svg">
  <defs
     id="defs320" />
  <!-- Page: 1/1 -->
  <text
     font-family="'Century Schoolbook L'"
     font-size="2.2001px"
     text-anchor="start"
     fill="currentColor"
     id="text4"
     y="-1"><tspan
       id="tspan2" /></text>
  <rect
     x="79.728203"
     y="12.8333"
     width="0.19"
     height="4"
     ry="0.0000"
     fill="currentColor"
     id="rect6" />
  <rect
     x="57.857498"
     y="12.8333"
     width="0.19"
     height="4"
     ry="0.0000"
     fill="currentColor"
     id="rect8" />
  <rect
     x="38.306801"
     y="1.776"
     width="0.19"
     height="4"
     ry="0.0000"
     fill="currentColor"
     id="rect10" />
  <rect
     x="89.993599"
     y="1.776"
     width="0.60000002"
     height="4"
     ry="0.0000"
     fill="currentColor"
     id="rect12" />
  <rect
     x="89.503601"
     y="1.776"
     width="0.19"
     height="4"
     ry="0.0000"
     fill="currentColor"
     id="rect14" />
  <rect
     x="17.5061"
     y="1.776"
     width="0.19"
     height="4"
     ry="0.0000"
     fill="currentColor"
     id="rect16" />
  <rect
     x="57.857498"
     y="1.776"
     width="0.19"
     height="4"
     ry="0.0000"
     fill="currentColor"
     id="rect18" />
  <rect
     x="89.993599"
     y="12.8333"
     width="0.60000002"
     height="4"
     ry="0.0000"
     fill="currentColor"
     id="rect20" />
  <rect
     x="89.503601"
     y="12.8333"
     width="0.19"
     height="4"
     ry="0.0000"
     fill="currentColor"
     id="rect22" />
  <rect
     x="79.728203"
     y="1.776"
     width="0.19"
     height="4"
     ry="0.0000"
     fill="currentColor"
     id="rect24" />
  <rect
     x="38.306801"
     y="12.8333"
     width="0.19"
     height="4"
     ry="0.0000"
     fill="currentColor"
     id="rect26" />
  <rect
     x="17.5061"
     y="12.8333"
     width="0.19"
     height="4"
     ry="0.0000"
     fill="currentColor"
     id="rect28" />
  <rect
     x="27.2815"
     y="12.8333"
     width="0.19"
     height="4"
     ry="0.0000"
     fill="currentColor"
     id="rect30" />
  <rect
     x="68.702904"
     y="1.776"
     width="0.19"
     height="4"
     ry="0.0000"
     fill="currentColor"
     id="rect32" />
  <line
     stroke-linejoin="round"
     stroke-linecap="round"
     stroke-width="0.1"
     stroke="currentColor"
     x1="0.050000001"
     y1="5.776"
     x2="90.543602"
     y2="5.776"
     id="line34" />
  <line
     stroke-linejoin="round"
     stroke-linecap="round"
     stroke-width="0.1"
     stroke="currentColor"
     x1="0.050000001"
     y1="4.776"
     x2="90.543602"
     y2="4.776"
     id="line36" />
  <line
     stroke-linejoin="round"
     stroke-linecap="round"
     stroke-width="0.1"
     stroke="currentColor"
     x1="0.050000001"
     y1="3.776"
     x2="90.543602"
     y2="3.776"
     id="line38" />
  <line
     stroke-linejoin="round"
     stroke-linecap="round"
     stroke-width="0.1"
     stroke="currentColor"
     x1="0.050000001"
     y1="2.776"
     x2="90.543602"
     y2="2.776"
     id="line40" />
  <line
     stroke-linejoin="round"
     stroke-linecap="round"
     stroke-width="0.1"
     stroke="currentColor"
     x1="0.050000001"
     y1="1.776"
     x2="90.543602"
     y2="1.776"
     id="line42" />
  <rect
     x="48.082199"
     y="1.776"
     width="0.19"
     height="4"
     ry="0.0000"
     fill="currentColor"
     id="rect44" />
  <line
     stroke-linejoin="round"
     stroke-linecap="round"
     stroke-width="0.1"
     stroke="currentColor"
     x1="0.050000001"
     y1="16.8333"
     x2="90.543602"
     y2="16.8333"
     id="line46" />
  <line
     stroke-linejoin="round"
     stroke-linecap="round"
     stroke-width="0.1"
     stroke="currentColor"
     x1="0.050000001"
     y1="15.8333"
     x2="90.543602"
     y2="15.8333"
     id="line48" />
  <line
     stroke-linejoin="round"
     stroke-linecap="round"
     stroke-width="0.1"
     stroke="currentColor"
     x1="0.050000001"
     y1="14.8333"
     x2="90.543602"
     y2="14.8333"
     id="line50" />
  <line
     stroke-linejoin="round"
     stroke-linecap="round"
     stroke-width="0.1"
     stroke="currentColor"
     x1="0.050000001"
     y1="13.8333"
     x2="90.543602"
     y2="13.8333"
     id="line52" />
  <line
     stroke-linejoin="round"
     stroke-linecap="round"
     stroke-width="0.1"
     stroke="currentColor"
     x1="0.050000001"
     y1="12.8333"
     x2="90.543602"
     y2="12.8333"
     id="line54" />
  <rect
     x="68.702904"
     y="12.8333"
     width="0.19"
     height="4"
     ry="0.0000"
     fill="currentColor"
     id="rect56" />
  <rect
     x="48.082199"
     y="12.8333"
     width="0.19"
     height="4"
     ry="0.0000"
     fill="currentColor"
     id="rect58" />
  <rect
     x="27.2815"
     y="1.776"
     width="0.19"
     height="4"
     ry="0.0000"
     fill="currentColor"
     id="rect60" />
  <path
     d="m 60.6266,14.8333 c 0,-0.34 -0.044,-0.692 -0.24,-0.972 -0.008,-0.008 -0.012,-0.02 -0.012,-0.028 0,-0.028 0.024,-0.052 0.052,-0.052 0.016,0 0.028,0.008 0.04,0.024 0.212,0.304 0.36,0.656 0.36,1.028 0,0.372 -0.148,0.724 -0.36,1.028 -0.012,0.016 -0.024,0.024 -0.04,0.024 -0.028,0 -0.052,-0.024 -0.052,-0.052 0,-0.008 0.004,-0.02 0.012,-0.028 0.196,-0.28 0.24,-0.632 0.24,-0.972 z"
     fill="currentColor"
     id="path62"
     style="stroke-width:0.004" />
  <path
     d="m 58.9066,14.8333 c 0,0.34 0.044,0.692 0.24,0.972 0.008,0.008 0.012,0.02 0.012,0.028 0,0.028 -0.024,0.052 -0.052,0.052 -0.016,0 -0.028,-0.008 -0.04,-0.024 -0.212,-0.304 -0.36,-0.656 -0.36,-1.028 0,-0.372 0.148,-0.724 0.36,-1.028 0.012,-0.016 0.024,-0.024 0.04,-0.024 0.028,0 0.052,0.024 0.052,0.052 0,0.008 -0.004,0.02 -0.012,0.028 -0.196,0.28 -0.24,0.632 -0.24,0.972 z"
     fill="currentColor"
     id="path64"
     style="stroke-width:0.004" />
  <path
     d="m 59.5346,14.6693 -0.004,0.264 v 0.044 c 0,0.088 0.004,0.176 0.016,0.264 0.18,-0.152 0.372,-0.32 0.372,-0.556 0,-0.132 -0.056,-0.268 -0.172,-0.268 -0.124,0 -0.208,0.12 -0.212,0.252 z m -0.168,0.716 -0.048,-2.38 c 0.032,-0.02 0.072,-0.032 0.108,-0.032 0.036,0 0.076,0.012 0.108,0.032 l -0.028,1.38 c 0.1,-0.084 0.232,-0.136 0.364,-0.136 0.208,0 0.356,0.192 0.356,0.408 0,0.32 -0.344,0.468 -0.588,0.676 -0.06,0.052 -0.096,0.152 -0.18,0.152 -0.052,0 -0.092,-0.044 -0.092,-0.1 z"
     fill="currentColor"
     id="path66"
     style="stroke-width:0.004" />
  <path
     d="m 73.0619,2.828 c -0.2,0 -0.276,0.172 -0.276,0.352 0,0.308 0.228,0.544 0.536,0.544 0.2,0 0.276,-0.172 0.276,-0.352 0,-0.308 -0.228,-0.544 -0.536,-0.544 z m 1.12,0.448 c 0,0.172 -0.14,0.304 -0.292,0.388 -0.212,0.12 -0.452,0.164 -0.696,0.164 -0.244,0 -0.488,-0.044 -0.7,-0.164 -0.152,-0.084 -0.292,-0.216 -0.292,-0.388 0,-0.172 0.14,-0.304 0.292,-0.388 0.212,-0.12 0.456,-0.164 0.7,-0.164 0.244,0 0.484,0.044 0.696,0.164 0.152,0.084 0.292,0.216 0.292,0.388 z"
     fill="currentColor"
     id="path68"
     style="stroke-width:0.004" />
  <text
     font-family="'Roboto Light'"
     font-size="2.2001px"
     text-anchor="start"
     fill="currentColor"
     id="text72"
     x="71.786003"
     y="9.5232"><tspan
       id="tspan70">C</tspan></text>
  <path
     d="m 74.3744,9.9416 c -0.0336,0 -0.0616,-0.028 -0.0616,-0.0616 V 9.5048 L 74.0972,9.586 v 0.4256 c 0,0.0336 -0.028,0.0616 -0.0616,0.0616 -0.0336,0 -0.0616,-0.028 -0.0616,-0.0616 V 9.6364 L 73.9292,9.6532 C 73.9208,9.656 73.9068,9.6588 73.8984,9.6588 73.8564,9.6588 73.82,9.6252 73.82,9.5804 v -0.14 c 0,-0.0336 0.0196,-0.0644 0.0504,-0.0756 L 73.974,9.3256 V 8.9 L 73.9292,8.9196 C 73.9208,8.9224 73.9068,8.9252 73.8984,8.9252 73.8564,8.9252 73.82,8.8888 73.82,8.844 v -0.14 c 0,-0.0336 0.0196,-0.0616 0.0504,-0.0728 L 73.974,8.5892 V 8.1664 c 0,-0.0336 0.028,-0.0616 0.0616,-0.0616 0.0336,0 0.0616,0.028 0.0616,0.0616 V 8.5416 L 74.3128,8.4604 V 8.0348 c 0,-0.0336 0.028,-0.0616 0.0616,-0.0616 0.0336,0 0.0616,0.028 0.0616,0.0616 V 8.41 l 0.0448,-0.0168 c 0.0084,-0.0028 0.0224,-0.0056 0.0308,-0.0056 0.042,0 0.0784,0.0336 0.0784,0.0784 v 0.14 c 0,0.0336 -0.0196,0.0644 -0.0504,0.0756 L 74.436,8.7208 v 0.4256 l 0.0448,-0.0196 c 0.0084,-0.0028 0.0224,-0.0056 0.0308,-0.0056 0.042,0 0.0784,0.0364 0.0784,0.0812 v 0.14 c 0,0.0336 -0.0196,0.0616 -0.0504,0.0728 L 74.436,9.4572 V 9.88 c 0,0.0336 -0.028,0.0616 -0.0616,0.0616 z M 74.0972,8.8524 V 9.278 L 74.3128,9.194 V 8.7684 Z"
     fill="currentColor"
     id="path74"
     style="stroke-width:0.0028" />
  <path
     d="m 73.0619,13.8853 c -0.2,0 -0.276,0.172 -0.276,0.352 0,0.308 0.228,0.544 0.536,0.544 0.2,0 0.276,-0.172 0.276,-0.352 0,-0.308 -0.228,-0.544 -0.536,-0.544 z m 1.12,0.448 c 0,0.172 -0.14,0.304 -0.292,0.388 -0.212,0.12 -0.452,0.164 -0.696,0.164 -0.244,0 -0.488,-0.044 -0.7,-0.164 -0.152,-0.084 -0.292,-0.216 -0.292,-0.388 0,-0.172 0.14,-0.304 0.292,-0.388 0.212,-0.12 0.456,-0.164 0.7,-0.164 0.244,0 0.484,0.044 0.696,0.164 0.152,0.084 0.292,0.216 0.292,0.388 z"
     fill="currentColor"
     id="path76"
     style="stroke-width:0.004" />
  <text
     font-family="'Roboto Light'"
     font-size="2.2001px"
     text-anchor="start"
     fill="currentColor"
     id="text80"
     x="72.474899"
     y="20.541201"><tspan
       id="tspan78">C</tspan></text>
  <path
     d="m 71.6519,3.276 c 0,-0.34 -0.044,-0.692 -0.24,-0.972 -0.008,-0.008 -0.012,-0.02 -0.012,-0.028 0,-0.028 0.024,-0.052 0.052,-0.052 0.016,0 0.028,0.008 0.04,0.024 0.212,0.304 0.36,0.656 0.36,1.028 0,0.372 -0.148,0.724 -0.36,1.028 -0.012,0.016 -0.024,0.024 -0.04,0.024 -0.028,0 -0.052,-0.024 -0.052,-0.052 0,-0.008 0.004,-0.02 0.012,-0.028 0.196,-0.28 0.24,-0.632 0.24,-0.972 z"
     fill="currentColor"
     id="path82"
     style="stroke-width:0.004" />
  <path
     d="m 69.7519,3.276 c 0,0.34 0.044,0.692 0.24,0.972 0.008,0.008 0.012,0.02 0.012,0.028 0,0.028 -0.024,0.052 -0.052,0.052 -0.016,0 -0.028,-0.008 -0.04,-0.024 -0.212,-0.304 -0.36,-0.656 -0.36,-1.028 0,-0.372 0.148,-0.724 0.36,-1.028 0.012,-0.016 0.024,-0.024 0.04,-0.024 0.028,0 0.052,0.024 0.052,0.052 0,0.008 -0.004,0.02 -0.012,0.028 -0.196,0.28 -0.24,0.632 -0.24,0.972 z"
     fill="currentColor"
     id="path84"
     style="stroke-width:0.004" />
  <path
     d="m 71.0159,4.524 c 0,0.04 -0.032,0.076 -0.072,0.076 -0.04,0 -0.076,-0.036 -0.076,-0.076 v -0.58 l -0.332,0.124 V 4.7 c 0,0.04 -0.036,0.076 -0.076,0.076 -0.04,0 -0.072,-0.036 -0.072,-0.076 V 4.12 l -0.128,0.048 c -0.008,0.004 -0.02,0.004 -0.028,0.004 -0.044,0 -0.08,-0.036 -0.08,-0.08 v -0.24 c 0,-0.032 0.02,-0.064 0.052,-0.076 l 0.184,-0.064 v -0.64 l -0.128,0.044 c -0.008,0.004 -0.02,0.004 -0.028,0.004 -0.044,0 -0.08,-0.036 -0.08,-0.08 V 2.8 c 0,-0.032 0.02,-0.06 0.052,-0.072 L 70.3879,2.66 V 2.028 c 0,-0.04 0.032,-0.076 0.072,-0.076 0.04,0 0.076,0.036 0.076,0.076 v 0.58 l 0.332,-0.124 V 1.852 c 0,-0.04 0.036,-0.076 0.076,-0.076 0.04,0 0.072,0.036 0.072,0.076 v 0.58 l 0.128,-0.048 c 0.008,-0.004 0.02,-0.004 0.028,-0.004 0.044,0 0.08,0.036 0.08,0.08 V 2.7 c 0,0.032 -0.02,0.064 -0.052,0.076 l -0.184,0.064 v 0.64 l 0.128,-0.044 c 0.008,-0.004 0.02,-0.004 0.028,-0.004 0.044,0 0.08,0.036 0.08,0.08 v 0.24 c 0,0.032 -0.02,0.06 -0.052,0.072 l -0.184,0.068 z m -0.48,-1.508 v 0.64 l 0.332,-0.12 v -0.64 z"
     fill="currentColor"
     id="path86"
     style="stroke-width:0.004" />
  <path
     d="m 62.0366,3.328 c -0.2,0 -0.276,0.172 -0.276,0.352 0,0.308 0.228,0.544 0.536,0.544 0.2,0 0.276,-0.172 0.276,-0.352 0,-0.308 -0.228,-0.544 -0.536,-0.544 z m 1.12,0.448 c 0,0.172 -0.14,0.304 -0.292,0.388 -0.212,0.12 -0.452,0.164 -0.696,0.164 -0.244,0 -0.488,-0.044 -0.7,-0.164 -0.152,-0.084 -0.292,-0.216 -0.292,-0.388 0,-0.172 0.14,-0.304 0.292,-0.388 0.212,-0.12 0.456,-0.164 0.7,-0.164 0.244,0 0.484,0.044 0.696,0.164 0.152,0.084 0.292,0.216 0.292,0.388 z"
     fill="currentColor"
     id="path88"
     style="stroke-width:0.004" />
  <text
     font-family="'Roboto Light'"
     font-size="2.2001px"
     text-anchor="start"
     fill="currentColor"
     id="text92"
     x="61.4837"
     y="9.5232"><tspan
       id="tspan90">B</tspan></text>
  <text
     font-family="'Roboto Light'"
     font-size="2.2001px"
     text-anchor="start"
     fill="currentColor"
     id="text96"
     x="60.7696"
     y="20.541201"><tspan
       id="tspan94">B</tspan></text>
  <path
     d="m 62.9552,20.1008 -0.0072,0.2304 v 0.0396 c 0,0.0792 0.0072,0.1548 0.018,0.234 0.1584,-0.1368 0.3276,-0.288 0.3276,-0.4968 0,-0.1188 -0.0468,-0.2376 -0.1512,-0.2376 -0.1116,0 -0.1836,0.1116 -0.1872,0.2304 z m -0.162,0.6408 -0.0432,-2.1348 c 0.0324,-0.018 0.0648,-0.0288 0.1008,-0.0288 0.036,0 0.0684,0.0108 0.1008,0.0288 l -0.0252,1.2348 c 0.09,-0.0828 0.2088,-0.1296 0.3312,-0.1296 0.1836,0 0.3132,0.1764 0.3132,0.3708 0,0.2844 -0.3024,0.4212 -0.5184,0.6084 -0.0576,0.0504 -0.09,0.1476 -0.1692,0.1476 -0.0504,0 -0.09,-0.0468 -0.09,-0.0972 z"
     fill="currentColor"
     id="path98"
     style="stroke-width:0.0036" />
  <path
     d="m 62.0366,14.3853 c -0.2,0 -0.276,0.172 -0.276,0.352 0,0.308 0.228,0.544 0.536,0.544 0.2,0 0.276,-0.172 0.276,-0.352 0,-0.308 -0.228,-0.544 -0.536,-0.544 z m 1.12,0.448 c 0,0.172 -0.14,0.304 -0.292,0.388 -0.212,0.12 -0.452,0.164 -0.696,0.164 -0.244,0 -0.488,-0.044 -0.7,-0.164 -0.152,-0.084 -0.292,-0.216 -0.292,-0.388 0,-0.172 0.14,-0.304 0.292,-0.388 0.212,-0.12 0.456,-0.164 0.7,-0.164 0.244,0 0.484,0.044 0.696,0.164 0.152,0.084 0.292,0.216 0.292,0.388 z"
     fill="currentColor"
     id="path100"
     style="stroke-width:0.004" />
  <path
     stroke-width="0.08"
     stroke-linejoin="round"
     stroke-linecap="round"
     stroke="currentColor"
     fill="currentColor"
     d="m 31.636972,17.513146 c 0.05855,-0.0423 0.113123,-0.08558 0.163493,-0.12984 -0.05052,0.04093 -0.105243,0.08097 -0.163934,0.120127 z"
     id="path102" />
  <path
     stroke-width="0.08"
     stroke-linejoin="round"
     stroke-linecap="round"
     stroke="currentColor"
     fill="currentColor"
     d="m 31.12696,17.811732 c 0.07697,-0.0373 0.150552,-0.07562 0.220502,-0.114936 -0.07113,0.01321 -0.144837,0.04875 -0.221933,0.08337 z"
     id="path104" />
  <path
     stroke-width="0.08"
     stroke-linejoin="round"
     stroke-linecap="round"
     stroke="currentColor"
     fill="currentColor"
     d="m 30.489564,18.072371 c 0.09252,-0.03218 0.182215,-0.06539 0.268861,-0.09964 -0.08871,-0.01117 -0.178508,0.01973 -0.271126,0.04969 z"
     id="path106" />
  <path
     stroke-width="0.08"
     stroke-linejoin="round"
     stroke-linecap="round"
     stroke="currentColor"
     fill="currentColor"
     d="m 29.746405,18.294084 c 0.105178,-0.02692 0.208112,-0.05491 0.308572,-0.08395 -0.103238,-0.03222 -0.206256,-0.0061 -0.311513,0.01909 z"
     id="path108" />
  <path
     stroke-width="0.08"
     stroke-linejoin="round"
     stroke-linecap="round"
     stroke="currentColor"
     fill="currentColor"
     d="m 28.919104,18.475889 c 0.114956,-0.02154 0.228244,-0.04416 0.339634,-0.06787 -0.114729,-0.04992 -0.22808,-0.02868 -0.343094,-0.0084 z"
     id="path110" />
  <path
     stroke-width="0.08"
     stroke-linejoin="round"
     stroke-linecap="round"
     stroke="currentColor"
     fill="currentColor"
     d="m 28.029284,18.616806 c 0.12185,-0.01602 0.242609,-0.03316 0.362047,-0.0514 -0.123181,-0.06429 -0.243982,-0.04808 -0.365869,-0.03289 z"
     id="path112" />
  <path
     stroke-width="0.08"
     stroke-linejoin="round"
     stroke-linecap="round"
     stroke="currentColor"
     fill="currentColor"
     d="m 27.098566,18.715854 c 0.125861,-0.01037 0.251209,-0.02189 0.375811,-0.03453 -0.128592,-0.07532 -0.25396,-0.06427 -0.379838,-0.05427 z"
     id="path114" />
  <path
     stroke-width="0.08"
     stroke-linejoin="round"
     stroke-linecap="round"
     stroke="currentColor"
     fill="currentColor"
     d="m 26.148572,18.772054 c 0.12699,-0.0046 0.254042,-0.01036 0.380927,-0.01728 -0.130963,-0.08301 -0.258016,-0.07725 -0.385002,-0.07256 z"
     id="path116" />
  <path
     stroke-width="0.08"
     stroke-linejoin="round"
     stroke-linecap="round"
     stroke="currentColor"
     fill="currentColor"
     d="m 25.200923,18.784423 c 0.125236,0.0013 0.251111,0.0014 0.377394,3.75e-4 -0.130294,-0.08736 -0.256148,-0.08702 -0.381358,-0.08779 z"
     id="path118" />
  <path
     stroke-width="0.08"
     stroke-linejoin="round"
     stroke-linecap="round"
     stroke="currentColor"
     fill="currentColor"
     d="m 24.277241,18.751982 c 0.120599,0.0074 0.242414,0.01349 0.365213,0.01842 -0.126584,-0.08838 -0.248357,-0.09359 -0.368909,-0.09993 z"
     id="path120" />
  <path
     stroke-width="0.08"
     stroke-linejoin="round"
     stroke-linecap="round"
     stroke="currentColor"
     fill="currentColor"
     d="m 23.399149,18.673751 c 0.113079,0.01353 0.22795,0.02581 0.344382,0.03685 -0.119834,-0.08606 -0.234642,-0.09695 -0.347654,-0.108998 z"
     id="path122" />
  <path
     stroke-width="0.08"
     stroke-linejoin="round"
     stroke-linecap="round"
     stroke="currentColor"
     fill="currentColor"
     d="m 22.588267,18.548748 c 0.102676,0.01983 0.207721,0.03838 0.314904,0.05568 -0.110045,-0.0804 -0.215006,-0.0971 -0.317594,-0.11499 z"
     id="path124" />
  <path
     stroke-width="0.08"
     stroke-linejoin="round"
     stroke-linecap="round"
     stroke="currentColor"
     fill="currentColor"
     d="m 21.866218,18.375993 c 0.08939,0.02626 0.181726,0.05122 0.276776,0.07489 -0.09722,-0.0714 -0.189446,-0.09405 -0.278727,-0.117906 z"
     id="path126" />
  <path
     stroke-width="0.08"
     stroke-linejoin="round"
     stroke-linecap="round"
     stroke="currentColor"
     fill="currentColor"
     d="m 21.254623,18.154506 c 0.07322,0.03282 0.149965,0.06432 0.23,0.0945 -0.08134,-0.05907 -0.157962,-0.08779 -0.231054,-0.117745 z"
     id="path128" />
  <path
     stroke-width="0.08"
     stroke-linejoin="round"
     stroke-linecap="round"
     stroke="currentColor"
     fill="currentColor"
     d="m 20.775104,17.883306 c 0.05417,0.03952 0.112439,0.07768 0.174575,0.114508 -0.06243,-0.04339 -0.120556,-0.07832 -0.174575,-0.114508 z"
     id="path130" />
  <path
     stroke-width="0.08"
     stroke-linejoin="round"
     stroke-linecap="round"
     stroke="currentColor"
     fill="currentColor"
     d="m 41.404341,6.1078678 c 0.05892,-0.042801 0.114041,-0.086758 0.165114,-0.1318618 -0.0512,0.041524 -0.106443,0.082008 -0.165487,0.121443 z"
     id="path132" />
  <path
     stroke-width="0.08"
     stroke-linejoin="round"
     stroke-linecap="round"
     stroke="currentColor"
     fill="currentColor"
     d="m 40.894791,6.4070773 c 0.07646,-0.03697 0.149711,-0.075117 0.219514,-0.1144326 -0.0708,0.011425 -0.144158,0.046633 -0.220719,0.080772 z"
     id="path134" />
  <path
     stroke-width="0.08"
     stroke-linejoin="round"
     stroke-linecap="round"
     stroke="currentColor"
     fill="currentColor"
     d="m 40.264906,6.6621531 c 0.09101,-0.031032 0.179413,-0.063263 0.264962,-0.096683 -0.08727,-0.014773 -0.175761,0.015053 -0.266856,0.043788 z"
     id="path136" />
  <path
     stroke-width="0.08"
     stroke-linejoin="round"
     stroke-linecap="round"
     stroke="currentColor"
     fill="currentColor"
     d="m 39.537062,6.8722938 c 0.102582,-0.024987 0.203148,-0.051195 0.301461,-0.078613 -0.100622,-0.037072 -0.201255,-0.012735 -0.3039,0.01049 z"
     id="path138" />
  <path
     stroke-width="0.08"
     stroke-linejoin="round"
     stroke-linecap="round"
     stroke="currentColor"
     fill="currentColor"
     d="m 38.73364,7.0366984 c 0.111167,-0.018836 0.220915,-0.038913 0.329006,-0.060222 -0.11084,-0.055469 -0.220636,-0.036728 -0.331847,-0.019121 z"
     id="path140" />
  <path
     stroke-width="0.08"
     stroke-linejoin="round"
     stroke-linecap="round"
     stroke="currentColor"
     fill="currentColor"
     d="m 37.877015,7.1545655 c 0.116769,-0.012578 0.232716,-0.026417 0.347602,-0.041511 -0.117932,-0.069967 -0.233908,-0.056928 -0.350701,-0.045045 z"
     id="path142" />
  <path
     stroke-width="0.08"
     stroke-linejoin="round"
     stroke-linecap="round"
     stroke="currentColor"
     fill="currentColor"
     d="m 36.989567,7.2250939 c 0.119386,-0.00621 0.238548,-0.013708 0.357246,-0.02248 -0.121897,-0.080563 -0.241068,-0.073335 -0.36046,-0.067283 z"
     id="path144" />
  <path
     stroke-width="0.08"
     stroke-linejoin="round"
     stroke-linecap="round"
     stroke="currentColor"
     fill="currentColor"
     d="m 36.093673,7.2474823 c 0.119021,2.599e-4 0.238413,-7.854e-4 0.357939,-0.00313 -0.122734,-0.08726 -0.242117,-0.085947 -0.361125,-0.085833 z"
     id="path146" />
  <path
     stroke-width="0.08"
     stroke-linejoin="round"
     stroke-linecap="round"
     stroke="currentColor"
     fill="currentColor"
     d="m 35.211711,7.2209297 c 0.115672,0.00684 0.232311,0.012351 0.349681,0.016545 -0.120444,-0.090056 -0.237055,-0.094766 -0.352694,-0.1006969 z"
     id="path148" />
  <path
     stroke-width="0.08"
     stroke-linejoin="round"
     stroke-linecap="round"
     stroke="currentColor"
     fill="currentColor"
     d="m 34.36606,7.1446346 c 0.109338,0.013524 0.220241,0.025701 0.332471,0.036538 -0.115026,-0.088952 -0.225882,-0.099793 -0.335168,-0.1118744 z"
     id="path150" />
  <path
     stroke-width="0.08"
     stroke-linejoin="round"
     stroke-linecap="round"
     stroke="currentColor"
     fill="currentColor"
     d="m 33.579097,7.017796 c 0.100021,0.020317 0.202204,0.039265 0.306311,0.056852 C 33.778926,6.990701 33.676809,6.9736232 33.576859,6.9552831 Z"
     id="path152" />
  <path
     stroke-width="0.08"
     stroke-linejoin="round"
     stroke-linecap="round"
     stroke="currentColor"
     fill="currentColor"
     d="m 32.873201,6.8396125 c 0.08772,0.027216 0.178199,0.053042 0.271198,0.077486 -0.09481,-0.075042 -0.185203,-0.098463 -0.272834,-0.1231685 z"
     id="path154" />
  <path
     stroke-width="0.08"
     stroke-linejoin="round"
     stroke-linecap="round"
     stroke="currentColor"
     fill="currentColor"
     d="m 32.270749,6.6092829 c 0.07244,0.034223 0.148228,0.067033 0.227135,0.098441 -0.08001,-0.062237 -0.155697,-0.092109 -0.228024,-0.1232859 z"
     id="path156" />
  <path
     stroke-width="0.08"
     stroke-linejoin="round"
     stroke-linecap="round"
     stroke="currentColor"
     fill="currentColor"
     d="m 31.79412,6.326006 c 0.05417,0.041336 0.112288,0.081238 0.174121,0.1197157 -0.06209,-0.04553 -0.120082,-0.08196 -0.174121,-0.1197157 z"
     id="path158" />
  <path
     stroke-width="0.08"
     stroke-linejoin="round"
     stroke-linecap="round"
     stroke="currentColor"
     fill="currentColor"
     d="m 62.024379,16.160275 c 0.05843,-0.04129 0.113,-0.08362 0.163482,-0.126969 -0.05059,0.04002 -0.105263,0.07911 -0.163796,0.117252 z"
     id="path160" />
  <path
     stroke-width="0.08"
     stroke-linejoin="round"
     stroke-linecap="round"
     stroke="currentColor"
     fill="currentColor"
     d="m 61.517254,16.450451 c 0.07633,-0.03607 0.149368,-0.0732 0.218878,-0.111372 -0.07035,0.01205 -0.143477,0.0464 -0.219898,0.07979 z"
     id="path162" />
  <path
     stroke-width="0.08"
     stroke-linejoin="round"
     stroke-linecap="round"
     stroke="currentColor"
     fill="currentColor"
     d="m 60.886402,16.701158 c 0.09143,-0.03077 0.180112,-0.0626 0.265838,-0.0955 -0.08719,-0.01254 -0.175954,0.01698 -0.26745,0.04553 z"
     id="path164" />
  <path
     stroke-width="0.08"
     stroke-linejoin="round"
     stroke-linecap="round"
     stroke="currentColor"
     fill="currentColor"
     d="m 60.152915,16.911716 c 0.103703,-0.02537 0.205232,-0.05182 0.304361,-0.07936 -0.101107,-0.03375 -0.202695,-0.0091 -0.306455,0.01447 z"
     id="path166" />
  <path
     stroke-width="0.08"
     stroke-linejoin="round"
     stroke-linecap="round"
     stroke="currentColor"
     fill="currentColor"
     d="m 59.337883,17.081443 c 0.11317,-0.01988 0.224727,-0.04086 0.334448,-0.06295 -0.112098,-0.05158 -0.2237,-0.03198 -0.336912,-0.0134 z"
     id="path168" />
  <path
     stroke-width="0.08"
     stroke-linejoin="round"
     stroke-linecap="round"
     stroke="currentColor"
     fill="currentColor"
     d="m 58.462396,17.209659 c 0.119824,-0.0143 0.238599,-0.02972 0.356099,-0.04626 -0.120165,-0.06603 -0.238969,-0.05153 -0.358821,-0.03807 z"
     id="path170" />
  <path
     stroke-width="0.08"
     stroke-linejoin="round"
     stroke-linecap="round"
     stroke="currentColor"
     fill="currentColor"
     d="m 57.547544,17.295683 c 0.123668,-0.0086 0.246847,-0.0184 0.369315,-0.0293 -0.125308,-0.0771 -0.248503,-0.0678 -0.372182,-0.05954 z"
     id="path172" />
  <path
     stroke-width="0.08"
     stroke-linejoin="round"
     stroke-linecap="round"
     stroke="currentColor"
     fill="currentColor"
     d="m 56.61442,17.338835 c 0.124697,-0.0029 0.24947,-0.0069 0.374093,-0.01207 -0.127527,-0.08479 -0.252299,-0.08077 -0.376994,-0.07781 z"
     id="path174" />
  <path
     stroke-width="0.08"
     stroke-linejoin="round"
     stroke-linecap="round"
     stroke="currentColor"
     fill="currentColor"
     d="m 55.684112,17.338435 c 0.122916,0.003 0.246469,0.0048 0.370435,0.0054 -0.126821,-0.08911 -0.250359,-0.09045 -0.373257,-0.09289 z"
     id="path176" />
  <path
     stroke-width="0.08"
     stroke-linejoin="round"
     stroke-linecap="round"
     stroke="currentColor"
     fill="currentColor"
     d="m 54.777712,17.293801 c 0.118322,0.0089 0.237844,0.01666 0.358341,0.02321 -0.123192,-0.09004 -0.242684,-0.09685 -0.360973,-0.10476 z"
     id="path178" />
  <path
     stroke-width="0.08"
     stroke-linejoin="round"
     stroke-linecap="round"
     stroke="currentColor"
     fill="currentColor"
     d="m 53.916309,17.204252 c 0.110917,0.01496 0.223596,0.02871 0.337812,0.04125 -0.116638,-0.08759 -0.229272,-0.09995 -0.340141,-0.113437 z"
     id="path180" />
  <path
     stroke-width="0.08"
     stroke-linejoin="round"
     stroke-linecap="round"
     stroke="currentColor"
     fill="currentColor"
     d="m 53.120996,17.06911 c 0.100698,0.02109 0.203722,0.04094 0.308845,0.05957 -0.107161,-0.08177 -0.210124,-0.09977 -0.31076,-0.118917 z"
     id="path182" />
  <path
     stroke-width="0.08"
     stroke-linejoin="round"
     stroke-linecap="round"
     stroke="currentColor"
     fill="currentColor"
     d="m 52.412861,16.887691 c 0.08767,0.0273 0.178225,0.05336 0.271443,0.07816 -0.09476,-0.07256 -0.18524,-0.0963 -0.272831,-0.121197 z"
     id="path184" />
  <path
     stroke-width="0.08"
     stroke-linejoin="round"
     stroke-linecap="round"
     stroke="currentColor"
     fill="currentColor"
     d="m 51.812997,16.659317 c 0.07183,0.03361 0.147103,0.06595 0.225604,0.09703 -0.07943,-0.05997 -0.154621,-0.08954 -0.226355,-0.12028 z"
     id="path186" />
  <path
     stroke-width="0.08"
     stroke-linejoin="round"
     stroke-linecap="round"
     stroke="currentColor"
     fill="currentColor"
     d="m 51.342492,16.383306 c 0.05317,0.04001 0.110357,0.07873 0.171329,0.116164 -0.06118,-0.04401 -0.118264,-0.07949 -0.171329,-0.116164 z"
     id="path188" />
  <path
     stroke-width="0.08"
     stroke-linejoin="round"
     stroke-linecap="round"
     stroke="currentColor"
     fill="currentColor"
     d="m 82.825741,4.1078678 c 0.05892,-0.042801 0.114041,-0.086758 0.165114,-0.1318618 -0.0512,0.041524 -0.106443,0.082008 -0.165487,0.121443 z"
     id="path190" />
  <path
     stroke-width="0.08"
     stroke-linejoin="round"
     stroke-linecap="round"
     stroke="currentColor"
     fill="currentColor"
     d="m 82.316191,4.4070773 c 0.07646,-0.03697 0.149711,-0.075117 0.219514,-0.1144326 -0.0708,0.011425 -0.144158,0.046633 -0.220719,0.080772 z"
     id="path192" />
  <path
     stroke-width="0.08"
     stroke-linejoin="round"
     stroke-linecap="round"
     stroke="currentColor"
     fill="currentColor"
     d="m 81.686306,4.6621531 c 0.09101,-0.031032 0.179413,-0.063263 0.264962,-0.096683 -0.08728,-0.014773 -0.175761,0.015053 -0.266856,0.043788 z"
     id="path194" />
  <path
     stroke-width="0.08"
     stroke-linejoin="round"
     stroke-linecap="round"
     stroke="currentColor"
     fill="currentColor"
     d="m 80.958462,4.8722938 c 0.102582,-0.024987 0.203148,-0.051195 0.301461,-0.078613 -0.100622,-0.037072 -0.201255,-0.012735 -0.3039,0.01049 z"
     id="path196" />
  <path
     stroke-width="0.08"
     stroke-linejoin="round"
     stroke-linecap="round"
     stroke="currentColor"
     fill="currentColor"
     d="m 80.15504,5.0366984 c 0.111167,-0.018836 0.220915,-0.038913 0.329006,-0.060222 -0.11084,-0.055469 -0.220636,-0.036728 -0.331847,-0.019121 z"
     id="path198" />
  <path
     stroke-width="0.08"
     stroke-linejoin="round"
     stroke-linecap="round"
     stroke="currentColor"
     fill="currentColor"
     d="m 79.298415,5.1545655 c 0.116769,-0.012578 0.232716,-0.026417 0.347602,-0.041511 -0.117932,-0.069967 -0.233908,-0.056928 -0.350701,-0.045045 z"
     id="path200" />
  <path
     stroke-width="0.08"
     stroke-linejoin="round"
     stroke-linecap="round"
     stroke="currentColor"
     fill="currentColor"
     d="m 78.410967,5.2250939 c 0.119386,-0.00621 0.238548,-0.013708 0.357246,-0.02248 -0.121897,-0.080563 -0.241068,-0.073335 -0.36046,-0.067283 z"
     id="path202" />
  <path
     stroke-width="0.08"
     stroke-linejoin="round"
     stroke-linecap="round"
     stroke="currentColor"
     fill="currentColor"
     d="m 77.515073,5.2474823 c 0.119021,2.599e-4 0.238413,-7.854e-4 0.357939,-0.00313 -0.122734,-0.08726 -0.242117,-0.085947 -0.361125,-0.085833 z"
     id="path204" />
  <path
     stroke-width="0.08"
     stroke-linejoin="round"
     stroke-linecap="round"
     stroke="currentColor"
     fill="currentColor"
     d="m 76.633111,5.2209297 c 0.115672,0.00684 0.232311,0.012351 0.349681,0.016545 -0.120444,-0.090056 -0.237055,-0.094766 -0.352694,-0.1006969 z"
     id="path206" />
  <path
     stroke-width="0.08"
     stroke-linejoin="round"
     stroke-linecap="round"
     stroke="currentColor"
     fill="currentColor"
     d="m 75.78746,5.1446346 c 0.109338,0.013524 0.220241,0.025701 0.332471,0.036538 -0.115026,-0.088952 -0.225882,-0.099793 -0.335168,-0.1118744 z"
     id="path208" />
  <path
     stroke-width="0.08"
     stroke-linejoin="round"
     stroke-linecap="round"
     stroke="currentColor"
     fill="currentColor"
     d="m 75.000497,5.017796 c 0.100021,0.020317 0.202204,0.039265 0.306311,0.056852 C 75.200326,4.990701 75.098209,4.9736232 74.998259,4.9552831 Z"
     id="path210" />
  <path
     stroke-width="0.08"
     stroke-linejoin="round"
     stroke-linecap="round"
     stroke="currentColor"
     fill="currentColor"
     d="m 74.294601,4.8396125 c 0.08772,0.027216 0.178199,0.053042 0.271198,0.077486 -0.09481,-0.075042 -0.185203,-0.098463 -0.272834,-0.1231685 z"
     id="path212" />
  <path
     stroke-width="0.08"
     stroke-linejoin="round"
     stroke-linecap="round"
     stroke="currentColor"
     fill="currentColor"
     d="m 73.692149,4.6092829 c 0.07244,0.034223 0.148228,0.067033 0.227135,0.098441 -0.08001,-0.062236 -0.155697,-0.092108 -0.228024,-0.1232855 z"
     id="path214" />
  <path
     stroke-width="0.08"
     stroke-linejoin="round"
     stroke-linecap="round"
     stroke="currentColor"
     fill="currentColor"
     d="m 73.21552,4.326006 c 0.05417,0.041336 0.112288,0.081238 0.174121,0.1197157 -0.06209,-0.04553 -0.120082,-0.08196 -0.174121,-0.1197157 z"
     id="path216" />
  <text
     font-family="'Roboto Light'"
     font-size="2.2001px"
     text-anchor="start"
     fill="currentColor"
     id="text220"
     x="82.250298"
     y="20.541201"><tspan
       id="tspan218">D</tspan></text>
  <path
     d="m 82.8373,13.3853 c -0.2,0 -0.276,0.172 -0.276,0.352 0,0.308 0.228,0.544 0.536,0.544 0.2,0 0.276,-0.172 0.276,-0.352 0,-0.308 -0.228,-0.544 -0.536,-0.544 z m 1.12,0.448 c 0,0.172 -0.14,0.304 -0.292,0.388 -0.212,0.12 -0.452,0.164 -0.696,0.164 -0.244,0 -0.488,-0.044 -0.7,-0.164 -0.152,-0.084 -0.292,-0.216 -0.292,-0.388 0,-0.172 0.14,-0.304 0.292,-0.388 0.212,-0.12 0.456,-0.164 0.7,-0.164 0.244,0 0.484,0.044 0.696,0.164 0.152,0.084 0.292,0.216 0.292,0.388 z"
     fill="currentColor"
     id="path222"
     style="stroke-width:0.004" />
  <text
     font-family="'Roboto Light'"
     font-size="2.2001px"
     text-anchor="start"
     fill="currentColor"
     id="text226"
     x="82.250298"
     y="9.5232"><tspan
       id="tspan224">D</tspan></text>
  <path
     d="m 82.8373,2.328 c -0.2,0 -0.276,0.172 -0.276,0.352 0,0.308 0.228,0.544 0.536,0.544 0.2,0 0.276,-0.172 0.276,-0.352 0,-0.308 -0.228,-0.544 -0.536,-0.544 z m 1.12,0.448 c 0,0.172 -0.14,0.304 -0.292,0.388 -0.212,0.12 -0.452,0.164 -0.696,0.164 -0.244,0 -0.488,-0.044 -0.7,-0.164 -0.152,-0.084 -0.292,-0.216 -0.292,-0.388 0,-0.172 0.14,-0.304 0.292,-0.388 0.212,-0.12 0.456,-0.164 0.7,-0.164 0.244,0 0.484,0.044 0.696,0.164 0.152,0.084 0.292,0.216 0.292,0.388 z"
     fill="currentColor"
     id="path228"
     style="stroke-width:0.004" />
  <path
     d="m 20.6152,5.328 c -0.2,0 -0.276,0.172 -0.276,0.352 0,0.308 0.228,0.544 0.536,0.544 0.2,0 0.276,-0.172 0.276,-0.352 0,-0.308 -0.228,-0.544 -0.536,-0.544 z m 1.12,0.448 c 0,0.172 -0.14,0.304 -0.292,0.388 -0.212,0.12 -0.452,0.164 -0.696,0.164 -0.244,0 -0.488,-0.044 -0.7,-0.164 -0.152,-0.084 -0.292,-0.216 -0.292,-0.388 0,-0.172 0.14,-0.304 0.292,-0.388 0.212,-0.12 0.456,-0.164 0.7,-0.164 0.244,0 0.484,0.044 0.696,0.164 0.152,0.084 0.292,0.216 0.292,0.388 z"
     fill="currentColor"
     id="path230"
     style="stroke-width:0.004" />
  <text
     font-family="'Roboto Light'"
     font-size="2.2001px"
     text-anchor="start"
     fill="currentColor"
     id="text234"
     x="20.113501"
     y="9.5232"><tspan
       id="tspan232">E</tspan></text>
  <path
     d="m 20.6152,16.3853 c -0.2,0 -0.276,0.172 -0.276,0.352 0,0.308 0.228,0.544 0.536,0.544 0.2,0 0.276,-0.172 0.276,-0.352 0,-0.308 -0.228,-0.544 -0.536,-0.544 z m 1.12,0.448 c 0,0.172 -0.14,0.304 -0.292,0.388 -0.212,0.12 -0.452,0.164 -0.696,0.164 -0.244,0 -0.488,-0.044 -0.7,-0.164 -0.152,-0.084 -0.292,-0.216 -0.292,-0.388 0,-0.172 0.14,-0.304 0.292,-0.388 0.212,-0.12 0.456,-0.164 0.7,-0.164 0.244,0 0.484,0.044 0.696,0.164 0.152,0.084 0.292,0.216 0.292,0.388 z"
     fill="currentColor"
     id="path236"
     style="stroke-width:0.004" />
  <text
     font-family="'Roboto Light'"
     font-size="2.2001px"
     text-anchor="start"
     fill="currentColor"
     id="text240"
     x="20.113501"
     y="20.541201"><tspan
       id="tspan238">E</tspan></text>
  <path
     d="m 31.6405,4.828 c -0.2,0 -0.276,0.172 -0.276,0.352 0,0.308 0.228,0.544 0.536,0.544 0.2,0 0.276,-0.172 0.276,-0.352 0,-0.308 -0.228,-0.544 -0.536,-0.544 z m 1.12,0.448 c 0,0.172 -0.14,0.304 -0.292,0.388 -0.212,0.12 -0.452,0.164 -0.696,0.164 -0.244,0 -0.488,-0.044 -0.7,-0.164 -0.152,-0.084 -0.292,-0.216 -0.292,-0.388 0,-0.172 0.14,-0.304 0.292,-0.388 0.212,-0.12 0.456,-0.164 0.7,-0.164 0.244,0 0.484,0.044 0.696,0.164 0.152,0.084 0.292,0.216 0.292,0.388 z"
     fill="currentColor"
     id="path242"
     style="stroke-width:0.004" />
  <text
     font-family="'Roboto Light'"
     font-size="2.2001px"
     text-anchor="start"
     fill="currentColor"
     id="text246"
     x="30.450001"
     y="9.5232"><tspan
       id="tspan244">F</tspan></text>
  <path
     d="m 32.8677,9.9416 c -0.0336,0 -0.0616,-0.028 -0.0616,-0.0616 V 9.5048 L 32.5905,9.586 v 0.4256 c 0,0.0336 -0.028,0.0616 -0.0616,0.0616 -0.0336,0 -0.0616,-0.028 -0.0616,-0.0616 V 9.6364 l -0.0448,0.0168 c -0.0084,0.0028 -0.0224,0.0056 -0.0308,0.0056 -0.042,0 -0.0784,-0.0336 -0.0784,-0.0784 v -0.14 c 0,-0.0336 0.0196,-0.0644 0.0504,-0.0756 L 32.4673,9.3256 V 8.9 l -0.0448,0.0196 c -0.0084,0.0028 -0.0224,0.0056 -0.0308,0.0056 -0.042,0 -0.0784,-0.0364 -0.0784,-0.0812 v -0.14 c 0,-0.0336 0.0196,-0.0616 0.0504,-0.0728 l 0.1036,-0.042 V 8.1664 c 0,-0.0336 0.028,-0.0616 0.0616,-0.0616 0.0336,0 0.0616,0.028 0.0616,0.0616 V 8.5416 L 32.8061,8.4604 V 8.0348 c 0,-0.0336 0.028,-0.0616 0.0616,-0.0616 0.0336,0 0.0616,0.028 0.0616,0.0616 V 8.41 l 0.0448,-0.0168 c 0.0084,-0.0028 0.0224,-0.0056 0.0308,-0.0056 0.042,0 0.0784,0.0336 0.0784,0.0784 v 0.14 c 0,0.0336 -0.0196,0.0644 -0.0504,0.0756 l -0.1036,0.0392 v 0.4256 l 0.0448,-0.0196 c 0.0084,-0.0028 0.0224,-0.0056 0.0308,-0.0056 0.042,0 0.0784,0.0364 0.0784,0.0812 v 0.14 c 0,0.0336 -0.0196,0.0616 -0.0504,0.0728 l -0.1036,0.042 V 9.88 c 0,0.0336 -0.028,0.0616 -0.0616,0.0616 z M 32.5905,8.8524 V 9.278 L 32.8061,9.194 V 8.7684 Z"
     fill="currentColor"
     id="path248"
     style="stroke-width:0.0028" />
  <path
     d="m 31.6405,15.8853 c -0.2,0 -0.276,0.172 -0.276,0.352 0,0.308 0.228,0.544 0.536,0.544 0.2,0 0.276,-0.172 0.276,-0.352 0,-0.308 -0.228,-0.544 -0.536,-0.544 z m 1.12,0.448 c 0,0.172 -0.14,0.304 -0.292,0.388 -0.212,0.12 -0.452,0.164 -0.696,0.164 -0.244,0 -0.488,-0.044 -0.7,-0.164 -0.152,-0.084 -0.292,-0.216 -0.292,-0.388 0,-0.172 0.14,-0.304 0.292,-0.388 0.212,-0.12 0.456,-0.164 0.7,-0.164 0.244,0 0.484,0.044 0.696,0.164 0.152,0.084 0.292,0.216 0.292,0.388 z"
     fill="currentColor"
     id="path250"
     style="stroke-width:0.004" />
  <text
     font-family="'Roboto Light'"
     font-size="2.2001px"
     text-anchor="start"
     fill="currentColor"
     id="text254"
     x="31.138901"
     y="20.541201"><tspan
       id="tspan252">F</tspan></text>
  <path
     d="m 10.8398,5.828 c -0.2,0 -0.276,0.172 -0.276,0.352 0,0.308 0.228,0.544 0.536,0.544 0.2,0 0.276,-0.172 0.276,-0.352 0,-0.308 -0.228,-0.544 -0.536,-0.544 z m 1.12,0.448 c 0,0.172 -0.14,0.304 -0.292,0.388 -0.212,0.12 -0.452,0.164 -0.696,0.164 -0.244,0 -0.488,-0.044 -0.7,-0.164 -0.152,-0.084 -0.292,-0.216 -0.292,-0.388 0,-0.172 0.14,-0.304 0.292,-0.388 0.212,-0.12 0.456,-0.164 0.7,-0.164 0.244,0 0.484,0.044 0.696,0.164 0.152,0.084 0.292,0.216 0.292,0.388 z"
     fill="currentColor"
     id="path256"
     style="stroke-width:0.004" />
  <path
     d="m 2.304,3.728 c 0.016,0 0.036,-0.004 0.052,-0.004 0.62,0 1.024,0.512 1.024,1.044 0,0.304 -0.132,0.616 -0.428,0.84 C 2.864,5.676 2.764,5.72 2.66,5.752 c 0.012,0.14 0.02,0.28 0.02,0.42 0,0.076 -0.004,0.156 -0.008,0.232 -0.028,0.48 -0.36,0.912 -0.832,0.912 -0.432,0 -0.78,-0.352 -0.78,-0.788 0,-0.232 0.212,-0.412 0.448,-0.412 0.216,0 0.38,0.188 0.38,0.412 0,0.208 -0.172,0.38 -0.38,0.38 C 1.464,6.908 1.424,6.9 1.384,6.884 1.488,7.04 1.656,7.144 1.852,7.144 2.236,7.144 2.48,6.776 2.504,6.38 2.508,6.308 2.512,6.232 2.512,6.16 2.512,6.036 2.508,5.916 2.496,5.792 2.38,5.812 2.264,5.824 2.14,5.824 1.388,5.824 0.808,5.136 0.808,4.328 0.808,3.62 1.332,3.104 1.8,2.564 1.724,2.316 1.652,2.064 1.62,1.804 1.596,1.596 1.592,1.388 1.592,1.18 1.592,0.72 1.812,0.284 2.188,0.012 2.2,0.004 2.216,0 2.228,0 2.244,0 2.256,0 2.268,0.012 2.552,0.348 2.8,0.992 2.8,1.444 2.8,2.016 2.456,2.464 2.08,2.9 2.164,3.172 2.236,3.452 2.304,3.728 Z m 0.34,1.86 C 2.916,5.492 3.096,5.208 3.096,4.932 3.096,4.572 2.832,4.216 2.404,4.172 2.5,4.636 2.588,5.096 2.644,5.588 Z M 1.096,4.664 c 0,0.54 0.516,0.988 1.056,0.988 0.112,0 0.22,-0.008 0.328,-0.024 C 2.424,5.12 2.332,4.648 2.228,4.172 1.912,4.204 1.732,4.416 1.732,4.648 c 0,0.176 0.1,0.364 0.324,0.492 0.02,0.02 0.028,0.04 0.028,0.06 0,0.044 -0.04,0.088 -0.088,0.088 C 1.984,5.288 1.972,5.284 1.96,5.28 1.64,5.108 1.492,4.82 1.492,4.54 1.492,4.188 1.724,3.844 2.132,3.752 2.076,3.52 2.016,3.284 1.948,3.052 1.52,3.536 1.096,4.024 1.096,4.664 Z M 2.432,0.596 C 2.036,0.788 1.784,1.192 1.784,1.632 c 0,0.296 0.072,0.532 0.144,0.776 0.32,-0.388 0.584,-0.792 0.584,-1.296 0,-0.22 -0.016,-0.316 -0.08,-0.516 z"
     fill="currentColor"
     id="path258"
     style="stroke-width:0.004" />
  <path
     d="M 5.164,3.024 C 5.164,3.064 5.132,3.1 5.092,3.1 5.052,3.1 5.016,3.064 5.016,3.024 V 2.444 L 4.684,2.568 V 3.2 C 4.684,3.24 4.648,3.276 4.608,3.276 4.568,3.276 4.536,3.24 4.536,3.2 V 2.62 L 4.408,2.668 C 4.4,2.672 4.388,2.672 4.38,2.672 4.336,2.672 4.3,2.636 4.3,2.592 V 2.352 C 4.3,2.32 4.32,2.288 4.352,2.276 L 4.536,2.212 V 1.572 L 4.408,1.616 C 4.4,1.62 4.388,1.62 4.38,1.62 4.336,1.62 4.3,1.584 4.3,1.54 V 1.3 C 4.3,1.268 4.32,1.24 4.352,1.228 L 4.536,1.16 V 0.528 c 0,-0.04 0.032,-0.076 0.072,-0.076 0.04,0 0.076,0.036 0.076,0.076 v 0.58 L 5.016,0.984 V 0.352 c 0,-0.04 0.036,-0.076 0.076,-0.076 0.04,0 0.072,0.036 0.072,0.076 v 0.58 L 5.292,0.884 C 5.3,0.88 5.312,0.88 5.32,0.88 5.364,0.88 5.4,0.916 5.4,0.96 V 1.2 C 5.4,1.232 5.38,1.264 5.348,1.276 L 5.164,1.34 V 1.98 L 5.292,1.936 C 5.3,1.932 5.312,1.932 5.32,1.932 c 0.044,0 0.08,0.036 0.08,0.08 v 0.24 c 0,0.032 -0.02,0.06 -0.052,0.072 L 5.164,2.392 Z M 4.684,1.516 v 0.64 l 0.332,-0.12 v -0.64 z"
     fill="currentColor"
     id="path260"
     style="stroke-width:0.004" />
  <path
     d="M 6.264,4.524 C 6.264,4.564 6.232,4.6 6.192,4.6 6.152,4.6 6.116,4.564 6.116,4.524 V 3.944 L 5.784,4.068 V 4.7 C 5.784,4.74 5.748,4.776 5.708,4.776 5.668,4.776 5.636,4.74 5.636,4.7 V 4.12 L 5.508,4.168 C 5.5,4.172 5.488,4.172 5.48,4.172 5.436,4.172 5.4,4.136 5.4,4.092 V 3.852 C 5.4,3.82 5.42,3.788 5.452,3.776 L 5.636,3.712 V 3.072 L 5.508,3.116 C 5.5,3.12 5.488,3.12 5.48,3.12 5.436,3.12 5.4,3.084 5.4,3.04 V 2.8 C 5.4,2.768 5.42,2.74 5.452,2.728 L 5.636,2.66 V 2.028 c 0,-0.04 0.032,-0.076 0.072,-0.076 0.04,0 0.076,0.036 0.076,0.076 v 0.58 L 6.116,2.484 V 1.852 c 0,-0.04 0.036,-0.076 0.076,-0.076 0.04,0 0.072,0.036 0.072,0.076 v 0.58 L 6.392,2.384 C 6.4,2.38 6.412,2.38 6.42,2.38 6.464,2.38 6.5,2.416 6.5,2.46 V 2.7 C 6.5,2.732 6.48,2.764 6.448,2.776 L 6.264,2.84 V 3.48 L 6.392,3.436 C 6.4,3.432 6.412,3.432 6.42,3.432 c 0.044,0 0.08,0.036 0.08,0.08 v 0.24 c 0,0.032 -0.02,0.06 -0.052,0.072 L 6.264,3.892 Z M 5.784,3.016 v 0.64 l 0.332,-0.12 v -0.64 z"
     fill="currentColor"
     id="path262"
     style="stroke-width:0.004" />
  <text
     font-family="'Roboto Light'"
     font-size="2.2001px"
     text-anchor="start"
     fill="currentColor"
     id="text266"
     x="10.2528"
     y="9.5232"><tspan
       id="tspan264">D</tspan></text>
  <text
     font-family="'Roboto Slab Light'"
     font-size="2.2001px"
     text-anchor="start"
     fill="currentColor"
     id="text270"
     x="0.81940001"
     y="9.5232"><tspan
       id="tspan268">D Maior:</tspan></text>
  <path
     d="m 10.8398,16.8853 c -0.2,0 -0.276,0.172 -0.276,0.352 0,0.308 0.228,0.544 0.536,0.544 0.2,0 0.276,-0.172 0.276,-0.352 0,-0.308 -0.228,-0.544 -0.536,-0.544 z m 1.12,0.448 c 0,0.172 -0.14,0.304 -0.292,0.388 -0.212,0.12 -0.452,0.164 -0.696,0.164 -0.244,0 -0.488,-0.044 -0.7,-0.164 -0.152,-0.084 -0.292,-0.216 -0.292,-0.388 0,-0.172 0.14,-0.304 0.292,-0.388 0.212,-0.12 0.456,-0.164 0.7,-0.164 0.244,0 0.484,0.044 0.696,0.164 0.152,0.084 0.292,0.216 0.292,0.388 z"
     fill="currentColor"
     id="path272"
     style="stroke-width:0.004" />
  <path
     d="m 2.304,14.7853 c 0.016,0 0.036,-0.004 0.052,-0.004 0.62,0 1.024,0.512 1.024,1.044 0,0.304 -0.132,0.616 -0.428,0.84 -0.088,0.068 -0.188,0.112 -0.292,0.144 0.012,0.14 0.02,0.28 0.02,0.42 0,0.076 -0.004,0.156 -0.008,0.232 -0.028,0.48 -0.36,0.912 -0.832,0.912 -0.432,0 -0.78,-0.352 -0.78,-0.788 0,-0.232 0.212,-0.412 0.448,-0.412 0.216,0 0.38,0.188 0.38,0.412 0,0.208 -0.172,0.38 -0.38,0.38 -0.044,0 -0.084,-0.008 -0.124,-0.024 0.104,0.156 0.272,0.26 0.468,0.26 0.384,0 0.628,-0.368 0.652,-0.764 0.004,-0.072 0.008,-0.148 0.008,-0.22 0,-0.124 -0.004,-0.244 -0.016,-0.368 -0.116,0.02 -0.232,0.032 -0.356,0.032 -0.752,0 -1.332,-0.688 -1.332,-1.496 0,-0.708 0.524,-1.224 0.992,-1.764 -0.076,-0.248 -0.148,-0.5 -0.18,-0.76 -0.024,-0.208 -0.028,-0.416 -0.028,-0.624 0,-0.46 0.22,-0.896 0.596,-1.168 0.012,-0.008 0.028,-0.012 0.04,-0.012 0.016,0 0.028,0 0.04,0.012 0.284,0.336 0.532,0.98 0.532,1.432 0,0.572 -0.344,1.02 -0.72,1.456 0.084,0.272 0.156,0.552 0.224,0.828 z m 0.34,1.86 c 0.272,-0.096 0.452,-0.38 0.452,-0.656 0,-0.36 -0.264,-0.716 -0.692,-0.76 0.096,0.464 0.184,0.924 0.24,1.416 z m -1.548,-0.924 c 0,0.54 0.516,0.988 1.056,0.988 0.112,0 0.22,-0.008 0.328,-0.024 -0.056,-0.508 -0.148,-0.98 -0.252,-1.456 -0.316,0.032 -0.496,0.244 -0.496,0.476 0,0.176 0.1,0.364 0.324,0.492 0.02,0.02 0.028,0.04 0.028,0.06 0,0.044 -0.04,0.088 -0.088,0.088 -0.012,0 -0.024,-0.004 -0.036,-0.008 -0.32,-0.172 -0.468,-0.46 -0.468,-0.74 0,-0.352 0.232,-0.696 0.64,-0.788 -0.056,-0.232 -0.116,-0.468 -0.184,-0.7 -0.428,0.484 -0.852,0.972 -0.852,1.612 z m 1.336,-4.068 c -0.396,0.192 -0.648,0.596 -0.648,1.036 0,0.296 0.072,0.532 0.144,0.776 0.32,-0.388 0.584,-0.792 0.584,-1.296 0,-0.22 -0.016,-0.316 -0.08,-0.516 z"
     fill="currentColor"
     id="path274"
     style="stroke-width:0.004" />
  <path
     d="m 4.528,14.6693 -0.004,0.264 v 0.044 c 0,0.088 0.004,0.176 0.016,0.264 0.18,-0.152 0.372,-0.32 0.372,-0.556 0,-0.132 -0.056,-0.268 -0.172,-0.268 -0.124,0 -0.208,0.12 -0.212,0.252 z m -0.168,0.716 -0.048,-2.38 c 0.032,-0.02 0.072,-0.032 0.108,-0.032 0.036,0 0.076,0.012 0.108,0.032 l -0.028,1.38 c 0.1,-0.084 0.232,-0.136 0.364,-0.136 0.208,0 0.356,0.192 0.356,0.408 0,0.32 -0.344,0.468 -0.588,0.676 -0.06,0.052 -0.096,0.152 -0.18,0.152 -0.052,0 -0.092,-0.044 -0.092,-0.1 z"
     fill="currentColor"
     id="path276"
     style="stroke-width:0.004" />
  <text
     font-family="'Roboto Slab Light'"
     font-size="2.2001px"
     text-anchor="start"
     fill="currentColor"
     id="text280"
     y="20.541201"><tspan
       id="tspan278">D menor:</tspan></text>
  <text
     font-family="'Roboto Light'"
     font-size="2.2001px"
     text-anchor="start"
     fill="currentColor"
     id="text284"
     x="10.2528"
     y="20.541201"><tspan
       id="tspan282">D</tspan></text>
  <text
     font-family="'Roboto Light'"
     font-size="2.2001px"
     text-anchor="start"
     fill="currentColor"
     id="text288"
     x="40.794701"
     y="20.541201"><tspan
       id="tspan286">G</tspan></text>
  <text
     font-family="'Roboto Light'"
     font-size="2.2001px"
     text-anchor="start"
     fill="currentColor"
     id="text292"
     x="50.638302"
     y="20.541201"><tspan
       id="tspan290">A</tspan></text>
  <path
     d="m 51.1912,14.8853 c -0.2,0 -0.276,0.172 -0.276,0.352 0,0.308 0.228,0.544 0.536,0.544 0.2,0 0.276,-0.172 0.276,-0.352 0,-0.308 -0.228,-0.544 -0.536,-0.544 z m 1.12,0.448 c 0,0.172 -0.14,0.304 -0.292,0.388 -0.212,0.12 -0.452,0.164 -0.696,0.164 -0.244,0 -0.488,-0.044 -0.7,-0.164 -0.152,-0.084 -0.292,-0.216 -0.292,-0.388 0,-0.172 0.14,-0.304 0.292,-0.388 0.212,-0.12 0.456,-0.164 0.7,-0.164 0.244,0 0.484,0.044 0.696,0.164 0.152,0.084 0.292,0.216 0.292,0.388 z"
     fill="currentColor"
     id="path294"
     style="stroke-width:0.004" />
  <text
     font-family="'Roboto Light'"
     font-size="2.2001px"
     text-anchor="start"
     fill="currentColor"
     id="text298"
     x="50.638302"
     y="9.5232"><tspan
       id="tspan296">A</tspan></text>
  <path
     d="m 51.1912,3.828 c -0.2,0 -0.276,0.172 -0.276,0.352 0,0.308 0.228,0.544 0.536,0.544 0.2,0 0.276,-0.172 0.276,-0.352 0,-0.308 -0.228,-0.544 -0.536,-0.544 z m 1.12,0.448 c 0,0.172 -0.14,0.304 -0.292,0.388 -0.212,0.12 -0.452,0.164 -0.696,0.164 -0.244,0 -0.488,-0.044 -0.7,-0.164 -0.152,-0.084 -0.292,-0.216 -0.292,-0.388 0,-0.172 0.14,-0.304 0.292,-0.388 0.212,-0.12 0.456,-0.164 0.7,-0.164 0.244,0 0.484,0.044 0.696,0.164 0.152,0.084 0.292,0.216 0.292,0.388 z"
     fill="currentColor"
     id="path300"
     style="stroke-width:0.004" />
  <path
     d="m 30.2305,5.276 c 0,-0.34 -0.044,-0.692 -0.24,-0.972 -0.008,-0.008 -0.012,-0.02 -0.012,-0.028 0,-0.028 0.024,-0.052 0.052,-0.052 0.016,0 0.028,0.008 0.04,0.024 0.212,0.304 0.36,0.656 0.36,1.028 0,0.372 -0.148,0.724 -0.36,1.028 -0.012,0.016 -0.024,0.024 -0.04,0.024 -0.028,0 -0.052,-0.024 -0.052,-0.052 0,-0.008 0.004,-0.02 0.012,-0.028 0.196,-0.28 0.24,-0.632 0.24,-0.972 z"
     fill="currentColor"
     id="path302"
     style="stroke-width:0.004" />
  <path
     d="m 28.3305,5.276 c 0,0.34 0.044,0.692 0.24,0.972 0.008,0.008 0.012,0.02 0.012,0.028 0,0.028 -0.024,0.052 -0.052,0.052 -0.016,0 -0.028,-0.008 -0.04,-0.024 -0.212,-0.304 -0.36,-0.656 -0.36,-1.028 0,-0.372 0.148,-0.724 0.36,-1.028 0.012,-0.016 0.024,-0.024 0.04,-0.024 0.028,0 0.052,0.024 0.052,0.052 0,0.008 -0.004,0.02 -0.012,0.028 -0.196,0.28 -0.24,0.632 -0.24,0.972 z"
     fill="currentColor"
     id="path304"
     style="stroke-width:0.004" />
  <path
     d="m 29.5945,6.524 c 0,0.04 -0.032,0.076 -0.072,0.076 -0.04,0 -0.076,-0.036 -0.076,-0.076 v -0.58 l -0.332,0.124 V 6.7 c 0,0.04 -0.036,0.076 -0.076,0.076 -0.04,0 -0.072,-0.036 -0.072,-0.076 V 6.12 l -0.128,0.048 c -0.008,0.004 -0.02,0.004 -0.028,0.004 -0.044,0 -0.08,-0.036 -0.08,-0.08 v -0.24 c 0,-0.032 0.02,-0.064 0.052,-0.076 l 0.184,-0.064 v -0.64 l -0.128,0.044 c -0.008,0.004 -0.02,0.004 -0.028,0.004 -0.044,0 -0.08,-0.036 -0.08,-0.08 V 4.8 c 0,-0.032 0.02,-0.06 0.052,-0.072 L 28.9665,4.66 V 4.028 c 0,-0.04 0.032,-0.076 0.072,-0.076 0.04,0 0.076,0.036 0.076,0.076 v 0.58 l 0.332,-0.124 V 3.852 c 0,-0.04 0.036,-0.076 0.076,-0.076 0.04,0 0.072,0.036 0.072,0.076 v 0.58 l 0.128,-0.048 c 0.008,-0.004 0.02,-0.004 0.028,-0.004 0.044,0 0.08,0.036 0.08,0.08 V 4.7 c 0,0.032 -0.02,0.064 -0.052,0.076 l -0.184,0.064 v 0.64 l 0.128,-0.044 c 0.008,-0.004 0.02,-0.004 0.028,-0.004 0.044,0 0.08,0.036 0.08,0.08 v 0.24 c 0,0.032 -0.02,0.06 -0.052,0.072 l -0.184,0.068 z m -0.48,-1.508 v 0.64 l 0.332,-0.12 v -0.64 z"
     fill="currentColor"
     id="path306"
     style="stroke-width:0.004" />
  <path
     d="m 41.4159,15.3853 c -0.2,0 -0.276,0.172 -0.276,0.352 0,0.308 0.228,0.544 0.536,0.544 0.2,0 0.276,-0.172 0.276,-0.352 0,-0.308 -0.228,-0.544 -0.536,-0.544 z m 1.12,0.448 c 0,0.172 -0.14,0.304 -0.292,0.388 -0.212,0.12 -0.452,0.164 -0.696,0.164 -0.244,0 -0.488,-0.044 -0.7,-0.164 -0.152,-0.084 -0.292,-0.216 -0.292,-0.388 0,-0.172 0.14,-0.304 0.292,-0.388 0.212,-0.12 0.456,-0.164 0.7,-0.164 0.244,0 0.484,0.044 0.696,0.164 0.152,0.084 0.292,0.216 0.292,0.388 z"
     fill="currentColor"
     id="path308"
     style="stroke-width:0.004" />
  <text
     font-family="'Roboto Light'"
     font-size="2.2001px"
     text-anchor="start"
     fill="currentColor"
     id="text312"
     x="40.794701"
     y="9.5232"><tspan
       id="tspan310">G</tspan></text>
  <path
     d="m 41.4159,4.328 c -0.2,0 -0.276,0.172 -0.276,0.352 0,0.308 0.228,0.544 0.536,0.544 0.2,0 0.276,-0.172 0.276,-0.352 0,-0.308 -0.228,-0.544 -0.536,-0.544 z m 1.12,0.448 c 0,0.172 -0.14,0.304 -0.292,0.388 -0.212,0.12 -0.452,0.164 -0.696,0.164 -0.244,0 -0.488,-0.044 -0.7,-0.164 -0.152,-0.084 -0.292,-0.216 -0.292,-0.388 0,-0.172 0.14,-0.304 0.292,-0.388 0.212,-0.12 0.456,-0.164 0.7,-0.164 0.244,0 0.484,0.044 0.696,0.164 0.152,0.084 0.292,0.216 0.292,0.388 z"
     fill="currentColor"
     id="path314"
     style="stroke-width:0.004" />
</svg>
