<?xml version="1.0" encoding="UTF-8" standalone="no"?>
<svg
   version="1.2"
   width="159.20001mm"
   height="21.666794mm"
   viewBox="0 0 90.593601 12.329602"
   id="svg200"
   xmlns="http://www.w3.org/2000/svg"
   xmlns:svg="http://www.w3.org/2000/svg">
  <defs
     id="defs204" />
  <!-- Page: 1/1 -->
  <text
     font-family="'Century Schoolbook L'"
     font-size="2.2001px"
     text-anchor="start"
     fill="currentColor"
     id="text4"
     y="-1"><tspan
       id="tspan2" /></text>
  <rect
     x="5.5584002"
     y="6.6760001"
     width="2.97"
     height="0.2"
     ry="0.1"
     fill="currentColor"
     id="rect6" />
  <line
     stroke-linejoin="round"
     stroke-linecap="round"
     stroke-width="0.1"
     stroke="currentColor"
     x1="0.050000001"
     y1="5.776"
     x2="90.543602"
     y2="5.776"
     id="line8" />
  <line
     stroke-linejoin="round"
     stroke-linecap="round"
     stroke-width="0.1"
     stroke="currentColor"
     x1="0.050000001"
     y1="4.776"
     x2="90.543602"
     y2="4.776"
     id="line10" />
  <line
     stroke-linejoin="round"
     stroke-linecap="round"
     stroke-width="0.1"
     stroke="currentColor"
     x1="0.050000001"
     y1="3.776"
     x2="90.543602"
     y2="3.776"
     id="line12" />
  <line
     stroke-linejoin="round"
     stroke-linecap="round"
     stroke-width="0.1"
     stroke="currentColor"
     x1="0.050000001"
     y1="2.776"
     x2="90.543602"
     y2="2.776"
     id="line14" />
  <line
     stroke-linejoin="round"
     stroke-linecap="round"
     stroke-width="0.1"
     stroke="currentColor"
     x1="0.050000001"
     y1="1.776"
     x2="90.543602"
     y2="1.776"
     id="line16" />
  <rect
     x="89.993599"
     y="1.776"
     width="0.60000002"
     height="4"
     ry="0.0000"
     fill="currentColor"
     id="rect18" />
  <rect
     x="89.503601"
     y="1.776"
     width="0.19"
     height="4"
     ry="0.0000"
     fill="currentColor"
     id="rect20" />
  <line
     stroke-linejoin="round"
     stroke-linecap="round"
     stroke-width="0.1"
     stroke="currentColor"
     x1="69.380997"
     y1="10.5963"
     x2="69.630997"
     y2="10.3463"
     id="line22" />
  <line
     stroke-linejoin="round"
     stroke-linecap="round"
     stroke-width="0.1"
     stroke="currentColor"
     x1="69.630997"
     y1="10.3463"
     x2="69.880997"
     y2="10.5963"
     id="line24" />
  <text
     font-family="'Roboto Light'"
     font-size="2.2001px"
     text-anchor="start"
     fill="currentColor"
     id="text28"
     x="69.033501"
     y="12.2963"><tspan
       id="tspan26">7</tspan></text>
  <text
     font-family="'Roboto Light'"
     font-size="2.2001px"
     text-anchor="start"
     fill="currentColor"
     id="text32"
     x="68.948196"
     y="9.4962997"><tspan
       id="tspan30">B</tspan></text>
  <path
     d="m 69.501,3.328 c -0.2,0 -0.276,0.172 -0.276,0.352 0,0.308 0.228,0.544 0.536,0.544 0.2,0 0.276,-0.172 0.276,-0.352 0,-0.308 -0.228,-0.544 -0.536,-0.544 z m 1.12,0.448 c 0,0.172 -0.14,0.304 -0.292,0.388 -0.212,0.12 -0.452,0.164 -0.696,0.164 -0.244,0 -0.488,-0.044 -0.7,-0.164 -0.152,-0.084 -0.292,-0.216 -0.292,-0.388 0,-0.172 0.14,-0.304 0.292,-0.388 0.212,-0.12 0.456,-0.164 0.7,-0.164 0.244,0 0.484,0.044 0.696,0.164 0.152,0.084 0.292,0.216 0.292,0.388 z"
     fill="currentColor"
     id="path34"
     style="stroke-width:0.004" />
  <line
     stroke-linejoin="round"
     stroke-linecap="round"
     stroke-width="0.1"
     stroke="currentColor"
     x1="58.949699"
     y1="10.5622"
     x2="59.199699"
     y2="10.3122"
     id="line36" />
  <line
     stroke-linejoin="round"
     stroke-linecap="round"
     stroke-width="0.1"
     stroke="currentColor"
     x1="59.199699"
     y1="10.3122"
     x2="59.449699"
     y2="10.5622"
     id="line38" />
  <text
     font-family="'Roboto Light'"
     font-size="2.2001px"
     text-anchor="start"
     fill="currentColor"
     id="text42"
     x="58.585201"
     y="12.2622"><tspan
       id="tspan40">6</tspan></text>
  <text
     font-family="'Roboto Light'"
     font-size="2.2001px"
     text-anchor="start"
     fill="currentColor"
     id="text46"
     x="58.516899"
     y="9.4962997"><tspan
       id="tspan44">A</tspan></text>
  <path
     d="m 59.0697,3.828 c -0.2,0 -0.276,0.172 -0.276,0.352 0,0.308 0.228,0.544 0.536,0.544 0.2,0 0.276,-0.172 0.276,-0.352 0,-0.308 -0.228,-0.544 -0.536,-0.544 z m 1.12,0.448 c 0,0.172 -0.14,0.304 -0.292,0.388 -0.212,0.12 -0.452,0.164 -0.696,0.164 -0.244,0 -0.488,-0.044 -0.7,-0.164 -0.152,-0.084 -0.292,-0.216 -0.292,-0.388 0,-0.172 0.14,-0.304 0.292,-0.388 0.212,-0.12 0.456,-0.164 0.7,-0.164 0.244,0 0.484,0.044 0.696,0.164 0.152,0.084 0.292,0.216 0.292,0.388 z"
     fill="currentColor"
     id="path48"
     style="stroke-width:0.004" />
  <line
     stroke-linejoin="round"
     stroke-linecap="round"
     stroke-width="0.1"
     stroke="currentColor"
     x1="48.518501"
     y1="10.5622"
     x2="48.768501"
     y2="10.3122"
     id="line50" />
  <line
     stroke-linejoin="round"
     stroke-linecap="round"
     stroke-width="0.1"
     stroke="currentColor"
     x1="48.768501"
     y1="10.3122"
     x2="49.018501"
     y2="10.5622"
     id="line52" />
  <text
     font-family="'Roboto Light'"
     font-size="2.2001px"
     text-anchor="start"
     fill="currentColor"
     id="text56"
     x="48.1539"
     y="12.2622"><tspan
       id="tspan54">5</tspan></text>
  <text
     font-family="'Roboto Light'"
     font-size="2.2001px"
     text-anchor="start"
     fill="currentColor"
     id="text60"
     x="48.0173"
     y="9.4962997"><tspan
       id="tspan58">G</tspan></text>
  <path
     d="m 48.6385,4.328 c -0.2,0 -0.276,0.172 -0.276,0.352 0,0.308 0.228,0.544 0.536,0.544 0.2,0 0.276,-0.172 0.276,-0.352 0,-0.308 -0.228,-0.544 -0.536,-0.544 z m 1.12,0.448 c 0,0.172 -0.14,0.304 -0.292,0.388 -0.212,0.12 -0.452,0.164 -0.696,0.164 -0.244,0 -0.488,-0.044 -0.7,-0.164 -0.152,-0.084 -0.292,-0.216 -0.292,-0.388 0,-0.172 0.14,-0.304 0.292,-0.388 0.212,-0.12 0.456,-0.164 0.7,-0.164 0.244,0 0.484,0.044 0.696,0.164 0.152,0.084 0.292,0.216 0.292,0.388 z"
     fill="currentColor"
     id="path62"
     style="stroke-width:0.004" />
  <path
     stroke-width="0.08"
     stroke-linejoin="round"
     stroke-linecap="round"
     stroke="currentColor"
     fill="currentColor"
     d="m 38.198398,6.4630995 c 0.06109,-0.044582 0.117976,-0.090284 0.170382,-0.1370935 -0.05258,0.043232 -0.109626,0.085463 -0.170881,0.12668 z"
     id="path64" />
  <path
     stroke-width="0.08"
     stroke-linejoin="round"
     stroke-linecap="round"
     stroke="currentColor"
     fill="currentColor"
     d="m 37.665336,6.7762563 c 0.08051,-0.038901 0.157461,-0.078953 0.230598,-0.120145 -0.07447,0.013316 -0.151567,0.050431 -0.23221,0.086501 z"
     id="path66" />
  <path
     stroke-width="0.08"
     stroke-linejoin="round"
     stroke-linecap="round"
     stroke="currentColor"
     fill="currentColor"
     d="m 36.99902,7.0462131 c 0.09663,-0.033062 0.190362,-0.067307 0.280937,-0.102723 -0.09288,-0.012753 -0.186733,0.019089 -0.283471,0.049854 z"
     id="path68" />
  <path
     stroke-width="0.08"
     stroke-linejoin="round"
     stroke-linecap="round"
     stroke="currentColor"
     fill="currentColor"
     d="m 36.224145,7.2717863 c 0.109457,-0.027065 0.216677,-0.055345 0.321397,-0.084827 -0.10781,-0.034975 -0.215119,-0.00856 -0.32466,0.016739 z"
     id="path70" />
  <path
     stroke-width="0.08"
     stroke-linejoin="round"
     stroke-linecap="round"
     stroke="currentColor"
     fill="currentColor"
     d="m 35.365406,7.4517921 c 0.118992,-0.02091 0.236406,-0.043067 0.351979,-0.066458 -0.119251,-0.053349 -0.236729,-0.032527 -0.35578,-0.012844 z"
     id="path72" />
  <path
     stroke-width="0.08"
     stroke-linejoin="round"
     stroke-linecap="round"
     stroke="currentColor"
     fill="currentColor"
     d="m 34.447497,7.585047 c 0.125235,-0.014598 0.249551,-0.030474 0.372684,-0.047616 -0.127208,-0.067875 -0.251562,-0.0528 -0.376831,-0.038896 z"
     id="path74" />
  <path
     stroke-width="0.08"
     stroke-linejoin="round"
     stroke-linecap="round"
     stroke="currentColor"
     fill="currentColor"
     d="m 33.495114,7.6703671 c 0.128185,-0.00813 0.256109,-0.017565 0.38351,-0.0283 -0.131681,-0.078555 -0.259618,-0.069384 -0.387811,-0.061417 z"
     id="path76" />
  <path
     stroke-width="0.08"
     stroke-linejoin="round"
     stroke-linecap="round"
     stroke="currentColor"
     fill="currentColor"
     d="m 32.53295,7.7065688 c 0.127843,-0.0015 0.256084,-0.00434 0.384459,-0.00851 -0.132668,-0.085387 -0.260896,-0.082279 -0.388721,-0.080406 z"
     id="path78" />
  <path
     stroke-width="0.08"
     stroke-linejoin="round"
     stroke-linecap="round"
     stroke="currentColor"
     fill="currentColor"
     d="m 31.585702,7.6924684 c 0.124208,0.00529 0.249472,0.0092 0.375529,0.011752 -0.130171,-0.088371 -0.255396,-0.091483 -0.379561,-0.095861 z"
     id="path80" />
  <path
     stroke-width="0.08"
     stroke-linejoin="round"
     stroke-linecap="round"
     stroke="currentColor"
     fill="currentColor"
     d="m 30.678063,7.6268823 c 0.117281,0.01223 0.236276,0.023055 0.356722,0.032488 -0.124189,-0.087508 -0.24312,-0.096998 -0.360331,-0.1077859 z"
     id="path82" />
  <path
     stroke-width="0.08"
     stroke-linejoin="round"
     stroke-linecap="round"
     stroke="currentColor"
     fill="currentColor"
     d="m 29.834729,7.5086266 c 0.10706,0.019331 0.216494,0.037227 0.328037,0.053698 C 30.048043,7.479527 29.9387,7.4635009 29.831734,7.4461455 Z"
     id="path84" />
  <path
     stroke-width="0.08"
     stroke-linejoin="round"
     stroke-linecap="round"
     stroke="currentColor"
     fill="currentColor"
     d="m 29.080395,7.3365179 c 0.09355,0.026591 0.190126,0.051714 0.289473,0.075382 -0.101771,-0.07424 -0.198235,-0.09696 -0.291662,-0.121041 z"
     id="path86" />
  <path
     stroke-width="0.08"
     stroke-linejoin="round"
     stroke-linecap="round"
     stroke="currentColor"
     fill="currentColor"
     d="m 28.439755,7.1093722 c 0.07674,0.034008 0.157173,0.066516 0.241032,0.097538 -0.08534,-0.061835 -0.165627,-0.091407 -0.242223,-0.1223707 z"
     id="path88" />
  <path
     stroke-width="0.08"
     stroke-linejoin="round"
     stroke-linecap="round"
     stroke="currentColor"
     fill="currentColor"
     d="m 27.937503,6.826006 c 0.05664,0.041583 0.117636,0.081635 0.182714,0.1201687 -0.06542,-0.045583 -0.126242,-0.082164 -0.182714,-0.1201687 z"
     id="path90" />
  <path
     stroke-width="0.08"
     stroke-linejoin="round"
     stroke-linecap="round"
     stroke="currentColor"
     fill="currentColor"
     d="m 79.934845,4.493594 c 0.06048,-0.054521 0.11673,-0.1103889 0.168483,-0.167588 -0.05198,0.053624 -0.108441,0.1060237 -0.169131,0.1571826 z"
     id="path92" />
  <path
     stroke-width="0.08"
     stroke-linejoin="round"
     stroke-linecap="round"
     stroke="currentColor"
     fill="currentColor"
     d="m 79.405993,4.8769783 c 0.08,-0.047681 0.15642,-0.09675 0.229006,-0.1471918 -0.07432,0.022587 -0.150928,0.068722 -0.231101,0.1135746 z"
     id="path94" />
  <path
     stroke-width="0.08"
     stroke-linejoin="round"
     stroke-linecap="round"
     stroke="currentColor"
     fill="currentColor"
     d="m 78.743124,5.2082945 c 0.09622,-0.040636 0.189523,-0.082701 0.279648,-0.1261798 -0.09312,-0.00465 -0.186578,0.035011 -0.28294,0.073353 z"
     id="path96" />
  <path
     stroke-width="0.08"
     stroke-linejoin="round"
     stroke-linecap="round"
     stroke="currentColor"
     fill="currentColor"
     d="m 77.970944,5.4860031 c 0.109147,-0.033385 0.216037,-0.068242 0.320408,-0.104552 -0.108384,-0.028096 -0.215391,0.00489 -0.324647,0.036517 z"
     id="path98" />
  <path
     stroke-width="0.08"
     stroke-linejoin="round"
     stroke-linecap="round"
     stroke="currentColor"
     fill="currentColor"
     d="m 77.114157,5.7085649 c 0.118781,-0.02593 0.235964,-0.053372 0.351287,-0.082309 -0.120101,-0.047742 -0.237367,-0.021635 -0.356224,0.00307 z"
     id="path100" />
  <path
     stroke-width="0.08"
     stroke-linejoin="round"
     stroke-linecap="round"
     stroke="currentColor"
     fill="currentColor"
     d="m 76.197469,5.8744403 c 0.12512,-0.018269 0.249303,-0.038091 0.372282,-0.059449 -0.128273,-0.063592 -0.252505,-0.04457 -0.377669,-0.026995 z"
     id="path102" />
  <path
     stroke-width="0.08"
     stroke-linejoin="round"
     stroke-linecap="round"
     stroke="currentColor"
     fill="currentColor"
     d="m 75.245583,5.98209 c 0.128166,-0.010403 0.256053,-0.0224 0.383397,-0.035974 -0.132903,-0.075645 -0.260807,-0.063915 -0.388983,-0.053672 z"
     id="path104" />
  <path
     stroke-width="0.08"
     stroke-linejoin="round"
     stroke-linecap="round"
     stroke="currentColor"
     fill="currentColor"
     d="m 74.283204,6.0299745 c 0.127919,-0.00233 0.256217,-0.0063 0.38463,-0.011883 -0.133989,-0.083901 -0.262271,-0.079667 -0.390166,-0.076962 z"
     id="path106" />
  <path
     stroke-width="0.08"
     stroke-linejoin="round"
     stroke-linecap="round"
     stroke="currentColor"
     fill="currentColor"
     d="m 73.335038,6.0165545 c 0.124377,0.00594 0.249791,0.010214 0.37598,0.012823 -0.131532,-0.08836 -0.256897,-0.091828 -0.381217,-0.096866 z"
     id="path108" />
  <path
     stroke-width="0.08"
     stroke-linejoin="round"
     stroke-linecap="round"
     stroke="currentColor"
     fill="currentColor"
     d="m 72.425788,5.9402904 c 0.117541,0.014427 0.236778,0.027136 0.357449,0.038145 C 72.657705,5.8894136 72.538551,5.8780379 72.4211,5.8650521 Z"
     id="path110" />
  <path
     stroke-width="0.08"
     stroke-linejoin="round"
     stroke-linecap="round"
     stroke="currentColor"
     fill="currentColor"
     d="m 71.58016,5.799643 c 0.107411,0.023114 0.217177,0.044469 0.329035,0.064084 -0.115988,-0.085889 -0.225638,-0.1053765 -0.332926,-0.1265159 z"
     id="path112" />
  <path
     stroke-width="0.08"
     stroke-linejoin="round"
     stroke-linecap="round"
     stroke="currentColor"
     fill="currentColor"
     d="m 70.822858,5.5930727 c 0.09399,0.032006 0.190988,0.062213 0.29074,0.090637 -0.102901,-0.078956 -0.199752,-0.1067622 -0.293583,-0.1362603 z"
     id="path114" />
  <path
     stroke-width="0.08"
     stroke-linejoin="round"
     stroke-linecap="round"
     stroke="currentColor"
     fill="currentColor"
     d="m 70.178586,5.3190402 c 0.07727,0.041103 0.158212,0.080367 0.242564,0.117807 -0.08627,-0.068229 -0.16703,-0.1045577 -0.24411,-0.1426197 z"
     id="path116" />
  <path
     stroke-width="0.08"
     stroke-linejoin="round"
     stroke-linecap="round"
     stroke="currentColor"
     fill="currentColor"
     d="m 69.672051,4.976006 c 0.05726,0.050406 0.118847,0.098932 0.184505,0.1455924 -0.0661,-0.053704 -0.12747,-0.098761 -0.184505,-0.1455924 z"
     id="path118" />
  <line
     stroke-linejoin="round"
     stroke-linecap="round"
     stroke-width="0.1"
     stroke="currentColor"
     x1="79.812302"
     y1="10.5963"
     x2="80.062302"
     y2="10.3463"
     id="line120" />
  <line
     stroke-linejoin="round"
     stroke-linecap="round"
     stroke-width="0.1"
     stroke="currentColor"
     x1="80.062302"
     y1="10.3463"
     x2="80.312302"
     y2="10.5963"
     id="line122" />
  <text
     font-family="'Roboto Light'"
     font-size="2.2001px"
     text-anchor="start"
     fill="currentColor"
     id="text126"
     x="79.447701"
     y="12.2963"><tspan
       id="tspan124">1</tspan></text>
  <text
     font-family="'Roboto Light'"
     font-size="2.2001px"
     text-anchor="start"
     fill="currentColor"
     id="text130"
     x="79.345299"
     y="9.4962997"><tspan
       id="tspan128">C</tspan></text>
  <path
     d="m 79.9323,2.828 c -0.2,0 -0.276,0.172 -0.276,0.352 0,0.308 0.228,0.544 0.536,0.544 0.2,0 0.276,-0.172 0.276,-0.352 0,-0.308 -0.228,-0.544 -0.536,-0.544 z m 1.12,0.448 c 0,0.172 -0.14,0.304 -0.292,0.388 -0.212,0.12 -0.452,0.164 -0.696,0.164 -0.244,0 -0.488,-0.044 -0.7,-0.164 -0.152,-0.084 -0.292,-0.216 -0.292,-0.388 0,-0.172 0.14,-0.304 0.292,-0.388 0.212,-0.12 0.456,-0.164 0.7,-0.164 0.244,0 0.484,0.044 0.696,0.164 0.152,0.084 0.292,0.216 0.292,0.388 z"
     fill="currentColor"
     id="path132"
     style="stroke-width:0.004" />
  <text
     font-family="'Roboto Slab Light'"
     font-size="2.2001px"
     text-anchor="start"
     fill="currentColor"
     id="text136"
     y="12.2963"><tspan
       id="tspan134">Grau:</tspan></text>
  <line
     stroke-linejoin="round"
     stroke-linecap="round"
     stroke-width="0.1"
     stroke="currentColor"
     x1="6.7933998"
     y1="10.5963"
     x2="7.0433998"
     y2="10.3463"
     id="line138" />
  <line
     stroke-linejoin="round"
     stroke-linecap="round"
     stroke-width="0.1"
     stroke="currentColor"
     x1="7.0433998"
     y1="10.3463"
     x2="7.2933998"
     y2="10.5963"
     id="line140" />
  <text
     font-family="'Roboto Light'"
     font-size="2.2001px"
     text-anchor="start"
     fill="currentColor"
     id="text144"
     x="6.4288001"
     y="12.2963"><tspan
       id="tspan142">1</tspan></text>
  <text
     font-family="'Roboto Slab Light'"
     font-size="2.2001px"
     text-anchor="start"
     fill="currentColor"
     id="text148"
     x="0.068300001"
     y="9.4962997"><tspan
       id="tspan146">Nota:</tspan></text>
  <text
     font-family="'Roboto Light'"
     font-size="2.2001px"
     text-anchor="start"
     fill="currentColor"
     id="text152"
     x="6.3263998"
     y="9.4962997"><tspan
       id="tspan150">C</tspan></text>
  <path
     d="m 2.304,3.728 c 0.016,0 0.036,-0.004 0.052,-0.004 0.62,0 1.024,0.512 1.024,1.044 0,0.304 -0.132,0.616 -0.428,0.84 C 2.864,5.676 2.764,5.72 2.66,5.752 c 0.012,0.14 0.02,0.28 0.02,0.42 0,0.076 -0.004,0.156 -0.008,0.232 -0.028,0.48 -0.36,0.912 -0.832,0.912 -0.432,0 -0.78,-0.352 -0.78,-0.788 0,-0.232 0.212,-0.412 0.448,-0.412 0.216,0 0.38,0.188 0.38,0.412 0,0.208 -0.172,0.38 -0.38,0.38 C 1.464,6.908 1.424,6.9 1.384,6.884 1.488,7.04 1.656,7.144 1.852,7.144 2.236,7.144 2.48,6.776 2.504,6.38 2.508,6.308 2.512,6.232 2.512,6.16 2.512,6.036 2.508,5.916 2.496,5.792 2.38,5.812 2.264,5.824 2.14,5.824 1.388,5.824 0.808,5.136 0.808,4.328 0.808,3.62 1.332,3.104 1.8,2.564 1.724,2.316 1.652,2.064 1.62,1.804 1.596,1.596 1.592,1.388 1.592,1.18 1.592,0.72 1.812,0.284 2.188,0.012 2.2,0.004 2.216,0 2.228,0 2.244,0 2.256,0 2.268,0.012 2.552,0.348 2.8,0.992 2.8,1.444 2.8,2.016 2.456,2.464 2.08,2.9 2.164,3.172 2.236,3.452 2.304,3.728 Z m 0.34,1.86 C 2.916,5.492 3.096,5.208 3.096,4.932 3.096,4.572 2.832,4.216 2.404,4.172 2.5,4.636 2.588,5.096 2.644,5.588 Z M 1.096,4.664 c 0,0.54 0.516,0.988 1.056,0.988 0.112,0 0.22,-0.008 0.328,-0.024 C 2.424,5.12 2.332,4.648 2.228,4.172 1.912,4.204 1.732,4.416 1.732,4.648 c 0,0.176 0.1,0.364 0.324,0.492 0.02,0.02 0.028,0.04 0.028,0.06 0,0.044 -0.04,0.088 -0.088,0.088 C 1.984,5.288 1.972,5.284 1.96,5.28 1.64,5.108 1.492,4.82 1.492,4.54 1.492,4.188 1.724,3.844 2.132,3.752 2.076,3.52 2.016,3.284 1.948,3.052 1.52,3.536 1.096,4.024 1.096,4.664 Z M 2.432,0.596 C 2.036,0.788 1.784,1.192 1.784,1.632 c 0,0.296 0.072,0.532 0.144,0.776 0.32,-0.388 0.584,-0.792 0.584,-1.296 0,-0.22 -0.016,-0.316 -0.08,-0.516 z"
     fill="currentColor"
     id="path154"
     style="stroke-width:0.004" />
  <path
     d="m 6.9134,6.328 c -0.2,0 -0.276,0.172 -0.276,0.352 0,0.308 0.228,0.544 0.536,0.544 0.2,0 0.276,-0.172 0.276,-0.352 0,-0.308 -0.228,-0.544 -0.536,-0.544 z m 1.12,0.448 c 0,0.172 -0.14,0.304 -0.292,0.388 -0.212,0.12 -0.452,0.164 -0.696,0.164 -0.244,0 -0.488,-0.044 -0.7,-0.164 -0.152,-0.084 -0.292,-0.216 -0.292,-0.388 0,-0.172 0.14,-0.304 0.292,-0.388 0.212,-0.12 0.456,-0.164 0.7,-0.164 0.244,0 0.484,0.044 0.696,0.164 0.152,0.084 0.292,0.216 0.292,0.388 z"
     fill="currentColor"
     id="path156"
     style="stroke-width:0.004" />
  <line
     stroke-linejoin="round"
     stroke-linecap="round"
     stroke-width="0.1"
     stroke="currentColor"
     x1="38.0872"
     y1="10.5963"
     x2="38.3372"
     y2="10.3463"
     id="line158" />
  <line
     stroke-linejoin="round"
     stroke-linecap="round"
     stroke-width="0.1"
     stroke="currentColor"
     x1="38.3372"
     y1="10.3463"
     x2="38.5872"
     y2="10.5963"
     id="line160" />
  <text
     font-family="'Roboto Light'"
     font-size="2.2001px"
     text-anchor="start"
     fill="currentColor"
     id="text164"
     x="37.7397"
     y="12.2963"><tspan
       id="tspan162">4</tspan></text>
  <text
     font-family="'Roboto Light'"
     font-size="2.2001px"
     text-anchor="start"
     fill="currentColor"
     id="text168"
     x="37.705502"
     y="9.4962997"><tspan
       id="tspan166">F</tspan></text>
  <path
     d="m 38.2072,4.828 c -0.2,0 -0.276,0.172 -0.276,0.352 0,0.308 0.228,0.544 0.536,0.544 0.2,0 0.276,-0.172 0.276,-0.352 0,-0.308 -0.228,-0.544 -0.536,-0.544 z m 1.12,0.448 c 0,0.172 -0.14,0.304 -0.292,0.388 -0.212,0.12 -0.452,0.164 -0.696,0.164 -0.244,0 -0.488,-0.044 -0.7,-0.164 -0.152,-0.084 -0.292,-0.216 -0.292,-0.388 0,-0.172 0.14,-0.304 0.292,-0.388 0.212,-0.12 0.456,-0.164 0.7,-0.164 0.244,0 0.484,0.044 0.696,0.164 0.152,0.084 0.292,0.216 0.292,0.388 z"
     fill="currentColor"
     id="path170"
     style="stroke-width:0.004" />
  <line
     stroke-linejoin="round"
     stroke-linecap="round"
     stroke-width="0.1"
     stroke="currentColor"
     x1="27.655899"
     y1="10.5622"
     x2="27.905899"
     y2="10.3122"
     id="line172" />
  <line
     stroke-linejoin="round"
     stroke-linecap="round"
     stroke-width="0.1"
     stroke="currentColor"
     x1="27.905899"
     y1="10.3122"
     x2="28.155899"
     y2="10.5622"
     id="line174" />
  <text
     font-family="'Roboto Light'"
     font-size="2.2001px"
     text-anchor="start"
     fill="currentColor"
     id="text178"
     x="27.2913"
     y="12.2622"><tspan
       id="tspan176">3</tspan></text>
  <text
     font-family="'Roboto Light'"
     font-size="2.2001px"
     text-anchor="start"
     fill="currentColor"
     id="text182"
     x="27.2743"
     y="9.4962997"><tspan
       id="tspan180">E</tspan></text>
  <path
     d="m 27.7759,5.328 c -0.2,0 -0.276,0.172 -0.276,0.352 0,0.308 0.228,0.544 0.536,0.544 0.2,0 0.276,-0.172 0.276,-0.352 0,-0.308 -0.228,-0.544 -0.536,-0.544 z m 1.12,0.448 c 0,0.172 -0.14,0.304 -0.292,0.388 -0.212,0.12 -0.452,0.164 -0.696,0.164 -0.244,0 -0.488,-0.044 -0.7,-0.164 -0.152,-0.084 -0.292,-0.216 -0.292,-0.388 0,-0.172 0.14,-0.304 0.292,-0.388 0.212,-0.12 0.456,-0.164 0.7,-0.164 0.244,0 0.484,0.044 0.696,0.164 0.152,0.084 0.292,0.216 0.292,0.388 z"
     fill="currentColor"
     id="path184"
     style="stroke-width:0.004" />
  <path
     d="m 17.3446,5.828 c -0.2,0 -0.276,0.172 -0.276,0.352 0,0.308 0.228,0.544 0.536,0.544 0.2,0 0.276,-0.172 0.276,-0.352 0,-0.308 -0.228,-0.544 -0.536,-0.544 z m 1.12,0.448 c 0,0.172 -0.14,0.304 -0.292,0.388 -0.212,0.12 -0.452,0.164 -0.696,0.164 -0.244,0 -0.488,-0.044 -0.7,-0.164 -0.152,-0.084 -0.292,-0.216 -0.292,-0.388 0,-0.172 0.14,-0.304 0.292,-0.388 0.212,-0.12 0.456,-0.164 0.7,-0.164 0.244,0 0.484,0.044 0.696,0.164 0.152,0.084 0.292,0.216 0.292,0.388 z"
     fill="currentColor"
     id="path186"
     style="stroke-width:0.004" />
  <text
     font-family="'Roboto Light'"
     font-size="2.2001px"
     text-anchor="start"
     fill="currentColor"
     id="text190"
     x="16.757601"
     y="9.4962997"><tspan
       id="tspan188">D</tspan></text>
  <line
     stroke-linejoin="round"
     stroke-linecap="round"
     stroke-width="0.1"
     stroke="currentColor"
     x1="17.2246"
     y1="10.5963"
     x2="17.4746"
     y2="10.3463"
     id="line192" />
  <line
     stroke-linejoin="round"
     stroke-linecap="round"
     stroke-width="0.1"
     stroke="currentColor"
     x1="17.4746"
     y1="10.3463"
     x2="17.7246"
     y2="10.5963"
     id="line194" />
  <text
     font-family="'Roboto Light'"
     font-size="2.2001px"
     text-anchor="start"
     fill="currentColor"
     id="text198"
     x="16.8601"
     y="12.2963"><tspan
       id="tspan196">2</tspan></text>
</svg>
