<?xml version="1.0" encoding="UTF-8" standalone="no"?>
<svg
   version="1.2"
   width="159.20001mm"
   height="19.364029mm"
   viewBox="0 0 90.593601 11.019202"
   id="svg138"
   xmlns="http://www.w3.org/2000/svg"
   xmlns:svg="http://www.w3.org/2000/svg">
  <defs
     id="defs142" />
  <!-- Page: 1/1 -->
  <text
     font-family="'Century Schoolbook L'"
     font-size="2.2001px"
     text-anchor="start"
     fill="currentColor"
     id="text4"
     y="-1"><tspan
       id="tspan2" /></text>
  <rect
     x="89.993599"
     y="1.776"
     width="0.60000002"
     height="4"
     ry="0.0000"
     fill="currentColor"
     id="rect6" />
  <rect
     x="89.503601"
     y="1.776"
     width="0.19"
     height="4"
     ry="0.0000"
     fill="currentColor"
     id="rect8" />
  <rect
     x="10.4067"
     y="6.6760001"
     width="2.97"
     height="0.2"
     ry="0.1"
     fill="currentColor"
     id="rect10" />
  <rect
     x="10.4067"
     y="7.6760001"
     width="2.97"
     height="0.2"
     ry="0.1"
     fill="currentColor"
     id="rect12" />
  <rect
     x="20.231899"
     y="6.6760001"
     width="2.97"
     height="0.2"
     ry="0.1"
     fill="currentColor"
     id="rect14" />
  <rect
     x="30.057199"
     y="6.6760001"
     width="2.97"
     height="0.2"
     ry="0.1"
     fill="currentColor"
     id="rect16" />
  <line
     stroke-linejoin="round"
     stroke-linecap="round"
     stroke-width="0.1"
     stroke="currentColor"
     x1="0.050000001"
     y1="5.776"
     x2="90.543602"
     y2="5.776"
     id="line18" />
  <line
     stroke-linejoin="round"
     stroke-linecap="round"
     stroke-width="0.1"
     stroke="currentColor"
     x1="0.050000001"
     y1="4.776"
     x2="90.543602"
     y2="4.776"
     id="line20" />
  <line
     stroke-linejoin="round"
     stroke-linecap="round"
     stroke-width="0.1"
     stroke="currentColor"
     x1="0.050000001"
     y1="3.776"
     x2="90.543602"
     y2="3.776"
     id="line22" />
  <line
     stroke-linejoin="round"
     stroke-linecap="round"
     stroke-width="0.1"
     stroke="currentColor"
     x1="0.050000001"
     y1="2.776"
     x2="90.543602"
     y2="2.776"
     id="line24" />
  <line
     stroke-linejoin="round"
     stroke-linecap="round"
     stroke-width="0.1"
     stroke="currentColor"
     x1="0.050000001"
     y1="1.776"
     x2="90.543602"
     y2="1.776"
     id="line26" />
  <text
     font-family="'Roboto Light'"
     font-size="2.2001px"
     text-anchor="start"
     fill="currentColor"
     id="text30"
     x="70.092003"
     y="10.9859"><tspan
       id="tspan28">G</tspan></text>
  <path
     d="m 70.7131,4.328 c -0.2,0 -0.276,0.172 -0.276,0.352 0,0.308 0.228,0.544 0.536,0.544 0.2,0 0.276,-0.172 0.276,-0.352 0,-0.308 -0.228,-0.544 -0.536,-0.544 z m 1.12,0.448 c 0,0.172 -0.14,0.304 -0.292,0.388 -0.212,0.12 -0.452,0.164 -0.696,0.164 -0.244,0 -0.488,-0.044 -0.7,-0.164 -0.152,-0.084 -0.292,-0.216 -0.292,-0.388 0,-0.172 0.14,-0.304 0.292,-0.388 0.212,-0.12 0.456,-0.164 0.7,-0.164 0.244,0 0.484,0.044 0.696,0.164 0.152,0.084 0.292,0.216 0.292,0.388 z"
     fill="currentColor"
     id="path32"
     style="stroke-width:0.004" />
  <text
     font-family="'Roboto Light'"
     font-size="2.2001px"
     text-anchor="start"
     fill="currentColor"
     id="text36"
     x="60.3862"
     y="10.9859"><tspan
       id="tspan34">F</tspan></text>
  <path
     d="m 60.8879,4.828 c -0.2,0 -0.276,0.172 -0.276,0.352 0,0.308 0.228,0.544 0.536,0.544 0.2,0 0.276,-0.172 0.276,-0.352 0,-0.308 -0.228,-0.544 -0.536,-0.544 z m 1.12,0.448 c 0,0.172 -0.14,0.304 -0.292,0.388 -0.212,0.12 -0.452,0.164 -0.696,0.164 -0.244,0 -0.488,-0.044 -0.7,-0.164 -0.152,-0.084 -0.292,-0.216 -0.292,-0.388 0,-0.172 0.14,-0.304 0.292,-0.388 0.212,-0.12 0.456,-0.164 0.7,-0.164 0.244,0 0.484,0.044 0.696,0.164 0.152,0.084 0.292,0.216 0.292,0.388 z"
     fill="currentColor"
     id="path38"
     style="stroke-width:0.004" />
  <text
     font-family="'Roboto Light'"
     font-size="2.2001px"
     text-anchor="start"
     fill="currentColor"
     id="text42"
     x="50.561001"
     y="10.9859"><tspan
       id="tspan40">E</tspan></text>
  <path
     d="m 51.0626,5.328 c -0.2,0 -0.276,0.172 -0.276,0.352 0,0.308 0.228,0.544 0.536,0.544 0.2,0 0.276,-0.172 0.276,-0.352 0,-0.308 -0.228,-0.544 -0.536,-0.544 z m 1.12,0.448 c 0,0.172 -0.14,0.304 -0.292,0.388 -0.212,0.12 -0.452,0.164 -0.696,0.164 -0.244,0 -0.488,-0.044 -0.7,-0.164 -0.152,-0.084 -0.292,-0.216 -0.292,-0.388 0,-0.172 0.14,-0.304 0.292,-0.388 0.212,-0.12 0.456,-0.164 0.7,-0.164 0.244,0 0.484,0.044 0.696,0.164 0.152,0.084 0.292,0.216 0.292,0.388 z"
     fill="currentColor"
     id="path44"
     style="stroke-width:0.004" />
  <path
     stroke-width="0.08"
     stroke-linejoin="round"
     stroke-linecap="round"
     stroke="currentColor"
     fill="currentColor"
     d="m 31.411975,7.9606293 c 0.0585,-0.043779 0.113153,-0.088658 0.163706,-0.1346233 -0.05074,0.042388 -0.10556,0.083796 -0.164236,0.1242113 z"
     id="path46" />
  <path
     stroke-width="0.08"
     stroke-linejoin="round"
     stroke-linecap="round"
     stroke="currentColor"
     fill="currentColor"
     d="m 30.904656,8.2681757 c 0.07628,-0.038207 0.149304,-0.077545 0.218835,-0.1179992 -0.07095,0.012582 -0.144124,0.048983 -0.220547,0.08436 z"
     id="path48" />
  <path
     stroke-width="0.08"
     stroke-linejoin="round"
     stroke-linecap="round"
     stroke="currentColor"
     fill="currentColor"
     d="m 30.275306,8.5333581 c 0.09105,-0.032482 0.17944,-0.066125 0.26494,-0.1009158 -0.08795,-0.013371 -0.176467,0.017868 -0.26763,0.048055 z"
     id="path50" />
  <path
     stroke-width="0.08"
     stroke-linejoin="round"
     stroke-linecap="round"
     stroke="currentColor"
     fill="currentColor"
     d="m 29.546486,8.7550285 c 0.102805,-0.026604 0.203559,-0.054399 0.302021,-0.083373 -0.101742,-0.035474 -0.202591,-0.00955 -0.305485,0.015295 z"
     id="path52" />
  <path
     stroke-width="0.08"
     stroke-linejoin="round"
     stroke-linecap="round"
     stroke="currentColor"
     fill="currentColor"
     d="m 28.740754,8.9320389 c 0.111556,-0.020573 0.221662,-0.042368 0.330078,-0.065371 -0.112321,-0.053725 -0.222495,-0.033265 -0.334113,-0.01392 z"
     id="path54" />
  <path
     stroke-width="0.08"
     stroke-linejoin="round"
     stroke-linecap="round"
     stroke="currentColor"
     fill="currentColor"
     d="m 27.88067,9.0632413 c 0.117298,-0.014389 0.233749,-0.03003 0.349112,-0.04691 -0.119688,-0.068124 -0.23618,-0.053284 -0.353514,-0.039589 z"
     id="path56" />
  <path
     stroke-width="0.08"
     stroke-linejoin="round"
     stroke-linecap="round"
     stroke="currentColor"
     fill="currentColor"
     d="m 26.988793,9.1474876 c 0.120034,-0.00805 0.239821,-0.017386 0.359122,-0.02799 -0.123844,-0.078672 -0.243645,-0.069604 -0.363687,-0.061713 z"
     id="path58" />
  <path
     stroke-width="0.08"
     stroke-linejoin="round"
     stroke-linecap="round"
     stroke="currentColor"
     fill="currentColor"
     d="m 26.087682,9.1836297 c 0.119761,-0.00156 0.239878,-0.00444 0.360109,-0.00861 -0.124788,-0.085369 -0.244891,-0.082227 -0.364633,-0.080293 z"
     id="path60" />
  <path
     stroke-width="0.08"
     stroke-linejoin="round"
     stroke-linecap="round"
     stroke="currentColor"
     fill="currentColor"
     d="m 25.199898,9.1705197 c 0.11648,0.00508 0.233918,0.00882 0.352071,0.011228 -0.12252,-0.088212 -0.239917,-0.09115 -0.356351,-0.095325 z"
     id="path62" />
  <path
     stroke-width="0.08"
     stroke-linejoin="round"
     stroke-linecap="round"
     stroke="currentColor"
     fill="currentColor"
     d="m 24.347999,9.1070095 c 0.110192,0.011879 0.221942,0.022384 0.33501,0.031526 C 24.565968,9.0513296 24.454286,9.04216 24.344168,9.0317226 Z"
     id="path64" />
  <path
     stroke-width="0.08"
     stroke-linejoin="round"
     stroke-linecap="round"
     stroke="currentColor"
     fill="currentColor"
     d="M 23.554546,8.991951 C 23.65544,9.01078 23.758495,9.028203 23.86347,9.044234 23.755121,8.9618867 23.652161,8.9463321 23.551366,8.929479 Z"
     id="path66" />
  <path
     stroke-width="0.08"
     stroke-linejoin="round"
     stroke-linecap="round"
     stroke="currentColor"
     fill="currentColor"
     d="m 22.842096,8.8241963 c 0.08859,0.025931 0.179942,0.050427 0.273816,0.073499 -0.09645,-0.073637 -0.187677,-0.09573 -0.276139,-0.1191516 z"
     id="path68" />
  <path
     stroke-width="0.08"
     stroke-linejoin="round"
     stroke-linecap="round"
     stroke="currentColor"
     fill="currentColor"
     d="m 22.23321,8.6025973 c 0.07328,0.033187 0.149919,0.064908 0.229683,0.095174 -0.08133,-0.061075 -0.157823,-0.089859 -0.230946,-0.120003 z"
     id="path70" />
  <path
     stroke-width="0.08"
     stroke-linejoin="round"
     stroke-linecap="round"
     stroke="currentColor"
     fill="currentColor"
     d="m 21.750448,8.326006 c 0.05496,0.040596 0.11388,0.079695 0.176526,0.1173091 -0.06301,-0.044662 -0.121751,-0.080291 -0.176526,-0.1173091 z"
     id="path72" />
  <path
     stroke-width="0.08"
     stroke-linejoin="round"
     stroke-linecap="round"
     stroke="currentColor"
     fill="currentColor"
     d="m 60.887675,6.4606293 c 0.0585,-0.043779 0.113153,-0.088658 0.163706,-0.1346233 -0.05074,0.042388 -0.10556,0.083796 -0.164236,0.1242113 z"
     id="path74" />
  <path
     stroke-width="0.08"
     stroke-linejoin="round"
     stroke-linecap="round"
     stroke="currentColor"
     fill="currentColor"
     d="m 60.380356,6.7681757 c 0.07628,-0.038208 0.149304,-0.077545 0.218835,-0.1179992 -0.07095,0.012582 -0.144124,0.048983 -0.220547,0.08436 z"
     id="path76" />
  <path
     stroke-width="0.08"
     stroke-linejoin="round"
     stroke-linecap="round"
     stroke="currentColor"
     fill="currentColor"
     d="m 59.751006,7.0333581 c 0.09105,-0.032482 0.17944,-0.066125 0.26494,-0.1009158 -0.08795,-0.013371 -0.176467,0.017868 -0.26763,0.048055 z"
     id="path78" />
  <path
     stroke-width="0.08"
     stroke-linejoin="round"
     stroke-linecap="round"
     stroke="currentColor"
     fill="currentColor"
     d="m 59.022186,7.2550285 c 0.102805,-0.026604 0.203559,-0.054399 0.302021,-0.083373 -0.101742,-0.035474 -0.202591,-0.00955 -0.305485,0.015295 z"
     id="path80" />
  <path
     stroke-width="0.08"
     stroke-linejoin="round"
     stroke-linecap="round"
     stroke="currentColor"
     fill="currentColor"
     d="m 58.216454,7.4320389 c 0.111556,-0.020573 0.221662,-0.042368 0.330078,-0.065371 -0.112321,-0.053725 -0.222495,-0.033265 -0.334113,-0.01392 z"
     id="path82" />
  <path
     stroke-width="0.08"
     stroke-linejoin="round"
     stroke-linecap="round"
     stroke="currentColor"
     fill="currentColor"
     d="m 57.35637,7.5632413 c 0.117298,-0.014389 0.233749,-0.03003 0.349112,-0.04691 -0.119688,-0.068124 -0.23618,-0.053284 -0.353514,-0.039589 z"
     id="path84" />
  <path
     stroke-width="0.08"
     stroke-linejoin="round"
     stroke-linecap="round"
     stroke="currentColor"
     fill="currentColor"
     d="m 56.464493,7.6474876 c 0.120034,-0.00805 0.239821,-0.017386 0.359122,-0.02799 -0.123844,-0.078672 -0.243645,-0.069604 -0.363687,-0.061713 z"
     id="path86" />
  <path
     stroke-width="0.08"
     stroke-linejoin="round"
     stroke-linecap="round"
     stroke="currentColor"
     fill="currentColor"
     d="m 55.563382,7.6836297 c 0.119761,-0.00156 0.239878,-0.00444 0.360109,-0.00861 -0.124788,-0.085369 -0.244891,-0.082227 -0.364633,-0.080292 z"
     id="path88" />
  <path
     stroke-width="0.08"
     stroke-linejoin="round"
     stroke-linecap="round"
     stroke="currentColor"
     fill="currentColor"
     d="m 54.675598,7.6705197 c 0.11648,0.00508 0.233917,0.00882 0.352071,0.011228 -0.12252,-0.088212 -0.239917,-0.09115 -0.356351,-0.095325 z"
     id="path90" />
  <path
     stroke-width="0.08"
     stroke-linejoin="round"
     stroke-linecap="round"
     stroke="currentColor"
     fill="currentColor"
     d="m 53.823699,7.6070095 c 0.110192,0.011879 0.221942,0.022384 0.33501,0.031526 C 54.041668,7.5513296 53.929986,7.54216 53.819868,7.5317226 Z"
     id="path92" />
  <path
     stroke-width="0.08"
     stroke-linejoin="round"
     stroke-linecap="round"
     stroke="currentColor"
     fill="currentColor"
     d="M 53.030246,7.491951 C 53.13114,7.51078 53.234195,7.528203 53.33917,7.544234 53.230821,7.4618867 53.127861,7.4463321 53.027066,7.429479 Z"
     id="path94" />
  <path
     stroke-width="0.08"
     stroke-linejoin="round"
     stroke-linecap="round"
     stroke="currentColor"
     fill="currentColor"
     d="m 52.317796,7.3241963 c 0.08859,0.025931 0.179942,0.050427 0.273816,0.073499 -0.09645,-0.073637 -0.187677,-0.09573 -0.276139,-0.1191516 z"
     id="path96" />
  <path
     stroke-width="0.08"
     stroke-linejoin="round"
     stroke-linecap="round"
     stroke="currentColor"
     fill="currentColor"
     d="m 51.70891,7.1025973 c 0.07328,0.033187 0.149919,0.064908 0.229683,0.095174 -0.08133,-0.061075 -0.157823,-0.089859 -0.230946,-0.120003 z"
     id="path98" />
  <path
     stroke-width="0.08"
     stroke-linejoin="round"
     stroke-linecap="round"
     stroke="currentColor"
     fill="currentColor"
     d="m 51.226148,6.826006 c 0.05496,0.040596 0.11388,0.079695 0.176526,0.1173091 -0.063,-0.044662 -0.121751,-0.080291 -0.176526,-0.1173091 z"
     id="path100" />
  <text
     font-family="'Roboto Light'"
     font-size="2.2001px"
     text-anchor="start"
     fill="currentColor"
     id="text104"
     x="79.985497"
     y="10.9859"><tspan
       id="tspan102">A</tspan></text>
  <path
     d="m 80.5383,3.828 c -0.2,0 -0.276,0.172 -0.276,0.352 0,0.308 0.228,0.544 0.536,0.544 0.2,0 0.276,-0.172 0.276,-0.352 0,-0.308 -0.228,-0.544 -0.536,-0.544 z m 1.12,0.448 c 0,0.172 -0.14,0.304 -0.292,0.388 -0.212,0.12 -0.452,0.164 -0.696,0.164 -0.244,0 -0.488,-0.044 -0.7,-0.164 -0.152,-0.084 -0.292,-0.216 -0.292,-0.388 0,-0.172 0.14,-0.304 0.292,-0.388 0.212,-0.12 0.456,-0.164 0.7,-0.164 0.244,0 0.484,0.044 0.696,0.164 0.152,0.084 0.292,0.216 0.292,0.388 z"
     fill="currentColor"
     id="path106"
     style="stroke-width:0.004" />
  <text
     font-family="'Roboto Slab Light'"
     font-size="2.2001px"
     text-anchor="start"
     fill="currentColor"
     id="text110"
     y="10.9859"><tspan
       id="tspan108">Lá menor:</tspan></text>
  <text
     font-family="'Roboto Light'"
     font-size="2.2001px"
     text-anchor="start"
     fill="currentColor"
     id="text114"
     x="11.2088"
     y="10.9859"><tspan
       id="tspan112">A</tspan></text>
  <path
     d="m 2.304,3.728 c 0.016,0 0.036,-0.004 0.052,-0.004 0.62,0 1.024,0.512 1.024,1.044 0,0.304 -0.132,0.616 -0.428,0.84 C 2.864,5.676 2.764,5.72 2.66,5.752 c 0.012,0.14 0.02,0.28 0.02,0.42 0,0.076 -0.004,0.156 -0.008,0.232 -0.028,0.48 -0.36,0.912 -0.832,0.912 -0.432,0 -0.78,-0.352 -0.78,-0.788 0,-0.232 0.212,-0.412 0.448,-0.412 0.216,0 0.38,0.188 0.38,0.412 0,0.208 -0.172,0.38 -0.38,0.38 C 1.464,6.908 1.424,6.9 1.384,6.884 1.488,7.04 1.656,7.144 1.852,7.144 2.236,7.144 2.48,6.776 2.504,6.38 2.508,6.308 2.512,6.232 2.512,6.16 2.512,6.036 2.508,5.916 2.496,5.792 2.38,5.812 2.264,5.824 2.14,5.824 1.388,5.824 0.808,5.136 0.808,4.328 0.808,3.62 1.332,3.104 1.8,2.564 1.724,2.316 1.652,2.064 1.62,1.804 1.596,1.596 1.592,1.388 1.592,1.18 1.592,0.72 1.812,0.284 2.188,0.012 2.2,0.004 2.216,0 2.228,0 2.244,0 2.256,0 2.268,0.012 2.552,0.348 2.8,0.992 2.8,1.444 2.8,2.016 2.456,2.464 2.08,2.9 2.164,3.172 2.236,3.452 2.304,3.728 Z m 0.34,1.86 C 2.916,5.492 3.096,5.208 3.096,4.932 3.096,4.572 2.832,4.216 2.404,4.172 2.5,4.636 2.588,5.096 2.644,5.588 Z M 1.096,4.664 c 0,0.54 0.516,0.988 1.056,0.988 0.112,0 0.22,-0.008 0.328,-0.024 C 2.424,5.12 2.332,4.648 2.228,4.172 1.912,4.204 1.732,4.416 1.732,4.648 c 0,0.176 0.1,0.364 0.324,0.492 0.02,0.02 0.028,0.04 0.028,0.06 0,0.044 -0.04,0.088 -0.088,0.088 C 1.984,5.288 1.972,5.284 1.96,5.28 1.64,5.108 1.492,4.82 1.492,4.54 1.492,4.188 1.724,3.844 2.132,3.752 2.076,3.52 2.016,3.284 1.948,3.052 1.52,3.536 1.096,4.024 1.096,4.664 Z M 2.432,0.596 C 2.036,0.788 1.784,1.192 1.784,1.632 c 0,0.296 0.072,0.532 0.144,0.776 0.32,-0.388 0.584,-0.792 0.584,-1.296 0,-0.22 -0.016,-0.316 -0.08,-0.516 z"
     fill="currentColor"
     id="path116"
     style="stroke-width:0.004" />
  <path
     d="m 11.7617,7.328 c -0.2,0 -0.276,0.172 -0.276,0.352 0,0.308 0.228,0.544 0.536,0.544 0.2,0 0.276,-0.172 0.276,-0.352 0,-0.308 -0.228,-0.544 -0.536,-0.544 z m 1.12,0.448 c 0,0.172 -0.14,0.304 -0.292,0.388 -0.212,0.12 -0.452,0.164 -0.696,0.164 -0.244,0 -0.488,-0.044 -0.7,-0.164 -0.152,-0.084 -0.292,-0.216 -0.292,-0.388 0,-0.172 0.14,-0.304 0.292,-0.388 0.212,-0.12 0.456,-0.164 0.7,-0.164 0.244,0 0.484,0.044 0.696,0.164 0.152,0.084 0.292,0.216 0.292,0.388 z"
     fill="currentColor"
     id="path118"
     style="stroke-width:0.004" />
  <text
     font-family="'Roboto Light'"
     font-size="2.2001px"
     text-anchor="start"
     fill="currentColor"
     id="text122"
     x="40.650398"
     y="10.9859"><tspan
       id="tspan120">D</tspan></text>
  <path
     d="m 41.2374,5.828 c -0.2,0 -0.276,0.172 -0.276,0.352 0,0.308 0.228,0.544 0.536,0.544 0.2,0 0.276,-0.172 0.276,-0.352 0,-0.308 -0.228,-0.544 -0.536,-0.544 z m 1.12,0.448 c 0,0.172 -0.14,0.304 -0.292,0.388 -0.212,0.12 -0.452,0.164 -0.696,0.164 -0.244,0 -0.488,-0.044 -0.7,-0.164 -0.152,-0.084 -0.292,-0.216 -0.292,-0.388 0,-0.172 0.14,-0.304 0.292,-0.388 0.212,-0.12 0.456,-0.164 0.7,-0.164 0.244,0 0.484,0.044 0.696,0.164 0.152,0.084 0.292,0.216 0.292,0.388 z"
     fill="currentColor"
     id="path124"
     style="stroke-width:0.004" />
  <text
     font-family="'Roboto Light'"
     font-size="2.2001px"
     text-anchor="start"
     fill="currentColor"
     id="text128"
     x="30.825199"
     y="10.9859"><tspan
       id="tspan126">C</tspan></text>
  <path
     d="m 31.4122,6.328 c -0.2,0 -0.276,0.172 -0.276,0.352 0,0.308 0.228,0.544 0.536,0.544 0.2,0 0.276,-0.172 0.276,-0.352 0,-0.308 -0.228,-0.544 -0.536,-0.544 z m 1.12,0.448 c 0,0.172 -0.14,0.304 -0.292,0.388 -0.212,0.12 -0.452,0.164 -0.696,0.164 -0.244,0 -0.488,-0.044 -0.7,-0.164 -0.152,-0.084 -0.292,-0.216 -0.292,-0.388 0,-0.172 0.14,-0.304 0.292,-0.388 0.212,-0.12 0.456,-0.164 0.7,-0.164 0.244,0 0.484,0.044 0.696,0.164 0.152,0.084 0.292,0.216 0.292,0.388 z"
     fill="currentColor"
     id="path130"
     style="stroke-width:0.004" />
  <path
     d="m 21.5869,6.828 c -0.2,0 -0.276,0.172 -0.276,0.352 0,0.308 0.228,0.544 0.536,0.544 0.2,0 0.276,-0.172 0.276,-0.352 0,-0.308 -0.228,-0.544 -0.536,-0.544 z m 1.12,0.448 c 0,0.172 -0.14,0.304 -0.292,0.388 -0.212,0.12 -0.452,0.164 -0.696,0.164 -0.244,0 -0.488,-0.044 -0.7,-0.164 -0.152,-0.084 -0.292,-0.216 -0.292,-0.388 0,-0.172 0.14,-0.304 0.292,-0.388 0.212,-0.12 0.456,-0.164 0.7,-0.164 0.244,0 0.484,0.044 0.696,0.164 0.152,0.084 0.292,0.216 0.292,0.388 z"
     fill="currentColor"
     id="path132"
     style="stroke-width:0.004" />
  <text
     font-family="'Roboto Light'"
     font-size="2.2001px"
     text-anchor="start"
     fill="currentColor"
     id="text136"
     x="21.0341"
     y="10.9859"><tspan
       id="tspan134">B</tspan></text>
</svg>
