<?xml version="1.0" encoding="UTF-8" standalone="no"?>
<svg
   version="1.2"
   width="159.20001mm"
   height="16.823675mm"
   viewBox="0 0 90.593601 9.5736001"
   id="svg170"
   xmlns="http://www.w3.org/2000/svg"
   xmlns:svg="http://www.w3.org/2000/svg">
  <defs
     id="defs174" />
  <!-- Page: 1/1 -->
  <text
     font-family="'Century Schoolbook L'"
     font-size="2.2001px"
     text-anchor="start"
     fill="currentColor"
     id="text4"
     y="-1"><tspan
       id="tspan2" /></text>
  <line
     stroke-linejoin="round"
     stroke-linecap="round"
     stroke-width="0.1"
     stroke="currentColor"
     x1="0.050000001"
     y1="5.776"
     x2="90.543602"
     y2="5.776"
     id="line6" />
  <line
     stroke-linejoin="round"
     stroke-linecap="round"
     stroke-width="0.1"
     stroke="currentColor"
     x1="0.050000001"
     y1="4.776"
     x2="90.543602"
     y2="4.776"
     id="line8" />
  <line
     stroke-linejoin="round"
     stroke-linecap="round"
     stroke-width="0.1"
     stroke="currentColor"
     x1="0.050000001"
     y1="3.776"
     x2="90.543602"
     y2="3.776"
     id="line10" />
  <line
     stroke-linejoin="round"
     stroke-linecap="round"
     stroke-width="0.1"
     stroke="currentColor"
     x1="0.050000001"
     y1="2.776"
     x2="90.543602"
     y2="2.776"
     id="line12" />
  <line
     stroke-linejoin="round"
     stroke-linecap="round"
     stroke-width="0.1"
     stroke="currentColor"
     x1="0.050000001"
     y1="1.776"
     x2="90.543602"
     y2="1.776"
     id="line14" />
  <rect
     x="89.993599"
     y="1.776"
     width="0.60000002"
     height="4"
     ry="0.0000"
     fill="currentColor"
     id="rect16" />
  <rect
     x="89.503601"
     y="1.776"
     width="0.19"
     height="4"
     ry="0.0000"
     fill="currentColor"
     id="rect18" />
  <text
     font-family="'Roboto Light'"
     font-size="2.2001px"
     text-anchor="start"
     fill="currentColor"
     id="text22"
     x="71.150597"
     y="9.276"><tspan
       id="tspan20">D</tspan></text>
  <path
     d="m 71.7376,2.328 c -0.2,0 -0.276,0.172 -0.276,0.352 0,0.308 0.228,0.544 0.536,0.544 0.2,0 0.276,-0.172 0.276,-0.352 0,-0.308 -0.228,-0.544 -0.536,-0.544 z m 1.12,0.448 c 0,0.172 -0.14,0.304 -0.292,0.388 -0.212,0.12 -0.452,0.164 -0.696,0.164 -0.244,0 -0.488,-0.044 -0.7,-0.164 -0.152,-0.084 -0.292,-0.216 -0.292,-0.388 0,-0.172 0.14,-0.304 0.292,-0.388 0.212,-0.12 0.456,-0.164 0.7,-0.164 0.244,0 0.484,0.044 0.696,0.164 0.152,0.084 0.292,0.216 0.292,0.388 z"
     fill="currentColor"
     id="path24"
     style="stroke-width:0.004" />
  <text
     font-family="'Roboto Light'"
     font-size="2.2001px"
     text-anchor="start"
     fill="currentColor"
     id="text28"
     x="61.837601"
     y="9.276"><tspan
       id="tspan26">C</tspan></text>
  <path
     d="m 62.4246,2.828 c -0.2,0 -0.276,0.172 -0.276,0.352 0,0.308 0.228,0.544 0.536,0.544 0.2,0 0.276,-0.172 0.276,-0.352 0,-0.308 -0.228,-0.544 -0.536,-0.544 z m 1.12,0.448 c 0,0.172 -0.14,0.304 -0.292,0.388 -0.212,0.12 -0.452,0.164 -0.696,0.164 -0.244,0 -0.488,-0.044 -0.7,-0.164 -0.152,-0.084 -0.292,-0.216 -0.292,-0.388 0,-0.172 0.14,-0.304 0.292,-0.388 0.212,-0.12 0.456,-0.164 0.7,-0.164 0.244,0 0.484,0.044 0.696,0.164 0.152,0.084 0.292,0.216 0.292,0.388 z"
     fill="currentColor"
     id="path30"
     style="stroke-width:0.004" />
  <path
     d="m 51.7015,3.776 c 0,-0.34 -0.044,-0.692 -0.24,-0.972 -0.008,-0.008 -0.012,-0.02 -0.012,-0.028 0,-0.028 0.024,-0.052 0.052,-0.052 0.016,0 0.028,0.008 0.04,0.024 0.212,0.304 0.36,0.656 0.36,1.028 0,0.372 -0.148,0.724 -0.36,1.028 -0.012,0.016 -0.024,0.024 -0.04,0.024 -0.028,0 -0.052,-0.024 -0.052,-0.052 0,-0.008 0.004,-0.02 0.012,-0.028 0.196,-0.28 0.24,-0.632 0.24,-0.972 z"
     fill="currentColor"
     id="path32"
     style="stroke-width:0.004" />
  <path
     d="m 49.9815,3.776 c 0,0.34 0.044,0.692 0.24,0.972 0.008,0.008 0.012,0.02 0.012,0.028 0,0.028 -0.024,0.052 -0.052,0.052 -0.016,0 -0.028,-0.008 -0.04,-0.024 -0.212,-0.304 -0.36,-0.656 -0.36,-1.028 0,-0.372 0.148,-0.724 0.36,-1.028 0.012,-0.016 0.024,-0.024 0.04,-0.024 0.028,0 0.052,0.024 0.052,0.052 0,0.008 -0.004,0.02 -0.012,0.028 -0.196,0.28 -0.24,0.632 -0.24,0.972 z"
     fill="currentColor"
     id="path34"
     style="stroke-width:0.004" />
  <path
     d="m 50.6095,3.612 -0.004,0.264 V 3.92 c 0,0.088 0.004,0.176 0.016,0.264 0.18,-0.152 0.372,-0.32 0.372,-0.556 0,-0.132 -0.056,-0.268 -0.172,-0.268 -0.124,0 -0.208,0.12 -0.212,0.252 z m -0.168,0.716 -0.048,-2.38 c 0.032,-0.02 0.072,-0.032 0.108,-0.032 0.036,0 0.076,0.012 0.108,0.032 l -0.028,1.38 c 0.1,-0.084 0.232,-0.136 0.364,-0.136 0.208,0 0.356,0.192 0.356,0.408 0,0.32 -0.344,0.468 -0.588,0.676 -0.06,0.052 -0.096,0.152 -0.18,0.152 -0.052,0 -0.092,-0.044 -0.092,-0.1 z"
     fill="currentColor"
     id="path36"
     style="stroke-width:0.004" />
  <text
     font-family="'Roboto Light'"
     font-size="2.2001px"
     text-anchor="start"
     fill="currentColor"
     id="text40"
     x="51.844601"
     y="9.276"><tspan
       id="tspan38">B</tspan></text>
  <path
     d="M 54.0302,8.8356 54.023,9.066 v 0.0396 c 0,0.0792 0.0072,0.1548 0.018,0.234 0.1584,-0.1368 0.3276,-0.288 0.3276,-0.4968 0,-0.1188 -0.0468,-0.2376 -0.1512,-0.2376 -0.1116,0 -0.1836,0.1116 -0.1872,0.2304 z M 53.8682,9.4764 53.825,7.3416 c 0.0324,-0.018 0.0648,-0.0288 0.1008,-0.0288 0.036,0 0.0684,0.0108 0.1008,0.0288 l -0.0252,1.2348 c 0.09,-0.0828 0.2088,-0.1296 0.3312,-0.1296 0.1836,0 0.3132,0.1764 0.3132,0.3708 0,0.2844 -0.3024,0.4212 -0.5184,0.6084 -0.0576,0.0504 -0.09,0.1476 -0.1692,0.1476 -0.0504,0 -0.09,-0.0468 -0.09,-0.0972 z"
     fill="currentColor"
     id="path42"
     style="stroke-width:0.0036" />
  <path
     d="m 53.1116,3.328 c -0.2,0 -0.276,0.172 -0.276,0.352 0,0.308 0.228,0.544 0.536,0.544 0.2,0 0.276,-0.172 0.276,-0.352 0,-0.308 -0.228,-0.544 -0.536,-0.544 z m 1.12,0.448 c 0,0.172 -0.14,0.304 -0.292,0.388 -0.212,0.12 -0.452,0.164 -0.696,0.164 -0.244,0 -0.488,-0.044 -0.7,-0.164 -0.152,-0.084 -0.292,-0.216 -0.292,-0.388 0,-0.172 0.14,-0.304 0.292,-0.388 0.212,-0.12 0.456,-0.164 0.7,-0.164 0.244,0 0.484,0.044 0.696,0.164 0.152,0.084 0.292,0.216 0.292,0.388 z"
     fill="currentColor"
     id="path44"
     style="stroke-width:0.004" />
  <path
     d="m 42.3885,4.276 c 0,-0.34 -0.044,-0.692 -0.24,-0.972 -0.008,-0.008 -0.012,-0.02 -0.012,-0.028 0,-0.028 0.024,-0.052 0.052,-0.052 0.016,0 0.028,0.008 0.04,0.024 0.212,0.304 0.36,0.656 0.36,1.028 0,0.372 -0.148,0.724 -0.36,1.028 -0.012,0.016 -0.024,0.024 -0.04,0.024 -0.028,0 -0.052,-0.024 -0.052,-0.052 0,-0.008 0.004,-0.02 0.012,-0.028 0.196,-0.28 0.24,-0.632 0.24,-0.972 z"
     fill="currentColor"
     id="path46"
     style="stroke-width:0.004" />
  <path
     d="m 40.6685,4.276 c 0,0.34 0.044,0.692 0.24,0.972 0.008,0.008 0.012,0.02 0.012,0.028 0,0.028 -0.024,0.052 -0.052,0.052 -0.016,0 -0.028,-0.008 -0.04,-0.024 -0.212,-0.304 -0.36,-0.656 -0.36,-1.028 0,-0.372 0.148,-0.724 0.36,-1.028 0.012,-0.016 0.024,-0.024 0.04,-0.024 0.028,0 0.052,0.024 0.052,0.052 0,0.008 -0.004,0.02 -0.012,0.028 -0.196,0.28 -0.24,0.632 -0.24,0.972 z"
     fill="currentColor"
     id="path48"
     style="stroke-width:0.004" />
  <path
     d="m 41.2965,4.112 -0.004,0.264 V 4.42 c 0,0.088 0.004,0.176 0.016,0.264 0.18,-0.152 0.372,-0.32 0.372,-0.556 0,-0.132 -0.056,-0.268 -0.172,-0.268 -0.124,0 -0.208,0.12 -0.212,0.252 z m -0.168,0.716 -0.048,-2.38 c 0.032,-0.02 0.072,-0.032 0.108,-0.032 0.036,0 0.076,0.012 0.108,0.032 l -0.028,1.38 c 0.1,-0.084 0.232,-0.136 0.364,-0.136 0.208,0 0.356,0.192 0.356,0.408 0,0.32 -0.344,0.468 -0.588,0.676 -0.06,0.052 -0.096,0.152 -0.18,0.152 -0.052,0 -0.092,-0.044 -0.092,-0.1 z"
     fill="currentColor"
     id="path50"
     style="stroke-width:0.004" />
  <path
     stroke-width="0.08"
     stroke-linejoin="round"
     stroke-linecap="round"
     stroke="currentColor"
     fill="currentColor"
     d="m 43.805148,5.471521 c 0.06069,-0.047317 0.117226,-0.095828 0.169314,-0.145515 -0.05236,0.045825 -0.109149,0.0906 -0.170097,0.1343039 z"
     id="path52" />
  <path
     stroke-width="0.08"
     stroke-linejoin="round"
     stroke-linecap="round"
     stroke="currentColor"
     fill="currentColor"
     d="m 43.276238,5.8036853 c 0.07976,-0.04122 0.156064,-0.083684 0.228621,-0.1273714 -0.07464,0.013823 -0.151159,0.053172 -0.231131,0.091403 z"
     id="path54" />
  <path
     stroke-width="0.08"
     stroke-linejoin="round"
     stroke-linecap="round"
     stroke="currentColor"
     fill="currentColor"
     d="m 42.617439,6.0892078 c 0.09533,-0.034879 0.187901,-0.07105 0.277426,-0.1084947 -0.0931,-0.013753 -0.185841,0.019928 -0.281338,0.05244 z"
     id="path56" />
  <path
     stroke-width="0.08"
     stroke-linejoin="round"
     stroke-linecap="round"
     stroke="currentColor"
     fill="currentColor"
     d="m 41.855005,6.3262562 c 0.1074,-0.028293 0.212737,-0.057928 0.31573,-0.088885 -0.107729,-0.036901 -0.213196,-0.00913 -0.320718,0.017415 z"
     id="path58" />
  <path
     stroke-width="0.08"
     stroke-linejoin="round"
     stroke-linecap="round"
     stroke="currentColor"
     fill="currentColor"
     d="m 41.01519,6.5129979 c 0.115967,-0.021464 0.230571,-0.044318 0.343532,-0.068543 -0.118534,-0.055623 -0.233225,-0.034014 -0.34927,-0.013672 z"
     id="path60" />
  <path
     stroke-width="0.08"
     stroke-linejoin="round"
     stroke-linecap="round"
     stroke="currentColor"
     fill="currentColor"
     d="m 40.124248,6.6476007 c 0.121034,-0.01439 0.241405,-0.030219 0.360832,-0.047467 -0.125511,-0.069917 -0.245925,-0.054711 -0.366994,-0.04082 z"
     id="path62" />
  <path
     stroke-width="0.08"
     stroke-linejoin="round"
     stroke-linecap="round"
     stroke="currentColor"
     fill="currentColor"
     d="m 39.208434,6.7282321 c 0.1226,-0.00707 0.245236,-0.015631 0.36763,-0.025659 -0.128662,-0.079785 -0.251299,-0.071225 -0.37389,-0.06403 z"
     id="path64" />
  <path
     stroke-width="0.08"
     stroke-linejoin="round"
     stroke-linecap="round"
     stroke="currentColor"
     fill="currentColor"
     d="m 38.294001,6.7530596 c 0.120665,4.914e-4 0.242068,-5.542e-4 0.363927,-0.00312 -0.127987,-0.085225 -0.249345,-0.083557 -0.369959,-0.083301 z"
     id="path66" />
  <path
     stroke-width="0.08"
     stroke-linejoin="round"
     stroke-linecap="round"
     stroke="currentColor"
     fill="currentColor"
     d="m 37.407204,6.720251 c 0.11523,0.0083 0.231898,0.015011 0.349722,0.020157 -0.123484,-0.086239 -0.240065,-0.091706 -0.3552,-0.098634 z"
     id="path68" />
  <path
     stroke-width="0.08"
     stroke-linejoin="round"
     stroke-linecap="round"
     stroke="currentColor"
     fill="currentColor"
     d="m 36.574297,6.6279737 c 0.106294,0.01635 0.214726,0.031065 0.325015,0.044164 C 36.784157,6.589312 36.675855,6.5764655 36.5697,6.562109 Z"
     id="path70" />
  <path
     stroke-width="0.08"
     stroke-linejoin="round"
     stroke-linecap="round"
     stroke="currentColor"
     fill="currentColor"
     d="m 35.821534,6.4743954 c 0.09386,0.024645 0.190554,0.047607 0.289807,0.068905 -0.103,-0.074986 -0.199522,-0.095457 -0.293198,-0.1174861 z"
     id="path72" />
  <path
     stroke-width="0.08"
     stroke-linejoin="round"
     stroke-linecap="round"
     stroke="currentColor"
     fill="currentColor"
     d="m 35.175169,6.2576836 c 0.07792,0.033185 0.159381,0.064638 0.244098,0.094378 -0.08702,-0.062719 -0.16826,-0.091058 -0.245956,-0.1210042 z"
     id="path74" />
  <path
     stroke-width="0.08"
     stroke-linejoin="round"
     stroke-linecap="round"
     stroke="currentColor"
     fill="currentColor"
     d="m 34.661457,5.976006 c 0.05849,0.041969 0.121207,0.082158 0.187886,0.1205842 -0.06721,-0.046025 -0.129671,-0.082476 -0.187886,-0.1205842 z"
     id="path76" />
  <path
     stroke-width="0.08"
     stroke-linejoin="round"
     stroke-linecap="round"
     stroke="currentColor"
     fill="currentColor"
     d="m 81.057248,3.5058111 c 0.06069,-0.058366 0.117226,-0.1183072 0.169314,-0.1798051 -0.05236,0.057636 -0.109149,0.1138409 -0.170097,0.1685941 z"
     id="path78" />
  <path
     stroke-width="0.08"
     stroke-linejoin="round"
     stroke-linecap="round"
     stroke="currentColor"
     fill="currentColor"
     d="m 80.528338,3.9136995 c 0.07976,-0.050364 0.156064,-0.1023526 0.228621,-0.1559465 -0.07464,0.023729 -0.151159,0.072604 -0.231131,0.1199778 z"
     id="path80" />
  <path
     stroke-width="0.08"
     stroke-linejoin="round"
     stroke-linecap="round"
     stroke="currentColor"
     fill="currentColor"
     d="m 79.869539,4.2606585 c 0.09533,-0.042118 0.187901,-0.085909 0.277426,-0.1313548 -0.0931,-0.00575 -0.185841,0.035549 -0.281338,0.0753 z"
     id="path82" />
  <path
     stroke-width="0.08"
     stroke-linejoin="round"
     stroke-linecap="round"
     stroke="currentColor"
     fill="currentColor"
     d="m 79.107105,4.5448558 c 0.1074,-0.033627 0.212737,-0.068977 0.31573,-0.1060303 -0.10773,-0.030805 -0.213196,0.00268 -0.320718,0.03456 z"
     id="path84" />
  <path
     stroke-width="0.08"
     stroke-linejoin="round"
     stroke-linecap="round"
     stroke="currentColor"
     fill="currentColor"
     d="m 78.26729,4.7644589 c 0.115967,-0.024893 0.230571,-0.051557 0.343531,-0.079973 -0.118533,-0.051431 -0.233224,-0.026013 -0.349269,-0.00224 z"
     id="path86" />
  <path
     stroke-width="0.08"
     stroke-linejoin="round"
     stroke-linecap="round"
     stroke="currentColor"
     fill="currentColor"
     d="m 77.376348,4.9176355 c 0.121034,-0.015914 0.241404,-0.033647 0.360832,-0.053182 -0.125511,-0.067631 -0.245925,-0.05052 -0.366994,-0.035105 z"
     id="path88" />
  <path
     stroke-width="0.08"
     stroke-linejoin="round"
     stroke-linecap="round"
     stroke="currentColor"
     fill="currentColor"
     d="m 76.460534,5.0025532 c 0.1226,-0.00669 0.245236,-0.01525 0.36763,-0.025659 -0.128662,-0.079404 -0.251299,-0.070844 -0.37389,-0.064029 z"
     id="path90" />
  <path
     stroke-width="0.08"
     stroke-linejoin="round"
     stroke-linecap="round"
     stroke="currentColor"
     fill="currentColor"
     d="m 75.546101,5.0173794 c 0.120665,0.00278 0.242068,0.00364 0.363927,0.0026 -0.127987,-0.08675 -0.249346,-0.086986 -0.369959,-0.089016 z"
     id="path92" />
  <path
     stroke-width="0.08"
     stroke-linejoin="round"
     stroke-linecap="round"
     stroke="currentColor"
     fill="currentColor"
     d="m 74.659304,4.9602819 c 0.11523,0.012489 0.231897,0.023012 0.349722,0.031587 -0.123484,-0.089668 -0.240065,-0.098945 -0.3552,-0.1100643 z"
     id="path94" />
  <path
     stroke-width="0.08"
     stroke-linejoin="round"
     stroke-linecap="round"
     stroke="currentColor"
     fill="currentColor"
     d="m 73.826397,4.8294282 c 0.106294,0.022446 0.214726,0.042876 0.325015,0.06131 C 74.036257,4.8025776 73.927955,4.7840161 73.8218,4.7635635 Z"
     id="path96" />
  <path
     stroke-width="0.08"
     stroke-linejoin="round"
     stroke-linecap="round"
     stroke="currentColor"
     fill="currentColor"
     d="m 73.073634,4.622986 c 0.09386,0.032646 0.190554,0.063228 0.289807,0.091765 -0.103,-0.082225 -0.199522,-0.1103155 -0.293198,-0.1403459 z"
     id="path98" />
  <path
     stroke-width="0.08"
     stroke-linejoin="round"
     stroke-linecap="round"
     stroke="currentColor"
     fill="currentColor"
     d="m 72.427269,4.3391227 c 0.07792,0.043091 0.159381,0.084069 0.244098,0.1229531 -0.08702,-0.071863 -0.168261,-0.1097268 -0.245956,-0.1495793 z"
     id="path100" />
  <path
     stroke-width="0.08"
     stroke-linejoin="round"
     stroke-linecap="round"
     stroke="currentColor"
     fill="currentColor"
     d="m 71.913557,3.976006 c 0.05849,0.053781 0.121207,0.1053988 0.187886,0.1548744 C 72.034233,4.0738062 71.971772,4.025925 71.913557,3.976006 Z"
     id="path102" />
  <path
     d="m 79.6406,2.276 c 0,-0.34 -0.044,-0.692 -0.24,-0.972 -0.008,-0.008 -0.012,-0.02 -0.012,-0.028 0,-0.028 0.024,-0.052 0.052,-0.052 0.016,0 0.028,0.008 0.04,0.024 0.212,0.304 0.36,0.656 0.36,1.028 0,0.372 -0.148,0.724 -0.36,1.028 -0.012,0.016 -0.024,0.024 -0.04,0.024 -0.028,0 -0.052,-0.024 -0.052,-0.052 0,-0.008 0.004,-0.02 0.012,-0.028 0.196,-0.28 0.24,-0.632 0.24,-0.972 z"
     fill="currentColor"
     id="path104"
     style="stroke-width:0.004" />
  <path
     d="m 77.9205,2.276 c 0,0.34 0.044,0.692 0.24,0.972 0.008,0.008 0.012,0.02 0.012,0.028 0,0.028 -0.024,0.052 -0.052,0.052 -0.016,0 -0.028,-0.008 -0.04,-0.024 -0.212,-0.304 -0.36,-0.656 -0.36,-1.028 0,-0.372 0.148,-0.724 0.36,-1.028 0.012,-0.016 0.024,-0.024 0.04,-0.024 0.028,0 0.052,0.024 0.052,0.052 0,0.008 -0.004,0.02 -0.012,0.028 -0.196,0.28 -0.24,0.632 -0.24,0.972 z"
     fill="currentColor"
     id="path106"
     style="stroke-width:0.004" />
  <path
     d="m 78.5486,2.112 -0.004,0.264 V 2.42 c 0,0.088 0.004,0.176 0.016,0.264 0.18,-0.152 0.372,-0.32 0.372,-0.556 0,-0.132 -0.056,-0.268 -0.172,-0.268 -0.124,0 -0.208,0.12 -0.212,0.252 z m -0.168,0.716 -0.048,-2.38 c 0.032,-0.02 0.072,-0.032 0.108,-0.032 0.036,0 0.076,0.012 0.108,0.032 l -0.028,1.38 c 0.1,-0.084 0.232,-0.136 0.364,-0.136 0.208,0 0.356,0.192 0.356,0.408 0,0.32 -0.344,0.468 -0.588,0.676 -0.06,0.052 -0.096,0.152 -0.18,0.152 -0.052,0 -0.092,-0.044 -0.092,-0.1 z"
     fill="currentColor"
     id="path108"
     style="stroke-width:0.004" />
  <text
     font-family="'Roboto Light'"
     font-size="2.2001px"
     text-anchor="start"
     fill="currentColor"
     id="text112"
     x="79.834801"
     y="9.276"><tspan
       id="tspan110">E</tspan></text>
  <path
     d="M 81.918,8.8356 81.9108,9.066 v 0.0396 c 0,0.0792 0.0072,0.1548 0.018,0.234 0.1584,-0.1368 0.3276,-0.288 0.3276,-0.4968 0,-0.1188 -0.0468,-0.2376 -0.1512,-0.2376 -0.1116,0 -0.1836,0.1116 -0.1872,0.2304 z M 81.756,9.4764 81.7128,7.3416 c 0.0324,-0.018 0.0648,-0.0288 0.1008,-0.0288 0.036,0 0.0684,0.0108 0.1008,0.0288 l -0.0252,1.2348 c 0.09,-0.0828 0.2088,-0.1296 0.3312,-0.1296 0.1836,0 0.3132,0.1764 0.3132,0.3708 0,0.2844 -0.3024,0.4212 -0.5184,0.6084 -0.0576,0.0504 -0.09,0.1476 -0.1692,0.1476 -0.0504,0 -0.09,-0.0468 -0.09,-0.0972 z"
     fill="currentColor"
     id="path114"
     style="stroke-width:0.0036" />
  <path
     d="m 81.0506,1.828 c -0.2,0 -0.276,0.172 -0.276,0.352 0,0.308 0.228,0.544 0.536,0.544 0.2,0 0.276,-0.172 0.276,-0.352 0,-0.308 -0.228,-0.544 -0.536,-0.544 z m 1.12,0.448 c 0,0.172 -0.14,0.304 -0.292,0.388 -0.212,0.12 -0.452,0.164 -0.696,0.164 -0.244,0 -0.488,-0.044 -0.7,-0.164 -0.152,-0.084 -0.292,-0.216 -0.292,-0.388 0,-0.172 0.14,-0.304 0.292,-0.388 0.212,-0.12 0.456,-0.164 0.7,-0.164 0.244,0 0.484,0.044 0.696,0.164 0.152,0.084 0.292,0.216 0.292,0.388 z"
     fill="currentColor"
     id="path116"
     style="stroke-width:0.004" />
  <path
     d="m 14.4495,5.776 c 0,-0.34 -0.044,-0.692 -0.24,-0.972 -0.008,-0.008 -0.012,-0.02 -0.012,-0.028 0,-0.028 0.024,-0.052 0.052,-0.052 0.016,0 0.028,0.008 0.04,0.024 0.212,0.304 0.36,0.656 0.36,1.028 0,0.372 -0.148,0.724 -0.36,1.028 -0.012,0.016 -0.024,0.024 -0.04,0.024 -0.028,0 -0.052,-0.024 -0.052,-0.052 0,-0.008 0.004,-0.02 0.012,-0.028 0.196,-0.28 0.24,-0.632 0.24,-0.972 z"
     fill="currentColor"
     id="path118"
     style="stroke-width:0.004" />
  <path
     d="m 12.7295,5.776 c 0,0.34 0.044,0.692 0.24,0.972 0.008,0.008 0.012,0.02 0.012,0.028 0,0.028 -0.024,0.052 -0.052,0.052 -0.016,0 -0.028,-0.008 -0.04,-0.024 -0.212,-0.304 -0.36,-0.656 -0.36,-1.028 0,-0.372 0.148,-0.724 0.36,-1.028 0.012,-0.016 0.024,-0.024 0.04,-0.024 0.028,0 0.052,0.024 0.052,0.052 0,0.008 -0.004,0.02 -0.012,0.028 -0.196,0.28 -0.24,0.632 -0.24,0.972 z"
     fill="currentColor"
     id="path120"
     style="stroke-width:0.004" />
  <path
     d="m 13.3575,5.612 -0.004,0.264 V 5.92 c 0,0.088 0.004,0.176 0.016,0.264 0.18,-0.152 0.372,-0.32 0.372,-0.556 0,-0.132 -0.056,-0.268 -0.172,-0.268 -0.124,0 -0.208,0.12 -0.212,0.252 z m -0.168,0.716 -0.048,-2.38 c 0.032,-0.02 0.072,-0.032 0.108,-0.032 0.036,0 0.076,0.012 0.108,0.032 l -0.028,1.38 c 0.1,-0.084 0.232,-0.136 0.364,-0.136 0.208,0 0.356,0.192 0.356,0.408 0,0.32 -0.344,0.468 -0.588,0.676 -0.06,0.052 -0.096,0.152 -0.18,0.152 -0.052,0 -0.092,-0.044 -0.092,-0.1 z"
     fill="currentColor"
     id="path122"
     style="stroke-width:0.004" />
  <text
     font-family="'Roboto Slab Light'"
     font-size="2.2001px"
     text-anchor="start"
     fill="currentColor"
     id="text126"
     x="3.865"
     y="9.276"><tspan
       id="tspan124">E</tspan></text>
  <path
     d="M 6.0507,8.8356 6.0435,9.066 v 0.0396 c 0,0.0792 0.0072,0.1548 0.018,0.234 0.1584,-0.1368 0.3276,-0.288 0.3276,-0.4968 0,-0.1188 -0.0468,-0.2376 -0.1512,-0.2376 -0.1116,0 -0.1836,0.1116 -0.1872,0.2304 z M 5.8887,9.4764 5.8455,7.3416 c 0.0324,-0.018 0.0648,-0.0288 0.1008,-0.0288 0.036,0 0.0684,0.0108 0.1008,0.0288 L 6.0219,8.5764 c 0.09,-0.0828 0.2088,-0.1296 0.3312,-0.1296 0.1836,0 0.3132,0.1764 0.3132,0.3708 0,0.2844 -0.3024,0.4212 -0.5184,0.6084 -0.0576,0.0504 -0.09,0.1476 -0.1692,0.1476 -0.0504,0 -0.09,-0.0468 -0.09,-0.0972 z"
     fill="currentColor"
     id="path128"
     style="stroke-width:0.0036" />
  <text
     font-family="'Roboto Slab Light'"
     font-size="2.2001px"
     text-anchor="start"
     fill="currentColor"
     id="text132"
     x="7.2589998"
     y="9.276"><tspan
       id="tspan130">Maior:</tspan></text>
  <text
     font-family="'Roboto Light'"
     font-size="2.2001px"
     text-anchor="start"
     fill="currentColor"
     id="text136"
     x="14.6438"
     y="9.276"><tspan
       id="tspan134">E</tspan></text>
  <path
     d="M 16.727,8.8356 16.7198,9.066 v 0.0396 c 0,0.0792 0.0072,0.1548 0.018,0.234 0.1584,-0.1368 0.3276,-0.288 0.3276,-0.4968 0,-0.1188 -0.0468,-0.2376 -0.1512,-0.2376 -0.1116,0 -0.1836,0.1116 -0.1872,0.2304 z M 16.565,9.4764 16.5218,7.3416 c 0.0324,-0.018 0.0648,-0.0288 0.1008,-0.0288 0.036,0 0.0684,0.0108 0.1008,0.0288 l -0.0252,1.2348 c 0.09,-0.0828 0.2088,-0.1296 0.3312,-0.1296 0.1836,0 0.3132,0.1764 0.3132,0.3708 0,0.2844 -0.3024,0.4212 -0.5184,0.6084 -0.0576,0.0504 -0.09,0.1476 -0.1692,0.1476 -0.0504,0 -0.09,-0.0468 -0.09,-0.0972 z"
     fill="currentColor"
     id="path138"
     style="stroke-width:0.0036" />
  <path
     d="M 4.528,3.612 4.524,3.876 V 3.92 c 0,0.088 0.004,0.176 0.016,0.264 C 4.72,4.032 4.912,3.864 4.912,3.628 4.912,3.496 4.856,3.36 4.74,3.36 4.616,3.36 4.532,3.48 4.528,3.612 Z M 4.36,4.328 4.312,1.948 C 4.344,1.928 4.384,1.916 4.42,1.916 c 0.036,0 0.076,0.012 0.108,0.032 L 4.5,3.328 C 4.6,3.244 4.732,3.192 4.864,3.192 5.072,3.192 5.22,3.384 5.22,3.6 5.22,3.92 4.876,4.068 4.632,4.276 4.572,4.328 4.536,4.428 4.452,4.428 4.4,4.428 4.36,4.384 4.36,4.328 Z"
     fill="currentColor"
     id="path140"
     style="stroke-width:0.004" />
  <path
     d="M 5.448,2.112 5.444,2.376 V 2.42 c 0,0.088 0.004,0.176 0.016,0.264 C 5.64,2.532 5.832,2.364 5.832,2.128 5.832,1.996 5.776,1.86 5.66,1.86 5.536,1.86 5.452,1.98 5.448,2.112 Z M 5.28,2.828 5.232,0.448 C 5.264,0.428 5.304,0.416 5.34,0.416 c 0.036,0 0.076,0.012 0.108,0.032 L 5.42,1.828 C 5.52,1.744 5.652,1.692 5.784,1.692 5.992,1.692 6.14,1.884 6.14,2.1 6.14,2.42 5.796,2.568 5.552,2.776 5.492,2.828 5.456,2.928 5.372,2.928 5.32,2.928 5.28,2.884 5.28,2.828 Z"
     fill="currentColor"
     id="path142"
     style="stroke-width:0.004" />
  <path
     d="M 6.368,4.112 6.364,4.376 V 4.42 c 0,0.088 0.004,0.176 0.016,0.264 C 6.56,4.532 6.752,4.364 6.752,4.128 6.752,3.996 6.696,3.86 6.58,3.86 6.456,3.86 6.372,3.98 6.368,4.112 Z M 6.2,4.828 6.152,2.448 C 6.184,2.428 6.224,2.416 6.26,2.416 c 0.036,0 0.076,0.012 0.108,0.032 L 6.34,3.828 C 6.44,3.744 6.572,3.692 6.704,3.692 6.912,3.692 7.06,3.884 7.06,4.1 7.06,4.42 6.716,4.568 6.472,4.776 6.412,4.828 6.376,4.928 6.292,4.928 6.24,4.928 6.2,4.884 6.2,4.828 Z"
     fill="currentColor"
     id="path144"
     style="stroke-width:0.004" />
  <path
     d="m 2.304,3.728 c 0.016,0 0.036,-0.004 0.052,-0.004 0.62,0 1.024,0.512 1.024,1.044 0,0.304 -0.132,0.616 -0.428,0.84 C 2.864,5.676 2.764,5.72 2.66,5.752 c 0.012,0.14 0.02,0.28 0.02,0.42 0,0.076 -0.004,0.156 -0.008,0.232 -0.028,0.48 -0.36,0.912 -0.832,0.912 -0.432,0 -0.78,-0.352 -0.78,-0.788 0,-0.232 0.212,-0.412 0.448,-0.412 0.216,0 0.38,0.188 0.38,0.412 0,0.208 -0.172,0.38 -0.38,0.38 C 1.464,6.908 1.424,6.9 1.384,6.884 1.488,7.04 1.656,7.144 1.852,7.144 2.236,7.144 2.48,6.776 2.504,6.38 2.508,6.308 2.512,6.232 2.512,6.16 2.512,6.036 2.508,5.916 2.496,5.792 2.38,5.812 2.264,5.824 2.14,5.824 1.388,5.824 0.808,5.136 0.808,4.328 0.808,3.62 1.332,3.104 1.8,2.564 1.724,2.316 1.652,2.064 1.62,1.804 1.596,1.596 1.592,1.388 1.592,1.18 1.592,0.72 1.812,0.284 2.188,0.012 2.2,0.004 2.216,0 2.228,0 2.244,0 2.256,0 2.268,0.012 2.552,0.348 2.8,0.992 2.8,1.444 2.8,2.016 2.456,2.464 2.08,2.9 2.164,3.172 2.236,3.452 2.304,3.728 Z m 0.34,1.86 C 2.916,5.492 3.096,5.208 3.096,4.932 3.096,4.572 2.832,4.216 2.404,4.172 2.5,4.636 2.588,5.096 2.644,5.588 Z M 1.096,4.664 c 0,0.54 0.516,0.988 1.056,0.988 0.112,0 0.22,-0.008 0.328,-0.024 C 2.424,5.12 2.332,4.648 2.228,4.172 1.912,4.204 1.732,4.416 1.732,4.648 c 0,0.176 0.1,0.364 0.324,0.492 0.02,0.02 0.028,0.04 0.028,0.06 0,0.044 -0.04,0.088 -0.088,0.088 C 1.984,5.288 1.972,5.284 1.96,5.28 1.64,5.108 1.492,4.82 1.492,4.54 1.492,4.188 1.724,3.844 2.132,3.752 2.076,3.52 2.016,3.284 1.948,3.052 1.52,3.536 1.096,4.024 1.096,4.664 Z M 2.432,0.596 C 2.036,0.788 1.784,1.192 1.784,1.632 c 0,0.296 0.072,0.532 0.144,0.776 0.32,-0.388 0.584,-0.792 0.584,-1.296 0,-0.22 -0.016,-0.316 -0.08,-0.516 z"
     fill="currentColor"
     id="path146"
     style="stroke-width:0.004" />
  <path
     d="m 15.8595,5.328 c -0.2,0 -0.276,0.172 -0.276,0.352 0,0.308 0.228,0.544 0.536,0.544 0.2,0 0.276,-0.172 0.276,-0.352 0,-0.308 -0.228,-0.544 -0.536,-0.544 z m 1.12,0.448 c 0,0.172 -0.14,0.304 -0.292,0.388 -0.212,0.12 -0.452,0.164 -0.696,0.164 -0.244,0 -0.488,-0.044 -0.7,-0.164 -0.152,-0.084 -0.292,-0.216 -0.292,-0.388 0,-0.172 0.14,-0.304 0.292,-0.388 0.212,-0.12 0.456,-0.164 0.7,-0.164 0.244,0 0.484,0.044 0.696,0.164 0.152,0.084 0.292,0.216 0.292,0.388 z"
     fill="currentColor"
     id="path148"
     style="stroke-width:0.004" />
  <text
     font-family="'Roboto Light'"
     font-size="2.2001px"
     text-anchor="start"
     fill="currentColor"
     id="text152"
     x="42.531601"
     y="9.276"><tspan
       id="tspan150">A</tspan></text>
  <path
     d="M 44.7172,8.8356 44.71,9.066 v 0.0396 c 0,0.0792 0.0072,0.1548 0.018,0.234 0.1584,-0.1368 0.3276,-0.288 0.3276,-0.4968 0,-0.1188 -0.0468,-0.2376 -0.1512,-0.2376 -0.1116,0 -0.1836,0.1116 -0.1872,0.2304 z M 44.5552,9.4764 44.512,7.3416 c 0.0324,-0.018 0.0648,-0.0288 0.1008,-0.0288 0.036,0 0.0684,0.0108 0.1008,0.0288 l -0.0252,1.2348 c 0.09,-0.0828 0.2088,-0.1296 0.3312,-0.1296 0.1836,0 0.3132,0.1764 0.3132,0.3708 0,0.2844 -0.3024,0.4212 -0.5184,0.6084 -0.0576,0.0504 -0.09,0.1476 -0.1692,0.1476 -0.0504,0 -0.09,-0.0468 -0.09,-0.0972 z"
     fill="currentColor"
     id="path154"
     style="stroke-width:0.0036" />
  <path
     d="m 43.7986,3.828 c -0.2,0 -0.276,0.172 -0.276,0.352 0,0.308 0.228,0.544 0.536,0.544 0.2,0 0.276,-0.172 0.276,-0.352 0,-0.308 -0.228,-0.544 -0.536,-0.544 z m 1.12,0.448 c 0,0.172 -0.14,0.304 -0.292,0.388 -0.212,0.12 -0.452,0.164 -0.696,0.164 -0.244,0 -0.488,-0.044 -0.7,-0.164 -0.152,-0.084 -0.292,-0.216 -0.292,-0.388 0,-0.172 0.14,-0.304 0.292,-0.388 0.212,-0.12 0.456,-0.164 0.7,-0.164 0.244,0 0.484,0.044 0.696,0.164 0.152,0.084 0.292,0.216 0.292,0.388 z"
     fill="currentColor"
     id="path156"
     style="stroke-width:0.004" />
  <text
     font-family="'Roboto Light'"
     font-size="2.2001px"
     text-anchor="start"
     fill="currentColor"
     id="text160"
     x="33.864399"
     y="9.276"><tspan
       id="tspan158">G</tspan></text>
  <path
     d="m 34.4855,4.328 c -0.2,0 -0.276,0.172 -0.276,0.352 0,0.308 0.228,0.544 0.536,0.544 0.2,0 0.276,-0.172 0.276,-0.352 0,-0.308 -0.228,-0.544 -0.536,-0.544 z m 1.12,0.448 c 0,0.172 -0.14,0.304 -0.292,0.388 -0.212,0.12 -0.452,0.164 -0.696,0.164 -0.244,0 -0.488,-0.044 -0.7,-0.164 -0.152,-0.084 -0.292,-0.216 -0.292,-0.388 0,-0.172 0.14,-0.304 0.292,-0.388 0.212,-0.12 0.456,-0.164 0.7,-0.164 0.244,0 0.484,0.044 0.696,0.164 0.152,0.084 0.292,0.216 0.292,0.388 z"
     fill="currentColor"
     id="path162"
     style="stroke-width:0.004" />
  <path
     d="m 25.1725,4.828 c -0.2,0 -0.276,0.172 -0.276,0.352 0,0.308 0.228,0.544 0.536,0.544 0.2,0 0.276,-0.172 0.276,-0.352 0,-0.308 -0.228,-0.544 -0.536,-0.544 z m 1.12,0.448 c 0,0.172 -0.14,0.304 -0.292,0.388 -0.212,0.12 -0.452,0.164 -0.696,0.164 -0.244,0 -0.488,-0.044 -0.7,-0.164 -0.152,-0.084 -0.292,-0.216 -0.292,-0.388 0,-0.172 0.14,-0.304 0.292,-0.388 0.212,-0.12 0.456,-0.164 0.7,-0.164 0.244,0 0.484,0.044 0.696,0.164 0.152,0.084 0.292,0.216 0.292,0.388 z"
     fill="currentColor"
     id="path164"
     style="stroke-width:0.004" />
  <text
     font-family="'Roboto Light'"
     font-size="2.2001px"
     text-anchor="start"
     fill="currentColor"
     id="text168"
     x="24.6709"
     y="9.276"><tspan
       id="tspan166">F</tspan></text>
</svg>
