<?xml version="1.0" encoding="UTF-8" standalone="no"?>
<svg
   version="1.2"
   width="159.20001mm"
   height="22.454086mm"
   viewBox="0 0 90.593601 12.777615"
   id="svg160"
   xmlns="http://www.w3.org/2000/svg"
   xmlns:svg="http://www.w3.org/2000/svg">
  <defs
     id="defs164" />
  <!-- Page: 1/1 -->
  <text
     font-family="'Century Schoolbook L'"
     font-size="2.2001px"
     text-anchor="start"
     fill="currentColor"
     id="text4"
     y="-1"><tspan
       id="tspan2" /></text>
  <rect
     x="17.593901"
     y="6.6760001"
     width="2.97"
     height="0.2"
     ry="0.1"
     fill="currentColor"
     id="rect6" />
  <line
     stroke-linejoin="round"
     stroke-linecap="round"
     stroke-width="0.1"
     stroke="currentColor"
     x1="0.050000001"
     y1="5.776"
     x2="90.543602"
     y2="5.776"
     id="line8" />
  <line
     stroke-linejoin="round"
     stroke-linecap="round"
     stroke-width="0.1"
     stroke="currentColor"
     x1="0.050000001"
     y1="4.776"
     x2="90.543602"
     y2="4.776"
     id="line10" />
  <line
     stroke-linejoin="round"
     stroke-linecap="round"
     stroke-width="0.1"
     stroke="currentColor"
     x1="0.050000001"
     y1="3.776"
     x2="90.543602"
     y2="3.776"
     id="line12" />
  <line
     stroke-linejoin="round"
     stroke-linecap="round"
     stroke-width="0.1"
     stroke="currentColor"
     x1="0.050000001"
     y1="2.776"
     x2="90.543602"
     y2="2.776"
     id="line14" />
  <line
     stroke-linejoin="round"
     stroke-linecap="round"
     stroke-width="0.1"
     stroke="currentColor"
     x1="0.050000001"
     y1="1.776"
     x2="90.543602"
     y2="1.776"
     id="line16" />
  <rect
     x="89.993599"
     y="1.776"
     width="0.60000002"
     height="4"
     ry="0.0000"
     fill="currentColor"
     id="rect18" />
  <rect
     x="89.503601"
     y="1.776"
     width="0.19"
     height="4"
     ry="0.0000"
     fill="currentColor"
     id="rect20" />
  <text
     font-family="'Roboto Light'"
     font-size="2.2001px"
     text-anchor="start"
     fill="currentColor"
     id="text24"
     x="71.7351"
     y="12.3232"><tspan
       id="tspan22">Si</tspan></text>
  <text
     font-family="'Roboto Light'"
     font-size="2.2001px"
     text-anchor="start"
     fill="currentColor"
     id="text28"
     x="71.957001"
     y="9.5232"><tspan
       id="tspan26">B</tspan></text>
  <path
     d="m 72.5099,3.328 c -0.2,0 -0.276,0.172 -0.276,0.352 0,0.308 0.228,0.544 0.536,0.544 0.2,0 0.276,-0.172 0.276,-0.352 0,-0.308 -0.228,-0.544 -0.536,-0.544 z m 1.12,0.448 c 0,0.172 -0.14,0.304 -0.292,0.388 -0.212,0.12 -0.452,0.164 -0.696,0.164 -0.244,0 -0.488,-0.044 -0.7,-0.164 -0.152,-0.084 -0.292,-0.216 -0.292,-0.388 0,-0.172 0.14,-0.304 0.292,-0.388 0.212,-0.12 0.456,-0.164 0.7,-0.164 0.244,0 0.484,0.044 0.696,0.164 0.152,0.084 0.292,0.216 0.292,0.388 z"
     fill="currentColor"
     id="path30"
     style="stroke-width:0.004" />
  <text
     font-family="'Roboto Light'"
     font-size="2.2001px"
     text-anchor="start"
     fill="currentColor"
     id="text34"
     x="62.535099"
     y="12.3232"><tspan
       id="tspan32">Lá</tspan></text>
  <text
     font-family="'Roboto Light'"
     font-size="2.2001px"
     text-anchor="start"
     fill="currentColor"
     id="text38"
     x="63.030201"
     y="9.5232"><tspan
       id="tspan36">A</tspan></text>
  <path
     d="m 63.5831,3.828 c -0.2,0 -0.276,0.172 -0.276,0.352 0,0.308 0.228,0.544 0.536,0.544 0.2,0 0.276,-0.172 0.276,-0.352 0,-0.308 -0.228,-0.544 -0.536,-0.544 z m 1.12,0.448 c 0,0.172 -0.14,0.304 -0.292,0.388 -0.212,0.12 -0.452,0.164 -0.696,0.164 -0.244,0 -0.488,-0.044 -0.7,-0.164 -0.152,-0.084 -0.292,-0.216 -0.292,-0.388 0,-0.172 0.14,-0.304 0.292,-0.388 0.212,-0.12 0.456,-0.164 0.7,-0.164 0.244,0 0.484,0.044 0.696,0.164 0.152,0.084 0.292,0.216 0.292,0.388 z"
     fill="currentColor"
     id="path40"
     style="stroke-width:0.004" />
  <text
     font-family="'Roboto Light'"
     font-size="2.2001px"
     text-anchor="start"
     fill="currentColor"
     id="text44"
     x="53.266899"
     y="12.3232"><tspan
       id="tspan42">Sol</tspan></text>
  <text
     font-family="'Roboto Light'"
     font-size="2.2001px"
     text-anchor="start"
     fill="currentColor"
     id="text48"
     x="54.035099"
     y="9.5232"><tspan
       id="tspan46">G</tspan></text>
  <path
     d="m 54.6562,4.328 c -0.2,0 -0.276,0.172 -0.276,0.352 0,0.308 0.228,0.544 0.536,0.544 0.2,0 0.276,-0.172 0.276,-0.352 0,-0.308 -0.228,-0.544 -0.536,-0.544 z m 1.12,0.448 c 0,0.172 -0.14,0.304 -0.292,0.388 -0.212,0.12 -0.452,0.164 -0.696,0.164 -0.244,0 -0.488,-0.044 -0.7,-0.164 -0.152,-0.084 -0.292,-0.216 -0.292,-0.388 0,-0.172 0.14,-0.304 0.292,-0.388 0.212,-0.12 0.456,-0.164 0.7,-0.164 0.244,0 0.484,0.044 0.696,0.164 0.152,0.084 0.292,0.216 0.292,0.388 z"
     fill="currentColor"
     id="path50"
     style="stroke-width:0.004" />
  <path
     stroke-width="0.08"
     stroke-linejoin="round"
     stroke-linecap="round"
     stroke="currentColor"
     fill="currentColor"
     d="m 45.714088,6.4787096 c 0.06544,-0.049436 0.126303,-0.1003437 0.182263,-0.1527036 -0.0562,0.048156 -0.11729,0.095007 -0.182945,0.1405343 z"
     id="path52" />
  <path
     stroke-width="0.08"
     stroke-linejoin="round"
     stroke-linecap="round"
     stroke="currentColor"
     fill="currentColor"
     d="m 45.142917,6.8215991 c 0.08617,-0.041962 0.16862,-0.085442 0.247005,-0.1304216 -0.08019,0.01275 -0.162823,0.052911 -0.249174,0.091701 z"
     id="path54" />
  <path
     stroke-width="0.08"
     stroke-linejoin="round"
     stroke-linecap="round"
     stroke="currentColor"
     fill="currentColor"
     d="m 44.432046,7.1075431 c 0.10269,-0.034251 0.202498,-0.070067 0.299087,-0.1074307 -0.09965,-0.017361 -0.199607,0.015874 -0.302433,0.04769 z"
     id="path56" />
  <path
     stroke-width="0.08"
     stroke-linejoin="round"
     stroke-linecap="round"
     stroke="currentColor"
     fill="currentColor"
     d="m 43.613122,7.3347688 c 0.114987,-0.026303 0.227936,-0.05422 0.338511,-0.083731 -0.11459,-0.042178 -0.227643,-0.016105 -0.342724,0.0085 z"
     id="path58" />
  <path
     stroke-width="0.08"
     stroke-linejoin="round"
     stroke-linecap="round"
     stroke="currentColor"
     fill="currentColor"
     d="m 42.717793,7.5015037 c 0.123064,-0.01812 0.244935,-0.0379 0.365275,-0.059322 -0.124996,-0.061698 -0.246929,-0.043025 -0.370047,-0.025863 z"
     id="path60" />
  <path
     stroke-width="0.08"
     stroke-linejoin="round"
     stroke-linecap="round"
     stroke="currentColor"
     fill="currentColor"
     d="m 41.777705,7.6059751 c 0.126922,-0.0097 0.253495,-0.021107 0.379381,-0.034204 -0.130872,-0.075924 -0.257465,-0.064885 -0.3844,-0.055407 z"
     id="path62" />
  <path
     stroke-width="0.08"
     stroke-linejoin="round"
     stroke-linecap="round"
     stroke="currentColor"
     fill="currentColor"
     d="m 40.824507,7.6464105 c 0.12656,-0.00104 0.253615,-0.00384 0.380827,-0.00838 -0.132219,-0.084854 -0.259253,-0.081687 -0.385785,-0.080127 z"
     id="path64" />
  <path
     stroke-width="0.08"
     stroke-linejoin="round"
     stroke-linecap="round"
     stroke="currentColor"
     fill="currentColor"
     d="m 39.889845,7.6210373 c 0.121979,0.00785 0.245296,0.013896 0.369615,0.01816 -0.129036,-0.08849 -0.252292,-0.093431 -0.374201,-0.1000261 z"
     id="path66" />
  <path
     stroke-width="0.08"
     stroke-linejoin="round"
     stroke-linecap="round"
     stroke="currentColor"
     fill="currentColor"
     d="m 39.005367,7.5280828 c 0.113178,0.016978 0.228539,0.032107 0.345744,0.045405 -0.121324,-0.08683 -0.236581,-0.100115 -0.349648,-0.1151018 z"
     id="path68" />
  <path
     stroke-width="0.08"
     stroke-linejoin="round"
     stroke-linecap="round"
     stroke="currentColor"
     fill="currentColor"
     d="m 38.202721,7.3657745 c 0.100158,0.026344 0.203341,0.05079 0.309213,0.073359 -0.109082,-0.079875 -0.212121,-0.1017404 -0.312125,-0.125355 z"
     id="path70" />
  <path
     stroke-width="0.08"
     stroke-linejoin="round"
     stroke-linecap="round"
     stroke="currentColor"
     fill="currentColor"
     d="m 37.513554,7.1323398 c 0.08292,0.035945 0.169704,0.069946 0.260024,0.1020225 -0.09231,-0.067625 -0.178912,-0.098307 -0.261635,-0.1307863 z"
     id="path72" />
  <path
     stroke-width="0.08"
     stroke-linejoin="round"
     stroke-linecap="round"
     stroke="currentColor"
     fill="currentColor"
     d="m 36.969513,6.826006 c 0.06146,0.045783 0.127629,0.089575 0.198176,0.1313948 -0.07101,-0.05008 -0.136954,-0.089815 -0.198176,-0.1313948 z"
     id="path74" />
  <path
     stroke-width="0.08"
     stroke-linejoin="round"
     stroke-linecap="round"
     stroke="currentColor"
     fill="currentColor"
     d="m 81.43486,4.5207171 c 0.06465,-0.063045 0.124701,-0.1279574 0.179812,-0.1947111 -0.05542,0.062554 -0.115762,0.1234142 -0.180697,0.1825549 z"
     id="path76" />
  <path
     stroke-width="0.08"
     stroke-linejoin="round"
     stroke-linecap="round"
     stroke="currentColor"
     fill="currentColor"
     d="m 80.868996,4.9581782 c 0.08554,-0.05356 0.167329,-0.1090471 0.245022,-0.1664379 -0.08004,0.025195 -0.162065,0.077368 -0.247839,0.1277592 z"
     id="path78" />
  <path
     stroke-width="0.08"
     stroke-linejoin="round"
     stroke-linecap="round"
     stroke="currentColor"
     fill="currentColor"
     d="m 80.16227,5.3233422 c 0.102213,-0.043766 0.201515,-0.089522 0.297567,-0.1372424 -0.100033,-0.00695 -0.199522,0.036232 -0.301913,0.077567 z"
     id="path80" />
  <path
     stroke-width="0.08"
     stroke-linejoin="round"
     stroke-linecap="round"
     stroke="currentColor"
     fill="currentColor"
     d="m 79.346348,5.6139034 c 0.114662,-0.033665 0.227256,-0.069382 0.337446,-0.1071246 -0.115404,-0.033868 -0.228132,6.3e-6 -0.342918,0.031977 z"
     id="path82" />
  <path
     stroke-width="0.08"
     stroke-linejoin="round"
     stroke-linecap="round"
     stroke="currentColor"
     fill="currentColor"
     d="m 78.452897,5.8275561 c 0.122888,-0.023257 0.244553,-0.048627 0.364657,-0.076084 -0.12615,-0.055573 -0.247895,-0.031308 -0.370853,-0.00901 z"
     id="path84" />
  <path
     stroke-width="0.08"
     stroke-linejoin="round"
     stroke-linecap="round"
     stroke="currentColor"
     fill="currentColor"
     d="m 77.513582,5.9619945 c 0.126892,-0.012542 0.253406,-0.027257 0.379203,-0.044122 -0.132272,-0.072059 -0.258813,-0.057712 -0.385721,-0.045392 z"
     id="path86" />
  <path
     stroke-width="0.08"
     stroke-linejoin="round"
     stroke-linecap="round"
     stroke="currentColor"
     fill="currentColor"
     d="m 76.560069,6.014913 c 0.126674,-0.00152 0.253814,-0.00527 0.381082,-0.011237 -0.13377,-0.083328 -0.260883,-0.079206 -0.387519,-0.077171 z"
     id="path88" />
  <path
     stroke-width="0.08"
     stroke-linejoin="round"
     stroke-linecap="round"
     stroke="currentColor"
     fill="currentColor"
     d="m 75.624024,5.9840058 c 0.122234,0.00981 0.245778,0.017327 0.370295,0.022569 -0.130643,-0.089378 -0.254107,-0.095788 -0.37625,-0.1043469 z"
     id="path90" />
  <path
     stroke-width="0.08"
     stroke-linejoin="round"
     stroke-linecap="round"
     stroke="currentColor"
     fill="currentColor"
     d="m 74.737112,5.8669672 c 0.113572,0.02145 0.229298,0.040541 0.346842,0.057299 -0.122892,-0.090211 -0.238485,-0.10746 -0.351912,-0.1269205 z"
     id="path92" />
  <path
     stroke-width="0.08"
     stroke-linejoin="round"
     stroke-linecap="round"
     stroke="currentColor"
     fill="currentColor"
     d="m 73.930999,5.6614916 c 0.100688,0.033395 0.204374,0.06437 0.310722,0.09295 -0.110516,-0.085824 -0.214015,-0.114221 -0.314504,-0.1448901 z"
     id="path94" />
  <path
     stroke-width="0.08"
     stroke-linejoin="round"
     stroke-linecap="round"
     stroke="currentColor"
     fill="currentColor"
     d="m 73.237351,5.365273 c 0.08358,0.045648 0.171006,0.088814 0.261937,0.1295242 -0.09352,-0.076221 -0.1807,-0.1160718 -0.264029,-0.1582569 z"
     id="path96" />
  <path
     stroke-width="0.08"
     stroke-linejoin="round"
     stroke-linecap="round"
     stroke="currentColor"
     fill="currentColor"
     d="m 72.687835,4.976006 c 0.06225,0.058208 0.129193,0.1138732 0.200484,0.1670202 -0.07189,-0.061399 -0.138537,-0.1130116 -0.200484,-0.1670202 z"
     id="path98" />
  <text
     font-family="'Roboto Light'"
     font-size="2.2001px"
     text-anchor="start"
     fill="currentColor"
     id="text102"
     x="80.218102"
     y="12.3232"><tspan
       id="tspan100">Dó</tspan></text>
  <text
     font-family="'Roboto Light'"
     font-size="2.2001px"
     text-anchor="start"
     fill="currentColor"
     id="text106"
     x="80.849701"
     y="9.5232"><tspan
       id="tspan104">C</tspan></text>
  <path
     d="m 81.4367,2.828 c -0.2,0 -0.276,0.172 -0.276,0.352 0,0.308 0.228,0.544 0.536,0.544 0.2,0 0.276,-0.172 0.276,-0.352 0,-0.308 -0.228,-0.544 -0.536,-0.544 z m 1.12,0.448 c 0,0.172 -0.14,0.304 -0.292,0.388 -0.212,0.12 -0.452,0.164 -0.696,0.164 -0.244,0 -0.488,-0.044 -0.7,-0.164 -0.152,-0.084 -0.292,-0.216 -0.292,-0.388 0,-0.172 0.14,-0.304 0.292,-0.388 0.212,-0.12 0.456,-0.164 0.7,-0.164 0.244,0 0.484,0.044 0.696,0.164 0.152,0.084 0.292,0.216 0.292,0.388 z"
     fill="currentColor"
     id="path108"
     style="stroke-width:0.004" />
  <text
     font-family="'Roboto Slab Light'"
     font-size="2.2001px"
     text-anchor="start"
     fill="currentColor"
     id="text112"
     x="5.9408998"
     y="12.3232"><tspan
       id="tspan110">Português:</tspan></text>
  <text
     font-family="'Roboto Light'"
     font-size="2.2001px"
     text-anchor="start"
     fill="currentColor"
     id="text116"
     x="17.7302"
     y="12.3232"><tspan
       id="tspan114">Dó</tspan></text>
  <text
     font-family="'Roboto Slab Light'"
     font-size="2.2001px"
     text-anchor="start"
     fill="currentColor"
     id="text120"
     y="9.5232"><tspan
       id="tspan118">Anglo-saxónico:</tspan></text>
  <text
     font-family="'Roboto Light'"
     font-size="2.2001px"
     text-anchor="start"
     fill="currentColor"
     id="text124"
     x="18.3619"
     y="9.5232"><tspan
       id="tspan122">C</tspan></text>
  <path
     d="m 2.304,3.728 c 0.016,0 0.036,-0.004 0.052,-0.004 0.62,0 1.024,0.512 1.024,1.044 0,0.304 -0.132,0.616 -0.428,0.84 C 2.864,5.676 2.764,5.72 2.66,5.752 c 0.012,0.14 0.02,0.28 0.02,0.42 0,0.076 -0.004,0.156 -0.008,0.232 -0.028,0.48 -0.36,0.912 -0.832,0.912 -0.432,0 -0.78,-0.352 -0.78,-0.788 0,-0.232 0.212,-0.412 0.448,-0.412 0.216,0 0.38,0.188 0.38,0.412 0,0.208 -0.172,0.38 -0.38,0.38 C 1.464,6.908 1.424,6.9 1.384,6.884 1.488,7.04 1.656,7.144 1.852,7.144 2.236,7.144 2.48,6.776 2.504,6.38 2.508,6.308 2.512,6.232 2.512,6.16 2.512,6.036 2.508,5.916 2.496,5.792 2.38,5.812 2.264,5.824 2.14,5.824 1.388,5.824 0.808,5.136 0.808,4.328 0.808,3.62 1.332,3.104 1.8,2.564 1.724,2.316 1.652,2.064 1.62,1.804 1.596,1.596 1.592,1.388 1.592,1.18 1.592,0.72 1.812,0.284 2.188,0.012 2.2,0.004 2.216,0 2.228,0 2.244,0 2.256,0 2.268,0.012 2.552,0.348 2.8,0.992 2.8,1.444 2.8,2.016 2.456,2.464 2.08,2.9 2.164,3.172 2.236,3.452 2.304,3.728 Z m 0.34,1.86 C 2.916,5.492 3.096,5.208 3.096,4.932 3.096,4.572 2.832,4.216 2.404,4.172 2.5,4.636 2.588,5.096 2.644,5.588 Z M 1.096,4.664 c 0,0.54 0.516,0.988 1.056,0.988 0.112,0 0.22,-0.008 0.328,-0.024 C 2.424,5.12 2.332,4.648 2.228,4.172 1.912,4.204 1.732,4.416 1.732,4.648 c 0,0.176 0.1,0.364 0.324,0.492 0.02,0.02 0.028,0.04 0.028,0.06 0,0.044 -0.04,0.088 -0.088,0.088 C 1.984,5.288 1.972,5.284 1.96,5.28 1.64,5.108 1.492,4.82 1.492,4.54 1.492,4.188 1.724,3.844 2.132,3.752 2.076,3.52 2.016,3.284 1.948,3.052 1.52,3.536 1.096,4.024 1.096,4.664 Z M 2.432,0.596 C 2.036,0.788 1.784,1.192 1.784,1.632 c 0,0.296 0.072,0.532 0.144,0.776 0.32,-0.388 0.584,-0.792 0.584,-1.296 0,-0.22 -0.016,-0.316 -0.08,-0.516 z"
     fill="currentColor"
     id="path126"
     style="stroke-width:0.004" />
  <path
     d="m 18.9489,6.328 c -0.2,0 -0.276,0.172 -0.276,0.352 0,0.308 0.228,0.544 0.536,0.544 0.2,0 0.276,-0.172 0.276,-0.352 0,-0.308 -0.228,-0.544 -0.536,-0.544 z m 1.12,0.448 c 0,0.172 -0.14,0.304 -0.292,0.388 -0.212,0.12 -0.452,0.164 -0.696,0.164 -0.244,0 -0.488,-0.044 -0.7,-0.164 -0.152,-0.084 -0.292,-0.216 -0.292,-0.388 0,-0.172 0.14,-0.304 0.292,-0.388 0.212,-0.12 0.456,-0.164 0.7,-0.164 0.244,0 0.484,0.044 0.696,0.164 0.152,0.084 0.292,0.216 0.292,0.388 z"
     fill="currentColor"
     id="path128"
     style="stroke-width:0.004" />
  <text
     font-family="'Roboto Light'"
     font-size="2.2001px"
     text-anchor="start"
     fill="currentColor"
     id="text132"
     x="44.630199"
     y="12.3232"><tspan
       id="tspan130">Fá</tspan></text>
  <text
     font-family="'Roboto Light'"
     font-size="2.2001px"
     text-anchor="start"
     fill="currentColor"
     id="text136"
     x="45.227699"
     y="9.5232"><tspan
       id="tspan134">F</tspan></text>
  <path
     d="m 45.7294,4.828 c -0.2,0 -0.276,0.172 -0.276,0.352 0,0.308 0.228,0.544 0.536,0.544 0.2,0 0.276,-0.172 0.276,-0.352 0,-0.308 -0.228,-0.544 -0.536,-0.544 z m 1.12,0.448 c 0,0.172 -0.14,0.304 -0.292,0.388 -0.212,0.12 -0.452,0.164 -0.696,0.164 -0.244,0 -0.488,-0.044 -0.7,-0.164 -0.152,-0.084 -0.292,-0.216 -0.292,-0.388 0,-0.172 0.14,-0.304 0.292,-0.388 0.212,-0.12 0.456,-0.164 0.7,-0.164 0.244,0 0.484,0.044 0.696,0.164 0.152,0.084 0.292,0.216 0.292,0.388 z"
     fill="currentColor"
     id="path138"
     style="stroke-width:0.004" />
  <text
     font-family="'Roboto Light'"
     font-size="2.2001px"
     text-anchor="start"
     fill="currentColor"
     id="text142"
     x="35.720501"
     y="12.3232"><tspan
       id="tspan140">Mi</tspan></text>
  <text
     font-family="'Roboto Light'"
     font-size="2.2001px"
     text-anchor="start"
     fill="currentColor"
     id="text146"
     x="36.3009"
     y="9.5232"><tspan
       id="tspan144">E</tspan></text>
  <path
     d="m 36.8026,5.328 c -0.2,0 -0.276,0.172 -0.276,0.352 0,0.308 0.228,0.544 0.536,0.544 0.2,0 0.276,-0.172 0.276,-0.352 0,-0.308 -0.228,-0.544 -0.536,-0.544 z m 1.12,0.448 c 0,0.172 -0.14,0.304 -0.292,0.388 -0.212,0.12 -0.452,0.164 -0.696,0.164 -0.244,0 -0.488,-0.044 -0.7,-0.164 -0.152,-0.084 -0.292,-0.216 -0.292,-0.388 0,-0.172 0.14,-0.304 0.292,-0.388 0.212,-0.12 0.456,-0.164 0.7,-0.164 0.244,0 0.484,0.044 0.696,0.164 0.152,0.084 0.292,0.216 0.292,0.388 z"
     fill="currentColor"
     id="path148"
     style="stroke-width:0.004" />
  <path
     d="m 27.8757,5.828 c -0.2,0 -0.276,0.172 -0.276,0.352 0,0.308 0.228,0.544 0.536,0.544 0.2,0 0.276,-0.172 0.276,-0.352 0,-0.308 -0.228,-0.544 -0.536,-0.544 z m 1.12,0.448 c 0,0.172 -0.14,0.304 -0.292,0.388 -0.212,0.12 -0.452,0.164 -0.696,0.164 -0.244,0 -0.488,-0.044 -0.7,-0.164 -0.152,-0.084 -0.292,-0.216 -0.292,-0.388 0,-0.172 0.14,-0.304 0.292,-0.388 0.212,-0.12 0.456,-0.164 0.7,-0.164 0.244,0 0.484,0.044 0.696,0.164 0.152,0.084 0.292,0.216 0.292,0.388 z"
     fill="currentColor"
     id="path150"
     style="stroke-width:0.004" />
  <text
     font-family="'Roboto Light'"
     font-size="2.2001px"
     text-anchor="start"
     fill="currentColor"
     id="text154"
     x="27.2887"
     y="9.5232"><tspan
       id="tspan152">D</tspan></text>
  <text
     font-family="'Roboto Light'"
     font-size="2.2001px"
     text-anchor="start"
     fill="currentColor"
     id="text158"
     x="26.742399"
     y="12.3232"><tspan
       id="tspan156">Ré</tspan></text>
</svg>
