<?xml version="1.0" encoding="UTF-8" standalone="no"?>
<svg
   version="1.2"
   width="159.20001mm"
   height="34.419155mm"
   viewBox="0 0 90.593601 19.5864"
   id="svg314"
   xmlns="http://www.w3.org/2000/svg"
   xmlns:svg="http://www.w3.org/2000/svg">
  <defs
     id="defs318" />
  <!-- Page: 1/1 -->
  <text
     font-family="'Century Schoolbook L'"
     font-size="2.2001px"
     text-anchor="start"
     fill="currentColor"
     id="text4"
     y="-1"><tspan
       id="tspan2" /></text>
  <rect
     x="89.993599"
     y="1.776"
     width="0.60000002"
     height="4"
     ry="0.0000"
     fill="currentColor"
     id="rect6" />
  <rect
     x="89.503601"
     y="1.776"
     width="0.19"
     height="4"
     ry="0.0000"
     fill="currentColor"
     id="rect8" />
  <rect
     x="89.993599"
     y="11.1103"
     width="0.60000002"
     height="4"
     ry="0.0000"
     fill="currentColor"
     id="rect10" />
  <rect
     x="89.503601"
     y="11.1103"
     width="0.19"
     height="4"
     ry="0.0000"
     fill="currentColor"
     id="rect12" />
  <line
     stroke-linejoin="round"
     stroke-linecap="round"
     stroke-width="0.1"
     stroke="currentColor"
     x1="0.050000001"
     y1="15.1103"
     x2="90.543602"
     y2="15.1103"
     id="line14" />
  <line
     stroke-linejoin="round"
     stroke-linecap="round"
     stroke-width="0.1"
     stroke="currentColor"
     x1="0.050000001"
     y1="14.1103"
     x2="90.543602"
     y2="14.1103"
     id="line16" />
  <line
     stroke-linejoin="round"
     stroke-linecap="round"
     stroke-width="0.1"
     stroke="currentColor"
     x1="0.050000001"
     y1="13.1103"
     x2="90.543602"
     y2="13.1103"
     id="line18" />
  <line
     stroke-linejoin="round"
     stroke-linecap="round"
     stroke-width="0.1"
     stroke="currentColor"
     x1="0.050000001"
     y1="12.1103"
     x2="90.543602"
     y2="12.1103"
     id="line20" />
  <line
     stroke-linejoin="round"
     stroke-linecap="round"
     stroke-width="0.1"
     stroke="currentColor"
     x1="0.050000001"
     y1="11.1103"
     x2="90.543602"
     y2="11.1103"
     id="line22" />
  <rect
     x="19.0296"
     y="16.0103"
     width="2.97"
     height="0.2"
     ry="0.1"
     fill="currentColor"
     id="rect24" />
  <line
     stroke-linejoin="round"
     stroke-linecap="round"
     stroke-width="0.1"
     stroke="currentColor"
     x1="0.050000001"
     y1="5.776"
     x2="90.543602"
     y2="5.776"
     id="line26" />
  <line
     stroke-linejoin="round"
     stroke-linecap="round"
     stroke-width="0.1"
     stroke="currentColor"
     x1="0.050000001"
     y1="4.776"
     x2="90.543602"
     y2="4.776"
     id="line28" />
  <line
     stroke-linejoin="round"
     stroke-linecap="round"
     stroke-width="0.1"
     stroke="currentColor"
     x1="0.050000001"
     y1="3.776"
     x2="90.543602"
     y2="3.776"
     id="line30" />
  <line
     stroke-linejoin="round"
     stroke-linecap="round"
     stroke-width="0.1"
     stroke="currentColor"
     x1="0.050000001"
     y1="2.776"
     x2="90.543602"
     y2="2.776"
     id="line32" />
  <line
     stroke-linejoin="round"
     stroke-linecap="round"
     stroke-width="0.1"
     stroke="currentColor"
     x1="0.050000001"
     y1="1.776"
     x2="90.543602"
     y2="1.776"
     id="line34" />
  <path
     d="m 62.7114,13.6103 c 0,-0.34 -0.044,-0.692 -0.24,-0.972 -0.008,-0.008 -0.012,-0.02 -0.012,-0.028 0,-0.028 0.024,-0.052 0.052,-0.052 0.016,0 0.028,0.008 0.04,0.024 0.212,0.304 0.36,0.656 0.36,1.028 0,0.372 -0.148,0.724 -0.36,1.028 -0.012,0.016 -0.024,0.024 -0.04,0.024 -0.028,0 -0.052,-0.024 -0.052,-0.052 0,-0.008 0.004,-0.02 0.012,-0.028 0.196,-0.28 0.24,-0.632 0.24,-0.972 z"
     fill="currentColor"
     id="path36"
     style="stroke-width:0.004" />
  <path
     d="m 60.9914,13.6103 c 0,0.34 0.044,0.692 0.24,0.972 0.008,0.008 0.012,0.02 0.012,0.028 0,0.028 -0.024,0.052 -0.052,0.052 -0.016,0 -0.028,-0.008 -0.04,-0.024 -0.212,-0.304 -0.36,-0.656 -0.36,-1.028 0,-0.372 0.148,-0.724 0.36,-1.028 0.012,-0.016 0.024,-0.024 0.04,-0.024 0.028,0 0.052,0.024 0.052,0.052 0,0.008 -0.004,0.02 -0.012,0.028 -0.196,0.28 -0.24,0.632 -0.24,0.972 z"
     fill="currentColor"
     id="path38"
     style="stroke-width:0.004" />
  <path
     d="m 61.6194,13.4463 -0.004,0.264 v 0.044 c 0,0.088 0.004,0.176 0.016,0.264 0.18,-0.152 0.372,-0.32 0.372,-0.556 0,-0.132 -0.056,-0.268 -0.172,-0.268 -0.124,0 -0.208,0.12 -0.212,0.252 z m -0.168,0.716 -0.048,-2.38 c 0.032,-0.02 0.072,-0.032 0.108,-0.032 0.036,0 0.076,0.012 0.108,0.032 l -0.028,1.38 c 0.1,-0.084 0.232,-0.136 0.364,-0.136 0.208,0 0.356,0.192 0.356,0.408 0,0.32 -0.344,0.468 -0.588,0.676 -0.06,0.052 -0.096,0.152 -0.18,0.152 -0.052,0 -0.092,-0.044 -0.092,-0.1 z"
     fill="currentColor"
     id="path40"
     style="stroke-width:0.004" />
  <path
     d="m 72.8688,2.328 c -0.2,0 -0.276,0.172 -0.276,0.352 0,0.308 0.228,0.544 0.536,0.544 0.2,0 0.276,-0.172 0.276,-0.352 0,-0.308 -0.228,-0.544 -0.536,-0.544 z m 1.12,0.448 c 0,0.172 -0.14,0.304 -0.292,0.388 -0.212,0.12 -0.452,0.164 -0.696,0.164 -0.244,0 -0.488,-0.044 -0.7,-0.164 -0.152,-0.084 -0.292,-0.216 -0.292,-0.388 0,-0.172 0.14,-0.304 0.292,-0.388 0.212,-0.12 0.456,-0.164 0.7,-0.164 0.244,0 0.484,0.044 0.696,0.164 0.152,0.084 0.292,0.216 0.292,0.388 z"
     fill="currentColor"
     id="path42"
     style="stroke-width:0.004" />
  <text
     font-family="'Roboto Light'"
     font-size="2.2001px"
     text-anchor="start"
     fill="currentColor"
     id="text46"
     x="72.281799"
     y="9.2686996"><tspan
       id="tspan44">D</tspan></text>
  <path
     d="m 72.8688,12.6623 c -0.2,0 -0.276,0.172 -0.276,0.352 0,0.308 0.228,0.544 0.536,0.544 0.2,0 0.276,-0.172 0.276,-0.352 0,-0.308 -0.228,-0.544 -0.536,-0.544 z m 1.12,0.448 c 0,0.172 -0.14,0.304 -0.292,0.388 -0.212,0.12 -0.452,0.164 -0.696,0.164 -0.244,0 -0.488,-0.044 -0.7,-0.164 -0.152,-0.084 -0.292,-0.216 -0.292,-0.388 0,-0.172 0.14,-0.304 0.292,-0.388 0.212,-0.12 0.456,-0.164 0.7,-0.164 0.244,0 0.484,0.044 0.696,0.164 0.152,0.084 0.292,0.216 0.292,0.388 z"
     fill="currentColor"
     id="path48"
     style="stroke-width:0.004" />
  <text
     font-family="'Roboto Light'"
     font-size="2.2001px"
     text-anchor="start"
     fill="currentColor"
     id="text52"
     x="71.601799"
     y="19.288799"><tspan
       id="tspan50">B</tspan></text>
  <path
     d="m 73.7875,18.8484 -0.0072,0.2304 v 0.0396 c 0,0.0792 0.0072,0.1548 0.018,0.234 0.1584,-0.1368 0.3276,-0.288 0.3276,-0.4968 0,-0.1188 -0.0468,-0.2376 -0.1512,-0.2376 -0.1116,0 -0.1836,0.1116 -0.1872,0.2304 z m -0.162,0.6408 -0.0432,-2.1348 c 0.0324,-0.018 0.0648,-0.0288 0.1008,-0.0288 0.036,0 0.0684,0.0108 0.1008,0.0288 l -0.0252,1.2348 c 0.09,-0.0828 0.2088,-0.1296 0.3312,-0.1296 0.1836,0 0.3132,0.1764 0.3132,0.3708 0,0.2844 -0.3024,0.4212 -0.5184,0.6084 -0.0576,0.0504 -0.09,0.1476 -0.1692,0.1476 -0.0504,0 -0.09,-0.0468 -0.09,-0.0972 z"
     fill="currentColor"
     id="path54"
     style="stroke-width:0.0036" />
  <text
     font-family="'Roboto Light'"
     font-size="2.2001px"
     text-anchor="start"
     fill="currentColor"
     id="text58"
     x="54.107101"
     y="9.2686996"><tspan
       id="tspan56">B</tspan></text>
  <path
     d="m 56.2927,8.8283 -0.0072,0.2304 v 0.0396 c 0,0.0792 0.0072,0.1548 0.018,0.234 0.1584,-0.1368 0.3276,-0.288 0.3276,-0.4968 0,-0.1188 -0.0468,-0.2376 -0.1512,-0.2376 -0.1116,0 -0.1836,0.1116 -0.1872,0.2304 z m -0.162,0.6408 -0.0432,-2.1348 c 0.0324,-0.018 0.0648,-0.0288 0.1008,-0.0288 0.036,0 0.0684,0.0108 0.1008,0.0288 l -0.0252,1.2348 c 0.09,-0.0828 0.2088,-0.1296 0.3312,-0.1296 0.1836,0 0.3132,0.1764 0.3132,0.3708 0,0.2844 -0.3024,0.4212 -0.5184,0.6084 -0.0576,0.0504 -0.09,0.1476 -0.1692,0.1476 -0.0504,0 -0.09,-0.0468 -0.09,-0.0972 z"
     fill="currentColor"
     id="path60"
     style="stroke-width:0.0036" />
  <path
     d="m 55.3741,3.328 c -0.2,0 -0.276,0.172 -0.276,0.352 0,0.308 0.228,0.544 0.536,0.544 0.2,0 0.276,-0.172 0.276,-0.352 0,-0.308 -0.228,-0.544 -0.536,-0.544 z m 1.12,0.448 c 0,0.172 -0.14,0.304 -0.292,0.388 -0.212,0.12 -0.452,0.164 -0.696,0.164 -0.244,0 -0.488,-0.044 -0.7,-0.164 -0.152,-0.084 -0.292,-0.216 -0.292,-0.388 0,-0.172 0.14,-0.304 0.292,-0.388 0.212,-0.12 0.456,-0.164 0.7,-0.164 0.244,0 0.484,0.044 0.696,0.164 0.152,0.084 0.292,0.216 0.292,0.388 z"
     fill="currentColor"
     id="path62"
     style="stroke-width:0.004" />
  <path
     d="m 55.3741,13.6623 c -0.2,0 -0.276,0.172 -0.276,0.352 0,0.308 0.228,0.544 0.536,0.544 0.2,0 0.276,-0.172 0.276,-0.352 0,-0.308 -0.228,-0.544 -0.536,-0.544 z m 1.12,0.448 c 0,0.172 -0.14,0.304 -0.292,0.388 -0.212,0.12 -0.452,0.164 -0.696,0.164 -0.244,0 -0.488,-0.044 -0.7,-0.164 -0.152,-0.084 -0.292,-0.216 -0.292,-0.388 0,-0.172 0.14,-0.304 0.292,-0.388 0.212,-0.12 0.456,-0.164 0.7,-0.164 0.244,0 0.484,0.044 0.696,0.164 0.152,0.084 0.292,0.216 0.292,0.388 z"
     fill="currentColor"
     id="path64"
     style="stroke-width:0.004" />
  <text
     font-family="'Roboto Light'"
     font-size="2.2001px"
     text-anchor="start"
     fill="currentColor"
     id="text68"
     x="54.752899"
     y="19.288799"><tspan
       id="tspan66">G</tspan></text>
  <path
     d="m 53.9641,3.776 c 0,-0.34 -0.044,-0.692 -0.24,-0.972 -0.008,-0.008 -0.012,-0.02 -0.012,-0.028 0,-0.028 0.024,-0.052 0.052,-0.052 0.016,0 0.028,0.008 0.04,0.024 0.212,0.304 0.36,0.656 0.36,1.028 0,0.372 -0.148,0.724 -0.36,1.028 -0.012,0.016 -0.024,0.024 -0.04,0.024 -0.028,0 -0.052,-0.024 -0.052,-0.052 0,-0.008 0.004,-0.02 0.012,-0.028 0.196,-0.28 0.24,-0.632 0.24,-0.972 z"
     fill="currentColor"
     id="path70"
     style="stroke-width:0.004" />
  <path
     d="m 52.244,3.776 c 0,0.34 0.044,0.692 0.24,0.972 0.008,0.008 0.012,0.02 0.012,0.028 0,0.028 -0.024,0.052 -0.052,0.052 -0.016,0 -0.028,-0.008 -0.04,-0.024 -0.212,-0.304 -0.36,-0.656 -0.36,-1.028 0,-0.372 0.148,-0.724 0.36,-1.028 0.012,-0.016 0.024,-0.024 0.04,-0.024 0.028,0 0.052,0.024 0.052,0.052 0,0.008 -0.004,0.02 -0.012,0.028 -0.196,0.28 -0.24,0.632 -0.24,0.972 z"
     fill="currentColor"
     id="path72"
     style="stroke-width:0.004" />
  <path
     d="m 52.8721,3.612 -0.004,0.264 V 3.92 c 0,0.088 0.004,0.176 0.016,0.264 0.18,-0.152 0.372,-0.32 0.372,-0.556 0,-0.132 -0.056,-0.268 -0.172,-0.268 -0.124,0 -0.208,0.12 -0.212,0.252 z m -0.168,0.716 -0.048,-2.38 c 0.032,-0.02 0.072,-0.032 0.108,-0.032 0.036,0 0.076,0.012 0.108,0.032 l -0.028,1.38 c 0.1,-0.084 0.232,-0.136 0.364,-0.136 0.208,0 0.356,0.192 0.356,0.408 0,0.32 -0.344,0.468 -0.588,0.676 -0.06,0.052 -0.096,0.152 -0.18,0.152 -0.052,0 -0.092,-0.044 -0.092,-0.1 z"
     fill="currentColor"
     id="path74"
     style="stroke-width:0.004" />
  <path
     d="m 64.1214,2.828 c -0.2,0 -0.276,0.172 -0.276,0.352 0,0.308 0.228,0.544 0.536,0.544 0.2,0 0.276,-0.172 0.276,-0.352 0,-0.308 -0.228,-0.544 -0.536,-0.544 z m 1.12,0.448 c 0,0.172 -0.14,0.304 -0.292,0.388 -0.212,0.12 -0.452,0.164 -0.696,0.164 -0.244,0 -0.488,-0.044 -0.7,-0.164 -0.152,-0.084 -0.292,-0.216 -0.292,-0.388 0,-0.172 0.14,-0.304 0.292,-0.388 0.212,-0.12 0.456,-0.164 0.7,-0.164 0.244,0 0.484,0.044 0.696,0.164 0.152,0.084 0.292,0.216 0.292,0.388 z"
     fill="currentColor"
     id="path76"
     style="stroke-width:0.004" />
  <text
     font-family="'Roboto Light'"
     font-size="2.2001px"
     text-anchor="start"
     fill="currentColor"
     id="text80"
     x="63.534401"
     y="9.2686996"><tspan
       id="tspan78">C</tspan></text>
  <path
     d="m 64.1214,13.1623 c -0.2,0 -0.276,0.172 -0.276,0.352 0,0.308 0.228,0.544 0.536,0.544 0.2,0 0.276,-0.172 0.276,-0.352 0,-0.308 -0.228,-0.544 -0.536,-0.544 z m 1.12,0.448 c 0,0.172 -0.14,0.304 -0.292,0.388 -0.212,0.12 -0.452,0.164 -0.696,0.164 -0.244,0 -0.488,-0.044 -0.7,-0.164 -0.152,-0.084 -0.292,-0.216 -0.292,-0.388 0,-0.172 0.14,-0.304 0.292,-0.388 0.212,-0.12 0.456,-0.164 0.7,-0.164 0.244,0 0.484,0.044 0.696,0.164 0.152,0.084 0.292,0.216 0.292,0.388 z"
     fill="currentColor"
     id="path82"
     style="stroke-width:0.004" />
  <text
     font-family="'Roboto Light'"
     font-size="2.2001px"
     text-anchor="start"
     fill="currentColor"
     id="text86"
     x="62.8545"
     y="19.288799"><tspan
       id="tspan84">A</tspan></text>
  <path
     d="m 65.0401,18.8484 -0.0072,0.2304 v 0.0396 c 0,0.0792 0.0072,0.1548 0.018,0.234 0.1584,-0.1368 0.3276,-0.288 0.3276,-0.4968 0,-0.1188 -0.0468,-0.2376 -0.1512,-0.2376 -0.1116,0 -0.1836,0.1116 -0.1872,0.2304 z m -0.162,0.6408 -0.0432,-2.1348 c 0.0324,-0.018 0.0648,-0.0288 0.1008,-0.0288 0.036,0 0.0684,0.0108 0.1008,0.0288 l -0.0252,1.2348 c 0.09,-0.0828 0.2088,-0.1296 0.3312,-0.1296 0.1836,0 0.3132,0.1764 0.3132,0.3708 0,0.2844 -0.3024,0.4212 -0.5184,0.6084 -0.0576,0.0504 -0.09,0.1476 -0.1692,0.1476 -0.0504,0 -0.09,-0.0468 -0.09,-0.0972 z"
     fill="currentColor"
     id="path88"
     style="stroke-width:0.0036" />
  <path
     stroke-width="0.08"
     stroke-linejoin="round"
     stroke-linecap="round"
     stroke="currentColor"
     fill="currentColor"
     d="m 81.61792,3.520511 c 0.06363,-0.062977 0.122796,-0.1278199 0.17717,-0.194505 -0.05469,0.062486 -0.114153,0.1232776 -0.178073,0.1823502 z"
     id="path90" />
  <path
     stroke-width="0.08"
     stroke-linejoin="round"
     stroke-linecap="round"
     stroke="currentColor"
     fill="currentColor"
     d="m 81.062093,3.9574641 c 0.08391,-0.053493 0.164169,-0.1089137 0.240458,-0.1662369 -0.07868,0.025131 -0.159189,0.077237 -0.243332,0.1275624 z"
     id="path92" />
  <path
     stroke-width="0.08"
     stroke-linejoin="round"
     stroke-linecap="round"
     stroke="currentColor"
     fill="currentColor"
     d="m 80.369532,4.3221504 c 0.100093,-0.043706 0.197358,-0.089399 0.291468,-0.1370565 -0.09817,-0.007 -0.195629,0.036112 -0.295902,0.077387 z"
     id="path94" />
  <path
     stroke-width="0.08"
     stroke-linejoin="round"
     stroke-linecap="round"
     stroke="currentColor"
     fill="currentColor"
     d="m 79.570929,4.6122892 c 0.112185,-0.033614 0.222362,-0.069277 0.330202,-0.1069638 -0.113161,-0.033916 -0.223474,-9.49e-5 -0.335786,0.031825 z"
     id="path96" />
  <path
     stroke-width="0.08"
     stroke-linejoin="round"
     stroke-linecap="round"
     stroke="currentColor"
     fill="currentColor"
     d="m 78.696977,4.8255999 c 0.120186,-0.023218 0.239181,-0.048546 0.356658,-0.075959 -0.123646,-0.055608 -0.242724,-0.031385 -0.362981,-0.00913 z"
     id="path98" />
  <path
     stroke-width="0.08"
     stroke-linejoin="round"
     stroke-linecap="round"
     stroke="currentColor"
     fill="currentColor"
     d="m 77.778368,4.9598016 c 0.124094,-0.012518 0.247816,-0.027207 0.370838,-0.044042 -0.129629,-0.07208 -0.253378,-0.05776 -0.377489,-0.045462 z"
     id="path100" />
  <path
     stroke-width="0.08"
     stroke-linejoin="round"
     stroke-linecap="round"
     stroke="currentColor"
     fill="currentColor"
     d="m 76.845796,5.0126137 c 0.123909,-0.00151 0.248265,-0.00526 0.37274,-0.011212 -0.131109,-0.083331 -0.255438,-0.079217 -0.379309,-0.077187 z"
     id="path102" />
  <path
     stroke-width="0.08"
     stroke-linejoin="round"
     stroke-linecap="round"
     stroke="currentColor"
     fill="currentColor"
     d="m 75.929952,4.9817556 c 0.119633,0.00979 0.24053,0.017296 0.362365,0.02253 -0.128086,-0.089361 -0.248901,-0.095758 -0.368442,-0.104299 z"
     id="path104" />
  <path
     stroke-width="0.08"
     stroke-linejoin="round"
     stroke-linecap="round"
     stroke="currentColor"
     fill="currentColor"
     d="m 75.061529,4.8649464 c 0.111264,0.021406 0.224611,0.040459 0.339714,0.057184 -0.12056,-0.090169 -0.233771,-0.1073809 -0.344887,-0.1267979 z"
     id="path106" />
  <path
     stroke-width="0.08"
     stroke-linejoin="round"
     stroke-linecap="round"
     stroke="currentColor"
     fill="currentColor"
     d="m 74.27122,4.6599056 c 0.0988,0.033322 0.200507,0.064231 0.304785,0.09275 C 74.467473,4.6668981 74.365961,4.6385678 74.26736,4.6079712 Z"
     id="path108" />
  <path
     stroke-width="0.08"
     stroke-linejoin="round"
     stroke-linecap="round"
     stroke="currentColor"
     fill="currentColor"
     d="m 73.589717,4.3643523 c 0.08225,0.045543 0.168218,0.088611 0.25758,0.1292288 -0.092,-0.076125 -0.177723,-0.1158781 -0.259715,-0.1579584 z"
     id="path110" />
  <path
     stroke-width="0.08"
     stroke-linejoin="round"
     stroke-linecap="round"
     stroke="currentColor"
     fill="currentColor"
     d="m 73.047713,3.976006 c 0.0616,0.058067 0.127744,0.1135989 0.198097,0.1666197 -0.07097,-0.061271 -0.136806,-0.1127516 -0.198097,-0.1666197 z"
     id="path112" />
  <path
     stroke-width="0.08"
     stroke-linejoin="round"
     stroke-linecap="round"
     stroke="currentColor"
     fill="currentColor"
     d="m 64.12322,14.815064 c 0.06363,-0.05021 0.122796,-0.101804 0.17717,-0.154758 -0.05469,0.04875 -0.114153,0.0963 -0.178073,0.142603 z"
     id="path114" />
  <path
     stroke-width="0.08"
     stroke-linejoin="round"
     stroke-linecap="round"
     stroke="currentColor"
     fill="currentColor"
     d="m 63.567393,15.165295 c 0.08391,-0.04314 0.164169,-0.08772 0.240458,-0.133716 -0.07868,0.01381 -0.159189,0.05507 -0.243332,0.09504 z"
     id="path116" />
  <path
     stroke-width="0.08"
     stroke-linejoin="round"
     stroke-linecap="round"
     stroke="currentColor"
     fill="currentColor"
     d="m 62.874832,15.461327 c 0.100093,-0.03576 0.197358,-0.07302 0.291468,-0.111763 -0.09817,-0.01592 -0.195629,0.01877 -0.295902,0.05209 z"
     id="path118" />
  <path
     stroke-width="0.08"
     stroke-linejoin="round"
     stroke-linecap="round"
     stroke="currentColor"
     fill="currentColor"
     d="m 62.076229,15.700878 c 0.112185,-0.02807 0.222362,-0.05771 0.330202,-0.0889 -0.113161,-0.04042 -0.223474,-0.01262 -0.335786,0.01376 z"
     id="path120" />
  <path
     stroke-width="0.08"
     stroke-linejoin="round"
     stroke-linecap="round"
     stroke="currentColor"
     fill="currentColor"
     d="m 61.202277,15.881668 c 0.120186,-0.02009 0.239181,-0.0418 0.356658,-0.06512 -0.123646,-0.0597 -0.242724,-0.03909 -0.362981,-0.01997 z"
     id="path122" />
  <path
     stroke-width="0.08"
     stroke-linejoin="round"
     stroke-linecap="round"
     stroke="currentColor"
     fill="currentColor"
     d="m 60.283668,16.001416 c 0.124094,-0.01179 0.247816,-0.02528 0.370838,-0.04043 -0.129629,-0.07377 -0.253378,-0.06065 -0.377489,-0.04908 z"
     id="path124" />
  <path
     stroke-width="0.08"
     stroke-linejoin="round"
     stroke-linecap="round"
     stroke="currentColor"
     fill="currentColor"
     d="m 59.351096,16.057842 c 0.123909,-0.0032 0.248265,-0.0082 0.37274,-0.01483 -0.131109,-0.08261 -0.255438,-0.07729 -0.379309,-0.07357 z"
     id="path126" />
  <path
     stroke-width="0.08"
     stroke-linejoin="round"
     stroke-linecap="round"
     stroke="currentColor"
     fill="currentColor"
     d="m 58.435252,16.048664 c 0.119633,0.0057 0.24053,0.0096 0.362365,0.01169 -0.128086,-0.08623 -0.248901,-0.08901 -0.368442,-0.09346 z"
     id="path128" />
  <path
     stroke-width="0.08"
     stroke-linejoin="round"
     stroke-linecap="round"
     stroke="currentColor"
     fill="currentColor"
     d="m 57.566829,15.971602 c 0.111264,0.0149 0.224611,0.02793 0.339714,0.03912 -0.12056,-0.08463 -0.233771,-0.09582 -0.344887,-0.108731 z"
     id="path130" />
  <path
     stroke-width="0.08"
     stroke-linejoin="round"
     stroke-linecap="round"
     stroke="currentColor"
     fill="currentColor"
     d="m 56.77652,15.824376 c 0.0988,0.02441 0.200507,0.04689 0.304785,0.06746 -0.108531,-0.07781 -0.210044,-0.09771 -0.308645,-0.119391 z"
     id="path132" />
  <path
     stroke-width="0.08"
     stroke-linejoin="round"
     stroke-linecap="round"
     stroke="currentColor"
     fill="currentColor"
     d="m 56.095017,15.604704 c 0.08225,0.03422 0.168218,0.06645 0.25758,0.09671 -0.092,-0.06577 -0.177723,-0.09468 -0.259715,-0.125438 z"
     id="path134" />
  <path
     stroke-width="0.08"
     stroke-linejoin="round"
     stroke-linecap="round"
     stroke="currentColor"
     fill="currentColor"
     d="m 55.553013,15.310306 c 0.0616,0.04434 0.127744,0.08662 0.198097,0.126872 -0.07097,-0.0485 -0.136806,-0.08673 -0.198097,-0.126872 z"
     id="path136" />
  <path
     stroke-width="0.08"
     stroke-linejoin="round"
     stroke-linecap="round"
     stroke="currentColor"
     fill="currentColor"
     d="m 46.62842,5.4807636 c 0.06363,-0.050209 0.122796,-0.1018034 0.17717,-0.1547576 -0.05469,0.048755 -0.114153,0.096298 -0.178073,0.1426028 z"
     id="path138" />
  <path
     stroke-width="0.08"
     stroke-linejoin="round"
     stroke-linecap="round"
     stroke="currentColor"
     fill="currentColor"
     d="m 46.072593,5.8309951 c 0.08391,-0.043135 0.164169,-0.087715 0.240458,-0.1337163 -0.07868,0.013809 -0.159189,0.055074 -0.243332,0.095042 z"
     id="path140" />
  <path
     stroke-width="0.08"
     stroke-linejoin="round"
     stroke-linecap="round"
     stroke="currentColor"
     fill="currentColor"
     d="m 45.380032,6.1270268 c 0.100093,-0.035756 0.197358,-0.073019 0.291468,-0.1117627 -0.09817,-0.015916 -0.195629,0.018768 -0.295902,0.052093 z"
     id="path142" />
  <path
     stroke-width="0.08"
     stroke-linejoin="round"
     stroke-linecap="round"
     stroke="currentColor"
     fill="currentColor"
     d="m 44.581429,6.366578 c 0.112185,-0.028073 0.222362,-0.057714 0.330202,-0.088897 -0.113161,-0.04042 -0.223474,-0.012621 -0.335786,0.013758 z"
     id="path144" />
  <path
     stroke-width="0.08"
     stroke-linejoin="round"
     stroke-linecap="round"
     stroke="currentColor"
     fill="currentColor"
     d="m 43.707477,6.547368 c 0.120186,-0.020086 0.239181,-0.041801 0.356658,-0.065119 -0.123646,-0.059704 -0.242724,-0.039094 -0.362981,-0.019965 z"
     id="path146" />
  <path
     stroke-width="0.08"
     stroke-linejoin="round"
     stroke-linecap="round"
     stroke="currentColor"
     fill="currentColor"
     d="m 42.788868,6.6671162 c 0.124094,-0.011796 0.247816,-0.02528 0.370838,-0.040428 -0.129629,-0.073766 -0.253378,-0.06065 -0.377489,-0.049076 z"
     id="path148" />
  <path
     stroke-width="0.08"
     stroke-linejoin="round"
     stroke-linecap="round"
     stroke="currentColor"
     fill="currentColor"
     d="m 41.856296,6.7235417 c 0.123909,-0.0032 0.248265,-0.00815 0.37274,-0.014825 -0.131109,-0.082608 -0.255438,-0.07729 -0.379309,-0.073573 z"
     id="path150" />
  <path
     stroke-width="0.08"
     stroke-linejoin="round"
     stroke-linecap="round"
     stroke="currentColor"
     fill="currentColor"
     d="m 40.940452,6.714364 c 0.119633,0.0057 0.24053,0.00959 0.362365,0.011689 -0.128086,-0.086228 -0.248901,-0.089012 -0.368442,-0.093458 z"
     id="path152" />
  <path
     stroke-width="0.08"
     stroke-linejoin="round"
     stroke-linecap="round"
     stroke="currentColor"
     fill="currentColor"
     d="m 40.072029,6.6373022 c 0.111264,0.014902 0.224611,0.027933 0.339714,0.039117 -0.12056,-0.084629 -0.233771,-0.095818 -0.344887,-0.1087309 z"
     id="path154" />
  <path
     stroke-width="0.08"
     stroke-linejoin="round"
     stroke-linecap="round"
     stroke="currentColor"
     fill="currentColor"
     d="m 39.28172,6.4900758 c 0.0988,0.024409 0.200507,0.046887 0.304785,0.067456 C 39.477973,6.479724 39.376461,6.459825 39.27786,6.4381414 Z"
     id="path156" />
  <path
     stroke-width="0.08"
     stroke-linejoin="round"
     stroke-linecap="round"
     stroke="currentColor"
     fill="currentColor"
     d="m 38.600217,6.2704039 c 0.08225,0.034221 0.168218,0.066449 0.25758,0.096708 -0.092,-0.065767 -0.177723,-0.09468 -0.259715,-0.1254378 z"
     id="path158" />
  <path
     stroke-width="0.08"
     stroke-linejoin="round"
     stroke-linecap="round"
     stroke="currentColor"
     fill="currentColor"
     d="m 38.058213,5.976006 c 0.0616,0.044336 0.127744,0.086619 0.198097,0.1268723 -0.07097,-0.048504 -0.136806,-0.086735 -0.198097,-0.1268723 z"
     id="path160" />
  <path
     stroke-width="0.08"
     stroke-linejoin="round"
     stroke-linecap="round"
     stroke="currentColor"
     fill="currentColor"
     d="m 37.867294,16.311945 c 0.06443,-0.04909 0.124419,-0.09965 0.179652,-0.151639 -0.05547,0.04779 -0.115699,0.09429 -0.180348,0.139471 z"
     id="path162" />
  <path
     stroke-width="0.08"
     stroke-linejoin="round"
     stroke-linecap="round"
     stroke="currentColor"
     fill="currentColor"
     d="m 37.306095,16.652468 c 0.08454,-0.04167 0.165476,-0.08486 0.242464,-0.129526 -0.07883,0.01244 -0.15995,0.05231 -0.244677,0.09081 z"
     id="path164" />
  <path
     stroke-width="0.08"
     stroke-linejoin="round"
     stroke-linecap="round"
     stroke="currentColor"
     fill="currentColor"
     d="m 36.609338,16.93648 c 0.100575,-0.03402 0.198353,-0.0696 0.293007,-0.106711 -0.09778,-0.01761 -0.195707,0.01539 -0.296421,0.04697 z"
     id="path166" />
  <path
     stroke-width="0.08"
     stroke-linejoin="round"
     stroke-linecap="round"
     stroke="currentColor"
     fill="currentColor"
     d="m 35.807696,17.162228 c 0.112515,-0.02614 0.22305,-0.05387 0.33128,-0.08319 -0.112327,-0.04236 -0.222968,-0.01647 -0.33558,0.008 z"
     id="path168" />
  <path
     stroke-width="0.08"
     stroke-linejoin="round"
     stroke-linecap="round"
     stroke="currentColor"
     fill="currentColor"
     d="m 34.931843,17.327959 c 0.120365,-0.01802 0.239568,-0.03768 0.357283,-0.05898 -0.122466,-0.06182 -0.241733,-0.04326 -0.362152,-0.0262 z"
     id="path170" />
  <path
     stroke-width="0.08"
     stroke-linejoin="round"
     stroke-linecap="round"
     stroke="currentColor"
     fill="currentColor"
     d="m 34.012453,17.431919 c 0.124124,-0.0097 0.247906,-0.02103 0.371017,-0.03406 -0.128199,-0.07598 -0.252002,-0.06499 -0.376139,-0.05555 z"
     id="path172" />
  <path
     stroke-width="0.08"
     stroke-linejoin="round"
     stroke-linecap="round"
     stroke="currentColor"
     fill="currentColor"
     d="m 33.080199,17.472354 c 0.123795,-0.0011 0.248064,-0.0039 0.372482,-0.0084 -0.129527,-0.08484 -0.253775,-0.08165 -0.37754,-0.08006 z"
     id="path174" />
  <path
     stroke-width="0.08"
     stroke-linejoin="round"
     stroke-linecap="round"
     stroke="currentColor"
     fill="currentColor"
     d="m 32.165756,17.447513 c 0.119375,0.0077 0.240043,0.0137 0.361677,0.01788 -0.126448,-0.08841 -0.247053,-0.09325 -0.366356,-0.09974 z"
     id="path176" />
  <path
     stroke-width="0.08"
     stroke-linejoin="round"
     stroke-linecap="round"
     stroke="currentColor"
     fill="currentColor"
     d="m 31.299798,17.35564 c 0.110865,0.0168 0.223842,0.03176 0.338602,0.0449 -0.118963,-0.08667 -0.231834,-0.09979 -0.342586,-0.114597 z"
     id="path178" />
  <path
     stroke-width="0.08"
     stroke-linejoin="round"
     stroke-linecap="round"
     stroke="currentColor"
     fill="currentColor"
     d="m 30.512998,17.194984 c 0.09827,0.02608 0.199461,0.05029 0.303257,0.07263 -0.107072,-0.07964 -0.208119,-0.101266 -0.306229,-0.124622 z"
     id="path180" />
  <path
     stroke-width="0.08"
     stroke-linejoin="round"
     stroke-linecap="round"
     stroke="currentColor"
     fill="currentColor"
     d="m 29.83603,16.96379 c 0.08158,0.03561 0.166901,0.06929 0.255644,0.101055 -0.09078,-0.06732 -0.175909,-0.09768 -0.257288,-0.129817 z"
     id="path182" />
  <path
     stroke-width="0.08"
     stroke-linejoin="round"
     stroke-linecap="round"
     stroke="currentColor"
     fill="currentColor"
     d="m 29.299568,16.660306 c 0.0608,0.04536 0.126161,0.08875 0.195761,0.130181 -0.07007,-0.04969 -0.135203,-0.08902 -0.195761,-0.130181 z"
     id="path184" />
  <path
     d="m 71.4588,13.1103 c 0,-0.34 -0.044,-0.692 -0.24,-0.972 -0.008,-0.008 -0.012,-0.02 -0.012,-0.028 0,-0.028 0.024,-0.052 0.052,-0.052 0.016,0 0.028,0.008 0.04,0.024 0.212,0.304 0.36,0.656 0.36,1.028 0,0.372 -0.148,0.724 -0.36,1.028 -0.012,0.016 -0.024,0.024 -0.04,0.024 -0.028,0 -0.052,-0.024 -0.052,-0.052 0,-0.008 0.004,-0.02 0.012,-0.028 0.196,-0.28 0.24,-0.632 0.24,-0.972 z"
     fill="currentColor"
     id="path186"
     style="stroke-width:0.004" />
  <path
     d="m 69.7388,13.1103 c 0,0.34 0.044,0.692 0.24,0.972 0.008,0.008 0.012,0.02 0.012,0.028 0,0.028 -0.024,0.052 -0.052,0.052 -0.016,0 -0.028,-0.008 -0.04,-0.024 -0.212,-0.304 -0.36,-0.656 -0.36,-1.028 0,-0.372 0.148,-0.724 0.36,-1.028 0.012,-0.016 0.024,-0.024 0.04,-0.024 0.028,0 0.052,0.024 0.052,0.052 0,0.008 -0.004,0.02 -0.012,0.028 -0.196,0.28 -0.24,0.632 -0.24,0.972 z"
     fill="currentColor"
     id="path188"
     style="stroke-width:0.004" />
  <path
     d="m 70.3668,12.9463 -0.004,0.264 v 0.044 c 0,0.088 0.004,0.176 0.016,0.264 0.18,-0.152 0.372,-0.32 0.372,-0.556 0,-0.132 -0.056,-0.268 -0.172,-0.268 -0.124,0 -0.208,0.12 -0.212,0.252 z m -0.168,0.716 -0.048,-2.38 c 0.032,-0.02 0.072,-0.032 0.108,-0.032 0.036,0 0.076,0.012 0.108,0.032 l -0.028,1.38 c 0.1,-0.084 0.232,-0.136 0.364,-0.136 0.208,0 0.356,0.192 0.356,0.408 0,0.32 -0.344,0.468 -0.588,0.676 -0.06,0.052 -0.096,0.152 -0.18,0.152 -0.052,0 -0.092,-0.044 -0.092,-0.1 z"
     fill="currentColor"
     id="path190"
     style="stroke-width:0.004" />
  <path
     d="m 81.6162,1.828 c -0.2,0 -0.276,0.172 -0.276,0.352 0,0.308 0.228,0.544 0.536,0.544 0.2,0 0.276,-0.172 0.276,-0.352 0,-0.308 -0.228,-0.544 -0.536,-0.544 z m 1.12,0.448 c 0,0.172 -0.14,0.304 -0.292,0.388 -0.212,0.12 -0.452,0.164 -0.696,0.164 -0.244,0 -0.488,-0.044 -0.7,-0.164 -0.152,-0.084 -0.292,-0.216 -0.292,-0.388 0,-0.172 0.14,-0.304 0.292,-0.388 0.212,-0.12 0.456,-0.164 0.7,-0.164 0.244,0 0.484,0.044 0.696,0.164 0.152,0.084 0.292,0.216 0.292,0.388 z"
     fill="currentColor"
     id="path192"
     style="stroke-width:0.004" />
  <text
     font-family="'Roboto Light'"
     font-size="2.2001px"
     text-anchor="start"
     fill="currentColor"
     id="text196"
     x="80.400398"
     y="9.2686996"><tspan
       id="tspan194">E</tspan></text>
  <path
     d="m 82.4836,8.8283 -0.0072,0.2304 v 0.0396 c 0,0.0792 0.0072,0.1548 0.018,0.234 0.1584,-0.1368 0.3276,-0.288 0.3276,-0.4968 0,-0.1188 -0.0468,-0.2376 -0.1512,-0.2376 -0.1116,0 -0.1836,0.1116 -0.1872,0.2304 z m -0.162,0.6408 -0.0432,-2.1348 c 0.0324,-0.018 0.0648,-0.0288 0.1008,-0.0288 0.036,0 0.0684,0.0108 0.1008,0.0288 l -0.0252,1.2348 c 0.09,-0.0828 0.2088,-0.1296 0.3312,-0.1296 0.1836,0 0.3132,0.1764 0.3132,0.3708 0,0.2844 -0.3024,0.4212 -0.5184,0.6084 -0.0576,0.0504 -0.09,0.1476 -0.1692,0.1476 -0.0504,0 -0.09,-0.0468 -0.09,-0.0972 z"
     fill="currentColor"
     id="path198"
     style="stroke-width:0.0036" />
  <path
     d="m 81.6162,12.1623 c -0.2,0 -0.276,0.172 -0.276,0.352 0,0.308 0.228,0.544 0.536,0.544 0.2,0 0.276,-0.172 0.276,-0.352 0,-0.308 -0.228,-0.544 -0.536,-0.544 z m 1.12,0.448 c 0,0.172 -0.14,0.304 -0.292,0.388 -0.212,0.12 -0.452,0.164 -0.696,0.164 -0.244,0 -0.488,-0.044 -0.7,-0.164 -0.152,-0.084 -0.292,-0.216 -0.292,-0.388 0,-0.172 0.14,-0.304 0.292,-0.388 0.212,-0.12 0.456,-0.164 0.7,-0.164 0.244,0 0.484,0.044 0.696,0.164 0.152,0.084 0.292,0.216 0.292,0.388 z"
     fill="currentColor"
     id="path200"
     style="stroke-width:0.004" />
  <text
     font-family="'Roboto Light'"
     font-size="2.2001px"
     text-anchor="start"
     fill="currentColor"
     id="text204"
     x="81.029198"
     y="19.288799"><tspan
       id="tspan202">C</tspan></text>
  <path
     d="m 80.2062,2.276 c 0,-0.34 -0.044,-0.692 -0.24,-0.972 -0.008,-0.008 -0.012,-0.02 -0.012,-0.028 0,-0.028 0.024,-0.052 0.052,-0.052 0.016,0 0.028,0.008 0.04,0.024 0.212,0.304 0.36,0.656 0.36,1.028 0,0.372 -0.148,0.724 -0.36,1.028 -0.012,0.016 -0.024,0.024 -0.04,0.024 -0.028,0 -0.052,-0.024 -0.052,-0.052 0,-0.008 0.004,-0.02 0.012,-0.028 0.196,-0.28 0.24,-0.632 0.24,-0.972 z"
     fill="currentColor"
     id="path206"
     style="stroke-width:0.004" />
  <path
     d="m 78.4862,2.276 c 0,0.34 0.044,0.692 0.24,0.972 0.008,0.008 0.012,0.02 0.012,0.028 0,0.028 -0.024,0.052 -0.052,0.052 -0.016,0 -0.028,-0.008 -0.04,-0.024 -0.212,-0.304 -0.36,-0.656 -0.36,-1.028 0,-0.372 0.148,-0.724 0.36,-1.028 0.012,-0.016 0.024,-0.024 0.04,-0.024 0.028,0 0.052,0.024 0.052,0.052 0,0.008 -0.004,0.02 -0.012,0.028 -0.196,0.28 -0.24,0.632 -0.24,0.972 z"
     fill="currentColor"
     id="path208"
     style="stroke-width:0.004" />
  <path
     d="m 79.1142,2.112 -0.004,0.264 V 2.42 c 0,0.088 0.004,0.176 0.016,0.264 0.18,-0.152 0.372,-0.32 0.372,-0.556 0,-0.132 -0.056,-0.268 -0.172,-0.268 -0.124,0 -0.208,0.12 -0.212,0.252 z m -0.168,0.716 -0.048,-2.38 c 0.032,-0.02 0.072,-0.032 0.108,-0.032 0.036,0 0.076,0.012 0.108,0.032 l -0.028,1.38 c 0.1,-0.084 0.232,-0.136 0.364,-0.136 0.208,0 0.356,0.192 0.356,0.408 0,0.32 -0.344,0.468 -0.588,0.676 -0.06,0.052 -0.096,0.152 -0.18,0.152 -0.052,0 -0.092,-0.044 -0.092,-0.1 z"
     fill="currentColor"
     id="path210"
     style="stroke-width:0.004" />
  <path
     d="m 18.9745,5.776 c 0,-0.34 -0.044,-0.692 -0.24,-0.972 -0.008,-0.008 -0.012,-0.02 -0.012,-0.028 0,-0.028 0.024,-0.052 0.052,-0.052 0.016,0 0.028,0.008 0.04,0.024 0.212,0.304 0.36,0.656 0.36,1.028 0,0.372 -0.148,0.724 -0.36,1.028 -0.012,0.016 -0.024,0.024 -0.04,0.024 -0.028,0 -0.052,-0.024 -0.052,-0.052 0,-0.008 0.004,-0.02 0.012,-0.028 0.196,-0.28 0.24,-0.632 0.24,-0.972 z"
     fill="currentColor"
     id="path212"
     style="stroke-width:0.004" />
  <path
     d="m 17.2545,5.776 c 0,0.34 0.044,0.692 0.24,0.972 0.008,0.008 0.012,0.02 0.012,0.028 0,0.028 -0.024,0.052 -0.052,0.052 -0.016,0 -0.028,-0.008 -0.04,-0.024 -0.212,-0.304 -0.36,-0.656 -0.36,-1.028 0,-0.372 0.148,-0.724 0.36,-1.028 0.012,-0.016 0.024,-0.024 0.04,-0.024 0.028,0 0.052,0.024 0.052,0.052 0,0.008 -0.004,0.02 -0.012,0.028 -0.196,0.28 -0.24,0.632 -0.24,0.972 z"
     fill="currentColor"
     id="path214"
     style="stroke-width:0.004" />
  <path
     d="m 17.8825,5.612 -0.004,0.264 V 5.92 c 0,0.088 0.004,0.176 0.016,0.264 0.18,-0.152 0.372,-0.32 0.372,-0.556 0,-0.132 -0.056,-0.268 -0.172,-0.268 -0.124,0 -0.208,0.12 -0.212,0.252 z m -0.168,0.716 -0.048,-2.38 c 0.032,-0.02 0.072,-0.032 0.108,-0.032 0.036,0 0.076,0.012 0.108,0.032 l -0.028,1.38 c 0.1,-0.084 0.232,-0.136 0.364,-0.136 0.208,0 0.356,0.192 0.356,0.408 0,0.32 -0.344,0.468 -0.588,0.676 -0.06,0.052 -0.096,0.152 -0.18,0.152 -0.052,0 -0.092,-0.044 -0.092,-0.1 z"
     fill="currentColor"
     id="path216"
     style="stroke-width:0.004" />
  <path
     d="m 29.1319,4.828 c -0.2,0 -0.276,0.172 -0.276,0.352 0,0.308 0.228,0.544 0.536,0.544 0.2,0 0.276,-0.172 0.276,-0.352 0,-0.308 -0.228,-0.544 -0.536,-0.544 z m 1.12,0.448 c 0,0.172 -0.14,0.304 -0.292,0.388 -0.212,0.12 -0.452,0.164 -0.696,0.164 -0.244,0 -0.488,-0.044 -0.7,-0.164 -0.152,-0.084 -0.292,-0.216 -0.292,-0.388 0,-0.172 0.14,-0.304 0.292,-0.388 0.212,-0.12 0.456,-0.164 0.7,-0.164 0.244,0 0.484,0.044 0.696,0.164 0.152,0.084 0.292,0.216 0.292,0.388 z"
     fill="currentColor"
     id="path218"
     style="stroke-width:0.004" />
  <text
     font-family="'Roboto Light'"
     font-size="2.2001px"
     text-anchor="start"
     fill="currentColor"
     id="text222"
     x="28.630301"
     y="9.2686996"><tspan
       id="tspan220">F</tspan></text>
  <path
     d="m 29.1319,15.1623 c -0.2,0 -0.276,0.172 -0.276,0.352 0,0.308 0.228,0.544 0.536,0.544 0.2,0 0.276,-0.172 0.276,-0.352 0,-0.308 -0.228,-0.544 -0.536,-0.544 z m 1.12,0.448 c 0,0.172 -0.14,0.304 -0.292,0.388 -0.212,0.12 -0.452,0.164 -0.696,0.164 -0.244,0 -0.488,-0.044 -0.7,-0.164 -0.152,-0.084 -0.292,-0.216 -0.292,-0.388 0,-0.172 0.14,-0.304 0.292,-0.388 0.212,-0.12 0.456,-0.164 0.7,-0.164 0.244,0 0.484,0.044 0.696,0.164 0.152,0.084 0.292,0.216 0.292,0.388 z"
     fill="currentColor"
     id="path224"
     style="stroke-width:0.004" />
  <text
     font-family="'Roboto Light'"
     font-size="2.2001px"
     text-anchor="start"
     fill="currentColor"
     id="text228"
     x="28.544901"
     y="19.288799"><tspan
       id="tspan226">D</tspan></text>
  <path
     d="m 20.3846,5.328 c -0.2,0 -0.276,0.172 -0.276,0.352 0,0.308 0.228,0.544 0.536,0.544 0.2,0 0.276,-0.172 0.276,-0.352 0,-0.308 -0.228,-0.544 -0.536,-0.544 z m 1.12,0.448 c 0,0.172 -0.14,0.304 -0.292,0.388 -0.212,0.12 -0.452,0.164 -0.696,0.164 -0.244,0 -0.488,-0.044 -0.7,-0.164 -0.152,-0.084 -0.292,-0.216 -0.292,-0.388 0,-0.172 0.14,-0.304 0.292,-0.388 0.212,-0.12 0.456,-0.164 0.7,-0.164 0.244,0 0.484,0.044 0.696,0.164 0.152,0.084 0.292,0.216 0.292,0.388 z"
     fill="currentColor"
     id="path230"
     style="stroke-width:0.004" />
  <path
     d="m 2.304,3.728 c 0.016,0 0.036,-0.004 0.052,-0.004 0.62,0 1.024,0.512 1.024,1.044 0,0.304 -0.132,0.616 -0.428,0.84 C 2.864,5.676 2.764,5.72 2.66,5.752 c 0.012,0.14 0.02,0.28 0.02,0.42 0,0.076 -0.004,0.156 -0.008,0.232 -0.028,0.48 -0.36,0.912 -0.832,0.912 -0.432,0 -0.78,-0.352 -0.78,-0.788 0,-0.232 0.212,-0.412 0.448,-0.412 0.216,0 0.38,0.188 0.38,0.412 0,0.208 -0.172,0.38 -0.38,0.38 C 1.464,6.908 1.424,6.9 1.384,6.884 1.488,7.04 1.656,7.144 1.852,7.144 2.236,7.144 2.48,6.776 2.504,6.38 2.508,6.308 2.512,6.232 2.512,6.16 2.512,6.036 2.508,5.916 2.496,5.792 2.38,5.812 2.264,5.824 2.14,5.824 1.388,5.824 0.808,5.136 0.808,4.328 0.808,3.62 1.332,3.104 1.8,2.564 1.724,2.316 1.652,2.064 1.62,1.804 1.596,1.596 1.592,1.388 1.592,1.18 1.592,0.72 1.812,0.284 2.188,0.012 2.2,0.004 2.216,0 2.228,0 2.244,0 2.256,0 2.268,0.012 2.552,0.348 2.8,0.992 2.8,1.444 2.8,2.016 2.456,2.464 2.08,2.9 2.164,3.172 2.236,3.452 2.304,3.728 Z m 0.34,1.86 C 2.916,5.492 3.096,5.208 3.096,4.932 3.096,4.572 2.832,4.216 2.404,4.172 2.5,4.636 2.588,5.096 2.644,5.588 Z M 1.096,4.664 c 0,0.54 0.516,0.988 1.056,0.988 0.112,0 0.22,-0.008 0.328,-0.024 C 2.424,5.12 2.332,4.648 2.228,4.172 1.912,4.204 1.732,4.416 1.732,4.648 c 0,0.176 0.1,0.364 0.324,0.492 0.02,0.02 0.028,0.04 0.028,0.06 0,0.044 -0.04,0.088 -0.088,0.088 C 1.984,5.288 1.972,5.284 1.96,5.28 1.64,5.108 1.492,4.82 1.492,4.54 1.492,4.188 1.724,3.844 2.132,3.752 2.076,3.52 2.016,3.284 1.948,3.052 1.52,3.536 1.096,4.024 1.096,4.664 Z M 2.432,0.596 C 2.036,0.788 1.784,1.192 1.784,1.632 c 0,0.296 0.072,0.532 0.144,0.776 0.32,-0.388 0.584,-0.792 0.584,-1.296 0,-0.22 -0.016,-0.316 -0.08,-0.516 z"
     fill="currentColor"
     id="path232"
     style="stroke-width:0.004" />
  <path
     d="M 4.528,3.612 4.524,3.876 V 3.92 c 0,0.088 0.004,0.176 0.016,0.264 C 4.72,4.032 4.912,3.864 4.912,3.628 4.912,3.496 4.856,3.36 4.74,3.36 4.616,3.36 4.532,3.48 4.528,3.612 Z M 4.36,4.328 4.312,1.948 C 4.344,1.928 4.384,1.916 4.42,1.916 c 0.036,0 0.076,0.012 0.108,0.032 L 4.5,3.328 C 4.6,3.244 4.732,3.192 4.864,3.192 5.072,3.192 5.22,3.384 5.22,3.6 5.22,3.92 4.876,4.068 4.632,4.276 4.572,4.328 4.536,4.428 4.452,4.428 4.4,4.428 4.36,4.384 4.36,4.328 Z"
     fill="currentColor"
     id="path234"
     style="stroke-width:0.004" />
  <path
     d="M 5.448,2.112 5.444,2.376 V 2.42 c 0,0.088 0.004,0.176 0.016,0.264 C 5.64,2.532 5.832,2.364 5.832,2.128 5.832,1.996 5.776,1.86 5.66,1.86 5.536,1.86 5.452,1.98 5.448,2.112 Z M 5.28,2.828 5.232,0.448 C 5.264,0.428 5.304,0.416 5.34,0.416 c 0.036,0 0.076,0.012 0.108,0.032 L 5.42,1.828 C 5.52,1.744 5.652,1.692 5.784,1.692 5.992,1.692 6.14,1.884 6.14,2.1 6.14,2.42 5.796,2.568 5.552,2.776 5.492,2.828 5.456,2.928 5.372,2.928 5.32,2.928 5.28,2.884 5.28,2.828 Z"
     fill="currentColor"
     id="path236"
     style="stroke-width:0.004" />
  <path
     d="M 6.368,4.112 6.364,4.376 V 4.42 c 0,0.088 0.004,0.176 0.016,0.264 C 6.56,4.532 6.752,4.364 6.752,4.128 6.752,3.996 6.696,3.86 6.58,3.86 6.456,3.86 6.372,3.98 6.368,4.112 Z M 6.2,4.828 6.152,2.448 C 6.184,2.428 6.224,2.416 6.26,2.416 c 0.036,0 0.076,0.012 0.108,0.032 L 6.34,3.828 C 6.44,3.744 6.572,3.692 6.704,3.692 6.912,3.692 7.06,3.884 7.06,4.1 7.06,4.42 6.716,4.568 6.472,4.776 6.412,4.828 6.376,4.928 6.292,4.928 6.24,4.928 6.2,4.884 6.2,4.828 Z"
     fill="currentColor"
     id="path238"
     style="stroke-width:0.004" />
  <text
     font-family="'Roboto Light'"
     font-size="2.2001px"
     text-anchor="start"
     fill="currentColor"
     id="text242"
     x="19.1688"
     y="9.2686996"><tspan
       id="tspan240">E</tspan></text>
  <path
     d="m 21.252,8.8283 -0.0072,0.2304 v 0.0396 c 0,0.0792 0.0072,0.1548 0.018,0.234 0.1584,-0.1368 0.3276,-0.288 0.3276,-0.4968 0,-0.1188 -0.0468,-0.2376 -0.1512,-0.2376 -0.1116,0 -0.1836,0.1116 -0.1872,0.2304 z M 21.09,9.4691 21.0468,7.3343 c 0.0324,-0.018 0.0648,-0.0288 0.1008,-0.0288 0.036,0 0.0684,0.0108 0.1008,0.0288 l -0.0252,1.2348 c 0.09,-0.0828 0.2088,-0.1296 0.3312,-0.1296 0.1836,0 0.3132,0.1764 0.3132,0.3708 0,0.2844 -0.3024,0.4212 -0.5184,0.6084 -0.0576,0.0504 -0.09,0.1476 -0.1692,0.1476 -0.0504,0 -0.09,-0.0468 -0.09,-0.0972 z"
     fill="currentColor"
     id="path244"
     style="stroke-width:0.0036" />
  <text
     font-family="'Roboto Slab Light'"
     font-size="2.2001px"
     text-anchor="start"
     fill="currentColor"
     id="text248"
     x="8.3900003"
     y="9.2686996"><tspan
       id="tspan246">E</tspan></text>
  <path
     d="m 10.5757,8.8283 -0.0072,0.2304 v 0.0396 c 0,0.0792 0.0072,0.1548 0.018,0.234 0.1584,-0.1368 0.3276,-0.288 0.3276,-0.4968 0,-0.1188 -0.0468,-0.2376 -0.1512,-0.2376 -0.1116,0 -0.1836,0.1116 -0.1872,0.2304 z m -0.162,0.6408 -0.0432,-2.1348 c 0.0324,-0.018 0.0648,-0.0288 0.1008,-0.0288 0.036,0 0.0684,0.0108 0.1008,0.0288 l -0.0252,1.2348 c 0.09,-0.0828 0.2088,-0.1296 0.3312,-0.1296 0.1836,0 0.3132,0.1764 0.3132,0.3708 0,0.2844 -0.3024,0.4212 -0.5184,0.6084 -0.0576,0.0504 -0.09,0.1476 -0.1692,0.1476 -0.0504,0 -0.09,-0.0468 -0.09,-0.0972 z"
     fill="currentColor"
     id="path250"
     style="stroke-width:0.0036" />
  <text
     font-family="'Roboto Slab Light'"
     font-size="2.2001px"
     text-anchor="start"
     fill="currentColor"
     id="text254"
     x="11.784"
     y="9.2686996"><tspan
       id="tspan252">Maior:</tspan></text>
  <path
     d="m 20.3846,15.6623 c -0.2,0 -0.276,0.172 -0.276,0.352 0,0.308 0.228,0.544 0.536,0.544 0.2,0 0.276,-0.172 0.276,-0.352 0,-0.308 -0.228,-0.544 -0.536,-0.544 z m 1.12,0.448 c 0,0.172 -0.14,0.304 -0.292,0.388 -0.212,0.12 -0.452,0.164 -0.696,0.164 -0.244,0 -0.488,-0.044 -0.7,-0.164 -0.152,-0.084 -0.292,-0.216 -0.292,-0.388 0,-0.172 0.14,-0.304 0.292,-0.388 0.212,-0.12 0.456,-0.164 0.7,-0.164 0.244,0 0.484,0.044 0.696,0.164 0.152,0.084 0.292,0.216 0.292,0.388 z"
     fill="currentColor"
     id="path256"
     style="stroke-width:0.004" />
  <path
     d="m 2.304,13.0623 c 0.016,0 0.036,-0.004 0.052,-0.004 0.62,0 1.024,0.512 1.024,1.044 0,0.304 -0.132,0.616 -0.428,0.84 -0.088,0.068 -0.188,0.112 -0.292,0.144 0.012,0.14 0.02,0.28 0.02,0.42 0,0.076 -0.004,0.156 -0.008,0.232 -0.028,0.48 -0.36,0.912 -0.832,0.912 -0.432,0 -0.78,-0.352 -0.78,-0.788 0,-0.232 0.212,-0.412 0.448,-0.412 0.216,0 0.38,0.188 0.38,0.412 0,0.208 -0.172,0.38 -0.38,0.38 -0.044,0 -0.084,-0.008 -0.124,-0.024 0.104,0.156 0.272,0.26 0.468,0.26 0.384,0 0.628,-0.368 0.652,-0.764 0.004,-0.072 0.008,-0.148 0.008,-0.22 0,-0.124 -0.004,-0.244 -0.016,-0.368 -0.116,0.02 -0.232,0.032 -0.356,0.032 -0.752,0 -1.332,-0.688 -1.332,-1.496 0,-0.708 0.524,-1.224 0.992,-1.764 -0.076,-0.248 -0.148,-0.5 -0.18,-0.76 -0.024,-0.208 -0.028,-0.416 -0.028,-0.624 0,-0.46 0.22,-0.896 0.596,-1.168 0.012,-0.008 0.028,-0.012 0.04,-0.012 0.016,0 0.028,0 0.04,0.012 0.284,0.336 0.532,0.98 0.532,1.432 0,0.572 -0.344,1.02 -0.72,1.456 0.084,0.272 0.156,0.552 0.224,0.828 z m 0.34,1.86 c 0.272,-0.096 0.452,-0.38 0.452,-0.656 0,-0.36 -0.264,-0.716 -0.692,-0.76 0.096,0.464 0.184,0.924 0.24,1.416 z m -1.548,-0.924 c 0,0.54 0.516,0.988 1.056,0.988 0.112,0 0.22,-0.008 0.328,-0.024 -0.056,-0.508 -0.148,-0.98 -0.252,-1.456 -0.316,0.032 -0.496,0.244 -0.496,0.476 0,0.176 0.1,0.364 0.324,0.492 0.02,0.02 0.028,0.04 0.028,0.06 0,0.044 -0.04,0.088 -0.088,0.088 -0.012,0 -0.024,-0.004 -0.036,-0.008 -0.32,-0.172 -0.468,-0.46 -0.468,-0.74 0,-0.352 0.232,-0.696 0.64,-0.788 -0.056,-0.232 -0.116,-0.468 -0.184,-0.7 -0.428,0.484 -0.852,0.972 -0.852,1.612 z m 1.336,-4.068 c -0.396,0.192 -0.648,0.596 -0.648,1.036 0,0.296 0.072,0.532 0.144,0.776 0.32,-0.388 0.584,-0.792 0.584,-1.296 0,-0.22 -0.016,-0.316 -0.08,-0.516 z"
     fill="currentColor"
     id="path258"
     style="stroke-width:0.004" />
  <path
     d="m 4.528,12.9463 -0.004,0.264 v 0.044 c 0,0.088 0.004,0.176 0.016,0.264 0.18,-0.152 0.372,-0.32 0.372,-0.556 0,-0.132 -0.056,-0.268 -0.172,-0.268 -0.124,0 -0.208,0.12 -0.212,0.252 z m -0.168,0.716 -0.048,-2.38 c 0.032,-0.02 0.072,-0.032 0.108,-0.032 0.036,0 0.076,0.012 0.108,0.032 l -0.028,1.38 c 0.1,-0.084 0.232,-0.136 0.364,-0.136 0.208,0 0.356,0.192 0.356,0.408 0,0.32 -0.344,0.468 -0.588,0.676 -0.06,0.052 -0.096,0.152 -0.18,0.152 -0.052,0 -0.092,-0.044 -0.092,-0.1 z"
     fill="currentColor"
     id="path260"
     style="stroke-width:0.004" />
  <path
     d="m 5.448,11.4463 -0.004,0.264 v 0.044 c 0,0.088 0.004,0.176 0.016,0.264 0.18,-0.152 0.372,-0.32 0.372,-0.556 0,-0.132 -0.056,-0.268 -0.172,-0.268 -0.124,0 -0.208,0.12 -0.212,0.252 z m -0.168,0.716 -0.048,-2.38 c 0.032,-0.02 0.072,-0.032 0.108,-0.032 0.036,0 0.076,0.012 0.108,0.032 l -0.028,1.38 c 0.1,-0.084 0.232,-0.136 0.364,-0.136 0.208,0 0.356,0.192 0.356,0.408 0,0.32 -0.344,0.468 -0.588,0.676 -0.06,0.052 -0.096,0.152 -0.18,0.152 -0.052,0 -0.092,-0.044 -0.092,-0.1 z"
     fill="currentColor"
     id="path262"
     style="stroke-width:0.004" />
  <path
     d="m 6.368,13.4463 -0.004,0.264 v 0.044 c 0,0.088 0.004,0.176 0.016,0.264 0.18,-0.152 0.372,-0.32 0.372,-0.556 0,-0.132 -0.056,-0.268 -0.172,-0.268 -0.124,0 -0.208,0.12 -0.212,0.252 z m -0.168,0.716 -0.048,-2.38 c 0.032,-0.02 0.072,-0.032 0.108,-0.032 0.036,0 0.076,0.012 0.108,0.032 l -0.028,1.38 c 0.1,-0.084 0.232,-0.136 0.364,-0.136 0.208,0 0.356,0.192 0.356,0.408 0,0.32 -0.344,0.468 -0.588,0.676 -0.06,0.052 -0.096,0.152 -0.18,0.152 -0.052,0 -0.092,-0.044 -0.092,-0.1 z"
     fill="currentColor"
     id="path264"
     style="stroke-width:0.004" />
  <text
     font-family="'Roboto Light'"
     font-size="2.2001px"
     text-anchor="start"
     fill="currentColor"
     id="text268"
     x="19.7976"
     y="19.288799"><tspan
       id="tspan266">C</tspan></text>
  <text
     font-family="'Roboto Slab Light'"
     font-size="2.2001px"
     text-anchor="start"
     fill="currentColor"
     id="text272"
     x="9.6129999"
     y="19.288799"><tspan
       id="tspan270">C menor:</tspan></text>
  <path
     d="m 36.4693,15.1103 c 0,-0.34 -0.044,-0.692 -0.24,-0.972 -0.008,-0.008 -0.012,-0.02 -0.012,-0.028 0,-0.028 0.024,-0.052 0.052,-0.052 0.016,0 0.028,0.008 0.04,0.024 0.212,0.304 0.36,0.656 0.36,1.028 0,0.372 -0.148,0.724 -0.36,1.028 -0.012,0.016 -0.024,0.024 -0.04,0.024 -0.028,0 -0.052,-0.024 -0.052,-0.052 0,-0.008 0.004,-0.02 0.012,-0.028 0.196,-0.28 0.24,-0.632 0.24,-0.972 z"
     fill="currentColor"
     id="path274"
     style="stroke-width:0.004" />
  <path
     d="m 34.7493,15.1103 c 0,0.34 0.044,0.692 0.24,0.972 0.008,0.008 0.012,0.02 0.012,0.028 0,0.028 -0.024,0.052 -0.052,0.052 -0.016,0 -0.028,-0.008 -0.04,-0.024 -0.212,-0.304 -0.36,-0.656 -0.36,-1.028 0,-0.372 0.148,-0.724 0.36,-1.028 0.012,-0.016 0.024,-0.024 0.04,-0.024 0.028,0 0.052,0.024 0.052,0.052 0,0.008 -0.004,0.02 -0.012,0.028 -0.196,0.28 -0.24,0.632 -0.24,0.972 z"
     fill="currentColor"
     id="path276"
     style="stroke-width:0.004" />
  <path
     d="m 35.3773,14.9463 -0.004,0.264 v 0.044 c 0,0.088 0.004,0.176 0.016,0.264 0.18,-0.152 0.372,-0.32 0.372,-0.556 0,-0.132 -0.056,-0.268 -0.172,-0.268 -0.124,0 -0.208,0.12 -0.212,0.252 z m -0.168,0.716 -0.048,-2.38 c 0.032,-0.02 0.072,-0.032 0.108,-0.032 0.036,0 0.076,0.012 0.108,0.032 l -0.028,1.38 c 0.1,-0.084 0.232,-0.136 0.364,-0.136 0.208,0 0.356,0.192 0.356,0.408 0,0.32 -0.344,0.468 -0.588,0.676 -0.06,0.052 -0.096,0.152 -0.18,0.152 -0.052,0 -0.092,-0.044 -0.092,-0.1 z"
     fill="currentColor"
     id="path278"
     style="stroke-width:0.004" />
  <path
     d="m 46.6267,3.828 c -0.2,0 -0.276,0.172 -0.276,0.352 0,0.308 0.228,0.544 0.536,0.544 0.2,0 0.276,-0.172 0.276,-0.352 0,-0.308 -0.228,-0.544 -0.536,-0.544 z m 1.12,0.448 c 0,0.172 -0.14,0.304 -0.292,0.388 -0.212,0.12 -0.452,0.164 -0.696,0.164 -0.244,0 -0.488,-0.044 -0.7,-0.164 -0.152,-0.084 -0.292,-0.216 -0.292,-0.388 0,-0.172 0.14,-0.304 0.292,-0.388 0.212,-0.12 0.456,-0.164 0.7,-0.164 0.244,0 0.484,0.044 0.696,0.164 0.152,0.084 0.292,0.216 0.292,0.388 z"
     fill="currentColor"
     id="path280"
     style="stroke-width:0.004" />
  <text
     font-family="'Roboto Light'"
     font-size="2.2001px"
     text-anchor="start"
     fill="currentColor"
     id="text284"
     x="45.359699"
     y="9.2686996"><tspan
       id="tspan282">A</tspan></text>
  <path
     d="m 47.5454,8.8283 -0.0072,0.2304 v 0.0396 c 0,0.0792 0.0072,0.1548 0.018,0.234 0.1584,-0.1368 0.3276,-0.288 0.3276,-0.4968 0,-0.1188 -0.0468,-0.2376 -0.1512,-0.2376 -0.1116,0 -0.1836,0.1116 -0.1872,0.2304 z m -0.162,0.6408 -0.0432,-2.1348 c 0.0324,-0.018 0.0648,-0.0288 0.1008,-0.0288 0.036,0 0.0684,0.0108 0.1008,0.0288 l -0.0252,1.2348 c 0.09,-0.0828 0.2088,-0.1296 0.3312,-0.1296 0.1836,0 0.3132,0.1764 0.3132,0.3708 0,0.2844 -0.3024,0.4212 -0.5184,0.6084 -0.0576,0.0504 -0.09,0.1476 -0.1692,0.1476 -0.0504,0 -0.09,-0.0468 -0.09,-0.0972 z"
     fill="currentColor"
     id="path286"
     style="stroke-width:0.0036" />
  <path
     d="m 46.6267,14.1623 c -0.2,0 -0.276,0.172 -0.276,0.352 0,0.308 0.228,0.544 0.536,0.544 0.2,0 0.276,-0.172 0.276,-0.352 0,-0.308 -0.228,-0.544 -0.536,-0.544 z m 1.12,0.448 c 0,0.172 -0.14,0.304 -0.292,0.388 -0.212,0.12 -0.452,0.164 -0.696,0.164 -0.244,0 -0.488,-0.044 -0.7,-0.164 -0.152,-0.084 -0.292,-0.216 -0.292,-0.388 0,-0.172 0.14,-0.304 0.292,-0.388 0.212,-0.12 0.456,-0.164 0.7,-0.164 0.244,0 0.484,0.044 0.696,0.164 0.152,0.084 0.292,0.216 0.292,0.388 z"
     fill="currentColor"
     id="path288"
     style="stroke-width:0.004" />
  <text
     font-family="'Roboto Light'"
     font-size="2.2001px"
     text-anchor="start"
     fill="currentColor"
     id="text292"
     x="46.125"
     y="19.288799"><tspan
       id="tspan290">F</tspan></text>
  <path
     d="m 45.2167,4.276 c 0,-0.34 -0.044,-0.692 -0.24,-0.972 -0.008,-0.008 -0.012,-0.02 -0.012,-0.028 0,-0.028 0.024,-0.052 0.052,-0.052 0.016,0 0.028,0.008 0.04,0.024 0.212,0.304 0.36,0.656 0.36,1.028 0,0.372 -0.148,0.724 -0.36,1.028 -0.012,0.016 -0.024,0.024 -0.04,0.024 -0.028,0 -0.052,-0.024 -0.052,-0.052 0,-0.008 0.004,-0.02 0.012,-0.028 0.196,-0.28 0.24,-0.632 0.24,-0.972 z"
     fill="currentColor"
     id="path294"
     style="stroke-width:0.004" />
  <path
     d="m 43.4967,4.276 c 0,0.34 0.044,0.692 0.24,0.972 0.008,0.008 0.012,0.02 0.012,0.028 0,0.028 -0.024,0.052 -0.052,0.052 -0.016,0 -0.028,-0.008 -0.04,-0.024 -0.212,-0.304 -0.36,-0.656 -0.36,-1.028 0,-0.372 0.148,-0.724 0.36,-1.028 0.012,-0.016 0.024,-0.024 0.04,-0.024 0.028,0 0.052,0.024 0.052,0.052 0,0.008 -0.004,0.02 -0.012,0.028 -0.196,0.28 -0.24,0.632 -0.24,0.972 z"
     fill="currentColor"
     id="path296"
     style="stroke-width:0.004" />
  <path
     d="m 44.1247,4.112 -0.004,0.264 V 4.42 c 0,0.088 0.004,0.176 0.016,0.264 0.18,-0.152 0.372,-0.32 0.372,-0.556 0,-0.132 -0.056,-0.268 -0.172,-0.268 -0.124,0 -0.208,0.12 -0.212,0.252 z m -0.168,0.716 -0.048,-2.38 c 0.032,-0.02 0.072,-0.032 0.108,-0.032 0.036,0 0.076,0.012 0.108,0.032 l -0.028,1.38 c 0.1,-0.084 0.232,-0.136 0.364,-0.136 0.208,0 0.356,0.192 0.356,0.408 0,0.32 -0.344,0.468 -0.588,0.676 -0.06,0.052 -0.096,0.152 -0.18,0.152 -0.052,0 -0.092,-0.044 -0.092,-0.1 z"
     fill="currentColor"
     id="path298"
     style="stroke-width:0.004" />
  <path
     d="m 37.8793,4.328 c -0.2,0 -0.276,0.172 -0.276,0.352 0,0.308 0.228,0.544 0.536,0.544 0.2,0 0.276,-0.172 0.276,-0.352 0,-0.308 -0.228,-0.544 -0.536,-0.544 z m 1.12,0.448 c 0,0.172 -0.14,0.304 -0.292,0.388 -0.212,0.12 -0.452,0.164 -0.696,0.164 -0.244,0 -0.488,-0.044 -0.7,-0.164 -0.152,-0.084 -0.292,-0.216 -0.292,-0.388 0,-0.172 0.14,-0.304 0.292,-0.388 0.212,-0.12 0.456,-0.164 0.7,-0.164 0.244,0 0.484,0.044 0.696,0.164 0.152,0.084 0.292,0.216 0.292,0.388 z"
     fill="currentColor"
     id="path300"
     style="stroke-width:0.004" />
  <text
     font-family="'Roboto Light'"
     font-size="2.2001px"
     text-anchor="start"
     fill="currentColor"
     id="text304"
     x="37.258202"
     y="9.2686996"><tspan
       id="tspan302">G</tspan></text>
  <path
     d="m 37.8793,14.6623 c -0.2,0 -0.276,0.172 -0.276,0.352 0,0.308 0.228,0.544 0.536,0.544 0.2,0 0.276,-0.172 0.276,-0.352 0,-0.308 -0.228,-0.544 -0.536,-0.544 z m 1.12,0.448 c 0,0.172 -0.14,0.304 -0.292,0.388 -0.212,0.12 -0.452,0.164 -0.696,0.164 -0.244,0 -0.488,-0.044 -0.7,-0.164 -0.152,-0.084 -0.292,-0.216 -0.292,-0.388 0,-0.172 0.14,-0.304 0.292,-0.388 0.212,-0.12 0.456,-0.164 0.7,-0.164 0.244,0 0.484,0.044 0.696,0.164 0.152,0.084 0.292,0.216 0.292,0.388 z"
     fill="currentColor"
     id="path306"
     style="stroke-width:0.004" />
  <text
     font-family="'Roboto Light'"
     font-size="2.2001px"
     text-anchor="start"
     fill="currentColor"
     id="text310"
     x="36.663502"
     y="19.288799"><tspan
       id="tspan308">E</tspan></text>
  <path
     d="m 38.7468,18.8484 -0.0072,0.2304 v 0.0396 c 0,0.0792 0.0072,0.1548 0.018,0.234 0.1584,-0.1368 0.3276,-0.288 0.3276,-0.4968 0,-0.1188 -0.0468,-0.2376 -0.1512,-0.2376 -0.1116,0 -0.1836,0.1116 -0.1872,0.2304 z m -0.162,0.6408 -0.0432,-2.1348 c 0.0324,-0.018 0.0648,-0.0288 0.1008,-0.0288 0.036,0 0.0684,0.0108 0.1008,0.0288 l -0.0252,1.2348 c 0.09,-0.0828 0.2088,-0.1296 0.3312,-0.1296 0.1836,0 0.3132,0.1764 0.3132,0.3708 0,0.2844 -0.3024,0.4212 -0.5184,0.6084 -0.0576,0.0504 -0.09,0.1476 -0.1692,0.1476 -0.0504,0 -0.09,-0.0468 -0.09,-0.0972 z"
     fill="currentColor"
     id="path312"
     style="stroke-width:0.0036" />
</svg>
