<?xml version="1.0" encoding="UTF-8" standalone="no"?>
<svg
   version="1.2"
   width="159.36781mm"
   height="40.871426mm"
   viewBox="0 0 90.689089 23.258098"
   id="svg108"
   xmlns="http://www.w3.org/2000/svg"
   xmlns:svg="http://www.w3.org/2000/svg">
  <defs
     id="defs112" />
  <!-- Page: 1/1 -->
  <text
     font-family="'Century Schoolbook L'"
     font-size="2.2001px"
     text-anchor="start"
     fill="currentColor"
     id="text4"
     y="-1"><tspan
       id="tspan2" /></text>
  <line
     stroke-linejoin="round"
     stroke-linecap="round"
     stroke-width="0.1"
     stroke="currentColor"
     x1="0.050000001"
     y1="6"
     x2="90.543602"
     y2="6"
     id="line6" />
  <line
     stroke-linejoin="round"
     stroke-linecap="round"
     stroke-width="0.1"
     stroke="currentColor"
     x1="0.050000001"
     y1="5"
     x2="90.543602"
     y2="5"
     id="line8" />
  <line
     stroke-linejoin="round"
     stroke-linecap="round"
     stroke-width="0.1"
     stroke="currentColor"
     x1="0.050000001"
     y1="4"
     x2="90.543602"
     y2="4"
     id="line10" />
  <line
     stroke-linejoin="round"
     stroke-linecap="round"
     stroke-width="0.1"
     stroke="currentColor"
     x1="0.050000001"
     y1="3"
     x2="90.543602"
     y2="3"
     id="line12" />
  <line
     stroke-linejoin="round"
     stroke-linecap="round"
     stroke-width="0.1"
     stroke="currentColor"
     x1="0.050000001"
     y1="2"
     x2="90.543602"
     y2="2"
     id="line14" />
  <path
     d="m 66.3383,1.552 c -0.2,0 -0.276,0.172 -0.276,0.352 0,0.308 0.228,0.544 0.536,0.544 0.2,0 0.276,-0.172 0.276,-0.352 0,-0.308 -0.228,-0.544 -0.536,-0.544 z M 67.4583,2 c 0,0.172 -0.14,0.304 -0.292,0.388 -0.212,0.12 -0.452,0.164 -0.696,0.164 -0.244,0 -0.488,-0.044 -0.7,-0.164 -0.152,-0.084 -0.292,-0.216 -0.292,-0.388 0,-0.172 0.14,-0.304 0.292,-0.388 0.212,-0.12 0.456,-0.164 0.7,-0.164 0.244,0 0.484,0.044 0.696,0.164 0.152,0.084 0.292,0.216 0.292,0.388 z"
     fill="currentColor"
     id="path16"
     style="stroke-width:0.004" />
  <path
     d="m 60.9268,2 c 0,0.132 0.028,0.292 0.18,0.292 0.116,0 0.228,-0.124 0.352,-0.124 0.492,0 0.916,0.356 0.916,0.832 0,0.676 -0.372,1 -1.06,1 -0.332,0 -0.608,-0.244 -0.608,-0.568 0,-0.168 0.136,-0.308 0.304,-0.308 0.168,0 0.304,0.14 0.304,0.308 0,0.156 -0.196,0.148 -0.196,0.304 0,0.092 0.096,0.152 0.196,0.152 0.464,0 0.56,-0.36 0.56,-0.888 0,-0.424 -0.048,-0.72 -0.416,-0.72 -0.288,0 -0.476,0.284 -0.476,0.596 0,0.036 -0.028,0.056 -0.056,0.056 -0.028,0 -0.052,-0.02 -0.052,-0.056 0,-0.304 -0.124,-0.588 -0.336,-0.8 V 3.96 c 0,0.024 -0.016,0.04 -0.04,0.04 h -0.084 c -0.024,0 -0.04,-0.016 -0.04,-0.04 V 0.04 c 0,-0.024 0.016,-0.04 0.04,-0.04 h 0.084 c 0.024,0 0.04,0.016 0.04,0.04 v 1.884 c 0.212,-0.212 0.336,-0.496 0.336,-0.8 0,-0.036 0.024,-0.056 0.052,-0.056 0.028,0 0.056,0.02 0.056,0.056 0,0.312 0.188,0.596 0.476,0.596 0.368,0 0.416,-0.296 0.416,-0.72 0,-0.528 -0.096,-0.888 -0.56,-0.888 -0.1,0 -0.196,0.06 -0.196,0.152 0,0.156 0.196,0.148 0.196,0.304 0,0.168 -0.136,0.308 -0.304,0.308 -0.168,0 -0.304,-0.14 -0.304,-0.308 0,-0.324 0.276,-0.568 0.608,-0.568 0.688,0 1.06,0.324 1.06,1 0,0.476 -0.424,0.832 -0.916,0.832 -0.124,0 -0.236,-0.124 -0.352,-0.124 -0.152,0 -0.18,0.16 -0.18,0.292 z m -0.756,2 h -0.476 c -0.024,0 -0.04,-0.016 -0.04,-0.04 V 0.04 c 0,-0.024 0.016,-0.04 0.04,-0.04 h 0.476 c 0.024,0 0.04,0.016 0.04,0.04 v 3.92 c 0,0.024 -0.016,0.04 -0.04,0.04 z"
     fill="currentColor"
     id="path18"
     style="stroke-width:0.004" />
  <text
     font-family="'Roboto Light'"
     font-size="2.2001px"
     text-anchor="start"
     fill="currentColor"
     id="text22"
     x="57.478298"
     y="9.5"><tspan
       id="tspan20">4. Barítono (C4)</tspan></text>
  <text
     font-family="'Roboto Light'"
     font-size="2.2001px"
     text-anchor="start"
     fill="currentColor"
     id="text26"
     x="43.003502"
     y="9.5"><tspan
       id="tspan24">3. Baixo (F4)</tspan></text>
  <path
     d="m 46.6003,3.5 c 0,-0.112 0.092,-0.204 0.204,-0.204 0.112,0 0.204,0.092 0.204,0.204 0,0.112 -0.092,0.204 -0.204,0.204 -0.112,0 -0.204,-0.092 -0.204,-0.204 z m 0,-1 c 0,-0.112 0.092,-0.204 0.204,-0.204 0.112,0 0.204,0.092 0.204,0.204 0,0.112 -0.092,0.204 -0.204,0.204 -0.112,0 -0.204,-0.092 -0.204,-0.204 z m -1.3,-0.552 c 0.688,0 1.172,0.352 1.172,1.004 0,1.052 -1.052,1.656 -2.064,2.084 -0.012,0.012 -0.024,0.016 -0.036,0.016 -0.028,0 -0.052,-0.024 -0.052,-0.052 0,-0.012 0.004,-0.024 0.016,-0.036 0.808,-0.472 1.648,-1.06 1.648,-1.972 0,-0.48 -0.252,-0.94 -0.684,-0.94 -0.296,0 -0.516,0.216 -0.616,0.504 0.044,-0.02 0.088,-0.032 0.136,-0.032 0.22,0 0.4,0.18 0.4,0.4 0,0.232 -0.176,0.424 -0.4,0.424 -0.24,0 -0.448,-0.188 -0.448,-0.424 0,-0.532 0.408,-0.976 0.928,-0.976 z"
     fill="currentColor"
     id="path28"
     style="stroke-width:0.004" />
  <path
     d="m 51.8635,2.552 c -0.2,0 -0.276,0.172 -0.276,0.352 0,0.308 0.228,0.544 0.536,0.544 0.2,0 0.276,-0.172 0.276,-0.352 0,-0.308 -0.228,-0.544 -0.536,-0.544 z M 52.9835,3 c 0,0.172 -0.14,0.304 -0.292,0.388 -0.212,0.12 -0.452,0.164 -0.696,0.164 -0.244,0 -0.488,-0.044 -0.7,-0.164 -0.152,-0.084 -0.292,-0.216 -0.292,-0.388 0,-0.172 0.14,-0.304 0.292,-0.388 0.212,-0.12 0.456,-0.164 0.7,-0.164 0.244,0 0.484,0.044 0.696,0.164 0.152,0.084 0.292,0.216 0.292,0.388 z"
     fill="currentColor"
     id="path30"
     style="stroke-width:0.004" />
  <text
     font-family="'Roboto Light'"
     font-size="2.2001px"
     text-anchor="start"
     fill="currentColor"
     id="text34"
     x="74.957703"
     y="9.5"><tspan
       id="tspan32">5. Tenor (C4)</tspan></text>
  <path
     d="m 77.8168,3 c 0,0.132 0.028,0.292 0.18,0.292 0.116,0 0.228,-0.124 0.352,-0.124 0.492,0 0.916,0.356 0.916,0.832 0,0.676 -0.372,1 -1.06,1 -0.332,0 -0.608,-0.244 -0.608,-0.568 0,-0.168 0.136,-0.308 0.304,-0.308 0.168,0 0.304,0.14 0.304,0.308 0,0.156 -0.196,0.148 -0.196,0.304 0,0.092 0.096,0.152 0.196,0.152 0.464,0 0.56,-0.36 0.56,-0.888 0,-0.424 -0.048,-0.72 -0.416,-0.72 -0.288,0 -0.476,0.284 -0.476,0.596 0,0.036 -0.028,0.056 -0.056,0.056 -0.028,0 -0.052,-0.02 -0.052,-0.056 0,-0.304 -0.124,-0.588 -0.336,-0.8 V 4.96 c 0,0.024 -0.016,0.04 -0.04,0.04 h -0.084 c -0.024,0 -0.04,-0.016 -0.04,-0.04 V 1.04 c 0,-0.024 0.016,-0.04 0.04,-0.04 h 0.084 c 0.024,0 0.04,0.016 0.04,0.04 v 1.884 c 0.212,-0.212 0.336,-0.496 0.336,-0.8 0,-0.036 0.024,-0.056 0.052,-0.056 0.028,0 0.056,0.02 0.056,0.056 0,0.312 0.188,0.596 0.476,0.596 0.368,0 0.416,-0.296 0.416,-0.72 0,-0.528 -0.096,-0.888 -0.56,-0.888 -0.1,0 -0.196,0.06 -0.196,0.152 0,0.156 0.196,0.148 0.196,0.304 0,0.168 -0.136,0.308 -0.304,0.308 -0.168,0 -0.304,-0.14 -0.304,-0.308 0,-0.324 0.276,-0.568 0.608,-0.568 0.688,0 1.06,0.324 1.06,1 0,0.476 -0.424,0.832 -0.916,0.832 -0.124,0 -0.236,-0.124 -0.352,-0.124 -0.152,0 -0.18,0.16 -0.18,0.292 z m -0.756,2 h -0.476 c -0.024,0 -0.04,-0.016 -0.04,-0.04 V 1.04 c 0,-0.024 0.016,-0.04 0.04,-0.04 h 0.476 c 0.024,0 0.04,0.016 0.04,0.04 v 3.92 c 0,0.024 -0.016,0.04 -0.04,0.04 z"
     fill="currentColor"
     id="path36"
     style="stroke-width:0.004" />
  <path
     d="m 83.8177,2.552 c -0.2,0 -0.276,0.172 -0.276,0.352 0,0.308 0.228,0.544 0.536,0.544 0.2,0 0.276,-0.172 0.276,-0.352 0,-0.308 -0.228,-0.544 -0.536,-0.544 z M 84.9377,3 c 0,0.172 -0.14,0.304 -0.292,0.388 -0.212,0.12 -0.452,0.164 -0.696,0.164 -0.244,0 -0.488,-0.044 -0.7,-0.164 -0.152,-0.084 -0.292,-0.216 -0.292,-0.388 0,-0.172 0.14,-0.304 0.292,-0.388 0.212,-0.12 0.456,-0.164 0.7,-0.164 0.244,0 0.484,0.044 0.696,0.164 0.152,0.084 0.292,0.216 0.292,0.388 z"
     fill="currentColor"
     id="path38"
     style="stroke-width:0.004" />
  <text
     font-family="'Roboto Light'"
     font-size="2.2001px"
     text-anchor="start"
     fill="currentColor"
     id="text42"
     x="9.3423004"
     y="9.5"><tspan
       id="tspan40">1. Percussão</tspan></text>
  <path
     d="m 14.2218,5 h -0.368 c -0.024,0 -0.04,-0.016 -0.04,-0.04 V 3.04 c 0,-0.024 0.016,-0.04 0.04,-0.04 h 0.368 c 0.024,0 0.04,0.016 0.04,0.04 v 1.92 c 0,0.024 -0.016,0.04 -0.04,0.04 z m -0.88,0 h -0.372 c -0.024,0 -0.04,-0.016 -0.04,-0.04 V 3.04 c 0,-0.024 0.016,-0.04 0.04,-0.04 h 0.372 c 0.024,0 0.04,0.016 0.04,0.04 v 1.92 c 0,0.024 -0.016,0.04 -0.04,0.04 z"
     fill="currentColor"
     id="path44"
     style="stroke-width:0.004" />
  <text
     font-family="'Roboto Slab Light'"
     font-size="2.2001px"
     text-anchor="start"
     fill="currentColor"
     id="text48"
     y="9.5"><tspan
       id="tspan46">Claves:</tspan></text>
  <text
     font-family="'Roboto Light'"
     font-size="2.2001px"
     text-anchor="start"
     fill="currentColor"
     id="text52"
     x="24.2609"
     y="9.5"><tspan
       id="tspan50">2. Sub-baixo (F4)</tspan></text>
  <path
     d="m 27.8567,2.5 c 0,-0.112 0.092,-0.204 0.204,-0.204 0.112,0 0.204,0.092 0.204,0.204 0,0.112 -0.092,0.204 -0.204,0.204 -0.112,0 -0.204,-0.092 -0.204,-0.204 z m 0,-1 c 0,-0.112 0.092,-0.204 0.204,-0.204 0.112,0 0.204,0.092 0.204,0.204 0,0.112 -0.092,0.204 -0.204,0.204 -0.112,0 -0.204,-0.092 -0.204,-0.204 z m -1.3,-0.552 c 0.688,0 1.172,0.352 1.172,1.004 0,1.052 -1.052,1.656 -2.064,2.084 -0.012,0.012 -0.024,0.016 -0.036,0.016 -0.028,0 -0.052,-0.024 -0.052,-0.052 0,-0.012 0.004,-0.024 0.016,-0.036 0.808,-0.472 1.648,-1.06 1.648,-1.972 0,-0.48 -0.252,-0.94 -0.684,-0.94 -0.296,0 -0.516,0.216 -0.616,0.504 0.044,-0.02 0.088,-0.032 0.136,-0.032 0.22,0 0.4,0.18 0.4,0.4 0,0.232 -0.176,0.424 -0.4,0.424 -0.24,0 -0.448,-0.188 -0.448,-0.424 0,-0.532 0.408,-0.976 0.928,-0.976 z"
     fill="currentColor"
     id="path54"
     style="stroke-width:0.004" />
  <path
     d="m 33.1209,1.552 c -0.2,0 -0.276,0.172 -0.276,0.352 0,0.308 0.228,0.544 0.536,0.544 0.2,0 0.276,-0.172 0.276,-0.352 0,-0.308 -0.228,-0.544 -0.536,-0.544 z M 34.2409,2 c 0,0.172 -0.14,0.304 -0.292,0.388 -0.212,0.12 -0.452,0.164 -0.696,0.164 -0.244,0 -0.488,-0.044 -0.7,-0.164 -0.152,-0.084 -0.292,-0.216 -0.292,-0.388 0,-0.172 0.14,-0.304 0.292,-0.388 0.212,-0.12 0.456,-0.164 0.7,-0.164 0.244,0 0.484,0.044 0.696,0.164 0.152,0.084 0.292,0.216 0.292,0.388 z"
     fill="currentColor"
     id="path56"
     style="stroke-width:0.004" />
  <line
     stroke-linejoin="round"
     stroke-linecap="round"
     stroke-width="0.1"
     stroke="currentColor"
     x1="0.050000001"
     y1="18"
     x2="90.543602"
     y2="18"
     id="line58" />
  <line
     stroke-linejoin="round"
     stroke-linecap="round"
     stroke-width="0.1"
     stroke="currentColor"
     x1="0.050000001"
     y1="17"
     x2="90.543602"
     y2="17"
     id="line60" />
  <line
     stroke-linejoin="round"
     stroke-linecap="round"
     stroke-width="0.1"
     stroke="currentColor"
     x1="0.050000001"
     y1="16"
     x2="90.543602"
     y2="16"
     id="line62" />
  <line
     stroke-linejoin="round"
     stroke-linecap="round"
     stroke-width="0.1"
     stroke="currentColor"
     x1="0.050000001"
     y1="15"
     x2="90.543602"
     y2="15"
     id="line64" />
  <line
     stroke-linejoin="round"
     stroke-linecap="round"
     stroke-width="0.1"
     stroke="currentColor"
     x1="0.050000001"
     y1="14"
     x2="90.543602"
     y2="14"
     id="line66" />
  <text
     font-family="'Roboto Light'"
     font-size="2.2001px"
     text-anchor="start"
     fill="currentColor"
     id="text70"
     x="70.833397"
     y="22.8155"><tspan
       id="tspan68">10. Francesa (G4)</tspan></text>
  <path
     d="m 74.8012,16.952 c 0.016,0 0.036,-0.004 0.052,-0.004 0.62,0 1.024,0.512 1.024,1.044 0,0.304 -0.132,0.616 -0.428,0.84 -0.088,0.068 -0.188,0.112 -0.292,0.144 0.012,0.14 0.02,0.28 0.02,0.42 0,0.076 -0.004,0.156 -0.008,0.232 -0.028,0.48 -0.36,0.912 -0.832,0.912 -0.432,0 -0.78,-0.352 -0.78,-0.788 0,-0.232 0.212,-0.412 0.448,-0.412 0.216,0 0.38,0.188 0.38,0.412 0,0.208 -0.172,0.38 -0.38,0.38 -0.044,0 -0.084,-0.008 -0.124,-0.024 0.104,0.156 0.272,0.26 0.468,0.26 0.384,0 0.628,-0.368 0.652,-0.764 0.004,-0.072 0.008,-0.148 0.008,-0.22 0,-0.124 -0.004,-0.244 -0.016,-0.368 -0.116,0.02 -0.232,0.032 -0.356,0.032 -0.752,0 -1.332,-0.688 -1.332,-1.496 0,-0.708 0.524,-1.224 0.992,-1.764 -0.076,-0.248 -0.148,-0.5 -0.18,-0.76 -0.024,-0.208 -0.028,-0.416 -0.028,-0.624 0,-0.46 0.22,-0.896 0.596,-1.168 0.012,-0.008 0.028,-0.012 0.04,-0.012 0.016,0 0.028,0 0.04,0.012 0.284,0.336 0.532,0.98 0.532,1.432 0,0.572 -0.344,1.02 -0.72,1.456 0.084,0.272 0.156,0.552 0.224,0.828 z m 0.34,1.86 c 0.272,-0.096 0.452,-0.38 0.452,-0.656 0,-0.36 -0.264,-0.716 -0.692,-0.76 0.096,0.464 0.184,0.924 0.24,1.416 z m -1.548,-0.924 c 0,0.54 0.516,0.988 1.056,0.988 0.112,0 0.22,-0.008 0.328,-0.024 -0.056,-0.508 -0.148,-0.98 -0.252,-1.456 -0.316,0.032 -0.496,0.244 -0.496,0.476 0,0.176 0.1,0.364 0.324,0.492 0.02,0.02 0.028,0.04 0.028,0.06 0,0.044 -0.04,0.088 -0.088,0.088 -0.012,0 -0.024,-0.004 -0.036,-0.008 -0.32,-0.172 -0.468,-0.46 -0.468,-0.74 0,-0.352 0.232,-0.696 0.64,-0.788 -0.056,-0.232 -0.116,-0.468 -0.184,-0.7 -0.428,0.484 -0.852,0.972 -0.852,1.612 z m 1.336,-4.068 c -0.396,0.192 -0.648,0.596 -0.648,1.036 0,0.296 0.072,0.532 0.144,0.776 0.32,-0.388 0.584,-0.792 0.584,-1.296 0,-0.22 -0.016,-0.316 -0.08,-0.516 z"
     fill="currentColor"
     id="path72"
     style="stroke-width:0.004" />
  <path
     d="m 79.6934,17.552 c -0.2,0 -0.276,0.172 -0.276,0.352 0,0.308 0.228,0.544 0.536,0.544 0.2,0 0.276,-0.172 0.276,-0.352 0,-0.308 -0.228,-0.544 -0.536,-0.544 z m 1.12,0.448 c 0,0.172 -0.14,0.304 -0.292,0.388 -0.212,0.12 -0.452,0.164 -0.696,0.164 -0.244,0 -0.488,-0.044 -0.7,-0.164 -0.152,-0.084 -0.292,-0.216 -0.292,-0.388 0,-0.172 0.14,-0.304 0.292,-0.388 0.212,-0.12 0.456,-0.164 0.7,-0.164 0.244,0 0.484,0.044 0.696,0.164 0.152,0.084 0.292,0.216 0.292,0.388 z"
     fill="currentColor"
     id="path74"
     style="stroke-width:0.004" />
  <path
     d="m 8.86,15.552 c -0.2,0 -0.276,0.172 -0.276,0.352 0,0.308 0.228,0.544 0.536,0.544 0.2,0 0.276,-0.172 0.276,-0.352 0,-0.308 -0.228,-0.544 -0.536,-0.544 z M 9.98,16 c 0,0.172 -0.14,0.304 -0.292,0.388 -0.212,0.12 -0.452,0.164 -0.696,0.164 -0.244,0 -0.488,-0.044 -0.7,-0.164 C 8.14,16.304 8,16.172 8,16 c 0,-0.172 0.14,-0.304 0.292,-0.388 0.212,-0.12 0.456,-0.164 0.7,-0.164 0.244,0 0.484,0.044 0.696,0.164 C 9.84,15.696 9.98,15.828 9.98,16 Z"
     fill="currentColor"
     id="path76"
     style="stroke-width:0.004" />
  <text
     font-family="'Roboto Light'"
     font-size="2.2001px"
     text-anchor="start"
     fill="currentColor"
     id="text80"
     y="22.8155"><tspan
       id="tspan78">6. Alto (C4)</tspan></text>
  <path
     d="m 23.2565,16.552 c -0.2,0 -0.276,0.172 -0.276,0.352 0,0.308 0.228,0.544 0.536,0.544 0.2,0 0.276,-0.172 0.276,-0.352 0,-0.308 -0.228,-0.544 -0.536,-0.544 z m 1.12,0.448 c 0,0.172 -0.14,0.304 -0.292,0.388 -0.212,0.12 -0.452,0.164 -0.696,0.164 -0.244,0 -0.488,-0.044 -0.7,-0.164 -0.152,-0.084 -0.292,-0.216 -0.292,-0.388 0,-0.172 0.14,-0.304 0.292,-0.388 0.212,-0.12 0.456,-0.164 0.7,-0.164 0.244,0 0.484,0.044 0.696,0.164 0.152,0.084 0.292,0.216 0.292,0.388 z"
     fill="currentColor"
     id="path82"
     style="stroke-width:0.004" />
  <path
     d="m 17.8603,17 c 0,0.132 0.028,0.292 0.18,0.292 0.116,0 0.228,-0.124 0.352,-0.124 0.492,0 0.916,0.356 0.916,0.832 0,0.676 -0.372,1 -1.06,1 -0.332,0 -0.608,-0.244 -0.608,-0.568 0,-0.168 0.136,-0.308 0.304,-0.308 0.168,0 0.304,0.14 0.304,0.308 0,0.156 -0.196,0.148 -0.196,0.304 0,0.092 0.096,0.152 0.196,0.152 0.464,0 0.56,-0.36 0.56,-0.888 0,-0.424 -0.048,-0.72 -0.416,-0.72 -0.288,0 -0.476,0.284 -0.476,0.596 0,0.036 -0.028,0.056 -0.056,0.056 -0.028,0 -0.052,-0.02 -0.052,-0.056 0,-0.304 -0.124,-0.588 -0.336,-0.8 v 1.884 c 0,0.024 -0.016,0.04 -0.04,0.04 h -0.084 c -0.024,0 -0.04,-0.016 -0.04,-0.04 v -3.92 c 0,-0.024 0.016,-0.04 0.04,-0.04 h 0.084 c 0.024,0 0.04,0.016 0.04,0.04 v 1.884 c 0.212,-0.212 0.336,-0.496 0.336,-0.8 0,-0.036 0.024,-0.056 0.052,-0.056 0.028,0 0.056,0.02 0.056,0.056 0,0.312 0.188,0.596 0.476,0.596 0.368,0 0.416,-0.296 0.416,-0.72 0,-0.528 -0.096,-0.888 -0.56,-0.888 -0.1,0 -0.196,0.06 -0.196,0.152 0,0.156 0.196,0.148 0.196,0.304 0,0.168 -0.136,0.308 -0.304,0.308 -0.168,0 -0.304,-0.14 -0.304,-0.308 0,-0.324 0.276,-0.568 0.608,-0.568 0.688,0 1.06,0.324 1.06,1 0,0.476 -0.424,0.832 -0.916,0.832 -0.124,0 -0.236,-0.124 -0.352,-0.124 -0.152,0 -0.18,0.16 -0.18,0.292 z m -0.756,2 h -0.476 c -0.024,0 -0.04,-0.016 -0.04,-0.04 v -3.92 c 0,-0.024 0.016,-0.04 0.04,-0.04 h 0.476 c 0.024,0 0.04,0.016 0.04,0.04 v 3.92 c 0,0.024 -0.016,0.04 -0.04,0.04 z"
     fill="currentColor"
     id="path84"
     style="stroke-width:0.004" />
  <text
     font-family="'Roboto Light'"
     font-size="2.2001px"
     text-anchor="start"
     fill="currentColor"
     id="text88"
     x="14.3965"
     y="22.8155"><tspan
       id="tspan86">7. Meio-soprano (C4)</tspan></text>
  <text
     font-family="'Roboto Light'"
     font-size="2.2001px"
     text-anchor="start"
     fill="currentColor"
     id="text92"
     x="38.421299"
     y="22.8155"><tspan
       id="tspan90">8. Soprano (C4)</tspan></text>
  <path
     d="m 39.9965,18 c 0,0.132 0.028,0.292 0.18,0.292 0.116,0 0.228,-0.124 0.352,-0.124 0.492,0 0.916,0.356 0.916,0.832 0,0.676 -0.372,1 -1.06,1 -0.332,0 -0.608,-0.244 -0.608,-0.568 0,-0.168 0.136,-0.308 0.304,-0.308 0.168,0 0.304,0.14 0.304,0.308 0,0.156 -0.196,0.148 -0.196,0.304 0,0.092 0.096,0.152 0.196,0.152 0.464,0 0.56,-0.36 0.56,-0.888 0,-0.424 -0.048,-0.72 -0.416,-0.72 -0.288,0 -0.476,0.284 -0.476,0.596 0,0.036 -0.028,0.056 -0.056,0.056 -0.028,0 -0.052,-0.02 -0.052,-0.056 0,-0.304 -0.124,-0.588 -0.336,-0.8 v 1.884 c 0,0.024 -0.016,0.04 -0.04,0.04 h -0.084 c -0.024,0 -0.04,-0.016 -0.04,-0.04 v -3.92 c 0,-0.024 0.016,-0.04 0.04,-0.04 h 0.084 c 0.024,0 0.04,0.016 0.04,0.04 v 1.884 c 0.212,-0.212 0.336,-0.496 0.336,-0.8 0,-0.036 0.024,-0.056 0.052,-0.056 0.028,0 0.056,0.02 0.056,0.056 0,0.312 0.188,0.596 0.476,0.596 0.368,0 0.416,-0.296 0.416,-0.72 0,-0.528 -0.096,-0.888 -0.56,-0.888 -0.1,0 -0.196,0.06 -0.196,0.152 0,0.156 0.196,0.148 0.196,0.304 0,0.168 -0.136,0.308 -0.304,0.308 -0.168,0 -0.304,-0.14 -0.304,-0.308 0,-0.324 0.276,-0.568 0.608,-0.568 0.688,0 1.06,0.324 1.06,1 0,0.476 -0.424,0.832 -0.916,0.832 -0.124,0 -0.236,-0.124 -0.352,-0.124 -0.152,0 -0.18,0.16 -0.18,0.292 z m -0.756,2 h -0.476 c -0.024,0 -0.04,-0.016 -0.04,-0.04 v -3.92 c 0,-0.024 0.016,-0.04 0.04,-0.04 h 0.476 c 0.024,0 0.04,0.016 0.04,0.04 v 3.92 c 0,0.024 -0.016,0.04 -0.04,0.04 z"
     fill="currentColor"
     id="path94"
     style="stroke-width:0.004" />
  <path
     d="m 47.2813,17.552 c -0.2,0 -0.276,0.172 -0.276,0.352 0,0.308 0.228,0.544 0.536,0.544 0.2,0 0.276,-0.172 0.276,-0.352 0,-0.308 -0.228,-0.544 -0.536,-0.544 z m 1.12,0.448 c 0,0.172 -0.14,0.304 -0.292,0.388 -0.212,0.12 -0.452,0.164 -0.696,0.164 -0.244,0 -0.488,-0.044 -0.7,-0.164 -0.152,-0.084 -0.292,-0.216 -0.292,-0.388 0,-0.172 0.14,-0.304 0.292,-0.388 0.212,-0.12 0.456,-0.164 0.7,-0.164 0.244,0 0.484,0.044 0.696,0.164 0.152,0.084 0.292,0.216 0.292,0.388 z"
     fill="currentColor"
     id="path96"
     style="stroke-width:0.004" />
  <path
     d="m 2.072,16 c 0,0.132 0.028,0.292 0.18,0.292 0.116,0 0.228,-0.124 0.352,-0.124 0.492,0 0.916,0.356 0.916,0.832 0,0.676 -0.372,1 -1.06,1 -0.332,0 -0.608,-0.244 -0.608,-0.568 0,-0.168 0.136,-0.308 0.304,-0.308 0.168,0 0.304,0.14 0.304,0.308 0,0.156 -0.196,0.148 -0.196,0.304 0,0.092 0.096,0.152 0.196,0.152 0.464,0 0.56,-0.36 0.56,-0.888 0,-0.424 -0.048,-0.72 -0.416,-0.72 -0.288,0 -0.476,0.284 -0.476,0.596 0,0.036 -0.028,0.056 -0.056,0.056 -0.028,0 -0.052,-0.02 -0.052,-0.056 0,-0.304 -0.124,-0.588 -0.336,-0.8 V 17.96 C 1.684,17.984 1.668,18 1.644,18 H 1.56 C 1.536,18 1.52,17.984 1.52,17.96 V 14.04 C 1.52,14.016 1.536,14 1.56,14 h 0.084 c 0.024,0 0.04,0.016 0.04,0.04 v 1.884 c 0.212,-0.212 0.336,-0.496 0.336,-0.8 0,-0.036 0.024,-0.056 0.052,-0.056 0.028,0 0.056,0.02 0.056,0.056 0,0.312 0.188,0.596 0.476,0.596 0.368,0 0.416,-0.296 0.416,-0.72 0,-0.528 -0.096,-0.888 -0.56,-0.888 -0.1,0 -0.196,0.06 -0.196,0.152 0,0.156 0.196,0.148 0.196,0.304 0,0.168 -0.136,0.308 -0.304,0.308 -0.168,0 -0.304,-0.14 -0.304,-0.308 C 1.852,14.244 2.128,14 2.46,14 c 0.688,0 1.06,0.324 1.06,1 0,0.476 -0.424,0.832 -0.916,0.832 -0.124,0 -0.236,-0.124 -0.352,-0.124 -0.152,0 -0.18,0.16 -0.18,0.292 z M 1.316,18 H 0.84 C 0.816,18 0.8,17.984 0.8,17.96 V 14.04 C 0.8,14.016 0.816,14 0.84,14 h 0.476 c 0.024,0 0.04,0.016 0.04,0.04 v 3.92 C 1.356,17.984 1.34,18 1.316,18 Z"
     fill="currentColor"
     id="path98"
     style="stroke-width:0.004" />
  <text
     font-family="'Roboto Light'"
     font-size="2.2001px"
     text-anchor="start"
     fill="currentColor"
     id="text102"
     x="57.188099"
     y="22.8155"><tspan
       id="tspan100">9. Sol (G4)</tspan></text>
  <path
     d="m 60.1513,15.952 c 0.016,0 0.036,-0.004 0.052,-0.004 0.62,0 1.024,0.512 1.024,1.044 0,0.304 -0.132,0.616 -0.428,0.84 -0.088,0.068 -0.188,0.112 -0.292,0.144 0.012,0.14 0.02,0.28 0.02,0.42 0,0.076 -0.004,0.156 -0.008,0.232 -0.028,0.48 -0.36,0.912 -0.832,0.912 -0.432,0 -0.78,-0.352 -0.78,-0.788 0,-0.232 0.212,-0.412 0.448,-0.412 0.216,0 0.38,0.188 0.38,0.412 0,0.208 -0.172,0.38 -0.38,0.38 -0.044,0 -0.084,-0.008 -0.124,-0.024 0.104,0.156 0.272,0.26 0.468,0.26 0.384,0 0.628,-0.368 0.652,-0.764 0.004,-0.072 0.008,-0.148 0.008,-0.22 0,-0.124 -0.004,-0.244 -0.016,-0.368 -0.116,0.02 -0.232,0.032 -0.356,0.032 -0.752,0 -1.332,-0.688 -1.332,-1.496 0,-0.708 0.524,-1.224 0.992,-1.764 -0.076,-0.248 -0.148,-0.5 -0.18,-0.76 -0.024,-0.208 -0.028,-0.416 -0.028,-0.624 0,-0.46 0.22,-0.896 0.596,-1.168 0.012,-0.008 0.028,-0.012 0.04,-0.012 0.016,0 0.028,0 0.04,0.012 0.284,0.336 0.532,0.98 0.532,1.432 0,0.572 -0.344,1.02 -0.72,1.456 0.084,0.272 0.156,0.552 0.224,0.828 z m 0.34,1.86 c 0.272,-0.096 0.452,-0.38 0.452,-0.656 0,-0.36 -0.264,-0.716 -0.692,-0.76 0.096,0.464 0.184,0.924 0.24,1.416 z m -1.548,-0.924 c 0,0.54 0.516,0.988 1.056,0.988 0.112,0 0.22,-0.008 0.328,-0.024 -0.056,-0.508 -0.148,-0.98 -0.252,-1.456 -0.316,0.032 -0.496,0.244 -0.496,0.476 0,0.176 0.1,0.364 0.324,0.492 0.02,0.02 0.028,0.04 0.028,0.06 0,0.044 -0.04,0.088 -0.088,0.088 -0.012,0 -0.024,-0.004 -0.036,-0.008 -0.32,-0.172 -0.468,-0.46 -0.468,-0.74 0,-0.352 0.232,-0.696 0.64,-0.788 -0.056,-0.232 -0.116,-0.468 -0.184,-0.7 -0.428,0.484 -0.852,0.972 -0.852,1.612 z m 1.336,-4.068 c -0.396,0.192 -0.648,0.596 -0.648,1.036 0,0.296 0.072,0.532 0.144,0.776 0.32,-0.388 0.584,-0.792 0.584,-1.296 0,-0.22 -0.016,-0.316 -0.08,-0.516 z"
     fill="currentColor"
     id="path104"
     style="stroke-width:0.004" />
  <path
     d="m 66.0481,16.552 c -0.2,0 -0.276,0.172 -0.276,0.352 0,0.308 0.228,0.544 0.536,0.544 0.2,0 0.276,-0.172 0.276,-0.352 0,-0.308 -0.228,-0.544 -0.536,-0.544 z m 1.12,0.448 c 0,0.172 -0.14,0.304 -0.292,0.388 -0.212,0.12 -0.452,0.164 -0.696,0.164 -0.244,0 -0.488,-0.044 -0.7,-0.164 -0.152,-0.084 -0.292,-0.216 -0.292,-0.388 0,-0.172 0.14,-0.304 0.292,-0.388 0.212,-0.12 0.456,-0.164 0.7,-0.164 0.244,0 0.484,0.044 0.696,0.164 0.152,0.084 0.292,0.216 0.292,0.388 z"
     fill="currentColor"
     id="path106"
     style="stroke-width:0.004" />
</svg>
