<?xml version="1.0" encoding="UTF-8" standalone="no"?>
<svg
   version="1.2"
   width="67.130951mm"
   height="60.4212mm"
   viewBox="0 0 38.201219 34.382999"
   id="svg168"
   xmlns="http://www.w3.org/2000/svg"
   xmlns:svg="http://www.w3.org/2000/svg">
  <defs
     id="defs172" />
  <!-- Page: 1/1 -->
  <text
     font-family="'Century Schoolbook L'"
     font-size="2.2001px"
     text-anchor="start"
     fill="currentColor"
     id="text4"
     x="11.586718"
     y="-1"><tspan
       id="tspan2" /></text>
  <rect
     x="28.943117"
     y="10.726"
     width="0.19"
     height="4.0999999"
     ry="0.0000"
     fill="currentColor"
     id="rect6" />
  <rect
     x="28.943117"
     y="19.726"
     width="0.19"
     height="4.0999999"
     ry="0.0000"
     fill="currentColor"
     id="rect8" />
  <rect
     x="28.943117"
     y="1.776"
     width="0.19"
     height="4.0500002"
     ry="0.0000"
     fill="currentColor"
     id="rect10" />
  <rect
     x="28.943117"
     y="28.726"
     width="0.19"
     height="4.0500002"
     ry="0.0000"
     fill="currentColor"
     id="rect12" />
  <rect
     x="28.943117"
     y="23.826"
     width="0.19"
     height="4.9499998"
     ry="0.0000"
     fill="currentColor"
     id="rect14" />
  <rect
     x="28.943117"
     y="14.826"
     width="0.19"
     height="4.9499998"
     ry="0.0000"
     fill="currentColor"
     id="rect16" />
  <rect
     x="28.943117"
     y="5.8260002"
     width="0.19"
     height="4.9499998"
     ry="0.0000"
     fill="currentColor"
     id="rect18" />
  <rect
     x="37.601215"
     y="1.776"
     width="0.60000002"
     height="4.0500002"
     ry="0.0000"
     fill="currentColor"
     id="rect20" />
  <rect
     x="37.111217"
     y="1.776"
     width="0.19"
     height="4.0500002"
     ry="0.0000"
     fill="currentColor"
     id="rect22" />
  <rect
     x="37.601215"
     y="10.726"
     width="0.60000002"
     height="4.0999999"
     ry="0.0000"
     fill="currentColor"
     id="rect24" />
  <rect
     x="37.111217"
     y="10.726"
     width="0.19"
     height="4.0999999"
     ry="0.0000"
     fill="currentColor"
     id="rect26" />
  <rect
     x="37.601215"
     y="19.726"
     width="0.60000002"
     height="4.0999999"
     ry="0.0000"
     fill="currentColor"
     id="rect28" />
  <rect
     x="37.111217"
     y="19.726"
     width="0.19"
     height="4.0999999"
     ry="0.0000"
     fill="currentColor"
     id="rect30" />
  <rect
     x="37.601215"
     y="28.726"
     width="0.60000002"
     height="4.0500002"
     ry="0.0000"
     fill="currentColor"
     id="rect32" />
  <rect
     x="37.111217"
     y="28.726"
     width="0.19"
     height="4.0500002"
     ry="0.0000"
     fill="currentColor"
     id="rect34" />
  <line
     stroke-linejoin="round"
     stroke-linecap="round"
     stroke-width="0.1"
     stroke="currentColor"
     x1="11.636717"
     y1="32.776001"
     x2="38.151218"
     y2="32.776001"
     id="line36" />
  <line
     stroke-linejoin="round"
     stroke-linecap="round"
     stroke-width="0.1"
     stroke="currentColor"
     x1="11.636717"
     y1="31.775999"
     x2="38.151218"
     y2="31.775999"
     id="line38" />
  <line
     stroke-linejoin="round"
     stroke-linecap="round"
     stroke-width="0.1"
     stroke="currentColor"
     x1="11.636717"
     y1="30.775999"
     x2="38.151218"
     y2="30.775999"
     id="line40" />
  <line
     stroke-linejoin="round"
     stroke-linecap="round"
     stroke-width="0.1"
     stroke="currentColor"
     x1="11.636717"
     y1="29.775999"
     x2="38.151218"
     y2="29.775999"
     id="line42" />
  <line
     stroke-linejoin="round"
     stroke-linecap="round"
     stroke-width="0.1"
     stroke="currentColor"
     x1="11.636717"
     y1="28.775999"
     x2="38.151218"
     y2="28.775999"
     id="line44" />
  <line
     stroke-linejoin="round"
     stroke-linecap="round"
     stroke-width="0.1"
     stroke="currentColor"
     x1="11.636717"
     y1="23.775999"
     x2="38.151218"
     y2="23.775999"
     id="line46" />
  <line
     stroke-linejoin="round"
     stroke-linecap="round"
     stroke-width="0.1"
     stroke="currentColor"
     x1="11.636717"
     y1="22.775999"
     x2="38.151218"
     y2="22.775999"
     id="line48" />
  <line
     stroke-linejoin="round"
     stroke-linecap="round"
     stroke-width="0.1"
     stroke="currentColor"
     x1="11.636717"
     y1="21.775999"
     x2="38.151218"
     y2="21.775999"
     id="line50" />
  <line
     stroke-linejoin="round"
     stroke-linecap="round"
     stroke-width="0.1"
     stroke="currentColor"
     x1="11.636717"
     y1="20.775999"
     x2="38.151218"
     y2="20.775999"
     id="line52" />
  <line
     stroke-linejoin="round"
     stroke-linecap="round"
     stroke-width="0.1"
     stroke="currentColor"
     x1="11.636717"
     y1="19.775999"
     x2="38.151218"
     y2="19.775999"
     id="line54" />
  <rect
     x="37.601215"
     y="23.826"
     width="0.60000002"
     height="4.9499998"
     ry="0.0000"
     fill="currentColor"
     id="rect56" />
  <rect
     x="37.111217"
     y="23.826"
     width="0.19"
     height="4.9499998"
     ry="0.0000"
     fill="currentColor"
     id="rect58" />
  <rect
     x="37.601215"
     y="14.826"
     width="0.60000002"
     height="4.9499998"
     ry="0.0000"
     fill="currentColor"
     id="rect60" />
  <rect
     x="37.111217"
     y="14.826"
     width="0.19"
     height="4.9499998"
     ry="0.0000"
     fill="currentColor"
     id="rect62" />
  <rect
     x="37.601215"
     y="5.8260002"
     width="0.60000002"
     height="4.9499998"
     ry="0.0000"
     fill="currentColor"
     id="rect64" />
  <rect
     x="37.111217"
     y="5.8260002"
     width="0.19"
     height="4.9499998"
     ry="0.0000"
     fill="currentColor"
     id="rect66" />
  <line
     stroke-linejoin="round"
     stroke-linecap="round"
     stroke-width="0.1"
     stroke="currentColor"
     x1="11.636717"
     y1="5.776"
     x2="38.151218"
     y2="5.776"
     id="line68" />
  <line
     stroke-linejoin="round"
     stroke-linecap="round"
     stroke-width="0.1"
     stroke="currentColor"
     x1="11.636717"
     y1="4.776"
     x2="38.151218"
     y2="4.776"
     id="line70" />
  <line
     stroke-linejoin="round"
     stroke-linecap="round"
     stroke-width="0.1"
     stroke="currentColor"
     x1="11.636717"
     y1="3.776"
     x2="38.151218"
     y2="3.776"
     id="line72" />
  <line
     stroke-linejoin="round"
     stroke-linecap="round"
     stroke-width="0.1"
     stroke="currentColor"
     x1="11.636717"
     y1="2.776"
     x2="38.151218"
     y2="2.776"
     id="line74" />
  <line
     stroke-linejoin="round"
     stroke-linecap="round"
     stroke-width="0.1"
     stroke="currentColor"
     x1="11.636717"
     y1="1.776"
     x2="38.151218"
     y2="1.776"
     id="line76" />
  <line
     stroke-linejoin="round"
     stroke-linecap="round"
     stroke-width="0.1"
     stroke="currentColor"
     x1="11.636717"
     y1="14.776"
     x2="38.151218"
     y2="14.776"
     id="line78" />
  <line
     stroke-linejoin="round"
     stroke-linecap="round"
     stroke-width="0.1"
     stroke="currentColor"
     x1="11.636717"
     y1="13.776"
     x2="38.151218"
     y2="13.776"
     id="line80" />
  <line
     stroke-linejoin="round"
     stroke-linecap="round"
     stroke-width="0.1"
     stroke="currentColor"
     x1="11.636717"
     y1="12.776"
     x2="38.151218"
     y2="12.776"
     id="line82" />
  <line
     stroke-linejoin="round"
     stroke-linecap="round"
     stroke-width="0.1"
     stroke="currentColor"
     x1="11.636717"
     y1="11.776"
     x2="38.151218"
     y2="11.776"
     id="line84" />
  <line
     stroke-linejoin="round"
     stroke-linecap="round"
     stroke-width="0.1"
     stroke="currentColor"
     x1="11.636717"
     y1="10.776"
     x2="38.151218"
     y2="10.776"
     id="line86" />
  <path
     d="m 31.893117,30.828 c -0.2,0 -0.276,0.172 -0.276,0.352 0,0.308 0.228,0.544 0.536,0.544 0.2,0 0.276,-0.172 0.276,-0.352 0,-0.308 -0.228,-0.544 -0.536,-0.544 z m 1.12,0.448 c 0,0.172 -0.14,0.304 -0.292,0.388 -0.212,0.12 -0.452,0.164 -0.696,0.164 -0.244,0 -0.488,-0.044 -0.7,-0.164 -0.152,-0.084 -0.292,-0.216 -0.292,-0.388 0,-0.172 0.14,-0.304 0.292,-0.388 0.212,-0.12 0.456,-0.164 0.7,-0.164 0.244,0 0.484,0.044 0.696,0.164 0.152,0.084 0.292,0.216 0.292,0.388 z"
     fill="currentColor"
     id="path88"
     style="stroke-width:0.004" />
  <path
     d="m 31.893117,20.328 c -0.2,0 -0.276,0.172 -0.276,0.352 0,0.308 0.228,0.544 0.536,0.544 0.2,0 0.276,-0.172 0.276,-0.352 0,-0.308 -0.228,-0.544 -0.536,-0.544 z m 1.12,0.448 c 0,0.172 -0.14,0.304 -0.292,0.388 -0.212,0.12 -0.452,0.164 -0.696,0.164 -0.244,0 -0.488,-0.044 -0.7,-0.164 -0.152,-0.084 -0.292,-0.216 -0.292,-0.388 0,-0.172 0.14,-0.304 0.292,-0.388 0.212,-0.12 0.456,-0.164 0.7,-0.164 0.244,0 0.484,0.044 0.696,0.164 0.152,0.084 0.292,0.216 0.292,0.388 z"
     fill="currentColor"
     id="path90"
     style="stroke-width:0.004" />
  <path
     d="m 31.893117,13.328 c -0.2,0 -0.276,0.172 -0.276,0.352 0,0.308 0.228,0.544 0.536,0.544 0.2,0 0.276,-0.172 0.276,-0.352 0,-0.308 -0.228,-0.544 -0.536,-0.544 z m 1.12,0.448 c 0,0.172 -0.14,0.304 -0.292,0.388 -0.212,0.12 -0.452,0.164 -0.696,0.164 -0.244,0 -0.488,-0.044 -0.7,-0.164 -0.152,-0.084 -0.292,-0.216 -0.292,-0.388 0,-0.172 0.14,-0.304 0.292,-0.388 0.212,-0.12 0.456,-0.164 0.7,-0.164 0.244,0 0.484,0.044 0.696,0.164 0.152,0.084 0.292,0.216 0.292,0.388 z"
     fill="currentColor"
     id="path92"
     style="stroke-width:0.004" />
  <path
     d="m 31.893117,2.828 c -0.2,0 -0.276,0.172 -0.276,0.352 0,0.308 0.228,0.544 0.536,0.544 0.2,0 0.276,-0.172 0.276,-0.352 0,-0.308 -0.228,-0.544 -0.536,-0.544 z m 1.12,0.448 c 0,0.172 -0.14,0.304 -0.292,0.388 -0.212,0.12 -0.452,0.164 -0.696,0.164 -0.244,0 -0.488,-0.044 -0.7,-0.164 -0.152,-0.084 -0.292,-0.216 -0.292,-0.388 0,-0.172 0.14,-0.304 0.292,-0.388 0.212,-0.12 0.456,-0.164 0.7,-0.164 0.244,0 0.484,0.044 0.696,0.164 0.152,0.084 0.292,0.216 0.292,0.388 z"
     fill="currentColor"
     id="path94"
     style="stroke-width:0.004" />
  <rect
     x="24.637217"
     y="29.537399"
     width="0.13"
     height="3.2386"
     ry="0.039999999"
     fill="currentColor"
     id="rect96" />
  <rect
     x="25.897217"
     y="19.775999"
     width="0.13"
     height="3.2386"
     ry="0.039999999"
     fill="currentColor"
     id="rect98" />
  <path
     d="m 21.546717,14.016 c 0,-0.096 -0.084,-0.164 -0.168,-0.164 -0.016,0 -0.032,0 -0.048,0.004 -0.124,0.036 -0.308,0.16 -0.456,0.256 -0.148,0.096 -0.336,0.212 -0.416,0.312 -0.028,0.032 -0.044,0.072 -0.044,0.112 0,0.096 0.084,0.164 0.168,0.164 0.016,0 0.032,0 0.048,-0.004 0.124,-0.036 0.312,-0.16 0.46,-0.256 0.148,-0.096 0.336,-0.212 0.416,-0.312 0.028,-0.032 0.04,-0.072 0.04,-0.112 z m -0.204,-0.288 c 0.188,0 0.332,0.084 0.332,0.288 0,0.076 -0.016,0.148 -0.04,0.224 -0.048,0.152 -0.128,0.296 -0.26,0.384 -0.216,0.144 -0.452,0.204 -0.752,0.204 -0.188,0 -0.336,-0.088 -0.336,-0.292 0,-0.076 0.02,-0.148 0.044,-0.224 0.048,-0.152 0.124,-0.296 0.256,-0.384 0.216,-0.144 0.456,-0.2 0.756,-0.2 z"
     fill="currentColor"
     id="path100"
     style="stroke-width:0.004" />
  <path
     d="m 13.890717,12.728 c 0.016,0 0.036,-0.004 0.052,-0.004 0.62,0 1.024,0.512 1.024,1.044 0,0.304 -0.132,0.616 -0.428,0.84 -0.088,0.068 -0.188,0.112 -0.292,0.144 0.012,0.14 0.02,0.28 0.02,0.42 0,0.076 -0.004,0.156 -0.008,0.232 -0.028,0.48 -0.36,0.912 -0.832,0.912 -0.432,0 -0.78,-0.352 -0.78,-0.788 0,-0.232 0.212,-0.412 0.448,-0.412 0.216,0 0.38,0.188 0.38,0.412 0,0.208 -0.172,0.38 -0.38,0.38 -0.044,0 -0.084,-0.008 -0.124,-0.024 0.104,0.156 0.272,0.26 0.468,0.26 0.384,0 0.628,-0.368 0.652,-0.764 0.004,-0.072 0.008,-0.148 0.008,-0.22 0,-0.124 -0.004,-0.244 -0.016,-0.368 -0.116,0.02 -0.232,0.032 -0.356,0.032 -0.752,0 -1.332,-0.688 -1.332,-1.496 0,-0.708 0.524,-1.224 0.992,-1.764 -0.076,-0.248 -0.148,-0.5 -0.18,-0.76 -0.024,-0.208 -0.028,-0.416 -0.028,-0.624 0,-0.46 0.22,-0.896 0.596,-1.168 0.012,-0.008 0.028,-0.012 0.04,-0.012 0.016,0 0.028,0 0.04,0.012 0.284,0.336 0.532,0.98 0.532,1.432 0,0.572 -0.344,1.02 -0.72,1.456 0.084,0.272 0.156,0.552 0.224,0.828 z m 0.34,1.86 c 0.272,-0.096 0.452,-0.38 0.452,-0.656 0,-0.36 -0.264,-0.716 -0.692,-0.76 0.096,0.464 0.184,0.924 0.24,1.416 z m -1.548,-0.924 c 0,0.54 0.516,0.988 1.056,0.988 0.112,0 0.22,-0.008 0.328,-0.024 -0.056,-0.508 -0.148,-0.98 -0.252,-1.456 -0.316,0.032 -0.496,0.244 -0.496,0.476 0,0.176 0.1,0.364 0.324,0.492 0.02,0.02 0.028,0.04 0.028,0.06 0,0.044 -0.04,0.088 -0.088,0.088 -0.012,0 -0.024,-0.004 -0.036,-0.008 -0.32,-0.172 -0.468,-0.46 -0.468,-0.74 0,-0.352 0.232,-0.696 0.64,-0.788 -0.056,-0.232 -0.116,-0.468 -0.184,-0.7 -0.428,0.484 -0.852,0.972 -0.852,1.612 z m 1.336,-4.068 c -0.396,0.192 -0.648,0.596 -0.648,1.036 0,0.296 0.072,0.532 0.144,0.776 0.32,-0.388 0.584,-0.792 0.584,-1.296 0,-0.22 -0.016,-0.316 -0.08,-0.516 z"
     fill="currentColor"
     id="path102"
     style="stroke-width:0.004" />
  <path
     d="m 18.022717,12.668 c -0.196,0 -0.3,-0.168 -0.3,-0.3 0,-0.152 0.108,-0.308 0.288,-0.308 0.016,0 0.036,0 0.056,0.004 -0.112,-0.148 -0.288,-0.236 -0.48,-0.236 -0.424,0 -0.452,0.292 -0.452,0.744 v 0.204 0.204 c 0,0.452 0.028,0.748 0.452,0.748 0.32,0 0.556,-0.28 0.632,-0.604 0.008,-0.028 0.028,-0.04 0.048,-0.04 0.024,0 0.052,0.016 0.052,0.048 0,0.376 -0.42,0.696 -0.732,0.696 -0.272,0 -0.548,-0.084 -0.736,-0.28 -0.196,-0.204 -0.264,-0.488 -0.264,-0.772 0,-0.284 0.068,-0.568 0.264,-0.772 0.188,-0.196 0.464,-0.276 0.736,-0.276 0.348,0 0.64,0.256 0.7,0.6 0.004,0.02 0.004,0.036 0.004,0.052 0,0.16 -0.12,0.288 -0.268,0.288 z"
     fill="currentColor"
     id="path104"
     style="stroke-width:0.004" />
  <path
     d="m 21.546717,22.516 c 0,-0.096 -0.084,-0.164 -0.168,-0.164 -0.016,0 -0.032,0 -0.048,0.004 -0.124,0.036 -0.308,0.16 -0.456,0.256 -0.148,0.096 -0.336,0.212 -0.416,0.312 -0.028,0.032 -0.044,0.072 -0.044,0.112 0,0.096 0.084,0.164 0.168,0.164 0.016,0 0.032,0 0.048,-0.004 0.124,-0.036 0.312,-0.16 0.46,-0.256 0.148,-0.096 0.336,-0.212 0.416,-0.312 0.028,-0.032 0.04,-0.072 0.04,-0.112 z m -0.204,-0.288 c 0.188,0 0.332,0.084 0.332,0.288 0,0.076 -0.016,0.148 -0.04,0.224 -0.048,0.152 -0.128,0.296 -0.26,0.384 -0.216,0.144 -0.452,0.204 -0.752,0.204 -0.188,0 -0.336,-0.088 -0.336,-0.292 0,-0.076 0.02,-0.148 0.044,-0.224 0.048,-0.152 0.124,-0.296 0.256,-0.384 0.216,-0.144 0.456,-0.2 0.756,-0.2 z"
     fill="currentColor"
     id="path106"
     style="stroke-width:0.004" />
  <path
     d="m 13.658717,21.776 c 0,0.132 0.028,0.292 0.18,0.292 0.116,0 0.228,-0.124 0.352,-0.124 0.492,0 0.916,0.356 0.916,0.832 0,0.676 -0.372,1 -1.06,1 -0.332,0 -0.608,-0.244 -0.608,-0.568 0,-0.168 0.136,-0.308 0.304,-0.308 0.168,0 0.304,0.14 0.304,0.308 0,0.156 -0.196,0.148 -0.196,0.304 0,0.092 0.096,0.152 0.196,0.152 0.464,0 0.56,-0.36 0.56,-0.888 0,-0.424 -0.048,-0.72 -0.416,-0.72 -0.288,0 -0.476,0.284 -0.476,0.596 0,0.036 -0.028,0.056 -0.056,0.056 -0.028,0 -0.052,-0.02 -0.052,-0.056 0,-0.304 -0.124,-0.588 -0.336,-0.8 v 1.884 c 0,0.024 -0.016,0.04 -0.04,0.04 h -0.084 c -0.024,0 -0.04,-0.016 -0.04,-0.04 v -3.92 c 0,-0.024 0.016,-0.04 0.04,-0.04 h 0.084 c 0.024,0 0.04,0.016 0.04,0.04 V 21.7 c 0.212,-0.212 0.336,-0.496 0.336,-0.8 0,-0.036 0.024,-0.056 0.052,-0.056 0.028,0 0.056,0.02 0.056,0.056 0,0.312 0.188,0.596 0.476,0.596 0.368,0 0.416,-0.296 0.416,-0.72 0,-0.528 -0.096,-0.888 -0.56,-0.888 -0.1,0 -0.196,0.06 -0.196,0.152 0,0.156 0.196,0.148 0.196,0.304 0,0.168 -0.136,0.308 -0.304,0.308 -0.168,0 -0.304,-0.14 -0.304,-0.308 0,-0.324 0.276,-0.568 0.608,-0.568 0.688,0 1.06,0.324 1.06,1 0,0.476 -0.424,0.832 -0.916,0.832 -0.124,0 -0.236,-0.124 -0.352,-0.124 -0.152,0 -0.18,0.16 -0.18,0.292 z m -0.756,2 h -0.476 c -0.024,0 -0.04,-0.016 -0.04,-0.04 v -3.92 c 0,-0.024 0.016,-0.04 0.04,-0.04 h 0.476 c 0.024,0 0.04,0.016 0.04,0.04 v 3.92 c 0,0.024 -0.016,0.04 -0.04,0.04 z"
     fill="currentColor"
     id="path108"
     style="stroke-width:0.004" />
  <path
     d="m 18.022717,21.668 c -0.196,0 -0.3,-0.168 -0.3,-0.3 0,-0.152 0.108,-0.308 0.288,-0.308 0.016,0 0.036,0 0.056,0.004 -0.112,-0.148 -0.288,-0.236 -0.48,-0.236 -0.424,0 -0.452,0.292 -0.452,0.744 v 0.204 0.204 c 0,0.452 0.028,0.748 0.452,0.748 0.32,0 0.556,-0.28 0.632,-0.604 0.008,-0.028 0.028,-0.04 0.048,-0.04 0.024,0 0.052,0.016 0.052,0.048 0,0.376 -0.42,0.696 -0.732,0.696 -0.272,0 -0.548,-0.084 -0.736,-0.28 -0.196,-0.204 -0.264,-0.488 -0.264,-0.772 0,-0.284 0.068,-0.568 0.264,-0.772 0.188,-0.196 0.464,-0.276 0.736,-0.276 0.348,0 0.64,0.256 0.7,0.6 0.004,0.02 0.004,0.036 0.004,0.052 0,0.16 -0.12,0.288 -0.268,0.288 z"
     fill="currentColor"
     id="path110"
     style="stroke-width:0.004" />
  <path
     d="m 21.546717,30.516 c 0,-0.096 -0.084,-0.164 -0.168,-0.164 -0.016,0 -0.032,0 -0.048,0.004 -0.124,0.036 -0.308,0.16 -0.456,0.256 -0.148,0.096 -0.336,0.212 -0.416,0.312 -0.028,0.032 -0.044,0.072 -0.044,0.112 0,0.096 0.084,0.164 0.168,0.164 0.016,0 0.032,0 0.048,-0.004 0.124,-0.036 0.312,-0.16 0.46,-0.256 0.148,-0.096 0.336,-0.212 0.416,-0.312 0.028,-0.032 0.04,-0.072 0.04,-0.112 z m -0.204,-0.288 c 0.188,0 0.332,0.084 0.332,0.288 0,0.076 -0.016,0.148 -0.04,0.224 -0.048,0.152 -0.128,0.296 -0.26,0.384 -0.216,0.144 -0.452,0.204 -0.752,0.204 -0.188,0 -0.336,-0.088 -0.336,-0.292 0,-0.076 0.02,-0.148 0.044,-0.224 0.048,-0.152 0.124,-0.296 0.256,-0.384 0.216,-0.144 0.456,-0.2 0.756,-0.2 z"
     fill="currentColor"
     id="path112"
     style="stroke-width:0.004" />
  <path
     d="m 14.614717,30.276 c 0,-0.112 0.092,-0.204 0.204,-0.204 0.112,0 0.204,0.092 0.204,0.204 0,0.112 -0.092,0.204 -0.204,0.204 -0.112,0 -0.204,-0.092 -0.204,-0.204 z m 0,-1 c 0,-0.112 0.092,-0.204 0.204,-0.204 0.112,0 0.204,0.092 0.204,0.204 0,0.112 -0.092,0.204 -0.204,0.204 -0.112,0 -0.204,-0.092 -0.204,-0.204 z m -1.3,-0.552 c 0.688,0 1.172,0.352 1.172,1.004 0,1.052 -1.052,1.656 -2.064,2.084 -0.012,0.012 -0.024,0.016 -0.036,0.016 -0.028,0 -0.052,-0.024 -0.052,-0.052 0,-0.012 0.004,-0.024 0.016,-0.036 0.808,-0.472 1.648,-1.06 1.648,-1.972 0,-0.48 -0.252,-0.94 -0.684,-0.94 -0.296,0 -0.516,0.216 -0.616,0.504 0.044,-0.02 0.088,-0.032 0.136,-0.032 0.22,0 0.4,0.18 0.4,0.4 0,0.232 -0.176,0.424 -0.4,0.424 -0.24,0 -0.448,-0.188 -0.448,-0.424 0,-0.532 0.408,-0.976 0.928,-0.976 z"
     fill="currentColor"
     id="path114"
     style="stroke-width:0.004" />
  <path
     d="m 18.022717,30.668 c -0.196,0 -0.3,-0.168 -0.3,-0.3 0,-0.152 0.108,-0.308 0.288,-0.308 0.016,0 0.036,0 0.056,0.004 -0.112,-0.148 -0.288,-0.236 -0.48,-0.236 -0.424,0 -0.452,0.292 -0.452,0.744 v 0.204 0.204 c 0,0.452 0.028,0.748 0.452,0.748 0.32,0 0.556,-0.28 0.632,-0.604 0.008,-0.028 0.028,-0.04 0.048,-0.04 0.024,0 0.052,0.016 0.052,0.048 0,0.376 -0.42,0.696 -0.732,0.696 -0.272,0 -0.548,-0.084 -0.736,-0.28 -0.196,-0.204 -0.264,-0.488 -0.264,-0.772 0,-0.284 0.068,-0.568 0.264,-0.772 0.188,-0.196 0.464,-0.276 0.736,-0.276 0.348,0 0.64,0.256 0.7,0.6 0.004,0.02 0.004,0.036 0.004,0.052 0,0.16 -0.12,0.288 -0.268,0.288 z"
     fill="currentColor"
     id="path116"
     style="stroke-width:0.004" />
  <rect
     x="21.546717"
     y="0.77600002"
     width="0.13"
     height="3.2386"
     ry="0.039999999"
     fill="currentColor"
     id="rect118" />
  <text
     font-family="'Roboto Slab Light'"
     font-size="1.96px"
     text-anchor="start"
     fill="currentColor"
     id="text122"
     x="1.9555172"
     y="4.5100999"><tspan
       id="tspan120">Violino 1</tspan></text>
  <text
     font-family="'Roboto Slab Light'"
     font-size="1.96px"
     text-anchor="start"
     fill="currentColor"
     id="text126"
     x="1.6823171"
     y="13.5101"><tspan
       id="tspan124">Violino 2</tspan></text>
  <text
     font-family="'Roboto Slab Light'"
     font-size="1.96px"
     text-anchor="start"
     fill="currentColor"
     id="text130"
     x="5.1308174"
     y="22.510099"><tspan
       id="tspan128">Viola</tspan></text>
  <text
     font-family="'Roboto Slab Light'"
     font-size="1.96px"
     text-anchor="start"
     fill="currentColor"
     id="text134"
     x="-0.024882814"
     y="31.510099"><tspan
       id="tspan132">Violoncelo</tspan></text>
  <path
     d="m 12.076717,0.169 c 0.036,0 0.064,0.032 0.064,0.064 0,0.012 -0.004,0.024 -0.012,0.036 -0.396,0.576 -0.86,1.456 -1.552,1.456 h -0.3 V 1.377 c 0,-0.056 0.044,-0.1 0.1,-0.1 h 0.2 c 0.636,0 1.084,-0.544 1.448,-1.08 0.012,-0.016 0.032,-0.028 0.052,-0.028 z"
     fill="currentColor"
     id="path136"
     style="stroke-width:0.004" />
  <path
     d="m 12.140717,34.319 c 0,0.032 -0.028,0.064 -0.064,0.064 -0.02,0 -0.04,-0.012 -0.052,-0.028 -0.364,-0.536 -0.812,-1.08 -1.448,-1.08 h -0.2 c -0.056,0 -0.1,-0.044 -0.1,-0.1 v -0.348 h 0.3 c 0.692,0 1.156,0.88 1.552,1.456 0.008,0.012 0.012,0.024 0.012,0.036 z"
     fill="currentColor"
     id="path138"
     style="stroke-width:0.004" />
  <rect
     x="10.276717"
     y="1.6809998"
     width="0.44999999"
     height="31.190001"
     ry="0.0000"
     fill="currentColor"
     id="rect140" />
  <rect
     x="11.526717"
     y="1.7259998"
     width="0.16"
     height="31.1"
     ry="0.050000001"
     fill="currentColor"
     id="rect142" />
  <path
     d="m 21.546717,4.016 c 0,-0.096 -0.084,-0.164 -0.168,-0.164 -0.016,0 -0.032,0 -0.048,0.004 -0.124,0.036 -0.308,0.16 -0.456,0.256 -0.148,0.096 -0.336,0.212 -0.416,0.312 -0.028,0.032 -0.044,0.072 -0.044,0.112 0,0.096 0.084,0.164 0.168,0.164 0.016,0 0.032,0 0.048,-0.004 0.124,-0.036 0.312,-0.16 0.46,-0.256 0.148,-0.096 0.336,-0.212 0.416,-0.312 0.028,-0.032 0.04,-0.072 0.04,-0.112 z m -0.204,-0.288 c 0.188,0 0.332,0.084 0.332,0.288 0,0.076 -0.016,0.148 -0.04,0.224 -0.048,0.152 -0.128,0.296 -0.26,0.384 -0.216,0.144 -0.452,0.204 -0.752,0.204 -0.188,0 -0.336,-0.088 -0.336,-0.292 0,-0.076 0.02,-0.148 0.044,-0.224 0.048,-0.152 0.124,-0.296 0.256,-0.384 0.216,-0.144 0.456,-0.2 0.756,-0.2 z"
     fill="currentColor"
     id="path144"
     style="stroke-width:0.004" />
  <path
     d="m 13.890717,3.728 c 0.016,0 0.036,-0.004 0.052,-0.004 0.62,0 1.024,0.512 1.024,1.044 0,0.304 -0.132,0.616 -0.428,0.84 -0.088,0.068 -0.188,0.112 -0.292,0.144 0.012,0.14 0.02,0.28 0.02,0.42 0,0.076 -0.004,0.156 -0.008,0.232 -0.028,0.48 -0.36,0.912 -0.832,0.912 -0.432,0 -0.78,-0.352 -0.78,-0.788 0,-0.232 0.212,-0.412 0.448,-0.412 0.216,0 0.38,0.188 0.38,0.412 0,0.208 -0.172,0.38 -0.38,0.38 -0.044,0 -0.084,-0.008 -0.124,-0.024 0.104,0.156 0.272,0.26 0.468,0.26 0.384,0 0.628,-0.368 0.652,-0.764 0.004,-0.072 0.008,-0.148 0.008,-0.22 0,-0.124 -0.004,-0.244 -0.016,-0.368 -0.116,0.02 -0.232,0.032 -0.356,0.032 -0.752,0 -1.332,-0.688 -1.332,-1.496 0,-0.708 0.524,-1.224 0.992,-1.764 -0.076,-0.248 -0.148,-0.5 -0.18,-0.76 -0.024,-0.208 -0.028,-0.416 -0.028,-0.624 0,-0.46 0.22,-0.896 0.596,-1.168 0.012,-0.008 0.028,-0.012 0.04,-0.012 0.016,0 0.028,0 0.04,0.012 0.284,0.336 0.532,0.98 0.532,1.432 0,0.572 -0.344,1.02 -0.72,1.456 0.084,0.272 0.156,0.552 0.224,0.828 z m 0.34,1.86 c 0.272,-0.096 0.452,-0.38 0.452,-0.656 0,-0.36 -0.264,-0.716 -0.692,-0.76 0.096,0.464 0.184,0.924 0.24,1.416 z m -1.548,-0.924 c 0,0.54 0.516,0.988 1.056,0.988 0.112,0 0.22,-0.008 0.328,-0.024 -0.056,-0.508 -0.148,-0.98 -0.252,-1.456 -0.316,0.032 -0.496,0.244 -0.496,0.476 0,0.176 0.1,0.364 0.324,0.492 0.02,0.02 0.028,0.04 0.028,0.06 0,0.044 -0.04,0.088 -0.088,0.088 -0.012,0 -0.024,-0.004 -0.036,-0.008 -0.32,-0.172 -0.468,-0.46 -0.468,-0.74 0,-0.352 0.232,-0.696 0.64,-0.788 -0.056,-0.232 -0.116,-0.468 -0.184,-0.7 -0.428,0.484 -0.852,0.972 -0.852,1.612 z m 1.336,-4.068 c -0.396,0.192 -0.648,0.596 -0.648,1.036 0,0.296 0.072,0.532 0.144,0.776 0.32,-0.388 0.584,-0.792 0.584,-1.296 0,-0.22 -0.016,-0.316 -0.08,-0.516 z"
     fill="currentColor"
     id="path146"
     style="stroke-width:0.004" />
  <path
     d="m 18.022717,3.668 c -0.196,0 -0.3,-0.168 -0.3,-0.3 0,-0.152 0.108,-0.308 0.288,-0.308 0.016,0 0.036,0 0.056,0.004 -0.112,-0.148 -0.288,-0.236 -0.48,-0.236 -0.424,0 -0.452,0.292 -0.452,0.744 V 3.776 3.98 c 0,0.452 0.028,0.748 0.452,0.748 0.32,0 0.556,-0.28 0.632,-0.604 0.008,-0.028 0.028,-0.04 0.048,-0.04 0.024,0 0.052,0.016 0.052,0.048 0,0.376 -0.42,0.696 -0.732,0.696 -0.272,0 -0.548,-0.084 -0.736,-0.28 -0.196,-0.204 -0.264,-0.488 -0.264,-0.772 0,-0.284 0.068,-0.568 0.264,-0.772 0.188,-0.196 0.464,-0.276 0.736,-0.276 0.348,0 0.64,0.256 0.7,0.6 0.004,0.02 0.004,0.036 0.004,0.052 0,0.16 -0.12,0.288 -0.268,0.288 z"
     fill="currentColor"
     id="path148"
     style="stroke-width:0.004" />
  <rect
     x="25.897217"
     y="10.276"
     width="0.13"
     height="3.2386"
     ry="0.039999999"
     fill="currentColor"
     id="rect150" />
  <rect
     x="24.637217"
     y="4.0374002"
     width="0.13"
     height="3.0718999"
     ry="0.039999999"
     fill="currentColor"
     id="rect152" />
  <path
     d="m 25.897217,29.016 c 0,-0.096 -0.084,-0.164 -0.168,-0.164 -0.016,0 -0.032,0 -0.048,0.004 -0.124,0.036 -0.308,0.16 -0.456,0.256 -0.148,0.096 -0.336,0.212 -0.416,0.312 -0.028,0.032 -0.044,0.072 -0.044,0.112 0,0.096 0.084,0.164 0.168,0.164 0.016,0 0.032,0 0.048,-0.004 0.124,-0.036 0.312,-0.16 0.46,-0.256 0.148,-0.096 0.336,-0.212 0.416,-0.312 0.028,-0.032 0.04,-0.072 0.04,-0.112 z m -0.204,-0.288 c 0.188,0 0.332,0.084 0.332,0.288 0,0.076 -0.016,0.148 -0.04,0.224 -0.048,0.152 -0.128,0.296 -0.26,0.384 -0.216,0.144 -0.452,0.204 -0.752,0.204 -0.188,0 -0.336,-0.088 -0.336,-0.292 0,-0.076 0.02,-0.148 0.044,-0.224 0.048,-0.152 0.124,-0.296 0.256,-0.384 0.216,-0.144 0.456,-0.2 0.756,-0.2 z"
     fill="currentColor"
     id="path154"
     style="stroke-width:0.004" />
  <path
     d="m 25.897217,23.016 c 0,-0.096 -0.084,-0.164 -0.168,-0.164 -0.016,0 -0.032,0 -0.048,0.004 -0.124,0.036 -0.308,0.16 -0.456,0.256 -0.148,0.096 -0.336,0.212 -0.416,0.312 -0.028,0.032 -0.044,0.072 -0.044,0.112 0,0.096 0.084,0.164 0.168,0.164 0.016,0 0.032,0 0.048,-0.004 0.124,-0.036 0.312,-0.16 0.46,-0.256 0.148,-0.096 0.336,-0.212 0.416,-0.312 0.028,-0.032 0.04,-0.072 0.04,-0.112 z m -0.204,-0.288 c 0.188,0 0.332,0.084 0.332,0.288 0,0.076 -0.016,0.148 -0.04,0.224 -0.048,0.152 -0.128,0.296 -0.26,0.384 -0.216,0.144 -0.452,0.204 -0.752,0.204 -0.188,0 -0.336,-0.088 -0.336,-0.292 0,-0.076 0.02,-0.148 0.044,-0.224 0.048,-0.152 0.124,-0.296 0.256,-0.384 0.216,-0.144 0.456,-0.2 0.756,-0.2 z"
     fill="currentColor"
     id="path156"
     style="stroke-width:0.004" />
  <path
     d="m 25.897217,13.516 c 0,-0.096 -0.084,-0.164 -0.168,-0.164 -0.016,0 -0.032,0 -0.048,0.004 -0.124,0.036 -0.308,0.16 -0.456,0.256 -0.148,0.096 -0.336,0.212 -0.416,0.312 -0.028,0.032 -0.044,0.072 -0.044,0.112 0,0.096 0.084,0.164 0.168,0.164 0.016,0 0.032,0 0.048,-0.004 0.124,-0.036 0.312,-0.16 0.46,-0.256 0.148,-0.096 0.336,-0.212 0.416,-0.312 0.028,-0.032 0.04,-0.072 0.04,-0.112 z m -0.204,-0.288 c 0.188,0 0.332,0.084 0.332,0.288 0,0.076 -0.016,0.148 -0.04,0.224 -0.048,0.152 -0.128,0.296 -0.26,0.384 -0.216,0.144 -0.452,0.204 -0.752,0.204 -0.188,0 -0.336,-0.088 -0.336,-0.292 0,-0.076 0.02,-0.148 0.044,-0.224 0.048,-0.152 0.124,-0.296 0.256,-0.384 0.216,-0.144 0.456,-0.2 0.756,-0.2 z"
     fill="currentColor"
     id="path158"
     style="stroke-width:0.004" />
  <path
     d="m 25.897217,3.516 c 0,-0.096 -0.084,-0.164 -0.168,-0.164 -0.016,0 -0.032,0 -0.048,0.004 -0.124,0.036 -0.308,0.16 -0.456,0.256 -0.148,0.096 -0.336,0.212 -0.416,0.312 -0.028,0.032 -0.044,0.072 -0.044,0.112 0,0.096 0.084,0.164 0.168,0.164 0.016,0 0.032,0 0.048,-0.004 0.124,-0.036 0.312,-0.16 0.46,-0.256 0.148,-0.096 0.336,-0.212 0.416,-0.312 0.028,-0.032 0.04,-0.072 0.04,-0.112 z m -0.204,-0.288 c 0.188,0 0.332,0.084 0.332,0.288 0,0.076 -0.016,0.148 -0.04,0.224 -0.048,0.152 -0.128,0.296 -0.26,0.384 -0.216,0.144 -0.452,0.204 -0.752,0.204 -0.188,0 -0.336,-0.088 -0.336,-0.292 0,-0.076 0.02,-0.148 0.044,-0.224 0.048,-0.152 0.124,-0.296 0.256,-0.384 0.216,-0.144 0.456,-0.2 0.756,-0.2 z"
     fill="currentColor"
     id="path160"
     style="stroke-width:0.004" />
  <rect
     x="21.546717"
     y="10.776"
     width="0.13"
     height="3.2386"
     ry="0.039999999"
     fill="currentColor"
     id="rect162" />
  <rect
     x="21.546717"
     y="19.275999"
     width="0.13"
     height="3.2386"
     ry="0.039999999"
     fill="currentColor"
     id="rect164" />
  <rect
     x="20.286716"
     y="31.037399"
     width="0.13"
     height="3.0718999"
     ry="0.039999999"
     fill="currentColor"
     id="rect166" />
</svg>
